<?xml version="1.0" encoding="utf-8"?>
<!-- Generator: Adobe Illustrator 16.0.0, SVG Export Plug-In . SVG Version: 6.00 Build 0)  -->
<!DOCTYPE svg PUBLIC "-//W3C//DTD SVG 1.1//EN" "http://www.w3.org/Graphics/SVG/1.1/DTD/svg11.dtd">
<svg version="1.1" id="Layer_1" xmlns="http://www.w3.org/2000/svg" xmlns:xlink="http://www.w3.org/1999/xlink" x="0px" y="0px"
	 width="600px" height="600px" viewBox="0 0 600 600" enable-background="new 0 0 600 600" xml:space="preserve">
<rect fill="#00ADEE" width="600" height="600"/>
<path fill="#FFFFFF" d="M412.498,310.074c-5.563,0-10.074-4.511-10.074-10.074c0-5.564,4.511-10.074,10.074-10.074
	c5.564,0,10.074,4.51,10.074,10.074C422.572,305.563,418.062,310.074,412.498,310.074z M203.981,300
	c0-9.098-7.376-16.473-16.48-16.473c-9.097,0-16.473,7.375-16.473,16.473s7.376,16.473,16.473,16.473
	C196.605,316.473,203.981,309.098,203.981,300z M171.195,325.622c-2.011-10.119-11.841-16.686-21.954-14.674
	c-10.113,2.017-16.685,11.841-14.674,21.96c2.018,10.112,11.848,16.679,21.96,14.668
	C166.64,345.564,173.207,335.734,171.195,325.622z M459.965,268.178c-1.413-7.099-8.301-11.706-15.406-10.299
	c-7.094,1.414-11.707,8.313-10.293,15.413c1.413,7.1,8.301,11.706,15.406,10.299C456.766,282.178,461.379,275.277,459.965,268.178z
	 M421.043,249.861c-3.919-9.451-14.751-13.936-24.195-10.023c-9.444,3.913-13.941,14.745-10.022,24.196
	c3.919,9.451,14.751,13.941,24.195,10.022C420.479,270.144,424.963,259.312,421.043,249.861z M209.436,337.515
	c-3.058-7.389-11.526-10.896-18.908-7.839c-7.389,3.065-10.896,11.533-7.838,18.915c3.058,7.389,11.526,10.89,18.915,7.832
	C208.993,353.364,212.494,344.896,209.436,337.515z M179.824,380.291c-1.677-2.506-5.076-3.188-7.582-1.504
	c-2.506,1.678-3.187,5.076-1.51,7.582c1.677,2.518,5.076,3.187,7.587,1.516C180.833,386.201,181.507,382.81,179.824,380.291z
	 M429.562,213.432c-1.786-2.673-5.409-3.392-8.082-1.606c-2.673,1.786-3.393,5.396-1.606,8.069s5.409,3.392,8.069,1.606
	C430.629,219.716,431.349,216.105,429.562,213.432z M386.427,213.567c-3.804-3.803-9.959-3.803-13.763,0
	c-3.803,3.797-3.803,9.965,0,13.769c3.804,3.797,9.959,3.797,13.763,0C390.23,223.532,390.23,217.364,386.427,213.567z
	 M229.077,370.924c-4.767-4.762-12.49-4.762-17.25,0c-4.761,4.767-4.761,12.489,0,17.25c4.761,4.761,12.483,4.761,17.25,0
	S233.844,375.69,229.077,370.924z M223.346,414.722c-5.525-3.682-12.991-2.204-16.679,3.321c-3.688,5.519-2.197,12.979,3.315,16.672
	c5.525,3.688,12.991,2.204,16.679-3.321C230.349,425.881,228.864,418.416,223.346,414.722z M392.247,161.931
	c-7.362-4.921-17.334-2.942-22.255,4.427c-4.922,7.376-2.943,17.341,4.42,22.269c7.376,4.921,17.334,2.942,22.269-4.433
	C401.602,176.823,399.623,166.858,392.247,161.931z M345.821,189.371c-3.7-1.535-7.94,0.225-9.47,3.919
	c-1.529,3.694,0.231,7.935,3.919,9.464c3.701,1.536,7.941-0.225,9.471-3.919C351.27,195.141,349.522,190.9,345.821,189.371z
	 M259.903,396.815c-3.938-1.632-8.442,0.231-10.074,4.17s0.231,8.442,4.169,10.074c3.938,1.625,8.449-0.238,10.081-4.17
	C265.704,402.951,263.835,398.441,259.903,396.815z M273.196,434.76c-6.823-1.361-13.46,3.071-14.822,9.895
	c-1.355,6.83,3.084,13.467,9.907,14.822s13.46-3.077,14.815-9.9C284.458,442.753,280.025,436.109,273.196,434.76z M332.625,135.987
	c-9.328-1.856-18.4,4.202-20.264,13.531c-1.851,9.329,4.215,18.401,13.543,20.257c9.329,1.857,18.401-4.202,20.252-13.537
	C348.006,146.91,341.954,137.844,332.625,135.987z M300,178.295c-5.082,0-9.207,4.118-9.207,9.207c0,5.082,4.125,9.201,9.207,9.201
	c5.088,0,9.2-4.119,9.2-9.201C309.2,182.413,305.088,178.295,300,178.295z M300,403.639c-4.889,0-8.86,3.964-8.86,8.859
	c0,4.896,3.971,8.86,8.86,8.86c4.896,0,8.854-3.964,8.854-8.86C308.854,407.603,304.896,403.639,300,403.639z M327.485,438.152
	c-4.96,0.983-8.173,5.795-7.196,10.749c0.99,4.953,5.809,8.166,10.756,7.183c4.947-0.982,8.172-5.801,7.183-10.748
	C337.238,440.382,332.433,437.163,327.485,438.152z M269.739,147.848c-2.782,0.553-4.581,3.251-4.028,6.033
	c0.552,2.782,3.251,4.581,6.026,4.029c2.775-0.546,4.587-3.251,4.035-6.027C275.22,149.101,272.515,147.295,269.739,147.848z
	 M251.268,182.355c-7.568,3.129-11.166,11.815-8.031,19.39c3.135,7.569,11.822,11.167,19.39,8.031
	c7.575-3.142,11.166-11.822,8.031-19.396C267.522,182.812,258.849,179.214,251.268,182.355z M336.57,388.277
	c-8.661,3.584-12.76,13.498-9.175,22.146c3.572,8.648,13.492,12.754,22.14,9.175c8.647-3.585,12.76-13.505,9.175-22.146
	C355.125,388.797,345.205,384.698,336.57,388.277z M375.581,413.128c-6.398,4.279-8.12,12.933-3.842,19.339
	c4.279,6.405,12.939,8.127,19.339,3.849c6.398-4.279,8.121-12.94,3.842-19.339C390.654,410.571,381.993,408.85,375.581,413.128z
	 M212.841,169.551c-3.167,2.114-4.015,6.393-1.901,9.554c2.113,3.161,6.393,4.009,9.554,1.895c3.161-2.107,4.009-6.386,1.901-9.547
	C220.274,168.292,215.996,167.443,212.841,169.551z M208.164,208.164c-6.792,6.784-6.792,17.784,0,24.575
	c6.784,6.785,17.79,6.785,24.575,0c6.785-6.791,6.785-17.791,0-24.575C225.954,201.379,214.948,201.379,208.164,208.164z
	 M371.894,371.894c-4.228,4.228-4.228,11.083,0,15.311s11.076,4.228,15.304,0s4.228-11.083,0-15.311
	S376.121,367.666,371.894,371.894z M411.188,374.29c-4.998,7.479-2.98,17.578,4.484,22.577c7.479,4.992,17.578,2.98,22.577-4.491
	s2.981-17.585-4.484-22.57C426.286,364.813,416.174,366.818,411.188,374.29z M162.4,208.055c-4.754,7.119-2.84,16.736,4.272,21.491
	s16.737,2.833,21.491-4.272c4.748-7.119,2.84-16.737-4.279-21.491C176.772,199.028,167.154,200.942,162.4,208.055z M189.577,254.262
	c-1.478,3.579,0.219,7.69,3.804,9.168c3.579,1.484,7.684-0.212,9.174-3.797c1.478-3.579-0.218-7.69-3.803-9.175
	C195.167,248.974,191.067,250.677,189.577,254.262z M396.166,339.834c-1.785,4.292,0.258,9.213,4.549,10.992
	c4.292,1.78,9.214-0.263,11-4.555c1.773-4.292-0.271-9.213-4.562-10.993C402.861,333.499,397.939,335.535,396.166,339.834z
	 M439.277,327.704c-0.849,4.33,1.953,8.532,6.283,9.393c4.317,0.861,8.532-1.946,9.393-6.276c0.861-4.324-1.953-8.526-6.283-9.387
	C444.353,320.572,440.15,323.38,439.277,327.704z M138.474,267.87c-1.58,7.954,3.585,15.689,11.546,17.27
	c7.954,1.58,15.683-3.585,17.263-11.539c1.587-7.954-3.579-15.689-11.539-17.27C147.79,254.75,140.061,259.916,138.474,267.87z"/>
<g>
</g>
<g>
</g>
<g>
</g>
<g>
</g>
<g>
</g>
<g>
</g>
</svg>
