<?xml version="1.0" encoding="utf-8"?>
<!-- Generator: Adobe Illustrator 16.0.0, SVG Export Plug-In . SVG Version: 6.00 Build 0)  -->
<!DOCTYPE svg PUBLIC "-//W3C//DTD SVG 1.1//EN" "http://www.w3.org/Graphics/SVG/1.1/DTD/svg11.dtd">
<svg version="1.1" xmlns="http://www.w3.org/2000/svg" xmlns:xlink="http://www.w3.org/1999/xlink" x="0px" y="0px" width="570px"
	 height="570px" viewBox="0 0 570 570" enable-background="new 0 0 570 570" xml:space="preserve">
<g id="Background">
	<rect fill="#FFFFFF" width="570" height="570"/>
</g>
<g id="Bird">
	<g>
		<path fill="#FFFFFF" d="M325.044,472c-4.056,0-7.355-3.3-7.355-7.356v-9.944c-2.018,1.965-3.221,4.692-3.221,7.574
			c0,4.056-3.3,7.354-7.356,7.354c-4.056,0-7.355-3.299-7.355-7.354c0-11.232,7.297-20.956,17.932-24.175v-31.69h-69.203v31.69
			c10.635,3.219,17.932,12.942,17.932,24.175c0,4.056-3.3,7.354-7.356,7.354c-4.056,0-7.355-3.299-7.355-7.354
			c0-2.882-1.202-5.609-3.221-7.574v9.944c0,4.057-3.3,7.356-7.356,7.356c-4.056,0-7.355-3.3-7.355-7.356v-9.941
			c-2.018,1.965-3.22,4.691-3.22,7.571c0,4.056-3.3,7.354-7.355,7.354c-4.056,0-7.356-3.299-7.356-7.354
			c0-11.231,7.296-20.956,17.931-24.175v-31.69h-62.813c-1.104,0-2-0.896-2-2v-42.157l-9.364,12.085
			c-2.272,2.933-4.293,3.548-5.588,3.548c-1.042,0-4.482-0.483-4.964-6.709l-0.028-0.373c-0.157-2.044-0.763-3.147-1.253-3.147
			c-0.468,0-1.437,0.489-2.63,1.87l-1.783,2.07c-1.866,2.158-3.735,3.252-5.558,3.252c-1.096,0-4.686-0.502-4.888-6.95l-0.157-4.922
			c-0.027-0.854-0.249-3.64-1.973-3.64c-0.468,0-1.476,0.179-2.96,1.38l-5.601,4.524c-2.742,2.215-4.056,2.499-4.895,2.499
			c-0.962,0-1.81-0.476-2.268-1.271c-0.766-1.331-0.349-3.179,1.395-6.179l52.516-90.374v-29.918l-10.144,10.144
			c-0.39,0.391-0.902,0.586-1.414,0.586s-1.023-0.195-1.414-0.586l-10.565-10.564c-0.375-0.375-0.586-0.884-0.586-1.414
			s0.211-1.039,0.586-1.414L283.586,98.586C283.976,98.195,284.488,98,285,98s1.023,0.195,1.414,0.586l138.161,138.161
			c0.375,0.375,0.586,0.884,0.586,1.414s-0.211,1.039-0.586,1.414L414.01,250.14c-0.391,0.391-0.902,0.586-1.414,0.586
			s-1.023-0.195-1.414-0.586l-10.15-10.149v29.923l52.524,90.375c1.743,2.999,2.16,4.847,1.393,6.179
			c-0.458,0.796-1.307,1.271-2.27,1.271h0c-0.839-0.001-2.154-0.285-4.897-2.498l-5.597-4.524c-1.101-0.891-2.153-1.381-2.961-1.381
			c-1.725,0-1.946,2.785-1.973,3.639l-0.157,4.924c-0.204,6.447-3.793,6.949-4.889,6.949c-1.823,0-3.692-1.094-5.555-3.25
			l-1.787-2.075c-1.19-1.378-2.159-1.867-2.626-1.867c-0.491,0-1.099,1.104-1.257,3.151l-0.028,0.365
			c-0.48,6.229-3.92,6.713-4.963,6.713c-1.295,0-3.316-0.615-5.589-3.547l-9.369-12.089v42.16c0,1.104-0.896,2-2,2H332.4v31.69
			c10.635,3.219,17.932,12.943,17.932,24.175c0,4.056-3.3,7.354-7.356,7.354c-4.056,0-7.355-3.299-7.355-7.354
			c0-2.882-1.203-5.609-3.221-7.574v9.944C332.4,468.7,329.101,472,325.044,472z"/>
		<g>
			<path fill="#231F20" d="M285,100l10.565,10.565l127.595,127.596l-10.565,10.564l-13.564-13.563v35.29l52.795,90.841
				c1.687,2.902,1.9,4.445,0.852,4.445c-0.689,0-1.923-0.668-3.641-2.055l-5.596-4.523c-1.529-1.236-2.977-1.825-4.219-1.825
				c-2.277,0-3.86,1.979-3.972,5.576l-0.157,4.923c-0.104,3.282-1.233,5.012-2.89,5.012c-1.149,0-2.552-0.832-4.042-2.557
				l-1.785-2.072c-1.493-1.729-2.933-2.562-4.142-2.562c-1.737,0-2.998,1.724-3.251,4.997l-0.028,0.369
				c-0.247,3.196-1.391,4.863-2.969,4.863c-1.163,0-2.561-0.905-4.008-2.772l-12.105-15.62c-0.287-0.369-0.567-0.775-0.844-1.193
				v48.11H330.4v35.222c10.263,2.428,17.932,11.646,17.932,22.644c0,2.957-2.398,5.354-5.356,5.354s-5.355-2.397-5.355-5.354
				c0-5.021-2.96-9.35-7.221-11.366v13.736c0,2.959-2.398,5.356-5.356,5.356s-5.355-2.397-5.355-5.356v-13.736
				c-4.26,2.017-7.221,6.346-7.221,11.366c0,2.957-2.398,5.354-5.356,5.354s-5.355-2.397-5.355-5.354
				c0-10.997,7.668-20.216,17.932-22.644v-35.222h-73.203v35.222c10.264,2.428,17.932,11.646,17.932,22.644
				c0,2.957-2.397,5.354-5.356,5.354c-2.958,0-5.355-2.397-5.355-5.354c0-5.021-2.96-9.35-7.221-11.366v13.736
				c0,2.959-2.397,5.356-5.356,5.356c-2.958,0-5.355-2.397-5.355-5.356v-13.734c-4.259,2.018-7.22,6.344-7.22,11.364
				c0,2.957-2.397,5.354-5.355,5.354c-2.958,0-5.356-2.397-5.356-5.354c0-10.997,7.668-20.216,17.931-22.644v-35.222h-64.813v-48.11
				c-0.276,0.42-0.556,0.824-0.842,1.193l-12.103,15.62c-1.447,1.867-2.844,2.772-4.007,2.772c-1.577,0-2.722-1.667-2.97-4.863
				l-0.028-0.369c-0.25-3.273-1.51-4.997-3.248-4.997c-1.209,0-2.65,0.835-4.144,2.562l-1.785,2.072
				c-1.491,1.725-2.894,2.557-4.043,2.557c-1.657,0-2.786-1.73-2.889-5.012l-0.157-4.923c-0.113-3.598-1.695-5.576-3.972-5.576
				c-1.242,0-2.69,0.589-4.218,1.825l-5.6,4.523c-1.717,1.387-2.95,2.055-3.638,2.055c-1.045,0-0.831-1.543,0.856-4.445
				l52.787-90.84v-35.285l-13.558,13.558l-10.565-10.564L285,100 M285,96c-1.024,0-2.047,0.391-2.829,1.172L144.009,235.333
				c-0.75,0.75-1.171,1.768-1.171,2.828c0,1.062,0.421,2.078,1.172,2.828l10.565,10.565c0.781,0.78,1.805,1.171,2.828,1.171
				c1.024,0,2.047-0.391,2.829-1.172l6.729-6.729v24.551l-52.245,89.908c-1.517,2.61-2.871,5.624-1.399,8.182
				c0.819,1.423,2.315,2.273,4.001,2.273c1.758,0,3.597-0.881,6.151-2.942l5.6-4.524c0.658-0.532,1.132-0.763,1.411-0.861
				c0.107,0.275,0.242,0.783,0.268,1.627l0.157,4.924c0.206,6.558,3.838,8.885,6.887,8.885c2.43,0,4.808-1.325,7.069-3.94
				l1.79-2.078c0.114-0.132,0.222-0.25,0.323-0.355c0.019,0.147,0.036,0.309,0.049,0.485l0.027,0.364
				c0.489,6.315,3.915,8.562,6.958,8.562c2.535,0,4.947-1.454,7.169-4.322l5.783-7.464v36.311c0,2.209,1.791,4,4,4h60.813v28.248
				c-10.701,3.881-17.931,14.002-17.931,25.617c0,5.158,4.197,9.354,9.356,9.354c3.898,0,7.247-2.396,8.651-5.792
				c0.587,4.598,4.525,8.164,9.28,8.164c4.756,0,8.694-3.566,9.281-8.166c1.403,3.396,4.753,5.794,8.651,5.794
				c5.159,0,9.356-4.196,9.356-9.354c0-11.615-7.23-21.736-17.932-25.617v-28.248h65.203v28.248
				c-10.702,3.881-17.932,14.002-17.932,25.617c0,5.158,4.197,9.354,9.355,9.354c3.899,0,7.249-2.397,8.652-5.794
				c0.586,4.599,4.525,8.166,9.28,8.166c4.756,0,8.694-3.566,9.281-8.166c1.403,3.396,4.753,5.794,8.651,5.794
				c5.159,0,9.356-4.196,9.356-9.354c0-11.615-7.23-21.736-17.932-25.617v-28.248h64.631c2.209,0,4-1.791,4-4v-36.314l5.788,7.468
				c2.223,2.868,4.635,4.322,7.17,4.322c3.044,0,6.47-2.247,6.957-8.556l0.028-0.376c0.014-0.175,0.03-0.335,0.049-0.481
				c0.103,0.107,0.211,0.227,0.327,0.361l1.781,2.067c2.263,2.62,4.642,3.946,7.072,3.946c3.048,0,6.681-2.327,6.888-8.886
				l0.157-4.922c0.026-0.845,0.161-1.353,0.268-1.629c0.278,0.1,0.752,0.329,1.409,0.861l5.597,4.523
				c2.557,2.064,4.397,2.944,6.156,2.944c1.688,0,3.184-0.851,4.003-2.274c1.472-2.558,0.12-5.571-1.397-8.181l-52.254-89.909
				v-24.556l6.736,6.735c0.781,0.781,1.805,1.172,2.828,1.172s2.047-0.391,2.829-1.172l10.565-10.564
				c0.75-0.75,1.171-1.768,1.171-2.828s-0.421-2.078-1.171-2.828L298.394,107.737l-10.565-10.565C287.047,96.391,286.023,96,285,96
				L285,96z"/>
		</g>
	</g>
	<polygon fill="#FFFFFF" stroke="#231F20" stroke-width="2" stroke-linejoin="round" stroke-miterlimit="10" points="
		170.961,404.408 399.031,404.408 399.031,236.924 284.997,122.889 170.961,236.924 	"/>
	<path fill="#FFFFFF" stroke="#231F20" stroke-width="2" stroke-linejoin="round" stroke-miterlimit="10" d="M170.961,270.453
		l-52.787,90.84c-2.797,4.812-1.546,5.886,2.782,2.391l5.6-4.523c4.331-3.503,8.016-1.809,8.19,3.751l0.157,4.923
		c0.174,5.559,3.292,6.666,6.932,2.455l1.785-2.072c3.639-4.211,6.966-3.117,7.391,2.435l0.028,0.369
		c0.43,5.552,3.567,6.491,6.977,2.091l12.103-15.62c0.287-0.369,0.566-0.773,0.842-1.193V270.453z"/>
	<path fill="#FFFFFF" stroke="#231F20" stroke-width="2" stroke-linejoin="round" stroke-miterlimit="10" d="M451.827,361.293
		l-52.795-90.841v85.846c0.276,0.418,0.557,0.824,0.844,1.193l12.105,15.62c3.411,4.4,6.549,3.461,6.977-2.091l0.028-0.369
		c0.429-5.552,3.755-6.646,7.393-2.435l1.785,2.072c3.637,4.211,6.756,3.104,6.932-2.455l0.157-4.923
		c0.174-5.56,3.86-7.254,8.191-3.751l5.596,4.523C453.368,367.179,454.623,366.104,451.827,361.293z"/>
	<path fill="#FFFFFF" stroke="#231F20" stroke-width="2" stroke-linejoin="round" stroke-miterlimit="10" d="M330.4,439.63v-35.222
		h-10.711v35.222c-10.264,2.428-17.932,11.646-17.932,22.644c0,2.957,2.397,5.354,5.355,5.354s5.356-2.397,5.356-5.354
		c0-5.021,2.96-9.35,7.221-11.366v13.736c0,2.959,2.397,5.356,5.355,5.356s5.356-2.397,5.356-5.356v-13.736
		c4.26,2.017,7.221,6.346,7.221,11.366c0,2.957,2.397,5.354,5.355,5.354s5.356-2.397,5.356-5.354
		C348.333,451.276,340.664,442.058,330.4,439.63z"/>
	<path fill="#FFFFFF" stroke="#231F20" stroke-width="2" stroke-linejoin="round" stroke-miterlimit="10" d="M246.486,439.63
		v-35.222h-10.711v35.222c-10.263,2.428-17.931,11.646-17.931,22.644c0,2.957,2.397,5.354,5.356,5.354
		c2.958,0,5.355-2.397,5.355-5.354c0-5.021,2.96-9.347,7.22-11.364v13.734c0,2.959,2.397,5.356,5.355,5.356
		c2.958,0,5.356-2.397,5.356-5.356v-13.736c4.26,2.017,7.221,6.346,7.221,11.366c0,2.957,2.397,5.354,5.355,5.354
		c2.958,0,5.356-2.397,5.356-5.354C264.418,451.276,256.75,442.058,246.486,439.63z"/>
	<path fill="#FFFFFF" stroke="#231F20" stroke-width="2" stroke-linejoin="round" stroke-miterlimit="10" d="M375.321,326.52
		c0-6.787-5.504-12.295-12.294-12.295c-6.789,0-12.293,5.508-12.293,12.295c0,6.789,5.504,12.294,12.293,12.294
		C369.817,338.813,375.321,333.309,375.321,326.52z"/>
	<path fill="#FFFFFF" stroke="#231F20" stroke-width="2" stroke-linejoin="round" stroke-miterlimit="10" d="M221.201,326.52
		c0-6.787-5.504-12.295-12.294-12.295c-6.789,0-12.292,5.508-12.292,12.295c0,6.789,5.503,12.294,12.292,12.294
		C215.697,338.813,221.201,333.309,221.201,326.52z"/>
	<polygon fill="#FFFFFF" stroke="#231F20" stroke-width="2" stroke-linejoin="round" stroke-miterlimit="10" points="
		301.053,305.904 284.896,333.889 268.739,305.904 	"/>
	<path fill="#FFFFFF" stroke="#231F20" stroke-width="2" stroke-linejoin="round" stroke-miterlimit="10" d="M346.863,270.708
		c-3.512-0.545-7.419-0.907-11.745-0.907c-4.325,0-8.232,0.362-11.743,0.907c-0.356,1.151-0.549,2.375-0.549,3.642
		c0,6.789,5.503,12.297,12.292,12.297c6.791,0,12.294-5.508,12.294-12.297C347.413,273.083,347.22,271.859,346.863,270.708z"/>
	<g>
		<path fill="#231F20" stroke="#000000" stroke-width="3" stroke-miterlimit="10" d="M301.753,273.503
			c-0.713,0.465-0.914,1.42-0.448,2.136c0.464,0.712,1.421,0.918,2.136,0.451c0.091-0.06,7.269-4.597,19.934-6.57
			c0.377-1.216,0.942-2.348,1.655-3.368C310.403,267.978,302.165,273.233,301.753,273.503z"/>
		<path stroke="#000000" stroke-width="3" stroke-miterlimit="10" d="M368.486,273.503c-0.412-0.27-8.652-5.524-23.275-7.351
			c0.71,1.021,1.275,2.151,1.653,3.367c12.666,1.974,19.846,6.511,19.934,6.57c0.261,0.169,0.552,0.249,0.84,0.249
			c0.506,0,1-0.248,1.296-0.7C369.4,274.923,369.2,273.967,368.486,273.503z"/>
		<path stroke="#000000" stroke-width="3" stroke-miterlimit="10" d="M335.119,265.522c-3.646,0-7.001,0.243-10.088,0.629
			c-0.713,1.021-1.278,2.152-1.655,3.368c3.511-0.546,7.418-0.908,11.743-0.908c4.326,0,8.233,0.362,11.745,0.908
			c-0.377-1.216-0.942-2.346-1.653-3.367C342.12,265.766,338.765,265.522,335.119,265.522z"/>
	</g>
	
		<line fill="none" stroke="#231F20" stroke-width="5.2" stroke-linecap="round" stroke-miterlimit="10" x1="356.678" y1="268.587" x2="362.24" y2="253.607"/>
	
		<line fill="none" stroke="#231F20" stroke-width="5.2" stroke-linecap="round" stroke-miterlimit="10" x1="335.119" y1="265.522" x2="335.119" y2="248.965"/>
	
		<line fill="none" stroke="#231F20" stroke-width="5.2" stroke-linecap="round" stroke-miterlimit="10" x1="315.748" y1="267.963" x2="310.097" y2="252.179"/>
	<path fill="#FFFFFF" stroke="#231F20" stroke-width="2" stroke-linejoin="round" stroke-miterlimit="10" d="M246.417,270.708
		c-3.512-0.545-7.419-0.907-11.744-0.907s-8.233,0.362-11.743,0.907c-0.356,1.151-0.549,2.375-0.549,3.642
		c0,6.789,5.503,12.297,12.292,12.297c6.79,0,12.294-5.508,12.294-12.297C246.967,273.083,246.773,271.859,246.417,270.708z"/>
	<g>
		<path fill="#231F20" stroke="#000000" stroke-width="3" stroke-miterlimit="10" d="M201.307,273.503
			c-0.714,0.465-0.915,1.42-0.448,2.136c0.464,0.712,1.422,0.918,2.137,0.451c0.09-0.06,7.268-4.597,19.934-6.57
			c0.377-1.216,0.942-2.348,1.655-3.368C209.957,267.978,201.719,273.233,201.307,273.503z"/>
		<path stroke="#000000" stroke-width="3" stroke-miterlimit="10" d="M268.039,273.503c-0.412-0.27-8.651-5.524-23.275-7.351
			c0.71,1.021,1.275,2.151,1.652,3.367c12.666,1.974,19.846,6.511,19.934,6.57c0.261,0.169,0.553,0.249,0.84,0.249
			c0.506,0,1-0.248,1.296-0.7C268.954,274.923,268.753,273.967,268.039,273.503z"/>
		<path stroke="#000000" stroke-width="3" stroke-miterlimit="10" d="M234.672,265.522c-3.646,0-7.001,0.243-10.088,0.629
			c-0.712,1.021-1.278,2.152-1.655,3.368c3.51-0.546,7.418-0.908,11.743-0.908s8.232,0.362,11.744,0.908
			c-0.377-1.216-0.942-2.346-1.652-3.367C241.674,265.766,238.318,265.522,234.672,265.522z"/>
	</g>
	
		<line fill="none" stroke="#231F20" stroke-width="5.2" stroke-linecap="round" stroke-miterlimit="10" x1="256.231" y1="268.587" x2="261.793" y2="253.607"/>
	
		<line fill="none" stroke="#231F20" stroke-width="5.2" stroke-linecap="round" stroke-miterlimit="10" x1="234.672" y1="265.522" x2="234.672" y2="248.965"/>
	
		<line fill="none" stroke="#231F20" stroke-width="5.2" stroke-linecap="round" stroke-miterlimit="10" x1="215.301" y1="267.963" x2="209.65" y2="252.179"/>
</g>
</svg>
