<?xml version="1.0" encoding="utf-8"?>
<!-- Generator: Adobe Illustrator 16.0.0, SVG Export Plug-In . SVG Version: 6.00 Build 0)  -->
<!DOCTYPE svg PUBLIC "-//W3C//DTD SVG 1.1//EN" "http://www.w3.org/Graphics/SVG/1.1/DTD/svg11.dtd">
<svg version="1.1" xmlns="http://www.w3.org/2000/svg" xmlns:xlink="http://www.w3.org/1999/xlink" x="0px" y="0px" width="570px"
	 height="570px" viewBox="0 0 570 570" enable-background="new 0 0 570 570" xml:space="preserve">
<g id="Background">
	<rect fill="#FFFFFF" width="570" height="570"/>
</g>
<g id="Bird">
	<g>
		<path fill="#FFFFFF" d="M325.044,472c-4.055,0-7.354-3.3-7.354-7.356v-9.944c-2.019,1.965-3.221,4.691-3.221,7.574
			c0,4.056-3.3,7.354-7.357,7.354c-4.055,0-7.354-3.299-7.354-7.354c0-11.232,7.297-20.956,17.932-24.175v-31.69h-69.203v31.69
			c10.635,3.219,17.932,12.942,17.932,24.175c0,4.056-3.3,7.354-7.357,7.354c-4.055,0-7.354-3.299-7.354-7.354
			c0-2.882-1.202-5.608-3.221-7.573v9.943c0,4.057-3.3,7.356-7.357,7.356c-4.055,0-7.354-3.3-7.354-7.356v-9.941
			c-2.019,1.965-3.221,4.691-3.221,7.571c0,4.056-3.299,7.354-7.354,7.354c-4.057,0-7.357-3.299-7.357-7.354
			c0-11.232,7.297-20.956,17.932-24.175v-31.69h-62.814c-1.104,0-2-0.896-2-2v-42.157l-9.363,12.085
			c-2.272,2.933-4.293,3.548-5.588,3.548c-1.042,0-4.482-0.483-4.964-6.709l-0.028-0.373c-0.157-2.044-0.763-3.147-1.254-3.147
			c-0.468,0-1.437,0.489-2.63,1.87l-1.783,2.07c-1.865,2.158-3.734,3.252-5.558,3.252c-1.095,0-4.685-0.502-4.887-6.95l-0.158-4.921
			c-0.027-0.855-0.248-3.641-1.973-3.641c-0.468,0-1.476,0.18-2.961,1.38l-5.599,4.524c-2.743,2.215-4.057,2.499-4.895,2.499
			c-0.962,0-1.811-0.476-2.269-1.271c-0.766-1.331-0.349-3.179,1.395-6.179l52.516-90.374v-29.917l-10.143,10.144
			c-0.375,0.375-0.884,0.586-1.414,0.586s-1.039-0.211-1.414-0.586l-10.565-10.565c-0.781-0.781-0.781-2.047,0-2.828L283.586,98.586
			C283.961,98.211,284.47,98,285,98s1.039,0.211,1.414,0.586l138.161,138.161c0.781,0.781,0.781,2.047,0,2.828l-10.565,10.565
			c-0.39,0.391-0.902,0.586-1.414,0.586s-1.023-0.195-1.414-0.586l-10.15-10.149v29.922l52.525,90.375
			c1.743,2.998,2.16,4.847,1.393,6.179c-0.458,0.796-1.307,1.271-2.27,1.271h0c-0.839-0.001-2.155-0.285-4.897-2.498l-5.597-4.524
			c-1.101-0.891-2.153-1.381-2.961-1.381c-1.725,0-1.946,2.785-1.973,3.639l-0.156,4.924c-0.205,6.447-3.794,6.949-4.89,6.949
			c-1.824,0-3.693-1.094-5.555-3.25l-1.787-2.074c-1.19-1.379-2.159-1.868-2.626-1.868c-0.491,0-1.098,1.104-1.256,3.151
			l-0.028,0.365c-0.479,6.229-3.919,6.713-4.962,6.713c-1.295,0-3.316-0.615-5.589-3.547l-9.369-12.09v42.161c0,1.104-0.896,2-2,2
			h-66.63v31.69c10.635,3.219,17.932,12.942,17.932,24.175c0,4.056-3.3,7.354-7.357,7.354c-4.055,0-7.354-3.299-7.354-7.354
			c0-2.882-1.202-5.608-3.221-7.573v9.943C332.401,468.7,329.101,472,325.044,472z"/>
		<g>
			<path fill="#231F20" d="M285,100l10.565,10.565l127.595,127.595l-10.565,10.565l-13.564-13.564v35.29l52.796,90.841
				c1.687,2.902,1.9,4.445,0.852,4.445c-0.689,0-1.924-0.668-3.642-2.055l-5.596-4.523c-1.529-1.236-2.977-1.825-4.219-1.825
				c-2.277,0-3.86,1.979-3.972,5.576l-0.156,4.923c-0.104,3.282-1.234,5.013-2.891,5.013c-1.149,0-2.552-0.833-4.042-2.558
				l-1.785-2.072c-1.493-1.729-2.932-2.562-4.141-2.562c-1.737,0-2.998,1.724-3.251,4.997l-0.028,0.369
				c-0.246,3.196-1.39,4.863-2.968,4.863c-1.163,0-2.562-0.905-4.009-2.772l-12.104-15.62c-0.288-0.369-0.569-0.775-0.845-1.193
				v48.11h-68.63v35.222c10.264,2.428,17.932,11.646,17.932,22.644c0,2.957-2.397,5.354-5.357,5.354
				c-2.957,0-5.354-2.397-5.354-5.354c0-5.021-2.962-9.35-7.221-11.366v13.736c0,2.959-2.397,5.356-5.357,5.356
				c-2.957,0-5.354-2.397-5.354-5.356v-13.736c-4.262,2.017-7.221,6.346-7.221,11.366c0,2.957-2.398,5.354-5.357,5.354
				c-2.957,0-5.354-2.397-5.354-5.354c0-10.997,7.668-20.216,17.932-22.644v-35.222h-73.203v35.222
				c10.264,2.428,17.932,11.646,17.932,22.644c0,2.957-2.397,5.354-5.357,5.354c-2.957,0-5.354-2.397-5.354-5.354
				c0-5.021-2.961-9.35-7.221-11.366v13.736c0,2.959-2.397,5.356-5.357,5.356c-2.957,0-5.354-2.397-5.354-5.356v-13.734
				c-4.259,2.018-7.221,6.344-7.221,11.364c0,2.957-2.397,5.354-5.354,5.354c-2.959,0-5.357-2.397-5.357-5.354
				c0-10.997,7.668-20.216,17.932-22.644v-35.222h-64.814v-48.11c-0.276,0.42-0.555,0.824-0.842,1.193l-12.102,15.62
				c-1.447,1.867-2.844,2.772-4.007,2.772c-1.577,0-2.722-1.667-2.97-4.863l-0.028-0.369c-0.25-3.273-1.51-4.997-3.249-4.997
				c-1.209,0-2.65,0.835-4.144,2.562l-1.785,2.072c-1.491,1.725-2.894,2.558-4.042,2.558c-1.656,0-2.785-1.731-2.888-5.013
				l-0.158-4.923c-0.112-3.598-1.695-5.576-3.972-5.576c-1.242,0-2.69,0.589-4.219,1.825l-5.598,4.523
				c-1.718,1.387-2.951,2.055-3.638,2.055c-1.046,0-0.832-1.543,0.855-4.445l52.787-90.84v-35.285l-13.557,13.558l-10.565-10.565
				L285,100 M285,96c-1.023,0-2.047,0.391-2.829,1.171L144.011,235.332c-1.562,1.562-1.562,4.095,0,5.657l10.565,10.565
				c0.75,0.75,1.768,1.171,2.829,1.171s2.078-0.421,2.829-1.172l6.729-6.729v24.55l-52.245,89.908
				c-1.517,2.61-2.87,5.624-1.399,8.182c0.819,1.423,2.315,2.273,4.002,2.273c1.757,0,3.597-0.88,6.151-2.942l5.6-4.524
				c0.658-0.532,1.132-0.763,1.411-0.862c0.106,0.275,0.241,0.784,0.268,1.627l0.158,4.926c0.206,6.557,3.838,8.885,6.886,8.885
				c2.43,0,4.809-1.326,7.069-3.942l1.79-2.077c0.114-0.132,0.222-0.25,0.324-0.356c0.019,0.147,0.036,0.309,0.049,0.486
				l0.027,0.364c0.489,6.315,3.915,8.562,6.958,8.562c2.535,0,4.947-1.454,7.169-4.322l5.782-7.464v36.311c0,2.209,1.791,4,4,4
				h60.814v28.248c-10.702,3.881-17.932,14.002-17.932,25.617c0,5.158,4.198,9.354,9.357,9.354c3.898,0,7.247-2.396,8.65-5.794
				c0.586,4.6,4.524,8.166,9.279,8.166c4.756,0,8.695-3.566,9.282-8.166c1.403,3.397,4.752,5.794,8.65,5.794
				c5.16,0,9.357-4.196,9.357-9.354c0-11.615-7.23-21.736-17.932-25.617v-28.248h65.203v28.248
				c-10.702,3.881-17.932,14.002-17.932,25.617c0,5.158,4.196,9.354,9.354,9.354c3.899,0,7.25-2.396,8.653-5.794
				c0.586,4.599,4.524,8.166,9.279,8.166c4.756,0,8.695-3.566,9.282-8.166c1.403,3.397,4.752,5.794,8.65,5.794
				c5.159,0,9.357-4.196,9.357-9.354c0-11.615-7.23-21.736-17.932-25.617v-28.248h64.63c2.209,0,4-1.791,4-4v-36.315l5.787,7.469
				c2.225,2.868,4.637,4.322,7.171,4.322c3.044,0,6.471-2.247,6.957-8.557l0.028-0.375c0.013-0.175,0.03-0.335,0.049-0.48
				c0.102,0.106,0.211,0.226,0.327,0.359l1.782,2.068c2.263,2.62,4.641,3.947,7.072,3.947c3.048,0,6.681-2.327,6.889-8.886
				l0.156-4.924c0.026-0.844,0.161-1.353,0.268-1.628c0.278,0.1,0.752,0.329,1.409,0.861l5.597,4.523
				c2.558,2.064,4.398,2.944,6.157,2.944c1.688,0,3.185-0.851,4.004-2.275c1.472-2.558,0.119-5.57-1.398-8.18l-52.254-89.91v-24.555
				l6.735,6.736c0.781,0.781,1.805,1.171,2.829,1.171s2.047-0.391,2.829-1.171l10.565-10.565c0.75-0.75,1.171-1.768,1.171-2.829
				s-0.421-2.078-1.171-2.829L298.394,107.737l-10.565-10.565C287.047,96.391,286.023,96,285,96L285,96z"/>
		</g>
	</g>
	<polygon fill="#FFFFFF" stroke="#231F20" stroke-width="2" stroke-linejoin="round" stroke-miterlimit="10" points="
		170.961,404.408 399.031,404.408 399.031,236.924 284.998,122.889 170.961,236.924 	"/>
	<path fill="#FFFFFF" stroke="#231F20" stroke-width="2" stroke-linejoin="round" stroke-miterlimit="10" d="M170.961,270.453
		l-52.787,90.84c-2.797,4.812-1.546,5.886,2.783,2.391l5.598-4.523c4.331-3.503,8.017-1.809,8.191,3.751l0.158,4.923
		c0.174,5.559,3.292,6.666,6.931,2.455l1.785-2.072c3.639-4.211,6.967-3.117,7.392,2.435l0.028,0.369
		c0.43,5.552,3.567,6.491,6.977,2.091l12.102-15.62c0.288-0.369,0.566-0.773,0.842-1.193V270.453z"/>
	<path fill="#FFFFFF" stroke="#231F20" stroke-width="2" stroke-linejoin="round" stroke-miterlimit="10" d="M451.828,361.293
		l-52.796-90.841v85.846c0.276,0.418,0.557,0.824,0.845,1.193l12.104,15.62c3.412,4.4,6.55,3.461,6.977-2.091l0.028-0.369
		c0.429-5.552,3.755-6.646,7.392-2.435l1.785,2.072c3.637,4.211,6.756,3.104,6.933-2.455l0.156-4.923
		c0.174-5.56,3.86-7.254,8.191-3.751l5.596,4.523C453.369,367.179,454.625,366.104,451.828,361.293z"/>
	<path fill="#FFFFFF" stroke="#231F20" stroke-width="2" stroke-linejoin="round" stroke-miterlimit="10" d="M330.401,439.63
		v-35.222H319.69v35.222c-10.264,2.428-17.932,11.646-17.932,22.644c0,2.957,2.397,5.354,5.354,5.354
		c2.959,0,5.357-2.397,5.357-5.354c0-5.021,2.959-9.35,7.221-11.366v13.736c0,2.959,2.397,5.356,5.354,5.356
		c2.959,0,5.357-2.397,5.357-5.356v-13.736c4.259,2.017,7.221,6.346,7.221,11.366c0,2.957,2.397,5.354,5.354,5.354
		c2.959,0,5.357-2.397,5.357-5.354C348.333,451.276,340.665,442.058,330.401,439.63z"/>
	<path fill="#FFFFFF" stroke="#231F20" stroke-width="2" stroke-linejoin="round" stroke-miterlimit="10" d="M246.487,439.63
		v-35.222h-10.711v35.222c-10.264,2.428-17.932,11.646-17.932,22.644c0,2.957,2.397,5.354,5.357,5.354
		c2.957,0,5.354-2.397,5.354-5.354c0-5.021,2.961-9.347,7.221-11.364v13.734c0,2.959,2.397,5.356,5.354,5.356
		c2.959,0,5.357-2.397,5.357-5.356v-13.736c4.259,2.017,7.221,6.346,7.221,11.366c0,2.957,2.397,5.354,5.354,5.354
		c2.959,0,5.357-2.397,5.357-5.354C264.419,451.276,256.751,442.058,246.487,439.63z"/>
	<ellipse fill="#231F20" cx="242.21" cy="274.315" rx="9.484" ry="12.448"/>
	<path fill="#FFFFFF" stroke="#231F20" stroke-width="2" stroke-linejoin="round" stroke-miterlimit="10" d="M353.788,274.315
		c0-28.598-12.385-51.771-27.665-51.771s-27.664,23.173-27.664,51.771c0,28.59,12.385,51.771,27.664,51.771
		S353.788,302.905,353.788,274.315z"/>
	<ellipse fill="#231F20" cx="326.124" cy="274.315" rx="9.484" ry="12.448"/>
	<polygon fill="#FFFFFF" stroke="#231F20" stroke-width="2" stroke-linejoin="round" stroke-miterlimit="10" points="
		297.58,339.155 285.151,360.68 272.722,339.155 	"/>
</g>
</svg>
