<?xml version="1.0" encoding="utf-8"?>
<!-- Generator: Adobe Illustrator 16.0.0, SVG Export Plug-In . SVG Version: 6.00 Build 0)  -->
<!DOCTYPE svg PUBLIC "-//W3C//DTD SVG 1.1//EN" "http://www.w3.org/Graphics/SVG/1.1/DTD/svg11.dtd">
<svg version="1.1" xmlns="http://www.w3.org/2000/svg" xmlns:xlink="http://www.w3.org/1999/xlink" x="0px" y="0px" width="570px"
	 height="570px" viewBox="0 0 570 570" enable-background="new 0 0 570 570" xml:space="preserve">
<g id="Background">
	<rect fill="#FFFFFF" width="570" height="570"/>
</g>
<g id="Bird">
	<g>
		<path fill="#FFFFFF" d="M325.045,472c-4.057,0-7.356-3.3-7.356-7.356v-9.944c-2.019,1.965-3.221,4.692-3.221,7.574
			c0,4.056-3.3,7.354-7.355,7.354s-7.355-3.299-7.355-7.354c0-11.232,7.297-20.956,17.932-24.175v-31.69h-69.202v31.69
			c10.635,3.219,17.932,12.942,17.932,24.175c0,4.056-3.3,7.354-7.355,7.354s-7.355-3.299-7.355-7.354
			c0-2.882-1.202-5.609-3.221-7.573v9.943c0,4.057-3.3,7.356-7.355,7.356c-4.057,0-7.356-3.3-7.356-7.356v-9.94
			c-2.018,1.965-3.219,4.69-3.219,7.57c0,4.056-3.3,7.354-7.356,7.354c-4.056,0-7.355-3.299-7.355-7.354
			c0-11.231,7.296-20.956,17.931-24.175v-31.69h-62.812c-1.104,0-2-0.896-2-2V362.25l-9.364,12.086
			c-2.272,2.933-4.293,3.548-5.589,3.548c-1.042,0-4.482-0.483-4.964-6.709l-0.027-0.376c-0.156-2.041-0.763-3.145-1.254-3.145
			c-0.468,0-1.438,0.489-2.631,1.87l-1.782,2.07c-1.866,2.158-3.736,3.252-5.56,3.252c-1.095,0-4.686-0.502-4.887-6.95l-0.156-4.922
			c-0.027-0.854-0.249-3.64-1.974-3.64c-0.469,0-1.477,0.18-2.961,1.38l-5.601,4.524c-2.741,2.215-4.056,2.499-4.895,2.499
			c-0.962,0-1.81-0.476-2.268-1.271c-0.766-1.331-0.349-3.179,1.395-6.179l52.517-90.374v-29.918l-10.145,10.144
			c-0.391,0.391-0.902,0.586-1.414,0.586s-1.023-0.195-1.414-0.586l-10.565-10.565c-0.375-0.375-0.586-0.884-0.586-1.414
			s0.211-1.039,0.586-1.414L283.586,98.586C283.977,98.195,284.488,98,285,98s1.023,0.195,1.414,0.586l138.161,138.161
			c0.375,0.375,0.586,0.884,0.586,1.414s-0.211,1.039-0.586,1.414L414.01,250.14c-0.391,0.391-0.902,0.586-1.414,0.586
			s-1.023-0.195-1.414-0.586l-10.15-10.15v29.922l52.524,90.375c1.743,2.999,2.159,4.847,1.393,6.179
			c-0.458,0.796-1.307,1.271-2.27,1.271c0,0,0,0-0.001,0c-0.839-0.001-2.154-0.285-4.896-2.498l-5.598-4.524
			c-1.102-0.891-2.153-1.381-2.962-1.381c-1.725,0-1.946,2.785-1.973,3.639l-0.156,4.924c-0.204,6.447-3.794,6.949-4.89,6.949
			c-1.823,0-3.692-1.094-5.556-3.25l-1.786-2.075c-1.19-1.378-2.159-1.867-2.626-1.867c-0.491,0-1.099,1.104-1.257,3.151
			l-0.028,0.368c-0.479,6.227-3.92,6.71-4.963,6.71c-1.295,0-3.315-0.615-5.589-3.547l-9.368-12.089v42.16c0,1.104-0.896,2-2,2
			H332.4v31.69c10.635,3.219,17.932,12.942,17.932,24.175c0,4.056-3.3,7.354-7.355,7.354s-7.355-3.299-7.355-7.354
			c0-2.882-1.202-5.609-3.221-7.573v9.943C332.4,468.7,329.101,472,325.045,472z"/>
		<g>
			<path fill="#231F20" d="M285,100l10.565,10.565l127.596,127.595l-10.565,10.565l-13.564-13.564v35.29l52.795,90.841
				c1.688,2.902,1.9,4.445,0.853,4.445c-0.689,0-1.923-0.668-3.641-2.055l-5.597-4.523c-1.528-1.236-2.977-1.825-4.219-1.825
				c-2.276,0-3.859,1.979-3.972,5.576l-0.156,4.923c-0.104,3.282-1.233,5.013-2.891,5.013c-1.149,0-2.552-0.833-4.042-2.558
				l-1.784-2.072c-1.493-1.729-2.933-2.562-4.142-2.562c-1.737,0-2.998,1.724-3.251,4.997l-0.028,0.369
				c-0.246,3.196-1.391,4.863-2.969,4.863c-1.162,0-2.561-0.905-4.008-2.772l-12.105-15.62c-0.286-0.369-0.567-0.775-0.844-1.193
				v48.11H330.4v35.222c10.264,2.428,17.932,11.646,17.932,22.644c0,2.957-2.397,5.354-5.355,5.354s-5.355-2.397-5.355-5.354
				c0-5.021-2.961-9.35-7.221-11.366v13.736c0,2.959-2.397,5.356-5.355,5.356c-2.959,0-5.356-2.397-5.356-5.356v-13.736
				c-4.26,2.017-7.221,6.346-7.221,11.366c0,2.957-2.397,5.354-5.355,5.354s-5.355-2.397-5.355-5.354
				c0-10.997,7.668-20.216,17.932-22.644v-35.222h-73.202v35.222c10.264,2.428,17.932,11.646,17.932,22.644
				c0,2.957-2.397,5.354-5.355,5.354s-5.355-2.397-5.355-5.354c0-5.021-2.961-9.35-7.221-11.366v13.736
				c0,2.959-2.397,5.356-5.355,5.356s-5.356-2.397-5.356-5.356v-13.734c-4.259,2.018-7.219,6.344-7.219,11.364
				c0,2.957-2.398,5.354-5.356,5.354s-5.355-2.397-5.355-5.354c0-10.997,7.669-20.216,17.931-22.644v-35.222h-64.812v-48.11
				c-0.276,0.42-0.557,0.824-0.843,1.193l-12.103,15.62c-1.447,1.867-2.845,2.772-4.008,2.772c-1.577,0-2.723-1.667-2.97-4.863
				l-0.027-0.369c-0.25-3.273-1.51-4.997-3.248-4.997c-1.209,0-2.65,0.835-4.144,2.562l-1.785,2.072
				c-1.491,1.725-2.895,2.558-4.044,2.558c-1.656,0-2.785-1.731-2.888-5.013l-0.156-4.923c-0.114-3.598-1.696-5.576-3.973-5.576
				c-1.242,0-2.69,0.589-4.219,1.825l-5.6,4.523c-1.717,1.387-2.949,2.055-3.638,2.055c-1.045,0-0.831-1.543,0.856-4.445
				l52.787-90.84v-35.285l-13.559,13.558l-10.565-10.565L285,100 M285,96c-1.023,0-2.047,0.391-2.828,1.171L144.01,235.332
				c-0.75,0.75-1.172,1.768-1.172,2.829s0.422,2.078,1.172,2.829l10.565,10.565c0.78,0.781,1.805,1.171,2.828,1.171
				s2.048-0.391,2.828-1.171l6.73-6.73v24.551l-52.245,89.908c-1.518,2.61-2.871,5.624-1.399,8.182
				c0.819,1.423,2.314,2.273,4.001,2.273c1.758,0,3.598-0.881,6.151-2.943l5.6-4.523c0.658-0.532,1.133-0.763,1.411-0.862
				c0.106,0.276,0.242,0.784,0.269,1.628l0.156,4.924c0.205,6.558,3.838,8.886,6.886,8.886c2.431,0,4.809-1.326,7.07-3.941
				l1.789-2.078c0.114-0.132,0.223-0.25,0.323-0.355c0.02,0.146,0.036,0.309,0.05,0.485l0.026,0.359
				c0.489,6.32,3.916,8.567,6.959,8.567c2.534,0,4.946-1.454,7.17-4.322l5.783-7.465v36.312c0,2.209,1.791,4,4,4h60.812v28.248
				c-10.701,3.881-17.931,14.002-17.931,25.617c0,5.158,4.197,9.354,9.355,9.354c3.897,0,7.246-2.396,8.651-5.791
				c0.588,4.598,4.525,8.163,9.28,8.163c4.756,0,8.693-3.566,9.28-8.166c1.403,3.396,4.753,5.794,8.651,5.794
				c5.158,0,9.355-4.196,9.355-9.354c0-11.615-7.23-21.736-17.932-25.617v-28.248h65.202v28.248
				c-10.701,3.881-17.932,14.002-17.932,25.617c0,5.158,4.197,9.354,9.355,9.354c3.898,0,7.248-2.397,8.651-5.794
				c0.587,4.6,4.525,8.166,9.281,8.166s8.693-3.566,9.28-8.166c1.403,3.396,4.753,5.794,8.651,5.794
				c5.158,0,9.355-4.196,9.355-9.354c0-11.615-7.23-21.736-17.932-25.617v-28.248h64.631c2.209,0,4-1.791,4-4v-36.314l5.787,7.468
				c2.224,2.868,4.636,4.322,7.17,4.322c3.045,0,6.471-2.247,6.957-8.556l0.028-0.37c0.014-0.178,0.03-0.34,0.05-0.486
				c0.103,0.106,0.212,0.226,0.328,0.36l1.779,2.066c2.264,2.621,4.643,3.948,7.073,3.948c3.048,0,6.682-2.327,6.889-8.887
				l0.156-4.922c0.026-0.845,0.161-1.353,0.268-1.629c0.278,0.1,0.752,0.329,1.409,0.861l5.598,4.524
				c2.557,2.063,4.396,2.943,6.155,2.943c1.688,0,3.184-0.851,4.003-2.274c1.473-2.559,0.12-5.571-1.397-8.181l-52.253-89.91
				v-24.555l6.736,6.736c0.781,0.781,1.805,1.171,2.828,1.171s2.047-0.391,2.828-1.171l10.565-10.565
				c0.751-0.75,1.172-1.768,1.172-2.829s-0.421-2.078-1.172-2.829L298.394,107.737l-10.565-10.565C287.047,96.391,286.023,96,285,96
				L285,96z"/>
		</g>
	</g>
	<polygon fill="#FFFFFF" stroke="#231F20" stroke-width="2" stroke-linejoin="round" stroke-miterlimit="10" points="
		170.962,404.408 399.031,404.408 399.031,236.924 284.996,122.889 170.962,236.924 	"/>
	<path fill="#FFFFFF" stroke="#231F20" stroke-width="2" stroke-linejoin="round" stroke-miterlimit="10" d="M170.962,270.453
		l-52.787,90.84c-2.797,4.812-1.546,5.886,2.781,2.391l5.6-4.523c4.331-3.503,8.016-1.809,8.191,3.751l0.156,4.923
		c0.174,5.559,3.291,6.666,6.932,2.455l1.785-2.072c3.64-4.211,6.967-3.117,7.392,2.435l0.027,0.369
		c0.43,5.552,3.567,6.491,6.978,2.091l12.103-15.62c0.286-0.369,0.566-0.773,0.843-1.193V270.453z"/>
	<path fill="#FFFFFF" stroke="#231F20" stroke-width="2" stroke-linejoin="round" stroke-miterlimit="10" d="M451.826,361.293
		l-52.795-90.841v85.846c0.276,0.418,0.558,0.824,0.844,1.193l12.105,15.62c3.411,4.4,6.549,3.461,6.977-2.091l0.028-0.369
		c0.43-5.552,3.755-6.646,7.393-2.435l1.784,2.072c3.638,4.211,6.757,3.104,6.933-2.455l0.156-4.923
		c0.174-5.56,3.859-7.254,8.19-3.751l5.597,4.523C453.367,367.179,454.623,366.104,451.826,361.293z"/>
	<path fill="#FFFFFF" stroke="#231F20" stroke-width="2" stroke-linejoin="round" stroke-miterlimit="10" d="M330.4,439.63v-35.222
		h-10.712v35.222c-10.264,2.428-17.932,11.646-17.932,22.644c0,2.957,2.397,5.354,5.355,5.354s5.355-2.397,5.355-5.354
		c0-5.021,2.961-9.35,7.221-11.366v13.736c0,2.959,2.397,5.356,5.356,5.356c2.958,0,5.355-2.397,5.355-5.356v-13.736
		c4.26,2.017,7.221,6.346,7.221,11.366c0,2.957,2.397,5.354,5.355,5.354s5.355-2.397,5.355-5.354
		C348.332,451.276,340.664,442.058,330.4,439.63z"/>
	<path fill="#FFFFFF" stroke="#231F20" stroke-width="2" stroke-linejoin="round" stroke-miterlimit="10" d="M246.486,439.63
		v-35.222h-10.712v35.222c-10.262,2.428-17.931,11.646-17.931,22.644c0,2.957,2.397,5.354,5.355,5.354s5.356-2.397,5.356-5.354
		c0-5.021,2.96-9.347,7.219-11.364v13.734c0,2.959,2.398,5.356,5.356,5.356s5.355-2.397,5.355-5.356v-13.736
		c4.26,2.017,7.221,6.346,7.221,11.366c0,2.957,2.397,5.354,5.355,5.354s5.355-2.397,5.355-5.354
		C264.418,451.276,256.75,442.058,246.486,439.63z"/>
	<path fill="#FFFFFF" stroke="#231F20" stroke-width="2" stroke-linejoin="round" stroke-miterlimit="10" d="M329.298,221.694
		c-19.255,0-36.136,10.114-45.657,25.311c-9.518-15.197-26.403-25.311-45.656-25.311c-29.739,0-53.848,24.108-53.848,53.849
		c0,29.739,24.108,53.848,53.848,53.848c19.253,0,36.139-10.112,45.656-25.311c9.521,15.198,26.402,25.311,45.657,25.311
		c29.741,0,53.85-24.108,53.85-53.848C383.147,245.803,359.039,221.694,329.298,221.694z"/>
	<circle fill="#231F20" cx="222.999" cy="275.543" r="9.457"/>
	<circle fill="#231F20" cx="344.285" cy="275.543" r="9.456"/>
	<g>
		<path fill="none" stroke="#231F20" stroke-width="2" stroke-linejoin="round" stroke-miterlimit="10" d="M242.663,337.006
			c0,7.543-6.115,13.661-13.659,13.661c-7.543,0-13.656-6.118-13.656-13.661"/>
		<path fill="none" stroke="#231F20" stroke-width="2" stroke-linejoin="round" stroke-miterlimit="10" d="M269.981,337.006
			c0,7.543-6.115,13.661-13.659,13.661c-7.543,0-13.659-6.118-13.659-13.661"/>
		<path fill="none" stroke="#231F20" stroke-width="2" stroke-linejoin="round" stroke-miterlimit="10" d="M297.3,337.006
			c0,7.543-6.118,13.661-13.661,13.661s-13.657-6.118-13.657-13.661"/>
		<path fill="none" stroke="#231F20" stroke-width="2" stroke-linejoin="round" stroke-miterlimit="10" d="M324.616,337.006
			c0,7.543-6.116,13.661-13.659,13.661s-13.657-6.118-13.657-13.661"/>
		<path fill="none" stroke="#231F20" stroke-width="2" stroke-linejoin="round" stroke-miterlimit="10" d="M351.935,337.006
			c0,7.543-6.116,13.661-13.659,13.661s-13.659-6.118-13.659-13.661"/>
	</g>
	<g>
		<path fill="none" stroke="#231F20" stroke-width="2" stroke-linejoin="round" stroke-miterlimit="10" d="M255.039,358.935
			c0,5.265-4.269,9.535-9.532,9.535s-9.532-4.271-9.532-9.535"/>
		<path fill="none" stroke="#231F20" stroke-width="2" stroke-linejoin="round" stroke-miterlimit="10" d="M274.106,358.935
			c0,5.265-4.269,9.535-9.532,9.535c-5.267,0-9.535-4.271-9.535-9.535"/>
		<path fill="none" stroke="#231F20" stroke-width="2" stroke-linejoin="round" stroke-miterlimit="10" d="M293.174,358.935
			c0,5.265-4.269,9.535-9.535,9.535c-5.264,0-9.532-4.271-9.532-9.535"/>
		<path fill="none" stroke="#231F20" stroke-width="2" stroke-linejoin="round" stroke-miterlimit="10" d="M312.24,358.935
			c0,5.265-4.268,9.535-9.532,9.535c-5.267,0-9.534-4.271-9.534-9.535"/>
		<path fill="none" stroke="#231F20" stroke-width="2" stroke-linejoin="round" stroke-miterlimit="10" d="M331.308,358.935
			c0,5.265-4.269,9.535-9.532,9.535c-5.267,0-9.535-4.271-9.535-9.535"/>
	</g>
	<polygon fill="#FFFFFF" stroke="#231F20" stroke-width="2" stroke-linejoin="round" stroke-miterlimit="10" points="
		295.817,277.167 283.388,298.692 270.959,277.167 	"/>
</g>
</svg>
