<?xml version="1.0" encoding="utf-8"?>
<!-- Generator: Adobe Illustrator 16.0.0, SVG Export Plug-In . SVG Version: 6.00 Build 0)  -->
<!DOCTYPE svg PUBLIC "-//W3C//DTD SVG 1.1//EN" "http://www.w3.org/Graphics/SVG/1.1/DTD/svg11.dtd">
<svg version="1.1" xmlns="http://www.w3.org/2000/svg" xmlns:xlink="http://www.w3.org/1999/xlink" x="0px" y="0px" width="570px"
	 height="570px" viewBox="0 0 570 570" enable-background="new 0 0 570 570" xml:space="preserve">
<g id="Background">
	<rect fill="#FFFFFF" width="570" height="570"/>
</g>
<g id="Bird">
	<g>
		<path fill="#FFFFFF" d="M325.044,472c-4.056,0-7.355-3.3-7.355-7.356V454.7c-2.019,1.965-3.221,4.692-3.221,7.573
			c0,4.056-3.3,7.354-7.355,7.354s-7.355-3.299-7.355-7.354c0-11.232,7.297-20.956,17.932-24.175v-31.69h-69.202v31.69
			c10.636,3.219,17.933,12.942,17.933,24.175c0,4.056-3.3,7.354-7.356,7.354c-4.056,0-7.355-3.299-7.355-7.354
			c0-2.882-1.202-5.608-3.221-7.573v9.943c0,4.057-3.3,7.356-7.355,7.356s-7.355-3.3-7.355-7.356v-9.94
			c-2.018,1.964-3.22,4.689-3.22,7.57c0,4.056-3.3,7.354-7.355,7.354c-4.057,0-7.356-3.299-7.356-7.354
			c0-11.231,7.297-20.956,17.932-24.175v-31.69h-62.813c-1.104,0-2-0.896-2-2v-42.156l-9.364,12.085
			c-2.271,2.933-4.292,3.548-5.588,3.548c-1.042,0-4.481-0.483-4.964-6.71l-0.028-0.369c-0.156-2.047-0.763-3.151-1.253-3.151
			c-0.468,0-1.438,0.49-2.631,1.87l-1.782,2.07c-1.867,2.159-3.736,3.252-5.559,3.252c-1.096,0-4.686-0.501-4.888-6.95l-0.156-4.922
			c-0.027-0.854-0.249-3.639-1.975-3.639c-0.468,0-1.476,0.179-2.96,1.38l-5.601,4.524c-2.741,2.215-4.056,2.499-4.895,2.499
			c-0.962,0-1.81-0.476-2.268-1.271c-0.766-1.331-0.349-3.179,1.395-6.179l52.516-90.376v-29.917l-10.144,10.143
			c-0.391,0.391-0.902,0.586-1.414,0.586s-1.023-0.195-1.414-0.586l-10.565-10.564c-0.375-0.375-0.586-0.884-0.586-1.414
			s0.211-1.039,0.586-1.414l138.161-138.16C283.977,98.195,284.488,98,285,98s1.023,0.195,1.414,0.586l138.16,138.16
			c0.375,0.375,0.586,0.884,0.586,1.414s-0.211,1.039-0.586,1.414l-10.565,10.564c-0.391,0.391-0.902,0.586-1.414,0.586
			s-1.023-0.195-1.414-0.586l-10.149-10.149v29.924l52.523,90.376c1.743,2.999,2.159,4.847,1.393,6.179
			c-0.458,0.796-1.307,1.271-2.27,1.271c0,0,0,0-0.001,0c-0.839-0.001-2.154-0.285-4.896-2.499l-5.598-4.524
			c-1.101-0.891-2.151-1.38-2.961-1.38c-1.725,0-1.946,2.784-1.973,3.638l-0.156,4.924c-0.204,6.448-3.794,6.949-4.89,6.949
			c-1.823,0-3.692-1.094-5.555-3.249l-1.787-2.076c-1.189-1.377-2.158-1.867-2.626-1.867c-0.491,0-1.099,1.105-1.257,3.152
			l-0.027,0.362c-0.48,6.231-3.921,6.716-4.964,6.716c-1.295,0-3.315-0.615-5.589-3.547l-9.367-12.088v42.158c0,1.104-0.896,2-2,2
			H332.4v31.69c10.635,3.219,17.932,12.943,17.932,24.175c0,4.056-3.3,7.354-7.355,7.354s-7.355-3.299-7.355-7.354
			c0-2.881-1.202-5.608-3.221-7.573v9.943C332.4,468.7,329.101,472,325.044,472z"/>
		<g>
			<path fill="#231F20" d="M285,100l10.565,10.565L423.16,238.16l-10.565,10.564l-13.563-13.563v35.291l52.794,90.842
				c1.688,2.902,1.899,4.444,0.853,4.444c-0.689,0-1.923-0.667-3.641-2.054l-5.597-4.524c-1.528-1.236-2.977-1.824-4.219-1.824
				c-2.276,0-3.859,1.979-3.972,5.575l-0.156,4.923c-0.104,3.282-1.233,5.013-2.891,5.013c-1.149,0-2.552-0.833-4.041-2.557
				l-1.785-2.073c-1.492-1.728-2.933-2.562-4.142-2.562c-1.737,0-2.998,1.725-3.251,4.998l-0.027,0.368
				c-0.247,3.196-1.392,4.864-2.97,4.864c-1.163,0-2.561-0.906-4.008-2.772l-12.105-15.62c-0.286-0.369-0.567-0.775-0.843-1.193
				v48.109H330.4v35.222c10.263,2.428,17.932,11.646,17.932,22.644c0,2.957-2.397,5.354-5.355,5.354s-5.355-2.397-5.355-5.354
				c0-5.021-2.961-9.349-7.221-11.366v13.736c0,2.959-2.398,5.356-5.356,5.356s-5.355-2.397-5.355-5.356v-13.736
				c-4.26,2.018-7.221,6.346-7.221,11.366c0,2.957-2.397,5.354-5.355,5.354s-5.355-2.397-5.355-5.354
				c0-10.997,7.668-20.216,17.932-22.644v-35.222h-73.202v35.222c10.264,2.428,17.933,11.646,17.933,22.644
				c0,2.957-2.398,5.354-5.356,5.354s-5.355-2.397-5.355-5.354c0-5.021-2.96-9.349-7.221-11.366v13.736
				c0,2.959-2.397,5.356-5.355,5.356s-5.355-2.397-5.355-5.356V450.91c-4.26,2.017-7.22,6.343-7.22,11.363
				c0,2.957-2.397,5.354-5.355,5.354s-5.356-2.397-5.356-5.354c0-10.997,7.669-20.216,17.932-22.644v-35.222h-64.813v-48.109
				c-0.275,0.42-0.556,0.824-0.842,1.193l-12.104,15.62c-1.446,1.867-2.844,2.772-4.007,2.772c-1.577,0-2.723-1.668-2.97-4.864
				l-0.028-0.368c-0.25-3.274-1.51-4.998-3.247-4.998c-1.21,0-2.65,0.835-4.144,2.562l-1.785,2.073
				c-1.491,1.724-2.895,2.557-4.043,2.557c-1.657,0-2.786-1.73-2.889-5.013l-0.156-4.923c-0.113-3.597-1.696-5.575-3.973-5.575
				c-1.242,0-2.69,0.588-4.219,1.824l-5.6,4.524c-1.717,1.387-2.949,2.054-3.637,2.054c-1.046,0-0.832-1.542,0.855-4.444
				l52.786-90.842v-35.284l-13.558,13.557l-10.565-10.564L285,100 M285,96c-1.023,0-2.048,0.391-2.828,1.172l-138.161,138.16
				c-0.751,0.75-1.172,1.768-1.172,2.828s0.422,2.078,1.172,2.828l10.565,10.564c0.781,0.781,1.805,1.172,2.828,1.172
				s2.047-0.391,2.828-1.172l6.729-6.729v24.55l-52.245,89.91c-1.517,2.61-2.87,5.624-1.398,8.181
				c0.819,1.424,2.314,2.273,4.002,2.273c1.757,0,3.597-0.88,6.15-2.942l5.6-4.524c0.658-0.532,1.133-0.763,1.411-0.861
				c0.106,0.275,0.242,0.783,0.269,1.627l0.156,4.924c0.205,6.558,3.838,8.886,6.887,8.886c2.43,0,4.808-1.326,7.068-3.94
				l1.791-2.079c0.113-0.132,0.221-0.25,0.322-0.354c0.019,0.146,0.035,0.308,0.049,0.484l0.028,0.37
				c0.488,6.31,3.915,8.558,6.958,8.558c2.535,0,4.946-1.454,7.169-4.322l5.783-7.464v36.31c0,2.209,1.791,4,4,4h60.813v28.248
				c-10.701,3.881-17.932,14.002-17.932,25.617c0,5.158,4.197,9.354,9.356,9.354c3.897,0,7.247-2.396,8.65-5.792
				c0.588,4.598,4.525,8.164,9.28,8.164c4.756,0,8.693-3.566,9.28-8.166c1.403,3.396,4.753,5.794,8.651,5.794
				c5.159,0,9.356-4.196,9.356-9.354c0-11.615-7.23-21.736-17.933-25.617v-28.248h65.202v28.248
				c-10.701,3.881-17.932,14.002-17.932,25.617c0,5.158,4.197,9.354,9.355,9.354c3.898,0,7.248-2.397,8.651-5.794
				c0.587,4.6,4.524,8.166,9.28,8.166s8.694-3.566,9.281-8.166c1.403,3.396,4.753,5.794,8.651,5.794
				c5.158,0,9.355-4.196,9.355-9.354c0-11.615-7.23-21.736-17.932-25.617v-28.248h64.631c2.209,0,4-1.791,4-4v-36.312l5.787,7.467
				c2.223,2.868,4.635,4.322,7.169,4.322c3.044,0,6.471-2.248,6.958-8.557l0.028-0.38c0.013-0.174,0.03-0.332,0.049-0.478
				c0.103,0.107,0.212,0.227,0.327,0.361l1.781,2.068c2.264,2.62,4.642,3.946,7.072,3.946c3.048,0,6.682-2.327,6.889-8.886
				l0.156-4.923c0.026-0.845,0.161-1.353,0.268-1.628c0.278,0.099,0.752,0.328,1.41,0.86l5.597,4.524
				c2.556,2.064,4.396,2.943,6.155,2.943c1.688,0,3.184-0.85,4.004-2.273c1.472-2.559,0.119-5.571-1.398-8.181l-52.252-89.91
				v-24.556l6.735,6.734c0.78,0.781,1.805,1.172,2.828,1.172s2.047-0.391,2.828-1.172l10.565-10.564
				c0.75-0.75,1.172-1.768,1.172-2.828s-0.422-2.078-1.172-2.828L298.394,107.737l-10.565-10.565C287.047,96.391,286.023,96,285,96
				L285,96z"/>
		</g>
	</g>
	<polygon fill="#FFFFFF" stroke="#231F20" stroke-width="2" stroke-linejoin="round" stroke-miterlimit="10" points="
		170.962,404.408 399.031,404.408 399.031,236.923 284.996,122.89 170.962,236.923 	"/>
	<path fill="#FFFFFF" stroke="#231F20" stroke-width="2" stroke-linejoin="round" stroke-miterlimit="10" d="M170.962,270.452
		l-52.786,90.842c-2.797,4.812-1.546,5.886,2.781,2.391l5.6-4.524c4.331-3.502,8.016-1.808,8.191,3.751l0.156,4.923
		c0.174,5.559,3.291,6.666,6.932,2.456l1.785-2.073c3.639-4.21,6.967-3.117,7.391,2.436l0.028,0.368
		c0.43,5.552,3.567,6.492,6.977,2.092l12.104-15.62c0.286-0.369,0.566-0.773,0.842-1.193V270.452z"/>
	<path fill="#FFFFFF" stroke="#231F20" stroke-width="2" stroke-linejoin="round" stroke-miterlimit="10" d="M451.825,361.294
		l-52.794-90.842v85.847c0.275,0.418,0.557,0.824,0.843,1.193l12.105,15.62c3.411,4.4,6.549,3.46,6.978-2.092l0.027-0.368
		c0.43-5.553,3.756-6.646,7.393-2.436l1.785,2.073c3.637,4.21,6.756,3.103,6.932-2.456l0.156-4.923
		c0.174-5.559,3.859-7.253,8.19-3.751l5.597,4.524C453.366,367.18,454.622,366.105,451.825,361.294z"/>
	<path fill="#FFFFFF" stroke="#231F20" stroke-width="2" stroke-linejoin="round" stroke-miterlimit="10" d="M330.4,439.63v-35.222
		h-10.712v35.222c-10.264,2.428-17.932,11.646-17.932,22.644c0,2.957,2.397,5.354,5.355,5.354s5.355-2.397,5.355-5.354
		c0-5.021,2.961-9.349,7.221-11.366v13.736c0,2.959,2.397,5.356,5.355,5.356s5.356-2.397,5.356-5.356v-13.736
		c4.26,2.018,7.221,6.346,7.221,11.366c0,2.957,2.397,5.354,5.355,5.354s5.355-2.397,5.355-5.354
		C348.332,451.276,340.663,442.058,330.4,439.63z"/>
	<path fill="#FFFFFF" stroke="#231F20" stroke-width="2" stroke-linejoin="round" stroke-miterlimit="10" d="M246.486,439.63
		v-35.222h-10.711v35.222c-10.263,2.428-17.932,11.646-17.932,22.644c0,2.957,2.398,5.354,5.356,5.354s5.355-2.397,5.355-5.354
		c0-5.021,2.96-9.347,7.22-11.363v13.733c0,2.959,2.397,5.356,5.355,5.356s5.355-2.397,5.355-5.356v-13.736
		c4.261,2.018,7.221,6.346,7.221,11.366c0,2.957,2.397,5.354,5.355,5.354s5.356-2.397,5.356-5.354
		C264.419,451.276,256.75,442.058,246.486,439.63z"/>
	<path fill="#231F20" d="M262.204,268.999c0-6.789-5.503-12.294-12.294-12.294c-6.789,0-12.292,5.505-12.292,12.294
		c0,6.786,5.503,12.292,12.292,12.292C256.701,281.291,262.204,275.785,262.204,268.999z"/>
	<path fill="none" stroke="#231F20" stroke-width="4" stroke-miterlimit="10" d="M275.073,268.999
		c0-13.894-11.265-25.162-25.163-25.162c-13.896,0-25.161,11.269-25.161,25.162c0,13.892,11.265,25.162,25.161,25.162
		C263.809,294.161,275.073,282.891,275.073,268.999z"/>
	<path fill="#231F20" d="M331.691,268.999c0-6.789-5.503-12.294-12.294-12.294c-6.789,0-12.292,5.505-12.292,12.294
		c0,6.786,5.503,12.292,12.292,12.292C326.188,281.291,331.691,275.785,331.691,268.999z"/>
	<path fill="none" stroke="#231F20" stroke-width="2" stroke-linejoin="round" stroke-miterlimit="10" d="M209.498,330.461
		c0,0,8.911-6.071,8.196-13.803c-0.861-9.323-6.039-12.515-2.587-20.71c4.895-11.624,14.816-11.673,14.816-11.673"/>
	<g>
		<g>
			<path fill="#FFFFFF" d="M264.323,335.198c-7.549,0-14.78-2.323-20.913-6.719c-0.263-0.188-0.418-0.49-0.418-0.812
				s0.155-0.625,0.418-0.812c6.133-4.396,13.364-6.719,20.913-6.719s14.78,2.323,20.913,6.719c0.263,0.188,0.418,0.49,0.418,0.812
				s-0.155,0.625-0.418,0.812C279.104,332.875,271.872,335.198,264.323,335.198z"/>
			<path fill="#231F20" d="M264.323,321.136c7.588,0,14.603,2.426,20.331,6.531c-5.729,4.105-12.743,6.531-20.331,6.531
				c-7.587,0-14.603-2.426-20.331-6.531C249.721,323.562,256.736,321.136,264.323,321.136 M264.323,319.136
				c-7.759,0-15.192,2.388-21.496,6.905c-0.524,0.376-0.835,0.981-0.835,1.626s0.311,1.25,0.835,1.626
				c6.304,4.518,13.737,6.905,21.496,6.905s15.192-2.388,21.496-6.905c0.524-0.376,0.835-0.981,0.835-1.626s-0.311-1.25-0.835-1.626
				C279.516,321.523,272.082,319.136,264.323,319.136L264.323,319.136z"/>
		</g>
		<g>
			<path fill="#FFFFFF" d="M304.985,335.198c-7.549,0-14.78-2.323-20.914-6.719c-0.262-0.188-0.417-0.49-0.417-0.812
				s0.155-0.625,0.417-0.812c6.134-4.396,13.365-6.719,20.914-6.719c7.548,0,14.778,2.323,20.912,6.719
				c0.262,0.188,0.417,0.49,0.417,0.812s-0.155,0.625-0.417,0.812C319.764,332.875,312.533,335.198,304.985,335.198z"/>
			<path fill="#231F20" d="M304.985,321.136c7.586,0,14.601,2.426,20.329,6.531c-5.729,4.105-12.743,6.531-20.329,6.531
				c-7.588,0-14.603-2.426-20.331-6.531C290.383,323.562,297.397,321.136,304.985,321.136 M304.985,319.136
				c-7.759,0-15.192,2.388-21.496,6.905c-0.524,0.376-0.835,0.981-0.835,1.626s0.311,1.25,0.835,1.626
				c6.304,4.518,13.737,6.905,21.496,6.905c7.758,0,15.19-2.388,21.494-6.905c0.524-0.376,0.835-0.981,0.835-1.626
				s-0.311-1.25-0.835-1.626C320.176,321.523,312.743,319.136,304.985,319.136L304.985,319.136z"/>
		</g>
	</g>
</g>
</svg>
