<?xml version="1.0" encoding="utf-8"?>
<!-- Generator: Adobe Illustrator 16.0.0, SVG Export Plug-In . SVG Version: 6.00 Build 0)  -->
<!DOCTYPE svg PUBLIC "-//W3C//DTD SVG 1.1//EN" "http://www.w3.org/Graphics/SVG/1.1/DTD/svg11.dtd">
<svg version="1.1" xmlns="http://www.w3.org/2000/svg" xmlns:xlink="http://www.w3.org/1999/xlink" x="0px" y="0px" width="570px"
	 height="570px" viewBox="0 0 570 570" enable-background="new 0 0 570 570" xml:space="preserve">
<g id="Background">
	<rect fill="#FFFFFF" width="570" height="570"/>
</g>
<g id="Bird">
	<g>
		<path fill="#FFFFFF" d="M325.044,472c-4.056,0-7.354-3.3-7.354-7.357v-9.944c-2.019,1.965-3.222,4.692-3.222,7.574
			c0,4.055-3.3,7.354-7.355,7.354c-4.057,0-7.356-3.299-7.356-7.354c0-11.232,7.298-20.957,17.934-24.176v-31.689h-69.203v31.689
			c10.635,3.22,17.932,12.944,17.932,24.176c0,4.055-3.3,7.354-7.355,7.354s-7.355-3.299-7.355-7.354
			c0-2.882-1.202-5.609-3.221-7.574v9.943c0,4.057-3.3,7.357-7.355,7.357c-4.057,0-7.356-3.3-7.356-7.357v-9.94
			c-2.018,1.964-3.22,4.69-3.22,7.571c0,4.055-3.299,7.354-7.354,7.354c-4.057,0-7.356-3.299-7.356-7.354
			c0-11.231,7.296-20.956,17.931-24.176v-31.689h-62.812c-1.104,0-2-0.896-2-2V362.25l-9.364,12.086
			c-2.272,2.933-4.293,3.548-5.589,3.548c-1.042,0-4.481-0.484-4.964-6.709l-0.028-0.371c-0.156-2.046-0.762-3.15-1.253-3.15
			c-0.468,0-1.438,0.49-2.631,1.871l-1.782,2.069c-1.867,2.159-3.736,3.252-5.56,3.252c-1.095,0-4.686-0.501-4.887-6.95
			l-0.156-4.922c-0.027-0.854-0.249-3.639-1.974-3.639c-0.809,0-1.86,0.49-2.961,1.38l-5.601,4.524
			c-2.741,2.215-4.056,2.499-4.894,2.499c-0.963,0-1.811-0.475-2.269-1.271c-0.766-1.332-0.349-3.18,1.395-6.179l52.517-90.374
			v-29.918l-10.145,10.144c-0.391,0.391-0.902,0.586-1.414,0.586s-1.023-0.195-1.414-0.586l-10.565-10.565
			c-0.375-0.375-0.586-0.884-0.586-1.414s0.211-1.039,0.586-1.414L283.586,98.586C283.977,98.195,284.488,98,285,98
			s1.023,0.195,1.414,0.586l138.161,138.161c0.375,0.375,0.586,0.884,0.586,1.414s-0.211,1.039-0.586,1.414L414.01,250.14
			c-0.391,0.391-0.902,0.586-1.414,0.586s-1.023-0.195-1.414-0.586l-10.15-10.15v29.923l52.525,90.375
			c1.742,2.999,2.158,4.847,1.392,6.179c-0.458,0.796-1.307,1.271-2.27,1.271h-0.001c-0.839,0-2.154-0.285-4.896-2.499l-5.597-4.524
			c-1.102-0.89-2.152-1.38-2.962-1.38c-1.725,0-1.946,2.785-1.973,3.638l-0.157,4.924c-0.203,6.447-3.793,6.949-4.889,6.949
			c-1.823,0-3.692-1.094-5.555-3.25l-1.787-2.074c-1.19-1.378-2.159-1.868-2.626-1.868c-0.491,0-1.099,1.104-1.257,3.151
			l-0.028,0.368c-0.479,6.227-3.92,6.711-4.963,6.711c-1.295,0-3.316-0.615-5.589-3.548l-9.368-12.088v42.16c0,1.104-0.896,2-2,2
			H332.4v31.689c10.635,3.219,17.932,12.944,17.932,24.176c0,4.055-3.3,7.354-7.355,7.354s-7.355-3.299-7.355-7.354
			c0-2.881-1.202-5.608-3.221-7.573v9.943C332.4,468.7,329.101,472,325.044,472z"/>
		<g>
			<path fill="#231F20" d="M285,100l10.565,10.565l127.596,127.595l-10.565,10.565l-13.564-13.564v35.29l52.796,90.841
				c1.687,2.903,1.899,4.445,0.852,4.445c-0.689,0-1.924-0.668-3.642-2.055l-5.596-4.523c-1.528-1.237-2.977-1.826-4.219-1.825
				c-2.275,0-3.859,1.979-3.972,5.576l-0.157,4.923c-0.104,3.282-1.232,5.013-2.89,5.013c-1.149,0-2.552-0.833-4.041-2.557
				l-1.785-2.072c-1.493-1.728-2.933-2.562-4.142-2.562c-1.737,0-2.998,1.724-3.251,4.997l-0.028,0.369
				c-0.246,3.196-1.391,4.864-2.969,4.864c-1.163,0-2.561-0.906-4.008-2.773l-12.105-15.62c-0.286-0.369-0.567-0.775-0.844-1.193
				v48.11H330.4v35.221c10.264,2.428,17.932,11.647,17.932,22.644c0,2.957-2.397,5.354-5.355,5.354s-5.355-2.397-5.355-5.354
				c0-5.021-2.961-9.349-7.221-11.366v13.736c0,2.959-2.397,5.357-5.356,5.357c-2.958,0-5.354-2.397-5.354-5.357v-13.736
				c-4.261,2.017-7.222,6.346-7.222,11.366c0,2.957-2.397,5.354-5.355,5.354s-5.356-2.397-5.356-5.354
				c0-10.997,7.669-20.216,17.934-22.644v-35.221h-73.203v35.221c10.263,2.428,17.932,11.647,17.932,22.644
				c0,2.957-2.396,5.354-5.355,5.354c-2.958,0-5.355-2.397-5.355-5.354c0-5.021-2.96-9.349-7.221-11.366v13.736
				c0,2.959-2.398,5.357-5.355,5.357c-2.958,0-5.356-2.397-5.356-5.357V450.91c-4.259,2.017-7.22,6.343-7.22,11.364
				c0,2.957-2.397,5.354-5.354,5.354c-2.959,0-5.356-2.397-5.356-5.354c0-10.997,7.669-20.216,17.931-22.644v-35.221h-64.812v-48.11
				c-0.276,0.42-0.556,0.824-0.843,1.193l-12.103,15.62c-1.447,1.867-2.845,2.773-4.008,2.773c-1.577,0-2.723-1.667-2.97-4.864
				l-0.028-0.369c-0.25-3.273-1.509-4.997-3.247-4.997c-1.209,0-2.65,0.835-4.144,2.562l-1.785,2.072
				c-1.491,1.725-2.895,2.557-4.044,2.557c-1.656,0-2.785-1.73-2.888-5.013l-0.156-4.923c-0.114-3.597-1.696-5.576-3.973-5.576
				c-1.242,0-2.69,0.589-4.219,1.825l-5.6,4.523c-1.717,1.387-2.949,2.055-3.638,2.055c-1.045,0-0.831-1.543,0.856-4.445
				l52.787-90.84v-35.285l-13.559,13.558l-10.565-10.565L285,100 M285,96c-1.023,0-2.047,0.391-2.828,1.171L144.01,235.332
				c-0.75,0.75-1.172,1.768-1.172,2.829s0.422,2.078,1.172,2.829l10.565,10.565c0.78,0.781,1.805,1.171,2.828,1.171
				s2.048-0.391,2.828-1.171l6.73-6.73v24.551l-52.245,89.908c-1.518,2.61-2.871,5.624-1.399,8.182
				c0.819,1.423,2.315,2.273,4.001,2.273c1.759,0,3.598-0.88,6.151-2.943l5.6-4.523c0.658-0.532,1.133-0.763,1.411-0.862
				c0.106,0.275,0.242,0.784,0.269,1.627l0.156,4.923c0.205,6.558,3.838,8.886,6.886,8.886c2.431,0,4.809-1.326,7.069-3.941
				l1.79-2.078c0.114-0.131,0.222-0.25,0.323-0.355c0.019,0.146,0.035,0.308,0.049,0.484l0.028,0.37
				c0.488,6.311,3.915,8.558,6.958,8.558c2.535,0,4.947-1.455,7.17-4.323l5.783-7.465v36.312c0,2.209,1.791,4,4,4h60.812v28.248
				c-10.701,3.882-17.931,14.003-17.931,25.618c0,5.158,4.197,9.354,9.356,9.354c3.897,0,7.246-2.396,8.649-5.792
				c0.588,4.599,4.526,8.165,9.281,8.165s8.693-3.567,9.28-8.167c1.403,3.397,4.753,5.794,8.651,5.794
				c5.158,0,9.355-4.196,9.355-9.354c0-11.615-7.23-21.736-17.932-25.618v-28.248h65.203v28.247
				c-10.703,3.881-17.934,14.002-17.934,25.618c0,5.158,4.197,9.354,9.356,9.354c3.899,0,7.249-2.397,8.652-5.796
				c0.586,4.6,4.523,8.168,9.279,8.168s8.694-3.567,9.281-8.167c1.403,3.397,4.753,5.794,8.651,5.794
				c5.158,0,9.355-4.196,9.355-9.354c0-11.615-7.23-21.736-17.932-25.618v-28.247h64.631c2.209,0,4-1.791,4-4v-36.314l5.787,7.468
				c2.223,2.868,4.635,4.323,7.17,4.323c3.045,0,6.471-2.248,6.957-8.557l0.028-0.37c0.014-0.177,0.03-0.339,0.05-0.486
				c0.103,0.107,0.212,0.227,0.328,0.361l1.781,2.068c2.263,2.62,4.641,3.946,7.071,3.946c3.049,0,6.682-2.328,6.888-8.887
				l0.157-4.921c0.026-0.845,0.161-1.354,0.268-1.629c0.278,0.099,0.752,0.329,1.409,0.861l5.597,4.524
				c2.557,2.064,4.397,2.944,6.156,2.944c1.688,0,3.184-0.851,4.003-2.274c1.473-2.558,0.121-5.571-1.396-8.181l-52.254-89.909
				v-24.555l6.736,6.736c0.781,0.781,1.805,1.171,2.828,1.171s2.047-0.391,2.828-1.171l10.565-10.565
				c0.751-0.75,1.172-1.768,1.172-2.829s-0.421-2.078-1.172-2.829L298.394,107.737l-10.565-10.565C287.047,96.391,286.023,96,285,96
				L285,96z"/>
		</g>
	</g>
	<polygon fill="#FFFFFF" stroke="#231F20" stroke-width="2" stroke-linejoin="round" stroke-miterlimit="10" points="
		170.962,404.408 399.031,404.408 399.031,236.924 284.997,122.889 170.962,236.924 	"/>
	<path fill="#FFFFFF" stroke="#231F20" stroke-width="2" stroke-linejoin="round" stroke-miterlimit="10" d="M170.962,270.453
		l-52.787,90.84c-2.797,4.812-1.546,5.886,2.781,2.391l5.6-4.523c4.331-3.503,8.016-1.809,8.191,3.75l0.156,4.923
		c0.174,5.559,3.291,6.666,6.932,2.456l1.785-2.072c3.64-4.21,6.967-3.117,7.391,2.435l0.028,0.369
		c0.43,5.552,3.567,6.492,6.978,2.091l12.103-15.62c0.287-0.369,0.566-0.773,0.843-1.193V270.453z"/>
	<path fill="#FFFFFF" stroke="#231F20" stroke-width="2" stroke-linejoin="round" stroke-miterlimit="10" d="M451.827,361.293
		l-52.796-90.841v85.846c0.276,0.418,0.558,0.824,0.844,1.193l12.105,15.62c3.41,4.401,6.549,3.461,6.977-2.091l0.028-0.369
		c0.43-5.552,3.755-6.645,7.393-2.435l1.785,2.072c3.637,4.21,6.756,3.104,6.931-2.456l0.157-4.923
		c0.174-5.559,3.86-7.253,8.19-3.75l5.596,4.523C453.367,367.179,454.623,366.104,451.827,361.293z"/>
	<path fill="#FFFFFF" stroke="#231F20" stroke-width="2" stroke-linejoin="round" stroke-miterlimit="10" d="M330.4,439.629v-35.221
		h-10.711v35.221c-10.265,2.428-17.934,11.647-17.934,22.644c0,2.957,2.398,5.354,5.356,5.354s5.355-2.397,5.355-5.354
		c0-5.021,2.961-9.349,7.222-11.366v13.736c0,2.959,2.396,5.357,5.354,5.357c2.959,0,5.356-2.397,5.356-5.357v-13.736
		c4.26,2.017,7.221,6.346,7.221,11.366c0,2.957,2.397,5.354,5.355,5.354s5.355-2.397,5.355-5.354
		C348.332,451.276,340.664,442.058,330.4,439.629z"/>
	<path fill="#FFFFFF" stroke="#231F20" stroke-width="2" stroke-linejoin="round" stroke-miterlimit="10" d="M246.486,439.629
		v-35.221h-10.712v35.221c-10.262,2.428-17.931,11.647-17.931,22.644c0,2.957,2.397,5.354,5.356,5.354
		c2.957,0,5.354-2.397,5.354-5.354c0-5.021,2.961-9.347,7.22-11.364v13.733c0,2.959,2.398,5.357,5.356,5.357
		c2.957,0,5.355-2.397,5.355-5.357v-13.736c4.261,2.017,7.221,6.346,7.221,11.366c0,2.957,2.397,5.354,5.355,5.354
		c2.959,0,5.355-2.397,5.355-5.354C264.418,451.276,256.749,442.058,246.486,439.629z"/>
	
		<rect x="226.763" y="259.216" fill="none" stroke="#231F20" stroke-width="4" stroke-linejoin="round" stroke-miterlimit="10" width="50.334" height="50.332"/>
	
		<rect x="292.89" y="259.216" fill="none" stroke="#231F20" stroke-width="4" stroke-linejoin="round" stroke-miterlimit="10" width="50.333" height="50.332"/>
	<line fill="none" stroke="#231F20" stroke-width="4" stroke-miterlimit="10" x1="277.097" y1="284.381" x2="292.89" y2="284.381"/>
	<g>
		<circle fill="#231F20" cx="251.93" cy="284.381" r="9.484"/>
		<circle fill="#231F20" cx="318.056" cy="284.381" r="9.484"/>
	</g>
	<polygon fill="#FFFFFF" stroke="#231F20" stroke-width="2" stroke-linejoin="round" stroke-miterlimit="10" points="
		297.422,325.781 284.993,347.307 272.564,325.781 	"/>
	<g>
		<polygon fill="#FFFFFF" stroke="#231F20" stroke-width="2" stroke-linejoin="round" stroke-miterlimit="10" points="
			327.54,393.815 284.993,381.924 242.446,393.815 242.446,360.62 284.993,372.511 327.54,360.62 		"/>
		
			<circle fill="#FFFFFF" stroke="#231F20" stroke-width="2" stroke-linejoin="round" stroke-miterlimit="10" cx="284.993" cy="377.217" r="9.78"/>
	</g>
</g>
</svg>
