<?xml version="1.0" encoding="utf-8"?>
<!-- Generator: Adobe Illustrator 16.0.0, SVG Export Plug-In . SVG Version: 6.00 Build 0)  -->
<!DOCTYPE svg PUBLIC "-//W3C//DTD SVG 1.1//EN" "http://www.w3.org/Graphics/SVG/1.1/DTD/svg11.dtd">
<svg version="1.1" id="Layer_1" xmlns="http://www.w3.org/2000/svg" xmlns:xlink="http://www.w3.org/1999/xlink" x="0px" y="0px"
	 width="1170px" height="465px" viewBox="0 0 1170 465" enable-background="new 0 0 1170 465" xml:space="preserve">
<rect x="365" y="105" opacity="0.1" fill="#00ADEF" width="440" height="170"/>
<g>
	<g>
		<path fill="none" stroke="#00ADEF" stroke-width="1.23" stroke-linejoin="round" d="M656.334,330H894c3.2998,0,6-2.7002,6-6V166
			c0-3.2998-2.7002-6-6-6h-54"/>
		<g>
			<polygon fill="#00ADEF" points="660.4092,335.0303 661.248,334.1299 656.8057,330.001 661.248,325.8716 660.4092,324.9707 
				655,330.001 			"/>
		</g>
	</g>
</g>
<g>
	<g>
		<path fill="#00ADEF" d="M377.2798,261.7749v0.3154c0,1.4697,0.9302,1.9346,1.8149,1.9346c1.0952,0,1.9351-0.4648,1.9351-1.7549
			c0-2.3999-4.8599-2.1299-4.8599-5.3848c0-1.9199,1.3647-2.9399,3.1797-2.9399c1.98,0,3.0898,0.96,3,3.165h-1.4399
			c0.0151-1.1851-0.3599-1.9648-1.665-1.9648c-0.8247,0-1.6646,0.4199-1.6646,1.5898c0,2.3848,4.8594,2.04,4.8594,5.4746
			c0,2.2803-1.5747,3.0151-3.3594,3.0151c-3.1953,0.0298-3.1953-2.415-3.165-3.4502H377.2798z"/>
		<path fill="#00ADEF" d="M386.6997,263.5898h0.0298l1.8149-6.1646h1.335l-3.4346,10.4395h-1.2749l0.855-2.8647l-2.5649-7.5747
			h1.4248L386.6997,263.5898z"/>
		<path fill="#00ADEF" d="M393.3149,265.1499c-1.6353,0-2.6548-0.7197-2.6099-2.46h1.395c0,0.4351,0.0146,1.4551,1.2598,1.4551
			c0.7349,0,1.3052-0.375,1.3052-1.1548c0-1.3501-3.7803-1.3799-3.7803-3.645c0-0.7949,0.48-2.0698,2.6099-2.0698
			c1.3501,0,2.5054,0.645,2.3999,2.145h-1.3647c0.0151-0.7949-0.4048-1.2153-1.1851-1.2153c-0.6597,0-1.1699,0.3604-1.1699,1.02
			c0,1.335,3.7798,1.3052,3.7798,3.6147C395.9546,264.5049,394.8149,265.1499,393.3149,265.1499z"/>
		<path fill="#00ADEF" d="M397.8745,257.4253v-1.4551l1.23-0.5547v2.0098h1.6499v0.9302h-1.6499v4.6348
			c0,0.48,0,1.0947,1.125,1.0947c0.0898,0,0.2852-0.0298,0.5552-0.0601v0.9453c-0.4053,0.0298-0.8101,0.1196-1.2153,0.1196
			c-1.1699,0-1.6948-0.48-1.6948-1.3496v-5.3848h-1.2446v-0.9302H397.8745z"/>
		<path fill="#00ADEF" d="M403.1094,261.6104c0,2.1147,0.5703,2.5347,1.5303,2.5347c0.8398,0,1.2749-0.6748,1.3198-1.4399h1.3501
			c-0.0151,1.6802-1.0503,2.4448-2.6401,2.4448c-1.605,0-2.8799-0.48-2.8799-3.8247c0-2.2197,0.2549-4.0498,2.8799-4.0498
			c2.1597,0,2.6997,1.1851,2.6997,3.6899v0.645H403.1094z M406.0645,260.6802c0-2.2051-0.6152-2.4751-1.5151-2.4751
			c-0.7798,0-1.4248,0.375-1.4399,2.4751H406.0645z"/>
		<path fill="#00ADEF" d="M413.1294,265v-5.25c0-0.7646-0.21-1.4697-1.1997-1.4697c-0.375,0-0.8853,0.2251-1.0654,0.5098
			c-0.2246,0.375-0.2847,0.8252-0.2847,1.1104V265h-1.23v-6c0-0.5249-0.0303-1.0498-0.0752-1.5747h1.3052v0.9448h0.0298
			c0.3604-0.8096,1.0049-1.0947,1.8901-1.0947c0.6899,0,1.4849,0.2852,1.77,0.9751c0.4199-0.8101,1.1099-0.9751,1.7998-0.9751
			c0.7949,0,2.0698,0.1797,2.0698,1.9648V265h-1.23v-5.25c0-0.7646-0.21-1.4697-1.1997-1.4697
			c-0.4653,0-0.6001,0.0151-0.9302,0.2852c-0.3599,0.2998-0.4199,1.0498-0.4199,1.335V265H413.1294z"/>
	</g>
</g>
<g>
	<g>
		<path fill="#231F20" d="M550.4253,158.6855c0-2.8652,0-5.5952,3.7349-5.5952c2.3101,0,3.2397,1.2754,3.1499,3.6001h-2.2197
			c0-1.4399-0.2549-1.98-0.9302-1.98c-1.2749,0-1.4399,1.2002-1.4399,3.9751c0,2.7744,0.165,3.9746,1.4399,3.9746
			c1.0503,0,1.0049-1.3501,1.0352-2.2051h2.2349c0,2.895-1.1548,3.8252-3.27,3.8252
			C550.4253,164.2803,550.4253,161.52,550.4253,158.6855z"/>
		<path fill="#231F20" d="M558.5854,160.2153c0-2.0698,0.2998-3.8398,3.0898-3.8398c2.7896,0,3.0898,1.77,3.0898,3.8398
			c0,2.3696-0.3599,4.0347-3.0898,4.0347S558.5854,162.585,558.5854,160.2153z M562.6499,160.0952
			c0-1.5747-0.0747-2.3696-0.9746-2.3696s-0.9751,0.7949-0.9751,2.3696c0,2.3101,0.1948,2.8052,0.9751,2.8052
			C562.4551,162.9004,562.6499,162.4053,562.6499,160.0952z"/>
		<path fill="#231F20" d="M568.2153,157.2905h0.0298c0.4199-0.6753,0.9902-0.915,1.7852-0.915c0.75,0,1.3496,0.3599,1.6948,0.96
			c0.4951-0.6602,1.0947-0.96,1.9648-0.96c1.0049,0,1.8901,0.6001,1.8901,1.6499v6.0747h-2.1152v-5.2197
			c0-0.6748-0.1201-1.2002-0.7949-1.2002s-0.7949,0.5254-0.7949,1.2002v5.2197h-2.0698v-5.2197
			c0-0.6748-0.1201-1.2002-0.7949-1.2002c-0.6753,0-0.7949,0.5254-0.7949,1.2002v5.2197h-2.1152v-7.5747h2.1152V157.2905z"/>
		<path fill="#231F20" d="M579.1055,156.5254v0.8398h0.0298c0.3901-0.7349,0.9751-0.9897,1.7852-0.9897
			c2.1895,0,2.1147,2.4297,2.1147,3.9897c0,1.5298,0.0601,3.8848-2.0698,3.8848c-0.7651,0-1.29-0.2251-1.7251-0.8701h-0.0298v3.9751
			h-2.1152v-10.8296H579.1055z M580.9653,160.2451c0-1.5146,0.0146-2.5649-0.8999-2.5649c-0.8701,0-0.855,1.0503-0.855,2.5649
			c0,1.9053,0.1348,2.7002,0.855,2.7002C580.8301,162.9453,580.9653,162.1504,580.9653,160.2451z"/>
		<path fill="#231F20" d="M590.3398,162.6899c0,0.4653,0.0605,0.9453,0.1055,1.4102h-1.9648l-0.0898-1.0049h-0.0303
			c-0.4502,0.7798-1.0654,1.1548-1.9795,1.1548c-1.4707,0-2.0107-1.0947-2.0107-2.415c0-2.5049,1.9346-2.6099,3.8994-2.5796v-0.585
			c0-0.645-0.0898-1.1099-0.8545-1.1099c-0.7354,0-0.7949,0.5547-0.7949,1.1548h-2.0698c0-0.915,0.2852-1.5,0.7798-1.8447
			c0.48-0.3604,1.1699-0.4951,1.9805-0.4951c2.6846,0,3.0293,1.1548,3.0293,2.5347V162.6899z M586.4404,161.7451
			c0,0.54,0.0898,1.2002,0.7803,1.2002c1.2441,0,1.0488-1.6802,1.0488-2.5049C587.2207,160.4854,586.4404,160.395,586.4404,161.7451
			z"/>
		<path fill="#231F20" d="M594.1055,156.5254v0.9751h0.0293c0.3906-0.8701,1.1104-1.125,1.9648-1.125v1.8896
			c-1.8594-0.1196-1.8887,0.96-1.8887,1.71v4.125h-2.1152v-7.5747H594.1055z"/>
		<path fill="#231F20" d="M602.835,162.6899c0,0.4653,0.0596,0.9453,0.1045,1.4102h-1.9648l-0.0898-1.0049h-0.0293
			c-0.4512,0.7798-1.0654,1.1548-1.9805,1.1548c-1.4707,0-2.0098-1.0947-2.0098-2.415c0-2.5049,1.9346-2.6099,3.8994-2.5796v-0.585
			c0-0.645-0.0898-1.1099-0.8545-1.1099c-0.7354,0-0.7949,0.5547-0.7949,1.1548h-2.0703c0-0.915,0.2852-1.5,0.7793-1.8447
			c0.4805-0.3604,1.1709-0.4951,1.9805-0.4951c2.6855,0,3.0303,1.1548,3.0303,2.5347V162.6899z M598.9355,161.7451
			c0,0.54,0.0898,1.2002,0.7793,1.2002c1.2451,0,1.0498-1.6802,1.0498-2.5049C599.7148,160.4854,598.9355,160.395,598.9355,161.7451
			z"/>
		<path fill="#231F20" d="M603.7344,156.5254h0.8555v-1.1997l2.1152-0.9453v2.145h1.0947v1.3052h-1.0947v4.0498
			c0,0.5698-0.0156,0.9448,0.6748,0.9448c0.1348,0,0.2705,0,0.375-0.0303v1.3052c-0.2852,0.0298-0.585,0.0752-1.0947,0.0752
			c-1.8301,0-2.0703-1.2153-2.0703-1.6802v-4.6646h-0.8555V156.5254z"/>
		<path fill="#231F20" d="M608.5801,160.2153c0-2.0698,0.2998-3.8398,3.0898-3.8398c2.7891,0,3.0898,1.77,3.0898,3.8398
			c0,2.3696-0.3604,4.0347-3.0898,4.0347C608.9395,164.25,608.5801,162.585,608.5801,160.2153z M612.6445,160.0952
			c0-1.5747-0.0742-2.3696-0.9746-2.3696s-0.9746,0.7949-0.9746,2.3696c0,2.3101,0.1943,2.8052,0.9746,2.8052
			C612.4492,162.9004,612.6445,162.4053,612.6445,160.0952z"/>
		<path fill="#231F20" d="M618.2695,156.5254v0.9751h0.0303c0.3896-0.8701,1.1104-1.125,1.9648-1.125v1.8896
			c-1.8604-0.1196-1.8896,0.96-1.8896,1.71v4.125h-2.1152v-7.5747H618.2695z"/>
		<path fill="#231F20" d="M539.6782,173.2705h1.23v10.8296h-1.23v-0.8999h-0.0303c-0.4199,0.7051-0.9448,1.0498-1.7397,1.0498
			c-1.2148,0-2.4448-0.48-2.4448-3.8096c0-1.8901,0.0601-4.0649,2.5049-4.0649c0.7197,0,1.2446,0.3149,1.6646,0.915h0.0454V173.2705
			z M538.2529,177.3804c-1.3198,0-1.5,1.0498-1.5,3.0747c0,1.1401,0,2.79,1.5454,2.79c1.3799,0,1.3799-1.71,1.3799-3.2397
			C539.6782,179.0005,539.6182,177.3804,538.2529,177.3804z"/>
		<path fill="#231F20" d="M544.373,180.7104c0,2.1147,0.5703,2.5347,1.5303,2.5347c0.8398,0,1.2749-0.6748,1.3198-1.4399h1.3501
			c-0.0151,1.6802-1.0503,2.4448-2.6401,2.4448c-1.605,0-2.8799-0.48-2.8799-3.8247c0-2.2197,0.2549-4.0498,2.8799-4.0498
			c2.1597,0,2.6997,1.1851,2.6997,3.6899v0.645H544.373z M547.3281,179.7803c0-2.2051-0.6152-2.4751-1.5151-2.4751
			c-0.7798,0-1.4248,0.375-1.4399,2.4751H547.3281z"/>
		<path fill="#231F20" d="M550.8081,176.5254v-1.4551l1.23-0.5547v2.0098h1.6499v0.9302h-1.6499v4.6348
			c0,0.48,0,1.0947,1.125,1.0947c0.0898,0,0.2852-0.0298,0.5552-0.0601v0.9453c-0.4053,0.0298-0.8101,0.1196-1.2153,0.1196
			c-1.1699,0-1.6948-0.48-1.6948-1.3496v-5.3848h-1.2446v-0.9302H550.8081z"/>
		<path fill="#231F20" d="M556.043,180.7104c0,2.1147,0.5703,2.5347,1.5303,2.5347c0.8398,0,1.2749-0.6748,1.3198-1.4399h1.3501
			c-0.0151,1.6802-1.0503,2.4448-2.6401,2.4448c-1.605,0-2.8799-0.48-2.8799-3.8247c0-2.2197,0.2549-4.0498,2.8799-4.0498
			c2.1597,0,2.6997,1.1851,2.6997,3.6899v0.645H556.043z M558.998,179.7803c0-2.2051-0.6152-2.4751-1.5151-2.4751
			c-0.7798,0-1.4248,0.375-1.4399,2.4751H558.998z"/>
		<path fill="#231F20" d="M563.6182,177.6655h0.0298c0.5103-1.1553,1.1401-1.29,2.3398-1.29v1.2749
			c-0.105-0.0151-0.2246-0.0303-0.3296-0.0449c-0.105-0.0151-0.21-0.0303-0.3301-0.0303c-1.3652,0-1.71,1.0352-1.71,2.0552v4.4697
			h-1.23v-7.5747h1.23V177.6655z"/>
		<path fill="#231F20" d="M571.0581,184.1001v-5.25c0-0.7646-0.21-1.4697-1.1997-1.4697c-0.375,0-0.8853,0.2251-1.0654,0.5098
			c-0.2246,0.375-0.2847,0.8252-0.2847,1.1104v5.0996h-1.23v-5.9995c0-0.5254-0.0303-1.0503-0.0752-1.5752h1.3052v0.9448h0.0298
			c0.3604-0.8101,1.0049-1.0947,1.8901-1.0947c0.6899,0,1.4849,0.2847,1.77,0.9751c0.4199-0.8101,1.1099-0.9751,1.7998-0.9751
			c0.7949,0,2.0698,0.1797,2.0698,1.9648v5.7598h-1.23v-5.25c0-0.7646-0.21-1.4697-1.1997-1.4697
			c-0.4653,0-0.6001,0.0151-0.9302,0.2852c-0.3599,0.2998-0.4199,1.0498-0.4199,1.335v5.0996H571.0581z"/>
		<path fill="#231F20" d="M578.063,173.2705h1.3799v1.3198h-1.3799V173.2705z M579.3677,184.1001h-1.23v-7.5747h1.23V184.1001z"/>
		<path fill="#231F20" d="M585.6074,184.1001v-5.25c0-0.8096-0.2852-1.4697-1.335-1.4697c-1.3501,0-1.5449,1.1997-1.5449,2.2349
			v4.4849h-1.23v-5.9995c0-0.5254-0.0303-1.0503-0.0752-1.5752h1.3052v0.9751h0.0601c0.48-0.855,1.0498-1.125,2.0249-1.125
			c1.6191,0,2.0254,0.9751,2.0254,2.4746v5.25H585.6074z"/>
		<path fill="#231F20" d="M590.1973,180.7104c0,2.1147,0.5703,2.5347,1.5303,2.5347c0.8398,0,1.2744-0.6748,1.3193-1.4399h1.3506
			c-0.0146,1.6802-1.0498,2.4448-2.6396,2.4448c-1.6055,0-2.8809-0.48-2.8809-3.8247c0-2.2197,0.2559-4.0498,2.8809-4.0498
			c2.1592,0,2.6992,1.1851,2.6992,3.6899v0.645H590.1973z M593.1523,179.7803c0-2.2051-0.6152-2.4751-1.5156-2.4751
			c-0.7793,0-1.4238,0.375-1.4395,2.4751H593.1523z"/>
		<path fill="#231F20" d="M598.7324,184.25c-1.6348,0-2.6543-0.7197-2.6094-2.46h1.3945c0,0.4351,0.0146,1.4551,1.2598,1.4551
			c0.7344,0,1.3047-0.375,1.3047-1.1548c0-1.3501-3.7793-1.3799-3.7793-3.645c0-0.7949,0.4795-2.0698,2.6094-2.0698
			c1.3496,0,2.5049,0.645,2.4004,2.145h-1.3652c0.0156-0.7949-0.4043-1.2153-1.1855-1.2153c-0.6592,0-1.1699,0.3604-1.1699,1.02
			c0,1.335,3.7803,1.3052,3.7803,3.6152C601.3721,183.605,600.2324,184.25,598.7324,184.25z"/>
		<path fill="#231F20" d="M610.4922,173.2705h1.2305v10.8296h-1.2305v-0.8999h-0.0303c-0.4199,0.7051-0.9443,1.0498-1.7393,1.0498
			c-1.2148,0-2.4453-0.48-2.4453-3.8096c0-1.8901,0.0605-4.0649,2.5049-4.0649c0.7197,0,1.2451,0.3149,1.665,0.915h0.0449V173.2705z
			 M609.0664,177.3804c-1.3193,0-1.499,1.0498-1.499,3.0747c0,1.1401,0,2.79,1.5449,2.79c1.3799,0,1.3799-1.71,1.3799-3.2397
			C610.4922,179.0005,610.4316,177.3804,609.0664,177.3804z"/>
		<path fill="#231F20" d="M615.1875,180.7104c0,2.1147,0.5703,2.5347,1.5293,2.5347c0.8398,0,1.2754-0.6748,1.3203-1.4399h1.3496
			c-0.0146,1.6802-1.0498,2.4448-2.6396,2.4448c-1.6045,0-2.8799-0.48-2.8799-3.8247c0-2.2197,0.2549-4.0498,2.8799-4.0498
			c2.1602,0,2.7002,1.1851,2.7002,3.6899v0.645H615.1875z M618.1426,179.7803c0-2.2051-0.6152-2.4751-1.5156-2.4751
			c-0.7793,0-1.4248,0.375-1.4395,2.4751H618.1426z"/>
		<path fill="#231F20" d="M622.6875,184.1001h-1.2305v-10.8296h1.2305V184.1001z"/>
		<path fill="#231F20" d="M624.9512,176.5254v-1.4551l1.2305-0.5547v2.0098h1.6504v0.9302h-1.6504v4.6348
			c0,0.48,0,1.0947,1.125,1.0947c0.0898,0,0.2852-0.0298,0.5547-0.0601v0.9453c-0.4043,0.0298-0.8096,0.1196-1.2148,0.1196
			c-1.1699,0-1.6953-0.48-1.6953-1.3496v-5.3848h-1.2441v-0.9302H624.9512z"/>
		<path fill="#231F20" d="M632.8867,183.0054h-0.0293c-0.375,0.8696-0.9609,1.2446-1.9053,1.2446
			c-1.6045,0-2.0693-1.0347-2.0693-2.4897c0-2.2949,2.25-2.3999,3.9746-2.355c0.0293-1.0049,0.0449-2.1001-1.2754-2.1001
			c-0.8242,0-1.2598,0.5552-1.1855,1.3501h-1.334c0.0596-1.6948,0.959-2.2798,2.5645-2.2798c1.9502,0,2.46,1.0049,2.46,2.2798v3.645
			c0,0.6001,0.0596,1.2148,0.1494,1.7998h-1.3496V183.0054z M630.1123,181.8501c0,0.7349,0.3604,1.395,1.1846,1.395
			c0.75,0,1.6797-0.4648,1.5605-2.9097C631.6875,180.3501,630.1123,180.2451,630.1123,181.8501z"/>
		<path fill="#231F20" d="M520.7554,204.1001h-1.23v-10.8296h1.23v4.02h0.0449c0.4199-0.6001,0.9448-0.915,1.665-0.915
			c2.4448,0,2.5049,2.1748,2.5049,4.0649c0,3.3296-1.23,3.8096-2.4448,3.8096c-0.7954,0-1.3203-0.3447-1.7402-1.0498h-0.0298
			V204.1001z M522.1353,203.2451c1.5449,0,1.5449-1.6499,1.5449-2.79c0-2.0249-0.1802-3.0747-1.5-3.0747
			c-1.3647,0-1.4248,1.6201-1.4248,2.625C520.7554,201.1602,520.6201,203.2451,522.1353,203.2451z"/>
		<path fill="#231F20" d="M528.1201,200.7104c0,2.1147,0.5703,2.5347,1.5303,2.5347c0.8398,0,1.2749-0.6748,1.3198-1.4399h1.3501
			c-0.0151,1.6802-1.0503,2.4448-2.6401,2.4448c-1.605,0-2.8799-0.48-2.8799-3.8247c0-2.2197,0.2549-4.0498,2.8799-4.0498
			c2.1597,0,2.6997,1.1851,2.6997,3.6899v0.645H528.1201z M531.0752,199.7803c0-2.2051-0.6152-2.4751-1.5151-2.4751
			c-0.7798,0-1.4248,0.375-1.4399,2.4751H531.0752z"/>
		<path fill="#231F20" d="M534.5552,196.5254v-1.4551l1.23-0.5547v2.0098h1.6499v0.9302h-1.6499v4.6348
			c0,0.48,0,1.0947,1.125,1.0947c0.0898,0,0.2852-0.0298,0.5552-0.0601v0.9453c-0.4053,0.0298-0.8101,0.1196-1.2153,0.1196
			c-1.1699,0-1.6948-0.48-1.6948-1.3496v-5.3848h-1.2446v-0.9302H534.5552z"/>
		<path fill="#231F20" d="M537.645,196.5254h1.3652l1.3647,6.5249h0.0303l1.6797-6.5249h1.7402l1.5449,6.5249h0.0298l1.5-6.5249
			h1.3047l-2.0249,7.5747h-1.6499l-1.6196-6.4497h-0.0303l-1.6948,6.4497h-1.6499L537.645,196.5254z"/>
		<path fill="#231F20" d="M550.6201,200.7104c0,2.1147,0.5703,2.5347,1.5303,2.5347c0.8398,0,1.2749-0.6748,1.3198-1.4399h1.3501
			c-0.0151,1.6802-1.0503,2.4448-2.6401,2.4448c-1.605,0-2.8799-0.48-2.8799-3.8247c0-2.2197,0.2549-4.0498,2.8799-4.0498
			c2.1597,0,2.6997,1.1851,2.6997,3.6899v0.645H550.6201z M553.5752,199.7803c0-2.2051-0.6152-2.4751-1.5151-2.4751
			c-0.7798,0-1.4248,0.375-1.4399,2.4751H553.5752z"/>
		<path fill="#231F20" d="M558.1201,200.7104c0,2.1147,0.5703,2.5347,1.5303,2.5347c0.8398,0,1.2749-0.6748,1.3198-1.4399h1.3501
			c-0.0151,1.6802-1.0503,2.4448-2.6401,2.4448c-1.605,0-2.8799-0.48-2.8799-3.8247c0-2.2197,0.2549-4.0498,2.8799-4.0498
			c2.1597,0,2.6997,1.1851,2.6997,3.6899v0.645H558.1201z M561.0752,199.7803c0-2.2051-0.6152-2.4751-1.5151-2.4751
			c-0.7798,0-1.4248,0.375-1.4399,2.4751H561.0752z"/>
		<path fill="#231F20" d="M568.5303,204.1001v-5.25c0-0.8096-0.2852-1.4697-1.335-1.4697c-1.3501,0-1.5449,1.1997-1.5449,2.2349
			v4.4849h-1.23v-5.9995c0-0.5254-0.0303-1.0503-0.0752-1.5752h1.3052v0.9751h0.0601c0.48-0.855,1.0498-1.125,2.0249-1.125
			c1.6196,0,2.0249,0.9751,2.0249,2.4746v5.25H568.5303z"/>
		<path fill="#231F20" d="M579.21,198.9551c0.0298-1.2446-0.5854-1.5747-1.0503-1.5747c-0.9448,0-1.5898,0.4502-1.5898,2.52
			c0,2.46,0.3149,3.3447,1.5898,3.3447c0.2852,0,1.1401-0.2998,1.0952-1.665h1.2896c0.0454,2.1299-1.5449,2.6699-2.3848,2.6699
			c-1.605,0-2.8799-0.48-2.8799-3.8247c0-2.2197,0.2549-4.0498,2.8799-4.0498c1.5151,0,2.3999,0.8848,2.3252,2.5796H579.21z"/>
		<path fill="#231F20" d="M586.7998,196.5254h1.2295v6c0,0.5249,0.0303,1.0498,0.0752,1.5747h-1.3047v-0.915h-0.0449
			c-0.4053,0.6899-1.125,1.0649-1.9199,1.0649c-1.3203,0-2.04-0.6597-2.04-1.9497v-5.7749h1.23v5.25
			c0,0.9146,0.4199,1.5298,1.29,1.5298c0.6597,0,1.4849-0.4951,1.4849-1.7549V196.5254z"/>
		<path fill="#231F20" d="M591.5254,197.6655h0.0293c0.5098-1.1553,1.1406-1.29,2.3398-1.29v1.2749
			c-0.1055-0.0151-0.2246-0.0303-0.3301-0.0449c-0.1045-0.0151-0.209-0.0303-0.3301-0.0303c-1.3652,0-1.709,1.0352-1.709,2.0552
			v4.4697h-1.2305v-7.5747h1.2305V197.6655z"/>
		<path fill="#231F20" d="M596.5195,197.6655h0.0293c0.5107-1.1553,1.1406-1.29,2.3398-1.29v1.2749
			c-0.1045-0.0151-0.2246-0.0303-0.3291-0.0449c-0.1045-0.0151-0.21-0.0303-0.3301-0.0303c-1.3652,0-1.71,1.0352-1.71,2.0552v4.4697
			h-1.2305v-7.5747h1.2305V197.6655z"/>
		<path fill="#231F20" d="M601.4395,200.7104c0,2.1147,0.5703,2.5347,1.5303,2.5347c0.8398,0,1.2744-0.6748,1.3193-1.4399h1.3506
			c-0.0146,1.6802-1.0498,2.4448-2.6396,2.4448c-1.6055,0-2.8809-0.48-2.8809-3.8247c0-2.2197,0.2559-4.0498,2.8809-4.0498
			c2.1592,0,2.6992,1.1851,2.6992,3.6899v0.645H601.4395z M604.3945,199.7803c0-2.2051-0.6152-2.4751-1.5156-2.4751
			c-0.7793,0-1.4238,0.375-1.4395,2.4751H604.3945z"/>
		<path fill="#231F20" d="M611.8496,204.1001v-5.25c0-0.8096-0.2852-1.4697-1.335-1.4697c-1.3506,0-1.5449,1.1997-1.5449,2.2349
			v4.4849h-1.2295v-5.9995c0-0.5254-0.0312-1.0503-0.0762-1.5752h1.3057v0.9751h0.0596c0.4805-0.855,1.0508-1.125,2.0254-1.125
			c1.6191,0,2.0254,0.9751,2.0254,2.4746v5.25H611.8496z"/>
		<path fill="#231F20" d="M615.375,196.5254v-1.4551l1.2295-0.5547v2.0098h1.6494v0.9302h-1.6494v4.6348
			c0,0.48,0,1.0947,1.125,1.0947c0.0898,0,0.2852-0.0298,0.5557-0.0601v0.9453c-0.4062,0.0298-0.8105,0.1196-1.2158,0.1196
			c-1.1699,0-1.6943-0.48-1.6943-1.3496v-5.3848h-1.2451v-0.9302H615.375z"/>
		<path fill="#231F20" d="M624.9746,204.25c-1.6357,0-2.6553-0.7197-2.6104-2.46h1.3955c0,0.4351,0.0137,1.4551,1.2598,1.4551
			c0.7344,0,1.3047-0.375,1.3047-1.1548c0-1.3501-3.7803-1.3799-3.7803-3.645c0-0.7949,0.4795-2.0698,2.6104-2.0698
			c1.3496,0,2.5049,0.645,2.3994,2.145h-1.3643c0.0146-0.7949-0.4053-1.2153-1.1855-1.2153c-0.6602,0-1.1699,0.3604-1.1699,1.02
			c0,1.335,3.7793,1.3052,3.7793,3.6152C627.6133,203.605,626.4746,204.25,624.9746,204.25z"/>
		<path fill="#231F20" d="M629.5342,196.5254v-1.4551l1.2295-0.5547v2.0098h1.6504v0.9302h-1.6504v4.6348
			c0,0.48,0,1.0947,1.125,1.0947c0.0898,0,0.2852-0.0298,0.5557-0.0601v0.9453c-0.4053,0.0298-0.8096,0.1196-1.2158,0.1196
			c-1.1699,0-1.6943-0.48-1.6943-1.3496v-5.3848h-1.2451v-0.9302H629.5342z"/>
		<path fill="#231F20" d="M637.4688,203.0054h-0.0293c-0.375,0.8696-0.9609,1.2446-1.9053,1.2446
			c-1.6045,0-2.0693-1.0347-2.0693-2.4897c0-2.2949,2.25-2.3999,3.9746-2.355c0.0293-1.0049,0.0449-2.1001-1.2754-2.1001
			c-0.8242,0-1.2598,0.5552-1.1855,1.3501h-1.334c0.0596-1.6948,0.959-2.2798,2.5645-2.2798c1.9502,0,2.46,1.0049,2.46,2.2798v3.645
			c0,0.6001,0.0596,1.2148,0.1494,1.7998h-1.3496V203.0054z M634.6943,201.8501c0,0.7349,0.3604,1.395,1.1846,1.395
			c0.75,0,1.6797-0.4648,1.5605-2.9097C636.2695,200.3501,634.6943,200.2451,634.6943,201.8501z"/>
		<path fill="#231F20" d="M641.2041,196.5254v-1.4551l1.2295-0.5547v2.0098h1.6504v0.9302h-1.6504v4.6348
			c0,0.48,0,1.0947,1.125,1.0947c0.0898,0,0.2852-0.0298,0.5557-0.0601v0.9453c-0.4053,0.0298-0.8096,0.1196-1.2158,0.1196
			c-1.1699,0-1.6943-0.48-1.6943-1.3496v-5.3848h-1.2451v-0.9302H641.2041z"/>
		<path fill="#231F20" d="M646.4395,200.7104c0,2.1147,0.5703,2.5347,1.5293,2.5347c0.8398,0,1.2754-0.6748,1.3203-1.4399h1.3496
			c-0.0146,1.6802-1.0498,2.4448-2.6396,2.4448c-1.6045,0-2.8799-0.48-2.8799-3.8247c0-2.2197,0.2549-4.0498,2.8799-4.0498
			c2.1602,0,2.7002,1.1851,2.7002,3.6899v0.645H646.4395z M649.3936,199.7803c0-2.2051-0.6143-2.4751-1.5146-2.4751
			c-0.7793,0-1.4248,0.375-1.4395,2.4751H649.3936z"/>
		<path fill="#231F20" d="M537.9082,223.0049h-0.0303c-0.375,0.8701-0.96,1.2451-1.9048,1.2451
			c-1.605,0-2.0698-1.0352-2.0698-2.4902c0-2.2949,2.25-2.4004,3.9746-2.3545c0.0303-1.0059,0.0449-2.1006-1.2749-2.1006
			c-0.8247,0-1.2598,0.5547-1.1851,1.3506h-1.335c0.0601-1.6953,0.96-2.2803,2.5649-2.2803c1.9502,0,2.46,1.0049,2.46,2.2803v3.6445
			c0,0.5996,0.0601,1.2148,0.1499,1.7998h-1.3496V223.0049z M535.1333,221.8496c0,0.7354,0.3599,1.3955,1.1846,1.3955
			c0.75,0,1.6802-0.4658,1.5601-2.9102C536.708,220.3496,535.1333,220.2451,535.1333,221.8496z"/>
		<path fill="#231F20" d="M545.6182,224.0996v-5.25c0-0.8096-0.2852-1.4697-1.335-1.4697c-1.3501,0-1.5449,1.2002-1.5449,2.2354
			v4.4844h-1.23v-6c0-0.5244-0.0303-1.0498-0.0752-1.5742h1.3052V217.5h0.0601c0.48-0.8555,1.0498-1.125,2.0249-1.125
			c1.6196,0,2.0249,0.9746,2.0249,2.4746v5.25H545.6182z"/>
		<path fill="#231F20" d="M553.0132,213.27h1.23v10.8296h-1.23v-0.9004h-0.0303c-0.4199,0.7051-0.9448,1.0508-1.7397,1.0508
			c-1.2148,0-2.4448-0.4805-2.4448-3.8105c0-1.8896,0.0601-4.0645,2.5049-4.0645c0.7197,0,1.2446,0.3145,1.6646,0.915h0.0454V213.27
			z M551.5879,217.3799c-1.3198,0-1.5,1.0498-1.5,3.0752c0,1.1396,0,2.79,1.5454,2.79c1.3799,0,1.3799-1.71,1.3799-3.2402
			C553.0132,219,552.9531,217.3799,551.5879,217.3799z"/>
		<path fill="#231F20" d="M563.8428,213.27h1.23v10.8296h-1.23v-0.9004h-0.0303c-0.4199,0.7051-0.9448,1.0508-1.7397,1.0508
			c-1.2148,0-2.4448-0.4805-2.4448-3.8105c0-1.8896,0.0601-4.0645,2.5049-4.0645c0.7197,0,1.2446,0.3145,1.665,0.915h0.0449V213.27z
			 M562.4175,217.3799c-1.3198,0-1.4995,1.0498-1.4995,3.0752c0,1.1396,0,2.79,1.5449,2.79c1.3799,0,1.3799-1.71,1.3799-3.2402
			C563.8428,219,563.7827,217.3799,562.4175,217.3799z"/>
		<path fill="#231F20" d="M568.5376,220.71c0,2.1143,0.5703,2.5352,1.5303,2.5352c0.8398,0,1.2749-0.6758,1.3198-1.4404h1.3496
			c-0.0146,1.6797-1.0498,2.4453-2.6396,2.4453c-1.605,0-2.8799-0.4805-2.8799-3.8252c0-2.2197,0.2549-4.0498,2.8799-4.0498
			c2.1602,0,2.6997,1.1846,2.6997,3.6895v0.6455H568.5376z M571.4927,219.7793c0-2.2041-0.6152-2.4746-1.5151-2.4746
			c-0.7798,0-1.4248,0.375-1.4399,2.4746H571.4927z"/>
		<path fill="#231F20" d="M577.0728,224.25c-1.6353,0-2.6548-0.7207-2.6099-2.46h1.395c0,0.4346,0.0146,1.4551,1.2598,1.4551
			c0.7349,0,1.3052-0.375,1.3052-1.1553c0-1.3496-3.7803-1.3799-3.7803-3.6445c0-0.7959,0.48-2.0703,2.6099-2.0703
			c1.3501,0,2.5054,0.6445,2.3999,2.1445h-1.3647c0.0151-0.7949-0.4048-1.2148-1.1851-1.2148c-0.6597,0-1.1699,0.3604-1.1699,1.0205
			c0,1.335,3.7798,1.3047,3.7798,3.6143C579.7124,223.6045,578.5728,224.25,577.0728,224.25z"/>
		<path fill="#231F20" d="M581.3931,213.27h1.3799v1.3198h-1.3799V213.27z M582.6978,224.0996h-1.23v-7.5742h1.23V224.0996z"/>
		<path fill="#231F20" d="M586.1025,217.665h0.0303c0.5098-1.1553,1.1396-1.29,2.3398-1.29v1.2744
			c-0.1055-0.0146-0.2246-0.0293-0.3301-0.0449c-0.1055-0.0146-0.21-0.0293-0.3301-0.0293c-1.3652,0-1.71,1.0342-1.71,2.0547v4.4697
			h-1.23v-7.5742h1.23V217.665z"/>
		<path fill="#231F20" d="M591.0215,220.71c0,2.1143,0.5703,2.5352,1.5312,2.5352c0.8398,0,1.2744-0.6758,1.3193-1.4404h1.3496
			c-0.0146,1.6797-1.0498,2.4453-2.6396,2.4453c-1.6055,0-2.8799-0.4805-2.8799-3.8252c0-2.2197,0.2549-4.0498,2.8799-4.0498
			c2.1602,0,2.6992,1.1846,2.6992,3.6895v0.6455H591.0215z M593.9766,219.7793c0-2.2041-0.6152-2.4746-1.5146-2.4746
			c-0.7803,0-1.4248,0.375-1.4404,2.4746H593.9766z"/>
		<path fill="#231F20" d="M601.3271,213.27h1.2295v10.8296h-1.2295v-0.9004h-0.0303c-0.4199,0.7051-0.9453,1.0508-1.7402,1.0508
			c-1.2148,0-2.4443-0.4805-2.4443-3.8105c0-1.8896,0.0596-4.0645,2.5049-4.0645c0.7197,0,1.2441,0.3145,1.665,0.915h0.0449V213.27z
			 M599.9023,217.3799c-1.3203,0-1.5,1.0498-1.5,3.0752c0,1.1396,0,2.79,1.5449,2.79c1.3799,0,1.3799-1.71,1.3799-3.2402
			C601.3271,219,601.2676,217.3799,599.9023,217.3799z"/>
		<path fill="#231F20" d="M610.3867,224.25c-1.6348,0-2.6543-0.7207-2.6094-2.46h1.3945c0,0.4346,0.0156,1.4551,1.2598,1.4551
			c0.7354,0,1.3057-0.375,1.3057-1.1553c0-1.3496-3.7803-1.3799-3.7803-3.6445c0-0.7959,0.4805-2.0703,2.6094-2.0703
			c1.3506,0,2.5059,0.6445,2.4004,2.1445h-1.3652c0.0156-0.7949-0.4043-1.2148-1.1846-1.2148c-0.6592,0-1.1699,0.3604-1.1699,1.0205
			c0,1.335,3.7803,1.3047,3.7803,3.6143C613.0273,223.6045,611.8867,224.25,610.3867,224.25z"/>
		<path fill="#231F20" d="M614.9473,216.5254v-1.4551l1.2295-0.5557v2.0107h1.6494v0.9297h-1.6494v4.6348
			c0,0.4795,0,1.0947,1.125,1.0947c0.0898,0,0.2852-0.0303,0.5557-0.0596v0.9443c-0.4062,0.0303-0.8105,0.1201-1.2158,0.1201
			c-1.1699,0-1.6943-0.4795-1.6943-1.3496v-5.3848h-1.2451v-0.9297H614.9473z"/>
		<path fill="#231F20" d="M622.8818,223.0049h-0.0303c-0.375,0.8701-0.96,1.2451-1.9043,1.2451
			c-1.6055,0-2.0703-1.0352-2.0703-2.4902c0-2.2949,2.25-2.4004,3.9746-2.3545c0.0303-1.0059,0.0449-2.1006-1.2754-2.1006
			c-0.8242,0-1.2598,0.5547-1.1846,1.3506h-1.335c0.0605-1.6953,0.96-2.2803,2.5645-2.2803c1.9512,0,2.4609,1.0049,2.4609,2.2803
			v3.6445c0,0.5996,0.0596,1.2148,0.1494,1.7998h-1.3496V223.0049z M620.1074,221.8496c0,0.7354,0.3594,1.3955,1.1836,1.3955
			c0.75,0,1.6807-0.4658,1.5605-2.9102C621.6816,220.3496,620.1074,220.2451,620.1074,221.8496z"/>
		<path fill="#231F20" d="M626.6172,216.5254v-1.4551l1.2295-0.5557v2.0107h1.6494v0.9297h-1.6494v4.6348
			c0,0.4795,0,1.0947,1.125,1.0947c0.0898,0,0.2852-0.0303,0.5557-0.0596v0.9443c-0.4062,0.0303-0.8105,0.1201-1.2158,0.1201
			c-1.1699,0-1.6943-0.4795-1.6943-1.3496v-5.3848h-1.2451v-0.9297H626.6172z"/>
		<path fill="#231F20" d="M631.8516,220.71c0,2.1143,0.5703,2.5352,1.5303,2.5352c0.8398,0,1.2744-0.6758,1.3193-1.4404h1.3506
			c-0.0146,1.6797-1.0498,2.4453-2.6396,2.4453c-1.6055,0-2.8809-0.4805-2.8809-3.8252c0-2.2197,0.2559-4.0498,2.8809-4.0498
			c2.1592,0,2.6992,1.1846,2.6992,3.6895v0.6455H631.8516z M634.8066,219.7793c0-2.2041-0.6152-2.4746-1.5156-2.4746
			c-0.7793,0-1.4238,0.375-1.4395,2.4746H634.8066z"/>
	</g>
</g>
<g>
	<g>
		<path fill="#231F20" d="M347.6372,164.2803c-2.8047,0-3.3296-1.6499-3.21-3.5249h2.2651c0,1.0347,0.0449,1.9048,1.29,1.9048
			c0.7646,0,1.1396-0.4951,1.1396-1.23c0-1.9497-4.5596-2.0698-4.5596-5.2949c0-1.6948,0.8101-3.0449,3.5698-3.0449
			c2.2051,0,3.2998,0.9902,3.1499,3.2549h-2.2051c0-0.8096-0.1348-1.6348-1.0498-1.6348c-0.7349,0-1.1699,0.4048-1.1699,1.1548
			c0,2.0552,4.5596,1.875,4.5596,5.2798C351.417,163.9502,349.3623,164.2803,347.6372,164.2803z"/>
		<path fill="#231F20" d="M354.8823,160.6504c0,0.8999,0.0298,2.25,0.96,2.25c0.75,0,0.8999-0.7202,0.8999-1.3501h2.145
			c-0.0303,0.8247-0.3003,1.5-0.8101,1.9648c-0.4951,0.4648-1.2451,0.7349-2.2349,0.7349c-2.73,0-3.0898-1.665-3.0898-4.0347
			c0-2.0698,0.2998-3.8398,3.0898-3.8398c2.8496,0,3.1646,1.8447,3.0898,4.2749H354.8823z M356.8169,159.4653
			c0-0.7349,0.0303-1.7852-0.9746-1.7852c-0.9751,0-0.96,1.1401-0.96,1.7852H356.8169z"/>
		<path fill="#231F20" d="M362.5474,157.2905h0.0298c0.21-0.3452,0.4648-0.5703,0.75-0.7051c0.2998-0.1499,0.645-0.21,1.0352-0.21
			c1.0049,0,1.8896,0.6001,1.8896,1.6499v6.0747h-2.1147v-5.2197c0-0.6748-0.1201-1.2002-0.7949-1.2002
			c-0.6753,0-0.7949,0.5254-0.7949,1.2002v5.2197h-2.1152v-7.5747h2.1152V157.2905z"/>
		<path fill="#231F20" d="M369.5972,161.6704c-0.0151,0.3447,0,0.6748,0.105,0.9146c0.1201,0.2402,0.3452,0.3604,0.7651,0.3604
			s0.7798-0.27,0.7798-0.7803c0-1.605-3.7197-1.2446-3.7197-3.6597c0-1.6348,1.6196-2.1299,2.9849-2.1299
			c1.4399,0,2.7446,0.6899,2.625,2.3247h-2.0703c0-0.5249-0.0596-0.8398-0.21-0.9746c-0.1348-0.1353-0.3149-0.165-0.5396-0.165
			c-0.4653,0-0.7202,0.2998-0.7202,0.8096c0,1.2002,3.7197,1.1401,3.7197,3.5703c0,1.3198-1.0796,2.3096-2.835,2.3096
			c-1.8447,0-3.0747-0.4648-2.9546-2.5796H369.5972z"/>
		<path fill="#231F20" d="M374.4126,160.2153c0-2.0698,0.2998-3.8398,3.0898-3.8398c2.7896,0,3.0898,1.77,3.0898,3.8398
			c0,2.3696-0.3599,4.0347-3.0898,4.0347S374.4126,162.585,374.4126,160.2153z M378.4771,160.0952
			c0-1.5747-0.0747-2.3696-0.9746-2.3696s-0.9751,0.7949-0.9751,2.3696c0,2.3101,0.1948,2.8052,0.9751,2.8052
			C378.2822,162.9004,378.4771,162.4053,378.4771,160.0952z"/>
		<path fill="#231F20" d="M384.1025,156.5254v0.9751h0.0298c0.3901-0.8701,1.1099-1.125,1.9648-1.125v1.8896
			c-1.8599-0.1196-1.8896,0.96-1.8896,1.71v4.125h-2.1152v-7.5747H384.1025z"/>
	</g>
</g>
<g>
	<g>
		<path fill="#231F20" d="M529.2969,334.2803c-2.8047,0-3.3296-1.6499-3.21-3.5249h2.2651c0,1.0347,0.0449,1.9048,1.29,1.9048
			c0.7646,0,1.1396-0.4951,1.1396-1.23c0-1.9497-4.5596-2.0698-4.5596-5.2949c0-1.6948,0.8101-3.0449,3.5698-3.0449
			c2.2051,0,3.2998,0.9902,3.1499,3.2549h-2.2051c0-0.8096-0.1348-1.6348-1.0498-1.6348c-0.7349,0-1.1699,0.4048-1.1699,1.1548
			c0,2.0552,4.5596,1.875,4.5596,5.2798C533.0767,333.9502,531.022,334.2803,529.2969,334.2803z"/>
		<path fill="#231F20" d="M536.8867,323.2705v1.665h-2.1147v-1.665H536.8867z M536.8867,334.1001h-2.1147v-7.5747h2.1147V334.1001z"
			/>
		<path fill="#231F20" d="M544.5518,326.5254v7.8896c0,0.5249,0.0298,2.5947-2.8799,2.5947c-1.5752,0-2.9248-0.4048-2.9702-2.2495
			h2.0703c0,0.3149,0.0449,0.585,0.1797,0.7646c0.1353,0.1953,0.375,0.3003,0.7051,0.3003c0.5249,0,0.7798-0.4951,0.7798-1.2603
			v-1.4546h-0.0298c-0.3149,0.585-0.915,0.8848-1.605,0.8848c-2.3247,0-2.2197-2.1299-2.2197-3.8398
			c0-1.665,0.0298-3.7798,2.2349-3.7798c0.75,0,1.395,0.3301,1.6948,1.0347h0.0298v-0.8848H544.5518z M541.5669,332.6899
			c0.7646,0,0.8696-0.7949,0.8696-2.3999c0-1.6646-0.0747-2.6099-0.855-2.6099c-0.7949,0-0.9297,0.5552-0.9297,2.8652
			C540.6519,331.25,540.5469,332.6899,541.5669,332.6899z"/>
		<path fill="#231F20" d="M548.377,327.2905h0.0298c0.21-0.3452,0.4648-0.5703,0.75-0.7051c0.2998-0.1499,0.645-0.21,1.0352-0.21
			c1.0049,0,1.8896,0.6001,1.8896,1.6499v6.0747h-2.1147v-5.2197c0-0.6748-0.1201-1.2002-0.7949-1.2002
			c-0.6753,0-0.7949,0.5254-0.7949,1.2002v5.2197h-2.1152v-7.5747h2.1152V327.2905z"/>
		<path fill="#231F20" d="M556.0566,323.2705v1.665h-2.1147v-1.665H556.0566z M556.0566,334.1001h-2.1147v-7.5747h2.1147V334.1001z"
			/>
		<path fill="#231F20" d="M561.187,324.5757c-0.855-0.0601-1.0347,0.27-1.0347,1.0347v0.915h0.9897v1.3052h-0.9897v6.2695h-2.1152
			v-6.2695h-0.9448v-1.3052h0.96c-0.0151-2.1748-0.1948-3.3301,2.3848-3.3301c0.2549,0,0.4951,0.0151,0.75,0.0303V324.5757z
			 M563.752,323.2705v1.665h-2.1147v-1.665H563.752z M563.752,334.1001h-2.1147v-7.5747h2.1147V334.1001z"/>
		<path fill="#231F20" d="M569.2871,329.2251c0-1.1245-0.2852-1.4995-0.9448-1.4995c-0.8999,0-0.9751,0.7949-0.9751,2.3696
			c0,2.3101,0.1948,2.8052,0.9751,2.8052c0.6597,0,0.9746-0.6001,0.9746-1.5903h2.1152c0,2.0552-1.1099,2.9399-3.0898,2.9399
			c-2.73,0-3.0898-1.665-3.0898-4.0347c0-2.0698,0.2998-3.8398,3.0898-3.8398c1.9497,0,3.0596,0.8701,3.0596,2.8496H569.2871z"/>
		<path fill="#231F20" d="M578.6772,332.6899c0,0.4653,0.0596,0.9453,0.105,1.4102h-1.9653l-0.0898-1.0049h-0.0298
			c-0.4502,0.7798-1.0649,1.1548-1.98,1.1548c-1.4702,0-2.0103-1.0947-2.0103-2.415c0-2.5049,1.9351-2.6099,3.8999-2.5796v-0.585
			c0-0.645-0.0898-1.1099-0.855-1.1099c-0.7349,0-0.7949,0.5547-0.7949,1.1548h-2.0698c0-0.915,0.2852-1.5,0.7798-1.8447
			c0.48-0.3604,1.1704-0.4951,1.98-0.4951c2.6851,0,3.0303,1.1548,3.0303,2.5347V332.6899z M574.7773,331.7451
			c0,0.54,0.0898,1.2002,0.7798,1.2002c1.2451,0,1.0498-1.6802,1.0498-2.5049C575.5571,330.4854,574.7773,330.395,574.7773,331.7451
			z"/>
		<path fill="#231F20" d="M582.5474,327.2905h0.0298c0.21-0.3452,0.4648-0.5703,0.75-0.7051c0.2998-0.1499,0.645-0.21,1.0352-0.21
			c1.0049,0,1.8896,0.6001,1.8896,1.6499v6.0747h-2.1147v-5.2197c0-0.6748-0.1201-1.2002-0.7949-1.2002
			c-0.6753,0-0.7949,0.5254-0.7949,1.2002v5.2197h-2.1152v-7.5747h2.1152V327.2905z"/>
		<path fill="#231F20" d="M587.0771,326.5254h0.8545v-1.1997l2.1152-0.9453v2.145h1.0957v1.3052h-1.0957v4.0498
			c0,0.5698-0.0146,0.9448,0.6758,0.9448c0.1348,0,0.2695,0,0.375-0.0303v1.3052c-0.2852,0.0298-0.5859,0.0752-1.0957,0.0752
			c-1.8301,0-2.0703-1.2153-2.0703-1.6802v-4.6646h-0.8545V326.5254z"/>
		<path fill="#231F20" d="M594.7119,326.5254h2.1455l1.0645,5.6846h0.0293l1.1104-5.6846h2.0693l-2.084,7.5747h-2.3252
			L594.7119,326.5254z"/>
		<path fill="#231F20" d="M607.8359,332.6899c0,0.4653,0.0605,0.9453,0.1055,1.4102h-1.9648l-0.0898-1.0049h-0.0303
			c-0.4502,0.7798-1.0654,1.1548-1.9795,1.1548c-1.4707,0-2.0107-1.0947-2.0107-2.415c0-2.5049,1.9346-2.6099,3.8994-2.5796v-0.585
			c0-0.645-0.0898-1.1099-0.8545-1.1099c-0.7354,0-0.7949,0.5547-0.7949,1.1548h-2.0693c0-0.915,0.2852-1.5,0.7793-1.8447
			c0.4805-0.3604,1.1699-0.4951,1.9805-0.4951c2.6846,0,3.0293,1.1548,3.0293,2.5347V332.6899z M603.9365,331.7451
			c0,0.54,0.0898,1.2002,0.7803,1.2002c1.2441,0,1.0488-1.6802,1.0488-2.5049C604.7168,330.4854,603.9365,330.395,603.9365,331.7451
			z"/>
		<path fill="#231F20" d="M611.6016,326.5254v0.9751h0.0293c0.3906-0.8701,1.1104-1.125,1.9648-1.125v1.8896
			c-1.8594-0.1196-1.8887,0.96-1.8887,1.71v4.125h-2.1152v-7.5747H611.6016z"/>
		<path fill="#231F20" d="M616.8809,323.2705v1.665h-2.1143v-1.665H616.8809z M616.8809,334.1001h-2.1143v-7.5747h2.1143V334.1001z"
			/>
		<path fill="#231F20" d="M624.502,332.6899c0,0.4653,0.0586,0.9453,0.1045,1.4102h-1.9658l-0.0898-1.0049h-0.0293
			c-0.4502,0.7798-1.0645,1.1548-1.9805,1.1548c-1.4697,0-2.0098-1.0947-2.0098-2.415c0-2.5049,1.9355-2.6099,3.9004-2.5796v-0.585
			c0-0.645-0.0898-1.1099-0.8555-1.1099c-0.7344,0-0.7949,0.5547-0.7949,1.1548h-2.0703c0-0.915,0.2852-1.5,0.7803-1.8447
			c0.4795-0.3604,1.1709-0.4951,1.9795-0.4951c2.6855,0,3.0312,1.1548,3.0312,2.5347V332.6899z M620.6016,331.7451
			c0,0.54,0.0898,1.2002,0.7793,1.2002c1.2461,0,1.0508-1.6802,1.0508-2.5049C621.3809,330.4854,620.6016,330.395,620.6016,331.7451
			z"/>
		<path fill="#231F20" d="M626.2559,323.2705h2.1152v3.9751h0.0303c0.4346-0.645,0.96-0.8701,1.7256-0.8701
			c2.1289,0,2.0693,2.355,2.0693,3.8848c0,1.5601,0.0752,3.9897-2.1143,3.9897c-0.8105,0-1.3955-0.2549-1.7852-0.9897h-0.0303
			v0.8398h-2.0107V323.2705z M630.127,330.2451c0-1.5146,0.0137-2.5649-0.9004-2.5649c-0.8701,0-0.8555,1.0503-0.8555,2.5649
			c0,1.9053,0.1348,2.7002,0.8555,2.7002C629.9912,332.9453,630.127,332.1504,630.127,330.2451z"/>
		<path fill="#231F20" d="M636.0508,323.2705v10.8296h-2.1143v-10.8296H636.0508z"/>
		<path fill="#231F20" d="M639.877,330.6504c0,0.8999,0.0293,2.25,0.959,2.25c0.75,0,0.9004-0.7202,0.9004-1.3501h2.1445
			c-0.0293,0.8247-0.2998,1.5-0.8096,1.9648c-0.4951,0.4648-1.2451,0.7349-2.2354,0.7349c-2.7295,0-3.0898-1.665-3.0898-4.0347
			c0-2.0698,0.3008-3.8398,3.0898-3.8398c2.8496,0,3.165,1.8447,3.0898,4.2749H639.877z M641.8105,329.4653
			c0-0.7349,0.0312-1.7852-0.9746-1.7852c-0.9746,0-0.959,1.1401-0.959,1.7852H641.8105z"/>
		<path fill="#231F20" d="M551.2944,348.9551c0.0303-1.2446-0.585-1.5747-1.0498-1.5747c-0.9448,0-1.5898,0.4502-1.5898,2.52
			c0,2.46,0.3149,3.3447,1.5898,3.3447c0.2852,0,1.1401-0.2998,1.0952-1.665h1.2896c0.0454,2.1299-1.5449,2.6699-2.3848,2.6699
			c-1.605,0-2.8799-0.48-2.8799-3.8247c0-2.2197,0.2549-4.0498,2.8799-4.0498c1.5151,0,2.3999,0.8848,2.3252,2.5796H551.2944z"/>
		<path fill="#231F20" d="M558.8848,346.5254h1.23v6c0,0.5249,0.0298,1.0498,0.0747,1.5747h-1.3047v-0.915h-0.0449
			c-0.4053,0.6899-1.125,1.0649-1.9199,1.0649c-1.3203,0-2.04-0.6597-2.04-1.9497v-5.7749h1.23v5.25
			c0,0.9146,0.4199,1.5298,1.29,1.5298c0.6597,0,1.4849-0.4951,1.4849-1.7549V346.5254z"/>
		<path fill="#231F20" d="M563.6099,347.6655h0.0298c0.5103-1.1553,1.1401-1.29,2.3398-1.29v1.2749
			c-0.105-0.0151-0.2246-0.0303-0.3296-0.0449c-0.105-0.0151-0.21-0.0303-0.3301-0.0303c-1.3652,0-1.71,1.0352-1.71,2.0552v4.4697
			h-1.23v-7.5747h1.23V347.6655z"/>
		<path fill="#231F20" d="M568.605,347.6655h0.0298c0.5103-1.1553,1.1401-1.29,2.3398-1.29v1.2749
			c-0.105-0.0151-0.2246-0.0303-0.3296-0.0449c-0.105-0.0151-0.21-0.0303-0.3301-0.0303c-1.3652,0-1.71,1.0352-1.71,2.0552v4.4697
			h-1.23v-7.5747h1.23V347.6655z"/>
		<path fill="#231F20" d="M573.5244,350.7104c0,2.1147,0.5703,2.5347,1.5303,2.5347c0.8398,0,1.2749-0.6748,1.3198-1.4399h1.3496
			c-0.0146,1.6802-1.0498,2.4448-2.6396,2.4448c-1.605,0-2.8799-0.48-2.8799-3.8247c0-2.2197,0.2549-4.0498,2.8799-4.0498
			c2.1602,0,2.6997,1.1851,2.6997,3.6899v0.645H573.5244z M576.4795,349.7803c0-2.2051-0.6152-2.4751-1.5151-2.4751
			c-0.7798,0-1.4248,0.375-1.4399,2.4751H576.4795z"/>
		<path fill="#231F20" d="M583.9346,354.1001v-5.25c0-0.8096-0.2852-1.4697-1.335-1.4697c-1.3501,0-1.5449,1.1997-1.5449,2.2349
			v4.4849h-1.23v-5.9995c0-0.5254-0.0303-1.0503-0.0752-1.5752h1.3052v0.9751h0.0601c0.48-0.855,1.0498-1.125,2.0249-1.125
			c1.6196,0,2.0249,0.9751,2.0249,2.4746v5.25H583.9346z"/>
		<path fill="#231F20" d="M587.459,346.5254v-1.4551l1.2305-0.5547v2.0098h1.6504v0.9302h-1.6504v4.6348
			c0,0.48,0,1.0947,1.125,1.0947c0.0898,0,0.2852-0.0298,0.5547-0.0601v0.9453c-0.4043,0.0298-0.8096,0.1196-1.2148,0.1196
			c-1.1699,0-1.6953-0.48-1.6953-1.3496v-5.3848h-1.2441v-0.9302H587.459z"/>
		<path fill="#231F20" d="M597.0596,354.25c-1.6357,0-2.6553-0.7197-2.6104-2.46h1.3955c0,0.4351,0.0146,1.4551,1.2598,1.4551
			c0.7354,0,1.3057-0.375,1.3057-1.1548c0-1.3501-3.7812-1.3799-3.7812-3.645c0-0.7949,0.4805-2.0698,2.6104-2.0698
			c1.3506,0,2.5049,0.645,2.3994,2.145h-1.3643c0.0146-0.7949-0.4053-1.2153-1.1846-1.2153c-0.6602,0-1.1699,0.3604-1.1699,1.02
			c0,1.335,3.7793,1.3052,3.7793,3.6152C599.6992,353.605,598.5596,354.25,597.0596,354.25z"/>
		<path fill="#231F20" d="M601.6191,346.5254v-1.4551l1.2305-0.5547v2.0098h1.6494v0.9302h-1.6494v4.6348
			c0,0.48,0,1.0947,1.125,1.0947c0.0898,0,0.2852-0.0298,0.5547-0.0601v0.9453c-0.4053,0.0298-0.8105,0.1196-1.2148,0.1196
			c-1.1699,0-1.6953-0.48-1.6953-1.3496v-5.3848h-1.2441v-0.9302H601.6191z"/>
		<path fill="#231F20" d="M609.5547,353.0054h-0.0312c-0.375,0.8696-0.959,1.2446-1.9043,1.2446
			c-1.6055,0-2.0703-1.0347-2.0703-2.4897c0-2.2949,2.25-2.3999,3.9746-2.355c0.0312-1.0049,0.0449-2.1001-1.2744-2.1001
			c-0.8252,0-1.2598,0.5552-1.1846,1.3501h-1.3359c0.0605-1.6948,0.9609-2.2798,2.5654-2.2798c1.9502,0,2.46,1.0049,2.46,2.2798
			v3.645c0,0.6001,0.0605,1.2148,0.1504,1.7998h-1.3496V353.0054z M606.7793,351.8501c0,0.7349,0.3594,1.395,1.1846,1.395
			c0.75,0,1.6807-0.4648,1.5596-2.9097C608.3535,350.3501,606.7793,350.2451,606.7793,351.8501z"/>
		<path fill="#231F20" d="M613.2891,346.5254v-1.4551l1.2305-0.5547v2.0098h1.6494v0.9302h-1.6494v4.6348
			c0,0.48,0,1.0947,1.125,1.0947c0.0898,0,0.2852-0.0298,0.5547-0.0601v0.9453c-0.4053,0.0298-0.8105,0.1196-1.2148,0.1196
			c-1.1699,0-1.6953-0.48-1.6953-1.3496v-5.3848h-1.2441v-0.9302H613.2891z"/>
		<path fill="#231F20" d="M618.5234,350.7104c0,2.1147,0.5703,2.5347,1.5312,2.5347c0.8398,0,1.2744-0.6748,1.3193-1.4399h1.3506
			c-0.0156,1.6802-1.0508,2.4448-2.6406,2.4448c-1.6055,0-2.8799-0.48-2.8799-3.8247c0-2.2197,0.2549-4.0498,2.8799-4.0498
			c2.1602,0,2.6992,1.1851,2.6992,3.6899v0.645H618.5234z M621.4785,349.7803c0-2.2051-0.6152-2.4751-1.5146-2.4751
			c-0.7803,0-1.4248,0.375-1.4404,2.4751H621.4785z"/>
	</g>
</g>
<g>
	<g>
		<path fill="#231F20" d="M778.8701,164.1001l3-10.8296h2.9854l2.9395,10.8296h-2.3848l-0.6006-2.3999h-3.0898l-0.6143,2.3999
			H778.8701z M783.2344,155.3555h-0.0293l-1.0352,4.6797h2.1602L783.2344,155.3555z"/>
		<path fill="#231F20" d="M792.6094,159.2251c0-1.1245-0.2852-1.4995-0.9443-1.4995c-0.8994,0-0.9756,0.7949-0.9756,2.3696
			c0,2.3101,0.1953,2.8052,0.9756,2.8052c0.6592,0,0.9746-0.6001,0.9746-1.5903h2.1152c0,2.0552-1.1104,2.9399-3.0898,2.9399
			c-2.7295,0-3.0898-1.665-3.0898-4.0347c0-2.0698,0.2998-3.8398,3.0898-3.8398c1.9502,0,3.0596,0.8701,3.0596,2.8496H792.6094z"/>
		<path fill="#231F20" d="M795.4004,156.5254h0.8545v-1.1997l2.1152-0.9453v2.145h1.0947v1.3052h-1.0947v4.0498
			c0,0.5698-0.0146,0.9448,0.6748,0.9448c0.1348,0,0.2695,0,0.375-0.0303v1.3052c-0.2852,0.0298-0.585,0.0752-1.0957,0.0752
			c-1.8291,0-2.0693-1.2153-2.0693-1.6802v-4.6646h-0.8545V156.5254z"/>
		<path fill="#231F20" d="M804.1299,163.335h-0.0303c-0.21,0.3301-0.4492,0.5703-0.75,0.7051
			c-0.2998,0.1499-0.6299,0.21-1.0352,0.21c-1.0039,0-1.8896-0.6001-1.8896-1.6499v-6.0747h2.1152v5.25
			c0,0.6748,0.1201,1.1699,0.7949,1.1699s0.7949-0.4951,0.7949-1.1699v-5.25h2.1143v6.0747c0,0.4951,0.0312,1.0049,0.0762,1.5
			h-2.1904V163.335z"/>
		<path fill="#231F20" d="M813.6699,162.6899c0,0.4653,0.0596,0.9453,0.1055,1.4102h-1.9658l-0.0898-1.0049h-0.0303
			c-0.4492,0.7798-1.0645,1.1548-1.9795,1.1548c-1.4697,0-2.0107-1.0947-2.0107-2.415c0-2.5049,1.9355-2.6099,3.9004-2.5796v-0.585
			c0-0.645-0.0898-1.1099-0.8555-1.1099c-0.7344,0-0.7949,0.5547-0.7949,1.1548h-2.0693c0-0.915,0.2852-1.5,0.7803-1.8447
			c0.4795-0.3604,1.1699-0.4951,1.9795-0.4951c2.6846,0,3.0303,1.1548,3.0303,2.5347V162.6899z M809.7695,161.7451
			c0,0.54,0.0898,1.2002,0.7803,1.2002c1.2451,0,1.0498-1.6802,1.0498-2.5049C810.5498,160.4854,809.7695,160.395,809.7695,161.7451
			z"/>
		<path fill="#231F20" d="M814.5703,156.5254h0.8545v-1.1997l2.1152-0.9453v2.145h1.0947v1.3052H817.54v4.0498
			c0,0.5698-0.0146,0.9448,0.6748,0.9448c0.1348,0,0.2695,0,0.375-0.0303v1.3052c-0.2852,0.0298-0.585,0.0752-1.0957,0.0752
			c-1.8291,0-2.0693-1.2153-2.0693-1.6802v-4.6646h-0.8545V156.5254z"/>
		<path fill="#231F20" d="M819.415,160.2153c0-2.0698,0.2998-3.8398,3.0898-3.8398s3.0898,1.77,3.0898,3.8398
			c0,2.3696-0.3604,4.0347-3.0898,4.0347S819.415,162.585,819.415,160.2153z M823.4795,160.0952
			c0-1.5747-0.0752-2.3696-0.9746-2.3696s-0.9756,0.7949-0.9756,2.3696c0,2.3101,0.1953,2.8052,0.9756,2.8052
			S823.4795,162.4053,823.4795,160.0952z"/>
		<path fill="#231F20" d="M829.1055,156.5254v0.9751h0.0293c0.3906-0.8701,1.1094-1.125,1.9648-1.125v1.8896
			c-1.8594-0.1196-1.8896,0.96-1.8896,1.71v4.125h-2.1152v-7.5747H829.1055z"/>
	</g>
</g>
<g>
	<g>
		<path fill="#00ADEF" d="M777.8955,353.0054h-0.0303c-0.375,0.8696-0.96,1.2446-1.9043,1.2446
			c-1.6055,0-2.0703-1.0347-2.0703-2.4897c0-2.2949,2.25-2.3999,3.9746-2.355c0.0303-1.0049,0.0449-2.1001-1.2754-2.1001
			c-0.8242,0-1.2598,0.5552-1.1846,1.3501h-1.335c0.0605-1.6948,0.96-2.2798,2.5645-2.2798c1.9512,0,2.4609,1.0049,2.4609,2.2798
			v3.645c0,0.6001,0.0596,1.2148,0.1494,1.7998h-1.3496V353.0054z M775.1211,351.8501c0,0.7349,0.3594,1.395,1.1836,1.395
			c0.75,0,1.6807-0.4648,1.5605-2.9097C776.6953,350.3501,775.1211,350.2451,775.1211,351.8501z"/>
		<path fill="#00ADEF" d="M781.7207,346.5254v-1.4697c0-1.5303,1.0801-1.8301,2.1748-1.8301c0.2549,0,0.4053,0.0151,0.585,0.0449
			v0.8848c-1.3047-0.0898-1.5303,0.4653-1.5303,1.0801v1.29h1.5303v0.9302h-1.5303v6.6445h-1.2295v-6.6445h-1.1699v-0.9302H781.7207
			z"/>
		<path fill="#00ADEF" d="M785.8906,346.5254v-1.4697c0-1.5303,1.0801-1.8301,2.1748-1.8301c0.2549,0,0.4053,0.0151,0.585,0.0449
			v0.8848c-1.3047-0.0898-1.5303,0.4653-1.5303,1.0801v1.29h1.5303v0.9302h-1.5303v6.6445h-1.2295v-6.6445h-1.1699v-0.9302H785.8906
			z"/>
		<path fill="#00ADEF" d="M791.0352,350.7104c0,2.1147,0.5703,2.5347,1.5303,2.5347c0.8398,0,1.2744-0.6748,1.3193-1.4399h1.3496
			c-0.0137,1.6802-1.0488,2.4448-2.6387,2.4448c-1.6055,0-2.8809-0.48-2.8809-3.8247c0-2.2197,0.2559-4.0498,2.8809-4.0498
			c2.1602,0,2.6992,1.1851,2.6992,3.6899v0.645H791.0352z M793.9902,349.7803c0-2.2051-0.6152-2.4751-1.5156-2.4751
			c-0.7793,0-1.4238,0.375-1.4395,2.4751H793.9902z"/>
		<path fill="#00ADEF" d="M801.2949,348.9551c0.0303-1.2446-0.585-1.5747-1.0498-1.5747c-0.9443,0-1.5898,0.4502-1.5898,2.52
			c0,2.46,0.3154,3.3447,1.5898,3.3447c0.2852,0,1.1396-0.2998,1.0947-1.665h1.29c0.0459,2.1299-1.5449,2.6699-2.3848,2.6699
			c-1.6045,0-2.8799-0.48-2.8799-3.8247c0-2.2197,0.2549-4.0498,2.8799-4.0498c1.5146,0,2.3994,0.8848,2.3252,2.5796H801.2949z"/>
		<path fill="#00ADEF" d="M804.9707,346.5254v-1.4551l1.2295-0.5547v2.0098h1.6494v0.9302h-1.6494v4.6348
			c0,0.48,0,1.0947,1.125,1.0947c0.0898,0,0.2852-0.0298,0.5557-0.0601v0.9453c-0.4062,0.0298-0.8105,0.1196-1.2158,0.1196
			c-1.1699,0-1.6943-0.48-1.6943-1.3496v-5.3848h-1.2451v-0.9302H804.9707z"/>
		<path fill="#00ADEF" d="M811.2402,354.25c-1.6348,0-2.6543-0.7197-2.6094-2.46h1.3945c0,0.4351,0.0146,1.4551,1.2598,1.4551
			c0.7344,0,1.3047-0.375,1.3047-1.1548c0-1.3501-3.7793-1.3799-3.7793-3.645c0-0.7949,0.4795-2.0698,2.6094-2.0698
			c1.3496,0,2.5059,0.645,2.4004,2.145h-1.3652c0.0156-0.7949-0.4043-1.2153-1.1855-1.2153c-0.6592,0-1.1699,0.3604-1.1699,1.02
			c0,1.335,3.7803,1.3052,3.7803,3.6152C813.8799,353.605,812.7402,354.25,811.2402,354.25z"/>
		<path fill="#00ADEF" d="M819.1299,346.5254v-1.4551l1.2295-0.5547v2.0098h1.6504v0.9302h-1.6504v4.6348
			c0,0.48,0,1.0947,1.125,1.0947c0.0898,0,0.2852-0.0298,0.5557-0.0601v0.9453c-0.4053,0.0298-0.8096,0.1196-1.2158,0.1196
			c-1.1699,0-1.6943-0.48-1.6943-1.3496v-5.3848h-1.2451v-0.9302H819.1299z"/>
		<path fill="#00ADEF" d="M827.2754,354.1001v-5.1299c0-0.9297-0.3008-1.5898-1.3506-1.5898c-1.2295,0-1.5449,0.9897-1.5449,2.2651
			v4.4546h-1.2295v-10.8296h1.2295v4.23h0.0596c0.4961-0.8853,1.0654-1.125,2.0547-1.125c1.291,0,2.0107,0.645,2.0107,2.355v5.3696
			H827.2754z"/>
		<path fill="#00ADEF" d="M831.8652,350.7104c0,2.1147,0.5703,2.5347,1.5293,2.5347c0.8398,0,1.2754-0.6748,1.3203-1.4399h1.3496
			c-0.0146,1.6802-1.0498,2.4448-2.6396,2.4448c-1.6045,0-2.8799-0.48-2.8799-3.8247c0-2.2197,0.2549-4.0498,2.8799-4.0498
			c2.1592,0,2.7002,1.1851,2.7002,3.6899v0.645H831.8652z M834.8203,349.7803c0-2.2051-0.6152-2.4751-1.5156-2.4751
			c-0.7793,0-1.4248,0.375-1.4395,2.4751H834.8203z"/>
	</g>
</g>
<g>
	<g>
		<path fill="#00ADEF" d="M320.5786,343.2705h1.3799v1.3198h-1.3799V343.2705z M321.8833,354.1001h-1.23v-7.5747h1.23V354.1001z"/>
		<path fill="#00ADEF" d="M326.248,354.25c-1.6348,0-2.6548-0.7197-2.6099-2.46h1.395c0,0.4351,0.0146,1.4551,1.2598,1.4551
			c0.7349,0,1.3052-0.375,1.3052-1.1548c0-1.3501-3.7803-1.3799-3.7803-3.645c0-0.7949,0.48-2.0698,2.6099-2.0698
			c1.3501,0,2.5049,0.645,2.3999,2.145h-1.3647c0.0151-0.7949-0.4048-1.2153-1.1851-1.2153c-0.6597,0-1.1699,0.3604-1.1699,1.02
			c0,1.335,3.7798,1.3052,3.7798,3.6152C328.8877,353.605,327.748,354.25,326.248,354.25z"/>
		<path fill="#00ADEF" d="M337.7227,354.1001v-5.25c0-0.7646-0.21-1.4697-1.2002-1.4697c-0.3745,0-0.8848,0.2251-1.0649,0.5098
			c-0.2246,0.375-0.2847,0.8252-0.2847,1.1104v5.0996h-1.23v-5.9995c0-0.5254-0.0303-1.0503-0.0752-1.5752h1.3052v0.9448h0.0298
			c0.3599-0.8101,1.0049-1.0947,1.8901-1.0947c0.6899,0,1.4849,0.2847,1.77,0.9751c0.4199-0.8101,1.1099-0.9751,1.7998-0.9751
			c0.7949,0,2.0698,0.1797,2.0698,1.9648v5.7598h-1.23v-5.25c0-0.7646-0.21-1.4697-1.1997-1.4697
			c-0.4653,0-0.6001,0.0151-0.9302,0.2852c-0.3599,0.2998-0.4199,1.0498-0.4199,1.335v5.0996H337.7227z"/>
		<path fill="#00ADEF" d="M346.0322,350.7104c0,2.1147,0.5703,2.5347,1.5303,2.5347c0.8398,0,1.2749-0.6748,1.3198-1.4399h1.3501
			c-0.0151,1.6802-1.0503,2.4448-2.6401,2.4448c-1.605,0-2.8799-0.48-2.8799-3.8247c0-2.2197,0.2549-4.0498,2.8799-4.0498
			c2.1597,0,2.6997,1.1851,2.6997,3.6899v0.645H346.0322z M348.9873,349.7803c0-2.2051-0.6152-2.4751-1.5151-2.4751
			c-0.7798,0-1.4248,0.375-1.4399,2.4751H348.9873z"/>
		<path fill="#00ADEF" d="M356.2324,353.0054h-0.0303c-0.375,0.8696-0.96,1.2446-1.9048,1.2446
			c-1.605,0-2.0698-1.0347-2.0698-2.4897c0-2.2949,2.25-2.3999,3.9746-2.355c0.0303-1.0049,0.0449-2.1001-1.2749-2.1001
			c-0.8247,0-1.2598,0.5552-1.1851,1.3501h-1.335c0.0601-1.6948,0.96-2.2798,2.5649-2.2798c1.9502,0,2.46,1.0049,2.46,2.2798v3.645
			c0,0.6001,0.0601,1.2148,0.1499,1.7998h-1.3496V353.0054z M353.4575,351.8501c0,0.7349,0.3599,1.395,1.1846,1.395
			c0.75,0,1.6802-0.4648,1.5601-2.9097C355.0322,350.3501,353.4575,350.2451,353.4575,351.8501z"/>
		<path fill="#00ADEF" d="M362.0674,354.25c-1.6348,0-2.6548-0.7197-2.6099-2.46h1.395c0,0.4351,0.0146,1.4551,1.2598,1.4551
			c0.7349,0,1.3052-0.375,1.3052-1.1548c0-1.3501-3.7803-1.3799-3.7803-3.645c0-0.7949,0.48-2.0698,2.6099-2.0698
			c1.3501,0,2.5049,0.645,2.3999,2.145h-1.3647c0.0151-0.7949-0.4048-1.2153-1.1851-1.2153c-0.6597,0-1.1699,0.3604-1.1699,1.02
			c0,1.335,3.7798,1.3052,3.7798,3.6152C364.707,353.605,363.5674,354.25,362.0674,354.25z"/>
		<path fill="#00ADEF" d="M370.5425,346.5254h1.23v6c0,0.5249,0.0298,1.0498,0.0747,1.5747h-1.3047v-0.915h-0.0449
			c-0.4053,0.6899-1.125,1.0649-1.9199,1.0649c-1.3203,0-2.04-0.6597-2.04-1.9497v-5.7749h1.23v5.25
			c0,0.9146,0.4199,1.5298,1.29,1.5298c0.6597,0,1.4849-0.4951,1.4849-1.7549V346.5254z"/>
		<path fill="#00ADEF" d="M375.2676,347.6655h0.0298c0.5103-1.1553,1.1401-1.29,2.3398-1.29v1.2749
			c-0.105-0.0151-0.2246-0.0303-0.3296-0.0449c-0.105-0.0151-0.21-0.0303-0.3301-0.0303c-1.3652,0-1.71,1.0352-1.71,2.0552v4.4697
			h-1.23v-7.5747h1.23V347.6655z"/>
		<path fill="#00ADEF" d="M380.187,350.7104c0,2.1147,0.5703,2.5347,1.5303,2.5347c0.8398,0,1.2749-0.6748,1.3198-1.4399h1.3496
			c-0.0146,1.6802-1.0498,2.4448-2.6396,2.4448c-1.605,0-2.8799-0.48-2.8799-3.8247c0-2.2197,0.2549-4.0498,2.8799-4.0498
			c2.1602,0,2.6997,1.1851,2.6997,3.6899v0.645H380.187z M383.1421,349.7803c0-2.2051-0.6152-2.4751-1.5151-2.4751
			c-0.7798,0-1.4248,0.375-1.4399,2.4751H383.1421z"/>
		<path fill="#00ADEF" d="M390.4922,343.2705h1.23v10.8296h-1.23v-0.8999h-0.0303c-0.4199,0.7051-0.9448,1.0498-1.7397,1.0498
			c-1.2148,0-2.4448-0.48-2.4448-3.8096c0-1.8901,0.0601-4.0649,2.5049-4.0649c0.7197,0,1.2446,0.3149,1.665,0.915h0.0449V343.2705z
			 M389.0669,347.3804c-1.3198,0-1.4995,1.0498-1.4995,3.0747c0,1.1401,0,2.79,1.5449,2.79c1.3799,0,1.3799-1.71,1.3799-3.2397
			C390.4922,349.0005,390.4321,347.3804,389.0669,347.3804z"/>
		<path fill="#00ADEF" d="M398.6519,354.1001h-1.23v-10.8296h1.23v4.02h0.0449c0.4199-0.6001,0.9448-0.915,1.665-0.915
			c2.4448,0,2.5049,2.1748,2.5049,4.0649c0,3.3296-1.23,3.8096-2.4448,3.8096c-0.7954,0-1.3203-0.3447-1.7402-1.0498h-0.0298
			V354.1001z M400.0317,353.2451c1.5449,0,1.5449-1.6499,1.5449-2.79c0-2.0249-0.1802-3.0747-1.5-3.0747
			c-1.3647,0-1.4248,1.6201-1.4248,2.625C398.6519,351.1602,398.5166,353.2451,400.0317,353.2451z"/>
		<path fill="#00ADEF" d="M407.0967,352.6899h0.0298l1.8149-6.1646h1.335l-3.4346,10.4395h-1.2749l0.855-2.8647l-2.5649-7.5747
			h1.4248L407.0967,352.6899z"/>
	</g>
</g>
<g>
	<path fill="#00ADEF" d="M686.7637,173.2705h1.2295v10.8296h-1.2295v-0.8999h-0.0312c-0.4199,0.7051-0.9443,1.0498-1.7393,1.0498
		c-1.2148,0-2.4443-0.48-2.4443-3.8096c0-1.8901,0.0596-4.0649,2.5039-4.0649c0.7207,0,1.2451,0.3149,1.666,0.915h0.0449V173.2705z
		 M685.3379,177.3804c-1.3203,0-1.5,1.0498-1.5,3.0747c0,1.1401,0,2.79,1.5449,2.79c1.3809,0,1.3809-1.71,1.3809-3.2397
		C686.7637,179.0005,686.7031,177.3804,685.3379,177.3804z"/>
	<path fill="#00ADEF" d="M691.5332,177.6655h0.0293c0.5107-1.1553,1.1406-1.29,2.3398-1.29v1.2749
		c-0.1045-0.0151-0.2246-0.0303-0.3291-0.0449c-0.1045-0.0151-0.21-0.0303-0.3301-0.0303c-1.3652,0-1.71,1.0352-1.71,2.0552v4.4697
		h-1.2305v-7.5747h1.2305V177.6655z"/>
	<path fill="#00ADEF" d="M695.1484,173.2705h1.3799v1.3198h-1.3799V173.2705z M696.4531,184.1001h-1.2305v-7.5747h1.2305V184.1001z"
		/>
	<path fill="#00ADEF" d="M697.7129,176.5254h1.3799l1.6943,6.4199h0.0312l1.8301-6.4199h1.2891l-2.3691,7.5747h-1.6055
		L697.7129,176.5254z"/>
	<path fill="#00ADEF" d="M706.4424,180.7104c0,2.1147,0.5703,2.5347,1.5303,2.5347c0.8398,0,1.2754-0.6748,1.3203-1.4399h1.3496
		c-0.0156,1.6802-1.0508,2.4448-2.6406,2.4448c-1.6045,0-2.8789-0.48-2.8789-3.8247c0-2.2197,0.2539-4.0498,2.8789-4.0498
		c2.1602,0,2.7002,1.1851,2.7002,3.6899v0.645H706.4424z M709.3975,179.7803c0-2.2051-0.6152-2.4751-1.5146-2.4751
		c-0.7803,0-1.4258,0.375-1.4404,2.4751H709.3975z"/>
	<path fill="#00ADEF" d="M714.9775,184.25c-1.6357,0-2.6553-0.7197-2.6104-2.46h1.3955c0,0.4351,0.0146,1.4551,1.2598,1.4551
		c0.7354,0,1.3057-0.375,1.3057-1.1548c0-1.3501-3.7812-1.3799-3.7812-3.645c0-0.7949,0.4805-2.0698,2.6104-2.0698
		c1.3506,0,2.5049,0.645,2.3994,2.145h-1.3643c0.0146-0.7949-0.4053-1.2153-1.1846-1.2153c-0.6602,0-1.1699,0.3604-1.1699,1.02
		c0,1.335,3.7793,1.3052,3.7793,3.6152C717.6172,183.605,716.4775,184.25,714.9775,184.25z"/>
</g>
<g>
	<path fill="#00ADEF" d="M445.9829,173.2705h1.3799v1.3198h-1.3799V173.2705z M447.2876,184.1001h-1.23v-7.5747h1.23V184.1001z"/>
	<path fill="#00ADEF" d="M453.5273,184.1001v-5.25c0-0.8096-0.2852-1.4697-1.335-1.4697c-1.3501,0-1.5449,1.1997-1.5449,2.2349
		v4.4849h-1.23v-5.9995c0-0.5254-0.0303-1.0503-0.0752-1.5752h1.3052v0.9751h0.0601c0.48-0.855,1.0498-1.125,2.0249-1.125
		c1.6196,0,2.0249,0.9751,2.0249,2.4746v5.25H453.5273z"/>
	<path fill="#00ADEF" d="M457.1426,176.5254v-1.4697c0-1.5303,1.0796-1.8301,2.1748-1.8301c0.2549,0,0.4048,0.0151,0.585,0.0449
		v0.8848c-1.3052-0.0898-1.5303,0.4653-1.5303,1.0801v1.29h1.5303v0.9302h-1.5303v6.6445h-1.2295v-6.6445h-1.1704v-0.9302H457.1426z
		"/>
	<path fill="#00ADEF" d="M460.8779,180.4253c0-2.2197,0.2549-4.0498,2.8799-4.0498c2.6245,0,2.8799,1.8301,2.8799,4.0498
		c0,3.3447-1.2749,3.8247-2.8799,3.8247S460.8779,183.77,460.8779,180.4253z M465.3477,179.9004c0-2.0698-0.645-2.52-1.5898-2.52
		c-0.9453,0-1.5898,0.4502-1.5898,2.52c0,2.46,0.3149,3.3447,1.5898,3.3447S465.3477,182.3604,465.3477,179.9004z"/>
	<path fill="#00ADEF" d="M469.8628,177.6655h0.0298c0.5103-1.1553,1.1401-1.29,2.3398-1.29v1.2749
		c-0.105-0.0151-0.2246-0.0303-0.3296-0.0449c-0.105-0.0151-0.21-0.0303-0.3301-0.0303c-1.3652,0-1.71,1.0352-1.71,2.0552v4.4697
		h-1.23v-7.5747h1.23V177.6655z"/>
	<path fill="#00ADEF" d="M477.3022,184.1001v-5.25c0-0.7646-0.21-1.4697-1.1997-1.4697c-0.375,0-0.8853,0.2251-1.0654,0.5098
		c-0.2246,0.375-0.2847,0.8252-0.2847,1.1104v5.0996h-1.23v-5.9995c0-0.5254-0.0303-1.0503-0.0752-1.5752h1.3052v0.9448h0.0298
		c0.3604-0.8101,1.0049-1.0947,1.8901-1.0947c0.6899,0,1.4849,0.2847,1.77,0.9751c0.4199-0.8101,1.1099-0.9751,1.7998-0.9751
		c0.7949,0,2.0698,0.1797,2.0698,1.9648v5.7598h-1.23v-5.25c0-0.7646-0.21-1.4697-1.1997-1.4697
		c-0.4653,0-0.6001,0.0151-0.9302,0.2852c-0.3599,0.2998-0.4199,1.0498-0.4199,1.335v5.0996H477.3022z"/>
	<path fill="#00ADEF" d="M486.647,184.25c-1.6353,0-2.6548-0.7197-2.6099-2.46h1.395c0,0.4351,0.0146,1.4551,1.2598,1.4551
		c0.7349,0,1.3052-0.375,1.3052-1.1548c0-1.3501-3.7803-1.3799-3.7803-3.645c0-0.7949,0.48-2.0698,2.6099-2.0698
		c1.3501,0,2.5054,0.645,2.3999,2.145h-1.3647c0.0151-0.7949-0.4048-1.2153-1.1851-1.2153c-0.6597,0-1.1699,0.3604-1.1699,1.02
		c0,1.335,3.7798,1.3052,3.7798,3.6152C489.2866,183.605,488.147,184.25,486.647,184.25z"/>
</g>
<g>
	<g>
		<path fill="#00A551" d="M595.9756,98.2705h1.3799v1.3198h-1.3799V98.2705z M597.2803,109.1001h-1.2295v-7.5747h1.2295V109.1001z"
			/>
		<path fill="#00A551" d="M603.5195,109.1001v-5.25c0-0.8096-0.2852-1.4697-1.334-1.4697c-1.3506,0-1.5449,1.1997-1.5449,2.2349
			v4.4849h-1.2305v-5.9995c0-0.5254-0.0303-1.0503-0.0752-1.5752h1.3057v0.9751h0.0596c0.4795-0.855,1.0498-1.125,2.0244-1.125
			c1.6201,0,2.0254,0.9751,2.0254,2.4746v5.25H603.5195z"/>
		<path fill="#00A551" d="M607.1348,101.5254v-1.4697c0-1.5303,1.0801-1.8301,2.1758-1.8301c0.2539,0,0.4043,0.0151,0.584,0.0449
			v0.8848c-1.3047-0.0898-1.5293,0.4653-1.5293,1.0801v1.29h1.5293v0.9302h-1.5293v6.6445h-1.2305v-6.6445h-1.1699v-0.9302H607.1348
			z"/>
		<path fill="#00A551" d="M610.8711,105.4253c0-2.2197,0.2539-4.0498,2.8789-4.0498s2.8809,1.8301,2.8809,4.0498
			c0,3.3447-1.2754,3.8247-2.8809,3.8247C612.1455,109.25,610.8711,108.77,610.8711,105.4253z M615.3398,104.9004
			c0-2.0698-0.6445-2.52-1.5898-2.52s-1.5898,0.4502-1.5898,2.52c0,2.46,0.3154,3.3447,1.5898,3.3447
			C615.0254,108.2451,615.3398,107.3604,615.3398,104.9004z"/>
		<path fill="#00A551" d="M619.8555,102.6655h0.0293c0.5107-1.1553,1.1406-1.29,2.3398-1.29v1.2749
			c-0.1045-0.0151-0.2246-0.0303-0.3291-0.0449c-0.1045-0.0151-0.21-0.0303-0.3301-0.0303c-1.3652,0-1.71,1.0352-1.71,2.0552v4.4697
			h-1.2305v-7.5747h1.2305V102.6655z"/>
		<path fill="#00A551" d="M627.2949,109.1001v-5.25c0-0.7646-0.21-1.4697-1.1992-1.4697c-0.375,0-0.8857,0.2251-1.0664,0.5098
			c-0.2246,0.375-0.2842,0.8252-0.2842,1.1104v5.0996h-1.2295v-5.9995c0-0.5254-0.0312-1.0503-0.0762-1.5752h1.3057v0.9448h0.0303
			c0.3594-0.8101,1.0039-1.0947,1.8896-1.0947c0.6904,0,1.4854,0.2847,1.7705,0.9751c0.4199-0.8101,1.1094-0.9751,1.7988-0.9751
			c0.7949,0,2.0703,0.1797,2.0703,1.9648v5.7598h-1.2305v-5.25c0-0.7646-0.209-1.4697-1.1992-1.4697
			c-0.4648,0-0.5996,0.0151-0.9297,0.2852c-0.3604,0.2998-0.4199,1.0498-0.4199,1.335v5.0996H627.2949z"/>
		<path fill="#00A551" d="M636.6396,109.25c-1.6357,0-2.6553-0.7197-2.6104-2.46h1.3955c0,0.4351,0.0146,1.4551,1.2598,1.4551
			c0.7354,0,1.3057-0.375,1.3057-1.1548c0-1.3501-3.7812-1.3799-3.7812-3.645c0-0.7949,0.4805-2.0698,2.6104-2.0698
			c1.3506,0,2.5049,0.645,2.3994,2.145h-1.3643c0.0146-0.7949-0.4053-1.2153-1.1846-1.2153c-0.6602,0-1.1699,0.3604-1.1699,1.02
			c0,1.335,3.7793,1.3052,3.7793,3.6152C639.2793,108.605,638.1396,109.25,636.6396,109.25z"/>
	</g>
</g>
<g>
	<g>
		<path fill="#EC008B" d="M600.04,403.9546c0.0303-1.2446-0.585-1.5747-1.0498-1.5747c-0.9453,0-1.5898,0.4502-1.5898,2.52
			c0,2.46,0.3145,3.3447,1.5898,3.3447c0.2852,0,1.1396-0.2998,1.0947-1.665h1.29c0.0449,2.1299-1.5449,2.6699-2.3848,2.6699
			c-1.6055,0-2.8809-0.48-2.8809-3.8247c0-2.2197,0.2559-4.0498,2.8809-4.0498c1.5146,0,2.3994,0.8848,2.3242,2.5796H600.04z"/>
		<path fill="#EC008B" d="M607.4805,408.0049h-0.0312c-0.375,0.8696-0.959,1.2446-1.9043,1.2446
			c-1.6055,0-2.0703-1.0347-2.0703-2.4897c0-2.2949,2.25-2.3999,3.9746-2.355c0.0312-1.0049,0.0449-2.1001-1.2744-2.1001
			c-0.8252,0-1.2598,0.5552-1.1846,1.3501h-1.3359c0.0605-1.6948,0.9609-2.2798,2.5654-2.2798c1.9502,0,2.46,1.0049,2.46,2.2798
			v3.645c0,0.6001,0.0605,1.2148,0.1504,1.7998h-1.3496V408.0049z M604.7051,406.8496c0,0.7349,0.3594,1.395,1.1846,1.395
			c0.75,0,1.6807-0.4648,1.5596-2.9097C606.2793,405.3496,604.7051,405.2446,604.7051,406.8496z"/>
		<path fill="#EC008B" d="M615.1895,409.0996v-5.25c0-0.8096-0.2852-1.4697-1.334-1.4697c-1.3506,0-1.5449,1.1997-1.5449,2.2349
			v4.4849h-1.2305v-5.9995c0-0.5254-0.0303-1.0503-0.0752-1.5752h1.3057V402.5h0.0596c0.4795-0.855,1.0498-1.125,2.0244-1.125
			c1.6201,0,2.0254,0.9751,2.0254,2.4746v5.25H615.1895z"/>
		<path fill="#EC008B" d="M625.8096,408.0049h-0.0303c-0.375,0.8696-0.96,1.2446-1.9043,1.2446
			c-1.6055,0-2.0703-1.0347-2.0703-2.4897c0-2.2949,2.25-2.3999,3.9746-2.355c0.0303-1.0049,0.0449-2.1001-1.2754-2.1001
			c-0.8242,0-1.2598,0.5552-1.1846,1.3501h-1.335c0.0605-1.6948,0.96-2.2798,2.5645-2.2798c1.9512,0,2.4609,1.0049,2.4609,2.2798
			v3.645c0,0.6001,0.0596,1.2148,0.1494,1.7998h-1.3496V408.0049z M623.0352,406.8496c0,0.7349,0.3594,1.395,1.1836,1.395
			c0.75,0,1.6807-0.4648,1.5605-2.9097C624.6094,405.3496,623.0352,405.2446,623.0352,406.8496z"/>
		<path fill="#EC008B" d="M629.6348,401.5249v-1.4697c0-1.5303,1.0801-1.8301,2.1748-1.8301c0.2549,0,0.4053,0.0151,0.585,0.0449
			v0.8848c-1.3047-0.0898-1.5303,0.4653-1.5303,1.0801v1.29h1.5303v0.9302h-1.5303v6.6445h-1.2295v-6.6445h-1.1699v-0.9302H629.6348
			z"/>
		<path fill="#EC008B" d="M633.8047,401.5249v-1.4697c0-1.5303,1.0801-1.8301,2.1758-1.8301c0.2539,0,0.4043,0.0151,0.584,0.0449
			v0.8848c-1.3047-0.0898-1.5293,0.4653-1.5293,1.0801v1.29h1.5293v0.9302h-1.5293v6.6445h-1.2305v-6.6445h-1.1699v-0.9302H633.8047
			z"/>
		<path fill="#EC008B" d="M638.9492,405.71c0,2.1147,0.5703,2.5347,1.5312,2.5347c0.8398,0,1.2744-0.6748,1.3193-1.4399h1.3496
			c-0.0146,1.6802-1.0498,2.4448-2.6396,2.4448c-1.6055,0-2.8799-0.48-2.8799-3.8247c0-2.2197,0.2549-4.0498,2.8799-4.0498
			c2.1602,0,2.6992,1.1851,2.6992,3.6899v0.645H638.9492z M641.9043,404.7798c0-2.2051-0.6152-2.4751-1.5146-2.4751
			c-0.7803,0-1.4248,0.375-1.4404,2.4751H641.9043z"/>
		<path fill="#EC008B" d="M649.21,403.9546c0.0303-1.2446-0.585-1.5747-1.0498-1.5747c-0.9453,0-1.5898,0.4502-1.5898,2.52
			c0,2.46,0.3145,3.3447,1.5898,3.3447c0.2852,0,1.1396-0.2998,1.0947-1.665h1.29c0.0449,2.1299-1.5449,2.6699-2.3848,2.6699
			c-1.6055,0-2.8809-0.48-2.8809-3.8247c0-2.2197,0.2559-4.0498,2.8809-4.0498c1.5146,0,2.3994,0.8848,2.3242,2.5796H649.21z"/>
		<path fill="#EC008B" d="M652.8848,401.5249v-1.4551l1.2305-0.5547v2.0098h1.6494v0.9302h-1.6494v4.6348
			c0,0.48,0,1.0947,1.125,1.0947c0.0898,0,0.2852-0.0298,0.5547-0.0601v0.9453c-0.4053,0.0298-0.8105,0.1196-1.2148,0.1196
			c-1.1699,0-1.6953-0.48-1.6953-1.3496v-5.3848h-1.2441v-0.9302H652.8848z"/>
		<path fill="#EC008B" d="M660.3848,401.5249v-1.4551l1.2305-0.5547v2.0098h1.6494v0.9302h-1.6494v4.6348
			c0,0.48,0,1.0947,1.125,1.0947c0.0898,0,0.2842-0.0298,0.5547-0.0601v0.9453c-0.4053,0.0298-0.8105,0.1196-1.2148,0.1196
			c-1.1699,0-1.6953-0.48-1.6953-1.3496v-5.3848h-1.2451v-0.9302H660.3848z"/>
		<path fill="#EC008B" d="M668.5293,409.0996v-5.1299c0-0.9297-0.2998-1.5898-1.3496-1.5898c-1.2295,0-1.5449,0.9897-1.5449,2.2651
			v4.4546h-1.2295V398.27h1.2295v4.23h0.0596c0.4951-0.8853,1.0654-1.125,2.0557-1.125c1.29,0,2.0098,0.645,2.0098,2.355v5.3696
			H668.5293z"/>
		<path fill="#EC008B" d="M673.1201,405.71c0,2.1147,0.5693,2.5347,1.5293,2.5347c0.8398,0,1.2754-0.6748,1.3203-1.4399h1.3496
			c-0.0146,1.6802-1.0498,2.4448-2.6396,2.4448c-1.6045,0-2.8799-0.48-2.8799-3.8247c0-2.2197,0.2549-4.0498,2.8799-4.0498
			c2.1602,0,2.7002,1.1851,2.7002,3.6899v0.645H673.1201z M676.0742,404.7798c0-2.2051-0.6143-2.4751-1.5146-2.4751
			c-0.7803,0-1.4248,0.375-1.4395,2.4751H676.0742z"/>
	</g>
</g>
<g>
	<g>
		<path fill="#231F20" d="M376.2148,292.5v-10.8296h5.5801v1.2002h-4.2002v3.4795h3.8999v1.2002h-3.8999v3.7495h4.29V292.5H376.2148
			z"/>
		<path fill="#231F20" d="M387.6899,292.5v-5.25c0-0.8096-0.2852-1.4697-1.335-1.4697c-1.3501,0-1.5449,1.2002-1.5449,2.2349V292.5
			h-1.23v-6c0-0.5249-0.0303-1.0498-0.0752-1.5747h1.3052v0.9751h0.0601c0.48-0.855,1.0498-1.125,2.0249-1.125
			c1.6196,0,2.0249,0.9751,2.0249,2.4746v5.25H387.6899z"/>
		<path fill="#231F20" d="M390.21,284.9253h1.3799l1.6948,6.4199h0.0303l1.8301-6.4199h1.2896l-2.3696,7.5747h-1.605
			L390.21,284.9253z"/>
		<path fill="#231F20" d="M397.6348,281.6704h1.3799v1.3198h-1.3799V281.6704z M398.9395,292.5h-1.23v-7.5747h1.23V292.5z"/>
		<path fill="#231F20" d="M402.3447,286.0654h0.0298c0.5103-1.1553,1.1401-1.29,2.3398-1.29v1.2749
			c-0.105-0.0151-0.2246-0.0298-0.3296-0.0449s-0.21-0.0303-0.3301-0.0303c-1.3652,0-1.71,1.0352-1.71,2.0552V292.5h-1.23v-7.5747
			h1.23V286.0654z"/>
		<path fill="#231F20" d="M405.8545,288.8252c0-2.2197,0.2549-4.0498,2.8799-4.0498c2.6245,0,2.8799,1.8301,2.8799,4.0498
			c0,3.3447-1.2749,3.8247-2.8799,3.8247S405.8545,292.1699,405.8545,288.8252z M410.3242,288.3003c0-2.0698-0.645-2.52-1.5898-2.52
			c-0.9453,0-1.5898,0.4502-1.5898,2.52c0,2.46,0.3149,3.3447,1.5898,3.3447S410.3242,290.7603,410.3242,288.3003z"/>
		<path fill="#231F20" d="M417.6743,292.5v-5.25c0-0.8096-0.2852-1.4697-1.335-1.4697c-1.3501,0-1.5449,1.2002-1.5449,2.2349V292.5
			h-1.23v-6c0-0.5249-0.0303-1.0498-0.0752-1.5747h1.3052v0.9751h0.0601c0.48-0.855,1.0498-1.125,2.0249-1.125
			c1.6196,0,2.0249,0.9751,2.0249,2.4746v5.25H417.6743z"/>
		<path fill="#231F20" d="M424.7842,292.5v-5.25c0-0.7646-0.21-1.4697-1.2002-1.4697c-0.3745,0-0.8848,0.2251-1.0649,0.5098
			c-0.2246,0.375-0.2847,0.8252-0.2847,1.1104V292.5h-1.23v-6c0-0.5249-0.0303-1.0498-0.0752-1.5747h1.3052v0.9448h0.0298
			c0.3599-0.8096,1.0049-1.0947,1.8901-1.0947c0.6899,0,1.4849,0.2852,1.77,0.9751c0.4199-0.8101,1.1099-0.9751,1.7998-0.9751
			c0.7949,0,2.0698,0.1797,2.0698,1.9648V292.5h-1.23v-5.25c0-0.7646-0.21-1.4697-1.1997-1.4697
			c-0.4653,0-0.6001,0.0151-0.9302,0.2852c-0.3599,0.2998-0.4199,1.0498-0.4199,1.335V292.5H424.7842z"/>
		<path fill="#231F20" d="M433.0942,289.1104c0,2.1147,0.5703,2.5347,1.5303,2.5347c0.8398,0,1.2749-0.6748,1.3198-1.4399h1.3496
			c-0.0146,1.6802-1.0498,2.4448-2.6396,2.4448c-1.605,0-2.8799-0.48-2.8799-3.8247c0-2.2197,0.2549-4.0498,2.8799-4.0498
			c2.1602,0,2.6997,1.1851,2.6997,3.6899v0.645H433.0942z M436.0493,288.1802c0-2.2051-0.6152-2.4751-1.5151-2.4751
			c-0.7798,0-1.4248,0.375-1.4399,2.4751H436.0493z"/>
		<path fill="#231F20" d="M443.5039,292.5v-5.25c0-0.8096-0.2842-1.4697-1.335-1.4697c-1.3496,0-1.5449,1.2002-1.5449,2.2349V292.5
			h-1.2295v-6c0-0.5249-0.0303-1.0498-0.0752-1.5747h1.3047v0.9751h0.0605c0.4795-0.855,1.0498-1.125,2.0244-1.125
			c1.6201,0,2.0254,0.9751,2.0254,2.4746v5.25H443.5039z"/>
		<path fill="#231F20" d="M447.0293,284.9253v-1.4551l1.2305-0.5547v2.0098h1.6494v0.9302h-1.6494v4.6348
			c0,0.48,0,1.0947,1.125,1.0947c0.0898,0,0.2842-0.0298,0.5547-0.0601v0.9453c-0.4053,0.0298-0.8105,0.1196-1.2148,0.1196
			c-1.1699,0-1.6953-0.48-1.6953-1.3496v-5.3848h-1.2451v-0.9302H447.0293z"/>
	</g>
</g>
<g>
	<g>
		<path fill="#EC008B" d="M545.5801,453.2705h3.7803c2.9697,0,3.5244,1.98,3.5244,5.355c0,1.6646,0.2554,5.4746-3.6147,5.4746
			h-3.6899V453.2705z M547.8452,462.4351h1.0947c1.3804,0,1.6499-1.0347,1.6499-3.7495c0-1.9951,0-3.75-1.5747-3.75h-1.1699
			V462.4351z"/>
		<path fill="#EC008B" d="M556.8901,453.2705v1.665h-2.1147v-1.665H556.8901z M556.8901,464.1001h-2.1147v-7.5747h2.1147V464.1001z"
			/>
		<path fill="#EC008B" d="M560.4302,461.6704c-0.0151,0.3447,0,0.6748,0.105,0.9146c0.1201,0.2402,0.3452,0.3604,0.7651,0.3604
			s0.7798-0.27,0.7798-0.7803c0-1.605-3.7197-1.2446-3.7197-3.6597c0-1.6348,1.6196-2.1299,2.9849-2.1299
			c1.4399,0,2.7446,0.6899,2.625,2.3247h-2.0703c0-0.5249-0.0596-0.8398-0.21-0.9746c-0.1348-0.1353-0.3149-0.165-0.5396-0.165
			c-0.4653,0-0.7202,0.2998-0.7202,0.8096c0,1.2002,3.7197,1.1401,3.7197,3.5703c0,1.3198-1.0796,2.3096-2.835,2.3096
			c-1.8447,0-3.0747-0.4648-2.9546-2.5796H560.4302z"/>
		<path fill="#EC008B" d="M564.5698,456.5254h0.855v-1.1997l2.1152-0.9453v2.145h1.0947v1.3052H567.54v4.0498
			c0,0.5698-0.0151,0.9448,0.6748,0.9448c0.1348,0,0.27,0,0.375-0.0303v1.3052c-0.2852,0.0298-0.585,0.0752-1.0952,0.0752
			c-1.8296,0-2.0698-1.2153-2.0698-1.6802v-4.6646h-0.855V456.5254z"/>
		<path fill="#EC008B" d="M573.2998,463.335h-0.0303c-0.21,0.3301-0.4497,0.5703-0.75,0.7051
			c-0.2998,0.1499-0.6299,0.21-1.0347,0.21c-1.0049,0-1.8901-0.6001-1.8901-1.6499v-6.0747h2.1152v5.25
			c0,0.6748,0.1196,1.1699,0.7949,1.1699c0.6748,0,0.7949-0.4951,0.7949-1.1699v-5.25h2.1147v6.0747
			c0,0.4951,0.0303,1.0049,0.0752,1.5h-2.1899V463.335z"/>
		<path fill="#EC008B" d="M579.105,456.5254v0.9751h0.0298c0.3901-0.8701,1.1099-1.125,1.9648-1.125v1.8896
			c-1.8599-0.1196-1.8896,0.96-1.8896,1.71v4.125h-2.1152v-7.5747H579.105z"/>
		<path fill="#EC008B" d="M582.0898,453.2705h2.1152v3.9751h0.0298c0.4351-0.645,0.96-0.8701,1.7251-0.8701
			c2.1299,0,2.0693,2.355,2.0693,3.8848c0,1.5601,0.0752,3.9897-2.1143,3.9897c-0.8101,0-1.395-0.2549-1.7852-0.9897h-0.0298v0.8398
			h-2.0103V453.2705z M585.96,460.2451c0-1.5146,0.0146-2.5649-0.8999-2.5649c-0.8701,0-0.855,1.0503-0.855,2.5649
			c0,1.9053,0.1348,2.7002,0.855,2.7002C585.8247,462.9453,585.96,462.1504,585.96,460.2451z"/>
		<path fill="#EC008B" d="M595.335,462.6899c0,0.4653,0.0596,0.9453,0.1045,1.4102h-1.9648l-0.0898-1.0049h-0.0293
			c-0.4512,0.7798-1.0654,1.1548-1.9805,1.1548c-1.4707,0-2.0098-1.0947-2.0098-2.415c0-2.5049,1.9346-2.6099,3.8994-2.5796v-0.585
			c0-0.645-0.0898-1.1099-0.8545-1.1099c-0.7354,0-0.7949,0.5547-0.7949,1.1548h-2.0703c0-0.915,0.2852-1.5,0.7793-1.8447
			c0.4805-0.3604,1.1709-0.4951,1.9805-0.4951c2.6855,0,3.0303,1.1548,3.0303,2.5347V462.6899z M591.4355,461.7451
			c0,0.54,0.0898,1.2002,0.7793,1.2002c1.2451,0,1.0498-1.6802,1.0498-2.5049C592.2148,460.4854,591.4355,460.395,591.4355,461.7451
			z"/>
		<path fill="#EC008B" d="M599.2051,457.2905h0.0293c0.2109-0.3452,0.4648-0.5703,0.75-0.7051
			c0.3008-0.1499,0.6455-0.21,1.0352-0.21c1.0059,0,1.8906,0.6001,1.8906,1.6499v6.0747h-2.1152v-5.2197
			c0-0.6748-0.1201-1.2002-0.7949-1.2002c-0.6758,0-0.7949,0.5254-0.7949,1.2002v5.2197h-2.1152v-7.5747h2.1152V457.2905z"/>
		<path fill="#EC008B" d="M608.4453,459.2251c0-1.1245-0.2852-1.4995-0.9453-1.4995c-0.9004,0-0.9746,0.7949-0.9746,2.3696
			c0,2.3101,0.1943,2.8052,0.9746,2.8052c0.6602,0,0.9746-0.6001,0.9746-1.5903h2.1152c0,2.0552-1.1094,2.9399-3.0898,2.9399
			c-2.7305,0-3.0898-1.665-3.0898-4.0347c0-2.0698,0.2998-3.8398,3.0898-3.8398c1.9492,0,3.0596,0.8701,3.0596,2.8496H608.4453z"/>
		<path fill="#EC008B" d="M614.04,460.6504c0,0.8999,0.0303,2.25,0.96,2.25c0.75,0,0.9004-0.7202,0.9004-1.3501h2.1445
			c-0.0303,0.8247-0.3008,1.5-0.8105,1.9648c-0.4941,0.4648-1.2441,0.7349-2.2344,0.7349c-2.7305,0-3.0898-1.665-3.0898-4.0347
			c0-2.0698,0.2998-3.8398,3.0898-3.8398c2.8496,0,3.1641,1.8447,3.0898,4.2749H614.04z M615.9746,459.4653
			c0-0.7349,0.0303-1.7852-0.9746-1.7852c-0.9746,0-0.96,1.1401-0.96,1.7852H615.9746z"/>
		<path fill="#EC008B" d="M621.2549,461.6704c-0.0146,0.3447,0,0.6748,0.1045,0.9146c0.1211,0.2402,0.3457,0.3604,0.7656,0.3604
			s0.7793-0.27,0.7793-0.7803c0-1.605-3.7188-1.2446-3.7188-3.6597c0-1.6348,1.6191-2.1299,2.9844-2.1299
			c1.4395,0,2.7441,0.6899,2.625,2.3247h-2.0703c0-0.5249-0.0596-0.8398-0.21-0.9746c-0.1348-0.1353-0.3154-0.165-0.54-0.165
			c-0.4648,0-0.7197,0.2998-0.7197,0.8096c0,1.2002,3.7197,1.1401,3.7197,3.5703c0,1.3198-1.0801,2.3096-2.835,2.3096
			c-1.8447,0-3.0752-0.4648-2.9541-2.5796H621.2549z"/>
	</g>
</g>
<g>
	<g>
		<line fill="none" stroke="#00ADEF" stroke-width="1.23" stroke-linejoin="round" x1="395" y1="160" x2="538.666" y2="160"/>
		<g>
			<polygon fill="#00ADEF" points="534.5903,165.0303 533.7515,164.1299 538.1938,160.001 533.7515,155.8716 534.5903,154.9707 
				540,160.001 			"/>
		</g>
	</g>
</g>
<g>
	<g>
		<path fill="none" stroke="#00ADEF" stroke-width="1.23" stroke-linejoin="round" d="M515,330H276c-3.2998,0-6-2.7002-6-6V166
			c0-3.2998,2.7002-6,6-6h57.666"/>
		<g>
			<polygon fill="#00ADEF" points="329.5903,165.0303 328.7515,164.1299 333.1938,160.001 328.7515,155.8716 329.5903,154.9707 
				335,160.001 			"/>
		</g>
	</g>
</g>
<g>
	<g>
		<line fill="none" stroke="#00ADEF" stroke-width="1.23" stroke-linejoin="round" x1="630" y1="160" x2="768.666" y2="160"/>
		<g>
			<polygon fill="#00ADEF" points="764.5908,165.0303 763.752,164.1299 768.1943,160.001 763.752,155.8716 764.5908,154.9707 
				770,160.001 			"/>
		</g>
	</g>
</g>
<g>
	<g>
		<line fill="none" stroke="#00A551" stroke-width="1.23" stroke-linejoin="round" x1="585" y1="65" x2="585" y2="143.666"/>
		<g>
			<polygon fill="#00A551" points="579.9697,139.5898 580.8701,138.752 584.999,143.1934 589.1289,138.752 590.0293,139.5898 
				584.999,145 			"/>
		</g>
	</g>
</g>
<g>
	<g>
		<line fill="none" stroke="#EC008B" stroke-width="1.23" stroke-linejoin="round" x1="585" y1="445" x2="585" y2="366.334"/>
		<g>
			<polygon fill="#EC008B" points="590.0303,370.4102 589.1299,371.248 585.001,366.8066 580.8716,371.248 579.9707,370.4102 
				585.001,365 			"/>
		</g>
	</g>
</g>
<g>
	<path fill="#00A551" d="M576.7266,6.6011c0.0151-1.0054-0.1499-1.8901-1.3496-1.8901c-1.4102,0-1.4102,1.9048-1.4102,4.0049
		c0,3.3896,0.3301,3.9897,1.6201,3.9897c0.375,0,0.7798-0.0898,1.125-0.21v-2.3999h-1.23v-1.665h3.4946v5.4897
		c-0.6147,0.1201-2.1597,0.3604-3.0596,0.3604c-3.8101,0-4.2451-1.5752-4.2451-5.6851c0-2.73,0.1353-5.5049,3.8398-5.5049
		c2.2202,0,3.6001,1.2451,3.4648,3.5103H576.7266z"/>
	<path fill="#00A551" d="M580.6572,10.2158c0-2.0698,0.2998-3.8398,3.0898-3.8398s3.0898,1.77,3.0898,3.8398
		c0,2.3696-0.3604,4.0347-3.0898,4.0347C581.0171,14.2505,580.6572,12.5854,580.6572,10.2158z M584.7217,10.0957
		c0-1.5747-0.0747-2.3696-0.9746-2.3696s-0.9751,0.7949-0.9751,2.3696c0,2.3101,0.1948,2.8052,0.9751,2.8052
		C584.5269,12.9009,584.7217,12.4058,584.7217,10.0957z"/>
	<path fill="#00A551" d="M594.082,12.6904c0,0.4653,0.0596,0.9453,0.1055,1.4102h-1.9658l-0.0898-1.0049h-0.0303
		c-0.4492,0.7798-1.0645,1.1548-1.9795,1.1548c-1.4697,0-2.0107-1.0947-2.0107-2.415c0-2.5049,1.9355-2.6099,3.9004-2.5796v-0.585
		c0-0.645-0.0898-1.1099-0.8555-1.1099c-0.7344,0-0.7949,0.5547-0.7949,1.1548h-2.0693c0-0.915,0.2852-1.5,0.7803-1.8447
		c0.4795-0.3604,1.1699-0.4951,1.9795-0.4951c2.6846,0,3.0303,1.1548,3.0303,2.5347V12.6904z M590.1816,11.7456
		c0,0.54,0.0898,1.2002,0.7803,1.2002c1.2451,0,1.0498-1.6802,1.0498-2.5049C590.9619,10.4858,590.1816,10.3955,590.1816,11.7456z"
		/>
	<path fill="#00A551" d="M598.1318,3.271v10.8296h-2.1143V3.271H598.1318z"/>
	<path fill="#00A551" d="M543.4277,23.271h1.23v10.8296h-1.23v-0.8999h-0.0303c-0.4199,0.7051-0.9448,1.0498-1.7397,1.0498
		c-1.2148,0-2.4448-0.48-2.4448-3.8096c0-1.8901,0.0601-4.0649,2.5049-4.0649c0.7197,0,1.2446,0.3149,1.6646,0.915h0.0454V23.271z
		 M542.0024,27.3809c-1.3198,0-1.5,1.0498-1.5,3.0747c0,1.1401,0,2.79,1.5454,2.79c1.3799,0,1.3799-1.71,1.3799-3.2397
		C543.4277,29.001,543.3677,27.3809,542.0024,27.3809z"/>
	<path fill="#00A551" d="M548.1226,30.7109c0,2.1147,0.5703,2.5347,1.5303,2.5347c0.8398,0,1.2749-0.6748,1.3198-1.4399h1.3501
		c-0.0151,1.6802-1.0503,2.4448-2.6401,2.4448c-1.605,0-2.8799-0.48-2.8799-3.8247c0-2.2197,0.2549-4.0498,2.8799-4.0498
		c2.1597,0,2.6997,1.1851,2.6997,3.6899v0.645H548.1226z M551.0776,29.7808c0-2.2051-0.6152-2.4751-1.5151-2.4751
		c-0.7798,0-1.4248,0.375-1.4399,2.4751H551.0776z"/>
	<path fill="#00A551" d="M556.6577,34.2505c-1.6348,0-2.6548-0.7197-2.6099-2.46h1.395c0,0.4351,0.0146,1.4551,1.2598,1.4551
		c0.7349,0,1.3052-0.375,1.3052-1.1548c0-1.3501-3.7803-1.3799-3.7803-3.645c0-0.7949,0.48-2.0698,2.6099-2.0698
		c1.3501,0,2.5049,0.645,2.3999,2.145h-1.3647c0.0151-0.7949-0.4048-1.2153-1.1851-1.2153c-0.6597,0-1.1699,0.3604-1.1699,1.02
		c0,1.335,3.7798,1.3052,3.7798,3.6152C559.2974,33.6055,558.1577,34.2505,556.6577,34.2505z"/>
	<path fill="#00A551" d="M560.9775,23.271h1.3799v1.3198h-1.3799V23.271z M562.2822,34.1006h-1.23v-7.5747h1.23V34.1006z"/>
	<path fill="#00A551" d="M565.6875,27.666h0.0298c0.5103-1.1553,1.1401-1.29,2.3398-1.29v1.2749
		c-0.105-0.0151-0.2246-0.0303-0.3296-0.0449c-0.105-0.0151-0.21-0.0303-0.3301-0.0303c-1.3652,0-1.71,1.0352-1.71,2.0552v4.4697
		h-1.23v-7.5747h1.23V27.666z"/>
	<path fill="#00A551" d="M570.6069,30.7109c0,2.1147,0.5703,2.5347,1.5303,2.5347c0.8398,0,1.2749-0.6748,1.3198-1.4399h1.3501
		c-0.0151,1.6802-1.0503,2.4448-2.6401,2.4448c-1.605,0-2.8799-0.48-2.8799-3.8247c0-2.2197,0.2549-4.0498,2.8799-4.0498
		c2.1597,0,2.6997,1.1851,2.6997,3.6899v0.645H570.6069z M573.562,29.7808c0-2.2051-0.6152-2.4751-1.5151-2.4751
		c-0.7798,0-1.4248,0.375-1.4399,2.4751H573.562z"/>
	<path fill="#00A551" d="M580.9121,23.271h1.23v10.8296h-1.23v-0.8999h-0.0303c-0.4199,0.7051-0.9448,1.0498-1.7397,1.0498
		c-1.2148,0-2.4448-0.48-2.4448-3.8096c0-1.8901,0.0601-4.0649,2.5049-4.0649c0.7197,0,1.2446,0.3149,1.6646,0.915h0.0454V23.271z
		 M579.4868,27.3809c-1.3198,0-1.5,1.0498-1.5,3.0747c0,1.1401,0,2.79,1.5454,2.79c1.3799,0,1.3799-1.71,1.3799-3.2397
		C580.9121,29.001,580.8521,27.3809,579.4868,27.3809z"/>
	<path fill="#00A551" d="M589.9717,34.2505c-1.6357,0-2.6553-0.7197-2.6104-2.46h1.3955c0,0.4351,0.0146,1.4551,1.2598,1.4551
		c0.7354,0,1.3057-0.375,1.3057-1.1548c0-1.3501-3.7812-1.3799-3.7812-3.645c0-0.7949,0.4805-2.0698,2.6104-2.0698
		c1.3506,0,2.5049,0.645,2.3994,2.145h-1.3643c0.0146-0.7949-0.4053-1.2153-1.1846-1.2153c-0.6602,0-1.1699,0.3604-1.1699,1.02
		c0,1.335,3.7793,1.3052,3.7793,3.6152C592.6113,33.6055,591.4717,34.2505,589.9717,34.2505z"/>
	<path fill="#00A551" d="M594.5312,26.5259v-1.4551l1.2305-0.5547v2.0098h1.6504v0.9302h-1.6504v4.6348
		c0,0.48,0,1.0947,1.125,1.0947c0.0898,0,0.2852-0.0298,0.5547-0.0601v0.9453c-0.4043,0.0298-0.8096,0.1196-1.2148,0.1196
		c-1.1699,0-1.6953-0.48-1.6953-1.3496v-5.3848h-1.2441v-0.9302H594.5312z"/>
	<path fill="#00A551" d="M602.4668,33.0059h-0.0303c-0.375,0.8696-0.96,1.2446-1.9053,1.2446c-1.6045,0-2.0693-1.0347-2.0693-2.4897
		c0-2.2949,2.25-2.3999,3.9746-2.355c0.0303-1.0049,0.0449-2.1001-1.2744-2.1001c-0.8252,0-1.2598,0.5552-1.1855,1.3501h-1.335
		c0.0596-1.6948,0.96-2.2798,2.5654-2.2798c1.9492,0,2.459,1.0049,2.459,2.2798v3.645c0,0.6001,0.0605,1.2148,0.1504,1.7998h-1.3496
		V33.0059z M599.6914,31.8506c0,0.7349,0.3604,1.395,1.1855,1.395c0.75,0,1.6797-0.4648,1.5596-2.9097
		C601.2666,30.3506,599.6914,30.2456,599.6914,31.8506z"/>
	<path fill="#00A551" d="M606.2012,26.5259v-1.4551l1.2305-0.5547v2.0098h1.6504v0.9302h-1.6504v4.6348
		c0,0.48,0,1.0947,1.125,1.0947c0.0898,0,0.2852-0.0298,0.5547-0.0601v0.9453c-0.4043,0.0298-0.8096,0.1196-1.2148,0.1196
		c-1.1699,0-1.6953-0.48-1.6953-1.3496v-5.3848h-1.2441v-0.9302H606.2012z"/>
	<path fill="#00A551" d="M611.4365,30.7109c0,2.1147,0.5703,2.5347,1.5303,2.5347c0.8398,0,1.2754-0.6748,1.3203-1.4399h1.3496
		c-0.0156,1.6802-1.0508,2.4448-2.6406,2.4448c-1.6045,0-2.8789-0.48-2.8789-3.8247c0-2.2197,0.2539-4.0498,2.8789-4.0498
		c2.1602,0,2.7002,1.1851,2.7002,3.6899v0.645H611.4365z M614.3916,29.7808c0-2.2051-0.6152-2.4751-1.5146-2.4751
		c-0.7803,0-1.4258,0.375-1.4404,2.4751H614.3916z"/>
	<path fill="#00A551" d="M620.8564,30.4258c0-2.2197,0.2549-4.0498,2.8799-4.0498s2.8799,1.8301,2.8799,4.0498
		c0,3.3447-1.2744,3.8247-2.8799,3.8247S620.8564,33.7705,620.8564,30.4258z M625.3262,29.9009c0-2.0698-0.6445-2.52-1.5898-2.52
		s-1.5898,0.4502-1.5898,2.52c0,2.46,0.3145,3.3447,1.5898,3.3447S625.3262,32.3608,625.3262,29.9009z"/>
	<path fill="#00A551" d="M628.791,26.5259v-1.4697c0-1.5303,1.0801-1.8301,2.1758-1.8301c0.2539,0,0.4043,0.0151,0.584,0.0449
		v0.8848c-1.3047-0.0898-1.5293,0.4653-1.5293,1.0801v1.29h1.5293v0.9302h-1.5293v6.6445h-1.2305v-6.6445h-1.1699v-0.9302H628.791z"
		/>
	<path fill="#00A551" d="M531.248,54.2505c-1.6353,0-2.6548-0.7197-2.6099-2.46h1.395c0,0.4351,0.0146,1.4551,1.2598,1.4551
		c0.7349,0,1.3052-0.375,1.3052-1.1548c0-1.3501-3.7803-1.3799-3.7803-3.645c0-0.7949,0.48-2.0698,2.6099-2.0698
		c1.3501,0,2.5054,0.645,2.3999,2.145h-1.3647c0.0151-0.7949-0.4048-1.2153-1.1851-1.2153c-0.6597,0-1.1699,0.3604-1.1699,1.02
		c0,1.335,3.7798,1.3052,3.7798,3.6152C533.8877,53.6055,532.748,54.2505,531.248,54.2505z"/>
	<path fill="#00A551" d="M535.5679,43.271h1.3799v1.3198h-1.3799V43.271z M536.8726,54.1006h-1.23v-7.5747h1.23V54.1006z"/>
	<path fill="#00A551" d="M543.0078,46.5259h1.23v8.3398c0,1.6948-1.125,2.0996-2.79,2.0996c-1.2598,0-2.3999-0.6299-2.2949-2.0249
		h1.3799c0.0151,0.7051,0.48,1.0952,1.1548,1.0952c0.855,0,1.3203-0.5249,1.3203-1.3052v-1.5747h-0.0454
		c-0.3149,0.5996-1.0049,0.9448-1.6646,0.9448c-2.0552,0-2.46-1.77-2.46-4.02c0-3.4795,1.7549-3.7046,2.3696-3.7046
		c0.7949,0,1.4253,0.3447,1.77,1.0801h0.0303V46.5259z M541.5679,47.396c-1.395,0-1.4399,1.6797-1.4399,2.6846
		c0,2.4302,0.5547,3,1.4697,3c1.4849,0,1.4399-1.7549,1.4399-2.8047C543.0376,49.1509,543.1128,47.396,541.5679,47.396z"/>
	<path fill="#00A551" d="M550.6128,54.1006v-5.25c0-0.8096-0.2852-1.4697-1.335-1.4697c-1.3501,0-1.5449,1.1997-1.5449,2.2349
		v4.4849h-1.23v-5.9995c0-0.5254-0.0303-1.0503-0.0752-1.5752h1.3052v0.9751h0.0601c0.48-0.855,1.0498-1.125,2.0249-1.125
		c1.6196,0,2.0249,0.9751,2.0249,2.4746v5.25H550.6128z"/>
	<path fill="#00A551" d="M553.8979,43.271h1.3799v1.3198h-1.3799V43.271z M555.2026,54.1006h-1.23v-7.5747h1.23V54.1006z"/>
	<path fill="#00A551" d="M557.5576,46.5259v-1.4697c0-1.5303,1.0796-1.8301,2.1748-1.8301c0.2549,0,0.4048,0.0151,0.585,0.0449
		v0.8848c-1.3052-0.0898-1.5303,0.4653-1.5303,1.0801v1.29h1.5303v0.9302h-1.5303v6.6445h-1.2295v-6.6445h-1.1704v-0.9302H557.5576z
		 M561.2925,43.271h1.3799v1.3198h-1.3799V43.271z M562.5972,54.1006h-1.23v-7.5747h1.23V54.1006z"/>
	<path fill="#00A551" d="M568.7925,48.9556c0.0298-1.2446-0.5854-1.5747-1.0503-1.5747c-0.9448,0-1.5898,0.4502-1.5898,2.52
		c0,2.46,0.3149,3.3447,1.5898,3.3447c0.2852,0,1.1401-0.2998,1.0952-1.665h1.2896c0.0454,2.1299-1.5449,2.6699-2.3848,2.6699
		c-1.605,0-2.8799-0.48-2.8799-3.8247c0-2.2197,0.2549-4.0498,2.8799-4.0498c1.5151,0,2.3999,0.8848,2.3252,2.5796H568.7925z"/>
	<path fill="#00A551" d="M576.2324,53.0059h-0.0303c-0.375,0.8696-0.96,1.2446-1.9048,1.2446c-1.605,0-2.0698-1.0347-2.0698-2.4897
		c0-2.2949,2.25-2.3999,3.9746-2.355c0.0303-1.0049,0.0449-2.1001-1.2749-2.1001c-0.8247,0-1.2598,0.5552-1.1851,1.3501h-1.335
		c0.0601-1.6948,0.96-2.2798,2.5649-2.2798c1.9502,0,2.46,1.0049,2.46,2.2798v3.645c0,0.6001,0.0601,1.2148,0.1499,1.7998h-1.3496
		V53.0059z M573.4575,51.8506c0,0.7349,0.3599,1.395,1.1846,1.395c0.75,0,1.6802-0.4648,1.5601-2.9097
		C575.0322,50.3506,573.4575,50.2456,573.4575,51.8506z"/>
	<path fill="#00A551" d="M583.9424,54.1006v-5.25c0-0.8096-0.2852-1.4697-1.335-1.4697c-1.3501,0-1.5449,1.1997-1.5449,2.2349
		v4.4849h-1.23v-5.9995c0-0.5254-0.0303-1.0503-0.0752-1.5752h1.3052v0.9751h0.0601c0.48-0.855,1.0498-1.125,2.0249-1.125
		c1.6196,0,2.0249,0.9751,2.0249,2.4746v5.25H583.9424z"/>
	<path fill="#00A551" d="M587.4668,46.5259v-1.4551l1.2305-0.5547v2.0098h1.6504v0.9302h-1.6504v4.6348
		c0,0.48,0,1.0947,1.125,1.0947c0.0898,0,0.2852-0.0298,0.5547-0.0601v0.9453c-0.4043,0.0298-0.8096,0.1196-1.2148,0.1196
		c-1.1699,0-1.6953-0.48-1.6953-1.3496v-5.3848h-1.2441v-0.9302H587.4668z"/>
	<path fill="#00A551" d="M593.9629,46.5259h1.3789l1.6953,6.4199h0.0303l1.8301-6.4199h1.29l-2.3701,7.5747h-1.6045
		L593.9629,46.5259z"/>
	<path fill="#00A551" d="M605.3926,53.0059h-0.0312c-0.375,0.8696-0.959,1.2446-1.9043,1.2446
		c-1.6055,0-2.0703-1.0347-2.0703-2.4897c0-2.2949,2.25-2.3999,3.9746-2.355c0.0312-1.0049,0.0449-2.1001-1.2744-2.1001
		c-0.8252,0-1.2598,0.5552-1.1846,1.3501h-1.3359c0.0605-1.6948,0.9609-2.2798,2.5654-2.2798c1.9502,0,2.46,1.0049,2.46,2.2798
		v3.645c0,0.6001,0.0605,1.2148,0.1504,1.7998h-1.3496V53.0059z M602.6172,51.8506c0,0.7349,0.3594,1.395,1.1846,1.395
		c0.75,0,1.6807-0.4648,1.5596-2.9097C604.1914,50.3506,602.6172,50.2456,602.6172,51.8506z"/>
	<path fill="#00A551" d="M610.2676,47.666h0.0293c0.5098-1.1553,1.1406-1.29,2.3398-1.29v1.2749
		c-0.1055-0.0151-0.2246-0.0303-0.3301-0.0449c-0.1045-0.0151-0.209-0.0303-0.3301-0.0303c-1.3652,0-1.709,1.0352-1.709,2.0552
		v4.4697h-1.2305v-7.5747h1.2305V47.666z"/>
	<path fill="#00A551" d="M613.8818,43.271h1.3799v1.3198h-1.3799V43.271z M615.1865,54.1006h-1.2295v-7.5747h1.2295V54.1006z"/>
	<path fill="#00A551" d="M621.2168,53.0059h-0.0303c-0.375,0.8696-0.96,1.2446-1.9053,1.2446c-1.6045,0-2.0693-1.0347-2.0693-2.4897
		c0-2.2949,2.25-2.3999,3.9746-2.355c0.0303-1.0049,0.0449-2.1001-1.2744-2.1001c-0.8252,0-1.2598,0.5552-1.1855,1.3501h-1.335
		c0.0596-1.6948,0.96-2.2798,2.5654-2.2798c1.9492,0,2.459,1.0049,2.459,2.2798v3.645c0,0.6001,0.0605,1.2148,0.1504,1.7998h-1.3496
		V53.0059z M618.4414,51.8506c0,0.7349,0.3604,1.395,1.1855,1.395c0.75,0,1.6797-0.4648,1.5596-2.9097
		C620.0166,50.3506,618.4414,50.2456,618.4414,51.8506z"/>
	<path fill="#00A551" d="M626.1523,54.1006h-1.2305V43.271h1.2305v4.02h0.0449c0.4199-0.6001,0.9443-0.915,1.6641-0.915
		c2.4453,0,2.5059,2.1748,2.5059,4.0649c0,3.3296-1.2305,3.8096-2.4453,3.8096c-0.7949,0-1.3203-0.3447-1.7402-1.0498h-0.0293
		V54.1006z M627.5312,53.2456c1.5449,0,1.5449-1.6499,1.5449-2.79c0-2.0249-0.1797-3.0747-1.5-3.0747
		c-1.3643,0-1.4238,1.6201-1.4238,2.625C626.1523,51.1606,626.0166,53.2456,627.5312,53.2456z"/>
	<path fill="#00A551" d="M633.5166,54.1006h-1.2295V43.271h1.2295V54.1006z"/>
	<path fill="#00A551" d="M636.8457,50.7109c0,2.1147,0.5703,2.5347,1.5312,2.5347c0.8398,0,1.2744-0.6748,1.3193-1.4399h1.3506
		c-0.0156,1.6802-1.0508,2.4448-2.6406,2.4448c-1.6055,0-2.8799-0.48-2.8799-3.8247c0-2.2197,0.2549-4.0498,2.8799-4.0498
		c2.1602,0,2.6992,1.1851,2.6992,3.6899v0.645H636.8457z M639.8008,49.7808c0-2.2051-0.6152-2.4751-1.5146-2.4751
		c-0.7803,0-1.4248,0.375-1.4404,2.4751H639.8008z"/>
</g>
</svg>
