<?xml version="1.0" encoding="utf-8"?>
<!-- Generator: Adobe Illustrator 16.0.0, SVG Export Plug-In . SVG Version: 6.00 Build 0)  -->
<!DOCTYPE svg PUBLIC "-//W3C//DTD SVG 1.1//EN" "http://www.w3.org/Graphics/SVG/1.1/DTD/svg11.dtd">
<svg version="1.1" id="Layer_1" xmlns="http://www.w3.org/2000/svg" xmlns:xlink="http://www.w3.org/1999/xlink" x="0px" y="0px"
	 width="1170px" height="465px" viewBox="0 0 1170 465" enable-background="new 0 0 1170 465" xml:space="preserve">
<rect x="365" y="65" opacity="0.1" fill="#00ADEF" width="440" height="170"/>
<g>
	<g>
		<path fill="none" stroke="#00ADEF" stroke-width="1.23" stroke-linejoin="round" d="M656.334,290H894c3.2998,0,6-2.7002,6-6V126
			c0-3.2998-2.7002-6-6-6h-59"/>
		<g>
			<polygon fill="#00ADEF" points="660.4092,295.0303 661.248,294.1299 656.8057,290.001 661.248,285.8716 660.4092,284.9707 
				655,290.001 			"/>
		</g>
	</g>
</g>
<g>
	<g>
		<path fill="#00ADEF" d="M376.3052,225v-10.8296h1.3799v4.6797h3.7944v-4.6797h1.3804V225h-1.3804v-4.9497h-3.7944V225H376.3052z"
			/>
		<path fill="#00ADEF" d="M389.145,225h-1.6499l-3.1353-10.8296h1.5l2.4751,9.5244h0.0298l2.5352-9.5244h1.4097L389.145,225z"/>
		<path fill="#00ADEF" d="M395.6099,214.1704h1.7549L400.8896,225h-1.5449l-0.7798-2.5801h-4.1851L393.5703,225h-1.395
			L395.6099,214.1704z M396.4502,215.4453h-0.0303l-1.6948,5.7749h3.4648L396.4502,215.4453z"/>
		<path fill="#00ADEF" d="M407.0996,217.1553c0.0146-0.6147-0.0303-1.23-0.3149-1.5747c-0.2852-0.3452-0.9302-0.4653-1.2153-0.4653
			c-1.1396,0-1.5898,0.6899-1.6348,0.8403c-0.0449,0.1196-0.3149,0.3896-0.3149,2.2495v2.895c0,2.6548,0.8701,2.9697,1.9351,2.9697
			c0.4199,0,1.6948-0.1499,1.71-2.2646h1.4248c0.0601,3.4199-2.355,3.4199-3.0601,3.4199c-1.3496,0-3.4199-0.0903-3.4199-4.29
			v-3.0596c0-3.0601,1.3501-3.9302,3.48-3.9302c2.145,0,2.9702,1.1099,2.835,3.21H407.0996z"/>
		<path fill="#00ADEF" d="M416.0996,225.1499c-1.6348,0-2.6548-0.7197-2.6099-2.46h1.395c0,0.4351,0.0146,1.4551,1.2598,1.4551
			c0.7349,0,1.3052-0.375,1.3052-1.1548c0-1.3501-3.7803-1.3799-3.7803-3.645c0-0.7949,0.48-2.0698,2.6099-2.0698
			c1.3501,0,2.5049,0.645,2.3999,2.145h-1.3647c0.0151-0.7949-0.4048-1.2153-1.1851-1.2153c-0.6597,0-1.1699,0.3604-1.1699,1.02
			c0,1.335,3.7798,1.3052,3.7798,3.6147C418.7393,224.5049,417.5996,225.1499,416.0996,225.1499z"/>
		<path fill="#00ADEF" d="M422.8042,223.5898h0.0298l1.8149-6.1646h1.335l-3.4346,10.4395h-1.2749l0.855-2.8647l-2.5649-7.5747
			h1.4248L422.8042,223.5898z"/>
		<path fill="#00ADEF" d="M429.4194,225.1499c-1.6353,0-2.6548-0.7197-2.6099-2.46h1.395c0,0.4351,0.0146,1.4551,1.2598,1.4551
			c0.7349,0,1.3052-0.375,1.3052-1.1548c0-1.3501-3.7803-1.3799-3.7803-3.645c0-0.7949,0.48-2.0698,2.6099-2.0698
			c1.3501,0,2.5054,0.645,2.3999,2.145h-1.3647c0.0151-0.7949-0.4048-1.2153-1.1851-1.2153c-0.6597,0-1.1699,0.3604-1.1699,1.02
			c0,1.335,3.7798,1.3052,3.7798,3.6147C432.0591,224.5049,430.9194,225.1499,429.4194,225.1499z"/>
		<path fill="#00ADEF" d="M433.979,217.4253v-1.4551l1.23-0.5547v2.0098h1.6499v0.9302h-1.6499v4.6348c0,0.48,0,1.0947,1.125,1.0947
			c0.0898,0,0.2852-0.0298,0.5552-0.0601v0.9453c-0.4053,0.0298-0.8101,0.1196-1.2153,0.1196c-1.1699,0-1.6948-0.48-1.6948-1.3496
			v-5.3848h-1.2446v-0.9302H433.979z"/>
		<path fill="#00ADEF" d="M439.2139,221.6104c0,2.1147,0.5703,2.5347,1.5303,2.5347c0.8398,0,1.2744-0.6748,1.3193-1.4399h1.3506
			c-0.0156,1.6802-1.0498,2.4448-2.6406,2.4448c-1.6045,0-2.8794-0.48-2.8794-3.8247c0-2.2197,0.2549-4.0498,2.8794-4.0498
			c2.1602,0,2.7002,1.1851,2.7002,3.6899v0.645H439.2139z M442.1689,220.6802c0-2.2051-0.6152-2.4751-1.5146-2.4751
			c-0.7803,0-1.4258,0.375-1.4404,2.4751H442.1689z"/>
		<path fill="#00ADEF" d="M449.2334,225v-5.25c0-0.7646-0.21-1.4697-1.2002-1.4697c-0.375,0-0.8848,0.2251-1.0645,0.5098
			c-0.2256,0.375-0.2852,0.8252-0.2852,1.1104V225h-1.2305v-6c0-0.5249-0.0293-1.0498-0.0742-1.5747h1.3047v0.9448h0.0303
			c0.3594-0.8096,1.0049-1.0947,1.8896-1.0947c0.6895,0,1.4844,0.2852,1.7695,0.9751c0.4199-0.8101,1.1104-0.9751,1.7998-0.9751
			c0.7949,0,2.0703,0.1797,2.0703,1.9648V225h-1.2295v-5.25c0-0.7646-0.21-1.4697-1.2002-1.4697
			c-0.4648,0-0.6006,0.0151-0.9297,0.2852c-0.3604,0.2998-0.4209,1.0498-0.4209,1.335V225H449.2334z"/>
	</g>
</g>
<g>
	<g>
		<path fill="#231F20" d="M545.415,118.6855c0-2.8652,0-5.5952,3.7349-5.5952c2.3101,0,3.2397,1.2754,3.1499,3.6001h-2.2197
			c0-1.4399-0.2549-1.98-0.9302-1.98c-1.2749,0-1.4399,1.2002-1.4399,3.9751c0,2.7744,0.165,3.9746,1.4399,3.9746
			c1.0503,0,1.0049-1.3501,1.0352-2.2051h2.2349c0,2.895-1.1548,3.8252-3.27,3.8252
			C545.415,124.2803,545.415,121.52,545.415,118.6855z"/>
		<path fill="#231F20" d="M553.5752,120.2153c0-2.0698,0.2998-3.8398,3.0898-3.8398c2.7896,0,3.0898,1.77,3.0898,3.8398
			c0,2.3696-0.3604,4.0347-3.0898,4.0347C553.9351,124.25,553.5752,122.585,553.5752,120.2153z M557.6396,120.0952
			c0-1.5747-0.0747-2.3696-0.9746-2.3696s-0.9751,0.7949-0.9751,2.3696c0,2.3101,0.1948,2.8052,0.9751,2.8052
			C557.4448,122.9004,557.6396,122.4053,557.6396,120.0952z"/>
		<path fill="#231F20" d="M563.3701,117.2905h0.0298c0.21-0.3452,0.4648-0.5703,0.75-0.7051c0.2998-0.1499,0.645-0.21,1.0352-0.21
			c1.0049,0,1.8896,0.6001,1.8896,1.6499v6.0747H564.96v-5.2197c0-0.6748-0.1201-1.2002-0.7949-1.2002
			c-0.6753,0-0.7949,0.5254-0.7949,1.2002v5.2197h-2.1152v-7.5747h2.1152V117.2905z"/>
		<path fill="#231F20" d="M567.8999,116.5254h0.855v-1.1997l2.1152-0.9453v2.145h1.0947v1.3052h-1.0947v4.0498
			c0,0.5698-0.0151,0.9448,0.6748,0.9448c0.1348,0,0.27,0,0.375-0.0303v1.3052c-0.2852,0.0298-0.585,0.0752-1.0952,0.0752
			c-1.8296,0-2.0698-1.2153-2.0698-1.6802v-4.6646h-0.855V116.5254z"/>
		<path fill="#231F20" d="M578.6699,122.6899c0,0.4653,0.0596,0.9453,0.105,1.4102h-1.9653l-0.0898-1.0049h-0.0298
			c-0.4502,0.7798-1.0649,1.1548-1.98,1.1548c-1.4702,0-2.0103-1.0947-2.0103-2.415c0-2.5049,1.9351-2.6099,3.8999-2.5796v-0.585
			c0-0.645-0.0898-1.1099-0.855-1.1099c-0.7349,0-0.7949,0.5547-0.7949,1.1548h-2.0698c0-0.915,0.2852-1.5,0.7798-1.8447
			c0.48-0.3604,1.1704-0.4951,1.98-0.4951c2.6851,0,3.0303,1.1548,3.0303,2.5347V122.6899z M574.77,121.7451
			c0,0.54,0.0898,1.2002,0.7798,1.2002c1.2451,0,1.0498-1.6802,1.0498-2.5049C575.5498,120.4854,574.77,120.395,574.77,121.7451z"/>
		<path fill="#231F20" d="M584.2798,119.2251c0-1.1245-0.2852-1.4995-0.9448-1.4995c-0.8999,0-0.9751,0.7949-0.9751,2.3696
			c0,2.3101,0.1948,2.8052,0.9751,2.8052c0.6597,0,0.9746-0.6001,0.9746-1.5903h2.1152c0,2.0552-1.1099,2.9399-3.0898,2.9399
			c-2.73,0-3.0898-1.665-3.0898-4.0347c0-2.0698,0.2998-3.8398,3.0898-3.8398c1.9497,0,3.0596,0.8701,3.0596,2.8496H584.2798z"/>
		<path fill="#231F20" d="M587.0703,116.5254h0.8545v-1.1997l2.1152-0.9453v2.145h1.0947v1.3052H590.04v4.0498
			c0,0.5698-0.0146,0.9448,0.6748,0.9448c0.1348,0,0.2695,0,0.375-0.0303v1.3052c-0.2852,0.0298-0.585,0.0752-1.0957,0.0752
			c-1.8291,0-2.0693-1.2153-2.0693-1.6802v-4.6646h-0.8545V116.5254z"/>
		<path fill="#231F20" d="M597.4355,116.5254v0.8398h0.0293c0.3906-0.7349,0.9746-0.9897,1.7852-0.9897
			c2.1895,0,2.1152,2.4297,2.1152,3.9897c0,1.5298,0.0596,3.8848-2.0703,3.8848c-0.7656,0-1.29-0.2251-1.7246-0.8701H597.54v3.9751
			h-2.1152v-10.8296H597.4355z M599.2949,120.2451c0-1.5146,0.0146-2.5649-0.9004-2.5649c-0.8691,0-0.8545,1.0503-0.8545,2.5649
			c0,1.9053,0.1348,2.7002,0.8545,2.7002C599.1602,122.9453,599.2949,122.1504,599.2949,120.2451z"/>
		<path fill="#231F20" d="M602.7451,120.2153c0-2.0698,0.2998-3.8398,3.0898-3.8398s3.0898,1.77,3.0898,3.8398
			c0,2.3696-0.3604,4.0347-3.0898,4.0347S602.7451,122.585,602.7451,120.2153z M606.8096,120.0952
			c0-1.5747-0.0752-2.3696-0.9746-2.3696s-0.9756,0.7949-0.9756,2.3696c0,2.3101,0.1953,2.8052,0.9756,2.8052
			S606.8096,122.4053,606.8096,120.0952z"/>
		<path fill="#231F20" d="M612.7197,113.2705v1.665h-2.1143v-1.665H612.7197z M612.7197,124.1001h-2.1143v-7.5747h2.1143V124.1001z"
			/>
		<path fill="#231F20" d="M616.71,117.2905h0.0303c0.209-0.3452,0.4648-0.5703,0.75-0.7051c0.2988-0.1499,0.6445-0.21,1.0352-0.21
			c1.0039,0,1.8887,0.6001,1.8887,1.6499v6.0747h-2.1143v-5.2197c0-0.6748-0.1201-1.2002-0.7949-1.2002
			s-0.7949,0.5254-0.7949,1.2002v5.2197h-2.1152v-7.5747h2.1152V117.2905z"/>
		<path fill="#231F20" d="M621.2402,116.5254h0.8545v-1.1997l2.1152-0.9453v2.145h1.0947v1.3052H624.21v4.0498
			c0,0.5698-0.0146,0.9448,0.6748,0.9448c0.1348,0,0.2695,0,0.375-0.0303v1.3052c-0.2852,0.0298-0.585,0.0752-1.0957,0.0752
			c-1.8291,0-2.0693-1.2153-2.0693-1.6802v-4.6646h-0.8545V116.5254z"/>
		<path fill="#231F20" d="M539.6782,133.2705h1.23v10.8296h-1.23v-0.8999h-0.0303c-0.4199,0.7051-0.9448,1.0498-1.7397,1.0498
			c-1.2148,0-2.4448-0.48-2.4448-3.8096c0-1.8901,0.0601-4.0649,2.5049-4.0649c0.7197,0,1.2446,0.3149,1.6646,0.915h0.0454V133.2705
			z M538.2529,137.3804c-1.3198,0-1.5,1.0498-1.5,3.0747c0,1.1401,0,2.79,1.5454,2.79c1.3799,0,1.3799-1.71,1.3799-3.2397
			C539.6782,139.0005,539.6182,137.3804,538.2529,137.3804z"/>
		<path fill="#231F20" d="M544.373,140.7104c0,2.1147,0.5703,2.5347,1.5303,2.5347c0.8398,0,1.2749-0.6748,1.3198-1.4399h1.3501
			c-0.0151,1.6802-1.0503,2.4448-2.6401,2.4448c-1.605,0-2.8799-0.48-2.8799-3.8247c0-2.2197,0.2549-4.0498,2.8799-4.0498
			c2.1597,0,2.6997,1.1851,2.6997,3.6899v0.645H544.373z M547.3281,139.7803c0-2.2051-0.6152-2.4751-1.5151-2.4751
			c-0.7798,0-1.4248,0.375-1.4399,2.4751H547.3281z"/>
		<path fill="#231F20" d="M550.8081,136.5254v-1.4551l1.23-0.5547v2.0098h1.6499v0.9302h-1.6499v4.6348
			c0,0.48,0,1.0947,1.125,1.0947c0.0898,0,0.2852-0.0298,0.5552-0.0601v0.9453c-0.4053,0.0298-0.8101,0.1196-1.2153,0.1196
			c-1.1699,0-1.6948-0.48-1.6948-1.3496v-5.3848h-1.2446v-0.9302H550.8081z"/>
		<path fill="#231F20" d="M556.043,140.7104c0,2.1147,0.5703,2.5347,1.5303,2.5347c0.8398,0,1.2749-0.6748,1.3198-1.4399h1.3501
			c-0.0151,1.6802-1.0503,2.4448-2.6401,2.4448c-1.605,0-2.8799-0.48-2.8799-3.8247c0-2.2197,0.2549-4.0498,2.8799-4.0498
			c2.1597,0,2.6997,1.1851,2.6997,3.6899v0.645H556.043z M558.998,139.7803c0-2.2051-0.6152-2.4751-1.5151-2.4751
			c-0.7798,0-1.4248,0.375-1.4399,2.4751H558.998z"/>
		<path fill="#231F20" d="M563.6182,137.6655h0.0298c0.5103-1.1553,1.1401-1.29,2.3398-1.29v1.2749
			c-0.105-0.0151-0.2246-0.0303-0.3296-0.0449c-0.105-0.0151-0.21-0.0303-0.3301-0.0303c-1.3652,0-1.71,1.0352-1.71,2.0552v4.4697
			h-1.23v-7.5747h1.23V137.6655z"/>
		<path fill="#231F20" d="M571.0581,144.1001v-5.25c0-0.7646-0.21-1.4697-1.1997-1.4697c-0.375,0-0.8853,0.2251-1.0654,0.5098
			c-0.2246,0.375-0.2847,0.8252-0.2847,1.1104v5.0996h-1.23v-5.9995c0-0.5254-0.0303-1.0503-0.0752-1.5752h1.3052v0.9448h0.0298
			c0.3604-0.8101,1.0049-1.0947,1.8901-1.0947c0.6899,0,1.4849,0.2847,1.77,0.9751c0.4199-0.8101,1.1099-0.9751,1.7998-0.9751
			c0.7949,0,2.0698,0.1797,2.0698,1.9648v5.7598h-1.23v-5.25c0-0.7646-0.21-1.4697-1.1997-1.4697
			c-0.4653,0-0.6001,0.0151-0.9302,0.2852c-0.3599,0.2998-0.4199,1.0498-0.4199,1.335v5.0996H571.0581z"/>
		<path fill="#231F20" d="M578.063,133.2705h1.3799v1.3198h-1.3799V133.2705z M579.3677,144.1001h-1.23v-7.5747h1.23V144.1001z"/>
		<path fill="#231F20" d="M585.6074,144.1001v-5.25c0-0.8096-0.2852-1.4697-1.335-1.4697c-1.3501,0-1.5449,1.1997-1.5449,2.2349
			v4.4849h-1.23v-5.9995c0-0.5254-0.0303-1.0503-0.0752-1.5752h1.3052v0.9751h0.0601c0.48-0.855,1.0498-1.125,2.0249-1.125
			c1.6191,0,2.0254,0.9751,2.0254,2.4746v5.25H585.6074z"/>
		<path fill="#231F20" d="M590.1973,140.7104c0,2.1147,0.5703,2.5347,1.5303,2.5347c0.8398,0,1.2744-0.6748,1.3193-1.4399h1.3506
			c-0.0146,1.6802-1.0498,2.4448-2.6396,2.4448c-1.6055,0-2.8809-0.48-2.8809-3.8247c0-2.2197,0.2559-4.0498,2.8809-4.0498
			c2.1592,0,2.6992,1.1851,2.6992,3.6899v0.645H590.1973z M593.1523,139.7803c0-2.2051-0.6152-2.4751-1.5156-2.4751
			c-0.7793,0-1.4238,0.375-1.4395,2.4751H593.1523z"/>
		<path fill="#231F20" d="M598.7324,144.25c-1.6348,0-2.6543-0.7197-2.6094-2.46h1.3945c0,0.4351,0.0146,1.4551,1.2598,1.4551
			c0.7344,0,1.3047-0.375,1.3047-1.1548c0-1.3501-3.7793-1.3799-3.7793-3.645c0-0.7949,0.4795-2.0698,2.6094-2.0698
			c1.3496,0,2.5049,0.645,2.4004,2.145h-1.3652c0.0156-0.7949-0.4043-1.2153-1.1855-1.2153c-0.6592,0-1.1699,0.3604-1.1699,1.02
			c0,1.335,3.7803,1.3052,3.7803,3.6152C601.3721,143.605,600.2324,144.25,598.7324,144.25z"/>
		<path fill="#231F20" d="M610.4922,133.2705h1.2305v10.8296h-1.2305v-0.8999h-0.0303c-0.4199,0.7051-0.9443,1.0498-1.7393,1.0498
			c-1.2148,0-2.4453-0.48-2.4453-3.8096c0-1.8901,0.0605-4.0649,2.5049-4.0649c0.7197,0,1.2451,0.3149,1.665,0.915h0.0449V133.2705z
			 M609.0664,137.3804c-1.3193,0-1.499,1.0498-1.499,3.0747c0,1.1401,0,2.79,1.5449,2.79c1.3799,0,1.3799-1.71,1.3799-3.2397
			C610.4922,139.0005,610.4316,137.3804,609.0664,137.3804z"/>
		<path fill="#231F20" d="M615.1875,140.7104c0,2.1147,0.5703,2.5347,1.5293,2.5347c0.8398,0,1.2754-0.6748,1.3203-1.4399h1.3496
			c-0.0146,1.6802-1.0498,2.4448-2.6396,2.4448c-1.6045,0-2.8799-0.48-2.8799-3.8247c0-2.2197,0.2549-4.0498,2.8799-4.0498
			c2.1602,0,2.7002,1.1851,2.7002,3.6899v0.645H615.1875z M618.1426,139.7803c0-2.2051-0.6152-2.4751-1.5156-2.4751
			c-0.7793,0-1.4248,0.375-1.4395,2.4751H618.1426z"/>
		<path fill="#231F20" d="M622.6875,144.1001h-1.2305v-10.8296h1.2305V144.1001z"/>
		<path fill="#231F20" d="M624.9512,136.5254v-1.4551l1.2305-0.5547v2.0098h1.6504v0.9302h-1.6504v4.6348
			c0,0.48,0,1.0947,1.125,1.0947c0.0898,0,0.2852-0.0298,0.5547-0.0601v0.9453c-0.4043,0.0298-0.8096,0.1196-1.2148,0.1196
			c-1.1699,0-1.6953-0.48-1.6953-1.3496v-5.3848h-1.2441v-0.9302H624.9512z"/>
		<path fill="#231F20" d="M632.8867,143.0054h-0.0293c-0.375,0.8696-0.9609,1.2446-1.9053,1.2446
			c-1.6045,0-2.0693-1.0347-2.0693-2.4897c0-2.2949,2.25-2.3999,3.9746-2.355c0.0293-1.0049,0.0449-2.1001-1.2754-2.1001
			c-0.8242,0-1.2598,0.5552-1.1855,1.3501h-1.334c0.0596-1.6948,0.959-2.2798,2.5645-2.2798c1.9502,0,2.46,1.0049,2.46,2.2798v3.645
			c0,0.6001,0.0596,1.2148,0.1494,1.7998h-1.3496V143.0054z M630.1123,141.8501c0,0.7349,0.3604,1.395,1.1846,1.395
			c0.75,0,1.6797-0.4648,1.5605-2.9097C631.6875,140.3501,630.1123,140.2451,630.1123,141.8501z"/>
		<path fill="#231F20" d="M524.5054,164.1001h-1.23v-10.8296h1.23v4.02h0.0449c0.4199-0.6001,0.9448-0.915,1.665-0.915
			c2.4448,0,2.5049,2.1748,2.5049,4.0649c0,3.3296-1.23,3.8096-2.4448,3.8096c-0.7954,0-1.3203-0.3447-1.7402-1.0498h-0.0298
			V164.1001z M525.8853,163.2451c1.5449,0,1.5449-1.6499,1.5449-2.79c0-2.0249-0.1802-3.0747-1.5-3.0747
			c-1.3647,0-1.4248,1.6201-1.4248,2.625C524.5054,161.1602,524.3701,163.2451,525.8853,163.2451z"/>
		<path fill="#231F20" d="M531.8701,160.7104c0,2.1147,0.5703,2.5347,1.5303,2.5347c0.8398,0,1.2749-0.6748,1.3198-1.4399h1.3501
			c-0.0151,1.6802-1.0503,2.4448-2.6401,2.4448c-1.605,0-2.8799-0.48-2.8799-3.8247c0-2.2197,0.2549-4.0498,2.8799-4.0498
			c2.1597,0,2.6997,1.1851,2.6997,3.6899v0.645H531.8701z M534.8252,159.7803c0-2.2051-0.6152-2.4751-1.5151-2.4751
			c-0.7798,0-1.4248,0.375-1.4399,2.4751H534.8252z"/>
		<path fill="#231F20" d="M538.3052,156.5254v-1.4551l1.23-0.5547v2.0098h1.6499v0.9302h-1.6499v4.6348
			c0,0.48,0,1.0947,1.125,1.0947c0.0898,0,0.2852-0.0298,0.5552-0.0601v0.9453c-0.4053,0.0298-0.8101,0.1196-1.2153,0.1196
			c-1.1699,0-1.6948-0.48-1.6948-1.3496v-5.3848h-1.2446v-0.9302H538.3052z"/>
		<path fill="#231F20" d="M541.395,156.5254h1.3652l1.3647,6.5249h0.0303l1.6797-6.5249h1.7402l1.5449,6.5249h0.0298l1.5-6.5249
			h1.3047l-2.0249,7.5747h-1.6499l-1.6196-6.4497h-0.0303l-1.6948,6.4497h-1.6499L541.395,156.5254z"/>
		<path fill="#231F20" d="M554.3701,160.7104c0,2.1147,0.5703,2.5347,1.5303,2.5347c0.8398,0,1.2749-0.6748,1.3198-1.4399h1.3501
			c-0.0151,1.6802-1.0503,2.4448-2.6401,2.4448c-1.605,0-2.8799-0.48-2.8799-3.8247c0-2.2197,0.2549-4.0498,2.8799-4.0498
			c2.1597,0,2.6997,1.1851,2.6997,3.6899v0.645H554.3701z M557.3252,159.7803c0-2.2051-0.6152-2.4751-1.5151-2.4751
			c-0.7798,0-1.4248,0.375-1.4399,2.4751H557.3252z"/>
		<path fill="#231F20" d="M561.8701,160.7104c0,2.1147,0.5703,2.5347,1.5303,2.5347c0.8398,0,1.2749-0.6748,1.3198-1.4399h1.3501
			c-0.0151,1.6802-1.0503,2.4448-2.6401,2.4448c-1.605,0-2.8799-0.48-2.8799-3.8247c0-2.2197,0.2549-4.0498,2.8799-4.0498
			c2.1597,0,2.6997,1.1851,2.6997,3.6899v0.645H561.8701z M564.8252,159.7803c0-2.2051-0.6152-2.4751-1.5151-2.4751
			c-0.7798,0-1.4248,0.375-1.4399,2.4751H564.8252z"/>
		<path fill="#231F20" d="M572.2803,164.1001v-5.25c0-0.8096-0.2852-1.4697-1.335-1.4697c-1.3501,0-1.5449,1.1997-1.5449,2.2349
			v4.4849h-1.23v-5.9995c0-0.5254-0.0303-1.0503-0.0752-1.5752h1.3052v0.9751h0.0601c0.48-0.855,1.0498-1.125,2.0249-1.125
			c1.6196,0,2.0249,0.9751,2.0249,2.4746v5.25H572.2803z"/>
		<path fill="#231F20" d="M582.96,158.9551c0.0298-1.2446-0.5854-1.5747-1.0503-1.5747c-0.9448,0-1.5898,0.4502-1.5898,2.52
			c0,2.46,0.3149,3.3447,1.5898,3.3447c0.2852,0,1.1401-0.2998,1.0952-1.665h1.2896c0.0454,2.1299-1.5449,2.6699-2.3848,2.6699
			c-1.605,0-2.8799-0.48-2.8799-3.8247c0-2.2197,0.2549-4.0498,2.8799-4.0498c1.5151,0,2.3999,0.8848,2.3252,2.5796H582.96z"/>
		<path fill="#231F20" d="M590.5498,156.5254h1.2295v6c0,0.5249,0.0303,1.0498,0.0752,1.5747h-1.3047v-0.915h-0.0449
			c-0.4053,0.6899-1.125,1.0649-1.9199,1.0649c-1.3203,0-2.04-0.6597-2.04-1.9497v-5.7749h1.2305v5.25
			c0,0.9146,0.4199,1.5298,1.2891,1.5298c0.6602,0,1.4854-0.4951,1.4854-1.7549V156.5254z"/>
		<path fill="#231F20" d="M595.2754,157.6655h0.0293c0.5098-1.1553,1.1406-1.29,2.3398-1.29v1.2749
			c-0.1055-0.0151-0.2246-0.0303-0.3301-0.0449c-0.1045-0.0151-0.209-0.0303-0.3301-0.0303c-1.3652,0-1.709,1.0352-1.709,2.0552
			v4.4697h-1.2305v-7.5747h1.2305V157.6655z"/>
		<path fill="#231F20" d="M600.2695,157.6655h0.0293c0.5107-1.1553,1.1406-1.29,2.3398-1.29v1.2749
			c-0.1045-0.0151-0.2246-0.0303-0.3291-0.0449c-0.1045-0.0151-0.21-0.0303-0.3301-0.0303c-1.3652,0-1.71,1.0352-1.71,2.0552v4.4697
			h-1.2305v-7.5747h1.2305V157.6655z"/>
		<path fill="#231F20" d="M605.1895,160.7104c0,2.1147,0.5703,2.5347,1.5303,2.5347c0.8398,0,1.2744-0.6748,1.3193-1.4399h1.3506
			c-0.0146,1.6802-1.0498,2.4448-2.6396,2.4448c-1.6055,0-2.8809-0.48-2.8809-3.8247c0-2.2197,0.2559-4.0498,2.8809-4.0498
			c2.1592,0,2.6992,1.1851,2.6992,3.6899v0.645H605.1895z M608.1445,159.7803c0-2.2051-0.6152-2.4751-1.5156-2.4751
			c-0.7793,0-1.4238,0.375-1.4395,2.4751H608.1445z"/>
		<path fill="#231F20" d="M615.5996,164.1001v-5.25c0-0.8096-0.2852-1.4697-1.335-1.4697c-1.3506,0-1.5449,1.1997-1.5449,2.2349
			v4.4849h-1.2295v-5.9995c0-0.5254-0.0312-1.0503-0.0762-1.5752h1.3057v0.9751h0.0596c0.4805-0.855,1.0508-1.125,2.0254-1.125
			c1.6191,0,2.0254,0.9751,2.0254,2.4746v5.25H615.5996z"/>
		<path fill="#231F20" d="M619.125,156.5254v-1.4551l1.2295-0.5547v2.0098h1.6494v0.9302h-1.6494v4.6348
			c0,0.48,0,1.0947,1.125,1.0947c0.0898,0,0.2852-0.0298,0.5557-0.0601v0.9453c-0.4062,0.0298-0.8105,0.1196-1.2158,0.1196
			c-1.1699,0-1.6943-0.48-1.6943-1.3496v-5.3848h-1.2451v-0.9302H619.125z"/>
		<path fill="#231F20" d="M630.3887,163.0054h-0.0293c-0.375,0.8696-0.9609,1.2446-1.9053,1.2446
			c-1.6045,0-2.0693-1.0347-2.0693-2.4897c0-2.2949,2.25-2.3999,3.9746-2.355c0.0293-1.0049,0.0449-2.1001-1.2754-2.1001
			c-0.8242,0-1.2598,0.5552-1.1855,1.3501h-1.334c0.0596-1.6948,0.959-2.2798,2.5645-2.2798c1.9502,0,2.46,1.0049,2.46,2.2798v3.645
			c0,0.6001,0.0596,1.2148,0.1494,1.7998h-1.3496V163.0054z M627.6143,161.8501c0,0.7349,0.3604,1.395,1.1846,1.395
			c0.75,0,1.6797-0.4648,1.5605-2.9097C629.1895,160.3501,627.6143,160.2451,627.6143,161.8501z"/>
		<path fill="#231F20" d="M638.0996,164.1001v-5.25c0-0.8096-0.2852-1.4697-1.3359-1.4697c-1.3496,0-1.5449,1.1997-1.5449,2.2349
			v4.4849h-1.2295v-5.9995c0-0.5254-0.0303-1.0503-0.0752-1.5752h1.3047v0.9751h0.0605c0.4805-0.855,1.0498-1.125,2.0254-1.125
			c1.6191,0,2.0244,0.9751,2.0244,2.4746v5.25H638.0996z"/>
		<path fill="#231F20" d="M645.4941,153.2705h1.2305v10.8296h-1.2305v-0.8999h-0.0303c-0.4199,0.7051-0.9443,1.0498-1.7393,1.0498
			c-1.2148,0-2.4453-0.48-2.4453-3.8096c0-1.8901,0.0605-4.0649,2.5049-4.0649c0.7197,0,1.2451,0.3149,1.665,0.915h0.0449V153.2705z
			 M644.0684,157.3804c-1.3193,0-1.499,1.0498-1.499,3.0747c0,1.1401,0,2.79,1.5449,2.79c1.3799,0,1.3799-1.71,1.3799-3.2397
			C645.4941,159.0005,645.4336,157.3804,644.0684,157.3804z"/>
		<path fill="#231F20" d="M528.8481,173.27h1.23v10.8296h-1.23v-0.9004h-0.0303c-0.4199,0.7051-0.9448,1.0508-1.7397,1.0508
			c-1.2148,0-2.4448-0.4805-2.4448-3.8105c0-1.8896,0.0601-4.0645,2.5049-4.0645c0.7197,0,1.2446,0.3145,1.6646,0.915h0.0454V173.27
			z M527.4229,177.3799c-1.3198,0-1.5,1.0498-1.5,3.0752c0,1.1396,0,2.79,1.5454,2.79c1.3799,0,1.3799-1.71,1.3799-3.2402
			C528.8481,179,528.7881,177.3799,527.4229,177.3799z"/>
		<path fill="#231F20" d="M533.543,180.71c0,2.1143,0.5703,2.5352,1.5303,2.5352c0.8398,0,1.2749-0.6758,1.3198-1.4404h1.3501
			c-0.0151,1.6797-1.0503,2.4453-2.6401,2.4453c-1.605,0-2.8799-0.4805-2.8799-3.8252c0-2.2197,0.2549-4.0498,2.8799-4.0498
			c2.1597,0,2.6997,1.1846,2.6997,3.6895v0.6455H533.543z M536.498,179.7793c0-2.2041-0.6152-2.4746-1.5151-2.4746
			c-0.7798,0-1.4248,0.375-1.4399,2.4746H536.498z"/>
		<path fill="#231F20" d="M542.0781,184.25c-1.6348,0-2.6548-0.7207-2.6099-2.46h1.395c0,0.4346,0.0146,1.4551,1.2598,1.4551
			c0.7349,0,1.3052-0.375,1.3052-1.1553c0-1.3496-3.7803-1.3799-3.7803-3.6445c0-0.7959,0.48-2.0703,2.6099-2.0703
			c1.3501,0,2.5049,0.6445,2.3999,2.1445h-1.3647c0.0151-0.7949-0.4048-1.2148-1.1851-1.2148c-0.6597,0-1.1699,0.3604-1.1699,1.0205
			c0,1.335,3.7798,1.3047,3.7798,3.6143C544.7178,183.6045,543.5781,184.25,542.0781,184.25z"/>
		<path fill="#231F20" d="M546.3979,173.27h1.3799v1.3198h-1.3799V173.27z M547.7026,184.0996h-1.23v-7.5742h1.23V184.0996z"/>
		<path fill="#231F20" d="M551.1079,177.665h0.0298c0.5103-1.1553,1.1401-1.29,2.3398-1.29v1.2744
			c-0.105-0.0146-0.2246-0.0293-0.3296-0.0449c-0.105-0.0146-0.21-0.0293-0.3301-0.0293c-1.3652,0-1.71,1.0342-1.71,2.0547v4.4697
			h-1.23v-7.5742h1.23V177.665z"/>
		<path fill="#231F20" d="M556.0273,180.71c0,2.1143,0.5703,2.5352,1.5303,2.5352c0.8398,0,1.2749-0.6758,1.3198-1.4404h1.3501
			c-0.0151,1.6797-1.0503,2.4453-2.6401,2.4453c-1.605,0-2.8799-0.4805-2.8799-3.8252c0-2.2197,0.2549-4.0498,2.8799-4.0498
			c2.1597,0,2.6997,1.1846,2.6997,3.6895v0.6455H556.0273z M558.9824,179.7793c0-2.2041-0.6152-2.4746-1.5151-2.4746
			c-0.7798,0-1.4248,0.375-1.4399,2.4746H558.9824z"/>
		<path fill="#231F20" d="M566.3325,173.27h1.23v10.8296h-1.23v-0.9004h-0.0303c-0.4199,0.7051-0.9448,1.0508-1.7397,1.0508
			c-1.2148,0-2.4448-0.4805-2.4448-3.8105c0-1.8896,0.0601-4.0645,2.5049-4.0645c0.7197,0,1.2446,0.3145,1.6646,0.915h0.0454V173.27
			z M564.9072,177.3799c-1.3198,0-1.5,1.0498-1.5,3.0752c0,1.1396,0,2.79,1.5454,2.79c1.3799,0,1.3799-1.71,1.3799-3.2402
			C566.3325,179,566.2725,177.3799,564.9072,177.3799z"/>
		<path fill="#231F20" d="M573.292,176.5254v-1.4551l1.23-0.5557v2.0107h1.6499v0.9297h-1.6499v4.6348
			c0,0.4795,0,1.0947,1.125,1.0947c0.0898,0,0.2852-0.0303,0.5552-0.0596v0.9443c-0.4053,0.0303-0.8101,0.1201-1.2153,0.1201
			c-1.1699,0-1.6948-0.4795-1.6948-1.3496v-5.3848h-1.2446v-0.9297H573.292z"/>
		<path fill="#231F20" d="M578.5273,180.71c0,2.1143,0.5703,2.5352,1.5303,2.5352c0.8398,0,1.2749-0.6758,1.3198-1.4404h1.3501
			c-0.0151,1.6797-1.0503,2.4453-2.6401,2.4453c-1.605,0-2.8799-0.4805-2.8799-3.8252c0-2.2197,0.2549-4.0498,2.8799-4.0498
			c2.1597,0,2.6997,1.1846,2.6997,3.6895v0.6455H578.5273z M581.4824,179.7793c0-2.2041-0.6152-2.4746-1.5151-2.4746
			c-0.7798,0-1.4248,0.375-1.4399,2.4746H581.4824z"/>
		<path fill="#231F20" d="M588.5469,184.0996v-5.25c0-0.7646-0.209-1.4697-1.1992-1.4697c-0.375,0-0.8848,0.2246-1.0654,0.5098
			c-0.2246,0.375-0.2847,0.8252-0.2847,1.1104v5.0996h-1.23v-6c0-0.5244-0.0303-1.0498-0.0752-1.5742h1.3052v0.9443h0.0298
			c0.3604-0.8096,1.0049-1.0947,1.8906-1.0947c0.6895,0,1.4844,0.2852,1.7695,0.9746c0.4199-0.8096,1.1094-0.9746,1.7998-0.9746
			c0.7949,0,2.0693,0.1797,2.0693,1.9648v5.7598h-1.2295v-5.25c0-0.7646-0.21-1.4697-1.2002-1.4697
			c-0.4648,0-0.5996,0.0146-0.9297,0.2852c-0.3594,0.2998-0.4199,1.0498-0.4199,1.335v5.0996H588.5469z"/>
		<path fill="#231F20" d="M596.9922,177.4248h0.0293c0.4199-0.7051,0.9453-1.0498,1.7402-1.0498
			c1.2148,0,2.4453,0.4795,2.4453,3.8096c0,1.8896-0.0605,4.0654-2.5049,4.0654c-0.7197,0-1.2451-0.3154-1.665-0.915h-0.0449v3.6299
			h-1.2305v-10.4395h1.2305V177.4248z M599.917,180.1846c0-1.1396,0-2.8047-1.5449-2.8047c-1.5146,0-1.3799,2.0996-1.3799,3.2549
			c0,1.0049,0.0605,2.6104,1.4248,2.6104C599.7363,183.2451,599.917,182.21,599.917,180.1846z"/>
		<path fill="#231F20" d="M604.3574,180.71c0,2.1143,0.5703,2.5352,1.5293,2.5352c0.8398,0,1.2754-0.6758,1.3203-1.4404h1.3496
			c-0.0146,1.6797-1.0498,2.4453-2.6396,2.4453c-1.6045,0-2.8799-0.4805-2.8799-3.8252c0-2.2197,0.2549-4.0498,2.8799-4.0498
			c2.1602,0,2.7002,1.1846,2.7002,3.6895v0.6455H604.3574z M607.3125,179.7793c0-2.2041-0.6152-2.4746-1.5156-2.4746
			c-0.7793,0-1.4248,0.375-1.4395,2.4746H607.3125z"/>
		<path fill="#231F20" d="M611.9316,177.665h0.0303c0.5107-1.1553,1.1396-1.29,2.3398-1.29v1.2744
			c-0.1045-0.0146-0.2246-0.0293-0.3291-0.0449c-0.1055-0.0146-0.2109-0.0293-0.3301-0.0293c-1.3652,0-1.7109,1.0342-1.7109,2.0547
			v4.4697h-1.2295v-7.5742h1.2295V177.665z"/>
		<path fill="#231F20" d="M619.5527,183.0049h-0.0312c-0.375,0.8701-0.959,1.2451-1.9043,1.2451
			c-1.6055,0-2.0703-1.0352-2.0703-2.4902c0-2.2949,2.25-2.4004,3.9746-2.3545c0.0312-1.0059,0.0449-2.1006-1.2744-2.1006
			c-0.8252,0-1.2598,0.5547-1.1846,1.3506h-1.3359c0.0605-1.6953,0.9609-2.2803,2.5654-2.2803c1.9502,0,2.46,1.0049,2.46,2.2803
			v3.6445c0,0.5996,0.0605,1.2148,0.1504,1.7998h-1.3496V183.0049z M616.7773,181.8496c0,0.7354,0.3594,1.3955,1.1846,1.3955
			c0.75,0,1.6807-0.4658,1.5596-2.9102C618.3516,180.3496,616.7773,180.2451,616.7773,181.8496z"/>
		<path fill="#231F20" d="M623.2871,176.5254v-1.4551l1.2305-0.5557v2.0107h1.6494v0.9297h-1.6494v4.6348
			c0,0.4795,0,1.0947,1.125,1.0947c0.0898,0,0.2852-0.0303,0.5547-0.0596v0.9443c-0.4053,0.0303-0.8105,0.1201-1.2148,0.1201
			c-1.1699,0-1.6953-0.4795-1.6953-1.3496v-5.3848h-1.2441v-0.9297H623.2871z"/>
		<path fill="#231F20" d="M631.3721,176.5254h1.2295v5.999c0,0.5254,0.0303,1.0498,0.0752,1.5752h-1.3047v-0.915h-0.0449
			c-0.4053,0.6904-1.125,1.0654-1.9199,1.0654c-1.3203,0-2.04-0.6602-2.04-1.9502v-5.7744h1.2305v5.249
			c0,0.915,0.4199,1.5303,1.2891,1.5303c0.6602,0,1.4854-0.4951,1.4854-1.7549V176.5254z"/>
		<path fill="#231F20" d="M636.0977,177.665h0.0293c0.5098-1.1553,1.1406-1.29,2.3398-1.29v1.2744
			c-0.1055-0.0146-0.2246-0.0293-0.3301-0.0449c-0.1045-0.0146-0.209-0.0293-0.3301-0.0293c-1.3652,0-1.709,1.0342-1.709,2.0547
			v4.4697h-1.2305v-7.5742h1.2305V177.665z"/>
		<path fill="#231F20" d="M641.0166,180.71c0,2.1143,0.5703,2.5352,1.5303,2.5352c0.8398,0,1.2754-0.6758,1.3203-1.4404h1.3496
			c-0.0156,1.6797-1.0508,2.4453-2.6406,2.4453c-1.6045,0-2.8789-0.4805-2.8789-3.8252c0-2.2197,0.2539-4.0498,2.8789-4.0498
			c2.1602,0,2.7002,1.1846,2.7002,3.6895v0.6455H641.0166z M643.9717,179.7793c0-2.2041-0.6152-2.4746-1.5146-2.4746
			c-0.7803,0-1.4258,0.375-1.4404,2.4746H643.9717z"/>
	</g>
</g>
<g>
	<g>
		<path fill="#231F20" d="M326.3906,124.1001v-10.8296h4.0195c1.7251,0,3.1499,0.4951,3.1499,2.8047
			c0,1.2451-0.6147,2.145-1.8447,2.3853v0.0298c1.605,0.2251,2.0249,1.2603,2.0249,2.7451c0,2.7446-2.3848,2.8647-3.3447,2.8647
			H326.3906z M328.6553,117.6953h1.5151c0.4951,0,1.1851-0.3301,1.1851-1.3799c0-0.7949-0.54-1.3799-1.3052-1.3799h-1.395V117.6953z
			 M328.6553,122.4351h1.2603c0.48,0,1.5596-0.0151,1.5596-1.5298c0-0.96-0.3599-1.5449-1.4995-1.5449h-1.3203V122.4351z"/>
		<path fill="#231F20" d="M337.7153,113.2705v1.665h-2.1147v-1.665H337.7153z M337.7153,124.1001h-2.1147v-7.5747h2.1147V124.1001z"
			/>
		<path fill="#231F20" d="M343.0854,119.2852v1.5303h-3.6748v-1.5303H343.0854z"/>
		<path fill="#231F20" d="M346.5352,117.2905h0.0298c0.4199-0.6753,0.9902-0.915,1.7852-0.915c0.75,0,1.3496,0.3599,1.6948,0.96
			c0.4951-0.6602,1.0947-0.96,1.9648-0.96c1.0049,0,1.8901,0.6001,1.8901,1.6499v6.0747h-2.1152v-5.2197
			c0-0.6748-0.1196-1.2002-0.7949-1.2002c-0.6748,0-0.7949,0.5254-0.7949,1.2002v5.2197h-2.0698v-5.2197
			c0-0.6748-0.1201-1.2002-0.7949-1.2002c-0.6753,0-0.7949,0.5254-0.7949,1.2002v5.2197h-2.1152v-7.5747h2.1152V117.2905z"/>
		<path fill="#231F20" d="M357.3652,120.6504c0,0.8999,0.0298,2.25,0.96,2.25c0.75,0,0.8999-0.7202,0.8999-1.3501h2.145
			c-0.0303,0.8247-0.3003,1.5-0.8101,1.9648c-0.4951,0.4648-1.2451,0.7349-2.2349,0.7349c-2.73,0-3.0898-1.665-3.0898-4.0347
			c0-2.0698,0.2998-3.8398,3.0898-3.8398c2.8496,0,3.1646,1.8447,3.0898,4.2749H357.3652z M359.2998,119.4653
			c0-0.7349,0.0303-1.7852-0.9746-1.7852c-0.9751,0-0.96,1.1401-0.96,1.7852H359.2998z"/>
		<path fill="#231F20" d="M362.0601,116.5254h0.855v-1.1997l2.1152-0.9453v2.145h1.0947v1.3052h-1.0947v4.0498
			c0,0.5698-0.0151,0.9448,0.6748,0.9448c0.1348,0,0.27,0,0.375-0.0303v1.3052c-0.2852,0.0298-0.585,0.0752-1.0952,0.0752
			c-1.8296,0-2.0698-1.2153-2.0698-1.6802v-4.6646h-0.855V116.5254z"/>
		<path fill="#231F20" d="M372.8301,122.6899c0,0.4653,0.0596,0.9453,0.105,1.4102h-1.9653l-0.0898-1.0049h-0.0298
			c-0.4502,0.7798-1.0649,1.1548-1.98,1.1548c-1.4702,0-2.0103-1.0947-2.0103-2.415c0-2.5049,1.9351-2.6099,3.8999-2.5796v-0.585
			c0-0.645-0.0898-1.1099-0.855-1.1099c-0.7349,0-0.7949,0.5547-0.7949,1.1548H367.04c0-0.915,0.2852-1.5,0.7798-1.8447
			c0.48-0.3604,1.1704-0.4951,1.98-0.4951c2.6851,0,3.0303,1.1548,3.0303,2.5347V122.6899z M368.9302,121.7451
			c0,0.54,0.0898,1.2002,0.7798,1.2002c1.2451,0,1.0498-1.6802,1.0498-2.5049C369.71,120.4854,368.9302,120.395,368.9302,121.7451z"
			/>
		<path fill="#231F20" d="M376.8799,113.2705v10.8296h-2.1147v-10.8296H376.8799z"/>
		<path fill="#231F20" d="M385.9395,119.2251c0-1.1245-0.2852-1.4995-0.9448-1.4995c-0.8999,0-0.9751,0.7949-0.9751,2.3696
			c0,2.3101,0.1948,2.8052,0.9751,2.8052c0.6597,0,0.9746-0.6001,0.9746-1.5903h2.1152c0,2.0552-1.1099,2.9399-3.0898,2.9399
			c-2.73,0-3.0898-1.665-3.0898-4.0347c0-2.0698,0.2998-3.8398,3.0898-3.8398c1.9497,0,3.0596,0.8701,3.0596,2.8496H385.9395z"/>
		<path fill="#231F20" d="M389.4048,120.2153c0-2.0698,0.2998-3.8398,3.0898-3.8398c2.7896,0,3.0898,1.77,3.0898,3.8398
			c0,2.3696-0.3599,4.0347-3.0898,4.0347S389.4048,122.585,389.4048,120.2153z M393.4692,120.0952
			c0-1.5747-0.0747-2.3696-0.9746-2.3696s-0.9751,0.7949-0.9751,2.3696c0,2.3101,0.1948,2.8052,0.9751,2.8052
			C393.2744,122.9004,393.4692,122.4053,393.4692,120.0952z"/>
		<path fill="#231F20" d="M399.3794,113.2705v1.665h-2.1147v-1.665H399.3794z M399.3794,124.1001h-2.1147v-7.5747h2.1147V124.1001z"
			/>
		<path fill="#231F20" d="M403.5498,113.2705v10.8296h-2.1147v-10.8296H403.5498z"/>
	</g>
</g>
<g>
	<g>
		<path fill="#231F20" d="M524.5947,288.6855c0-2.8652,0-5.5952,3.7349-5.5952c2.3101,0,3.2397,1.2754,3.1499,3.6001h-2.2197
			c0-1.4399-0.2549-1.98-0.9302-1.98c-1.2749,0-1.4399,1.2002-1.4399,3.9751c0,2.7744,0.165,3.9746,1.4399,3.9746
			c1.0503,0,1.0049-1.3501,1.0352-2.2051h2.2349c0,2.895-1.1548,3.8252-3.27,3.8252
			C524.5947,294.2803,524.5947,291.52,524.5947,288.6855z"/>
		<path fill="#231F20" d="M536.6396,293.335h-0.0303c-0.21,0.3301-0.4497,0.5703-0.75,0.7051
			c-0.2998,0.1499-0.6299,0.21-1.0347,0.21c-1.0049,0-1.8901-0.6001-1.8901-1.6499v-6.0747h2.1152v5.25
			c0,0.6748,0.1196,1.1699,0.7949,1.1699c0.6748,0,0.7949-0.4951,0.7949-1.1699v-5.25h2.1147v6.0747
			c0,0.4951,0.0303,1.0049,0.0752,1.5h-2.1899V293.335z"/>
		<path fill="#231F20" d="M542.4448,286.5254v0.9751h0.0298c0.3901-0.8701,1.1099-1.125,1.9648-1.125v1.8896
			c-1.8599-0.1196-1.8896,0.96-1.8896,1.71v4.125h-2.1152v-7.5747H542.4448z"/>
		<path fill="#231F20" d="M547.4399,286.5254v0.9751h0.0298c0.3901-0.8701,1.1099-1.125,1.9648-1.125v1.8896
			c-1.8599-0.1196-1.8896,0.96-1.8896,1.71v4.125h-2.1152v-7.5747H547.4399z"/>
		<path fill="#231F20" d="M552.3745,290.6504c0,0.8999,0.0298,2.25,0.96,2.25c0.75,0,0.8999-0.7202,0.8999-1.3501h2.145
			c-0.0303,0.8247-0.3003,1.5-0.8101,1.9648c-0.4951,0.4648-1.2451,0.7349-2.2349,0.7349c-2.73,0-3.0898-1.665-3.0898-4.0347
			c0-2.0698,0.2998-3.8398,3.0898-3.8398c2.8496,0,3.1646,1.8447,3.0898,4.2749H552.3745z M554.3091,289.4653
			c0-0.7349,0.0303-1.7852-0.9746-1.7852c-0.9751,0-0.96,1.1401-0.96,1.7852H554.3091z"/>
		<path fill="#231F20" d="M560.0396,287.2905h0.0298c0.21-0.3452,0.4648-0.5703,0.75-0.7051c0.2998-0.1499,0.645-0.21,1.0352-0.21
			c1.0049,0,1.8896,0.6001,1.8896,1.6499v6.0747h-2.1147v-5.2197c0-0.6748-0.1201-1.2002-0.7949-1.2002
			c-0.6753,0-0.7949,0.5254-0.7949,1.2002v5.2197h-2.1152v-7.5747h2.1152V287.2905z"/>
		<path fill="#231F20" d="M564.5693,286.5254h0.855v-1.1997l2.1152-0.9453v2.145h1.0947v1.3052h-1.0947v4.0498
			c0,0.5698-0.0151,0.9448,0.6748,0.9448c0.1348,0,0.27,0,0.375-0.0303v1.3052c-0.2852,0.0298-0.585,0.0752-1.0952,0.0752
			c-1.8296,0-2.0698-1.2153-2.0698-1.6802v-4.6646h-0.855V286.5254z"/>
		<path fill="#231F20" d="M572.0693,286.5254h0.855v-1.1997l2.1152-0.9453v2.145h1.0947v1.3052h-1.0947v4.0498
			c0,0.5698-0.0151,0.9448,0.6748,0.9448c0.1348,0,0.27,0,0.375-0.0303v1.3052c-0.2852,0.0298-0.585,0.0752-1.0952,0.0752
			c-1.8296,0-2.0698-1.2153-2.0698-1.6802v-4.6646h-0.855V286.5254z"/>
		<path fill="#231F20" d="M579.0444,290.6504c0,0.8999,0.0298,2.25,0.96,2.25c0.75,0,0.8999-0.7202,0.8999-1.3501h2.145
			c-0.0303,0.8247-0.3003,1.5-0.8101,1.9648c-0.4951,0.4648-1.2451,0.7349-2.2349,0.7349c-2.73,0-3.0898-1.665-3.0898-4.0347
			c0-2.0698,0.2998-3.8398,3.0898-3.8398c2.8496,0,3.1646,1.8447,3.0898,4.2749H579.0444z M580.979,289.4653
			c0-0.7349,0.0303-1.7852-0.9746-1.7852c-0.9751,0-0.96,1.1401-0.96,1.7852H580.979z"/>
		<path fill="#231F20" d="M586.5449,287.2905h0.0293c0.4199-0.6753,0.9902-0.915,1.7852-0.915c0.75,0,1.3496,0.3599,1.6953,0.96
			c0.4941-0.6602,1.0938-0.96,1.9648-0.96c1.0039,0,1.8896,0.6001,1.8896,1.6499v6.0747h-2.1152v-5.2197
			c0-0.6748-0.1201-1.2002-0.7949-1.2002s-0.7949,0.5254-0.7949,1.2002v5.2197h-2.0693v-5.2197
			c0-0.6748-0.1211-1.2002-0.7949-1.2002c-0.6758,0-0.7949,0.5254-0.7949,1.2002v5.2197h-2.1157v-7.5747h2.1157V287.2905z"/>
		<path fill="#231F20" d="M597.4336,286.5254v0.8398h0.0303c0.3896-0.7349,0.9756-0.9897,1.7852-0.9897
			c2.1895,0,2.1143,2.4297,2.1143,3.9897c0,1.5298,0.0605,3.8848-2.0693,3.8848c-0.7646,0-1.29-0.2251-1.7256-0.8701h-0.0293v3.9751
			h-2.1152v-10.8296H597.4336z M599.2939,290.2451c0-1.5146,0.0146-2.5649-0.8994-2.5649c-0.8711,0-0.8555,1.0503-0.8555,2.5649
			c0,1.9053,0.1348,2.7002,0.8555,2.7002C599.1582,292.9453,599.2939,292.1504,599.2939,290.2451z"/>
		<path fill="#231F20" d="M604.874,290.6504c0,0.8999,0.0303,2.25,0.96,2.25c0.75,0,0.9004-0.7202,0.9004-1.3501h2.1445
			c-0.0303,0.8247-0.3008,1.5-0.8105,1.9648c-0.4941,0.4648-1.2441,0.7349-2.2344,0.7349c-2.7305,0-3.0898-1.665-3.0898-4.0347
			c0-2.0698,0.2998-3.8398,3.0898-3.8398c2.8496,0,3.1641,1.8447,3.0898,4.2749H604.874z M606.8086,289.4653
			c0-0.7349,0.0303-1.7852-0.9746-1.7852c-0.9746,0-0.96,1.1401-0.96,1.7852H606.8086z"/>
		<path fill="#231F20" d="M612.4336,286.5254v0.9751h0.0303c0.3896-0.8701,1.1104-1.125,1.9648-1.125v1.8896
			c-1.8604-0.1196-1.8896,0.96-1.8896,1.71v4.125h-2.1152v-7.5747H612.4336z"/>
		<path fill="#231F20" d="M621.1641,292.6899c0,0.4653,0.0596,0.9453,0.1055,1.4102h-1.9658l-0.0898-1.0049h-0.0303
			c-0.4492,0.7798-1.0645,1.1548-1.9795,1.1548c-1.4697,0-2.0107-1.0947-2.0107-2.415c0-2.5049,1.9355-2.6099,3.9004-2.5796v-0.585
			c0-0.645-0.0898-1.1099-0.8555-1.1099c-0.7344,0-0.7949,0.5547-0.7949,1.1548h-2.0693c0-0.915,0.2852-1.5,0.7803-1.8447
			c0.4795-0.3604,1.1699-0.4951,1.9795-0.4951c2.6846,0,3.0303,1.1548,3.0303,2.5347V292.6899z M617.2637,291.7451
			c0,0.54,0.0898,1.2002,0.7803,1.2002c1.2451,0,1.0498-1.6802,1.0498-2.5049C618.0439,290.4854,617.2637,290.395,617.2637,291.7451
			z"/>
		<path fill="#231F20" d="M622.0645,286.5254h0.8545v-1.1997l2.1152-0.9453v2.145h1.0947v1.3052h-1.0947v4.0498
			c0,0.5698-0.0146,0.9448,0.6748,0.9448c0.1348,0,0.2695,0,0.375-0.0303v1.3052c-0.2852,0.0298-0.585,0.0752-1.0957,0.0752
			c-1.8291,0-2.0693-1.2153-2.0693-1.6802v-4.6646h-0.8545V286.5254z"/>
		<path fill="#231F20" d="M630.7939,293.335h-0.0303c-0.21,0.3301-0.4492,0.5703-0.75,0.7051
			c-0.2998,0.1499-0.6299,0.21-1.0352,0.21c-1.0039,0-1.8896-0.6001-1.8896-1.6499v-6.0747h2.1152v5.25
			c0,0.6748,0.1201,1.1699,0.7949,1.1699s0.7949-0.4951,0.7949-1.1699v-5.25h2.1143v6.0747c0,0.4951,0.0312,1.0049,0.0762,1.5
			h-2.1904V293.335z"/>
		<path fill="#231F20" d="M636.5996,286.5254v0.9751h0.0293c0.3906-0.8701,1.1094-1.125,1.9648-1.125v1.8896
			c-1.8594-0.1196-1.8896,0.96-1.8896,1.71v4.125h-2.1152v-7.5747H636.5996z"/>
		<path fill="#231F20" d="M641.5342,290.6504c0,0.8999,0.0303,2.25,0.96,2.25c0.75,0,0.9004-0.7202,0.9004-1.3501h2.1445
			c-0.0303,0.8247-0.3008,1.5-0.8105,1.9648c-0.4941,0.4648-1.2441,0.7349-2.2344,0.7349c-2.7305,0-3.0898-1.665-3.0898-4.0347
			c0-2.0698,0.2998-3.8398,3.0898-3.8398c2.8496,0,3.1641,1.8447,3.0898,4.2749H641.5342z M643.4688,289.4653
			c0-0.7349,0.0303-1.7852-0.9746-1.7852c-0.9746,0-0.96,1.1401-0.96,1.7852H643.4688z"/>
	</g>
</g>
<g>
	<g>
		<path fill="#231F20" d="M790.4648,117.6055v-4.335h2.2646v10.8296h-2.2646v-4.8296h-2.5957v4.8296h-2.2637v-10.8296h2.2637v4.335
			H790.4648z"/>
		<path fill="#231F20" d="M796.54,120.6504c0,0.8999,0.0303,2.25,0.96,2.25c0.75,0,0.9004-0.7202,0.9004-1.3501h2.1445
			c-0.0303,0.8247-0.3008,1.5-0.8105,1.9648c-0.4941,0.4648-1.2441,0.7349-2.2344,0.7349c-2.7305,0-3.0898-1.665-3.0898-4.0347
			c0-2.0698,0.2998-3.8398,3.0898-3.8398c2.8496,0,3.1641,1.8447,3.0898,4.2749H796.54z M798.4746,119.4653
			c0-0.7349,0.0303-1.7852-0.9746-1.7852c-0.9746,0-0.96,1.1401-0.96,1.7852H798.4746z"/>
		<path fill="#231F20" d="M807.835,122.6899c0,0.4653,0.0596,0.9453,0.1045,1.4102h-1.9648l-0.0898-1.0049h-0.0293
			c-0.4512,0.7798-1.0654,1.1548-1.9805,1.1548c-1.4707,0-2.0098-1.0947-2.0098-2.415c0-2.5049,1.9346-2.6099,3.8994-2.5796v-0.585
			c0-0.645-0.0898-1.1099-0.8545-1.1099c-0.7354,0-0.7949,0.5547-0.7949,1.1548h-2.0703c0-0.915,0.2852-1.5,0.7793-1.8447
			c0.4805-0.3604,1.1709-0.4951,1.9805-0.4951c2.6855,0,3.0303,1.1548,3.0303,2.5347V122.6899z M803.9355,121.7451
			c0,0.54,0.0898,1.2002,0.7793,1.2002c1.2451,0,1.0498-1.6802,1.0498-2.5049C804.7148,120.4854,803.9355,120.395,803.9355,121.7451
			z"/>
		<path fill="#231F20" d="M808.7344,116.5254h0.8555v-1.1997l2.1152-0.9453v2.145h1.0947v1.3052h-1.0947v4.0498
			c0,0.5698-0.0156,0.9448,0.6748,0.9448c0.1348,0,0.2705,0,0.375-0.0303v1.3052c-0.2852,0.0298-0.585,0.0752-1.0947,0.0752
			c-1.8301,0-2.0703-1.2153-2.0703-1.6802v-4.6646h-0.8555V116.5254z"/>
		<path fill="#231F20" d="M815.71,120.6504c0,0.8999,0.0303,2.25,0.96,2.25c0.75,0,0.9004-0.7202,0.9004-1.3501h2.1445
			c-0.0303,0.8247-0.3008,1.5-0.8105,1.9648c-0.4941,0.4648-1.2441,0.7349-2.2344,0.7349c-2.7305,0-3.0898-1.665-3.0898-4.0347
			c0-2.0698,0.2998-3.8398,3.0898-3.8398c2.8496,0,3.1641,1.8447,3.0898,4.2749H815.71z M817.6445,119.4653
			c0-0.7349,0.0303-1.7852-0.9746-1.7852c-0.9746,0-0.96,1.1401-0.96,1.7852H817.6445z"/>
		<path fill="#231F20" d="M823.2695,116.5254v0.9751h0.0303c0.3896-0.8701,1.1104-1.125,1.9648-1.125v1.8896
			c-1.8604-0.1196-1.8896,0.96-1.8896,1.71v4.125h-2.1152v-7.5747H823.2695z"/>
	</g>
</g>
<g>
	<g>
		<path fill="#00ADEF" d="M777.8955,313.0054h-0.0303c-0.375,0.8696-0.96,1.2446-1.9043,1.2446
			c-1.6055,0-2.0703-1.0347-2.0703-2.4897c0-2.2949,2.25-2.3999,3.9746-2.355c0.0303-1.0049,0.0449-2.1001-1.2754-2.1001
			c-0.8242,0-1.2598,0.5552-1.1846,1.3501h-1.335c0.0605-1.6948,0.96-2.2798,2.5645-2.2798c1.9512,0,2.4609,1.0049,2.4609,2.2798
			v3.645c0,0.6001,0.0596,1.2148,0.1494,1.7998h-1.3496V313.0054z M775.1211,311.8501c0,0.7349,0.3594,1.395,1.1836,1.395
			c0.75,0,1.6807-0.4648,1.5605-2.9097C776.6953,310.3501,775.1211,310.2451,775.1211,311.8501z"/>
		<path fill="#00ADEF" d="M781.7207,306.5254v-1.4697c0-1.5303,1.0801-1.8301,2.1748-1.8301c0.2549,0,0.4053,0.0151,0.585,0.0449
			v0.8848c-1.3047-0.0898-1.5303,0.4653-1.5303,1.0801v1.29h1.5303v0.9302h-1.5303v6.6445h-1.2295v-6.6445h-1.1699v-0.9302H781.7207
			z"/>
		<path fill="#00ADEF" d="M785.8906,306.5254v-1.4697c0-1.5303,1.0801-1.8301,2.1748-1.8301c0.2549,0,0.4053,0.0151,0.585,0.0449
			v0.8848c-1.3047-0.0898-1.5303,0.4653-1.5303,1.0801v1.29h1.5303v0.9302h-1.5303v6.6445h-1.2295v-6.6445h-1.1699v-0.9302H785.8906
			z"/>
		<path fill="#00ADEF" d="M791.0352,310.7104c0,2.1147,0.5703,2.5347,1.5303,2.5347c0.8398,0,1.2744-0.6748,1.3193-1.4399h1.3496
			c-0.0137,1.6802-1.0488,2.4448-2.6387,2.4448c-1.6055,0-2.8809-0.48-2.8809-3.8247c0-2.2197,0.2559-4.0498,2.8809-4.0498
			c2.1602,0,2.6992,1.1851,2.6992,3.6899v0.645H791.0352z M793.9902,309.7803c0-2.2051-0.6152-2.4751-1.5156-2.4751
			c-0.7793,0-1.4238,0.375-1.4395,2.4751H793.9902z"/>
		<path fill="#00ADEF" d="M801.2949,308.9551c0.0303-1.2446-0.585-1.5747-1.0498-1.5747c-0.9443,0-1.5898,0.4502-1.5898,2.52
			c0,2.46,0.3154,3.3447,1.5898,3.3447c0.2852,0,1.1396-0.2998,1.0947-1.665h1.29c0.0459,2.1299-1.5449,2.6699-2.3848,2.6699
			c-1.6045,0-2.8799-0.48-2.8799-3.8247c0-2.2197,0.2549-4.0498,2.8799-4.0498c1.5146,0,2.3994,0.8848,2.3252,2.5796H801.2949z"/>
		<path fill="#00ADEF" d="M804.9707,306.5254v-1.4551l1.2295-0.5547v2.0098h1.6494v0.9302h-1.6494v4.6348
			c0,0.48,0,1.0947,1.125,1.0947c0.0898,0,0.2852-0.0298,0.5557-0.0601v0.9453c-0.4062,0.0298-0.8105,0.1196-1.2158,0.1196
			c-1.1699,0-1.6943-0.48-1.6943-1.3496v-5.3848h-1.2451v-0.9302H804.9707z"/>
		<path fill="#00ADEF" d="M811.2402,314.25c-1.6348,0-2.6543-0.7197-2.6094-2.46h1.3945c0,0.4351,0.0146,1.4551,1.2598,1.4551
			c0.7344,0,1.3047-0.375,1.3047-1.1548c0-1.3501-3.7793-1.3799-3.7793-3.645c0-0.7949,0.4795-2.0698,2.6094-2.0698
			c1.3496,0,2.5059,0.645,2.4004,2.145h-1.3652c0.0156-0.7949-0.4043-1.2153-1.1855-1.2153c-0.6592,0-1.1699,0.3604-1.1699,1.02
			c0,1.335,3.7803,1.3052,3.7803,3.6152C813.8799,313.605,812.7402,314.25,811.2402,314.25z"/>
		<path fill="#00ADEF" d="M819.1299,306.5254v-1.4551l1.2295-0.5547v2.0098h1.6504v0.9302h-1.6504v4.6348
			c0,0.48,0,1.0947,1.125,1.0947c0.0898,0,0.2852-0.0298,0.5557-0.0601v0.9453c-0.4053,0.0298-0.8096,0.1196-1.2158,0.1196
			c-1.1699,0-1.6943-0.48-1.6943-1.3496v-5.3848h-1.2451v-0.9302H819.1299z"/>
		<path fill="#00ADEF" d="M827.2754,314.1001v-5.1299c0-0.9297-0.3008-1.5898-1.3506-1.5898c-1.2295,0-1.5449,0.9897-1.5449,2.2651
			v4.4546h-1.2295v-10.8296h1.2295v4.23h0.0596c0.4961-0.8853,1.0654-1.125,2.0547-1.125c1.291,0,2.0107,0.645,2.0107,2.355v5.3696
			H827.2754z"/>
		<path fill="#00ADEF" d="M831.8652,310.7104c0,2.1147,0.5703,2.5347,1.5293,2.5347c0.8398,0,1.2754-0.6748,1.3203-1.4399h1.3496
			c-0.0146,1.6802-1.0498,2.4448-2.6396,2.4448c-1.6045,0-2.8799-0.48-2.8799-3.8247c0-2.2197,0.2549-4.0498,2.8799-4.0498
			c2.1592,0,2.7002,1.1851,2.7002,3.6899v0.645H831.8652z M834.8203,309.7803c0-2.2051-0.6152-2.4751-1.5156-2.4751
			c-0.7793,0-1.4248,0.375-1.4395,2.4751H834.8203z"/>
	</g>
</g>
<g>
	<g>
		<path fill="#00ADEF" d="M320.5786,303.2705h1.3799v1.3198h-1.3799V303.2705z M321.8833,314.1001h-1.23v-7.5747h1.23V314.1001z"/>
		<path fill="#00ADEF" d="M326.248,314.25c-1.6348,0-2.6548-0.7197-2.6099-2.46h1.395c0,0.4351,0.0146,1.4551,1.2598,1.4551
			c0.7349,0,1.3052-0.375,1.3052-1.1548c0-1.3501-3.7803-1.3799-3.7803-3.645c0-0.7949,0.48-2.0698,2.6099-2.0698
			c1.3501,0,2.5049,0.645,2.3999,2.145h-1.3647c0.0151-0.7949-0.4048-1.2153-1.1851-1.2153c-0.6597,0-1.1699,0.3604-1.1699,1.02
			c0,1.335,3.7798,1.3052,3.7798,3.6152C328.8877,313.605,327.748,314.25,326.248,314.25z"/>
		<path fill="#00ADEF" d="M337.7227,314.1001v-5.25c0-0.7646-0.21-1.4697-1.2002-1.4697c-0.3745,0-0.8848,0.2251-1.0649,0.5098
			c-0.2246,0.375-0.2847,0.8252-0.2847,1.1104v5.0996h-1.23v-5.9995c0-0.5254-0.0303-1.0503-0.0752-1.5752h1.3052v0.9448h0.0298
			c0.3599-0.8101,1.0049-1.0947,1.8901-1.0947c0.6899,0,1.4849,0.2847,1.77,0.9751c0.4199-0.8101,1.1099-0.9751,1.7998-0.9751
			c0.7949,0,2.0698,0.1797,2.0698,1.9648v5.7598h-1.23v-5.25c0-0.7646-0.21-1.4697-1.1997-1.4697
			c-0.4653,0-0.6001,0.0151-0.9302,0.2852c-0.3599,0.2998-0.4199,1.0498-0.4199,1.335v5.0996H337.7227z"/>
		<path fill="#00ADEF" d="M346.0322,310.7104c0,2.1147,0.5703,2.5347,1.5303,2.5347c0.8398,0,1.2749-0.6748,1.3198-1.4399h1.3501
			c-0.0151,1.6802-1.0503,2.4448-2.6401,2.4448c-1.605,0-2.8799-0.48-2.8799-3.8247c0-2.2197,0.2549-4.0498,2.8799-4.0498
			c2.1597,0,2.6997,1.1851,2.6997,3.6899v0.645H346.0322z M348.9873,309.7803c0-2.2051-0.6152-2.4751-1.5151-2.4751
			c-0.7798,0-1.4248,0.375-1.4399,2.4751H348.9873z"/>
		<path fill="#00ADEF" d="M356.2324,313.0054h-0.0303c-0.375,0.8696-0.96,1.2446-1.9048,1.2446
			c-1.605,0-2.0698-1.0347-2.0698-2.4897c0-2.2949,2.25-2.3999,3.9746-2.355c0.0303-1.0049,0.0449-2.1001-1.2749-2.1001
			c-0.8247,0-1.2598,0.5552-1.1851,1.3501h-1.335c0.0601-1.6948,0.96-2.2798,2.5649-2.2798c1.9502,0,2.46,1.0049,2.46,2.2798v3.645
			c0,0.6001,0.0601,1.2148,0.1499,1.7998h-1.3496V313.0054z M353.4575,311.8501c0,0.7349,0.3599,1.395,1.1846,1.395
			c0.75,0,1.6802-0.4648,1.5601-2.9097C355.0322,310.3501,353.4575,310.2451,353.4575,311.8501z"/>
		<path fill="#00ADEF" d="M362.0674,314.25c-1.6348,0-2.6548-0.7197-2.6099-2.46h1.395c0,0.4351,0.0146,1.4551,1.2598,1.4551
			c0.7349,0,1.3052-0.375,1.3052-1.1548c0-1.3501-3.7803-1.3799-3.7803-3.645c0-0.7949,0.48-2.0698,2.6099-2.0698
			c1.3501,0,2.5049,0.645,2.3999,2.145h-1.3647c0.0151-0.7949-0.4048-1.2153-1.1851-1.2153c-0.6597,0-1.1699,0.3604-1.1699,1.02
			c0,1.335,3.7798,1.3052,3.7798,3.6152C364.707,313.605,363.5674,314.25,362.0674,314.25z"/>
		<path fill="#00ADEF" d="M370.5425,306.5254h1.23v6c0,0.5249,0.0298,1.0498,0.0747,1.5747h-1.3047v-0.915h-0.0449
			c-0.4053,0.6899-1.125,1.0649-1.9199,1.0649c-1.3203,0-2.04-0.6597-2.04-1.9497v-5.7749h1.23v5.25
			c0,0.9146,0.4199,1.5298,1.29,1.5298c0.6597,0,1.4849-0.4951,1.4849-1.7549V306.5254z"/>
		<path fill="#00ADEF" d="M375.2676,307.6655h0.0298c0.5103-1.1553,1.1401-1.29,2.3398-1.29v1.2749
			c-0.105-0.0151-0.2246-0.0303-0.3296-0.0449c-0.105-0.0151-0.21-0.0303-0.3301-0.0303c-1.3652,0-1.71,1.0352-1.71,2.0552v4.4697
			h-1.23v-7.5747h1.23V307.6655z"/>
		<path fill="#00ADEF" d="M380.187,310.7104c0,2.1147,0.5703,2.5347,1.5303,2.5347c0.8398,0,1.2749-0.6748,1.3198-1.4399h1.3496
			c-0.0146,1.6802-1.0498,2.4448-2.6396,2.4448c-1.605,0-2.8799-0.48-2.8799-3.8247c0-2.2197,0.2549-4.0498,2.8799-4.0498
			c2.1602,0,2.6997,1.1851,2.6997,3.6899v0.645H380.187z M383.1421,309.7803c0-2.2051-0.6152-2.4751-1.5151-2.4751
			c-0.7798,0-1.4248,0.375-1.4399,2.4751H383.1421z"/>
		<path fill="#00ADEF" d="M390.4922,303.2705h1.23v10.8296h-1.23v-0.8999h-0.0303c-0.4199,0.7051-0.9448,1.0498-1.7397,1.0498
			c-1.2148,0-2.4448-0.48-2.4448-3.8096c0-1.8901,0.0601-4.0649,2.5049-4.0649c0.7197,0,1.2446,0.3149,1.665,0.915h0.0449V303.2705z
			 M389.0669,307.3804c-1.3198,0-1.4995,1.0498-1.4995,3.0747c0,1.1401,0,2.79,1.5449,2.79c1.3799,0,1.3799-1.71,1.3799-3.2397
			C390.4922,309.0005,390.4321,307.3804,389.0669,307.3804z"/>
		<path fill="#00ADEF" d="M398.6519,314.1001h-1.23v-10.8296h1.23v4.02h0.0449c0.4199-0.6001,0.9448-0.915,1.665-0.915
			c2.4448,0,2.5049,2.1748,2.5049,4.0649c0,3.3296-1.23,3.8096-2.4448,3.8096c-0.7954,0-1.3203-0.3447-1.7402-1.0498h-0.0298
			V314.1001z M400.0317,313.2451c1.5449,0,1.5449-1.6499,1.5449-2.79c0-2.0249-0.1802-3.0747-1.5-3.0747
			c-1.3647,0-1.4248,1.6201-1.4248,2.625C398.6519,311.1602,398.5166,313.2451,400.0317,313.2451z"/>
		<path fill="#00ADEF" d="M407.0967,312.6899h0.0298l1.8149-6.1646h1.335l-3.4346,10.4395h-1.2749l0.855-2.8647l-2.5649-7.5747
			h1.4248L407.0967,312.6899z"/>
	</g>
</g>
<g>
	<path fill="#00ADEF" d="M691.7637,133.2705h1.2295v10.8296h-1.2295v-0.8999h-0.0312c-0.4199,0.7051-0.9443,1.0498-1.7393,1.0498
		c-1.2148,0-2.4443-0.48-2.4443-3.8096c0-1.8901,0.0596-4.0649,2.5039-4.0649c0.7207,0,1.2451,0.3149,1.666,0.915h0.0449V133.2705z
		 M690.3379,137.3804c-1.3203,0-1.5,1.0498-1.5,3.0747c0,1.1401,0,2.79,1.5449,2.79c1.3809,0,1.3809-1.71,1.3809-3.2397
		C691.7637,139.0005,691.7031,137.3804,690.3379,137.3804z"/>
	<path fill="#00ADEF" d="M696.5332,137.6655h0.0293c0.5107-1.1553,1.1406-1.29,2.3398-1.29v1.2749
		c-0.1045-0.0151-0.2246-0.0303-0.3291-0.0449c-0.1045-0.0151-0.21-0.0303-0.3301-0.0303c-1.3652,0-1.71,1.0352-1.71,2.0552v4.4697
		h-1.2305v-7.5747h1.2305V137.6655z"/>
	<path fill="#00ADEF" d="M700.1484,133.2705h1.3799v1.3198h-1.3799V133.2705z M701.4531,144.1001h-1.2305v-7.5747h1.2305V144.1001z"
		/>
	<path fill="#00ADEF" d="M702.7129,136.5254h1.3799l1.6943,6.4199h0.0312l1.8301-6.4199h1.2891l-2.3691,7.5747h-1.6055
		L702.7129,136.5254z"/>
	<path fill="#00ADEF" d="M711.4424,140.7104c0,2.1147,0.5703,2.5347,1.5303,2.5347c0.8398,0,1.2754-0.6748,1.3203-1.4399h1.3496
		c-0.0156,1.6802-1.0508,2.4448-2.6406,2.4448c-1.6045,0-2.8789-0.48-2.8789-3.8247c0-2.2197,0.2539-4.0498,2.8789-4.0498
		c2.1602,0,2.7002,1.1851,2.7002,3.6899v0.645H711.4424z M714.3975,139.7803c0-2.2051-0.6152-2.4751-1.5146-2.4751
		c-0.7803,0-1.4258,0.375-1.4404,2.4751H714.3975z"/>
	<path fill="#00ADEF" d="M719.9775,144.25c-1.6357,0-2.6553-0.7197-2.6104-2.46h1.3955c0,0.4351,0.0146,1.4551,1.2598,1.4551
		c0.7354,0,1.3057-0.375,1.3057-1.1548c0-1.3501-3.7812-1.3799-3.7812-3.645c0-0.7949,0.4805-2.0698,2.6104-2.0698
		c1.3506,0,2.5049,0.645,2.3994,2.145h-1.3643c0.0146-0.7949-0.4053-1.2153-1.1846-1.2153c-0.6602,0-1.1699,0.3604-1.1699,1.02
		c0,1.335,3.7793,1.3052,3.7793,3.6152C722.6172,143.605,721.4775,144.25,719.9775,144.25z"/>
</g>
<g>
	<path fill="#00ADEF" d="M453.4829,133.2705h1.3799v1.3198h-1.3799V133.2705z M454.7876,144.1001h-1.23v-7.5747h1.23V144.1001z"/>
	<path fill="#00ADEF" d="M461.0273,144.1001v-5.25c0-0.8096-0.2852-1.4697-1.335-1.4697c-1.3501,0-1.5449,1.1997-1.5449,2.2349
		v4.4849h-1.23v-5.9995c0-0.5254-0.0303-1.0503-0.0752-1.5752h1.3052v0.9751h0.0601c0.48-0.855,1.0498-1.125,2.0249-1.125
		c1.6196,0,2.0249,0.9751,2.0249,2.4746v5.25H461.0273z"/>
	<path fill="#00ADEF" d="M464.6426,136.5254v-1.4697c0-1.5303,1.0796-1.8301,2.1748-1.8301c0.2549,0,0.4048,0.0151,0.585,0.0449
		v0.8848c-1.3052-0.0898-1.5303,0.4653-1.5303,1.0801v1.29h1.5303v0.9302h-1.5303v6.6445h-1.2295v-6.6445h-1.1704v-0.9302H464.6426z
		"/>
	<path fill="#00ADEF" d="M468.3779,140.4253c0-2.2197,0.2549-4.0498,2.8799-4.0498c2.6245,0,2.8799,1.8301,2.8799,4.0498
		c0,3.3447-1.2749,3.8247-2.8799,3.8247S468.3779,143.77,468.3779,140.4253z M472.8477,139.9004c0-2.0698-0.645-2.52-1.5898-2.52
		c-0.9453,0-1.5898,0.4502-1.5898,2.52c0,2.46,0.3149,3.3447,1.5898,3.3447S472.8477,142.3604,472.8477,139.9004z"/>
	<path fill="#00ADEF" d="M477.3628,137.6655h0.0298c0.5103-1.1553,1.1401-1.29,2.3398-1.29v1.2749
		c-0.105-0.0151-0.2246-0.0303-0.3296-0.0449c-0.105-0.0151-0.21-0.0303-0.3301-0.0303c-1.3652,0-1.71,1.0352-1.71,2.0552v4.4697
		h-1.23v-7.5747h1.23V137.6655z"/>
	<path fill="#00ADEF" d="M484.8022,144.1001v-5.25c0-0.7646-0.21-1.4697-1.1997-1.4697c-0.375,0-0.8853,0.2251-1.0654,0.5098
		c-0.2246,0.375-0.2847,0.8252-0.2847,1.1104v5.0996h-1.23v-5.9995c0-0.5254-0.0303-1.0503-0.0752-1.5752h1.3052v0.9448h0.0298
		c0.3604-0.8101,1.0049-1.0947,1.8901-1.0947c0.6899,0,1.4849,0.2847,1.77,0.9751c0.4199-0.8101,1.1099-0.9751,1.7998-0.9751
		c0.7949,0,2.0698,0.1797,2.0698,1.9648v5.7598h-1.23v-5.25c0-0.7646-0.21-1.4697-1.1997-1.4697
		c-0.4653,0-0.6001,0.0151-0.9302,0.2852c-0.3599,0.2998-0.4199,1.0498-0.4199,1.335v5.0996H484.8022z"/>
	<path fill="#00ADEF" d="M494.147,144.25c-1.6353,0-2.6548-0.7197-2.6099-2.46h1.395c0,0.4351,0.0146,1.4551,1.2598,1.4551
		c0.7349,0,1.3052-0.375,1.3052-1.1548c0-1.3501-3.7803-1.3799-3.7803-3.645c0-0.7949,0.48-2.0698,2.6099-2.0698
		c1.3501,0,2.5054,0.645,2.3999,2.145h-1.3647c0.0151-0.7949-0.4048-1.2153-1.1851-1.2153c-0.6597,0-1.1699,0.3604-1.1699,1.02
		c0,1.335,3.7798,1.3052,3.7798,3.6152C496.7866,143.605,495.647,144.25,494.147,144.25z"/>
</g>
<g>
	<g>
		<path fill="#00A551" d="M595.9756,58.2705h1.3799v1.3198h-1.3799V58.2705z M597.2803,69.1001h-1.2295v-7.5747h1.2295V69.1001z"/>
		<path fill="#00A551" d="M603.5195,69.1001v-5.25c0-0.8096-0.2852-1.4697-1.334-1.4697c-1.3506,0-1.5449,1.1997-1.5449,2.2349
			v4.4849h-1.2305v-5.9995c0-0.5254-0.0303-1.0503-0.0752-1.5752h1.3057v0.9751h0.0596c0.4795-0.855,1.0498-1.125,2.0244-1.125
			c1.6201,0,2.0254,0.9751,2.0254,2.4746v5.25H603.5195z"/>
		<path fill="#00A551" d="M607.1348,61.5254v-1.4697c0-1.5303,1.0801-1.8301,2.1758-1.8301c0.2539,0,0.4043,0.0151,0.584,0.0449
			v0.8848c-1.3047-0.0898-1.5293,0.4653-1.5293,1.0801v1.29h1.5293v0.9302h-1.5293v6.6445h-1.2305v-6.6445h-1.1699v-0.9302H607.1348
			z"/>
		<path fill="#00A551" d="M610.8711,65.4253c0-2.2197,0.2539-4.0498,2.8789-4.0498s2.8809,1.8301,2.8809,4.0498
			c0,3.3447-1.2754,3.8247-2.8809,3.8247C612.1455,69.25,610.8711,68.77,610.8711,65.4253z M615.3398,64.9004
			c0-2.0698-0.6445-2.52-1.5898-2.52s-1.5898,0.4502-1.5898,2.52c0,2.46,0.3154,3.3447,1.5898,3.3447
			C615.0254,68.2451,615.3398,67.3604,615.3398,64.9004z"/>
		<path fill="#00A551" d="M619.8555,62.6655h0.0293c0.5107-1.1553,1.1406-1.29,2.3398-1.29v1.2749
			c-0.1045-0.0151-0.2246-0.0303-0.3291-0.0449c-0.1045-0.0151-0.21-0.0303-0.3301-0.0303c-1.3652,0-1.71,1.0352-1.71,2.0552v4.4697
			h-1.2305v-7.5747h1.2305V62.6655z"/>
		<path fill="#00A551" d="M627.2949,69.1001v-5.25c0-0.7646-0.21-1.4697-1.1992-1.4697c-0.375,0-0.8857,0.2251-1.0664,0.5098
			c-0.2246,0.375-0.2842,0.8252-0.2842,1.1104v5.0996h-1.2295v-5.9995c0-0.5254-0.0312-1.0503-0.0762-1.5752h1.3057v0.9448h0.0303
			c0.3594-0.8101,1.0039-1.0947,1.8896-1.0947c0.6904,0,1.4854,0.2847,1.7705,0.9751c0.4199-0.8101,1.1094-0.9751,1.7988-0.9751
			c0.7949,0,2.0703,0.1797,2.0703,1.9648v5.7598h-1.2305v-5.25c0-0.7646-0.209-1.4697-1.1992-1.4697
			c-0.4648,0-0.5996,0.0151-0.9297,0.2852c-0.3604,0.2998-0.4199,1.0498-0.4199,1.335v5.0996H627.2949z"/>
		<path fill="#00A551" d="M636.6396,69.25c-1.6357,0-2.6553-0.7197-2.6104-2.46h1.3955c0,0.4351,0.0146,1.4551,1.2598,1.4551
			c0.7354,0,1.3057-0.375,1.3057-1.1548c0-1.3501-3.7812-1.3799-3.7812-3.645c0-0.7949,0.4805-2.0698,2.6104-2.0698
			c1.3506,0,2.5049,0.645,2.3994,2.145h-1.3643c0.0146-0.7949-0.4053-1.2153-1.1846-1.2153c-0.6602,0-1.1699,0.3604-1.1699,1.02
			c0,1.335,3.7793,1.3052,3.7793,3.6152C639.2793,68.605,638.1396,69.25,636.6396,69.25z"/>
	</g>
</g>
<g>
	<g>
		<path fill="#EC008B" d="M600.04,343.9546c0.0303-1.2446-0.585-1.5747-1.0498-1.5747c-0.9453,0-1.5898,0.4502-1.5898,2.52
			c0,2.46,0.3145,3.3447,1.5898,3.3447c0.2852,0,1.1396-0.2998,1.0947-1.665h1.29c0.0449,2.1299-1.5449,2.6699-2.3848,2.6699
			c-1.6055,0-2.8809-0.48-2.8809-3.8247c0-2.2197,0.2559-4.0498,2.8809-4.0498c1.5146,0,2.3994,0.8848,2.3242,2.5796H600.04z"/>
		<path fill="#EC008B" d="M607.4805,348.0049h-0.0312c-0.375,0.8696-0.959,1.2446-1.9043,1.2446
			c-1.6055,0-2.0703-1.0347-2.0703-2.4897c0-2.2949,2.25-2.3999,3.9746-2.355c0.0312-1.0049,0.0449-2.1001-1.2744-2.1001
			c-0.8252,0-1.2598,0.5552-1.1846,1.3501h-1.3359c0.0605-1.6948,0.9609-2.2798,2.5654-2.2798c1.9502,0,2.46,1.0049,2.46,2.2798
			v3.645c0,0.6001,0.0605,1.2148,0.1504,1.7998h-1.3496V348.0049z M604.7051,346.8496c0,0.7349,0.3594,1.395,1.1846,1.395
			c0.75,0,1.6807-0.4648,1.5596-2.9097C606.2793,345.3496,604.7051,345.2446,604.7051,346.8496z"/>
		<path fill="#EC008B" d="M615.1895,349.0996v-5.25c0-0.8096-0.2852-1.4697-1.334-1.4697c-1.3506,0-1.5449,1.1997-1.5449,2.2349
			v4.4849h-1.2305v-5.9995c0-0.5254-0.0303-1.0503-0.0752-1.5752h1.3057V342.5h0.0596c0.4795-0.855,1.0498-1.125,2.0244-1.125
			c1.6201,0,2.0254,0.9751,2.0254,2.4746v5.25H615.1895z"/>
		<path fill="#EC008B" d="M625.8096,348.0049h-0.0303c-0.375,0.8696-0.96,1.2446-1.9043,1.2446
			c-1.6055,0-2.0703-1.0347-2.0703-2.4897c0-2.2949,2.25-2.3999,3.9746-2.355c0.0303-1.0049,0.0449-2.1001-1.2754-2.1001
			c-0.8242,0-1.2598,0.5552-1.1846,1.3501h-1.335c0.0605-1.6948,0.96-2.2798,2.5645-2.2798c1.9512,0,2.4609,1.0049,2.4609,2.2798
			v3.645c0,0.6001,0.0596,1.2148,0.1494,1.7998h-1.3496V348.0049z M623.0352,346.8496c0,0.7349,0.3594,1.395,1.1836,1.395
			c0.75,0,1.6807-0.4648,1.5605-2.9097C624.6094,345.3496,623.0352,345.2446,623.0352,346.8496z"/>
		<path fill="#EC008B" d="M629.6348,341.5249v-1.4697c0-1.5303,1.0801-1.8301,2.1748-1.8301c0.2549,0,0.4053,0.0151,0.585,0.0449
			v0.8848c-1.3047-0.0898-1.5303,0.4653-1.5303,1.0801v1.29h1.5303v0.9302h-1.5303v6.6445h-1.2295v-6.6445h-1.1699v-0.9302H629.6348
			z"/>
		<path fill="#EC008B" d="M633.8047,341.5249v-1.4697c0-1.5303,1.0801-1.8301,2.1758-1.8301c0.2539,0,0.4043,0.0151,0.584,0.0449
			v0.8848c-1.3047-0.0898-1.5293,0.4653-1.5293,1.0801v1.29h1.5293v0.9302h-1.5293v6.6445h-1.2305v-6.6445h-1.1699v-0.9302H633.8047
			z"/>
		<path fill="#EC008B" d="M638.9492,345.71c0,2.1147,0.5703,2.5347,1.5312,2.5347c0.8398,0,1.2744-0.6748,1.3193-1.4399h1.3496
			c-0.0146,1.6802-1.0498,2.4448-2.6396,2.4448c-1.6055,0-2.8799-0.48-2.8799-3.8247c0-2.2197,0.2549-4.0498,2.8799-4.0498
			c2.1602,0,2.6992,1.1851,2.6992,3.6899v0.645H638.9492z M641.9043,344.7798c0-2.2051-0.6152-2.4751-1.5146-2.4751
			c-0.7803,0-1.4248,0.375-1.4404,2.4751H641.9043z"/>
		<path fill="#EC008B" d="M649.21,343.9546c0.0303-1.2446-0.585-1.5747-1.0498-1.5747c-0.9453,0-1.5898,0.4502-1.5898,2.52
			c0,2.46,0.3145,3.3447,1.5898,3.3447c0.2852,0,1.1396-0.2998,1.0947-1.665h1.29c0.0449,2.1299-1.5449,2.6699-2.3848,2.6699
			c-1.6055,0-2.8809-0.48-2.8809-3.8247c0-2.2197,0.2559-4.0498,2.8809-4.0498c1.5146,0,2.3994,0.8848,2.3242,2.5796H649.21z"/>
		<path fill="#EC008B" d="M652.8848,341.5249v-1.4551l1.2305-0.5547v2.0098h1.6494v0.9302h-1.6494v4.6348
			c0,0.48,0,1.0947,1.125,1.0947c0.0898,0,0.2852-0.0298,0.5547-0.0601v0.9453c-0.4053,0.0298-0.8105,0.1196-1.2148,0.1196
			c-1.1699,0-1.6953-0.48-1.6953-1.3496v-5.3848h-1.2441v-0.9302H652.8848z"/>
		<path fill="#EC008B" d="M660.3848,341.5249v-1.4551l1.2305-0.5547v2.0098h1.6494v0.9302h-1.6494v4.6348
			c0,0.48,0,1.0947,1.125,1.0947c0.0898,0,0.2842-0.0298,0.5547-0.0601v0.9453c-0.4053,0.0298-0.8105,0.1196-1.2148,0.1196
			c-1.1699,0-1.6953-0.48-1.6953-1.3496v-5.3848h-1.2451v-0.9302H660.3848z"/>
		<path fill="#EC008B" d="M668.5293,349.0996v-5.1299c0-0.9297-0.2998-1.5898-1.3496-1.5898c-1.2295,0-1.5449,0.9897-1.5449,2.2651
			v4.4546h-1.2295V338.27h1.2295v4.23h0.0596c0.4951-0.8853,1.0654-1.125,2.0557-1.125c1.29,0,2.0098,0.645,2.0098,2.355v5.3696
			H668.5293z"/>
		<path fill="#EC008B" d="M673.1201,345.71c0,2.1147,0.5693,2.5347,1.5293,2.5347c0.8398,0,1.2754-0.6748,1.3203-1.4399h1.3496
			c-0.0146,1.6802-1.0498,2.4448-2.6396,2.4448c-1.6045,0-2.8799-0.48-2.8799-3.8247c0-2.2197,0.2549-4.0498,2.8799-4.0498
			c2.1602,0,2.7002,1.1851,2.7002,3.6899v0.645H673.1201z M676.0742,344.7798c0-2.2051-0.6143-2.4751-1.5146-2.4751
			c-0.7803,0-1.4248,0.375-1.4395,2.4751H676.0742z"/>
	</g>
</g>
<g>
	<g>
		<path fill="#231F20" d="M376.3052,252.5v-10.8296h1.3799v4.6797h3.7944v-4.6797h1.3804V252.5h-1.3804v-4.9497h-3.7944V252.5
			H376.3052z"/>
		<path fill="#231F20" d="M385.0352,248.8252c0-2.2197,0.2549-4.0498,2.8799-4.0498c2.6245,0,2.8799,1.8301,2.8799,4.0498
			c0,3.3447-1.2749,3.8247-2.8799,3.8247S385.0352,252.1699,385.0352,248.8252z M389.5049,248.3003c0-2.0698-0.645-2.52-1.5898-2.52
			c-0.9453,0-1.5898,0.4502-1.5898,2.52c0,2.46,0.3149,3.3447,1.5898,3.3447S389.5049,250.7603,389.5049,248.3003z"/>
		<path fill="#231F20" d="M396.7949,244.9253h1.23v6c0,0.5249,0.0298,1.0498,0.0747,1.5747h-1.3047v-0.915H396.75
			c-0.4053,0.6899-1.125,1.0649-1.9199,1.0649c-1.3203,0-2.04-0.6597-2.04-1.9497v-5.7749h1.23v5.25
			c0,0.9146,0.4199,1.5298,1.29,1.5298c0.6597,0,1.4849-0.4951,1.4849-1.7549V244.9253z"/>
		<path fill="#231F20" d="M402.48,252.6499c-1.6353,0-2.6548-0.7197-2.6099-2.46h1.395c0,0.4351,0.0146,1.4551,1.2598,1.4551
			c0.7349,0,1.3052-0.375,1.3052-1.1548c0-1.3501-3.7803-1.3799-3.7803-3.645c0-0.7949,0.48-2.0698,2.6099-2.0698
			c1.3501,0,2.5054,0.645,2.3999,2.145h-1.3647c0.0151-0.7949-0.4048-1.2153-1.1851-1.2153c-0.6597,0-1.1699,0.3604-1.1699,1.02
			c0,1.335,3.7798,1.3052,3.7798,3.6147C405.1196,252.0049,403.98,252.6499,402.48,252.6499z"/>
		<path fill="#231F20" d="M408.1045,249.1104c0,2.1147,0.5703,2.5347,1.5303,2.5347c0.8398,0,1.2749-0.6748,1.3198-1.4399h1.3501
			c-0.0151,1.6802-1.0503,2.4448-2.6401,2.4448c-1.605,0-2.8799-0.48-2.8799-3.8247c0-2.2197,0.2549-4.0498,2.8799-4.0498
			c2.1597,0,2.6997,1.1851,2.6997,3.6899v0.645H408.1045z M411.0596,248.1802c0-2.2051-0.6152-2.4751-1.5151-2.4751
			c-0.7798,0-1.4248,0.375-1.4399,2.4751H411.0596z"/>
	</g>
</g>
<g>
	<g>
		<path fill="#EC008B" d="M545.5801,393.2705h3.7803c2.9697,0,3.5244,1.98,3.5244,5.355c0,1.6646,0.2554,5.4746-3.6147,5.4746
			h-3.6899V393.2705z M547.8452,402.4351h1.0947c1.3804,0,1.6499-1.0347,1.6499-3.7495c0-1.9951,0-3.75-1.5747-3.75h-1.1699
			V402.4351z"/>
		<path fill="#EC008B" d="M556.8901,393.2705v1.665h-2.1147v-1.665H556.8901z M556.8901,404.1001h-2.1147v-7.5747h2.1147V404.1001z"
			/>
		<path fill="#EC008B" d="M560.4302,401.6704c-0.0151,0.3447,0,0.6748,0.105,0.9146c0.1201,0.2402,0.3452,0.3604,0.7651,0.3604
			s0.7798-0.27,0.7798-0.7803c0-1.605-3.7197-1.2446-3.7197-3.6597c0-1.6348,1.6196-2.1299,2.9849-2.1299
			c1.4399,0,2.7446,0.6899,2.625,2.3247h-2.0703c0-0.5249-0.0596-0.8398-0.21-0.9746c-0.1348-0.1353-0.3149-0.165-0.5396-0.165
			c-0.4653,0-0.7202,0.2998-0.7202,0.8096c0,1.2002,3.7197,1.1401,3.7197,3.5703c0,1.3198-1.0796,2.3096-2.835,2.3096
			c-1.8447,0-3.0747-0.4648-2.9546-2.5796H560.4302z"/>
		<path fill="#EC008B" d="M564.5698,396.5254h0.855v-1.1997l2.1152-0.9453v2.145h1.0947v1.3052H567.54v4.0498
			c0,0.5698-0.0151,0.9448,0.6748,0.9448c0.1348,0,0.27,0,0.375-0.0303v1.3052c-0.2852,0.0298-0.585,0.0752-1.0952,0.0752
			c-1.8296,0-2.0698-1.2153-2.0698-1.6802v-4.6646h-0.855V396.5254z"/>
		<path fill="#EC008B" d="M573.2998,403.335h-0.0303c-0.21,0.3301-0.4497,0.5703-0.75,0.7051
			c-0.2998,0.1499-0.6299,0.21-1.0347,0.21c-1.0049,0-1.8901-0.6001-1.8901-1.6499v-6.0747h2.1152v5.25
			c0,0.6748,0.1196,1.1699,0.7949,1.1699c0.6748,0,0.7949-0.4951,0.7949-1.1699v-5.25h2.1147v6.0747
			c0,0.4951,0.0303,1.0049,0.0752,1.5h-2.1899V403.335z"/>
		<path fill="#EC008B" d="M579.105,396.5254v0.9751h0.0298c0.3901-0.8701,1.1099-1.125,1.9648-1.125v1.8896
			c-1.8599-0.1196-1.8896,0.96-1.8896,1.71v4.125h-2.1152v-7.5747H579.105z"/>
		<path fill="#EC008B" d="M582.0898,393.2705h2.1152v3.9751h0.0298c0.4351-0.645,0.96-0.8701,1.7251-0.8701
			c2.1299,0,2.0693,2.355,2.0693,3.8848c0,1.5601,0.0752,3.9897-2.1143,3.9897c-0.8101,0-1.395-0.2549-1.7852-0.9897h-0.0298v0.8398
			h-2.0103V393.2705z M585.96,400.2451c0-1.5146,0.0146-2.5649-0.8999-2.5649c-0.8701,0-0.855,1.0503-0.855,2.5649
			c0,1.9053,0.1348,2.7002,0.855,2.7002C585.8247,402.9453,585.96,402.1504,585.96,400.2451z"/>
		<path fill="#EC008B" d="M595.335,402.6899c0,0.4653,0.0596,0.9453,0.1045,1.4102h-1.9648l-0.0898-1.0049h-0.0293
			c-0.4512,0.7798-1.0654,1.1548-1.9805,1.1548c-1.4707,0-2.0098-1.0947-2.0098-2.415c0-2.5049,1.9346-2.6099,3.8994-2.5796v-0.585
			c0-0.645-0.0898-1.1099-0.8545-1.1099c-0.7354,0-0.7949,0.5547-0.7949,1.1548h-2.0703c0-0.915,0.2852-1.5,0.7793-1.8447
			c0.4805-0.3604,1.1709-0.4951,1.9805-0.4951c2.6855,0,3.0303,1.1548,3.0303,2.5347V402.6899z M591.4355,401.7451
			c0,0.54,0.0898,1.2002,0.7793,1.2002c1.2451,0,1.0498-1.6802,1.0498-2.5049C592.2148,400.4854,591.4355,400.395,591.4355,401.7451
			z"/>
		<path fill="#EC008B" d="M599.2051,397.2905h0.0293c0.2109-0.3452,0.4648-0.5703,0.75-0.7051
			c0.3008-0.1499,0.6455-0.21,1.0352-0.21c1.0059,0,1.8906,0.6001,1.8906,1.6499v6.0747h-2.1152v-5.2197
			c0-0.6748-0.1201-1.2002-0.7949-1.2002c-0.6758,0-0.7949,0.5254-0.7949,1.2002v5.2197h-2.1152v-7.5747h2.1152V397.2905z"/>
		<path fill="#EC008B" d="M608.4453,399.2251c0-1.1245-0.2852-1.4995-0.9453-1.4995c-0.9004,0-0.9746,0.7949-0.9746,2.3696
			c0,2.3101,0.1943,2.8052,0.9746,2.8052c0.6602,0,0.9746-0.6001,0.9746-1.5903h2.1152c0,2.0552-1.1094,2.9399-3.0898,2.9399
			c-2.7305,0-3.0898-1.665-3.0898-4.0347c0-2.0698,0.2998-3.8398,3.0898-3.8398c1.9492,0,3.0596,0.8701,3.0596,2.8496H608.4453z"/>
		<path fill="#EC008B" d="M614.04,400.6504c0,0.8999,0.0303,2.25,0.96,2.25c0.75,0,0.9004-0.7202,0.9004-1.3501h2.1445
			c-0.0303,0.8247-0.3008,1.5-0.8105,1.9648c-0.4941,0.4648-1.2441,0.7349-2.2344,0.7349c-2.7305,0-3.0898-1.665-3.0898-4.0347
			c0-2.0698,0.2998-3.8398,3.0898-3.8398c2.8496,0,3.1641,1.8447,3.0898,4.2749H614.04z M615.9746,399.4653
			c0-0.7349,0.0303-1.7852-0.9746-1.7852c-0.9746,0-0.96,1.1401-0.96,1.7852H615.9746z"/>
		<path fill="#EC008B" d="M621.2549,401.6704c-0.0146,0.3447,0,0.6748,0.1045,0.9146c0.1211,0.2402,0.3457,0.3604,0.7656,0.3604
			s0.7793-0.27,0.7793-0.7803c0-1.605-3.7188-1.2446-3.7188-3.6597c0-1.6348,1.6191-2.1299,2.9844-2.1299
			c1.4395,0,2.7441,0.6899,2.625,2.3247h-2.0703c0-0.5249-0.0596-0.8398-0.21-0.9746c-0.1348-0.1353-0.3154-0.165-0.54-0.165
			c-0.4648,0-0.7197,0.2998-0.7197,0.8096c0,1.2002,3.7197,1.1401,3.7197,3.5703c0,1.3198-1.0801,2.3096-2.835,2.3096
			c-1.8447,0-3.0752-0.4648-2.9541-2.5796H621.2549z"/>
		<path fill="#EC008B" d="M497.5059,424.25c-1.6348,0-2.6548-0.7197-2.6099-2.46h1.395c0,0.4351,0.0146,1.4551,1.2598,1.4551
			c0.7349,0,1.3052-0.375,1.3052-1.1548c0-1.3501-3.7803-1.3799-3.7803-3.645c0-0.7949,0.48-2.0698,2.6099-2.0698
			c1.3501,0,2.5049,0.645,2.3999,2.145h-1.3647c0.0151-0.7949-0.4048-1.2153-1.1851-1.2153c-0.6597,0-1.1699,0.3604-1.1699,1.02
			c0,1.335,3.7798,1.3052,3.7798,3.6152C500.1455,423.605,499.0059,424.25,497.5059,424.25z"/>
		<path fill="#EC008B" d="M505.981,416.5254h1.23v6c0,0.5249,0.0298,1.0498,0.0747,1.5747h-1.3047v-0.915h-0.0449
			c-0.4053,0.6899-1.125,1.0649-1.9199,1.0649c-1.3203,0-2.04-0.6597-2.04-1.9497v-5.7749h1.23v5.25
			c0,0.9146,0.4199,1.5298,1.29,1.5298c0.6597,0,1.4849-0.4951,1.4849-1.7549V416.5254z"/>
		<path fill="#EC008B" d="M513.3906,418.9551c0.0303-1.2446-0.585-1.5747-1.0498-1.5747c-0.9448,0-1.5898,0.4502-1.5898,2.52
			c0,2.46,0.3149,3.3447,1.5898,3.3447c0.2852,0,1.1401-0.2998,1.0952-1.665h1.2896c0.0454,2.1299-1.5449,2.6699-2.3848,2.6699
			c-1.605,0-2.8799-0.48-2.8799-3.8247c0-2.2197,0.2549-4.0498,2.8799-4.0498c1.5151,0,2.3999,0.8848,2.3252,2.5796H513.3906z"/>
		<path fill="#EC008B" d="M521.041,424.1001v-5.1299c0-0.9297-0.3003-1.5898-1.3501-1.5898c-1.23,0-1.5449,0.9897-1.5449,2.2651
			v4.4546h-1.23v-10.8296h1.23v4.23h0.0601c0.4951-0.8853,1.0649-1.125,2.0547-1.125c1.29,0,2.0103,0.645,2.0103,2.355v5.3696
			H521.041z"/>
		<path fill="#EC008B" d="M531.6606,423.0054h-0.0303c-0.375,0.8696-0.96,1.2446-1.9048,1.2446
			c-1.605,0-2.0698-1.0347-2.0698-2.4897c0-2.2949,2.25-2.3999,3.9746-2.355c0.0303-1.0049,0.0449-2.1001-1.2749-2.1001
			c-0.8247,0-1.2598,0.5552-1.1851,1.3501h-1.335c0.0601-1.6948,0.96-2.2798,2.5649-2.2798c1.9502,0,2.46,1.0049,2.46,2.2798v3.645
			c0,0.6001,0.0601,1.2148,0.1499,1.7998h-1.3496V423.0054z M528.8857,421.8501c0,0.7349,0.3599,1.395,1.1846,1.395
			c0.75,0,1.6802-0.4648,1.5601-2.9097C530.4604,420.3501,528.8857,420.2451,528.8857,421.8501z"/>
		<path fill="#EC008B" d="M537.4956,424.25c-1.6353,0-2.6548-0.7197-2.6099-2.46h1.395c0,0.4351,0.0146,1.4551,1.2598,1.4551
			c0.7349,0,1.3052-0.375,1.3052-1.1548c0-1.3501-3.7803-1.3799-3.7803-3.645c0-0.7949,0.48-2.0698,2.6099-2.0698
			c1.3501,0,2.5054,0.645,2.3999,2.145h-1.3647c0.0151-0.7949-0.4048-1.2153-1.1851-1.2153c-0.6597,0-1.1699,0.3604-1.1699,1.02
			c0,1.335,3.7798,1.3052,3.7798,3.6152C540.1353,423.605,538.9956,424.25,537.4956,424.25z"/>
		<path fill="#EC008B" d="M545.3853,416.5254v-1.4551l1.23-0.5547v2.0098h1.6499v0.9302h-1.6499v4.6348
			c0,0.48,0,1.0947,1.125,1.0947c0.0898,0,0.2852-0.0298,0.5552-0.0601v0.9453c-0.4053,0.0298-0.8101,0.1196-1.2153,0.1196
			c-1.1699,0-1.6948-0.48-1.6948-1.3496v-5.3848h-1.2446v-0.9302H545.3853z"/>
		<path fill="#EC008B" d="M550.6201,420.7104c0,2.1147,0.5703,2.5347,1.5303,2.5347c0.8398,0,1.2749-0.6748,1.3198-1.4399h1.3501
			c-0.0151,1.6802-1.0503,2.4448-2.6401,2.4448c-1.605,0-2.8799-0.48-2.8799-3.8247c0-2.2197,0.2549-4.0498,2.8799-4.0498
			c2.1597,0,2.6997,1.1851,2.6997,3.6899v0.645H550.6201z M553.5752,419.7803c0-2.2051-0.6152-2.4751-1.5151-2.4751
			c-0.7798,0-1.4248,0.375-1.4399,2.4751H553.5752z"/>
		<path fill="#EC008B" d="M560.6401,424.1001v-5.25c0-0.7646-0.21-1.4697-1.1997-1.4697c-0.375,0-0.8853,0.2251-1.0654,0.5098
			c-0.2246,0.375-0.2847,0.8252-0.2847,1.1104v5.0996h-1.23v-5.9995c0-0.5254-0.0303-1.0503-0.0752-1.5752h1.3052v0.9448h0.0298
			c0.3604-0.8101,1.0049-1.0947,1.8901-1.0947c0.6899,0,1.4849,0.2847,1.77,0.9751c0.4199-0.8101,1.1099-0.9751,1.7998-0.9751
			c0.7949,0,2.0698,0.1797,2.0698,1.9648v5.7598h-1.23v-5.25c0-0.7646-0.21-1.4697-1.1997-1.4697
			c-0.4653,0-0.6001,0.0151-0.9302,0.2852c-0.3599,0.2998-0.4199,1.0498-0.4199,1.335v5.0996H560.6401z"/>
		<path fill="#EC008B" d="M569.085,417.4253h0.0298c0.4199-0.7051,0.9448-1.0498,1.7402-1.0498c1.2148,0,2.4448,0.48,2.4448,3.8096
			c0,1.8901-0.0601,4.0649-2.5049,4.0649c-0.7202,0-1.2451-0.3149-1.665-0.915h-0.0449v3.6299h-1.23v-10.4395h1.23V417.4253z
			 M572.0098,420.1851c0-1.1396,0-2.8047-1.5449-2.8047c-1.5151,0-1.3799,2.1001-1.3799,3.2549
			c0,1.0049,0.0601,2.6099,1.4248,2.6099C571.8296,423.2451,572.0098,422.21,572.0098,420.1851z"/>
		<path fill="#EC008B" d="M576.4497,420.7104c0,2.1147,0.5703,2.5347,1.5303,2.5347c0.8398,0,1.2749-0.6748,1.3198-1.4399h1.3496
			c-0.0146,1.6802-1.0498,2.4448-2.6396,2.4448c-1.605,0-2.8799-0.48-2.8799-3.8247c0-2.2197,0.2549-4.0498,2.8799-4.0498
			c2.1602,0,2.6997,1.1851,2.6997,3.6899v0.645H576.4497z M579.4048,419.7803c0-2.2051-0.6152-2.4751-1.5151-2.4751
			c-0.7798,0-1.4248,0.375-1.4399,2.4751H579.4048z"/>
		<path fill="#EC008B" d="M584.0249,417.6655h0.0298c0.5103-1.1553,1.1401-1.29,2.3398-1.29v1.2749
			c-0.1055-0.0151-0.2246-0.0303-0.3301-0.0449c-0.1045-0.0151-0.2095-0.0303-0.3296-0.0303c-1.3652,0-1.71,1.0352-1.71,2.0552
			v4.4697h-1.23v-7.5747h1.23V417.6655z"/>
		<path fill="#EC008B" d="M591.6445,423.0054h-0.0293c-0.375,0.8696-0.9609,1.2446-1.9053,1.2446
			c-1.6045,0-2.0693-1.0347-2.0693-2.4897c0-2.2949,2.25-2.3999,3.9746-2.355c0.0293-1.0049,0.0449-2.1001-1.2754-2.1001
			c-0.8242,0-1.2598,0.5552-1.1855,1.3501h-1.334c0.0596-1.6948,0.959-2.2798,2.5645-2.2798c1.9502,0,2.46,1.0049,2.46,2.2798v3.645
			c0,0.6001,0.0596,1.2148,0.1494,1.7998h-1.3496V423.0054z M588.8701,421.8501c0,0.7349,0.3604,1.395,1.1846,1.395
			c0.75,0,1.6797-0.4648,1.5605-2.9097C590.4453,420.3501,588.8701,420.2451,588.8701,421.8501z"/>
		<path fill="#EC008B" d="M595.3799,416.5254v-1.4551l1.2295-0.5547v2.0098h1.6504v0.9302h-1.6504v4.6348
			c0,0.48,0,1.0947,1.125,1.0947c0.0898,0,0.2852-0.0298,0.5557-0.0601v0.9453c-0.4053,0.0298-0.8096,0.1196-1.2158,0.1196
			c-1.1699,0-1.6943-0.48-1.6943-1.3496v-5.3848h-1.2451v-0.9302H595.3799z"/>
		<path fill="#EC008B" d="M603.4648,416.5254h1.2305v6c0,0.5249,0.0293,1.0498,0.0742,1.5747h-1.3047v-0.915h-0.0449
			c-0.4053,0.6899-1.125,1.0649-1.9199,1.0649c-1.3203,0-2.04-0.6597-2.04-1.9497v-5.7749h1.2295v5.25
			c0,0.9146,0.4199,1.5298,1.291,1.5298c0.6592,0,1.4844-0.4951,1.4844-1.7549V416.5254z"/>
		<path fill="#EC008B" d="M608.1895,417.6655h0.0303c0.5107-1.1553,1.1396-1.29,2.3398-1.29v1.2749
			c-0.1045-0.0151-0.2246-0.0303-0.3291-0.0449c-0.1055-0.0151-0.2109-0.0303-0.3301-0.0303c-1.3652,0-1.7109,1.0352-1.7109,2.0552
			v4.4697H606.96v-7.5747h1.2295V417.6655z"/>
		<path fill="#EC008B" d="M613.1094,420.7104c0,2.1147,0.5703,2.5347,1.5303,2.5347c0.8398,0,1.2744-0.6748,1.3193-1.4399h1.3506
			c-0.0146,1.6802-1.0498,2.4448-2.6396,2.4448c-1.6055,0-2.8809-0.48-2.8809-3.8247c0-2.2197,0.2559-4.0498,2.8809-4.0498
			c2.1592,0,2.6992,1.1851,2.6992,3.6899v0.645H613.1094z M616.0645,419.7803c0-2.2051-0.6152-2.4751-1.5156-2.4751
			c-0.7793,0-1.4238,0.375-1.4395,2.4751H616.0645z"/>
		<path fill="#EC008B" d="M626.7441,416.5254h1.2305v8.3398c0,1.6948-1.125,2.0996-2.79,2.0996
			c-1.2598,0-2.3994-0.6299-2.2949-2.0249h1.3799c0.0156,0.7051,0.4805,1.0952,1.1543,1.0952c0.8555,0,1.3203-0.5249,1.3203-1.3052
			v-1.5747h-0.0449c-0.3145,0.5996-1.0049,0.9448-1.6641,0.9448c-2.0557,0-2.4609-1.77-2.4609-4.02
			c0-3.4795,1.7559-3.7046,2.3701-3.7046c0.7949,0,1.4248,0.3447,1.7705,1.0801h0.0293V416.5254z M625.3047,417.3955
			c-1.3945,0-1.4395,1.6797-1.4395,2.6846c0,2.4302,0.5547,3,1.4688,3c1.4854,0,1.4404-1.7549,1.4404-2.8047
			C626.7744,419.1504,626.8496,417.3955,625.3047,417.3955z"/>
		<path fill="#EC008B" d="M634.1396,423.0054h-0.0303c-0.375,0.8696-0.96,1.2446-1.9043,1.2446
			c-1.6055,0-2.0703-1.0347-2.0703-2.4897c0-2.2949,2.25-2.3999,3.9746-2.355c0.0303-1.0049,0.0449-2.1001-1.2754-2.1001
			c-0.8242,0-1.2598,0.5552-1.1846,1.3501h-1.335c0.0605-1.6948,0.96-2.2798,2.5645-2.2798c1.9512,0,2.4609,1.0049,2.4609,2.2798
			v3.645c0,0.6001,0.0596,1.2148,0.1494,1.7998h-1.3496V423.0054z M631.3652,421.8501c0,0.7349,0.3594,1.395,1.1836,1.395
			c0.75,0,1.6807-0.4648,1.5605-2.9097C632.9395,420.3501,631.3652,420.2451,631.3652,421.8501z"/>
		<path fill="#EC008B" d="M637.6348,413.2705h1.3799v1.3198h-1.3799V413.2705z M638.9395,424.1001h-1.2305v-7.5747h1.2305V424.1001z
			"/>
		<path fill="#EC008B" d="M645.1797,424.1001v-5.25c0-0.8096-0.2852-1.4697-1.3359-1.4697c-1.3496,0-1.5449,1.1997-1.5449,2.2349
			v4.4849h-1.2295v-5.9995c0-0.5254-0.0303-1.0503-0.0752-1.5752h1.3047v0.9751h0.0605c0.4805-0.855,1.0498-1.125,2.0254-1.125
			c1.6191,0,2.0244,0.9751,2.0244,2.4746v5.25H645.1797z"/>
		<path fill="#EC008B" d="M648.1348,425.54h-1.0059l3.5254-12.2695h1.0049L648.1348,425.54z"/>
		<path fill="#EC008B" d="M653.9395,424.1001h-1.2305v-10.8296h1.2305V424.1001z"/>
		<path fill="#EC008B" d="M655.8594,420.4253c0-2.2197,0.2549-4.0498,2.8799-4.0498s2.8799,1.8301,2.8799,4.0498
			c0,3.3447-1.2754,3.8247-2.8799,3.8247C657.1338,424.25,655.8594,423.77,655.8594,420.4253z M660.3291,419.9004
			c0-2.0698-0.6455-2.52-1.5898-2.52c-0.9453,0-1.5898,0.4502-1.5898,2.52c0,2.46,0.3145,3.3447,1.5898,3.3447
			C660.0137,423.2451,660.3291,422.3604,660.3291,419.9004z"/>
		<path fill="#EC008B" d="M665.8037,424.25c-1.6348,0-2.6543-0.7197-2.6094-2.46h1.3945c0,0.4351,0.0156,1.4551,1.2607,1.4551
			c0.7344,0,1.3047-0.375,1.3047-1.1548c0-1.3501-3.7803-1.3799-3.7803-3.645c0-0.7949,0.4805-2.0698,2.6104-2.0698
			c1.3496,0,2.5049,0.645,2.3994,2.145h-1.3643c0.0146-0.7949-0.4053-1.2153-1.1855-1.2153c-0.6602,0-1.1699,0.3604-1.1699,1.02
			c0,1.335,3.7803,1.3052,3.7803,3.6152C668.4443,423.605,667.3037,424.25,665.8037,424.25z"/>
		<path fill="#EC008B" d="M672.4629,424.25c-1.6348,0-2.6543-0.7197-2.6094-2.46h1.3945c0,0.4351,0.0156,1.4551,1.2598,1.4551
			c0.7354,0,1.3057-0.375,1.3057-1.1548c0-1.3501-3.7803-1.3799-3.7803-3.645c0-0.7949,0.4805-2.0698,2.6104-2.0698
			c1.3496,0,2.5049,0.645,2.3994,2.145h-1.3643c0.0146-0.7949-0.4053-1.2153-1.1855-1.2153c-0.6602,0-1.1699,0.3604-1.1699,1.02
			c0,1.335,3.7803,1.3052,3.7803,3.6152C675.1035,423.605,673.9629,424.25,672.4629,424.25z"/>
		<path fill="#EC008B" d="M677.0986,422.54h1.5449l-1.3652,3.4648h-0.96L677.0986,422.54z"/>
		<path fill="#EC008B" d="M467.0117,440.4253c0-2.2197,0.2549-4.0498,2.8799-4.0498c2.6245,0,2.8799,1.8301,2.8799,4.0498
			c0,3.3447-1.2749,3.8247-2.8799,3.8247S467.0117,443.77,467.0117,440.4253z M471.4814,439.9004c0-2.0698-0.645-2.52-1.5898-2.52
			c-0.9453,0-1.5898,0.4502-1.5898,2.52c0,2.46,0.3149,3.3447,1.5898,3.3447S471.4814,442.3604,471.4814,439.9004z"/>
		<path fill="#EC008B" d="M476.0566,437.4253h0.0298c0.4199-0.7051,0.9448-1.0498,1.7402-1.0498c1.2148,0,2.4448,0.48,2.4448,3.8096
			c0,1.8901-0.0601,4.0649-2.5049,4.0649c-0.7202,0-1.2451-0.3149-1.665-0.915h-0.0449v3.6299h-1.23v-10.4395h1.23V437.4253z
			 M478.9814,440.1851c0-1.1396,0-2.8047-1.5449-2.8047c-1.5151,0-1.3799,2.1001-1.3799,3.2549
			c0,1.0049,0.0601,2.6099,1.4248,2.6099C478.8013,443.2451,478.9814,442.21,478.9814,440.1851z"/>
		<path fill="#EC008B" d="M483.4214,440.7104c0,2.1147,0.5703,2.5347,1.5303,2.5347c0.8398,0,1.2749-0.6748,1.3198-1.4399h1.3496
			c-0.0146,1.6802-1.0498,2.4448-2.6396,2.4448c-1.605,0-2.8799-0.48-2.8799-3.8247c0-2.2197,0.2549-4.0498,2.8799-4.0498
			c2.1602,0,2.6997,1.1851,2.6997,3.6899v0.645H483.4214z M486.3765,439.7803c0-2.2051-0.6152-2.4751-1.5151-2.4751
			c-0.7798,0-1.4248,0.375-1.4399,2.4751H486.3765z"/>
		<path fill="#EC008B" d="M493.8315,444.1001v-5.25c0-0.8096-0.2852-1.4697-1.335-1.4697c-1.3501,0-1.5449,1.1997-1.5449,2.2349
			v4.4849h-1.23v-5.9995c0-0.5254-0.0303-1.0503-0.0752-1.5752h1.3052v0.9751h0.0601c0.48-0.855,1.0498-1.125,2.0249-1.125
			c1.6196,0,2.0249,0.9751,2.0249,2.4746v5.25H493.8315z"/>
		<path fill="#EC008B" d="M504.5562,433.2705h1.23v10.8296h-1.23v-0.8999h-0.0303c-0.4199,0.7051-0.9448,1.0498-1.7397,1.0498
			c-1.2148,0-2.4448-0.48-2.4448-3.8096c0-1.8901,0.0601-4.0649,2.5049-4.0649c0.7197,0,1.2446,0.3149,1.6646,0.915h0.0454V433.2705
			z M503.1309,437.3804c-1.3198,0-1.5,1.0498-1.5,3.0747c0,1.1401,0,2.79,1.5454,2.79c1.3799,0,1.3799-1.71,1.3799-3.2397
			C504.5562,439.0005,504.4961,437.3804,503.1309,437.3804z"/>
		<path fill="#EC008B" d="M507.8413,440.4253c0-2.2197,0.2549-4.0498,2.8799-4.0498c2.6245,0,2.8799,1.8301,2.8799,4.0498
			c0,3.3447-1.2749,3.8247-2.8799,3.8247S507.8413,443.77,507.8413,440.4253z M512.311,439.9004c0-2.0698-0.645-2.52-1.5898-2.52
			c-0.9453,0-1.5903,0.4502-1.5903,2.52c0,2.46,0.3154,3.3447,1.5903,3.3447S512.311,442.3604,512.311,439.9004z"/>
		<path fill="#EC008B" d="M515.3413,440.4253c0-2.2197,0.2549-4.0498,2.8799-4.0498c2.6245,0,2.8799,1.8301,2.8799,4.0498
			c0,3.3447-1.2749,3.8247-2.8799,3.8247S515.3413,443.77,515.3413,440.4253z M519.811,439.9004c0-2.0698-0.645-2.52-1.5898-2.52
			c-0.9453,0-1.5903,0.4502-1.5903,2.52c0,2.46,0.3154,3.3447,1.5903,3.3447S519.811,442.3604,519.811,439.9004z"/>
		<path fill="#EC008B" d="M524.3262,437.6655h0.0298c0.5103-1.1553,1.1401-1.29,2.3398-1.29v1.2749
			c-0.105-0.0151-0.2246-0.0303-0.3296-0.0449c-0.105-0.0151-0.21-0.0303-0.3301-0.0303c-1.3652,0-1.71,1.0352-1.71,2.0552v4.4697
			h-1.23v-7.5747h1.23V437.6655z"/>
		<path fill="#EC008B" d="M527.6113,445.54h-1.0049l3.5249-12.2695h1.0049L527.6113,445.54z"/>
		<path fill="#EC008B" d="M531.271,436.5254h1.3652l1.3647,6.5249h0.0303l1.6797-6.5249h1.7402l1.5449,6.5249h0.0298l1.5-6.5249
			h1.3047l-2.0249,7.5747h-1.6499l-1.6196-6.4497h-0.0303l-1.6948,6.4497h-1.6499L531.271,436.5254z"/>
		<path fill="#EC008B" d="M542.9409,433.2705h1.3799v1.3198h-1.3799V433.2705z M544.2456,444.1001h-1.23v-7.5747h1.23V444.1001z"/>
		<path fill="#EC008B" d="M550.4858,444.1001v-5.25c0-0.8096-0.2852-1.4697-1.335-1.4697c-1.3501,0-1.5449,1.1997-1.5449,2.2349
			v4.4849h-1.23v-5.9995c0-0.5254-0.0303-1.0503-0.0752-1.5752h1.3052v0.9751h0.0601c0.48-0.855,1.0498-1.125,2.0249-1.125
			c1.6196,0,2.0249,0.9751,2.0249,2.4746v5.25H550.4858z"/>
		<path fill="#EC008B" d="M557.8809,433.2705h1.23v10.8296h-1.23v-0.8999h-0.0303c-0.4199,0.7051-0.9448,1.0498-1.7397,1.0498
			c-1.2148,0-2.4448-0.48-2.4448-3.8096c0-1.8901,0.0601-4.0649,2.5049-4.0649c0.7197,0,1.2446,0.3149,1.665,0.915h0.0449V433.2705z
			 M556.4556,437.3804c-1.3198,0-1.4995,1.0498-1.4995,3.0747c0,1.1401,0,2.79,1.5449,2.79c1.3799,0,1.3799-1.71,1.3799-3.2397
			C557.8809,439.0005,557.8208,437.3804,556.4556,437.3804z"/>
		<path fill="#EC008B" d="M561.166,440.4253c0-2.2197,0.2549-4.0498,2.8799-4.0498c2.6245,0,2.8799,1.8301,2.8799,4.0498
			c0,3.3447-1.2749,3.8247-2.8799,3.8247S561.166,443.77,561.166,440.4253z M565.6357,439.9004c0-2.0698-0.645-2.52-1.5898-2.52
			c-0.9453,0-1.5898,0.4502-1.5898,2.52c0,2.46,0.3149,3.3447,1.5898,3.3447S565.6357,442.3604,565.6357,439.9004z"/>
		<path fill="#EC008B" d="M567.9307,436.5254h1.3652l1.3647,6.5249h0.0303l1.6797-6.5249h1.7402l1.5449,6.5249h0.0298l1.5-6.5249
			h1.3047l-2.0249,7.5747h-1.6499l-1.6196-6.4497h-0.0303l-1.6948,6.4497h-1.6499L567.9307,436.5254z"/>
		<path fill="#EC008B" d="M579.3608,442.54h1.5449l-1.3652,3.4648h-0.96L579.3608,442.54z"/>
		<path fill="#EC008B" d="M589.5303,444.1001v-5.25c0-0.7646-0.21-1.4697-1.2002-1.4697c-0.375,0-0.8848,0.2251-1.0645,0.5098
			c-0.2246,0.375-0.2852,0.8252-0.2852,1.1104v5.0996h-1.23v-5.9995c0-0.5254-0.0303-1.0503-0.0752-1.5752h1.3052v0.9448h0.0293
			c0.3604-0.8101,1.0059-1.0947,1.8906-1.0947c0.6895,0,1.4844,0.2847,1.7695,0.9751c0.4199-0.8101,1.1104-0.9751,1.8008-0.9751
			c0.7949,0,2.0693,0.1797,2.0693,1.9648v5.7598h-1.2295v-5.25c0-0.7646-0.2109-1.4697-1.2002-1.4697
			c-0.4658,0-0.6006,0.0151-0.9307,0.2852c-0.3594,0.2998-0.4199,1.0498-0.4199,1.335v5.0996H589.5303z"/>
		<path fill="#EC008B" d="M600.54,443.0054h-0.0303c-0.375,0.8696-0.96,1.2446-1.9043,1.2446c-1.6055,0-2.0703-1.0347-2.0703-2.4897
			c0-2.2949,2.25-2.3999,3.9746-2.355c0.0303-1.0049,0.0449-2.1001-1.2754-2.1001c-0.8242,0-1.2598,0.5552-1.1846,1.3501h-1.335
			c0.0605-1.6948,0.96-2.2798,2.5645-2.2798c1.9512,0,2.4609,1.0049,2.4609,2.2798v3.645c0,0.6001,0.0596,1.2148,0.1494,1.7998
			H600.54V443.0054z M597.7656,441.8501c0,0.7349,0.3594,1.395,1.1836,1.395c0.75,0,1.6807-0.4648,1.5605-2.9097
			C599.3398,440.3501,597.7656,440.2451,597.7656,441.8501z"/>
		<path fill="#EC008B" d="M608.25,444.1001v-5.25c0-0.8096-0.2852-1.4697-1.335-1.4697c-1.3506,0-1.5449,1.1997-1.5449,2.2349
			v4.4849h-1.2295v-5.9995c0-0.5254-0.0312-1.0503-0.0762-1.5752h1.3057v0.9751h0.0596c0.4805-0.855,1.0508-1.125,2.0254-1.125
			c1.6191,0,2.0254,0.9751,2.0254,2.4746v5.25H608.25z"/>
		<path fill="#EC008B" d="M613.9199,442.6899h0.0293l1.8154-6.1646h1.335l-3.4346,10.4395h-1.2744l0.8545-2.8647l-2.5654-7.5747
			h1.4258L613.9199,442.6899z"/>
		<path fill="#EC008B" d="M622.9648,437.4253h0.0293c0.4199-0.7051,0.9453-1.0498,1.7402-1.0498c1.2148,0,2.4453,0.48,2.4453,3.8096
			c0,1.8901-0.0605,4.0649-2.5049,4.0649c-0.7197,0-1.2451-0.3149-1.665-0.915h-0.0449v3.6299h-1.2305v-10.4395h1.2305V437.4253z
			 M625.8896,440.1851c0-1.1396,0-2.8047-1.5449-2.8047c-1.5146,0-1.3799,2.1001-1.3799,3.2549
			c0,1.0049,0.0605,2.6099,1.4248,2.6099C625.709,443.2451,625.8896,442.21,625.8896,440.1851z"/>
		<path fill="#EC008B" d="M630.3301,440.7104c0,2.1147,0.5703,2.5347,1.5293,2.5347c0.8398,0,1.2754-0.6748,1.3203-1.4399h1.3496
			c-0.0146,1.6802-1.0498,2.4448-2.6396,2.4448c-1.6045,0-2.8799-0.48-2.8799-3.8247c0-2.2197,0.2549-4.0498,2.8799-4.0498
			c2.1602,0,2.7002,1.1851,2.7002,3.6899v0.645H630.3301z M633.2852,439.7803c0-2.2051-0.6152-2.4751-1.5156-2.4751
			c-0.7793,0-1.4248,0.375-1.4395,2.4751H633.2852z"/>
		<path fill="#EC008B" d="M636.4199,440.4253c0-2.2197,0.2549-4.0498,2.8799-4.0498c2.624,0,2.8799,1.8301,2.8799,4.0498
			c0,3.3447-1.2754,3.8247-2.8799,3.8247S636.4199,443.77,636.4199,440.4253z M640.8896,439.9004c0-2.0698-0.6455-2.52-1.5898-2.52
			c-0.9453,0-1.5898,0.4502-1.5898,2.52c0,2.46,0.3154,3.3447,1.5898,3.3447S640.8896,442.3604,640.8896,439.9004z"/>
		<path fill="#EC008B" d="M645.4648,437.4253h0.0293c0.4199-0.7051,0.9453-1.0498,1.7402-1.0498c1.2148,0,2.4453,0.48,2.4453,3.8096
			c0,1.8901-0.0605,4.0649-2.5049,4.0649c-0.7197,0-1.2451-0.3149-1.665-0.915h-0.0449v3.6299h-1.2305v-10.4395h1.2305V437.4253z
			 M648.3896,440.1851c0-1.1396,0-2.8047-1.5449-2.8047c-1.5146,0-1.3799,2.1001-1.3799,3.2549
			c0,1.0049,0.0605,2.6099,1.4248,2.6099C648.209,443.2451,648.3896,442.21,648.3896,440.1851z"/>
		<path fill="#EC008B" d="M652.8301,444.1001h-1.2305v-10.8296h1.2305V444.1001z"/>
		<path fill="#EC008B" d="M656.1602,440.7104c0,2.1147,0.5693,2.5347,1.5293,2.5347c0.8398,0,1.2754-0.6748,1.3203-1.4399h1.3496
			c-0.0146,1.6802-1.0498,2.4448-2.6396,2.4448c-1.6045,0-2.8799-0.48-2.8799-3.8247c0-2.2197,0.2549-4.0498,2.8799-4.0498
			c2.1602,0,2.7002,1.1851,2.7002,3.6899v0.645H656.1602z M659.1143,439.7803c0-2.2051-0.6143-2.4751-1.5146-2.4751
			c-0.7803,0-1.4248,0.375-1.4395,2.4751H659.1143z"/>
		<path fill="#EC008B" d="M665.6836,433.2705h1.3799v1.3198h-1.3799V433.2705z M666.9893,444.1001h-1.2305v-7.5747h1.2305V444.1001z
			"/>
		<path fill="#EC008B" d="M673.2285,444.1001v-5.25c0-0.8096-0.2842-1.4697-1.335-1.4697c-1.3496,0-1.5449,1.1997-1.5449,2.2349
			v4.4849h-1.2295v-5.9995c0-0.5254-0.0303-1.0503-0.0752-1.5752h1.3047v0.9751h0.0605c0.4795-0.855,1.0498-1.125,2.0244-1.125
			c1.6201,0,2.0254,0.9751,2.0254,2.4746v5.25H673.2285z"/>
		<path fill="#EC008B" d="M678.8535,444.25c-1.6348,0-2.6543-0.7197-2.6094-2.46h1.3945c0,0.4351,0.0156,1.4551,1.2598,1.4551
			c0.7354,0,1.3057-0.375,1.3057-1.1548c0-1.3501-3.7803-1.3799-3.7803-3.645c0-0.7949,0.4805-2.0698,2.6104-2.0698
			c1.3496,0,2.5049,0.645,2.3994,2.145h-1.3643c0.0146-0.7949-0.4053-1.2153-1.1855-1.2153c-0.6602,0-1.1699,0.3604-1.1699,1.02
			c0,1.335,3.7803,1.3052,3.7803,3.6152C681.4941,443.605,680.3535,444.25,678.8535,444.25z"/>
		<path fill="#EC008B" d="M683.1738,433.2705h1.3799v1.3198h-1.3799V433.2705z M684.4795,444.1001h-1.2305v-7.5747h1.2305V444.1001z
			"/>
		<path fill="#EC008B" d="M690.6133,433.2705h1.2295v10.8296h-1.2295v-0.8999h-0.0303c-0.4199,0.7051-0.9453,1.0498-1.7402,1.0498
			c-1.2148,0-2.4443-0.48-2.4443-3.8096c0-1.8901,0.0596-4.0649,2.5049-4.0649c0.7197,0,1.2451,0.3149,1.665,0.915h0.0449V433.2705z
			 M689.1885,437.3804c-1.3203,0-1.5,1.0498-1.5,3.0747c0,1.1401,0,2.79,1.5449,2.79c1.3799,0,1.3799-1.71,1.3799-3.2397
			C690.6133,439.0005,690.5527,437.3804,689.1885,437.3804z"/>
		<path fill="#EC008B" d="M695.3086,440.7104c0,2.1147,0.5693,2.5347,1.5293,2.5347c0.8398,0,1.2754-0.6748,1.3203-1.4399h1.3496
			c-0.0146,1.6802-1.0498,2.4448-2.6396,2.4448c-1.6045,0-2.8799-0.48-2.8799-3.8247c0-2.2197,0.2549-4.0498,2.8799-4.0498
			c2.1602,0,2.7002,1.1851,2.7002,3.6899v0.645H695.3086z M698.2627,439.7803c0-2.2051-0.6143-2.4751-1.5146-2.4751
			c-0.7803,0-1.4248,0.375-1.4395,2.4751H698.2627z"/>
		<path fill="#EC008B" d="M701.8184,442.54h1.5449l-1.3652,3.4648h-0.96L701.8184,442.54z"/>
		<path fill="#EC008B" d="M552.0679,463.0049h-0.0303c-0.375,0.8701-0.96,1.2451-1.9048,1.2451
			c-1.605,0-2.0698-1.0352-2.0698-2.4902c0-2.2949,2.25-2.4004,3.9746-2.3545c0.0303-1.0059,0.0449-2.1006-1.2749-2.1006
			c-0.8247,0-1.2598,0.5547-1.1851,1.3506h-1.335c0.0601-1.6953,0.96-2.2803,2.5649-2.2803c1.9502,0,2.46,1.0049,2.46,2.2803v3.6445
			c0,0.5996,0.0601,1.2148,0.1499,1.7998h-1.3496V463.0049z M549.293,461.8496c0,0.7354,0.3599,1.3955,1.1846,1.3955
			c0.75,0,1.6802-0.4658,1.5601-2.9102C550.8677,460.3496,549.293,460.2451,549.293,461.8496z"/>
		<path fill="#EC008B" d="M559.7778,464.0996v-5.25c0-0.8096-0.2852-1.4697-1.335-1.4697c-1.3501,0-1.5449,1.2002-1.5449,2.2354
			v4.4844h-1.23v-6c0-0.5244-0.0303-1.0498-0.0752-1.5742h1.3052V457.5h0.0601c0.48-0.8555,1.0498-1.125,2.0249-1.125
			c1.6196,0,2.0249,0.9746,2.0249,2.4746v5.25H559.7778z"/>
		<path fill="#EC008B" d="M567.1729,453.27h1.23v10.8296h-1.23v-0.9004h-0.0303c-0.4199,0.7051-0.9448,1.0508-1.7397,1.0508
			c-1.2148,0-2.4448-0.4805-2.4448-3.8105c0-1.8896,0.0601-4.0645,2.5049-4.0645c0.7197,0,1.2446,0.3145,1.665,0.915h0.0449V453.27z
			 M565.7476,457.3799c-1.3198,0-1.4995,1.0498-1.4995,3.0752c0,1.1396,0,2.79,1.5449,2.79c1.3799,0,1.3799-1.71,1.3799-3.2402
			C567.1729,459,567.1128,457.3799,565.7476,457.3799z"/>
		<path fill="#EC008B" d="M573.0522,456.5254h1.3652l1.3647,6.5244h0.0303l1.6797-6.5244h1.7402l1.5449,6.5244h0.0298l1.5-6.5244
			h1.3047l-2.0249,7.5742h-1.6499l-1.6196-6.4502h-0.0303l-1.6948,6.4502h-1.6499L573.0522,456.5254z"/>
		<path fill="#EC008B" d="M586.0273,460.71c0,2.1143,0.5703,2.5352,1.5303,2.5352c0.8398,0,1.2744-0.6758,1.3193-1.4404h1.3506
			c-0.0146,1.6797-1.0498,2.4453-2.6396,2.4453c-1.6055,0-2.8804-0.4805-2.8804-3.8252c0-2.2197,0.2549-4.0498,2.8804-4.0498
			c2.1592,0,2.6992,1.1846,2.6992,3.6895v0.6455H586.0273z M588.9824,459.7793c0-2.2041-0.6152-2.4746-1.5156-2.4746
			c-0.7793,0-1.4238,0.375-1.4395,2.4746H588.9824z"/>
		<path fill="#EC008B" d="M596.2275,463.0049h-0.0303c-0.375,0.8701-0.96,1.2451-1.9043,1.2451
			c-1.6055,0-2.0703-1.0352-2.0703-2.4902c0-2.2949,2.25-2.4004,3.9746-2.3545c0.0303-1.0059,0.0449-2.1006-1.2754-2.1006
			c-0.8242,0-1.2598,0.5547-1.1846,1.3506h-1.335c0.0605-1.6953,0.96-2.2803,2.5645-2.2803c1.9512,0,2.4609,1.0049,2.4609,2.2803
			v3.6445c0,0.5996,0.0596,1.2148,0.1494,1.7998h-1.3496V463.0049z M593.4531,461.8496c0,0.7354,0.3594,1.3955,1.1836,1.3955
			c0.75,0,1.6807-0.4658,1.5605-2.9102C595.0273,460.3496,593.4531,460.2451,593.4531,461.8496z"/>
		<path fill="#EC008B" d="M599.9629,456.5254v-1.4551l1.2295-0.5557v2.0107h1.6494v0.9297h-1.6494v4.6348
			c0,0.4795,0,1.0947,1.125,1.0947c0.0898,0,0.2852-0.0303,0.5557-0.0596v0.9443c-0.4062,0.0303-0.8105,0.1201-1.2158,0.1201
			c-1.1699,0-1.6943-0.4795-1.6943-1.3496v-5.3848h-1.2451v-0.9297H599.9629z"/>
		<path fill="#EC008B" d="M608.1074,464.0996v-5.1299c0-0.9297-0.3008-1.5898-1.3496-1.5898c-1.2305,0-1.5449,0.9902-1.5449,2.2646
			v4.4551h-1.2305V453.27h1.2305v4.23h0.0596c0.4951-0.8848,1.0654-1.125,2.0547-1.125c1.29,0,2.0107,0.6445,2.0107,2.3545v5.3701
			H608.1074z"/>
		<path fill="#EC008B" d="M612.6973,460.71c0,2.1143,0.5703,2.5352,1.5303,2.5352c0.8398,0,1.2744-0.6758,1.3193-1.4404h1.3506
			c-0.0146,1.6797-1.0498,2.4453-2.6396,2.4453c-1.6055,0-2.8809-0.4805-2.8809-3.8252c0-2.2197,0.2559-4.0498,2.8809-4.0498
			c2.1592,0,2.6992,1.1846,2.6992,3.6895v0.6455H612.6973z M615.6523,459.7793c0-2.2041-0.6152-2.4746-1.5156-2.4746
			c-0.7793,0-1.4238,0.375-1.4395,2.4746H615.6523z"/>
		<path fill="#EC008B" d="M620.2725,457.665h0.0303c0.5098-1.1553,1.1396-1.29,2.3398-1.29v1.2744
			c-0.1055-0.0146-0.2246-0.0293-0.3301-0.0449c-0.1055-0.0146-0.21-0.0293-0.3301-0.0293c-1.3652,0-1.71,1.0342-1.71,2.0547v4.4697
			h-1.2295v-7.5742h1.2295V457.665z"/>
	</g>
</g>
<g>
	<g>
		<line fill="none" stroke="#00ADEF" stroke-width="1.23" stroke-linejoin="round" x1="415" y1="120" x2="533.666" y2="120"/>
		<g>
			<polygon fill="#00ADEF" points="529.5903,125.0303 528.7515,124.1299 533.1938,120.001 528.7515,115.8716 529.5903,114.9707 
				535,120.001 			"/>
		</g>
	</g>
</g>
<g>
	<g>
		<path fill="none" stroke="#00ADEF" stroke-width="1.23" stroke-linejoin="round" d="M515,290H276c-3.2998,0-6-2.7002-6-6V126
			c0-3.2998,2.7002-6,6-6h37.666"/>
		<g>
			<polygon fill="#00ADEF" points="309.5903,125.0303 308.7515,124.1299 313.1938,120.001 308.7515,115.8716 309.5903,114.9707 
				315,120.001 			"/>
		</g>
	</g>
</g>
<g>
	<g>
		<line fill="none" stroke="#00ADEF" stroke-width="1.23" stroke-linejoin="round" x1="635" y1="120" x2="773.666" y2="120"/>
		<g>
			<polygon fill="#00ADEF" points="769.5908,125.0303 768.752,124.1299 773.1943,120.001 768.752,115.8716 769.5908,114.9707 
				775,120.001 			"/>
		</g>
	</g>
</g>
<g>
	<g>
		<line fill="none" stroke="#00A551" stroke-width="1.23" stroke-linejoin="round" x1="585" y1="25" x2="585" y2="103.666"/>
		<g>
			<polygon fill="#00A551" points="579.9697,99.5898 580.8701,98.752 584.999,103.1934 589.1289,98.752 590.0293,99.5898 
				584.999,105 			"/>
		</g>
	</g>
</g>
<g>
	<g>
		<line fill="none" stroke="#EC008B" stroke-width="1.23" stroke-linejoin="round" x1="585" y1="385" x2="585" y2="306.334"/>
		<g>
			<polygon fill="#EC008B" points="590.0303,310.4102 589.1299,311.248 585.001,306.8066 580.8716,311.248 579.9707,310.4102 
				585.001,305 			"/>
		</g>
	</g>
</g>
<g>
	<path fill="#00A551" d="M523.5,3.271h3.7803c2.9697,0,3.5244,1.98,3.5244,5.355c0,1.6646,0.2554,5.4746-3.6147,5.4746H523.5V3.271z
		 M525.7651,12.4355h1.0947c1.3804,0,1.6504-1.0347,1.6504-3.7495c0-1.9951,0-3.75-1.5752-3.75h-1.1699V12.4355z"/>
	<path fill="#00A551" d="M534.4653,10.6509c0,0.8999,0.0298,2.25,0.96,2.25c0.75,0,0.8999-0.7202,0.8999-1.3501h2.145
		c-0.0303,0.8247-0.3003,1.5-0.8101,1.9648c-0.4951,0.4648-1.2451,0.7349-2.2349,0.7349c-2.73,0-3.0898-1.665-3.0898-4.0347
		c0-2.0698,0.2998-3.8398,3.0898-3.8398c2.8496,0,3.1646,1.8447,3.0898,4.2749H534.4653z M536.3999,9.4658
		c0-0.7349,0.0303-1.7852-0.9746-1.7852c-0.9751,0-0.96,1.1401-0.96,1.7852H536.3999z"/>
	<path fill="#00A551" d="M541.6802,11.6709c-0.0151,0.3447,0,0.6748,0.105,0.9146c0.1201,0.2402,0.3452,0.3604,0.7651,0.3604
		s0.7798-0.27,0.7798-0.7803c0-1.605-3.7197-1.2446-3.7197-3.6597c0-1.6348,1.6196-2.1299,2.9849-2.1299
		c1.4399,0,2.7446,0.6899,2.625,2.3247h-2.0703c0-0.5249-0.0596-0.8398-0.21-0.9746c-0.1348-0.1353-0.3149-0.165-0.5396-0.165
		c-0.4653,0-0.7202,0.2998-0.7202,0.8096c0,1.2002,3.7197,1.1401,3.7197,3.5703c0,1.3198-1.0796,2.3096-2.835,2.3096
		c-1.8447,0-3.0747-0.4648-2.9546-2.5796H541.6802z"/>
	<path fill="#00A551" d="M548.9697,3.271v1.665h-2.1147V3.271H548.9697z M548.9697,14.1006h-2.1147V6.5259h2.1147V14.1006z"/>
	<path fill="#00A551" d="M552.855,6.5259V7.501h0.0298c0.3901-0.8701,1.1099-1.125,1.9648-1.125v1.8896
		c-1.8599-0.1196-1.8896,0.96-1.8896,1.71v4.125h-2.1152V6.5259H552.855z"/>
	<path fill="#00A551" d="M557.79,10.6509c0,0.8999,0.0298,2.25,0.96,2.25c0.75,0,0.8999-0.7202,0.8999-1.3501h2.145
		c-0.0303,0.8247-0.3003,1.5-0.8101,1.9648c-0.4951,0.4648-1.2451,0.7349-2.2349,0.7349c-2.73,0-3.0898-1.665-3.0898-4.0347
		c0-2.0698,0.2998-3.8398,3.0898-3.8398c2.8496,0,3.1646,1.8447,3.0898,4.2749H557.79z M559.7246,9.4658
		c0-0.7349,0.0303-1.7852-0.9746-1.7852c-0.9751,0-0.96,1.1401-0.96,1.7852H559.7246z"/>
	<path fill="#00A551" d="M567.1196,14.1006v-0.8398h-0.0298c-0.3901,0.7349-0.9751,0.9897-1.7852,0.9897
		c-2.1899,0-2.1147-2.4297-2.1147-3.9897c0-1.5298-0.0601-3.8848,2.0698-3.8848c0.7651,0,1.29,0.2251,1.7251,0.8701h0.0298V3.271
		h2.1152v10.8296H567.1196z M567.0146,10.2456c0-1.5146,0.0151-2.5649-0.855-2.5649c-0.9146,0-0.8999,1.0503-0.8999,2.5649
		c0,1.9053,0.1353,2.7002,0.8999,2.7002C566.8799,12.9458,567.0146,12.1509,567.0146,10.2456z"/>
	<path fill="#00A551" d="M573.3145,6.5259h0.855V5.3262l2.1152-0.9453v2.145h1.0947v1.3052h-1.0947v4.0498
		c0,0.5698-0.0151,0.9448,0.6748,0.9448c0.1348,0,0.27,0,0.375-0.0303v1.3052c-0.2852,0.0298-0.585,0.0752-1.0952,0.0752
		c-1.8296,0-2.0698-1.2153-2.0698-1.6802V7.8311h-0.855V6.5259z"/>
	<path fill="#00A551" d="M580.2896,10.6509c0,0.8999,0.0298,2.25,0.96,2.25c0.75,0,0.8999-0.7202,0.8999-1.3501h2.145
		c-0.0303,0.8247-0.3003,1.5-0.8101,1.9648c-0.4951,0.4648-1.2451,0.7349-2.2349,0.7349c-2.73,0-3.0898-1.665-3.0898-4.0347
		c0-2.0698,0.2998-3.8398,3.0898-3.8398c2.8496,0,3.1646,1.8447,3.0898,4.2749H580.2896z M582.2241,9.4658
		c0-0.7349,0.0303-1.7852-0.9746-1.7852c-0.9751,0-0.96,1.1401-0.96,1.7852H582.2241z"/>
	<path fill="#00A551" d="M587.7891,7.291h0.0303c0.4199-0.6753,0.9902-0.915,1.7852-0.915c0.75,0,1.3496,0.3599,1.6943,0.96
		c0.4961-0.6602,1.0957-0.96,1.9648-0.96c1.0059,0,1.8906,0.6001,1.8906,1.6499v6.0747h-2.1152V8.8809
		c0-0.6748-0.1191-1.2002-0.7949-1.2002c-0.6748,0-0.7949,0.5254-0.7949,1.2002v5.2197h-2.0703V8.8809
		c0-0.6748-0.1191-1.2002-0.7949-1.2002c-0.6748,0-0.7949,0.5254-0.7949,1.2002v5.2197h-2.1147V6.5259h2.1147V7.291z"/>
	<path fill="#00A551" d="M598.6797,6.5259v0.8398h0.0293c0.3906-0.7349,0.9756-0.9897,1.7852-0.9897
		c2.1895,0,2.1152,2.4297,2.1152,3.9897c0,1.5298,0.0605,3.8848-2.0703,3.8848c-0.7646,0-1.2891-0.2251-1.7246-0.8701h-0.0293
		v3.9751h-2.1152V6.5259H598.6797z M600.5391,10.2456c0-1.5146,0.0156-2.5649-0.8994-2.5649c-0.8701,0-0.8545,1.0503-0.8545,2.5649
		c0,1.9053,0.1348,2.7002,0.8545,2.7002C600.4043,12.9458,600.5391,12.1509,600.5391,10.2456z"/>
	<path fill="#00A551" d="M606.1191,10.6509c0,0.8999,0.0303,2.25,0.9609,2.25c0.75,0,0.8994-0.7202,0.8994-1.3501h2.1455
		c-0.0312,0.8247-0.3008,1.5-0.8105,1.9648c-0.4951,0.4648-1.2451,0.7349-2.2344,0.7349c-2.7305,0-3.0898-1.665-3.0898-4.0347
		c0-2.0698,0.2988-3.8398,3.0898-3.8398c2.8496,0,3.1641,1.8447,3.0898,4.2749H606.1191z M608.0547,9.4658
		c0-0.7349,0.0293-1.7852-0.9746-1.7852c-0.9756,0-0.9609,1.1401-0.9609,1.7852H608.0547z"/>
	<path fill="#00A551" d="M613.6797,6.5259V7.501h0.0293c0.3906-0.8701,1.1104-1.125,1.9648-1.125v1.8896
		c-1.8594-0.1196-1.8887,0.96-1.8887,1.71v4.125h-2.1152V6.5259H613.6797z"/>
	<path fill="#00A551" d="M622.4092,12.6904c0,0.4653,0.0596,0.9453,0.1045,1.4102h-1.9648l-0.0898-1.0049h-0.0293
		c-0.4512,0.7798-1.0654,1.1548-1.9805,1.1548c-1.4707,0-2.0098-1.0947-2.0098-2.415c0-2.5049,1.9346-2.6099,3.8994-2.5796v-0.585
		c0-0.645-0.0898-1.1099-0.8545-1.1099c-0.7354,0-0.7949,0.5547-0.7949,1.1548h-2.0703c0-0.915,0.2852-1.5,0.7793-1.8447
		c0.4805-0.3604,1.1709-0.4951,1.9805-0.4951c2.6855,0,3.0303,1.1548,3.0303,2.5347V12.6904z M618.5098,11.7456
		c0,0.54,0.0898,1.2002,0.7793,1.2002c1.2451,0,1.0498-1.6802,1.0498-2.5049C619.2891,10.4858,618.5098,10.3955,618.5098,11.7456z"
		/>
	<path fill="#00A551" d="M623.3086,6.5259h0.8555V5.3262l2.1152-0.9453v2.145h1.0947v1.3052h-1.0947v4.0498
		c0,0.5698-0.0156,0.9448,0.6748,0.9448c0.1348,0,0.2705,0,0.375-0.0303v1.3052c-0.2852,0.0298-0.585,0.0752-1.0947,0.0752
		c-1.8301,0-2.0703-1.2153-2.0703-1.6802V7.8311h-0.8555V6.5259z"/>
	<path fill="#00A551" d="M632.0391,13.3354h-0.0303c-0.21,0.3301-0.4502,0.5703-0.75,0.7051c-0.2998,0.1499-0.6299,0.21-1.0342,0.21
		c-1.0059,0-1.8906-0.6001-1.8906-1.6499V6.5259h2.1152v5.25c0,0.6748,0.1191,1.1699,0.7949,1.1699
		c0.6748,0,0.7949-0.4951,0.7949-1.1699v-5.25h2.1152v6.0747c0,0.4951,0.0293,1.0049,0.0742,1.5h-2.1895V13.3354z"/>
	<path fill="#00A551" d="M637.8438,6.5259V7.501h0.0303c0.3896-0.8701,1.1104-1.125,1.9648-1.125v1.8896
		c-1.8604-0.1196-1.8896,0.96-1.8896,1.71v4.125h-2.1152V6.5259H637.8438z"/>
	<path fill="#00A551" d="M642.7793,10.6509c0,0.8999,0.0293,2.25,0.96,2.25c0.75,0,0.8994-0.7202,0.8994-1.3501h2.1455
		c-0.0303,0.8247-0.2998,1.5-0.8096,1.9648c-0.4961,0.4648-1.2461,0.7349-2.2354,0.7349c-2.7295,0-3.0898-1.665-3.0898-4.0347
		c0-2.0698,0.2998-3.8398,3.0898-3.8398c2.8496,0,3.165,1.8447,3.0898,4.2749H642.7793z M644.7139,9.4658
		c0-0.7349,0.0303-1.7852-0.9746-1.7852c-0.9756,0-0.96,1.1401-0.96,1.7852H644.7139z"/>
</g>
</svg>
