<?xml version="1.0" encoding="utf-8"?>
<!-- Generator: Adobe Illustrator 16.0.0, SVG Export Plug-In . SVG Version: 6.00 Build 0)  -->
<!DOCTYPE svg PUBLIC "-//W3C//DTD SVG 1.1//EN" "http://www.w3.org/Graphics/SVG/1.1/DTD/svg11.dtd">
<svg version="1.1" id="Layer_1" xmlns="http://www.w3.org/2000/svg" xmlns:xlink="http://www.w3.org/1999/xlink" x="0px" y="0px"
	 width="1170px" height="470px" viewBox="0 0 1170 470" enable-background="new 0 0 1170 470" xml:space="preserve">
<rect x="365" y="65" opacity="0.1" fill="#00ADEF" width="440" height="170"/>
<g>
	<g>
		<path fill="none" stroke="#00ADEF" stroke-width="1.23" stroke-linejoin="round" d="M681.334,290H894c3.2998,0,6-2.7002,6-6V126
			c0-3.2998-2.7002-6-6-6h-64"/>
		<g>
			<polygon fill="#00ADEF" points="685.4092,295.0303 686.248,294.1299 681.8057,290.001 686.248,285.8716 685.4092,284.9707 
				680,290.001 			"/>
		</g>
	</g>
</g>
<g>
	<g>
		<path fill="#00ADEF" d="M376.2148,225v-10.8296h5.5801v1.2002h-4.2002v3.4795h3.8999v1.2002h-3.8999v3.7495h4.29V225H376.2148z"/>
		<path fill="#00ADEF" d="M387.6899,225v-5.25c0-0.8096-0.2852-1.4697-1.335-1.4697c-1.3501,0-1.5449,1.2002-1.5449,2.2349V225
			h-1.23v-6c0-0.5249-0.0303-1.0498-0.0752-1.5747h1.3052v0.9751h0.0601c0.48-0.855,1.0498-1.125,2.0249-1.125
			c1.6196,0,2.0249,0.9751,2.0249,2.4746V225H387.6899z"/>
		<path fill="#00ADEF" d="M395.085,214.1704h1.23V225h-1.23v-0.8999h-0.0303c-0.4199,0.7051-0.9448,1.0498-1.7397,1.0498
			c-1.2148,0-2.4448-0.48-2.4448-3.8096c0-1.8901,0.0601-4.0649,2.5049-4.0649c0.7197,0,1.2446,0.3149,1.665,0.915h0.0449V214.1704z
			 M393.6597,218.2803c-1.3198,0-1.4995,1.0498-1.4995,3.0747c0,1.1401,0,2.79,1.5449,2.79c1.3799,0,1.3799-1.71,1.3799-3.2397
			C395.085,219.9004,395.0249,218.2803,393.6597,218.2803z"/>
		<path fill="#00ADEF" d="M398.3701,221.3252c0-2.2197,0.2549-4.0498,2.8799-4.0498c2.6245,0,2.8799,1.8301,2.8799,4.0498
			c0,3.3447-1.2749,3.8247-2.8799,3.8247S398.3701,224.6699,398.3701,221.3252z M402.8398,220.8003c0-2.0698-0.645-2.52-1.5898-2.52
			c-0.9453,0-1.5898,0.4502-1.5898,2.52c0,2.46,0.3149,3.3447,1.5898,3.3447S402.8398,223.2603,402.8398,220.8003z"/>
		<path fill="#00ADEF" d="M410.04,219.855c0.0298-1.2446-0.5854-1.5747-1.0503-1.5747c-0.9448,0-1.5898,0.4502-1.5898,2.52
			c0,2.46,0.3149,3.3447,1.5898,3.3447c0.2852,0,1.1401-0.2998,1.0952-1.665h1.2896c0.0454,2.1299-1.5449,2.6699-2.3848,2.6699
			c-1.605,0-2.8799-0.48-2.8799-3.8247c0-2.2197,0.2549-4.0498,2.8799-4.0498c1.5151,0,2.3999,0.8848,2.3252,2.5796H410.04z"/>
		<path fill="#00ADEF" d="M414.855,218.5654h0.0298c0.5103-1.1553,1.1401-1.29,2.3398-1.29v1.2749
			c-0.105-0.0151-0.2246-0.0298-0.3296-0.0449s-0.21-0.0303-0.3301-0.0303c-1.3652,0-1.71,1.0352-1.71,2.0552V225h-1.23v-7.5747
			h1.23V218.5654z"/>
		<path fill="#00ADEF" d="M418.4702,214.1704h1.3799v1.3198h-1.3799V214.1704z M419.7749,225h-1.23v-7.5747h1.23V225z"/>
		<path fill="#00ADEF" d="M426.0146,225v-5.25c0-0.8096-0.2852-1.4697-1.335-1.4697c-1.3501,0-1.5449,1.2002-1.5449,2.2349V225
			h-1.23v-6c0-0.5249-0.0303-1.0498-0.0752-1.5747h1.3052v0.9751h0.0601c0.48-0.855,1.0498-1.125,2.0249-1.125
			c1.6196,0,2.0249,0.9751,2.0249,2.4746V225H426.0146z"/>
		<path fill="#00ADEF" d="M430.6045,221.6104c0,2.1147,0.5703,2.5347,1.5303,2.5347c0.8398,0,1.2749-0.6748,1.3198-1.4399h1.3501
			c-0.0151,1.6802-1.0503,2.4448-2.6401,2.4448c-1.605,0-2.8799-0.48-2.8799-3.8247c0-2.2197,0.2549-4.0498,2.8799-4.0498
			c2.1597,0,2.6997,1.1851,2.6997,3.6899v0.645H430.6045z M433.5596,220.6802c0-2.2051-0.6152-2.4751-1.5151-2.4751
			c-0.7798,0-1.4248,0.375-1.4399,2.4751H433.5596z"/>
		<path fill="#00ADEF" d="M442.4688,225.1499c-1.6348,0-2.6543-0.7197-2.6094-2.46h1.3945c0,0.4351,0.0156,1.4551,1.2598,1.4551
			c0.7354,0,1.3057-0.375,1.3057-1.1548c0-1.3501-3.7803-1.3799-3.7803-3.645c0-0.7949,0.4805-2.0698,2.6104-2.0698
			c1.3496,0,2.5049,0.645,2.3994,2.145h-1.3643c0.0146-0.7949-0.4053-1.2153-1.1855-1.2153c-0.6602,0-1.1699,0.3604-1.1699,1.02
			c0,1.335,3.7803,1.3052,3.7803,3.6147C445.1094,224.5049,443.9688,225.1499,442.4688,225.1499z"/>
		<path fill="#00ADEF" d="M449.1738,223.5898h0.0303l1.8154-6.1646h1.335l-3.4355,10.4395h-1.2744L448.499,225l-2.5645-7.5747
			h1.4248L449.1738,223.5898z"/>
		<path fill="#00ADEF" d="M455.7881,225.1499c-1.6348,0-2.6543-0.7197-2.6094-2.46h1.3945c0,0.4351,0.0156,1.4551,1.2607,1.4551
			c0.7344,0,1.3047-0.375,1.3047-1.1548c0-1.3501-3.7803-1.3799-3.7803-3.645c0-0.7949,0.4805-2.0698,2.6104-2.0698
			c1.3496,0,2.5049,0.645,2.3994,2.145h-1.3643c0.0146-0.7949-0.4053-1.2153-1.1855-1.2153c-0.6602,0-1.1699,0.3604-1.1699,1.02
			c0,1.335,3.7803,1.3052,3.7803,3.6147C458.4287,224.5049,457.2881,225.1499,455.7881,225.1499z"/>
		<path fill="#00ADEF" d="M460.3486,217.4253v-1.4551l1.2305-0.5547v2.0098h1.6494v0.9302h-1.6494v4.6348
			c0,0.48,0,1.0947,1.125,1.0947c0.0898,0,0.2842-0.0298,0.5547-0.0601v0.9453c-0.4053,0.0298-0.8105,0.1196-1.2148,0.1196
			c-1.1699,0-1.6953-0.48-1.6953-1.3496v-5.3848h-1.2451v-0.9302H460.3486z"/>
		<path fill="#00ADEF" d="M465.584,221.6104c0,2.1147,0.5693,2.5347,1.5293,2.5347c0.8398,0,1.2754-0.6748,1.3203-1.4399h1.3496
			c-0.0146,1.6802-1.0498,2.4448-2.6396,2.4448c-1.6045,0-2.8799-0.48-2.8799-3.8247c0-2.2197,0.2549-4.0498,2.8799-4.0498
			c2.1602,0,2.7002,1.1851,2.7002,3.6899v0.645H465.584z M468.5381,220.6802c0-2.2051-0.6143-2.4751-1.5146-2.4751
			c-0.7803,0-1.4248,0.375-1.4395,2.4751H468.5381z"/>
		<path fill="#00ADEF" d="M475.6035,225v-5.25c0-0.7646-0.21-1.4697-1.2002-1.4697c-0.375,0-0.8848,0.2251-1.0645,0.5098
			c-0.2256,0.375-0.2852,0.8252-0.2852,1.1104V225h-1.2305v-6c0-0.5249-0.0293-1.0498-0.0742-1.5747h1.3047v0.9448h0.0303
			c0.3594-0.8096,1.0049-1.0947,1.8896-1.0947c0.6895,0,1.4844,0.2852,1.7695,0.9751c0.4199-0.8101,1.1104-0.9751,1.7998-0.9751
			c0.7949,0,2.0703,0.1797,2.0703,1.9648V225h-1.2295v-5.25c0-0.7646-0.21-1.4697-1.2002-1.4697
			c-0.4648,0-0.6006,0.0151-0.9297,0.2852c-0.3604,0.2998-0.4209,1.0498-0.4209,1.335V225H475.6035z"/>
	</g>
</g>
<g>
	<g>
		<path fill="#231F20" d="M555.1431,124.1001v-10.8296h4.0195c1.7251,0,3.1499,0.4951,3.1499,2.8047
			c0,1.2451-0.6147,2.145-1.8447,2.3853v0.0298c1.605,0.2251,2.0249,1.2603,2.0249,2.7451c0,2.7446-2.3848,2.8647-3.3447,2.8647
			H555.1431z M557.4077,117.6953h1.5151c0.4951,0,1.1851-0.3301,1.1851-1.3799c0-0.7949-0.54-1.3799-1.3052-1.3799h-1.395V117.6953z
			 M557.4077,122.4351h1.2603c0.48,0,1.5596-0.0151,1.5596-1.5298c0-0.96-0.3599-1.5449-1.5-1.5449h-1.3198V122.4351z"/>
		<path fill="#231F20" d="M566.123,120.6504c0,0.8999,0.0298,2.25,0.96,2.25c0.75,0,0.8999-0.7202,0.8999-1.3501h2.145
			c-0.0303,0.8247-0.3003,1.5-0.8101,1.9648c-0.4951,0.4648-1.2451,0.7349-2.2349,0.7349c-2.73,0-3.0898-1.665-3.0898-4.0347
			c0-2.0698,0.2998-3.8398,3.0898-3.8398c2.8496,0,3.1646,1.8447,3.0898,4.2749H566.123z M568.0576,119.4653
			c0-0.7349,0.0303-1.7852-0.9746-1.7852c-0.9751,0-0.96,1.1401-0.96,1.7852H568.0576z"/>
		<path fill="#231F20" d="M570.8179,116.5254h0.855v-1.1997l2.1152-0.9453v2.145h1.0947v1.3052h-1.0947v4.0498
			c0,0.5698-0.0151,0.9448,0.6748,0.9448c0.1348,0,0.27,0,0.375-0.0303v1.3052c-0.2852,0.0298-0.585,0.0752-1.0952,0.0752
			c-1.8296,0-2.0698-1.2153-2.0698-1.6802v-4.6646h-0.855V116.5254z"/>
		<path fill="#231F20" d="M581.5879,122.6899c0,0.4653,0.0596,0.9453,0.105,1.4102h-1.9653l-0.0898-1.0049h-0.0298
			c-0.4502,0.7798-1.0649,1.1548-1.98,1.1548c-1.4702,0-2.0103-1.0947-2.0103-2.415c0-2.5049,1.9351-2.6099,3.8999-2.5796v-0.585
			c0-0.645-0.0898-1.1099-0.855-1.1099c-0.7349,0-0.7949,0.5547-0.7949,1.1548h-2.0698c0-0.915,0.2852-1.5,0.7798-1.8447
			c0.48-0.3604,1.1704-0.4951,1.98-0.4951c2.6851,0,3.0303,1.1548,3.0303,2.5347V122.6899z M577.688,121.7451
			c0,0.54,0.0898,1.2002,0.7798,1.2002c1.2451,0,1.0498-1.6802,1.0498-2.5049C578.4678,120.4854,577.688,120.395,577.688,121.7451z"
			/>
		<path fill="#231F20" d="M590.5273,119.2251c0-1.1245-0.2852-1.4995-0.9453-1.4995c-0.8994,0-0.9746,0.7949-0.9746,2.3696
			c0,2.3101,0.1953,2.8052,0.9746,2.8052c0.6602,0,0.9746-0.6001,0.9746-1.5903h2.1152c0,2.0552-1.1094,2.9399-3.0898,2.9399
			c-2.7295,0-3.0898-1.665-3.0898-4.0347c0-2.0698,0.3008-3.8398,3.0898-3.8398c1.9502,0,3.0605,0.8701,3.0605,2.8496H590.5273z"/>
		<path fill="#231F20" d="M596.123,120.6504c0,0.8999,0.0293,2.25,0.959,2.25c0.75,0,0.9004-0.7202,0.9004-1.3501h2.1445
			c-0.0293,0.8247-0.2998,1.5-0.8096,1.9648c-0.4951,0.4648-1.2451,0.7349-2.2354,0.7349c-2.7295,0-3.0898-1.665-3.0898-4.0347
			c0-2.0698,0.3008-3.8398,3.0898-3.8398c2.8496,0,3.165,1.8447,3.0898,4.2749H596.123z M598.0566,119.4653
			c0-0.7349,0.0312-1.7852-0.9746-1.7852c-0.9746,0-0.959,1.1401-0.959,1.7852H598.0566z"/>
		<path fill="#231F20" d="M603.9668,113.2705v10.8296h-2.1143v-10.8296H603.9668z"/>
		<path fill="#231F20" d="M608.1367,113.2705v10.8296h-2.1143v-10.8296H608.1367z"/>
		<path fill="#231F20" d="M611.6777,121.6704c-0.0156,0.3447,0,0.6748,0.1055,0.9146c0.1191,0.2402,0.3447,0.3604,0.7646,0.3604
			s0.7803-0.27,0.7803-0.7803c0-1.605-3.7207-1.2446-3.7207-3.6597c0-1.6348,1.6201-2.1299,2.9854-2.1299
			c1.4404,0,2.7451,0.6899,2.625,2.3247h-2.0703c0-0.5249-0.0596-0.8398-0.21-0.9746c-0.1348-0.1353-0.3145-0.165-0.5391-0.165
			c-0.4658,0-0.7207,0.2998-0.7207,0.8096c0,1.2002,3.7197,1.1401,3.7197,3.5703c0,1.3198-1.0791,2.3096-2.835,2.3096
			c-1.8447,0-3.0742-0.4648-2.9551-2.5796H611.6777z"/>
		<path fill="#231F20" d="M540.8335,144.25c-1.6353,0-2.6548-0.7197-2.6099-2.46h1.395c0,0.4351,0.0146,1.4551,1.2598,1.4551
			c0.7349,0,1.3052-0.375,1.3052-1.1548c0-1.3501-3.7803-1.3799-3.7803-3.645c0-0.7949,0.48-2.0698,2.6099-2.0698
			c1.3501,0,2.5054,0.645,2.3999,2.145h-1.3647c0.0151-0.7949-0.4048-1.2153-1.1851-1.2153c-0.6597,0-1.1699,0.3604-1.1699,1.02
			c0,1.335,3.7798,1.3052,3.7798,3.6152C543.4731,143.605,542.3335,144.25,540.8335,144.25z"/>
		<path fill="#231F20" d="M546.458,140.7104c0,2.1147,0.5703,2.5347,1.5303,2.5347c0.8398,0,1.2749-0.6748,1.3198-1.4399h1.3501
			c-0.0151,1.6802-1.0503,2.4448-2.6401,2.4448c-1.605,0-2.8799-0.48-2.8799-3.8247c0-2.2197,0.2549-4.0498,2.8799-4.0498
			c2.1597,0,2.6997,1.1851,2.6997,3.6899v0.645H546.458z M549.4131,139.7803c0-2.2051-0.6152-2.4751-1.5151-2.4751
			c-0.7798,0-1.4248,0.375-1.4399,2.4751H549.4131z"/>
		<path fill="#231F20" d="M556.7178,138.9551c0.0303-1.2446-0.585-1.5747-1.0498-1.5747c-0.9448,0-1.5898,0.4502-1.5898,2.52
			c0,2.46,0.3149,3.3447,1.5898,3.3447c0.2852,0,1.1401-0.2998,1.0952-1.665h1.2896c0.0454,2.1299-1.5449,2.6699-2.3848,2.6699
			c-1.605,0-2.8799-0.48-2.8799-3.8247c0-2.2197,0.2549-4.0498,2.8799-4.0498c1.5151,0,2.3999,0.8848,2.3252,2.5796H556.7178z"/>
		<path fill="#231F20" d="M561.5332,137.6655h0.0298c0.5103-1.1553,1.1401-1.29,2.3398-1.29v1.2749
			c-0.105-0.0151-0.2246-0.0303-0.3296-0.0449c-0.105-0.0151-0.21-0.0303-0.3301-0.0303c-1.3652,0-1.71,1.0352-1.71,2.0552v4.4697
			h-1.23v-7.5747h1.23V137.6655z"/>
		<path fill="#231F20" d="M566.4531,140.7104c0,2.1147,0.5703,2.5347,1.5303,2.5347c0.8398,0,1.2749-0.6748,1.3198-1.4399h1.3501
			c-0.0151,1.6802-1.0503,2.4448-2.6401,2.4448c-1.605,0-2.8799-0.48-2.8799-3.8247c0-2.2197,0.2549-4.0498,2.8799-4.0498
			c2.1597,0,2.6997,1.1851,2.6997,3.6899v0.645H566.4531z M569.4082,139.7803c0-2.2051-0.6152-2.4751-1.5151-2.4751
			c-0.7798,0-1.4248,0.375-1.4399,2.4751H569.4082z"/>
		<path fill="#231F20" d="M572.8882,136.5254v-1.4551l1.23-0.5547v2.0098h1.6499v0.9302h-1.6499v4.6348
			c0,0.48,0,1.0947,1.125,1.0947c0.0898,0,0.2852-0.0298,0.5552-0.0601v0.9453c-0.4053,0.0298-0.8101,0.1196-1.2153,0.1196
			c-1.1699,0-1.6948-0.48-1.6948-1.3496v-5.3848h-1.2446v-0.9302H572.8882z"/>
		<path fill="#231F20" d="M578.123,140.7104c0,2.1147,0.5703,2.5347,1.5303,2.5347c0.8398,0,1.2749-0.6748,1.3198-1.4399h1.3501
			c-0.0151,1.6802-1.0503,2.4448-2.6401,2.4448c-1.605,0-2.8799-0.48-2.8799-3.8247c0-2.2197,0.2549-4.0498,2.8799-4.0498
			c2.1597,0,2.6997,1.1851,2.6997,3.6899v0.645H578.123z M581.0781,139.7803c0-2.2051-0.6152-2.4751-1.5151-2.4751
			c-0.7798,0-1.4248,0.375-1.4399,2.4751H581.0781z"/>
		<path fill="#231F20" d="M586.6582,144.25c-1.6348,0-2.6548-0.7197-2.6099-2.46h1.395c0,0.4351,0.0146,1.4551,1.2598,1.4551
			c0.7344,0,1.3047-0.375,1.3047-1.1548c0-1.3501-3.7798-1.3799-3.7798-3.645c0-0.7949,0.48-2.0698,2.6099-2.0698
			c1.3496,0,2.5049,0.645,2.4004,2.145h-1.3652c0.0156-0.7949-0.4043-1.2153-1.1855-1.2153c-0.6592,0-1.1694,0.3604-1.1694,1.02
			c0,1.335,3.7798,1.3052,3.7798,3.6152C589.2979,143.605,588.1582,144.25,586.6582,144.25z"/>
		<path fill="#231F20" d="M594.3086,133.2705h1.3789v1.3198h-1.3789V133.2705z M595.6133,144.1001h-1.2305v-7.5747h1.2305V144.1001z
			"/>
		<path fill="#231F20" d="M601.8525,144.1001v-5.25c0-0.8096-0.2852-1.4697-1.335-1.4697c-1.3496,0-1.5449,1.1997-1.5449,2.2349
			v4.4849h-1.2305v-5.9995c0-0.5254-0.0293-1.0503-0.0742-1.5752h1.3047v0.9751h0.0605c0.4795-0.855,1.0488-1.125,2.0244-1.125
			c1.6201,0,2.0244,0.9751,2.0244,2.4746v5.25H601.8525z"/>
		<path fill="#231F20" d="M607.4775,144.25c-1.6348,0-2.6553-0.7197-2.6104-2.46h1.3955c0,0.4351,0.0146,1.4551,1.2598,1.4551
			c0.7354,0,1.3057-0.375,1.3057-1.1548c0-1.3501-3.7812-1.3799-3.7812-3.645c0-0.7949,0.4805-2.0698,2.6104-2.0698
			c1.3506,0,2.5049,0.645,2.3994,2.145h-1.3643c0.0146-0.7949-0.4053-1.2153-1.1846-1.2153c-0.6602,0-1.1699,0.3604-1.1699,1.02
			c0,1.335,3.7793,1.3052,3.7793,3.6152C610.1172,143.605,608.9775,144.25,607.4775,144.25z"/>
		<path fill="#231F20" d="M615.9521,136.5254h1.2295v6c0,0.5249,0.0303,1.0498,0.0752,1.5747h-1.3047v-0.915h-0.0449
			c-0.4053,0.6899-1.125,1.0649-1.9199,1.0649c-1.3203,0-2.04-0.6597-2.04-1.9497v-5.7749h1.2305v5.25
			c0,0.9146,0.4199,1.5298,1.2891,1.5298c0.6602,0,1.4854-0.4951,1.4854-1.7549V136.5254z"/>
		<path fill="#231F20" d="M620.6016,144.1001h-1.2295v-10.8296h1.2295V144.1001z"/>
		<path fill="#231F20" d="M622.627,133.2705h1.3799v1.3198h-1.3799V133.2705z M623.9316,144.1001h-1.2305v-7.5747h1.2305V144.1001z"
			/>
		<path fill="#231F20" d="M630.1719,144.1001v-5.25c0-0.8096-0.2852-1.4697-1.335-1.4697c-1.3506,0-1.5449,1.1997-1.5449,2.2349
			v4.4849h-1.2295v-5.9995c0-0.5254-0.0312-1.0503-0.0762-1.5752h1.3057v0.9751h0.0596c0.4805-0.855,1.0508-1.125,2.0254-1.125
			c1.6191,0,2.0254,0.9751,2.0254,2.4746v5.25H630.1719z"/>
	</g>
</g>
<g>
	<g>
		<path fill="#231F20" d="M337.2124,113.2705h4.0796c2.0703,0,2.8799,1.2598,2.8799,3.2397c0,1.23-0.3599,3.1802-3.0146,3.1802
			h-1.6797v4.4097h-2.2651V113.2705z M339.4775,118.0254h1.2598c0.6748,0,1.1401-0.7349,1.1401-1.4551
			c0-0.8848-0.2402-1.6348-1.2603-1.6348h-1.1396V118.0254z"/>
		<path fill="#231F20" d="M351.1772,122.6899c0,0.4653,0.0596,0.9453,0.105,1.4102h-1.9653l-0.0898-1.0049h-0.0298
			c-0.4502,0.7798-1.0649,1.1548-1.98,1.1548c-1.4702,0-2.0103-1.0947-2.0103-2.415c0-2.5049,1.9351-2.6099,3.8999-2.5796v-0.585
			c0-0.645-0.0898-1.1099-0.855-1.1099c-0.7349,0-0.7949,0.5547-0.7949,1.1548h-2.0698c0-0.915,0.2852-1.5,0.7798-1.8447
			c0.48-0.3604,1.1704-0.4951,1.98-0.4951c2.6851,0,3.0303,1.1548,3.0303,2.5347V122.6899z M347.2773,121.7451
			c0,0.54,0.0898,1.2002,0.7798,1.2002c1.2451,0,1.0498-1.6802,1.0498-2.5049C348.0571,120.4854,347.2773,120.395,347.2773,121.7451
			z"/>
		<path fill="#231F20" d="M355.0474,117.2905h0.0298c0.21-0.3452,0.4648-0.5703,0.75-0.7051c0.2998-0.1499,0.645-0.21,1.0352-0.21
			c1.0049,0,1.8896,0.6001,1.8896,1.6499v6.0747h-2.1147v-5.2197c0-0.6748-0.1201-1.2002-0.7949-1.2002
			c-0.6753,0-0.7949,0.5254-0.7949,1.2002v5.2197h-2.1152v-7.5747h2.1152V117.2905z"/>
		<path fill="#231F20" d="M364.2871,119.2251c0-1.1245-0.2852-1.4995-0.9448-1.4995c-0.8999,0-0.9751,0.7949-0.9751,2.3696
			c0,2.3101,0.1948,2.8052,0.9751,2.8052c0.6597,0,0.9746-0.6001,0.9746-1.5903h2.1152c0,2.0552-1.1099,2.9399-3.0898,2.9399
			c-2.73,0-3.0898-1.665-3.0898-4.0347c0-2.0698,0.2998-3.8398,3.0898-3.8398c1.9497,0,3.0596,0.8701,3.0596,2.8496H364.2871z"/>
		<path fill="#231F20" d="M369.9424,116.5254v0.9751h0.0298c0.3901-0.8701,1.1099-1.125,1.9648-1.125v1.8896
			c-1.8599-0.1196-1.8896,0.96-1.8896,1.71v4.125h-2.1152v-7.5747H369.9424z"/>
		<path fill="#231F20" d="M374.8774,120.6504c0,0.8999,0.0298,2.25,0.96,2.25c0.75,0,0.8999-0.7202,0.8999-1.3501h2.145
			c-0.0303,0.8247-0.3003,1.5-0.8101,1.9648c-0.4951,0.4648-1.2451,0.7349-2.2349,0.7349c-2.73,0-3.0898-1.665-3.0898-4.0347
			c0-2.0698,0.2998-3.8398,3.0898-3.8398c2.8496,0,3.1646,1.8447,3.0898,4.2749H374.8774z M376.812,119.4653
			c0-0.7349,0.0303-1.7852-0.9746-1.7852c-0.9751,0-0.96,1.1401-0.96,1.7852H376.812z"/>
		<path fill="#231F20" d="M386.1724,122.6899c0,0.4653,0.0596,0.9453,0.105,1.4102h-1.9653l-0.0898-1.0049h-0.0298
			c-0.4502,0.7798-1.0649,1.1548-1.98,1.1548c-1.4702,0-2.0103-1.0947-2.0103-2.415c0-2.5049,1.9351-2.6099,3.8999-2.5796v-0.585
			c0-0.645-0.0898-1.1099-0.855-1.1099c-0.7349,0-0.7949,0.5547-0.7949,1.1548h-2.0698c0-0.915,0.2852-1.5,0.7798-1.8447
			c0.48-0.3604,1.1704-0.4951,1.98-0.4951c2.6851,0,3.0303,1.1548,3.0303,2.5347V122.6899z M382.2725,121.7451
			c0,0.54,0.0898,1.2002,0.7798,1.2002c1.2451,0,1.0498-1.6802,1.0498-2.5049C383.0522,120.4854,382.2725,120.395,382.2725,121.7451
			z"/>
		<path fill="#231F20" d="M389.5923,121.6704c-0.0151,0.3447,0,0.6748,0.105,0.9146c0.1201,0.2402,0.3452,0.3604,0.7651,0.3604
			s0.7798-0.27,0.7798-0.7803c0-1.605-3.7197-1.2446-3.7197-3.6597c0-1.6348,1.6196-2.1299,2.9849-2.1299
			c1.4399,0,2.7446,0.6899,2.625,2.3247h-2.0703c0-0.5249-0.0596-0.8398-0.21-0.9746c-0.1348-0.1353-0.3149-0.165-0.5396-0.165
			c-0.4653,0-0.7202,0.2998-0.7202,0.8096c0,1.2002,3.7197,1.1401,3.7197,3.5703c0,1.3198-1.0796,2.3096-2.835,2.3096
			c-1.8447,0-3.0747-0.4648-2.9546-2.5796H389.5923z"/>
		<path fill="#231F20" d="M321.6655,144.25c-1.6353,0-2.6548-0.7197-2.6099-2.46h1.395c0,0.4351,0.0146,1.4551,1.2598,1.4551
			c0.7349,0,1.3052-0.375,1.3052-1.1548c0-1.3501-3.7803-1.3799-3.7803-3.645c0-0.7949,0.48-2.0698,2.6099-2.0698
			c1.3501,0,2.5054,0.645,2.3999,2.145h-1.3647c0.0151-0.7949-0.4048-1.2153-1.1851-1.2153c-0.6597,0-1.1699,0.3604-1.1699,1.02
			c0,1.335,3.7798,1.3052,3.7798,3.6152C324.3052,143.605,323.1655,144.25,321.6655,144.25z"/>
		<path fill="#231F20" d="M327.29,140.7104c0,2.1147,0.5703,2.5347,1.5303,2.5347c0.8398,0,1.2749-0.6748,1.3198-1.4399h1.3501
			c-0.0151,1.6802-1.0503,2.4448-2.6401,2.4448c-1.605,0-2.8799-0.48-2.8799-3.8247c0-2.2197,0.2549-4.0498,2.8799-4.0498
			c2.1597,0,2.6997,1.1851,2.6997,3.6899v0.645H327.29z M330.2451,139.7803c0-2.2051-0.6152-2.4751-1.5151-2.4751
			c-0.7798,0-1.4248,0.375-1.4399,2.4751H330.2451z"/>
		<path fill="#231F20" d="M337.7002,144.1001v-5.25c0-0.8096-0.2852-1.4697-1.335-1.4697c-1.3501,0-1.5449,1.1997-1.5449,2.2349
			v4.4849h-1.23v-5.9995c0-0.5254-0.0303-1.0503-0.0752-1.5752h1.3052v0.9751h0.0601c0.48-0.855,1.0498-1.125,2.0249-1.125
			c1.6196,0,2.0249,0.9751,2.0249,2.4746v5.25H337.7002z"/>
		<path fill="#231F20" d="M343.3252,144.25c-1.6348,0-2.6548-0.7197-2.6099-2.46h1.395c0,0.4351,0.0146,1.4551,1.2598,1.4551
			c0.7349,0,1.3052-0.375,1.3052-1.1548c0-1.3501-3.7803-1.3799-3.7803-3.645c0-0.7949,0.48-2.0698,2.6099-2.0698
			c1.3501,0,2.5049,0.645,2.3999,2.145H344.54c0.0151-0.7949-0.4048-1.2153-1.1851-1.2153c-0.6597,0-1.1699,0.3604-1.1699,1.02
			c0,1.335,3.7798,1.3052,3.7798,3.6152C345.9648,143.605,344.8252,144.25,343.3252,144.25z"/>
		<path fill="#231F20" d="M348.9497,140.7104c0,2.1147,0.5703,2.5347,1.5303,2.5347c0.8398,0,1.2749-0.6748,1.3198-1.4399h1.3496
			c-0.0146,1.6802-1.0498,2.4448-2.6396,2.4448c-1.605,0-2.8799-0.48-2.8799-3.8247c0-2.2197,0.2549-4.0498,2.8799-4.0498
			c2.1602,0,2.6997,1.1851,2.6997,3.6899v0.645H348.9497z M351.9048,139.7803c0-2.2051-0.6152-2.4751-1.5151-2.4751
			c-0.7798,0-1.4248,0.375-1.4399,2.4751H351.9048z"/>
		<path fill="#231F20" d="M357.4849,144.25c-1.6353,0-2.6548-0.7197-2.6099-2.46h1.395c0,0.4351,0.0146,1.4551,1.2598,1.4551
			c0.7349,0,1.3052-0.375,1.3052-1.1548c0-1.3501-3.7803-1.3799-3.7803-3.645c0-0.7949,0.48-2.0698,2.6099-2.0698
			c1.3501,0,2.5054,0.645,2.3999,2.145h-1.3647c0.0151-0.7949-0.4048-1.2153-1.1851-1.2153c-0.6597,0-1.1699,0.3604-1.1699,1.02
			c0,1.335,3.7798,1.3052,3.7798,3.6152C360.1245,143.605,358.9849,144.25,357.4849,144.25z"/>
		<path fill="#231F20" d="M369.2446,136.5254h1.23v8.3398c0,1.6948-1.125,2.0996-2.79,2.0996c-1.2598,0-2.3999-0.6299-2.2949-2.0249
			h1.3799c0.0151,0.7051,0.48,1.0952,1.1548,1.0952c0.855,0,1.3203-0.5249,1.3203-1.3052v-1.5747h-0.0454
			c-0.3149,0.5996-1.0049,0.9448-1.6646,0.9448c-2.0552,0-2.46-1.77-2.46-4.02c0-3.4795,1.7549-3.7046,2.3696-3.7046
			c0.7949,0,1.4253,0.3447,1.77,1.0801h0.0303V136.5254z M367.8047,137.3955c-1.395,0-1.4399,1.6797-1.4399,2.6846
			c0,2.4302,0.5547,3,1.4697,3c1.4849,0,1.4399-1.7549,1.4399-2.8047C369.2744,139.1504,369.3496,137.3955,367.8047,137.3955z"/>
		<path fill="#231F20" d="M373.9395,144.1001h-1.23v-10.8296h1.23V144.1001z"/>
		<path fill="#231F20" d="M380.1191,136.5254h1.23v6c0,0.5249,0.0298,1.0498,0.0747,1.5747h-1.3047v-0.915h-0.0449
			c-0.4053,0.6899-1.125,1.0649-1.9199,1.0649c-1.3203,0-2.04-0.6597-2.04-1.9497v-5.7749h1.23v5.25
			c0,0.9146,0.4199,1.5298,1.29,1.5298c0.6597,0,1.4849-0.4951,1.4849-1.7549V136.5254z"/>
		<path fill="#231F20" d="M387.5293,138.9551c0.0298-1.2446-0.5854-1.5747-1.0503-1.5747c-0.9448,0-1.5898,0.4502-1.5898,2.52
			c0,2.46,0.3149,3.3447,1.5898,3.3447c0.2852,0,1.1401-0.2998,1.0952-1.665h1.2896c0.0454,2.1299-1.5449,2.6699-2.3848,2.6699
			c-1.605,0-2.8799-0.48-2.8799-3.8247c0-2.2197,0.2549-4.0498,2.8799-4.0498c1.5151,0,2.3999,0.8848,2.3252,2.5796H387.5293z"/>
		<path fill="#231F20" d="M390.8594,140.4253c0-2.2197,0.2549-4.0498,2.8799-4.0498c2.6245,0,2.8799,1.8301,2.8799,4.0498
			c0,3.3447-1.2749,3.8247-2.8799,3.8247S390.8594,143.77,390.8594,140.4253z M395.3291,139.9004c0-2.0698-0.645-2.52-1.5898-2.52
			c-0.9453,0-1.5898,0.4502-1.5898,2.52c0,2.46,0.3149,3.3447,1.5898,3.3447S395.3291,142.3604,395.3291,139.9004z"/>
		<path fill="#231F20" d="M400.8042,144.25c-1.6353,0-2.6548-0.7197-2.6099-2.46h1.395c0,0.4351,0.0146,1.4551,1.2598,1.4551
			c0.7349,0,1.3052-0.375,1.3052-1.1548c0-1.3501-3.7803-1.3799-3.7803-3.645c0-0.7949,0.48-2.0698,2.6099-2.0698
			c1.3501,0,2.5054,0.645,2.3999,2.145h-1.3647c0.0151-0.7949-0.4048-1.2153-1.1851-1.2153c-0.6597,0-1.1699,0.3604-1.1699,1.02
			c0,1.335,3.7798,1.3052,3.7798,3.6152C403.4438,143.605,402.3042,144.25,400.8042,144.25z"/>
		<path fill="#231F20" d="M406.4292,140.7104c0,2.1147,0.5703,2.5347,1.5303,2.5347c0.8398,0,1.2749-0.6748,1.3198-1.4399h1.3496
			c-0.0146,1.6802-1.0498,2.4448-2.6396,2.4448c-1.605,0-2.8799-0.48-2.8799-3.8247c0-2.2197,0.2549-4.0498,2.8799-4.0498
			c2.1602,0,2.6997,1.1851,2.6997,3.6899v0.645H406.4292z M409.3843,139.7803c0-2.2051-0.6152-2.4751-1.5151-2.4751
			c-0.7798,0-1.4248,0.375-1.4399,2.4751H409.3843z"/>
	</g>
</g>
<g>
	<g>
		<path fill="#231F20" d="M502.0952,288.6855c0-2.8652,0-5.5952,3.7349-5.5952c2.3101,0,3.2397,1.2754,3.1499,3.6001h-2.2197
			c0-1.4399-0.2549-1.98-0.9302-1.98c-1.2749,0-1.4399,1.2002-1.4399,3.9751c0,2.7744,0.165,3.9746,1.4399,3.9746
			c1.0503,0,1.0049-1.3501,1.0352-2.2051h2.2349c0,2.895-1.1548,3.8252-3.27,3.8252
			C502.0952,294.2803,502.0952,291.52,502.0952,288.6855z"/>
		<path fill="#231F20" d="M514.1401,293.335h-0.0303c-0.21,0.3301-0.4497,0.5703-0.75,0.7051
			c-0.2998,0.1499-0.6299,0.21-1.0347,0.21c-1.0049,0-1.8901-0.6001-1.8901-1.6499v-6.0747h2.1152v5.25
			c0,0.6748,0.1196,1.1699,0.7949,1.1699c0.6748,0,0.7949-0.4951,0.7949-1.1699v-5.25h2.1147v6.0747
			c0,0.4951,0.0303,1.0049,0.0752,1.5h-2.1899V293.335z"/>
		<path fill="#231F20" d="M519.9453,286.5254v0.9751h0.0298c0.3901-0.8701,1.1099-1.125,1.9648-1.125v1.8896
			c-1.8599-0.1196-1.8896,0.96-1.8896,1.71v4.125h-2.1152v-7.5747H519.9453z"/>
		<path fill="#231F20" d="M524.9404,286.5254v0.9751h0.0298c0.3901-0.8701,1.1099-1.125,1.9648-1.125v1.8896
			c-1.8599-0.1196-1.8896,0.96-1.8896,1.71v4.125h-2.1152v-7.5747H524.9404z"/>
		<path fill="#231F20" d="M529.875,290.6504c0,0.8999,0.0298,2.25,0.96,2.25c0.75,0,0.8999-0.7202,0.8999-1.3501h2.145
			c-0.0303,0.8247-0.3003,1.5-0.8101,1.9648c-0.4951,0.4648-1.2451,0.7349-2.2349,0.7349c-2.73,0-3.0898-1.665-3.0898-4.0347
			c0-2.0698,0.2998-3.8398,3.0898-3.8398c2.8496,0,3.1646,1.8447,3.0898,4.2749H529.875z M531.8096,289.4653
			c0-0.7349,0.0303-1.7852-0.9746-1.7852c-0.9751,0-0.96,1.1401-0.96,1.7852H531.8096z"/>
		<path fill="#231F20" d="M537.54,287.2905h0.0298c0.21-0.3452,0.4648-0.5703,0.75-0.7051c0.2998-0.1499,0.645-0.21,1.0352-0.21
			c1.0049,0,1.8896,0.6001,1.8896,1.6499v6.0747h-2.1147v-5.2197c0-0.6748-0.1201-1.2002-0.7949-1.2002
			c-0.6753,0-0.7949,0.5254-0.7949,1.2002v5.2197h-2.1152v-7.5747h2.1152V287.2905z"/>
		<path fill="#231F20" d="M542.0698,286.5254h0.855v-1.1997l2.1152-0.9453v2.145h1.0947v1.3052H545.04v4.0498
			c0,0.5698-0.0151,0.9448,0.6748,0.9448c0.1348,0,0.27,0,0.375-0.0303v1.3052c-0.2852,0.0298-0.585,0.0752-1.0952,0.0752
			c-1.8296,0-2.0698-1.2153-2.0698-1.6802v-4.6646h-0.855V286.5254z"/>
		<path fill="#231F20" d="M550.4248,283.2705h2.1152v3.9751h0.0298c0.4351-0.645,0.96-0.8701,1.7251-0.8701
			c2.1299,0,2.0698,2.355,2.0698,3.8848c0,1.5601,0.0747,3.9897-2.1147,3.9897c-0.8101,0-1.395-0.2549-1.7852-0.9897h-0.0298v0.8398
			h-2.0103V283.2705z M554.2949,290.2451c0-1.5146,0.0146-2.5649-0.8999-2.5649c-0.8701,0-0.855,1.0503-0.855,2.5649
			c0,1.9053,0.1348,2.7002,0.855,2.7002C554.1597,292.9453,554.2949,292.1504,554.2949,290.2451z"/>
		<path fill="#231F20" d="M560.2197,283.2705v10.8296h-2.1147v-10.8296H560.2197z"/>
		<path fill="#231F20" d="M561.915,290.2153c0-2.0698,0.2998-3.8398,3.0898-3.8398c2.7896,0,3.0898,1.77,3.0898,3.8398
			c0,2.3696-0.3599,4.0347-3.0898,4.0347S561.915,292.585,561.915,290.2153z M565.9795,290.0952
			c0-1.5747-0.0747-2.3696-0.9746-2.3696s-0.9751,0.7949-0.9751,2.3696c0,2.3101,0.1948,2.8052,0.9751,2.8052
			C565.7847,292.9004,565.9795,292.4053,565.9795,290.0952z"/>
		<path fill="#231F20" d="M569.415,290.2153c0-2.0698,0.2998-3.8398,3.0898-3.8398c2.7896,0,3.0898,1.77,3.0898,3.8398
			c0,2.3696-0.3599,4.0347-3.0898,4.0347S569.415,292.585,569.415,290.2153z M573.4795,290.0952
			c0-1.5747-0.0747-2.3696-0.9746-2.3696s-0.9751,0.7949-0.9751,2.3696c0,2.3101,0.1948,2.8052,0.9751,2.8052
			C573.2847,292.9004,573.4795,292.4053,573.4795,290.0952z"/>
		<path fill="#231F20" d="M580.8745,294.1001v-0.8398h-0.0298c-0.3901,0.7349-0.9751,0.9897-1.7852,0.9897
			c-2.1899,0-2.1147-2.4297-2.1147-3.9897c0-1.5298-0.0601-3.8848,2.0698-3.8848c0.7651,0,1.29,0.2251,1.7251,0.8701h0.0298v-3.9751
			h2.1152v10.8296H580.8745z M580.7695,290.2451c0-1.5146,0.0151-2.5649-0.855-2.5649c-0.9146,0-0.8999,1.0503-0.8999,2.5649
			c0,1.9053,0.1353,2.7002,0.8999,2.7002C580.6348,292.9453,580.7695,292.1504,580.7695,290.2451z"/>
		<path fill="#231F20" d="M593.7148,286.5254v7.8896c0,0.5249,0.0293,2.5947-2.8809,2.5947c-1.5742,0-2.9238-0.4048-2.9697-2.2495
			h2.0703c0,0.3149,0.0449,0.585,0.1797,0.7646c0.1357,0.1953,0.375,0.3003,0.7051,0.3003c0.5244,0,0.7803-0.4951,0.7803-1.2603
			v-1.4546h-0.0303c-0.3154,0.585-0.915,0.8848-1.6045,0.8848c-2.3252,0-2.2207-2.1299-2.2207-3.8398
			c0-1.665,0.0303-3.7798,2.2354-3.7798c0.75,0,1.3955,0.3301,1.6943,1.0347h0.0303v-0.8848H593.7148z M590.7295,292.6899
			c0.7646,0,0.8701-0.7949,0.8701-2.3999c0-1.6646-0.0752-2.6099-0.8555-2.6099c-0.7949,0-0.9297,0.5552-0.9297,2.8652
			C589.8145,291.25,589.709,292.6899,590.7295,292.6899z"/>
		<path fill="#231F20" d="M597.7188,283.2705v10.8296h-2.1143v-10.8296H597.7188z"/>
		<path fill="#231F20" d="M603.2998,293.335h-0.0303c-0.21,0.3301-0.4492,0.5703-0.75,0.7051
			c-0.2998,0.1499-0.6299,0.21-1.0352,0.21c-1.0039,0-1.8896-0.6001-1.8896-1.6499v-6.0747h2.1152v5.25
			c0,0.6748,0.1201,1.1699,0.7949,1.1699s0.7949-0.4951,0.7949-1.1699v-5.25h2.1143v6.0747c0,0.4951,0.0312,1.0049,0.0762,1.5
			h-2.1904V293.335z"/>
		<path fill="#231F20" d="M610.9492,289.2251c0-1.1245-0.2852-1.4995-0.9443-1.4995c-0.8994,0-0.9756,0.7949-0.9756,2.3696
			c0,2.3101,0.1953,2.8052,0.9756,2.8052c0.6592,0,0.9746-0.6001,0.9746-1.5903h2.1152c0,2.0552-1.1104,2.9399-3.0898,2.9399
			c-2.7295,0-3.0898-1.665-3.0898-4.0347c0-2.0698,0.2998-3.8398,3.0898-3.8398c1.9502,0,3.0596,0.8701,3.0596,2.8496H610.9492z"/>
		<path fill="#231F20" d="M614.415,290.2153c0-2.0698,0.2998-3.8398,3.0898-3.8398s3.0898,1.77,3.0898,3.8398
			c0,2.3696-0.3604,4.0347-3.0898,4.0347S614.415,292.585,614.415,290.2153z M618.4795,290.0952
			c0-1.5747-0.0752-2.3696-0.9746-2.3696s-0.9756,0.7949-0.9756,2.3696c0,2.3101,0.1953,2.8052,0.9756,2.8052
			S618.4795,292.4053,618.4795,290.0952z"/>
		<path fill="#231F20" d="M623.7598,291.6704c-0.0156,0.3447,0,0.6748,0.1055,0.9146c0.1191,0.2402,0.3447,0.3604,0.7646,0.3604
			s0.7803-0.27,0.7803-0.7803c0-1.605-3.7207-1.2446-3.7207-3.6597c0-1.6348,1.6201-2.1299,2.9854-2.1299
			c1.4404,0,2.7451,0.6899,2.625,2.3247h-2.0703c0-0.5249-0.0596-0.8398-0.21-0.9746c-0.1348-0.1353-0.3145-0.165-0.5391-0.165
			c-0.4658,0-0.7207,0.2998-0.7207,0.8096c0,1.2002,3.7197,1.1401,3.7197,3.5703c0,1.3198-1.0791,2.3096-2.835,2.3096
			c-1.8447,0-3.0742-0.4648-2.9551-2.5796H623.7598z"/>
		<path fill="#231F20" d="M630.7051,290.6504c0,0.8999,0.0293,2.25,0.959,2.25c0.75,0,0.9004-0.7202,0.9004-1.3501h2.1445
			c-0.0293,0.8247-0.2998,1.5-0.8096,1.9648c-0.4951,0.4648-1.2451,0.7349-2.2354,0.7349c-2.7295,0-3.0898-1.665-3.0898-4.0347
			c0-2.0698,0.3008-3.8398,3.0898-3.8398c2.8496,0,3.165,1.8447,3.0898,4.2749H630.7051z M632.6387,289.4653
			c0-0.7349,0.0312-1.7852-0.9746-1.7852c-0.9746,0-0.959,1.1401-0.959,1.7852H632.6387z"/>
		<path fill="#231F20" d="M641.8789,283.2705v10.8296h-2.1152v-10.8296H641.8789z"/>
		<path fill="#231F20" d="M645.7041,290.6504c0,0.8999,0.0303,2.25,0.96,2.25c0.75,0,0.9004-0.7202,0.9004-1.3501h2.1445
			c-0.0293,0.8247-0.3008,1.5-0.8105,1.9648c-0.4941,0.4648-1.2441,0.7349-2.2344,0.7349c-2.7305,0-3.0898-1.665-3.0898-4.0347
			c0-2.0698,0.2998-3.8398,3.0898-3.8398c2.8496,0,3.1641,1.8447,3.0898,4.2749H645.7041z M647.6387,289.4653
			c0-0.7349,0.0303-1.7852-0.9746-1.7852c-0.9746,0-0.96,1.1401-0.96,1.7852H647.6387z"/>
		<path fill="#231F20" d="M650.5352,286.5254h2.1445l1.0645,5.6846h0.0312l1.1094-5.6846h2.0703l-2.0859,7.5747h-2.3242
			L650.5352,286.5254z"/>
		<path fill="#231F20" d="M659.8633,290.6504c0,0.8999,0.0312,2.25,0.9609,2.25c0.75,0,0.8984-0.7202,0.8984-1.3501h2.1465
			c-0.0312,0.8247-0.3008,1.5-0.8105,1.9648c-0.4941,0.4648-1.2441,0.7349-2.2344,0.7349c-2.7305,0-3.0898-1.665-3.0898-4.0347
			c0-2.0698,0.2988-3.8398,3.0898-3.8398c2.8496,0,3.1641,1.8447,3.0898,4.2749H659.8633z M661.7988,289.4653
			c0-0.7349,0.0293-1.7852-0.9746-1.7852c-0.9766,0-0.9609,1.1401-0.9609,1.7852H661.7988z"/>
		<path fill="#231F20" d="M667.709,283.2705v10.8296h-2.1152v-10.8296H667.709z"/>
	</g>
</g>
<g>
	<g>
		<path fill="#231F20" d="M790.9678,124.1001v-10.8296h2.2646v9.0298h3.3906v1.7998H790.9678z"/>
		<path fill="#231F20" d="M799.8027,113.2705v1.665h-2.1152v-1.665H799.8027z M799.8027,124.1001h-2.1152v-7.5747h2.1152V124.1001z"
			/>
		<path fill="#231F20" d="M800.957,116.5254h2.1455l1.0654,5.6846h0.0293l1.1094-5.6846h2.0703l-2.085,7.5747h-2.3252
			L800.957,116.5254z"/>
		<path fill="#231F20" d="M810.2871,120.6504c0,0.8999,0.0303,2.25,0.9609,2.25c0.75,0,0.8994-0.7202,0.8994-1.3501h2.1455
			c-0.0312,0.8247-0.3008,1.5-0.8105,1.9648c-0.4951,0.4648-1.2451,0.7349-2.2344,0.7349c-2.7305,0-3.0898-1.665-3.0898-4.0347
			c0-2.0698,0.2988-3.8398,3.0898-3.8398c2.8496,0,3.1641,1.8447,3.0898,4.2749H810.2871z M812.2227,119.4653
			c0-0.7349,0.0293-1.7852-0.9746-1.7852c-0.9756,0-0.9609,1.1401-0.9609,1.7852H812.2227z"/>
		<path fill="#231F20" d="M817.8477,116.5254v0.9751h0.0293c0.3906-0.8701,1.1104-1.125,1.9648-1.125v1.8896
			c-1.8594-0.1196-1.8887,0.96-1.8887,1.71v4.125h-2.1152v-7.5747H817.8477z"/>
		<path fill="#231F20" d="M749.9277,137.4253h0.0303c0.4199-0.7051,0.9443-1.0498,1.7402-1.0498c1.2148,0,2.4443,0.48,2.4443,3.8096
			c0,1.8901-0.0596,4.0649-2.5039,4.0649c-0.7207,0-1.2461-0.3149-1.666-0.915h-0.0449v3.6299h-1.2295v-10.4395h1.2295V137.4253z
			 M752.8535,140.1851c0-1.1396,0-2.8047-1.5449-2.8047c-1.5156,0-1.3809,2.1001-1.3809,3.2549
			c0,1.0049,0.0605,2.6099,1.4258,2.6099C752.6729,143.2451,752.8535,142.21,752.8535,140.1851z"/>
		<path fill="#231F20" d="M757.3682,137.6655h0.0303c0.5098-1.1553,1.1396-1.29,2.3398-1.29v1.2749
			c-0.1055-0.0151-0.2246-0.0303-0.3301-0.0449c-0.1055-0.0151-0.21-0.0303-0.3301-0.0303c-1.3652,0-1.71,1.0352-1.71,2.0552v4.4697
			h-1.2295v-7.5747h1.2295V137.6655z"/>
		<path fill="#231F20" d="M760.8789,140.4253c0-2.2197,0.2539-4.0498,2.8789-4.0498s2.8809,1.8301,2.8809,4.0498
			c0,3.3447-1.2754,3.8247-2.8809,3.8247C762.1533,144.25,760.8789,143.77,760.8789,140.4253z M765.3477,139.9004
			c0-2.0698-0.6445-2.52-1.5898-2.52s-1.5898,0.4502-1.5898,2.52c0,2.46,0.3154,3.3447,1.5898,3.3447
			C765.0332,143.2451,765.3477,142.3604,765.3477,139.9004z"/>
		<path fill="#231F20" d="M772.5938,133.2705h1.2295v10.8296h-1.2295v-0.8999h-0.0312c-0.4199,0.7051-0.9443,1.0498-1.7393,1.0498
			c-1.2148,0-2.4443-0.48-2.4443-3.8096c0-1.8901,0.0596-4.0649,2.5039-4.0649c0.7207,0,1.2451,0.3149,1.665,0.915h0.0459V133.2705z
			 M771.168,137.3804c-1.3203,0-1.5,1.0498-1.5,3.0747c0,1.1401,0,2.79,1.5449,2.79c1.3809,0,1.3809-1.71,1.3809-3.2397
			C772.5938,139.0005,772.5332,137.3804,771.168,137.3804z"/>
		<path fill="#231F20" d="M780.1387,136.5254h1.2295v6c0,0.5249,0.0303,1.0498,0.0752,1.5747h-1.3047v-0.915h-0.0449
			c-0.4062,0.6899-1.125,1.0649-1.9199,1.0649c-1.3203,0-2.041-0.6597-2.041-1.9497v-5.7749h1.2305v5.25
			c0,0.9146,0.4199,1.5298,1.29,1.5298c0.6592,0,1.4854-0.4951,1.4854-1.7549V136.5254z"/>
		<path fill="#231F20" d="M787.5479,138.9551c0.0303-1.2446-0.585-1.5747-1.0498-1.5747c-0.9453,0-1.5898,0.4502-1.5898,2.52
			c0,2.46,0.3145,3.3447,1.5898,3.3447c0.2852,0,1.1406-0.2998,1.0957-1.665h1.2891c0.0449,2.1299-1.5449,2.6699-2.3848,2.6699
			c-1.6055,0-2.8799-0.48-2.8799-3.8247c0-2.2197,0.2549-4.0498,2.8799-4.0498c1.5156,0,2.4004,0.8848,2.3252,2.5796H787.5479z"/>
		<path fill="#231F20" d="M792.2881,140.7104c0,2.1147,0.5703,2.5347,1.5303,2.5347c0.8398,0,1.2754-0.6748,1.3203-1.4399h1.3496
			c-0.0156,1.6802-1.0508,2.4448-2.6406,2.4448c-1.6045,0-2.8789-0.48-2.8789-3.8247c0-2.2197,0.2539-4.0498,2.8789-4.0498
			c2.1602,0,2.7002,1.1851,2.7002,3.6899v0.645H792.2881z M795.2432,139.7803c0-2.2051-0.6152-2.4751-1.5146-2.4751
			c-0.7803,0-1.4258,0.375-1.4404,2.4751H795.2432z"/>
		<path fill="#231F20" d="M800.8232,144.25c-1.6348,0-2.6553-0.7197-2.6104-2.46h1.3955c0,0.4351,0.0146,1.4551,1.2598,1.4551
			c0.7354,0,1.3057-0.375,1.3057-1.1548c0-1.3501-3.7812-1.3799-3.7812-3.645c0-0.7949,0.4805-2.0698,2.6104-2.0698
			c1.3506,0,2.5049,0.645,2.3994,2.145h-1.3643c0.0146-0.7949-0.4053-1.2153-1.1846-1.2153c-0.6602,0-1.1699,0.3604-1.1699,1.02
			c0,1.335,3.7793,1.3052,3.7793,3.6152C803.4629,143.605,802.3232,144.25,800.8232,144.25z"/>
		<path fill="#231F20" d="M812.582,136.5254h1.2305v8.3398c0,1.6948-1.125,2.0996-2.79,2.0996
			c-1.2598,0-2.3994-0.6299-2.2949-2.0249h1.3799c0.0156,0.7051,0.4805,1.0952,1.1543,1.0952c0.8555,0,1.3203-0.5249,1.3203-1.3052
			v-1.5747h-0.0449c-0.3145,0.5996-1.0049,0.9448-1.6641,0.9448c-2.0557,0-2.4609-1.77-2.4609-4.02
			c0-3.4795,1.7559-3.7046,2.3701-3.7046c0.7949,0,1.4248,0.3447,1.7705,1.0801h0.0293V136.5254z M811.1426,137.3955
			c-1.3945,0-1.4395,1.6797-1.4395,2.6846c0,2.4302,0.5547,3,1.4688,3c1.4854,0,1.4404-1.7549,1.4404-2.8047
			C812.6123,139.1504,812.6875,137.3955,811.1426,137.3955z"/>
		<path fill="#231F20" d="M817.2773,144.1001h-1.2305v-10.8296h1.2305V144.1001z"/>
		<path fill="#231F20" d="M821.6875,142.6899h0.0293l1.8145-6.1646h1.3359l-3.4355,10.4395h-1.2744l0.8545-2.8647l-2.5645-7.5747
			h1.4248L821.6875,142.6899z"/>
		<path fill="#231F20" d="M830.0273,138.9551c0.0293-1.2446-0.5859-1.5747-1.0508-1.5747c-0.9443,0-1.5898,0.4502-1.5898,2.52
			c0,2.46,0.3154,3.3447,1.5898,3.3447c0.2852,0,1.1406-0.2998,1.0957-1.665h1.2891c0.0459,2.1299-1.5449,2.6699-2.3848,2.6699
			c-1.6045,0-2.8789-0.48-2.8789-3.8247c0-2.2197,0.2539-4.0498,2.8789-4.0498c1.5156,0,2.4004,0.8848,2.3262,2.5796H830.0273z"/>
		<path fill="#231F20" d="M833.3574,140.4253c0-2.2197,0.2549-4.0498,2.8799-4.0498c2.624,0,2.8799,1.8301,2.8799,4.0498
			c0,3.3447-1.2754,3.8247-2.8799,3.8247S833.3574,143.77,833.3574,140.4253z M837.8271,139.9004c0-2.0698-0.6455-2.52-1.5898-2.52
			c-0.9453,0-1.5898,0.4502-1.5898,2.52c0,2.46,0.3154,3.3447,1.5898,3.3447S837.8271,142.3604,837.8271,139.9004z"/>
		<path fill="#231F20" d="M845.0723,136.5254h1.2305v8.3398c0,1.6948-1.125,2.0996-2.791,2.0996
			c-1.2598,0-2.3994-0.6299-2.2949-2.0249h1.3809c0.0146,0.7051,0.4795,1.0952,1.1543,1.0952c0.8555,0,1.3203-0.5249,1.3203-1.3052
			v-1.5747h-0.0449c-0.3154,0.5996-1.0059,0.9448-1.665,0.9448c-2.0557,0-2.46-1.77-2.46-4.02c0-3.4795,1.7549-3.7046,2.3691-3.7046
			c0.7959,0,1.4258,0.3447,1.7705,1.0801h0.0303V136.5254z M843.6328,137.3955c-1.3955,0-1.4404,1.6797-1.4404,2.6846
			c0,2.4302,0.5547,3,1.4697,3c1.4844,0,1.4395-1.7549,1.4395-2.8047C845.1016,139.1504,845.1777,137.3955,843.6328,137.3955z"/>
		<path fill="#231F20" d="M849.7676,140.7104c0,2.1147,0.5703,2.5347,1.5293,2.5347c0.8398,0,1.2754-0.6748,1.3203-1.4399h1.3496
			c-0.0146,1.6802-1.0498,2.4448-2.6396,2.4448c-1.6045,0-2.8799-0.48-2.8799-3.8247c0-2.2197,0.2549-4.0498,2.8799-4.0498
			c2.1602,0,2.7002,1.1851,2.7002,3.6899v0.645H849.7676z M852.7227,139.7803c0-2.2051-0.6152-2.4751-1.5156-2.4751
			c-0.7793,0-1.4248,0.375-1.4395,2.4751H852.7227z"/>
		<path fill="#231F20" d="M860.1777,144.1001v-5.25c0-0.8096-0.2852-1.4697-1.3359-1.4697c-1.3496,0-1.5449,1.1997-1.5449,2.2349
			v4.4849h-1.2295v-5.9995c0-0.5254-0.0303-1.0503-0.0752-1.5752h1.3047v0.9751h0.0605c0.4805-0.855,1.0498-1.125,2.0254-1.125
			c1.6191,0,2.0244,0.9751,2.0244,2.4746v5.25H860.1777z"/>
	</g>
</g>
<g>
	<g>
		<path fill="#00ADEF" d="M777.8955,313.0054h-0.0303c-0.375,0.8696-0.96,1.2446-1.9043,1.2446
			c-1.6055,0-2.0703-1.0347-2.0703-2.4897c0-2.2949,2.25-2.3999,3.9746-2.355c0.0303-1.0049,0.0449-2.1001-1.2754-2.1001
			c-0.8242,0-1.2598,0.5552-1.1846,1.3501h-1.335c0.0605-1.6948,0.96-2.2798,2.5645-2.2798c1.9512,0,2.4609,1.0049,2.4609,2.2798
			v3.645c0,0.6001,0.0596,1.2148,0.1494,1.7998h-1.3496V313.0054z M775.1211,311.8501c0,0.7349,0.3594,1.395,1.1836,1.395
			c0.75,0,1.6807-0.4648,1.5605-2.9097C776.6953,310.3501,775.1211,310.2451,775.1211,311.8501z"/>
		<path fill="#00ADEF" d="M781.7207,306.5254v-1.4697c0-1.5303,1.0801-1.8301,2.1748-1.8301c0.2549,0,0.4053,0.0151,0.585,0.0449
			v0.8848c-1.3047-0.0898-1.5303,0.4653-1.5303,1.0801v1.29h1.5303v0.9302h-1.5303v6.6445h-1.2295v-6.6445h-1.1699v-0.9302H781.7207
			z"/>
		<path fill="#00ADEF" d="M785.8906,306.5254v-1.4697c0-1.5303,1.0801-1.8301,2.1748-1.8301c0.2549,0,0.4053,0.0151,0.585,0.0449
			v0.8848c-1.3047-0.0898-1.5303,0.4653-1.5303,1.0801v1.29h1.5303v0.9302h-1.5303v6.6445h-1.2295v-6.6445h-1.1699v-0.9302H785.8906
			z"/>
		<path fill="#00ADEF" d="M791.0352,310.7104c0,2.1147,0.5703,2.5347,1.5303,2.5347c0.8398,0,1.2744-0.6748,1.3193-1.4399h1.3496
			c-0.0137,1.6802-1.0488,2.4448-2.6387,2.4448c-1.6055,0-2.8809-0.48-2.8809-3.8247c0-2.2197,0.2559-4.0498,2.8809-4.0498
			c2.1602,0,2.6992,1.1851,2.6992,3.6899v0.645H791.0352z M793.9902,309.7803c0-2.2051-0.6152-2.4751-1.5156-2.4751
			c-0.7793,0-1.4238,0.375-1.4395,2.4751H793.9902z"/>
		<path fill="#00ADEF" d="M801.2949,308.9551c0.0303-1.2446-0.585-1.5747-1.0498-1.5747c-0.9443,0-1.5898,0.4502-1.5898,2.52
			c0,2.46,0.3154,3.3447,1.5898,3.3447c0.2852,0,1.1396-0.2998,1.0947-1.665h1.29c0.0459,2.1299-1.5449,2.6699-2.3848,2.6699
			c-1.6045,0-2.8799-0.48-2.8799-3.8247c0-2.2197,0.2549-4.0498,2.8799-4.0498c1.5146,0,2.3994,0.8848,2.3252,2.5796H801.2949z"/>
		<path fill="#00ADEF" d="M804.9707,306.5254v-1.4551l1.2295-0.5547v2.0098h1.6494v0.9302h-1.6494v4.6348
			c0,0.48,0,1.0947,1.125,1.0947c0.0898,0,0.2852-0.0298,0.5557-0.0601v0.9453c-0.4062,0.0298-0.8105,0.1196-1.2158,0.1196
			c-1.1699,0-1.6943-0.48-1.6943-1.3496v-5.3848h-1.2451v-0.9302H804.9707z"/>
		<path fill="#00ADEF" d="M811.2402,314.25c-1.6348,0-2.6543-0.7197-2.6094-2.46h1.3945c0,0.4351,0.0146,1.4551,1.2598,1.4551
			c0.7344,0,1.3047-0.375,1.3047-1.1548c0-1.3501-3.7793-1.3799-3.7793-3.645c0-0.7949,0.4795-2.0698,2.6094-2.0698
			c1.3496,0,2.5059,0.645,2.4004,2.145h-1.3652c0.0156-0.7949-0.4043-1.2153-1.1855-1.2153c-0.6592,0-1.1699,0.3604-1.1699,1.02
			c0,1.335,3.7803,1.3052,3.7803,3.6152C813.8799,313.605,812.7402,314.25,811.2402,314.25z"/>
		<path fill="#00ADEF" d="M819.1299,306.5254v-1.4551l1.2295-0.5547v2.0098h1.6504v0.9302h-1.6504v4.6348
			c0,0.48,0,1.0947,1.125,1.0947c0.0898,0,0.2852-0.0298,0.5557-0.0601v0.9453c-0.4053,0.0298-0.8096,0.1196-1.2158,0.1196
			c-1.1699,0-1.6943-0.48-1.6943-1.3496v-5.3848h-1.2451v-0.9302H819.1299z"/>
		<path fill="#00ADEF" d="M827.2754,314.1001v-5.1299c0-0.9297-0.3008-1.5898-1.3506-1.5898c-1.2295,0-1.5449,0.9897-1.5449,2.2651
			v4.4546h-1.2295v-10.8296h1.2295v4.23h0.0596c0.4961-0.8853,1.0654-1.125,2.0547-1.125c1.291,0,2.0107,0.645,2.0107,2.355v5.3696
			H827.2754z"/>
		<path fill="#00ADEF" d="M831.8652,310.7104c0,2.1147,0.5703,2.5347,1.5293,2.5347c0.8398,0,1.2754-0.6748,1.3203-1.4399h1.3496
			c-0.0146,1.6802-1.0498,2.4448-2.6396,2.4448c-1.6045,0-2.8799-0.48-2.8799-3.8247c0-2.2197,0.2549-4.0498,2.8799-4.0498
			c2.1592,0,2.7002,1.1851,2.7002,3.6899v0.645H831.8652z M834.8203,309.7803c0-2.2051-0.6152-2.4751-1.5156-2.4751
			c-0.7793,0-1.4248,0.375-1.4395,2.4751H834.8203z"/>
	</g>
</g>
<g>
	<g>
		<path fill="#00ADEF" d="M320.5786,303.2705h1.3799v1.3198h-1.3799V303.2705z M321.8833,314.1001h-1.23v-7.5747h1.23V314.1001z"/>
		<path fill="#00ADEF" d="M326.248,314.25c-1.6348,0-2.6548-0.7197-2.6099-2.46h1.395c0,0.4351,0.0146,1.4551,1.2598,1.4551
			c0.7349,0,1.3052-0.375,1.3052-1.1548c0-1.3501-3.7803-1.3799-3.7803-3.645c0-0.7949,0.48-2.0698,2.6099-2.0698
			c1.3501,0,2.5049,0.645,2.3999,2.145h-1.3647c0.0151-0.7949-0.4048-1.2153-1.1851-1.2153c-0.6597,0-1.1699,0.3604-1.1699,1.02
			c0,1.335,3.7798,1.3052,3.7798,3.6152C328.8877,313.605,327.748,314.25,326.248,314.25z"/>
		<path fill="#00ADEF" d="M337.7227,314.1001v-5.25c0-0.7646-0.21-1.4697-1.2002-1.4697c-0.3745,0-0.8848,0.2251-1.0649,0.5098
			c-0.2246,0.375-0.2847,0.8252-0.2847,1.1104v5.0996h-1.23v-5.9995c0-0.5254-0.0303-1.0503-0.0752-1.5752h1.3052v0.9448h0.0298
			c0.3599-0.8101,1.0049-1.0947,1.8901-1.0947c0.6899,0,1.4849,0.2847,1.77,0.9751c0.4199-0.8101,1.1099-0.9751,1.7998-0.9751
			c0.7949,0,2.0698,0.1797,2.0698,1.9648v5.7598h-1.23v-5.25c0-0.7646-0.21-1.4697-1.1997-1.4697
			c-0.4653,0-0.6001,0.0151-0.9302,0.2852c-0.3599,0.2998-0.4199,1.0498-0.4199,1.335v5.0996H337.7227z"/>
		<path fill="#00ADEF" d="M346.0322,310.7104c0,2.1147,0.5703,2.5347,1.5303,2.5347c0.8398,0,1.2749-0.6748,1.3198-1.4399h1.3501
			c-0.0151,1.6802-1.0503,2.4448-2.6401,2.4448c-1.605,0-2.8799-0.48-2.8799-3.8247c0-2.2197,0.2549-4.0498,2.8799-4.0498
			c2.1597,0,2.6997,1.1851,2.6997,3.6899v0.645H346.0322z M348.9873,309.7803c0-2.2051-0.6152-2.4751-1.5151-2.4751
			c-0.7798,0-1.4248,0.375-1.4399,2.4751H348.9873z"/>
		<path fill="#00ADEF" d="M356.2324,313.0054h-0.0303c-0.375,0.8696-0.96,1.2446-1.9048,1.2446
			c-1.605,0-2.0698-1.0347-2.0698-2.4897c0-2.2949,2.25-2.3999,3.9746-2.355c0.0303-1.0049,0.0449-2.1001-1.2749-2.1001
			c-0.8247,0-1.2598,0.5552-1.1851,1.3501h-1.335c0.0601-1.6948,0.96-2.2798,2.5649-2.2798c1.9502,0,2.46,1.0049,2.46,2.2798v3.645
			c0,0.6001,0.0601,1.2148,0.1499,1.7998h-1.3496V313.0054z M353.4575,311.8501c0,0.7349,0.3599,1.395,1.1846,1.395
			c0.75,0,1.6802-0.4648,1.5601-2.9097C355.0322,310.3501,353.4575,310.2451,353.4575,311.8501z"/>
		<path fill="#00ADEF" d="M362.0674,314.25c-1.6348,0-2.6548-0.7197-2.6099-2.46h1.395c0,0.4351,0.0146,1.4551,1.2598,1.4551
			c0.7349,0,1.3052-0.375,1.3052-1.1548c0-1.3501-3.7803-1.3799-3.7803-3.645c0-0.7949,0.48-2.0698,2.6099-2.0698
			c1.3501,0,2.5049,0.645,2.3999,2.145h-1.3647c0.0151-0.7949-0.4048-1.2153-1.1851-1.2153c-0.6597,0-1.1699,0.3604-1.1699,1.02
			c0,1.335,3.7798,1.3052,3.7798,3.6152C364.707,313.605,363.5674,314.25,362.0674,314.25z"/>
		<path fill="#00ADEF" d="M370.5425,306.5254h1.23v6c0,0.5249,0.0298,1.0498,0.0747,1.5747h-1.3047v-0.915h-0.0449
			c-0.4053,0.6899-1.125,1.0649-1.9199,1.0649c-1.3203,0-2.04-0.6597-2.04-1.9497v-5.7749h1.23v5.25
			c0,0.9146,0.4199,1.5298,1.29,1.5298c0.6597,0,1.4849-0.4951,1.4849-1.7549V306.5254z"/>
		<path fill="#00ADEF" d="M375.2676,307.6655h0.0298c0.5103-1.1553,1.1401-1.29,2.3398-1.29v1.2749
			c-0.105-0.0151-0.2246-0.0303-0.3296-0.0449c-0.105-0.0151-0.21-0.0303-0.3301-0.0303c-1.3652,0-1.71,1.0352-1.71,2.0552v4.4697
			h-1.23v-7.5747h1.23V307.6655z"/>
		<path fill="#00ADEF" d="M380.187,310.7104c0,2.1147,0.5703,2.5347,1.5303,2.5347c0.8398,0,1.2749-0.6748,1.3198-1.4399h1.3496
			c-0.0146,1.6802-1.0498,2.4448-2.6396,2.4448c-1.605,0-2.8799-0.48-2.8799-3.8247c0-2.2197,0.2549-4.0498,2.8799-4.0498
			c2.1602,0,2.6997,1.1851,2.6997,3.6899v0.645H380.187z M383.1421,309.7803c0-2.2051-0.6152-2.4751-1.5151-2.4751
			c-0.7798,0-1.4248,0.375-1.4399,2.4751H383.1421z"/>
		<path fill="#00ADEF" d="M390.4922,303.2705h1.23v10.8296h-1.23v-0.8999h-0.0303c-0.4199,0.7051-0.9448,1.0498-1.7397,1.0498
			c-1.2148,0-2.4448-0.48-2.4448-3.8096c0-1.8901,0.0601-4.0649,2.5049-4.0649c0.7197,0,1.2446,0.3149,1.665,0.915h0.0449V303.2705z
			 M389.0669,307.3804c-1.3198,0-1.4995,1.0498-1.4995,3.0747c0,1.1401,0,2.79,1.5449,2.79c1.3799,0,1.3799-1.71,1.3799-3.2397
			C390.4922,309.0005,390.4321,307.3804,389.0669,307.3804z"/>
		<path fill="#00ADEF" d="M398.6519,314.1001h-1.23v-10.8296h1.23v4.02h0.0449c0.4199-0.6001,0.9448-0.915,1.665-0.915
			c2.4448,0,2.5049,2.1748,2.5049,4.0649c0,3.3296-1.23,3.8096-2.4448,3.8096c-0.7954,0-1.3203-0.3447-1.7402-1.0498h-0.0298
			V314.1001z M400.0317,313.2451c1.5449,0,1.5449-1.6499,1.5449-2.79c0-2.0249-0.1802-3.0747-1.5-3.0747
			c-1.3647,0-1.4248,1.6201-1.4248,2.625C398.6519,311.1602,398.5166,313.2451,400.0317,313.2451z"/>
		<path fill="#00ADEF" d="M407.0967,312.6899h0.0298l1.8149-6.1646h1.335l-3.4346,10.4395h-1.2749l0.855-2.8647l-2.5649-7.5747
			h1.4248L407.0967,312.6899z"/>
	</g>
</g>
<g>
	<path fill="#00ADEF" d="M689.2637,133.2705h1.2295v10.8296h-1.2295v-0.8999h-0.0312c-0.4199,0.7051-0.9443,1.0498-1.7393,1.0498
		c-1.2148,0-2.4443-0.48-2.4443-3.8096c0-1.8901,0.0596-4.0649,2.5039-4.0649c0.7207,0,1.2451,0.3149,1.666,0.915h0.0449V133.2705z
		 M687.8379,137.3804c-1.3203,0-1.5,1.0498-1.5,3.0747c0,1.1401,0,2.79,1.5449,2.79c1.3809,0,1.3809-1.71,1.3809-3.2397
		C689.2637,139.0005,689.2031,137.3804,687.8379,137.3804z"/>
	<path fill="#00ADEF" d="M694.0332,137.6655h0.0293c0.5107-1.1553,1.1406-1.29,2.3398-1.29v1.2749
		c-0.1045-0.0151-0.2246-0.0303-0.3291-0.0449c-0.1045-0.0151-0.21-0.0303-0.3301-0.0303c-1.3652,0-1.71,1.0352-1.71,2.0552v4.4697
		h-1.2305v-7.5747h1.2305V137.6655z"/>
	<path fill="#00ADEF" d="M697.6484,133.2705h1.3799v1.3198h-1.3799V133.2705z M698.9531,144.1001h-1.2305v-7.5747h1.2305V144.1001z"
		/>
	<path fill="#00ADEF" d="M700.2129,136.5254h1.3799l1.6943,6.4199h0.0312l1.8301-6.4199h1.2891l-2.3691,7.5747h-1.6055
		L700.2129,136.5254z"/>
	<path fill="#00ADEF" d="M708.9424,140.7104c0,2.1147,0.5703,2.5347,1.5303,2.5347c0.8398,0,1.2754-0.6748,1.3203-1.4399h1.3496
		c-0.0156,1.6802-1.0508,2.4448-2.6406,2.4448c-1.6045,0-2.8789-0.48-2.8789-3.8247c0-2.2197,0.2539-4.0498,2.8789-4.0498
		c2.1602,0,2.7002,1.1851,2.7002,3.6899v0.645H708.9424z M711.8975,139.7803c0-2.2051-0.6152-2.4751-1.5146-2.4751
		c-0.7803,0-1.4258,0.375-1.4404,2.4751H711.8975z"/>
	<path fill="#00ADEF" d="M717.4775,144.25c-1.6357,0-2.6553-0.7197-2.6104-2.46h1.3955c0,0.4351,0.0146,1.4551,1.2598,1.4551
		c0.7354,0,1.3057-0.375,1.3057-1.1548c0-1.3501-3.7812-1.3799-3.7812-3.645c0-0.7949,0.4805-2.0698,2.6104-2.0698
		c1.3506,0,2.5049,0.645,2.3994,2.145h-1.3643c0.0146-0.7949-0.4053-1.2153-1.1846-1.2153c-0.6602,0-1.1699,0.3604-1.1699,1.02
		c0,1.335,3.7793,1.3052,3.7793,3.6152C720.1172,143.605,718.9775,144.25,717.4775,144.25z"/>
</g>
<g>
	<path fill="#00ADEF" d="M453.4829,133.2705h1.3799v1.3198h-1.3799V133.2705z M454.7876,144.1001h-1.23v-7.5747h1.23V144.1001z"/>
	<path fill="#00ADEF" d="M461.0273,144.1001v-5.25c0-0.8096-0.2852-1.4697-1.335-1.4697c-1.3501,0-1.5449,1.1997-1.5449,2.2349
		v4.4849h-1.23v-5.9995c0-0.5254-0.0303-1.0503-0.0752-1.5752h1.3052v0.9751h0.0601c0.48-0.855,1.0498-1.125,2.0249-1.125
		c1.6196,0,2.0249,0.9751,2.0249,2.4746v5.25H461.0273z"/>
	<path fill="#00ADEF" d="M464.6426,136.5254v-1.4697c0-1.5303,1.0796-1.8301,2.1748-1.8301c0.2549,0,0.4048,0.0151,0.585,0.0449
		v0.8848c-1.3052-0.0898-1.5303,0.4653-1.5303,1.0801v1.29h1.5303v0.9302h-1.5303v6.6445h-1.2295v-6.6445h-1.1704v-0.9302H464.6426z
		"/>
	<path fill="#00ADEF" d="M468.3779,140.4253c0-2.2197,0.2549-4.0498,2.8799-4.0498c2.6245,0,2.8799,1.8301,2.8799,4.0498
		c0,3.3447-1.2749,3.8247-2.8799,3.8247S468.3779,143.77,468.3779,140.4253z M472.8477,139.9004c0-2.0698-0.645-2.52-1.5898-2.52
		c-0.9453,0-1.5898,0.4502-1.5898,2.52c0,2.46,0.3149,3.3447,1.5898,3.3447S472.8477,142.3604,472.8477,139.9004z"/>
	<path fill="#00ADEF" d="M477.3628,137.6655h0.0298c0.5103-1.1553,1.1401-1.29,2.3398-1.29v1.2749
		c-0.105-0.0151-0.2246-0.0303-0.3296-0.0449c-0.105-0.0151-0.21-0.0303-0.3301-0.0303c-1.3652,0-1.71,1.0352-1.71,2.0552v4.4697
		h-1.23v-7.5747h1.23V137.6655z"/>
	<path fill="#00ADEF" d="M484.8022,144.1001v-5.25c0-0.7646-0.21-1.4697-1.1997-1.4697c-0.375,0-0.8853,0.2251-1.0654,0.5098
		c-0.2246,0.375-0.2847,0.8252-0.2847,1.1104v5.0996h-1.23v-5.9995c0-0.5254-0.0303-1.0503-0.0752-1.5752h1.3052v0.9448h0.0298
		c0.3604-0.8101,1.0049-1.0947,1.8901-1.0947c0.6899,0,1.4849,0.2847,1.77,0.9751c0.4199-0.8101,1.1099-0.9751,1.7998-0.9751
		c0.7949,0,2.0698,0.1797,2.0698,1.9648v5.7598h-1.23v-5.25c0-0.7646-0.21-1.4697-1.1997-1.4697
		c-0.4653,0-0.6001,0.0151-0.9302,0.2852c-0.3599,0.2998-0.4199,1.0498-0.4199,1.335v5.0996H484.8022z"/>
	<path fill="#00ADEF" d="M494.147,144.25c-1.6353,0-2.6548-0.7197-2.6099-2.46h1.395c0,0.4351,0.0146,1.4551,1.2598,1.4551
		c0.7349,0,1.3052-0.375,1.3052-1.1548c0-1.3501-3.7803-1.3799-3.7803-3.645c0-0.7949,0.48-2.0698,2.6099-2.0698
		c1.3501,0,2.5054,0.645,2.3999,2.145h-1.3647c0.0151-0.7949-0.4048-1.2153-1.1851-1.2153c-0.6597,0-1.1699,0.3604-1.1699,1.02
		c0,1.335,3.7798,1.3052,3.7798,3.6152C496.7866,143.605,495.647,144.25,494.147,144.25z"/>
</g>
<g>
	<g>
		<path fill="#00A551" d="M595.9756,58.2705h1.3799v1.3198h-1.3799V58.2705z M597.2803,69.1001h-1.2295v-7.5747h1.2295V69.1001z"/>
		<path fill="#00A551" d="M603.5195,69.1001v-5.25c0-0.8096-0.2852-1.4697-1.334-1.4697c-1.3506,0-1.5449,1.1997-1.5449,2.2349
			v4.4849h-1.2305v-5.9995c0-0.5254-0.0303-1.0503-0.0752-1.5752h1.3057v0.9751h0.0596c0.4795-0.855,1.0498-1.125,2.0244-1.125
			c1.6201,0,2.0254,0.9751,2.0254,2.4746v5.25H603.5195z"/>
		<path fill="#00A551" d="M607.1348,61.5254v-1.4697c0-1.5303,1.0801-1.8301,2.1758-1.8301c0.2539,0,0.4043,0.0151,0.584,0.0449
			v0.8848c-1.3047-0.0898-1.5293,0.4653-1.5293,1.0801v1.29h1.5293v0.9302h-1.5293v6.6445h-1.2305v-6.6445h-1.1699v-0.9302H607.1348
			z"/>
		<path fill="#00A551" d="M610.8711,65.4253c0-2.2197,0.2539-4.0498,2.8789-4.0498s2.8809,1.8301,2.8809,4.0498
			c0,3.3447-1.2754,3.8247-2.8809,3.8247C612.1455,69.25,610.8711,68.77,610.8711,65.4253z M615.3398,64.9004
			c0-2.0698-0.6445-2.52-1.5898-2.52s-1.5898,0.4502-1.5898,2.52c0,2.46,0.3154,3.3447,1.5898,3.3447
			C615.0254,68.2451,615.3398,67.3604,615.3398,64.9004z"/>
		<path fill="#00A551" d="M619.8555,62.6655h0.0293c0.5107-1.1553,1.1406-1.29,2.3398-1.29v1.2749
			c-0.1045-0.0151-0.2246-0.0303-0.3291-0.0449c-0.1045-0.0151-0.21-0.0303-0.3301-0.0303c-1.3652,0-1.71,1.0352-1.71,2.0552v4.4697
			h-1.2305v-7.5747h1.2305V62.6655z"/>
		<path fill="#00A551" d="M627.2949,69.1001v-5.25c0-0.7646-0.21-1.4697-1.1992-1.4697c-0.375,0-0.8857,0.2251-1.0664,0.5098
			c-0.2246,0.375-0.2842,0.8252-0.2842,1.1104v5.0996h-1.2295v-5.9995c0-0.5254-0.0312-1.0503-0.0762-1.5752h1.3057v0.9448h0.0303
			c0.3594-0.8101,1.0039-1.0947,1.8896-1.0947c0.6904,0,1.4854,0.2847,1.7705,0.9751c0.4199-0.8101,1.1094-0.9751,1.7988-0.9751
			c0.7949,0,2.0703,0.1797,2.0703,1.9648v5.7598h-1.2305v-5.25c0-0.7646-0.209-1.4697-1.1992-1.4697
			c-0.4648,0-0.5996,0.0151-0.9297,0.2852c-0.3604,0.2998-0.4199,1.0498-0.4199,1.335v5.0996H627.2949z"/>
		<path fill="#00A551" d="M636.6396,69.25c-1.6357,0-2.6553-0.7197-2.6104-2.46h1.3955c0,0.4351,0.0146,1.4551,1.2598,1.4551
			c0.7354,0,1.3057-0.375,1.3057-1.1548c0-1.3501-3.7812-1.3799-3.7812-3.645c0-0.7949,0.4805-2.0698,2.6104-2.0698
			c1.3506,0,2.5049,0.645,2.3994,2.145h-1.3643c0.0146-0.7949-0.4053-1.2153-1.1846-1.2153c-0.6602,0-1.1699,0.3604-1.1699,1.02
			c0,1.335,3.7793,1.3052,3.7793,3.6152C639.2793,68.605,638.1396,69.25,636.6396,69.25z"/>
	</g>
</g>
<g>
	<g>
		<path fill="#EC008B" d="M600.04,343.9546c0.0303-1.2446-0.585-1.5747-1.0498-1.5747c-0.9453,0-1.5898,0.4502-1.5898,2.52
			c0,2.46,0.3145,3.3447,1.5898,3.3447c0.2852,0,1.1396-0.2998,1.0947-1.665h1.29c0.0449,2.1299-1.5449,2.6699-2.3848,2.6699
			c-1.6055,0-2.8809-0.48-2.8809-3.8247c0-2.2197,0.2559-4.0498,2.8809-4.0498c1.5146,0,2.3994,0.8848,2.3242,2.5796H600.04z"/>
		<path fill="#EC008B" d="M607.4805,348.0049h-0.0312c-0.375,0.8696-0.959,1.2446-1.9043,1.2446
			c-1.6055,0-2.0703-1.0347-2.0703-2.4897c0-2.2949,2.25-2.3999,3.9746-2.355c0.0312-1.0049,0.0449-2.1001-1.2744-2.1001
			c-0.8252,0-1.2598,0.5552-1.1846,1.3501h-1.3359c0.0605-1.6948,0.9609-2.2798,2.5654-2.2798c1.9502,0,2.46,1.0049,2.46,2.2798
			v3.645c0,0.6001,0.0605,1.2148,0.1504,1.7998h-1.3496V348.0049z M604.7051,346.8496c0,0.7349,0.3594,1.395,1.1846,1.395
			c0.75,0,1.6807-0.4648,1.5596-2.9097C606.2793,345.3496,604.7051,345.2446,604.7051,346.8496z"/>
		<path fill="#EC008B" d="M615.1895,349.0996v-5.25c0-0.8096-0.2852-1.4697-1.334-1.4697c-1.3506,0-1.5449,1.1997-1.5449,2.2349
			v4.4849h-1.2305v-5.9995c0-0.5254-0.0303-1.0503-0.0752-1.5752h1.3057V342.5h0.0596c0.4795-0.855,1.0498-1.125,2.0244-1.125
			c1.6201,0,2.0254,0.9751,2.0254,2.4746v5.25H615.1895z"/>
		<path fill="#EC008B" d="M625.8096,348.0049h-0.0303c-0.375,0.8696-0.96,1.2446-1.9043,1.2446
			c-1.6055,0-2.0703-1.0347-2.0703-2.4897c0-2.2949,2.25-2.3999,3.9746-2.355c0.0303-1.0049,0.0449-2.1001-1.2754-2.1001
			c-0.8242,0-1.2598,0.5552-1.1846,1.3501h-1.335c0.0605-1.6948,0.96-2.2798,2.5645-2.2798c1.9512,0,2.4609,1.0049,2.4609,2.2798
			v3.645c0,0.6001,0.0596,1.2148,0.1494,1.7998h-1.3496V348.0049z M623.0352,346.8496c0,0.7349,0.3594,1.395,1.1836,1.395
			c0.75,0,1.6807-0.4648,1.5605-2.9097C624.6094,345.3496,623.0352,345.2446,623.0352,346.8496z"/>
		<path fill="#EC008B" d="M629.6348,341.5249v-1.4697c0-1.5303,1.0801-1.8301,2.1748-1.8301c0.2549,0,0.4053,0.0151,0.585,0.0449
			v0.8848c-1.3047-0.0898-1.5303,0.4653-1.5303,1.0801v1.29h1.5303v0.9302h-1.5303v6.6445h-1.2295v-6.6445h-1.1699v-0.9302H629.6348
			z"/>
		<path fill="#EC008B" d="M633.8047,341.5249v-1.4697c0-1.5303,1.0801-1.8301,2.1758-1.8301c0.2539,0,0.4043,0.0151,0.584,0.0449
			v0.8848c-1.3047-0.0898-1.5293,0.4653-1.5293,1.0801v1.29h1.5293v0.9302h-1.5293v6.6445h-1.2305v-6.6445h-1.1699v-0.9302H633.8047
			z"/>
		<path fill="#EC008B" d="M638.9492,345.71c0,2.1147,0.5703,2.5347,1.5312,2.5347c0.8398,0,1.2744-0.6748,1.3193-1.4399h1.3496
			c-0.0146,1.6802-1.0498,2.4448-2.6396,2.4448c-1.6055,0-2.8799-0.48-2.8799-3.8247c0-2.2197,0.2549-4.0498,2.8799-4.0498
			c2.1602,0,2.6992,1.1851,2.6992,3.6899v0.645H638.9492z M641.9043,344.7798c0-2.2051-0.6152-2.4751-1.5146-2.4751
			c-0.7803,0-1.4248,0.375-1.4404,2.4751H641.9043z"/>
		<path fill="#EC008B" d="M649.21,343.9546c0.0303-1.2446-0.585-1.5747-1.0498-1.5747c-0.9453,0-1.5898,0.4502-1.5898,2.52
			c0,2.46,0.3145,3.3447,1.5898,3.3447c0.2852,0,1.1396-0.2998,1.0947-1.665h1.29c0.0449,2.1299-1.5449,2.6699-2.3848,2.6699
			c-1.6055,0-2.8809-0.48-2.8809-3.8247c0-2.2197,0.2559-4.0498,2.8809-4.0498c1.5146,0,2.3994,0.8848,2.3242,2.5796H649.21z"/>
		<path fill="#EC008B" d="M652.8848,341.5249v-1.4551l1.2305-0.5547v2.0098h1.6494v0.9302h-1.6494v4.6348
			c0,0.48,0,1.0947,1.125,1.0947c0.0898,0,0.2852-0.0298,0.5547-0.0601v0.9453c-0.4053,0.0298-0.8105,0.1196-1.2148,0.1196
			c-1.1699,0-1.6953-0.48-1.6953-1.3496v-5.3848h-1.2441v-0.9302H652.8848z"/>
		<path fill="#EC008B" d="M660.3848,341.5249v-1.4551l1.2305-0.5547v2.0098h1.6494v0.9302h-1.6494v4.6348
			c0,0.48,0,1.0947,1.125,1.0947c0.0898,0,0.2842-0.0298,0.5547-0.0601v0.9453c-0.4053,0.0298-0.8105,0.1196-1.2148,0.1196
			c-1.1699,0-1.6953-0.48-1.6953-1.3496v-5.3848h-1.2451v-0.9302H660.3848z"/>
		<path fill="#EC008B" d="M668.5293,349.0996v-5.1299c0-0.9297-0.2998-1.5898-1.3496-1.5898c-1.2295,0-1.5449,0.9897-1.5449,2.2651
			v4.4546h-1.2295V338.27h1.2295v4.23h0.0596c0.4951-0.8853,1.0654-1.125,2.0557-1.125c1.29,0,2.0098,0.645,2.0098,2.355v5.3696
			H668.5293z"/>
		<path fill="#EC008B" d="M673.1201,345.71c0,2.1147,0.5693,2.5347,1.5293,2.5347c0.8398,0,1.2754-0.6748,1.3203-1.4399h1.3496
			c-0.0146,1.6802-1.0498,2.4448-2.6396,2.4448c-1.6045,0-2.8799-0.48-2.8799-3.8247c0-2.2197,0.2549-4.0498,2.8799-4.0498
			c2.1602,0,2.7002,1.1851,2.7002,3.6899v0.645H673.1201z M676.0742,344.7798c0-2.2051-0.6143-2.4751-1.5146-2.4751
			c-0.7803,0-1.4248,0.375-1.4395,2.4751H676.0742z"/>
	</g>
</g>
<g>
	<g>
		<path fill="#231F20" d="M376.3501,252.5v-10.8296h3.5249c1.4995,0,2.0098,0.5103,2.4146,1.1099
			c0.375,0.585,0.4351,1.23,0.4351,1.4399c0,1.3501-0.4648,2.25-1.8599,2.5649v0.0752c1.5449,0.1797,2.2197,1.1099,2.2197,2.5947
			c0,2.7749-2.0249,3.0449-3.2549,3.0449H376.3501z M377.73,246.2305h2.0098c1.0801-0.0151,1.605-0.6753,1.605-1.7251
			c0-0.8999-0.5098-1.6348-1.665-1.6348H377.73V246.2305z M377.73,251.2998h1.9497c1.4702,0,1.9951-1.0498,1.9951-1.8447
			c0-1.7251-1.0649-2.0249-2.4751-2.0249H377.73V251.2998z"/>
		<path fill="#231F20" d="M385.0352,248.8252c0-2.2197,0.2549-4.0498,2.8799-4.0498c2.6245,0,2.8799,1.8301,2.8799,4.0498
			c0,3.3447-1.2749,3.8247-2.8799,3.8247S385.0352,252.1699,385.0352,248.8252z M389.5049,248.3003c0-2.0698-0.645-2.52-1.5898-2.52
			c-0.9453,0-1.5898,0.4502-1.5898,2.52c0,2.46,0.3149,3.3447,1.5898,3.3447S389.5049,250.7603,389.5049,248.3003z"/>
		<path fill="#231F20" d="M396.75,241.6704h1.23V252.5h-1.23v-0.8999h-0.0303c-0.4199,0.7051-0.9448,1.0498-1.7397,1.0498
			c-1.2148,0-2.4448-0.48-2.4448-3.8096c0-1.8901,0.0601-4.0649,2.5049-4.0649c0.7197,0,1.2446,0.3149,1.665,0.915h0.0449V241.6704z
			 M395.3247,245.7803c-1.3198,0-1.4995,1.0498-1.4995,3.0747c0,1.1401,0,2.79,1.5449,2.79c1.3799,0,1.3799-1.71,1.3799-3.2397
			C396.75,247.4004,396.6899,245.7803,395.3247,245.7803z"/>
		<path fill="#231F20" d="M402.5249,251.0898h0.0298l1.8149-6.1646h1.335l-3.4346,10.4395h-1.2749l0.855-2.8647l-2.5649-7.5747
			h1.4248L402.5249,251.0898z"/>
	</g>
</g>
<g>
	<g>
		<path fill="#EC008B" d="M545.5801,393.2705h3.7803c2.9697,0,3.5244,1.98,3.5244,5.355c0,1.6646,0.2554,5.4746-3.6147,5.4746
			h-3.6899V393.2705z M547.8452,402.4351h1.0947c1.3804,0,1.6499-1.0347,1.6499-3.7495c0-1.9951,0-3.75-1.5747-3.75h-1.1699
			V402.4351z"/>
		<path fill="#EC008B" d="M556.8901,393.2705v1.665h-2.1147v-1.665H556.8901z M556.8901,404.1001h-2.1147v-7.5747h2.1147V404.1001z"
			/>
		<path fill="#EC008B" d="M560.4302,401.6704c-0.0151,0.3447,0,0.6748,0.105,0.9146c0.1201,0.2402,0.3452,0.3604,0.7651,0.3604
			s0.7798-0.27,0.7798-0.7803c0-1.605-3.7197-1.2446-3.7197-3.6597c0-1.6348,1.6196-2.1299,2.9849-2.1299
			c1.4399,0,2.7446,0.6899,2.625,2.3247h-2.0703c0-0.5249-0.0596-0.8398-0.21-0.9746c-0.1348-0.1353-0.3149-0.165-0.5396-0.165
			c-0.4653,0-0.7202,0.2998-0.7202,0.8096c0,1.2002,3.7197,1.1401,3.7197,3.5703c0,1.3198-1.0796,2.3096-2.835,2.3096
			c-1.8447,0-3.0747-0.4648-2.9546-2.5796H560.4302z"/>
		<path fill="#EC008B" d="M564.5698,396.5254h0.855v-1.1997l2.1152-0.9453v2.145h1.0947v1.3052H567.54v4.0498
			c0,0.5698-0.0151,0.9448,0.6748,0.9448c0.1348,0,0.27,0,0.375-0.0303v1.3052c-0.2852,0.0298-0.585,0.0752-1.0952,0.0752
			c-1.8296,0-2.0698-1.2153-2.0698-1.6802v-4.6646h-0.855V396.5254z"/>
		<path fill="#EC008B" d="M573.2998,403.335h-0.0303c-0.21,0.3301-0.4497,0.5703-0.75,0.7051
			c-0.2998,0.1499-0.6299,0.21-1.0347,0.21c-1.0049,0-1.8901-0.6001-1.8901-1.6499v-6.0747h2.1152v5.25
			c0,0.6748,0.1196,1.1699,0.7949,1.1699c0.6748,0,0.7949-0.4951,0.7949-1.1699v-5.25h2.1147v6.0747
			c0,0.4951,0.0303,1.0049,0.0752,1.5h-2.1899V403.335z"/>
		<path fill="#EC008B" d="M579.105,396.5254v0.9751h0.0298c0.3901-0.8701,1.1099-1.125,1.9648-1.125v1.8896
			c-1.8599-0.1196-1.8896,0.96-1.8896,1.71v4.125h-2.1152v-7.5747H579.105z"/>
		<path fill="#EC008B" d="M582.0898,393.2705h2.1152v3.9751h0.0298c0.4351-0.645,0.96-0.8701,1.7251-0.8701
			c2.1299,0,2.0693,2.355,2.0693,3.8848c0,1.5601,0.0752,3.9897-2.1143,3.9897c-0.8101,0-1.395-0.2549-1.7852-0.9897h-0.0298v0.8398
			h-2.0103V393.2705z M585.96,400.2451c0-1.5146,0.0146-2.5649-0.8999-2.5649c-0.8701,0-0.855,1.0503-0.855,2.5649
			c0,1.9053,0.1348,2.7002,0.855,2.7002C585.8247,402.9453,585.96,402.1504,585.96,400.2451z"/>
		<path fill="#EC008B" d="M595.335,402.6899c0,0.4653,0.0596,0.9453,0.1045,1.4102h-1.9648l-0.0898-1.0049h-0.0293
			c-0.4512,0.7798-1.0654,1.1548-1.9805,1.1548c-1.4707,0-2.0098-1.0947-2.0098-2.415c0-2.5049,1.9346-2.6099,3.8994-2.5796v-0.585
			c0-0.645-0.0898-1.1099-0.8545-1.1099c-0.7354,0-0.7949,0.5547-0.7949,1.1548h-2.0703c0-0.915,0.2852-1.5,0.7793-1.8447
			c0.4805-0.3604,1.1709-0.4951,1.9805-0.4951c2.6855,0,3.0303,1.1548,3.0303,2.5347V402.6899z M591.4355,401.7451
			c0,0.54,0.0898,1.2002,0.7793,1.2002c1.2451,0,1.0498-1.6802,1.0498-2.5049C592.2148,400.4854,591.4355,400.395,591.4355,401.7451
			z"/>
		<path fill="#EC008B" d="M599.2051,397.2905h0.0293c0.2109-0.3452,0.4648-0.5703,0.75-0.7051
			c0.3008-0.1499,0.6455-0.21,1.0352-0.21c1.0059,0,1.8906,0.6001,1.8906,1.6499v6.0747h-2.1152v-5.2197
			c0-0.6748-0.1201-1.2002-0.7949-1.2002c-0.6758,0-0.7949,0.5254-0.7949,1.2002v5.2197h-2.1152v-7.5747h2.1152V397.2905z"/>
		<path fill="#EC008B" d="M608.4453,399.2251c0-1.1245-0.2852-1.4995-0.9453-1.4995c-0.9004,0-0.9746,0.7949-0.9746,2.3696
			c0,2.3101,0.1943,2.8052,0.9746,2.8052c0.6602,0,0.9746-0.6001,0.9746-1.5903h2.1152c0,2.0552-1.1094,2.9399-3.0898,2.9399
			c-2.7305,0-3.0898-1.665-3.0898-4.0347c0-2.0698,0.2998-3.8398,3.0898-3.8398c1.9492,0,3.0596,0.8701,3.0596,2.8496H608.4453z"/>
		<path fill="#EC008B" d="M614.04,400.6504c0,0.8999,0.0303,2.25,0.96,2.25c0.75,0,0.9004-0.7202,0.9004-1.3501h2.1445
			c-0.0303,0.8247-0.3008,1.5-0.8105,1.9648c-0.4941,0.4648-1.2441,0.7349-2.2344,0.7349c-2.7305,0-3.0898-1.665-3.0898-4.0347
			c0-2.0698,0.2998-3.8398,3.0898-3.8398c2.8496,0,3.1641,1.8447,3.0898,4.2749H614.04z M615.9746,399.4653
			c0-0.7349,0.0303-1.7852-0.9746-1.7852c-0.9746,0-0.96,1.1401-0.96,1.7852H615.9746z"/>
		<path fill="#EC008B" d="M621.2549,401.6704c-0.0146,0.3447,0,0.6748,0.1045,0.9146c0.1211,0.2402,0.3457,0.3604,0.7656,0.3604
			s0.7793-0.27,0.7793-0.7803c0-1.605-3.7188-1.2446-3.7188-3.6597c0-1.6348,1.6191-2.1299,2.9844-2.1299
			c1.4395,0,2.7441,0.6899,2.625,2.3247h-2.0703c0-0.5249-0.0596-0.8398-0.21-0.9746c-0.1348-0.1353-0.3154-0.165-0.54-0.165
			c-0.4648,0-0.7197,0.2998-0.7197,0.8096c0,1.2002,3.7197,1.1401,3.7197,3.5703c0,1.3198-1.0801,2.3096-2.835,2.3096
			c-1.8447,0-3.0752-0.4648-2.9541-2.5796H621.2549z"/>
		<path fill="#EC008B" d="M522.9233,424.25c-1.6353,0-2.6548-0.7197-2.6099-2.46h1.395c0,0.4351,0.0146,1.4551,1.2598,1.4551
			c0.7349,0,1.3052-0.375,1.3052-1.1548c0-1.3501-3.7803-1.3799-3.7803-3.645c0-0.7949,0.48-2.0698,2.6099-2.0698
			c1.3501,0,2.5054,0.645,2.3999,2.145h-1.3647c0.0151-0.7949-0.4048-1.2153-1.1851-1.2153c-0.6597,0-1.1699,0.3604-1.1699,1.02
			c0,1.335,3.7798,1.3052,3.7798,3.6152C525.563,423.605,524.4233,424.25,522.9233,424.25z"/>
		<path fill="#EC008B" d="M531.3984,416.5254h1.23v6c0,0.5249,0.0298,1.0498,0.0747,1.5747h-1.3047v-0.915h-0.0449
			c-0.4053,0.6899-1.125,1.0649-1.9199,1.0649c-1.3203,0-2.04-0.6597-2.04-1.9497v-5.7749h1.23v5.25
			c0,0.9146,0.4199,1.5298,1.29,1.5298c0.6597,0,1.4849-0.4951,1.4849-1.7549V416.5254z"/>
		<path fill="#EC008B" d="M538.8086,418.9551c0.0298-1.2446-0.5854-1.5747-1.0503-1.5747c-0.9448,0-1.5898,0.4502-1.5898,2.52
			c0,2.46,0.3149,3.3447,1.5898,3.3447c0.2852,0,1.1401-0.2998,1.0952-1.665h1.2896c0.0454,2.1299-1.5449,2.6699-2.3848,2.6699
			c-1.605,0-2.8799-0.48-2.8799-3.8247c0-2.2197,0.2549-4.0498,2.8799-4.0498c1.5151,0,2.3999,0.8848,2.3252,2.5796H538.8086z"/>
		<path fill="#EC008B" d="M546.4585,424.1001v-5.1299c0-0.9297-0.3003-1.5898-1.3501-1.5898c-1.23,0-1.5449,0.9897-1.5449,2.2651
			v4.4546h-1.23v-10.8296h1.23v4.23h0.0601c0.4951-0.8853,1.0649-1.125,2.0547-1.125c1.29,0,2.0103,0.645,2.0103,2.355v5.3696
			H546.4585z"/>
		<path fill="#EC008B" d="M557.0781,423.0054h-0.0303c-0.375,0.8696-0.96,1.2446-1.9048,1.2446
			c-1.605,0-2.0698-1.0347-2.0698-2.4897c0-2.2949,2.25-2.3999,3.9746-2.355c0.0303-1.0049,0.0449-2.1001-1.2749-2.1001
			c-0.8247,0-1.2598,0.5552-1.1851,1.3501h-1.335c0.0601-1.6948,0.96-2.2798,2.5649-2.2798c1.9502,0,2.46,1.0049,2.46,2.2798v3.645
			c0,0.6001,0.0601,1.2148,0.1499,1.7998h-1.3496V423.0054z M554.3032,421.8501c0,0.7349,0.3599,1.395,1.1846,1.395
			c0.75,0,1.6802-0.4648,1.5601-2.9097C555.8779,420.3501,554.3032,420.2451,554.3032,421.8501z"/>
		<path fill="#EC008B" d="M562.9131,424.25c-1.6348,0-2.6548-0.7197-2.6099-2.46h1.395c0,0.4351,0.0146,1.4551,1.2598,1.4551
			c0.7349,0,1.3052-0.375,1.3052-1.1548c0-1.3501-3.7803-1.3799-3.7803-3.645c0-0.7949,0.48-2.0698,2.6099-2.0698
			c1.3501,0,2.5049,0.645,2.3999,2.145h-1.3647c0.0151-0.7949-0.4048-1.2153-1.1851-1.2153c-0.6597,0-1.1699,0.3604-1.1699,1.02
			c0,1.335,3.7798,1.3052,3.7798,3.6152C565.5527,423.605,564.4131,424.25,562.9131,424.25z"/>
		<path fill="#EC008B" d="M574.6729,413.2705h1.23v10.8296h-1.23v-0.8999h-0.0303c-0.4199,0.7051-0.9448,1.0498-1.7397,1.0498
			c-1.2148,0-2.4448-0.48-2.4448-3.8096c0-1.8901,0.0601-4.0649,2.5049-4.0649c0.7197,0,1.2446,0.3149,1.665,0.915h0.0449V413.2705z
			 M573.2476,417.3804c-1.3198,0-1.4995,1.0498-1.4995,3.0747c0,1.1401,0,2.79,1.5449,2.79c1.3799,0,1.3799-1.71,1.3799-3.2397
			C574.6729,419.0005,574.6128,417.3804,573.2476,417.3804z"/>
		<path fill="#EC008B" d="M578.063,413.2705h1.3799v1.3198h-1.3799V413.2705z M579.3677,424.1001h-1.23v-7.5747h1.23V424.1001z"/>
		<path fill="#EC008B" d="M582.6973,420.7104c0,2.1147,0.5703,2.5347,1.5303,2.5347c0.8398,0,1.2749-0.6748,1.3198-1.4399h1.3501
			c-0.0146,1.6802-1.0503,2.4448-2.6401,2.4448c-1.605,0-2.8799-0.48-2.8799-3.8247c0-2.2197,0.2549-4.0498,2.8799-4.0498
			c2.1597,0,2.6997,1.1851,2.6997,3.6899v0.645H582.6973z M585.6523,419.7803c0-2.2051-0.6152-2.4751-1.5151-2.4751
			c-0.7798,0-1.4248,0.375-1.4399,2.4751H585.6523z"/>
		<path fill="#EC008B" d="M589.1328,416.5254v-1.4551l1.2295-0.5547v2.0098h1.6494v0.9302h-1.6494v4.6348
			c0,0.48,0,1.0947,1.125,1.0947c0.0898,0,0.2852-0.0298,0.5557-0.0601v0.9453c-0.4062,0.0298-0.8105,0.1196-1.2158,0.1196
			c-1.1699,0-1.6943-0.48-1.6943-1.3496v-5.3848h-1.2451v-0.9302H589.1328z"/>
		<path fill="#EC008B" d="M593.377,422.54h1.5449l-1.3652,3.4648h-0.959L593.377,422.54z"/>
		<path fill="#EC008B" d="M601.0273,420.7104c0,2.1147,0.5703,2.5347,1.5293,2.5347c0.8398,0,1.2754-0.6748,1.3203-1.4399h1.3496
			c-0.0146,1.6802-1.0498,2.4448-2.6396,2.4448c-1.6045,0-2.8799-0.48-2.8799-3.8247c0-2.2197,0.2549-4.0498,2.8799-4.0498
			c2.1602,0,2.7002,1.1851,2.7002,3.6899v0.645H601.0273z M603.9824,419.7803c0-2.2051-0.6152-2.4751-1.5156-2.4751
			c-0.7793,0-1.4248,0.375-1.4395,2.4751H603.9824z"/>
		<path fill="#EC008B" d="M612.8018,424.1001h-1.6201l-1.7549-3.105l-1.6348,3.105h-1.4551l2.3545-3.96l-2.1592-3.6147h1.5752
			l1.4395,2.7148l1.5293-2.7148h1.4863l-2.2656,3.6147L612.8018,424.1001z"/>
		<path fill="#EC008B" d="M615.1865,420.7104c0,2.1147,0.5703,2.5347,1.5303,2.5347c0.8398,0,1.2754-0.6748,1.3203-1.4399h1.3496
			c-0.0156,1.6802-1.0508,2.4448-2.6406,2.4448c-1.6045,0-2.8789-0.48-2.8789-3.8247c0-2.2197,0.2539-4.0498,2.8789-4.0498
			c2.1602,0,2.7002,1.1851,2.7002,3.6899v0.645H615.1865z M618.1416,419.7803c0-2.2051-0.6152-2.4751-1.5146-2.4751
			c-0.7803,0-1.4258,0.375-1.4404,2.4751H618.1416z"/>
		<path fill="#EC008B" d="M622.7617,417.6655h0.0293c0.5107-1.1553,1.1406-1.29,2.3398-1.29v1.2749
			c-0.1045-0.0151-0.2246-0.0303-0.3291-0.0449c-0.1045-0.0151-0.21-0.0303-0.3301-0.0303c-1.3652,0-1.71,1.0352-1.71,2.0552v4.4697
			h-1.2305v-7.5747h1.2305V417.6655z"/>
		<path fill="#EC008B" d="M630.4414,418.9551c0.0303-1.2446-0.585-1.5747-1.0498-1.5747c-0.9443,0-1.5898,0.4502-1.5898,2.52
			c0,2.46,0.3154,3.3447,1.5898,3.3447c0.2852,0,1.1396-0.2998,1.0947-1.665h1.29c0.0459,2.1299-1.5449,2.6699-2.3848,2.6699
			c-1.6045,0-2.8799-0.48-2.8799-3.8247c0-2.2197,0.2549-4.0498,2.8799-4.0498c1.5146,0,2.3994,0.8848,2.3252,2.5796H630.4414z"/>
		<path fill="#EC008B" d="M633.877,413.2705h1.3799v1.3198h-1.3799V413.2705z M635.1816,424.1001h-1.2305v-7.5747h1.2305V424.1001z"
			/>
		<path fill="#EC008B" d="M639.5469,424.25c-1.6357,0-2.6553-0.7197-2.6104-2.46h1.3955c0,0.4351,0.0137,1.4551,1.2598,1.4551
			c0.7344,0,1.3047-0.375,1.3047-1.1548c0-1.3501-3.7803-1.3799-3.7803-3.645c0-0.7949,0.4795-2.0698,2.6104-2.0698
			c1.3496,0,2.5049,0.645,2.3994,2.145h-1.3643c0.0146-0.7949-0.4053-1.2153-1.1855-1.2153c-0.6602,0-1.1699,0.3604-1.1699,1.02
			c0,1.335,3.7793,1.3052,3.7793,3.6152C642.1855,423.605,641.0469,424.25,639.5469,424.25z"/>
		<path fill="#EC008B" d="M645.1709,420.7104c0,2.1147,0.5703,2.5347,1.5303,2.5347c0.8398,0,1.2754-0.6748,1.3203-1.4399h1.3496
			c-0.0156,1.6802-1.0508,2.4448-2.6406,2.4448c-1.6045,0-2.8789-0.48-2.8789-3.8247c0-2.2197,0.2539-4.0498,2.8789-4.0498
			c2.1602,0,2.7002,1.1851,2.7002,3.6899v0.645H645.1709z M648.126,419.7803c0-2.2051-0.6152-2.4751-1.5146-2.4751
			c-0.7803,0-1.4258,0.375-1.4404,2.4751H648.126z"/>
		<path fill="#EC008B" d="M651.6816,422.54h1.5449l-1.3652,3.4648h-0.96L651.6816,422.54z"/>
		<path fill="#EC008B" d="M516.8262,433.2705h1.3799v1.3198h-1.3799V433.2705z M518.1309,444.1001h-1.23v-7.5747h1.23V444.1001z"/>
		<path fill="#EC008B" d="M524.3706,444.1001v-5.25c0-0.8096-0.2852-1.4697-1.335-1.4697c-1.3501,0-1.5449,1.1997-1.5449,2.2349
			v4.4849h-1.23v-5.9995c0-0.5254-0.0303-1.0503-0.0752-1.5752h1.3052v0.9751h0.0601c0.48-0.855,1.0498-1.125,2.0249-1.125
			c1.6196,0,2.0249,0.9751,2.0249,2.4746v5.25H524.3706z"/>
		<path fill="#EC008B" d="M527.9858,436.5254v-1.4697c0-1.5303,1.0796-1.8301,2.1748-1.8301c0.2549,0,0.4048,0.0151,0.585,0.0449
			v0.8848c-1.3052-0.0898-1.5303,0.4653-1.5303,1.0801v1.29h1.5303v0.9302h-1.5303v6.6445h-1.2295v-6.6445h-1.1704v-0.9302H527.9858
			z"/>
		<path fill="#EC008B" d="M533.1309,440.7104c0,2.1147,0.5703,2.5347,1.5303,2.5347c0.8398,0,1.2749-0.6748,1.3198-1.4399h1.3501
			c-0.0151,1.6802-1.0503,2.4448-2.6401,2.4448c-1.605,0-2.8799-0.48-2.8799-3.8247c0-2.2197,0.2549-4.0498,2.8799-4.0498
			c2.1597,0,2.6997,1.1851,2.6997,3.6899v0.645H533.1309z M536.0859,439.7803c0-2.2051-0.6152-2.4751-1.5151-2.4751
			c-0.7798,0-1.4248,0.375-1.4399,2.4751H536.0859z"/>
		<path fill="#EC008B" d="M543.3906,438.9551c0.0303-1.2446-0.585-1.5747-1.0498-1.5747c-0.9448,0-1.5898,0.4502-1.5898,2.52
			c0,2.46,0.3149,3.3447,1.5898,3.3447c0.2852,0,1.1401-0.2998,1.0952-1.665h1.2896c0.0454,2.1299-1.5449,2.6699-2.3848,2.6699
			c-1.605,0-2.8799-0.48-2.8799-3.8247c0-2.2197,0.2549-4.0498,2.8799-4.0498c1.5151,0,2.3999,0.8848,2.3252,2.5796H543.3906z"/>
		<path fill="#EC008B" d="M547.0659,436.5254v-1.4551l1.23-0.5547v2.0098h1.6499v0.9302h-1.6499v4.6348
			c0,0.48,0,1.0947,1.125,1.0947c0.0898,0,0.2852-0.0298,0.5552-0.0601v0.9453c-0.4053,0.0298-0.8101,0.1196-1.2153,0.1196
			c-1.1699,0-1.6948-0.48-1.6948-1.3496v-5.3848h-1.2446v-0.9302H547.0659z"/>
		<path fill="#EC008B" d="M550.9961,433.2705h1.3799v1.3198h-1.3799V433.2705z M552.3008,444.1001h-1.23v-7.5747h1.23V444.1001z"/>
		<path fill="#EC008B" d="M554.2207,440.4253c0-2.2197,0.2549-4.0498,2.8799-4.0498c2.6245,0,2.8799,1.8301,2.8799,4.0498
			c0,3.3447-1.2749,3.8247-2.8799,3.8247S554.2207,443.77,554.2207,440.4253z M558.6904,439.9004c0-2.0698-0.645-2.52-1.5898-2.52
			c-0.9453,0-1.5898,0.4502-1.5898,2.52c0,2.46,0.3149,3.3447,1.5898,3.3447S558.6904,442.3604,558.6904,439.9004z"/>
		<path fill="#EC008B" d="M566.0405,444.1001v-5.25c0-0.8096-0.2852-1.4697-1.335-1.4697c-1.3501,0-1.5449,1.1997-1.5449,2.2349
			v4.4849h-1.23v-5.9995c0-0.5254-0.0303-1.0503-0.0752-1.5752h1.3052v0.9751h0.0601c0.48-0.855,1.0498-1.125,2.0249-1.125
			c1.6196,0,2.0249,0.9751,2.0249,2.4746v5.25H566.0405z"/>
		<path fill="#EC008B" d="M569.6406,442.54h1.5449l-1.3652,3.4648h-0.96L569.6406,442.54z"/>
		<path fill="#EC008B" d="M577.29,444.1001h-1.23v-10.8296h1.23V444.1001z"/>
		<path fill="#EC008B" d="M583.3198,443.0054h-0.0303c-0.375,0.8696-0.96,1.2446-1.9048,1.2446
			c-1.605,0-2.0698-1.0347-2.0698-2.4897c0-2.2949,2.25-2.3999,3.9746-2.355c0.0303-1.0049,0.0449-2.1001-1.2749-2.1001
			c-0.8247,0-1.2598,0.5552-1.1851,1.3501h-1.335c0.0601-1.6948,0.96-2.2798,2.5649-2.2798c1.9502,0,2.46,1.0049,2.46,2.2798v3.645
			c0,0.6001,0.0601,1.2148,0.1499,1.7998h-1.3496V443.0054z M580.5449,441.8501c0,0.7349,0.3599,1.395,1.1846,1.395
			c0.75,0,1.6802-0.4648,1.5601-2.9097C582.1196,440.3501,580.5449,440.2451,580.5449,441.8501z"/>
		<path fill="#EC008B" d="M590.8799,438.9551c0.0303-1.2446-0.585-1.5747-1.0498-1.5747c-0.9453,0-1.5898,0.4502-1.5898,2.52
			c0,2.46,0.3145,3.3447,1.5898,3.3447c0.2852,0,1.1396-0.2998,1.0947-1.665h1.29c0.0449,2.1299-1.5449,2.6699-2.3848,2.6699
			c-1.6055,0-2.8809-0.48-2.8809-3.8247c0-2.2197,0.2559-4.0498,2.8809-4.0498c1.5146,0,2.3994,0.8848,2.3242,2.5796H590.8799z"/>
		<path fill="#EC008B" d="M595.6504,444.1001h-1.2305v-10.8296h1.2305v6.5249h0.0293l2.3105-3.27h1.5l-2.5205,3.2549l2.9697,4.3198
			h-1.5596l-2.7002-4.2446h-0.0293V444.1001z"/>
		<path fill="#EC008B" d="M604.1992,440.4253c0-2.2197,0.2559-4.0498,2.8809-4.0498c2.624,0,2.8789,1.8301,2.8789,4.0498
			c0,3.3447-1.2744,3.8247-2.8789,3.8247C605.4746,444.25,604.1992,443.77,604.1992,440.4253z M608.6699,439.9004
			c0-2.0698-0.6455-2.52-1.5898-2.52c-0.9453,0-1.5908,0.4502-1.5908,2.52c0,2.46,0.3154,3.3447,1.5908,3.3447
			C608.3545,443.2451,608.6699,442.3604,608.6699,439.9004z"/>
		<path fill="#EC008B" d="M612.1348,436.5254v-1.4697c0-1.5303,1.0801-1.8301,2.1748-1.8301c0.2549,0,0.4053,0.0151,0.585,0.0449
			v0.8848c-1.3047-0.0898-1.5303,0.4653-1.5303,1.0801v1.29h1.5303v0.9302h-1.5303v6.6445h-1.2295v-6.6445h-1.1699v-0.9302H612.1348
			z"/>
		<path fill="#EC008B" d="M621.6445,444.25c-1.6357,0-2.6553-0.7197-2.6104-2.46h1.3955c0,0.4351,0.0137,1.4551,1.2598,1.4551
			c0.7344,0,1.3047-0.375,1.3047-1.1548c0-1.3501-3.7803-1.3799-3.7803-3.645c0-0.7949,0.4795-2.0698,2.6104-2.0698
			c1.3496,0,2.5049,0.645,2.3994,2.145h-1.3643c0.0146-0.7949-0.4053-1.2153-1.1855-1.2153c-0.6602,0-1.1699,0.3604-1.1699,1.02
			c0,1.335,3.7793,1.3052,3.7793,3.6152C624.2832,443.605,623.1445,444.25,621.6445,444.25z"/>
		<path fill="#EC008B" d="M627.2695,444.1001h-1.2305v-10.8296h1.2305V444.1001z"/>
		<path fill="#EC008B" d="M630.5986,440.7104c0,2.1147,0.5703,2.5347,1.5303,2.5347c0.8398,0,1.2754-0.6748,1.3203-1.4399h1.3496
			c-0.0156,1.6802-1.0508,2.4448-2.6406,2.4448c-1.6045,0-2.8789-0.48-2.8789-3.8247c0-2.2197,0.2539-4.0498,2.8789-4.0498
			c2.1602,0,2.7002,1.1851,2.7002,3.6899v0.645H630.5986z M633.5537,439.7803c0-2.2051-0.6152-2.4751-1.5146-2.4751
			c-0.7803,0-1.4258,0.375-1.4404,2.4751H633.5537z"/>
		<path fill="#EC008B" d="M638.0986,440.7104c0,2.1147,0.5703,2.5347,1.5303,2.5347c0.8398,0,1.2754-0.6748,1.3203-1.4399h1.3496
			c-0.0156,1.6802-1.0508,2.4448-2.6406,2.4448c-1.6045,0-2.8789-0.48-2.8789-3.8247c0-2.2197,0.2539-4.0498,2.8789-4.0498
			c2.1602,0,2.7002,1.1851,2.7002,3.6899v0.645H638.0986z M641.0537,439.7803c0-2.2051-0.6152-2.4751-1.5146-2.4751
			c-0.7803,0-1.4258,0.375-1.4404,2.4751H641.0537z"/>
		<path fill="#EC008B" d="M645.7344,437.4253h0.0293c0.4199-0.7051,0.9453-1.0498,1.7402-1.0498c1.2148,0,2.4443,0.48,2.4443,3.8096
			c0,1.8901-0.0596,4.0649-2.5049,4.0649c-0.7197,0-1.2441-0.3149-1.6641-0.915h-0.0449v3.6299h-1.2305v-10.4395h1.2305V437.4253z
			 M648.6582,440.1851c0-1.1396,0-2.8047-1.5449-2.8047c-1.5146,0-1.3789,2.1001-1.3789,3.2549
			c0,1.0049,0.0596,2.6099,1.4238,2.6099C648.4785,443.2451,648.6582,442.21,648.6582,440.1851z"/>
		<path fill="#EC008B" d="M652.1084,442.54h1.5449l-1.3652,3.4648h-0.96L652.1084,442.54z"/>
		<path fill="#EC008B" d="M552.0757,463.0049h-0.0303c-0.375,0.8701-0.96,1.2451-1.9048,1.2451
			c-1.605,0-2.0698-1.0352-2.0698-2.4902c0-2.2949,2.25-2.4004,3.9746-2.3545c0.0303-1.0059,0.0449-2.1006-1.2749-2.1006
			c-0.8247,0-1.2598,0.5547-1.1851,1.3506h-1.335c0.0601-1.6953,0.96-2.2803,2.5649-2.2803c1.9502,0,2.46,1.0049,2.46,2.2803v3.6445
			c0,0.5996,0.0601,1.2148,0.1499,1.7998h-1.3496V463.0049z M549.3008,461.8496c0,0.7354,0.3599,1.3955,1.1846,1.3955
			c0.75,0,1.6802-0.4658,1.5601-2.9102C550.8755,460.3496,549.3008,460.2451,549.3008,461.8496z"/>
		<path fill="#EC008B" d="M559.7856,464.0996v-5.25c0-0.8096-0.2852-1.4697-1.335-1.4697c-1.3501,0-1.5449,1.2002-1.5449,2.2354
			v4.4844h-1.23v-6c0-0.5244-0.0303-1.0498-0.0752-1.5742h1.3052V457.5h0.0601c0.48-0.8555,1.0498-1.125,2.0249-1.125
			c1.6196,0,2.0249,0.9746,2.0249,2.4746v5.25H559.7856z"/>
		<path fill="#EC008B" d="M567.1807,453.27h1.23v10.8296h-1.23v-0.9004h-0.0303c-0.4199,0.7051-0.9448,1.0508-1.7397,1.0508
			c-1.2148,0-2.4448-0.4805-2.4448-3.8105c0-1.8896,0.0601-4.0645,2.5049-4.0645c0.7197,0,1.2446,0.3145,1.665,0.915h0.0449V453.27z
			 M565.7554,457.3799c-1.3198,0-1.4995,1.0498-1.4995,3.0752c0,1.1396,0,2.79,1.5449,2.79c1.3799,0,1.3799-1.71,1.3799-3.2402
			C567.1807,459,567.1206,457.3799,565.7554,457.3799z"/>
		<path fill="#EC008B" d="M576.2402,464.25c-1.6348,0-2.6548-0.7207-2.6099-2.46h1.395c0,0.4346,0.0146,1.4551,1.2598,1.4551
			c0.7349,0,1.3052-0.375,1.3052-1.1553c0-1.3496-3.7803-1.3799-3.7803-3.6445c0-0.7959,0.48-2.0703,2.6099-2.0703
			c1.3501,0,2.5049,0.6445,2.3999,2.1445h-1.3647c0.0151-0.7949-0.4048-1.2148-1.1851-1.2148c-0.6597,0-1.1699,0.3604-1.1699,1.0205
			c0,1.335,3.7798,1.3047,3.7798,3.6143C578.8799,463.6045,577.7402,464.25,576.2402,464.25z"/>
		<path fill="#EC008B" d="M584.3853,464.0996v-5.25c0-0.7646-0.21-1.4697-1.1997-1.4697c-0.375,0-0.8853,0.2246-1.0654,0.5098
			c-0.2246,0.375-0.2847,0.8252-0.2847,1.1104v5.0996h-1.23v-6c0-0.5244-0.0303-1.0498-0.0752-1.5742h1.3052v0.9443h0.0298
			c0.3604-0.8096,1.0049-1.0947,1.8901-1.0947c0.6899,0,1.4849,0.2852,1.77,0.9746c0.4199-0.8096,1.1094-0.9746,1.7998-0.9746
			c0.7949,0,2.0693,0.1797,2.0693,1.9648v5.7598h-1.2295v-5.25c0-0.7646-0.21-1.4697-1.2002-1.4697
			c-0.4648,0-0.5996,0.0146-0.9297,0.2852c-0.3599,0.2998-0.4199,1.0498-0.4199,1.335v5.0996H584.3853z"/>
		<path fill="#EC008B" d="M591.2852,460.4248c0-2.2197,0.2549-4.0498,2.8799-4.0498c2.624,0,2.8799,1.8301,2.8799,4.0498
			c0,3.3447-1.2754,3.8252-2.8799,3.8252S591.2852,463.7695,591.2852,460.4248z M595.7549,459.8994
			c0-2.0693-0.6455-2.5195-1.5898-2.5195c-0.9453,0-1.5898,0.4502-1.5898,2.5195c0,2.46,0.3154,3.3457,1.5898,3.3457
			S595.7549,462.3594,595.7549,459.8994z"/>
		<path fill="#EC008B" d="M600.2246,464.0996h-1.2295V453.27h1.2295v6.5249h0.0303l2.3096-3.2695h1.5l-2.5195,3.2539l2.9697,4.3203
			h-1.5596l-2.7002-4.2451h-0.0303V464.0996z"/>
		<path fill="#EC008B" d="M605.5498,453.27h1.3799v1.3198h-1.3799V453.27z M606.8545,464.0996h-1.2295v-7.5742h1.2295V464.0996z"/>
		<path fill="#EC008B" d="M613.0947,464.0996v-5.25c0-0.8096-0.2852-1.4697-1.335-1.4697c-1.3496,0-1.5449,1.2002-1.5449,2.2354
			v4.4844h-1.2305v-6c0-0.5244-0.0293-1.0498-0.0742-1.5742h1.3047V457.5h0.0605c0.4795-0.8555,1.0488-1.125,2.0244-1.125
			c1.6201,0,2.0244,0.9746,2.0244,2.4746v5.25H613.0947z"/>
		<path fill="#EC008B" d="M620.4902,456.5254h1.2295v8.3389c0,1.6953-1.125,2.1006-2.79,2.1006
			c-1.2598,0-2.4004-0.6299-2.2949-2.0254h1.3799c0.0146,0.7051,0.4795,1.0947,1.1553,1.0947c0.8545,0,1.3203-0.5244,1.3203-1.3047
			v-1.5752h-0.0459c-0.3154,0.6006-1.0049,0.9453-1.665,0.9453c-2.0547,0-2.459-1.7695-2.459-4.0195
			c0-3.4805,1.7539-3.7051,2.3691-3.7051c0.7949,0,1.4258,0.3447,1.7695,1.0801h0.0312V456.5254z M619.0498,457.3945
			c-1.3955,0-1.4404,1.6807-1.4404,2.6855c0,2.4297,0.5547,3,1.4707,3c1.4844,0,1.4395-1.7549,1.4395-2.8057
			C620.5195,459.1494,620.5947,457.3945,619.0498,457.3945z"/>
	</g>
</g>
<g>
	<g>
		<line fill="none" stroke="#00ADEF" stroke-width="1.23" stroke-linejoin="round" x1="405" y1="120" x2="543.666" y2="120"/>
		<g>
			<polygon fill="#00ADEF" points="539.5903,125.0303 538.7515,124.1299 543.1938,120.001 538.7515,115.8716 539.5903,114.9707 
				545,120.001 			"/>
		</g>
	</g>
</g>
<g>
	<g>
		<path fill="none" stroke="#00ADEF" stroke-width="1.23" stroke-linejoin="round" d="M490,290H276c-3.2998,0-6-2.7002-6-6V126
			c0-3.2998,2.7002-6,6-6h47.666"/>
		<g>
			<polygon fill="#00ADEF" points="319.5903,125.0303 318.7515,124.1299 323.1938,120.001 318.7515,115.8716 319.5903,114.9707 
				325,120.001 			"/>
		</g>
	</g>
</g>
<g>
	<g>
		<line fill="none" stroke="#00ADEF" stroke-width="1.23" stroke-linejoin="round" x1="625" y1="120" x2="778.666" y2="120"/>
		<g>
			<polygon fill="#00ADEF" points="774.5908,125.0303 773.752,124.1299 778.1943,120.001 773.752,115.8716 774.5908,114.9707 
				780,120.001 			"/>
		</g>
	</g>
</g>
<g>
	<g>
		<line fill="none" stroke="#00A551" stroke-width="1.23" stroke-linejoin="round" x1="585" y1="25" x2="585" y2="103.666"/>
		<g>
			<polygon fill="#00A551" points="579.9697,99.5898 580.8701,98.752 584.999,103.1934 589.1289,98.752 590.0293,99.5898 
				584.999,105 			"/>
		</g>
	</g>
</g>
<g>
	<g>
		<line fill="none" stroke="#EC008B" stroke-width="1.23" stroke-linejoin="round" x1="585" y1="385" x2="585" y2="306.334"/>
		<g>
			<polygon fill="#EC008B" points="590.0303,310.4102 589.1299,311.248 585.001,306.8066 580.8716,311.248 579.9707,310.4102 
				585.001,305 			"/>
		</g>
	</g>
</g>
<g>
	<path fill="#00A551" d="M501,3.271h3.7803c2.9697,0,3.5244,1.98,3.5244,5.355c0,1.6646,0.2554,5.4746-3.6147,5.4746H501V3.271z
		 M503.2651,12.4355h1.0947c1.3804,0,1.6504-1.0347,1.6504-3.7495c0-1.9951,0-3.75-1.5752-3.75h-1.1699V12.4355z"/>
	<path fill="#00A551" d="M511.9653,10.6509c0,0.8999,0.0298,2.25,0.96,2.25c0.75,0,0.8999-0.7202,0.8999-1.3501h2.145
		c-0.0303,0.8247-0.3003,1.5-0.8101,1.9648c-0.4951,0.4648-1.2451,0.7349-2.2349,0.7349c-2.73,0-3.0898-1.665-3.0898-4.0347
		c0-2.0698,0.2998-3.8398,3.0898-3.8398c2.8496,0,3.1646,1.8447,3.0898,4.2749H511.9653z M513.8999,9.4658
		c0-0.7349,0.0303-1.7852-0.9746-1.7852c-0.9751,0-0.96,1.1401-0.96,1.7852H513.8999z"/>
	<path fill="#00A551" d="M519.1802,11.6709c-0.0151,0.3447,0,0.6748,0.105,0.9146c0.1201,0.2402,0.3452,0.3604,0.7651,0.3604
		s0.7798-0.27,0.7798-0.7803c0-1.605-3.7197-1.2446-3.7197-3.6597c0-1.6348,1.6196-2.1299,2.9849-2.1299
		c1.4399,0,2.7446,0.6899,2.625,2.3247h-2.0703c0-0.5249-0.0596-0.8398-0.21-0.9746c-0.1348-0.1353-0.3149-0.165-0.5396-0.165
		c-0.4653,0-0.7202,0.2998-0.7202,0.8096c0,1.2002,3.7197,1.1401,3.7197,3.5703c0,1.3198-1.0796,2.3096-2.835,2.3096
		c-1.8447,0-3.0747-0.4648-2.9546-2.5796H519.1802z"/>
	<path fill="#00A551" d="M526.4697,3.271v1.665h-2.1147V3.271H526.4697z M526.4697,14.1006h-2.1147V6.5259h2.1147V14.1006z"/>
	<path fill="#00A551" d="M530.355,6.5259V7.501h0.0298c0.3901-0.8701,1.1099-1.125,1.9648-1.125v1.8896
		c-1.8599-0.1196-1.8896,0.96-1.8896,1.71v4.125h-2.1152V6.5259H530.355z"/>
	<path fill="#00A551" d="M535.29,10.6509c0,0.8999,0.0298,2.25,0.96,2.25c0.75,0,0.8999-0.7202,0.8999-1.3501h2.145
		c-0.0303,0.8247-0.3003,1.5-0.8101,1.9648c-0.4951,0.4648-1.2451,0.7349-2.2349,0.7349c-2.73,0-3.0898-1.665-3.0898-4.0347
		c0-2.0698,0.2998-3.8398,3.0898-3.8398c2.8496,0,3.1646,1.8447,3.0898,4.2749H535.29z M537.2246,9.4658
		c0-0.7349,0.0303-1.7852-0.9746-1.7852c-0.9751,0-0.96,1.1401-0.96,1.7852H537.2246z"/>
	<path fill="#00A551" d="M544.6196,14.1006v-0.8398h-0.0298c-0.3901,0.7349-0.9751,0.9897-1.7852,0.9897
		c-2.1899,0-2.1147-2.4297-2.1147-3.9897c0-1.5298-0.0601-3.8848,2.0698-3.8848c0.7651,0,1.29,0.2251,1.7251,0.8701h0.0298V3.271
		h2.1152v10.8296H544.6196z M544.5146,10.2456c0-1.5146,0.0151-2.5649-0.855-2.5649c-0.9146,0-0.8999,1.0503-0.8999,2.5649
		c0,1.9053,0.1353,2.7002,0.8999,2.7002C544.3799,12.9458,544.5146,12.1509,544.5146,10.2456z"/>
	<path fill="#00A551" d="M551.6694,3.271h2.1152v3.9751h0.0298c0.4351-0.645,0.96-0.8701,1.7251-0.8701
		c2.1299,0,2.0698,2.355,2.0698,3.8848c0,1.5601,0.0747,3.9897-2.1147,3.9897c-0.8101,0-1.395-0.2549-1.7852-0.9897h-0.0298v0.8398
		h-2.0103V3.271z M555.5396,10.2456c0-1.5146,0.0146-2.5649-0.8999-2.5649c-0.8701,0-0.855,1.0503-0.855,2.5649
		c0,1.9053,0.1348,2.7002,0.855,2.7002C555.4043,12.9458,555.5396,12.1509,555.5396,10.2456z"/>
	<path fill="#00A551" d="M561.4644,3.271v10.8296h-2.1147V3.271H561.4644z"/>
	<path fill="#00A551" d="M563.1597,10.2158c0-2.0698,0.2998-3.8398,3.0898-3.8398c2.7896,0,3.0898,1.77,3.0898,3.8398
		c0,2.3696-0.3604,4.0347-3.0898,4.0347C563.5195,14.2505,563.1597,12.5854,563.1597,10.2158z M567.2241,10.0957
		c0-1.5747-0.0747-2.3696-0.9746-2.3696s-0.9751,0.7949-0.9751,2.3696c0,2.3101,0.1948,2.8052,0.9751,2.8052
		C567.0293,12.9009,567.2241,12.4058,567.2241,10.0957z"/>
	<path fill="#00A551" d="M570.6597,10.2158c0-2.0698,0.2998-3.8398,3.0898-3.8398c2.7896,0,3.0898,1.77,3.0898,3.8398
		c0,2.3696-0.3604,4.0347-3.0898,4.0347C571.0195,14.2505,570.6597,12.5854,570.6597,10.2158z M574.7241,10.0957
		c0-1.5747-0.0747-2.3696-0.9746-2.3696s-0.9751,0.7949-0.9751,2.3696c0,2.3101,0.1948,2.8052,0.9751,2.8052
		C574.5293,12.9009,574.7241,12.4058,574.7241,10.0957z"/>
	<path fill="#00A551" d="M582.1191,14.1006v-0.8398h-0.0298c-0.3901,0.7349-0.9751,0.9897-1.7852,0.9897
		c-2.1899,0-2.1147-2.4297-2.1147-3.9897c0-1.5298-0.0601-3.8848,2.0698-3.8848c0.7651,0,1.29,0.2251,1.7251,0.8701h0.0298V3.271
		h2.1152v10.8296H582.1191z M582.0142,10.2456c0-1.5146,0.0151-2.5649-0.855-2.5649c-0.9146,0-0.8999,1.0503-0.8999,2.5649
		c0,1.9053,0.1353,2.7002,0.8999,2.7002C581.8794,12.9458,582.0142,12.1509,582.0142,10.2456z"/>
	<path fill="#00A551" d="M594.959,6.5259v7.8896c0,0.5249,0.0303,2.5947-2.8789,2.5947c-1.5762,0-2.9258-0.4048-2.9707-2.2495
		h2.0703c0,0.3149,0.0449,0.585,0.1797,0.7646c0.1348,0.1953,0.375,0.3003,0.7051,0.3003c0.5254,0,0.7793-0.4951,0.7793-1.2603
		v-1.4546h-0.0293c-0.3145,0.585-0.915,0.8848-1.6055,0.8848c-2.3242,0-2.2188-2.1299-2.2188-3.8398
		c0-1.665,0.0293-3.7798,2.2344-3.7798c0.75,0,1.3945,0.3301,1.6953,1.0347h0.0293V6.5259H594.959z M591.9746,12.6904
		c0.7646,0,0.8691-0.7949,0.8691-2.3999c0-1.6646-0.0742-2.6099-0.8545-2.6099c-0.7949,0-0.9297,0.5552-0.9297,2.8652
		C591.0596,11.2505,590.9551,12.6904,591.9746,12.6904z"/>
	<path fill="#00A551" d="M598.9648,3.271v10.8296h-2.1152V3.271H598.9648z"/>
	<path fill="#00A551" d="M604.5449,13.3354h-0.0312c-0.209,0.3301-0.4492,0.5703-0.75,0.7051
		c-0.2988,0.1499-0.6289,0.21-1.0342,0.21c-1.0049,0-1.8896-0.6001-1.8896-1.6499V6.5259h2.1152v5.25
		c0,0.6748,0.1191,1.1699,0.7949,1.1699c0.6738,0,0.7949-0.4951,0.7949-1.1699v-5.25h2.1143v6.0747
		c0,0.4951,0.0303,1.0049,0.0752,1.5h-2.1895V13.3354z"/>
	<path fill="#00A551" d="M612.1943,9.2256c0-1.1245-0.2852-1.4995-0.9443-1.4995c-0.9004,0-0.9756,0.7949-0.9756,2.3696
		c0,2.3101,0.1943,2.8052,0.9756,2.8052c0.6592,0,0.9746-0.6001,0.9746-1.5903h2.1152c0,2.0552-1.1104,2.9399-3.0898,2.9399
		c-2.7305,0-3.0898-1.665-3.0898-4.0347c0-2.0698,0.2988-3.8398,3.0898-3.8398c1.9492,0,3.0586,0.8701,3.0586,2.8496H612.1943z"/>
	<path fill="#00A551" d="M615.6602,10.2158c0-2.0698,0.2988-3.8398,3.0898-3.8398c2.7891,0,3.0898,1.77,3.0898,3.8398
		c0,2.3696-0.3613,4.0347-3.0898,4.0347C616.0195,14.2505,615.6602,12.5854,615.6602,10.2158z M619.7246,10.0957
		c0-1.5747-0.0752-2.3696-0.9746-2.3696c-0.9004,0-0.9756,0.7949-0.9756,2.3696c0,2.3101,0.1943,2.8052,0.9756,2.8052
		C619.5293,12.9009,619.7246,12.4058,619.7246,10.0957z"/>
	<path fill="#00A551" d="M625.0039,11.6709c-0.0146,0.3447,0,0.6748,0.1055,0.9146c0.1201,0.2402,0.3457,0.3604,0.7656,0.3604
		s0.7793-0.27,0.7793-0.7803c0-1.605-3.7197-1.2446-3.7197-3.6597c0-1.6348,1.6201-2.1299,2.9854-2.1299
		c1.4395,0,2.7441,0.6899,2.625,2.3247h-2.0703c0-0.5249-0.0605-0.8398-0.2109-0.9746c-0.1348-0.1353-0.3145-0.165-0.5391-0.165
		c-0.4648,0-0.7207,0.2998-0.7207,0.8096c0,1.2002,3.7207,1.1401,3.7207,3.5703c0,1.3198-1.0801,2.3096-2.8359,2.3096
		c-1.8438,0-3.0742-0.4648-2.9541-2.5796H625.0039z"/>
	<path fill="#00A551" d="M631.9492,10.6509c0,0.8999,0.0293,2.25,0.96,2.25c0.75,0,0.8994-0.7202,0.8994-1.3501h2.1455
		c-0.0303,0.8247-0.2998,1.5-0.8096,1.9648c-0.4961,0.4648-1.2461,0.7349-2.2354,0.7349c-2.7295,0-3.0898-1.665-3.0898-4.0347
		c0-2.0698,0.2998-3.8398,3.0898-3.8398c2.8496,0,3.165,1.8447,3.0898,4.2749H631.9492z M633.8838,9.4658
		c0-0.7349,0.0303-1.7852-0.9746-1.7852c-0.9756,0-0.96,1.1401-0.96,1.7852H633.8838z"/>
	<path fill="#00A551" d="M643.123,3.271v10.8296h-2.1143V3.271H643.123z"/>
	<path fill="#00A551" d="M646.9492,10.6509c0,0.8999,0.0293,2.25,0.959,2.25c0.75,0,0.9004-0.7202,0.9004-1.3501h2.1445
		c-0.0293,0.8247-0.2988,1.5-0.8105,1.9648c-0.4941,0.4648-1.2441,0.7349-2.2344,0.7349c-2.7295,0-3.0898-1.665-3.0898-4.0347
		c0-2.0698,0.3008-3.8398,3.0898-3.8398c2.8496,0,3.166,1.8447,3.0898,4.2749H646.9492z M648.8828,9.4658
		c0-0.7349,0.0312-1.7852-0.9746-1.7852c-0.9746,0-0.959,1.1401-0.959,1.7852H648.8828z"/>
	<path fill="#00A551" d="M651.7793,6.5259h2.1445l1.0645,5.6846h0.0312l1.1094-5.6846h2.0703l-2.0859,7.5747h-2.3242
		L651.7793,6.5259z"/>
	<path fill="#00A551" d="M661.1094,10.6509c0,0.8999,0.0293,2.25,0.959,2.25c0.75,0,0.9004-0.7202,0.9004-1.3501h2.1445
		c-0.0293,0.8247-0.2988,1.5-0.8105,1.9648c-0.4941,0.4648-1.2441,0.7349-2.2344,0.7349c-2.7305,0-3.0898-1.665-3.0898-4.0347
		c0-2.0698,0.3008-3.8398,3.0898-3.8398c2.8496,0,3.166,1.8447,3.0898,4.2749H661.1094z M663.043,9.4658
		c0-0.7349,0.0312-1.7852-0.9746-1.7852c-0.9746,0-0.959,1.1401-0.959,1.7852H663.043z"/>
	<path fill="#00A551" d="M668.9531,3.271v10.8296h-2.1152V3.271H668.9531z"/>
</g>
</svg>
