<?xml version="1.0" encoding="utf-8"?>
<!-- Generator: Adobe Illustrator 16.0.0, SVG Export Plug-In . SVG Version: 6.00 Build 0)  -->
<!DOCTYPE svg PUBLIC "-//W3C//DTD SVG 1.1//EN" "http://www.w3.org/Graphics/SVG/1.1/DTD/svg11.dtd">
<svg version="1.1" xmlns="http://www.w3.org/2000/svg" xmlns:xlink="http://www.w3.org/1999/xlink" x="0px" y="0px" width="1170px"
	 height="610px" viewBox="0 0 1170 610" enable-background="new 0 0 1170 610" xml:space="preserve">
<symbol  id="Bankers_Box" viewBox="-24 -24 48 48">
	<polygon fill="none" points="24,-24 -24,-24 -24,24 24,24 	"/>
	
		<polygon fill="none" stroke="#231F20" stroke-width="2" stroke-linecap="round" stroke-linejoin="round" stroke-miterlimit="10" points="
		17.333,8.666 -17.333,8.666 -17.333,17.334 17.333,17.334 	"/>
	
		<polygon fill="none" stroke="#231F20" stroke-width="2" stroke-linecap="round" stroke-linejoin="round" stroke-miterlimit="10" points="
		-15.167,-17.334 15.167,-17.334 15.167,8.666 -15.167,8.666 	"/>
	
		<line fill="none" stroke="#231F20" stroke-width="2" stroke-linecap="round" stroke-linejoin="round" stroke-miterlimit="10" x1="-4.333" y1="4.334" x2="4.333" y2="4.334"/>
</symbol>
<symbol  id="Box" viewBox="-24 -24 48 48">
	<polygon fill="none" points="24,-24 -24,-24 -24,24 24,24 	"/>
	<polygon fill="none" stroke="#231F20" stroke-width="2" stroke-miterlimit="10" points="15.011,-8.667 0,-17.333 -15.011,-8.667 
		-15.011,8.667 0,17.333 15.011,8.667 	"/>
	<polyline fill="none" stroke="#231F20" stroke-width="2" stroke-miterlimit="10" points="-15.011,8.667 0,0 15.011,8.667 	"/>
	<line fill="none" stroke="#231F20" stroke-width="2" stroke-miterlimit="10" x1="0" y1="0" x2="0" y2="-17.333"/>
	<line fill="none" stroke="#231F20" stroke-width="2" stroke-miterlimit="10" x1="7.506" y1="4.333" x2="-7.506" y2="13"/>
</symbol>
<symbol  id="Clip" viewBox="-24 -24 48 48">
	<polygon fill="none" points="24,-24 -24,-24 -24,24 24,24 	"/>
	<path fill="none" stroke="#231F20" stroke-width="2" stroke-linecap="round" stroke-linejoin="round" stroke-miterlimit="10" d="
		M-4.334,8.666V-8.666C-4.334-11.06-2.394-13,0-13c2.393,0,4.333,1.94,4.333,4.334v19.5c0,3.59-2.91,6.5-6.5,6.5s-6.5-2.91-6.5-6.5
		v-19.5c0-4.787,3.88-8.667,8.667-8.667s8.667,3.88,8.667,8.667V8.666"/>
</symbol>
<symbol  id="Clipboard" viewBox="-24 -24 48 48">
	<g id="Paper__x26__Pencil_1_">
		<polygon fill="none" points="24,-24 -24,-24 -24,24 24,24 		"/>
		
			<polyline fill="none" stroke="#231F20" stroke-width="2" stroke-linecap="round" stroke-linejoin="round" stroke-miterlimit="10" points="
			4.333,17.333 13,17.333 13,-17.333 -13,-17.333 -13,17.333 -4.336,17.333 		"/>
		
			<polygon fill="none" stroke="#231F20" stroke-width="2" stroke-linecap="round" stroke-linejoin="round" stroke-miterlimit="10" points="
			4.333,15.166 -4.336,15.166 -4.336,19.5 4.333,19.5 		"/>
		
			<line fill="none" stroke="#231F20" stroke-width="2" stroke-linecap="round" stroke-linejoin="round" stroke-miterlimit="10" x1="-8.666" y1="8.666" x2="8.666" y2="8.666"/>
		
			<line fill="none" stroke="#231F20" stroke-width="2" stroke-linecap="round" stroke-linejoin="round" stroke-miterlimit="10" x1="-8.666" y1="0" x2="8.666" y2="0"/>
		
			<line fill="none" stroke="#231F20" stroke-width="2" stroke-linecap="round" stroke-linejoin="round" stroke-miterlimit="10" x1="-8.666" y1="-8.667" x2="8.666" y2="-8.667"/>
	</g>
</symbol>
<symbol  id="Confirmation_Letter" viewBox="-24 -24 48 48">
	<g id="Paper_1_">
		<polygon fill="none" points="24,-24 -24,-24 -24,24 24,24 		"/>
		
			<polygon fill="none" stroke="#231F20" stroke-width="2" stroke-linecap="round" stroke-linejoin="round" stroke-miterlimit="10" points="
			13.394,-17.333 -13.394,-17.333 -13.394,17.333 4.727,17.333 13.394,8.666 		"/>
		
			<polyline fill="none" stroke="#231F20" stroke-width="2" stroke-linecap="round" stroke-linejoin="round" stroke-miterlimit="10" points="
			13.394,8.666 4.727,8.666 4.727,17.333 		"/>
	</g>
	
		<polyline fill="none" stroke="#231F20" stroke-width="2" stroke-linecap="round" stroke-linejoin="round" stroke-miterlimit="10" points="
		-7.66,-2.801 -1.531,-8.93 7.66,0.264 	"/>
</symbol>
<symbol  id="Difference_3" viewBox="-24 -24 48 48">
	<g>
		
			<polygon fill="none" stroke="#231F20" stroke-width="2" stroke-linecap="round" stroke-linejoin="round" stroke-miterlimit="10" points="
			-2.167,-9.814 -17.334,-9.814 -17.334,9.813 -7.074,9.813 -2.167,4.906 		"/>
		
			<polyline fill="none" stroke="#231F20" stroke-width="2" stroke-linecap="round" stroke-linejoin="round" stroke-miterlimit="10" points="
			-2.167,4.906 -7.074,4.906 -7.074,9.813 		"/>
	</g>
	<g>
		
			<polygon fill="none" stroke="#231F20" stroke-width="2" stroke-linecap="round" stroke-linejoin="round" stroke-miterlimit="10" points="
			17.334,-9.814 2.167,-9.814 2.167,9.813 12.427,9.813 17.334,4.906 		"/>
		
			<polyline fill="none" stroke="#231F20" stroke-width="2" stroke-linecap="round" stroke-linejoin="round" stroke-miterlimit="10" points="
			17.334,4.906 12.427,4.906 12.427,9.813 		"/>
	</g>
	
		<line fill="none" stroke="#231F20" stroke-width="2" stroke-linecap="round" stroke-linejoin="round" stroke-miterlimit="10" x1="-13.334" y1="0" x2="-6.167" y2="0"/>
	<g>
		
			<line fill="none" stroke="#231F20" stroke-width="2" stroke-linecap="round" stroke-linejoin="round" stroke-miterlimit="10" x1="7.216" y1="-4.989" x2="12.284" y2="0.08"/>
		
			<line fill="none" stroke="#231F20" stroke-width="2" stroke-linecap="round" stroke-linejoin="round" stroke-miterlimit="10" x1="7.217" y1="0.079" x2="12.284" y2="-4.989"/>
	</g>
	
		<line fill="none" stroke="#231F20" stroke-width="2" stroke-linecap="round" stroke-linejoin="round" stroke-miterlimit="10" x1="-13.334" y1="-4.907" x2="-6.167" y2="-4.907"/>
	
		<line fill="none" stroke="#231F20" stroke-width="2" stroke-linecap="round" stroke-linejoin="round" stroke-miterlimit="10" x1="-13.334" y1="4.906" x2="-11.074" y2="4.906"/>
	<polygon fill="none" points="24,-24 -24,-24 -24,24 24,24 	"/>
</symbol>
<symbol  id="File_Cabinet" viewBox="-24 -24 48 48">
	<polygon fill="none" points="24,-24 -24,-24 -24,24 24,24 	"/>
	
		<polygon fill="none" stroke="#231F20" stroke-width="2" stroke-linecap="round" stroke-linejoin="round" stroke-miterlimit="10" points="
		-17.333,17.334 17.333,17.334 17.333,-17.334 -17.333,-17.334 	"/>
	
		<line fill="none" stroke="#231F20" stroke-width="2" stroke-linecap="round" stroke-linejoin="round" stroke-miterlimit="10" x1="-17.333" y1="0" x2="17.333" y2="0"/>
	
		<line fill="none" stroke="#231F20" stroke-width="2" stroke-linecap="round" stroke-linejoin="round" stroke-miterlimit="10" x1="-4.333" y1="8.666" x2="4.333" y2="8.666"/>
	
		<line fill="none" stroke="#231F20" stroke-width="2" stroke-linecap="round" stroke-linejoin="round" stroke-miterlimit="10" x1="-4.333" y1="-8.666" x2="4.333" y2="-8.666"/>
</symbol>
<symbol  id="Folder" viewBox="-24 -24 48 48">
	<polygon fill="none" points="24,-24 -24,-24 -24,24 24,24 	"/>
	
		<polygon fill="none" stroke="#231F20" stroke-width="2" stroke-linecap="round" stroke-linejoin="round" stroke-miterlimit="10" points="
		-17.334,-15.167 -17.334,15.167 -4.333,15.167 0,10.833 17.334,10.833 17.334,-15.167 	"/>
</symbol>
<symbol  id="Isometric_Box_1_" viewBox="-24 -24 48 48">
	<polygon fill="none" points="24,-24 -24,-24 -24,24 24,24 	"/>
	
		<polygon fill="none" stroke="#231F20" stroke-width="2" stroke-linecap="round" stroke-linejoin="round" stroke-miterlimit="10" points="
		15.012,-8.667 0,-17.333 -15.012,-8.667 -15.012,8.666 0,17.333 15.012,8.666 	"/>
	
		<line fill="none" stroke="#231F20" stroke-width="2" stroke-linecap="round" stroke-linejoin="round" stroke-miterlimit="10" x1="15.012" y1="8.666" x2="0" y2="0"/>
	
		<line fill="none" stroke="#231F20" stroke-width="2" stroke-linecap="round" stroke-linejoin="round" stroke-miterlimit="10" x1="-15.012" y1="8.666" x2="0" y2="0"/>
	
		<line fill="none" stroke="#231F20" stroke-width="2" stroke-linecap="round" stroke-linejoin="round" stroke-miterlimit="10" x1="0" y1="-17.333" x2="0" y2="0"/>
</symbol>
<symbol  id="Letter" viewBox="-24 -24 48 48">
	<polygon fill="none" points="24,-24 -24,-24 -24,24 24,24 	"/>
	
		<polygon fill="none" stroke="#231F20" stroke-width="2" stroke-linecap="round" stroke-linejoin="round" stroke-miterlimit="10" points="
		13.394,-17.333 -13.394,-17.333 -13.394,17.333 4.726,17.333 13.394,8.666 	"/>
	
		<polyline fill="none" stroke="#231F20" stroke-width="2" stroke-linecap="round" stroke-linejoin="round" stroke-miterlimit="10" points="
		13.394,8.666 4.726,8.666 4.726,17.333 	"/>
	
		<line fill="none" stroke="#231F20" stroke-width="2" stroke-linecap="round" stroke-linejoin="round" stroke-miterlimit="10" x1="-7.273" y1="8.666" x2="-0.606" y2="8.666"/>
	
		<line fill="none" stroke="#231F20" stroke-width="2" stroke-linecap="round" stroke-linejoin="round" stroke-miterlimit="10" x1="-7.273" y1="0" x2="8.06" y2="0"/>
	
		<line fill="none" stroke="#231F20" stroke-width="2" stroke-linecap="round" stroke-linejoin="round" stroke-miterlimit="10" x1="8.06" y1="-8.667" x2="-7.273" y2="-8.667"/>
</symbol>
<symbol  id="Letters" viewBox="-24 -24 48 48">
	<polygon fill="none" points="24,-24 -24,-24 -24,24 24,24 	"/>
	<g>
		<g>
			
				<polygon fill="none" stroke="#231F20" stroke-width="2" stroke-linecap="round" stroke-linejoin="round" stroke-miterlimit="10" points="
				5.712,-8.667 -14.379,-8.667 -14.379,17.333 -0.789,17.333 5.712,10.833 			"/>
			
				<polyline fill="none" stroke="#231F20" stroke-width="2" stroke-linecap="round" stroke-linejoin="round" stroke-miterlimit="10" points="
				5.712,10.833 -0.789,10.833 -0.789,17.333 			"/>
			
				<line fill="none" stroke="#231F20" stroke-width="2" stroke-linecap="round" stroke-linejoin="round" stroke-miterlimit="10" x1="-9.538" y1="10.833" x2="-5.038" y2="10.833"/>
			
				<line fill="none" stroke="#231F20" stroke-width="2" stroke-linecap="round" stroke-linejoin="round" stroke-miterlimit="10" x1="-9.539" y1="4.332" x2="1.461" y2="4.332"/>
			
				<line fill="none" stroke="#231F20" stroke-width="2" stroke-linecap="round" stroke-linejoin="round" stroke-miterlimit="10" x1="1.461" y1="-2.167" x2="-9.539" y2="-2.167"/>
		</g>
		
			<polyline fill="none" stroke="#231F20" stroke-width="2" stroke-linecap="round" stroke-linejoin="round" stroke-miterlimit="10" points="
			-10.045,-8.667 -10.045,-13.001 10.045,-13.001 10.045,13 3.545,13 		"/>
		
			<polyline fill="none" stroke="#231F20" stroke-width="2" stroke-linecap="round" stroke-linejoin="round" stroke-miterlimit="10" points="
			-5.712,-13.001 -5.712,-17.333 14.378,-17.333 14.378,8.666 10.045,8.666 		"/>
	</g>
</symbol>
<symbol  id="List" viewBox="-24 -24 48 48">
	<polygon fill="none" points="24,-24 -24,-24 -24,24 24,24 	"/>
	
		<polygon fill="none" stroke="#231F20" stroke-width="2" stroke-linecap="round" stroke-linejoin="round" stroke-miterlimit="10" points="
		17.333,-17.334 -17.333,-17.334 -17.333,17.334 17.333,17.334 	"/>
	
		<line fill="none" stroke="#231F20" stroke-width="2" stroke-linecap="round" stroke-linejoin="round" stroke-miterlimit="10" x1="7.667" y1="8.666" x2="-3.333" y2="8.666"/>
	
		<line fill="none" stroke="#231F20" stroke-width="2" stroke-linecap="round" stroke-linejoin="round" stroke-miterlimit="10" x1="7.667" y1="0" x2="-3.333" y2="0"/>
	
		<line fill="none" stroke="#231F20" stroke-width="2" stroke-linecap="round" stroke-linejoin="round" stroke-miterlimit="10" x1="7.667" y1="-8.667" x2="-3.333" y2="-8.667"/>
	<path fill="#231F20" d="M-8.667,8.666c0,0.553,0.448,1,1,1s1-0.447,1-1c0-0.552-0.448-1-1-1S-8.667,8.114-8.667,8.666z"/>
	<path fill="#231F20" d="M-8.667,0c0,0.553,0.448,1,1,1s1-0.447,1-1s-0.448-1-1-1S-8.667-0.553-8.667,0z"/>
	<path fill="#231F20" d="M-8.667-8.667c0,0.552,0.448,1,1,1s1-0.448,1-1s-0.448-1-1-1S-8.667-9.219-8.667-8.667z"/>
</symbol>
<symbol  id="Long_Letter" viewBox="-24 -24 48 48">
	<polygon fill="none" points="24,-24 -24,-24 -24,24 24,24 	"/>
	<path opacity="0.5" fill="#231F20" d="M-17.333,8.666V-12.99c0-0.004-0.001-0.006-0.001-0.01c0-2.394,1.94-4.334,4.333-4.334
		s4.333,1.94,4.333,4.334V8.666H-17.333z"/>
	<path fill="none" stroke="#231F20" stroke-width="2" stroke-linecap="round" stroke-linejoin="round" stroke-miterlimit="10" d="
		M-8.667,8.666h-8.666V-13c0-2.393,1.94-4.332,4.333-4.332S-8.667-15.393-8.667-13v30.334h26V-13c0-2.393-1.94-4.332-4.333-4.332
		l-26-0.002"/>
	
		<line fill="none" stroke="#231F20" stroke-width="2" stroke-linecap="round" stroke-linejoin="round" stroke-miterlimit="10" x1="-3.333" y1="8.666" x2="12" y2="8.666"/>
	
		<line fill="none" stroke="#231F20" stroke-width="2" stroke-linecap="round" stroke-linejoin="round" stroke-miterlimit="10" x1="-3.334" y1="4.334" x2="12" y2="4.334"/>
	
		<line fill="none" stroke="#231F20" stroke-width="2" stroke-linecap="round" stroke-linejoin="round" stroke-miterlimit="10" x1="-3.333" y1="0" x2="12" y2="0"/>
	
		<line fill="none" stroke="#231F20" stroke-width="2" stroke-linecap="round" stroke-linejoin="round" stroke-miterlimit="10" x1="-3.333" y1="-4.334" x2="12" y2="-4.334"/>
	
		<line fill="none" stroke="#231F20" stroke-width="2" stroke-linecap="round" stroke-linejoin="round" stroke-miterlimit="10" x1="7.667" y1="-8.666" x2="-3.333" y2="-8.666"/>
</symbol>
<symbol  id="Long_Paper_3_" viewBox="-24 -24 48 48">
	<polygon fill="none" points="24,-24 -24,-24 -24,24 24,24 	"/>
	<path opacity="0.5" fill="#231F20" d="M-12.985-8.666c-0.005,0-0.01,0.002-0.015,0.002v8.666l0,0c0,1.197-0.971,2.167-2.167,2.167
		s-2.167-0.97-2.167-2.167l0,0v-9.543h0.001v-3.447c0-0.004-0.001-0.007-0.001-0.01c0-2.395,1.94-4.335,4.334-4.335
		c2.394,0,4.334,1.94,4.334,4.335v4.332H-12.985z"/>
	<path fill="none" stroke="#231F20" stroke-width="2" stroke-linecap="round" stroke-linejoin="round" stroke-miterlimit="10" d="
		M-13-17.333h26c2.393,0,4.333,1.94,4.333,4.333v30.334h-26l0-30.334C-8.667-15.393-10.607-17.333-13-17.333
		c-2.394,0-4.333,1.94-4.333,4.333V0c0,1.197,0.97,2.166,2.167,2.166c1.196,0,2.166-0.969,2.166-2.166v-8.666h4.334"/>
	
		<line fill="none" stroke="#231F20" stroke-width="2" stroke-linecap="round" stroke-linejoin="round" stroke-miterlimit="10" x1="-15.167" y1="2.166" x2="-8.667" y2="2.166"/>
	
		<line fill="none" stroke="#231F20" stroke-width="2" stroke-linecap="round" stroke-linejoin="round" stroke-miterlimit="10" x1="-3.333" y1="8.666" x2="3.334" y2="8.666"/>
	
		<line fill="none" stroke="#231F20" stroke-width="2" stroke-linecap="round" stroke-linejoin="round" stroke-miterlimit="10" x1="-3.333" y1="0" x2="12" y2="0"/>
	
		<line fill="none" stroke="#231F20" stroke-width="2" stroke-linecap="round" stroke-linejoin="round" stroke-miterlimit="10" x1="7.666" y1="-4.333" x2="-3.334" y2="-4.333"/>
	
		<line fill="none" stroke="#231F20" stroke-width="2" stroke-linecap="round" stroke-linejoin="round" stroke-miterlimit="10" x1="-3.333" y1="-8.666" x2="12" y2="-8.666"/>
</symbol>
<symbol  id="Map" viewBox="-24 -24 48 48">
	<polygon fill="none" points="24,-24 -24,-24 -24,24 24,24 	"/>
	<g>
		
			<polygon fill="none" stroke="#000000" stroke-width="2" stroke-linecap="round" stroke-linejoin="round" stroke-miterlimit="10" points="
			-17.334,15.168 -5.776,10.834 5.779,15.168 17.334,10.834 17.334,-15.166 5.779,-10.832 -5.776,-15.168 -17.334,-10.832 		"/>
		
			<line fill="none" stroke="#000000" stroke-width="2" stroke-linecap="round" stroke-linejoin="round" stroke-miterlimit="10" x1="-5.776" y1="10.834" x2="-5.776" y2="-15.168"/>
		
			<line fill="none" stroke="#000000" stroke-width="2" stroke-linecap="round" stroke-linejoin="round" stroke-miterlimit="10" x1="5.779" y1="-10.832" x2="5.779" y2="15.168"/>
	</g>
</symbol>
<symbol  id="No_Information" viewBox="-24 -24 48 48">
	<g>
		<defs>
			<path id="SVGID_5_" d="M-24,24v-48h48v48H-24z M19.455,15.213l-34.668-34.668c-0.585-0.586-1.354-0.879-2.121-0.879
				s-1.536,0.293-2.121,0.879c-1.172,1.171-1.172,3.071,0,4.242l34.668,34.668c1.171,1.172,3.071,1.172,4.242,0
				C20.627,18.284,20.627,16.384,19.455,15.213z"/>
		</defs>
		<clipPath id="SVGID_2_">
			<use xlink:href="#SVGID_5_"  overflow="visible"/>
		</clipPath>
		<g clip-path="url(#SVGID_2_)">
			
				<polygon fill="none" stroke="#231F20" stroke-width="2" stroke-linecap="round" stroke-linejoin="round" stroke-miterlimit="10" points="
				13.394,-17.333 -13.394,-17.333 -13.394,17.333 4.726,17.333 13.394,8.666 			"/>
			
				<polyline fill="none" stroke="#231F20" stroke-width="2" stroke-linecap="round" stroke-linejoin="round" stroke-miterlimit="10" points="
				13.394,8.666 4.726,8.666 4.726,17.333 			"/>
			
				<line fill="none" stroke="#231F20" stroke-width="2" stroke-linecap="round" stroke-linejoin="round" stroke-miterlimit="10" x1="-7.273" y1="8.666" x2="-0.606" y2="8.666"/>
			
				<line fill="none" stroke="#231F20" stroke-width="2" stroke-linecap="round" stroke-linejoin="round" stroke-miterlimit="10" x1="-7.273" y1="0" x2="8.06" y2="0"/>
			
				<line fill="none" stroke="#231F20" stroke-width="2" stroke-linecap="round" stroke-linejoin="round" stroke-miterlimit="10" x1="8.06" y1="-8.667" x2="-7.273" y2="-8.667"/>
		</g>
	</g>
	
		<line fill="none" stroke="#231F20" stroke-width="2" stroke-linecap="round" stroke-linejoin="round" stroke-miterlimit="10" x1="-17.334" y1="-17.334" x2="17.334" y2="17.334"/>
</symbol>
<symbol  id="Note" viewBox="-24 -24 48 48">
	
		<polygon fill="none" stroke="#231F20" stroke-width="2" stroke-linecap="round" stroke-linejoin="round" stroke-miterlimit="10" points="
		17.334,13 -4.334,-8.666 -8.666,-8.666 -8.666,-4.334 13,17.334 	"/>
	<g>
		<defs>
			<path id="SVGID_3_" d="M-24,24v-48h48v48H-24z M-3.091-11.666h-8.575v8.575L13,21.576L21.576,13L-3.091-11.666z"/>
		</defs>
		<clipPath id="SVGID_4_">
			<use xlink:href="#SVGID_3_"  overflow="visible"/>
		</clipPath>
		
			<polygon clip-path="url(#SVGID_4_)" fill="none" stroke="#231F20" stroke-width="2" stroke-linecap="round" stroke-linejoin="round" stroke-miterlimit="10" points="
			13,13 -17.334,13 -17.334,-17.334 13,-17.334 		"/>
	</g>
	
		<line fill="none" stroke="#231F20" stroke-width="2" stroke-linecap="round" stroke-linejoin="round" stroke-miterlimit="10" x1="13" y1="8.666" x2="8.666" y2="13"/>
</symbol>
<symbol  id="Paper" viewBox="-24 -24 48 48">
	<polygon fill="none" points="24,-24 -24,-24 -24,24 24,24 	"/>
	
		<polygon fill="none" stroke="#231F20" stroke-width="2" stroke-linecap="round" stroke-linejoin="round" stroke-miterlimit="10" points="
		13.394,-17.333 -13.394,-17.333 -13.394,17.333 4.727,17.333 13.394,8.666 	"/>
	
		<polyline fill="none" stroke="#231F20" stroke-width="2" stroke-linecap="round" stroke-linejoin="round" stroke-miterlimit="10" points="
		13.394,8.666 4.727,8.666 4.727,17.333 	"/>
</symbol>
<symbol  id="Paper__x26__Pencil" viewBox="-24 -24 48 48">
	<polygon fill="none" points="24,-24 -24,-24 -24,24 24,24 	"/>
	
		<polyline fill="none" stroke="#231F20" stroke-width="2" stroke-linecap="round" stroke-linejoin="round" stroke-miterlimit="10" points="
		0,17.333 8.667,17.333 8.667,-17.333 -17.333,-17.333 -17.333,17.333 -8.669,17.333 	"/>
	
		<polygon fill="none" stroke="#231F20" stroke-width="2" stroke-linecap="round" stroke-linejoin="round" stroke-miterlimit="10" points="
		17.333,-10.834 15.167,-13.001 13,-10.834 13,13 17.333,13 	"/>
	
		<line fill="none" stroke="#231F20" stroke-width="2" stroke-linecap="round" stroke-linejoin="round" stroke-miterlimit="10" x1="17.333" y1="8.666" x2="13" y2="8.666"/>
	
		<polygon fill="none" stroke="#231F20" stroke-width="2" stroke-linecap="round" stroke-linejoin="round" stroke-miterlimit="10" points="
		0,15.166 -8.669,15.166 -8.669,19.5 0,19.5 	"/>
	
		<line fill="none" stroke="#231F20" stroke-width="2" stroke-linecap="round" stroke-linejoin="round" stroke-miterlimit="10" x1="-13" y1="8.666" x2="4.333" y2="8.666"/>
	
		<line fill="none" stroke="#231F20" stroke-width="2" stroke-linecap="round" stroke-linejoin="round" stroke-miterlimit="10" x1="-13" y1="0" x2="4.333" y2="0"/>
	
		<line fill="none" stroke="#231F20" stroke-width="2" stroke-linecap="round" stroke-linejoin="round" stroke-miterlimit="10" x1="-13" y1="-8.667" x2="4.333" y2="-8.667"/>
</symbol>
<symbol  id="Paper__x26__Pencil_2" viewBox="-24 -24 48 48">
	<polygon fill="none" points="24,-24 -24,-24 -24,24 24,24 	"/>
	
		<polygon fill="none" stroke="#231F20" stroke-width="2" stroke-linecap="round" stroke-linejoin="round" stroke-miterlimit="10" points="
		-10.833,-17.333 -13,-15.166 -10.833,-13.001 13,-13.001 13,-17.333 	"/>
	
		<line fill="none" stroke="#231F20" stroke-width="2" stroke-linecap="round" stroke-linejoin="round" stroke-miterlimit="10" x1="8.667" y1="-17.333" x2="8.667" y2="-13.001"/>
	
		<polyline fill="none" stroke="#231F20" stroke-width="2" stroke-linecap="round" stroke-linejoin="round" stroke-miterlimit="10" points="
		8.667,17.333 17.333,17.333 17.333,-8.667 -17.333,-8.667 -17.333,17.333 -8.667,17.333 	"/>
	
		<polygon fill="none" stroke="#231F20" stroke-width="2" stroke-linecap="round" stroke-linejoin="round" stroke-miterlimit="10" points="
		8.67,15.166 -8.667,15.166 -8.667,19.5 8.67,19.5 	"/>
	
		<line fill="none" stroke="#231F20" stroke-width="2" stroke-linecap="round" stroke-linejoin="round" stroke-miterlimit="10" x1="-13" y1="8.666" x2="13" y2="8.666"/>
	
		<line fill="none" stroke="#231F20" stroke-width="2" stroke-linecap="round" stroke-linejoin="round" stroke-miterlimit="10" x1="-13" y1="0" x2="13" y2="0"/>
	
		<line fill="none" stroke="#231F20" stroke-width="2" stroke-linecap="round" stroke-linejoin="round" stroke-miterlimit="10" x1="-9.42" y1="-13.001" x2="-9.42" y2="-17.333"/>
</symbol>
<symbol  id="Paper__x26__Pencil_3" viewBox="-24 -24 48 48">
	<polygon fill="none" points="24,-24 -24,-24 -24,24 24,24 	"/>
	
		<polygon fill="none" stroke="#231F20" stroke-width="2" stroke-linecap="round" stroke-linejoin="round" stroke-miterlimit="10" points="
		0,15.166 -8.67,15.166 -8.67,19.5 0,19.5 	"/>
	
		<line fill="none" stroke="#231F20" stroke-width="2" stroke-linecap="round" stroke-linejoin="round" stroke-miterlimit="10" x1="-13" y1="8.666" x2="4.334" y2="8.666"/>
	
		<polygon fill="none" stroke="#231F20" stroke-width="2" stroke-linecap="round" stroke-linejoin="round" stroke-miterlimit="10" points="
		2.667,-8.667 0,-8.667 0,-6 14.667,8.666 17.333,6 	"/>
	<polygon fill="#231F20" points="7.666,5.908 9.667,7.909 9.667,18.333 0,18.333 0,16.334 7.666,16.334 	"/>
	
		<line fill="none" stroke="#231F20" stroke-width="2" stroke-linecap="round" stroke-linejoin="round" stroke-miterlimit="10" x1="14.667" y1="3.333" x2="12" y2="6"/>
	<polygon fill="#231F20" points="7.666,-7.909 7.666,-16.334 -16.334,-16.334 -16.334,16.334 -8.67,16.334 -8.67,18.333 
		-18.333,18.333 -18.333,-18.334 9.667,-18.334 9.667,-5.908 	"/>
	<polygon fill="#231F20" points="2.758,1 -13,1 -13,-1.001 0.758,-1.001 	"/>
	<polygon fill="#231F20" points="-3,-7.666 -13,-7.666 -13,-9.667 -3,-9.667 	"/>
</symbol>
<symbol  id="Paper_Sheet" viewBox="-24 -24 48 48">
	<polygon fill="none" points="24,-24 -24,-24 -24,24 24,24 	"/>
	<path fill="none" stroke="#231F20" stroke-width="2" stroke-miterlimit="10" d="M13,8.666h-30.333v-26L13-17.335
		c2.394,0,4.334,1.94,4.334,4.334S15.394-8.667,13-8.667v26.001c2.394,0,4.334-1.94,4.334-4.334v-26.001"/>
</symbol>
<symbol  id="Paper_Stack" viewBox="-24 -24 48 48">
	<polygon fill="none" points="24,-24 -24,-24 -24,24 24,24 	"/>
	<g>
		<g>
			
				<polygon fill="none" stroke="#231F20" stroke-width="2" stroke-linecap="round" stroke-linejoin="round" stroke-miterlimit="10" points="
				5.712,-8.666 -14.379,-8.666 -14.379,17.333 5.712,17.333 			"/>
			
				<line fill="none" stroke="#231F20" stroke-width="2" stroke-linecap="round" stroke-linejoin="round" stroke-miterlimit="10" x1="-10.539" y1="10.834" x2="2.461" y2="10.834"/>
			
				<line fill="none" stroke="#231F20" stroke-width="2" stroke-linecap="round" stroke-linejoin="round" stroke-miterlimit="10" x1="-10.539" y1="4.334" x2="2.461" y2="4.334"/>
			
				<line fill="none" stroke="#231F20" stroke-width="2" stroke-linecap="round" stroke-linejoin="round" stroke-miterlimit="10" x1="2.461" y1="-2.167" x2="-10.539" y2="-2.167"/>
		</g>
		
			<polyline fill="none" stroke="#231F20" stroke-width="2" stroke-linecap="round" stroke-linejoin="round" stroke-miterlimit="10" points="
			-10.045,-8.666 -10.045,-13 10.045,-13 10.045,13 5.712,13 		"/>
		
			<polyline fill="none" stroke="#231F20" stroke-width="2" stroke-linecap="round" stroke-linejoin="round" stroke-miterlimit="10" points="
			-5.712,-13 -5.712,-17.333 14.379,-17.333 14.379,8.667 10.045,8.667 		"/>
	</g>
</symbol>
<symbol  id="Pencil" viewBox="-24 -24 48 48">
	<polygon fill="none" points="24,-24 -24,-24 -24,24 24,24 	"/>
	
		<polygon fill="none" stroke="#231F20" stroke-width="2" stroke-linecap="round" stroke-linejoin="round" stroke-miterlimit="10" points="
		-12,-17.333 -17.333,-17.333 -17.333,-12 12,17.333 17.333,12 	"/>
	
		<line fill="none" stroke="#231F20" stroke-width="2" stroke-linecap="round" stroke-linejoin="round" stroke-miterlimit="10" x1="12" y1="6.666" x2="6.667" y2="12"/>
	
		<line fill="none" stroke="#231F20" stroke-width="2" stroke-linecap="round" stroke-linejoin="round" stroke-miterlimit="10" x1="-16.359" y1="-10.97" x2="-11.025" y2="-16.303"/>
</symbol>
<symbol  id="Points_Report" viewBox="-24 -24 48 48">
	<g id="Star_2_">
		<polygon fill="none" points="24,-24 -24,-24 -24,24 24,24 		"/>
		
			<polygon fill="none" stroke="#231F20" stroke-width="2" stroke-linecap="round" stroke-linejoin="round" stroke-miterlimit="10" points="
			0,4.957 2.368,0.156 7.667,-0.612 3.833,-4.349 4.738,-9.625 0,-7.134 -4.738,-9.625 -3.833,-4.349 -7.667,-0.612 -2.368,0.156 		
			"/>
	</g>
	<g id="Letter_4_">
		
			<polygon fill="none" stroke="#231F20" stroke-width="2" stroke-linecap="round" stroke-linejoin="round" stroke-miterlimit="10" points="
			13.394,-17.333 -13.394,-17.333 -13.394,17.333 4.726,17.333 13.394,8.666 		"/>
		
			<polyline fill="none" stroke="#231F20" stroke-width="2" stroke-linecap="round" stroke-linejoin="round" stroke-miterlimit="10" points="
			13.394,8.666 4.726,8.666 4.726,17.333 		"/>
	</g>
</symbol>
<symbol  id="Scroll" viewBox="-24 -24 48 48">
	<polygon fill="none" points="24,-24 -24,-24 -24,24 24,24 	"/>
	<path opacity="0.5" fill="#231F20" d="M13,17.333c-2.394,0-4.334-1.94-4.334-4.333c0-0.004,0.001-0.007,0.001-0.01V8.666h8.666V13
		C17.333,15.393,15.393,17.333,13,17.333z"/>
	<path fill="none" stroke="#231F20" stroke-width="2" stroke-linecap="round" stroke-linejoin="round" stroke-miterlimit="10" d="
		M8.667-13c0-2.394-1.94-4.334-4.333-4.334C1.94-17.334,0-15.394,0-13"/>
	<path fill="none" stroke="#231F20" stroke-width="2" stroke-linecap="round" stroke-linejoin="round" stroke-miterlimit="10" d="
		M-13-17.334c-2.394,0-4.333,1.94-4.333,4.334"/>
	<path fill="none" stroke="#231F20" stroke-width="2" stroke-linecap="round" stroke-linejoin="round" stroke-miterlimit="10" d="
		M-8.667,13c0,2.393,1.94,4.332,4.333,4.332"/>
	<path fill="none" stroke="#231F20" stroke-width="2" stroke-linecap="round" stroke-linejoin="round" stroke-miterlimit="10" d="
		M8.666,13c0,2.393,1.94,4.332,4.334,4.332c2.393,0,4.333-1.939,4.333-4.332"/>
	
		<line fill="none" stroke="#231F20" stroke-width="2" stroke-linecap="round" stroke-linejoin="round" stroke-miterlimit="10" x1="-13" y1="-17.334" x2="4.334" y2="-17.334"/>
	
		<line fill="none" stroke="#231F20" stroke-width="2" stroke-linecap="round" stroke-linejoin="round" stroke-miterlimit="10" x1="-4.333" y1="17.332" x2="13" y2="17.332"/>
	
		<line fill="none" stroke="#231F20" stroke-width="2" stroke-linecap="round" stroke-linejoin="round" stroke-miterlimit="10" x1="8.666" y1="13" x2="8.666" y2="-13"/>
	
		<line fill="none" stroke="#231F20" stroke-width="2" stroke-linecap="round" stroke-linejoin="round" stroke-miterlimit="10" x1="-8.667" y1="13" x2="-8.667" y2="-8.667"/>
	
		<polyline fill="none" stroke="#231F20" stroke-width="2" stroke-linecap="round" stroke-linejoin="round" stroke-miterlimit="10" points="
		0,-13.125 0,-8.667 -17.333,-8.667 -17.333,-13.125 	"/>
	
		<polyline fill="none" stroke="#231F20" stroke-width="2" stroke-linecap="round" stroke-linejoin="round" stroke-miterlimit="10" points="
		17.334,13 17.334,8.665 8.667,8.665 	"/>
</symbol>
<symbol  id="Scroll__x28_Filled_x29_" viewBox="-24 -24 48 48">
	<polygon fill="none" points="24,-24 -24,-24 -24,24 24,24 	"/>
	<path opacity="0.5" fill="#231F20" d="M13,17.333c-2.394,0-4.334-1.94-4.334-4.333c0-0.004,0.001-0.007,0.001-0.01V8.666h8.666V13
		C17.333,15.393,15.393,17.333,13,17.333z"/>
	<path fill="none" stroke="#231F20" stroke-width="2" stroke-linecap="round" stroke-linejoin="round" stroke-miterlimit="10" d="
		M8.667-13c0-2.394-1.94-4.334-4.333-4.334C1.94-17.334,0-15.394,0-13"/>
	<path fill="none" stroke="#231F20" stroke-width="2" stroke-linecap="round" stroke-linejoin="round" stroke-miterlimit="10" d="
		M-13-17.334c-2.394,0-4.334,1.94-4.334,4.334"/>
	<path fill="none" stroke="#231F20" stroke-width="2" stroke-linecap="round" stroke-linejoin="round" stroke-miterlimit="10" d="
		M-8.667,13c0,2.393,1.94,4.332,4.333,4.332"/>
	<path fill="none" stroke="#231F20" stroke-width="2" stroke-linecap="round" stroke-linejoin="round" stroke-miterlimit="10" d="
		M8.666,13c0,2.393,1.94,4.332,4.334,4.332c2.393,0,4.333-1.939,4.333-4.332"/>
	
		<line fill="none" stroke="#231F20" stroke-width="2" stroke-linecap="round" stroke-linejoin="round" stroke-miterlimit="10" x1="-13" y1="-17.334" x2="4.334" y2="-17.334"/>
	
		<line fill="none" stroke="#231F20" stroke-width="2" stroke-linecap="round" stroke-linejoin="round" stroke-miterlimit="10" x1="-4.334" y1="17.332" x2="13" y2="17.332"/>
	
		<line fill="none" stroke="#231F20" stroke-width="2" stroke-linecap="round" stroke-linejoin="round" stroke-miterlimit="10" x1="8.666" y1="13" x2="8.666" y2="-13"/>
	
		<line fill="none" stroke="#231F20" stroke-width="2" stroke-linecap="round" stroke-linejoin="round" stroke-miterlimit="10" x1="-8.667" y1="13" x2="-8.667" y2="-8.667"/>
	
		<polyline fill="none" stroke="#231F20" stroke-width="2" stroke-linecap="round" stroke-linejoin="round" stroke-miterlimit="10" points="
		0,-13.125 0,-8.667 -17.334,-8.667 -17.334,-13.125 	"/>
	
		<polyline fill="none" stroke="#231F20" stroke-width="2" stroke-linecap="round" stroke-linejoin="round" stroke-miterlimit="10" points="
		17.334,13 17.334,8.665 8.667,8.665 	"/>
	
		<line fill="none" stroke="#231F20" stroke-width="2" stroke-linecap="round" stroke-linejoin="round" stroke-miterlimit="10" x1="4.333" y1="8.666" x2="-4.333" y2="8.666"/>
	
		<line fill="none" stroke="#231F20" stroke-width="2" stroke-linecap="round" stroke-linejoin="round" stroke-miterlimit="10" x1="4.333" y1="4.333" x2="-4.333" y2="4.333"/>
	
		<line fill="none" stroke="#231F20" stroke-width="2" stroke-linecap="round" stroke-linejoin="round" stroke-miterlimit="10" x1="4.333" y1="0" x2="-4.333" y2="0"/>
	
		<line fill="none" stroke="#231F20" stroke-width="2" stroke-linecap="round" stroke-linejoin="round" stroke-miterlimit="10" x1="4.333" y1="-4.334" x2="-4.333" y2="-4.334"/>
	
		<line fill="none" stroke="#231F20" stroke-width="2" stroke-linecap="round" stroke-linejoin="round" stroke-miterlimit="10" x1="4.333" y1="-8.667" x2="0" y2="-8.667"/>
</symbol>
<symbol  id="Spread_1_" viewBox="-24 -24 48 48">
	<polygon fill="none" points="24,-24 -24,-24 -24,24 24,24 	"/>
	<path fill="none" stroke="#231F20" stroke-width="2" stroke-linecap="round" stroke-linejoin="round" stroke-miterlimit="10" d="
		M-4.334,17.334C-1.94,17.334,0,15.394,0,13c0,2.394,1.94,4.334,4.334,4.334h13V-13l-13-0.002C1.94-13.002,0-14.942,0-17.336
		c0,2.394-1.94,4.334-4.334,4.334h-13v30.336H-4.334z"/>
	
		<line fill="none" stroke="#231F20" stroke-width="2" stroke-linecap="round" stroke-linejoin="round" stroke-miterlimit="10" x1="0" y1="13" x2="0" y2="-17.336"/>
	
		<line fill="none" stroke="#231F20" stroke-width="2" stroke-linecap="round" stroke-linejoin="round" stroke-miterlimit="10" x1="5.334" y1="8.666" x2="12" y2="8.666"/>
	
		<line fill="none" stroke="#231F20" stroke-width="2" stroke-linecap="round" stroke-linejoin="round" stroke-miterlimit="10" x1="12" y1="-0.001" x2="5.334" y2="-0.001"/>
	
		<line fill="none" stroke="#231F20" stroke-width="2" stroke-linecap="round" stroke-linejoin="round" stroke-miterlimit="10" x1="5.334" y1="-4.334" x2="12" y2="-4.334"/>
	
		<line fill="none" stroke="#231F20" stroke-width="2" stroke-linecap="round" stroke-linejoin="round" stroke-miterlimit="10" x1="5.334" y1="4.334" x2="12" y2="4.334"/>
	
		<line fill="none" stroke="#231F20" stroke-width="2" stroke-linecap="round" stroke-linejoin="round" stroke-miterlimit="10" x1="-11.999" y1="8.666" x2="-5.333" y2="8.666"/>
	
		<line fill="none" stroke="#231F20" stroke-width="2" stroke-linecap="round" stroke-linejoin="round" stroke-miterlimit="10" x1="-5.333" y1="-0.001" x2="-11.999" y2="-0.001"/>
	
		<line fill="none" stroke="#231F20" stroke-width="2" stroke-linecap="round" stroke-linejoin="round" stroke-miterlimit="10" x1="-11.999" y1="-4.334" x2="-5.333" y2="-4.334"/>
	
		<line fill="none" stroke="#231F20" stroke-width="2" stroke-linecap="round" stroke-linejoin="round" stroke-miterlimit="10" x1="-11.999" y1="4.334" x2="-5.333" y2="4.334"/>
</symbol>
<symbol  id="Trash_Can" viewBox="-24 -24 48 48">
	<polygon fill="none" points="24,-24 -24,-24 -24,24 24,24 	"/>
	
		<polygon fill="none" stroke="#231F20" stroke-width="2" stroke-linecap="round" stroke-linejoin="round" stroke-miterlimit="10" points="
		8.666,-17.334 -8.666,-17.334 -13,13 13,13 	"/>
	
		<line fill="none" stroke="#231F20" stroke-width="2" stroke-linecap="round" stroke-linejoin="round" stroke-miterlimit="10" x1="-17.334" y1="13" x2="17.334" y2="13"/>
	
		<line fill="none" stroke="#231F20" stroke-width="2" stroke-linecap="round" stroke-linejoin="round" stroke-miterlimit="10" x1="4.643" y1="-13" x2="6.19" y2="8.666"/>
	
		<line fill="none" stroke="#231F20" stroke-width="2" stroke-linecap="round" stroke-linejoin="round" stroke-miterlimit="10" x1="0" y1="-13" x2="0" y2="8.666"/>
	
		<line fill="none" stroke="#231F20" stroke-width="2" stroke-linecap="round" stroke-linejoin="round" stroke-miterlimit="10" x1="-4.643" y1="-13" x2="-6.166" y2="8.666"/>
	<path fill="none" stroke="#231F20" stroke-width="2" stroke-linecap="round" stroke-linejoin="round" stroke-miterlimit="10" d="
		M4.334,13v2.166c0,1.197-0.971,2.168-2.167,2.168h-4.334c-1.197,0-2.167-0.971-2.167-2.168V13"/>
</symbol>
<g id="Background">
</g>
<g id="Layer_1">
</g>
<g id="Model">
	<g id="Woman">
	</g>
	<g id="Threshold">
	</g>
	<g id="Man_with_Tie">
	</g>
	<g id="Building_5">
	</g>
</g>
<g id="Icons">
	<g id="Random_Forest">
	</g>
	
		<use xlink:href="#Box"  width="48" height="48" x="-24" y="-24" transform="matrix(1.875 0 0 -1.875 235 375)" overflow="visible"/>
	
		<use xlink:href="#Map"  width="48" height="48" id="XMLID_409_" x="-24" y="-24" transform="matrix(1.875 0 0 -1.875 1075 375)" overflow="visible"/>
	
		<use xlink:href="#Trash_Can"  width="48" height="48" id="XMLID_408_" x="-24" y="-24" transform="matrix(1.875 0 0 -1.875 795 375)" overflow="visible"/>
	
		<use xlink:href="#Clip"  width="48" height="48" id="XMLID_407_" x="-24" y="-24" transform="matrix(1.875 0 0 -1.875 935 375)" overflow="visible"/>
	
		<use xlink:href="#File_Cabinet"  width="48" height="48" id="XMLID_406_" x="-24" y="-24" transform="matrix(1.875 0 0 -1.875 375 375)" overflow="visible"/>
	
		<use xlink:href="#Bankers_Box"  width="48" height="48" id="XMLID_405_" x="-24" y="-24" transform="matrix(1.875 0 0 -1.875 515 375)" overflow="visible"/>
	
		<use xlink:href="#Folder"  width="48" height="48" id="XMLID_404_" x="-24" y="-24" transform="matrix(1.875 0 0 -1.875 655 375)" overflow="visible"/>
	
		<use xlink:href="#Isometric_Box_1_"  width="48" height="48" id="XMLID_384_" x="-24" y="-24" transform="matrix(1.875 0 0 -1.875 95 375)" overflow="visible"/>
	
		<use xlink:href="#Long_Letter"  width="48" height="48" id="XMLID_378_" x="-24" y="-24" transform="matrix(1.875 0 0 -1.875 1075 235)" overflow="visible"/>
	
		<use xlink:href="#Pencil"  width="48" height="48" id="XMLID_331_" x="-24" y="-24" transform="matrix(1.875 0 0 -1.875 935 235)" overflow="visible"/>
	
		<use xlink:href="#Paper__x26__Pencil"  width="48" height="48" id="XMLID_312_" x="-24" y="-24" transform="matrix(1.875 0 0 -1.875 515 235)" overflow="visible"/>
	
		<use xlink:href="#Paper__x26__Pencil_2"  width="48" height="48" id="XMLID_311_" x="-24" y="-24" transform="matrix(1.875 0 0 -1.875 655 235)" overflow="visible"/>
	
		<use xlink:href="#Paper__x26__Pencil_3"  width="48" height="48" id="XMLID_310_" x="-24" y="-24" transform="matrix(1.875 0 0 -1.875 795 235)" overflow="visible"/>
	
		<use xlink:href="#Scroll"  width="48" height="48" id="XMLID_309_" x="-24" y="-24" transform="matrix(1.875 0 0 -1.875 95 235)" overflow="visible"/>
	
		<use xlink:href="#Scroll__x28_Filled_x29_"  width="48" height="48" id="XMLID_297_" x="-24" y="-24" transform="matrix(1.875 0 0 -1.875 235 235)" overflow="visible"/>
	
		<use xlink:href="#Clipboard"  width="48" height="48" id="XMLID_296_" x="-24" y="-24" transform="matrix(1.875 0 0 -1.875 375 235)" overflow="visible"/>
	
		<use xlink:href="#List"  width="48" height="48" id="XMLID_295_" x="-24" y="-24" transform="matrix(1.875 0 0 -1.875 375 515)" overflow="visible"/>
	
		<use xlink:href="#Spread_1_"  width="48" height="48" id="XMLID_144_" x="-24" y="-24" transform="matrix(1.875 0 0 -1.875 515 515)" overflow="visible"/>
	
		<use xlink:href="#Paper_Sheet"  width="48" height="48" id="XMLID_143_" x="-24" y="-24" transform="matrix(1.875 0 0 -1.875 95 515)" overflow="visible"/>
	
		<use xlink:href="#Note"  width="48" height="48" id="XMLID_142_" x="-24" y="-24" transform="matrix(1.875 0 0 -1.875 235 515)" overflow="visible"/>
	
		<use xlink:href="#Confirmation_Letter"  width="48" height="48" id="XMLID_138_" x="-24" y="-24" transform="matrix(1.875 0 0 -1.875 375 95)" overflow="visible"/>
	
		<use xlink:href="#Paper_Stack"  width="48" height="48" id="XMLID_137_" x="-24" y="-24" transform="matrix(1.875 0 0 -1.875 795 95)" overflow="visible"/>
	
		<use xlink:href="#Paper"  width="48" height="48" id="XMLID_136_" x="-24" y="-24" transform="matrix(1.875 0 0 -1.875 95 95)" overflow="visible"/>
	
		<use xlink:href="#Letter"  width="48" height="48" id="XMLID_135_" x="-24" y="-24" transform="matrix(1.875 0 0 -1.875 515 95)" overflow="visible"/>
	
		<use xlink:href="#Points_Report"  width="48" height="48" x="-24" y="-24" transform="matrix(1.875 0 0 -1.875 235 95)" overflow="visible"/>
	
		<use xlink:href="#Letters"  width="48" height="48" id="XMLID_121_" x="-24" y="-24" transform="matrix(1.875 0 0 -1.875 935 95)" overflow="visible"/>
	
		<use xlink:href="#Long_Paper_3_"  width="48" height="48" id="XMLID_120_" x="-24" y="-24" transform="matrix(1.875 0 0 -1.875 1075 95)" overflow="visible"/>
	
		<use xlink:href="#No_Information"  width="48" height="48" x="-24" y="-24" transform="matrix(1.875 0 0 -1.875 655 95)" overflow="visible"/>
	
		<use xlink:href="#Difference_3"  width="48" height="48" x="-24" y="-24" transform="matrix(1.875 0 0 -1.875 655 515)" overflow="visible"/>
	<g id="Database">
	</g>
	<g id="Random_Forest_1_">
	</g>
	<g id="University">
	</g>
	<g id="Group">
	</g>
	<g id="Group_1_">
	</g>
	<g id="Scatterplott">
	</g>
	<g id="Long_Paper_2_">
	</g>
	<g id="Spread">
	</g>
	<g id="Isometric_Box">
	</g>
	<g id="Magnifying_Glass">
	</g>
	<g id="Code_2">
	</g>
</g>
<g id="Figures">
	<g id="Models">
	</g>
	<g id="Justice">
	</g>
	<g id="Sensor">
	</g>
	<g id="Widget">
	</g>
	<g id="Drop_1_">
	</g>
	<g id="Algorithm_1_">
	</g>
	<g id="On-body_sensor_1_">
	</g>
	<g id="Insulin_Pump_1_">
	</g>
	<g id="Drop">
	</g>
	<g id="Algorithm">
	</g>
	<g id="On-body_sensor">
	</g>
	<g id="Insulin_Pump">
	</g>
</g>
<g id="Meta__x2B__Title">
</g>
<g id="Isolation_Mode">
</g>
<g id="Long_Paper">
	<g id="Long_Paper_1_">
	</g>
	<g id="IV">
	</g>
	<g id="Air_Purifier">
	</g>
	<g id="Alarm">
	</g>
	<g id="Chat">
	</g>
	<g id="Presentation">
	</g>
	<g id="Dog_2">
	</g>
	<g id="Delivery">
	</g>
	<g id="Meat_2">
	</g>
</g>
</svg>
