<?xml version="1.0" encoding="utf-8"?>
<!-- Generator: Adobe Illustrator 16.0.0, SVG Export Plug-In . SVG Version: 6.00 Build 0)  -->
<!DOCTYPE svg PUBLIC "-//W3C//DTD SVG 1.1//EN" "http://www.w3.org/Graphics/SVG/1.1/DTD/svg11.dtd">
<svg version="1.1" xmlns="http://www.w3.org/2000/svg" xmlns:xlink="http://www.w3.org/1999/xlink" x="0px" y="0px" width="1170px"
	 height="610px" viewBox="0 0 1170 610" enable-background="new 0 0 1170 610" xml:space="preserve">
<symbol  id="Antibody" viewBox="-24 -24 48 48">
	<polygon fill="none" points="24,-24 -24,-24 -24,24 24,24 	"/>
	
		<line fill="none" stroke="#231F20" stroke-width="2" stroke-linecap="round" stroke-linejoin="round" stroke-miterlimit="10" x1="17.334" y1="11.545" x2="8.327" y2="2.537"/>
	<g>
		<path fill="none" stroke="#231F20" stroke-width="2" stroke-linecap="round" stroke-linejoin="round" stroke-miterlimit="10" d="
			M14.27,14.609L5.231,5.571C3.546,3.886,2.167,0.557,2.167-1.827v-12.782"/>
	</g>
	
		<line fill="none" stroke="#231F20" stroke-width="2" stroke-linecap="round" stroke-linejoin="round" stroke-miterlimit="10" x1="-17.334" y1="11.545" x2="-8.327" y2="2.537"/>
	<g>
		<path fill="none" stroke="#231F20" stroke-width="2" stroke-linecap="round" stroke-linejoin="round" stroke-miterlimit="10" d="
			M-14.27,14.609l9.038-9.038c1.686-1.686,3.064-5.015,3.064-7.398v-12.782"/>
	</g>
</symbol>
<symbol  id="Autoinjector" viewBox="-24 -24 48 48">
	<polygon fill="none" points="24,-24 -24,-24 -24,24 24,24 	"/>
	
		<polyline fill="none" stroke="#231F20" stroke-width="2" stroke-linecap="round" stroke-linejoin="round" stroke-miterlimit="10" points="
		2.167,12.979 2.167,17.335 -2.167,17.335 -2.167,12.979 	"/>
	<path fill="none" stroke="#231F20" stroke-width="2" stroke-linecap="round" stroke-linejoin="round" stroke-miterlimit="10" d="
		M2.167-13c0,1.084,1.084,1.084,1.084,2.167V13h-6.502v-23.833c0-1.083,1.084-1.083,1.084-2.167H2.167z"/>
	
		<path fill="#231F20" fill-opacity="0.5" stroke="#231F20" stroke-width="2" stroke-linecap="round" stroke-linejoin="round" stroke-miterlimit="10" d="
		M-3.251-17.335c0,1.081,1.084,2.166,1.084,4.334h4.334c0-2.168,1.084-3.253,1.084-4.334H-3.251z"/>
	
		<line opacity="0.5" fill="none" stroke="#231F20" stroke-width="2" stroke-linecap="round" stroke-linejoin="round" stroke-miterlimit="10" x1="0" y1="-8.666" x2="0" y2="0"/>
</symbol>
<symbol  id="Autoinjector_2" viewBox="-24 -24 48 48">
	<polygon fill="none" points="24,-24 -24,-24 -24,24 24,24 	"/>
	
		<polyline fill="none" stroke="#231F20" stroke-width="2" stroke-linecap="round" stroke-linejoin="round" stroke-miterlimit="10" points="
		13.567,9.818 17.334,13.586 13.586,17.334 9.819,13.566 	"/>
	<path fill="none" stroke="#231F20" stroke-width="2" stroke-linecap="round" stroke-linejoin="round" stroke-miterlimit="10" d="
		M-8.899-12.646c0.938,0.938,1.875,0,2.812,0.936L14.522,8.9l-5.623,5.623l-20.61-20.611c-0.937-0.938,0.001-1.875-0.937-2.812
		L-8.899-12.646z"/>
	
		<path fill="#231F20" fill-opacity="0.5" stroke="#231F20" stroke-width="2" stroke-linecap="round" stroke-linejoin="round" stroke-miterlimit="10" d="
		M-17.334-11.711c0.935,0.936,2.811,0.936,4.686,2.811l3.748-3.748c-1.875-1.875-1.875-3.75-2.811-4.686L-17.334-11.711z"/>
	
		<line opacity="0.5" fill="none" stroke="#231F20" stroke-width="2" stroke-linecap="round" stroke-linejoin="round" stroke-miterlimit="10" x1="-7.026" y1="-7.025" x2="0.469" y2="0.469"/>
</symbol>
<symbol  id="Autoinjectors" viewBox="-24 -24 48 48">
	<polygon fill="none" points="24,-24 -24,-24 -24,24 24,24 	"/>
	<g>
		
			<polyline fill="none" stroke="#231F20" stroke-width="2" stroke-linecap="round" stroke-linejoin="round" stroke-miterlimit="10" points="
			2.167,12.979 2.167,17.335 -2.167,17.335 -2.167,12.979 		"/>
		<path fill="none" stroke="#231F20" stroke-width="2" stroke-linecap="round" stroke-linejoin="round" stroke-miterlimit="10" d="
			M2.167-13c0,1.084,1.084,1.084,1.084,2.167V13H-3.25v-23.833c0-1.083,1.084-1.083,1.084-2.167H2.167z"/>
		
			<path fill="#231F20" fill-opacity="0.5" stroke="#231F20" stroke-width="2" stroke-linecap="round" stroke-linejoin="round" stroke-miterlimit="10" d="
			M-3.25-17.335c0,1.081,1.084,2.166,1.084,4.334h4.334c0-2.168,1.084-3.253,1.084-4.334H-3.25z"/>
		
			<line opacity="0.5" fill="none" stroke="#231F20" stroke-width="2" stroke-linecap="round" stroke-linejoin="round" stroke-miterlimit="10" x1="0" y1="-8.666" x2="0" y2="0"/>
	</g>
	<g>
		
			<polyline fill="none" stroke="#231F20" stroke-width="2" stroke-linecap="round" stroke-linejoin="round" stroke-miterlimit="10" points="
			16.251,12.979 16.251,17.335 11.917,17.335 11.917,12.979 		"/>
		<path fill="none" stroke="#231F20" stroke-width="2" stroke-linecap="round" stroke-linejoin="round" stroke-miterlimit="10" d="
			M16.251-13c0,1.084,1.084,1.084,1.084,2.167V13h-6.502v-23.833c0-1.083,1.084-1.083,1.084-2.167H16.251z"/>
		
			<path fill="#231F20" fill-opacity="0.5" stroke="#231F20" stroke-width="2" stroke-linecap="round" stroke-linejoin="round" stroke-miterlimit="10" d="
			M10.833-17.335c0,1.081,1.084,2.166,1.084,4.334h4.334c0-2.168,1.084-3.253,1.084-4.334H10.833z"/>
		
			<line opacity="0.5" fill="none" stroke="#231F20" stroke-width="2" stroke-linecap="round" stroke-linejoin="round" stroke-miterlimit="10" x1="14.084" y1="-8.666" x2="14.084" y2="0"/>
	</g>
	<g>
		
			<polyline fill="none" stroke="#231F20" stroke-width="2" stroke-linecap="round" stroke-linejoin="round" stroke-miterlimit="10" points="
			-11.916,12.979 -11.916,17.335 -16.25,17.335 -16.25,12.979 		"/>
		<path fill="none" stroke="#231F20" stroke-width="2" stroke-linecap="round" stroke-linejoin="round" stroke-miterlimit="10" d="
			M-11.916-13c0,1.084,1.084,1.084,1.084,2.167V13h-6.502v-23.833c0-1.083,1.084-1.083,1.084-2.167H-11.916z"/>
		
			<path fill="#231F20" fill-opacity="0.5" stroke="#231F20" stroke-width="2" stroke-linecap="round" stroke-linejoin="round" stroke-miterlimit="10" d="
			M-17.334-17.335c0,1.081,1.084,2.166,1.084,4.334h4.334c0-2.168,1.084-3.253,1.084-4.334H-17.334z"/>
		
			<line opacity="0.5" fill="none" stroke="#231F20" stroke-width="2" stroke-linecap="round" stroke-linejoin="round" stroke-miterlimit="10" x1="-14.083" y1="-8.666" x2="-14.083" y2="0"/>
	</g>
</symbol>
<symbol  id="Band_Aid" viewBox="-24 -24 48 48">
	<polygon fill="none" points="24,-24 -24,-24 -24,24 24,24 	"/>
	<polygon opacity="0.4" fill="#231F20" points="6.5,6.5 -6.5,6.5 -6.5,-6.5 6.5,-6.5 	"/>
	<path fill="none" stroke="#231F20" stroke-width="2" stroke-miterlimit="10" d="M10.833,6.5h-21.667c-3.59,0-6.5-2.91-6.5-6.5
		s2.91-6.5,6.5-6.5h21.667c3.59,0,6.5,2.91,6.5,6.5S14.423,6.5,10.833,6.5z"/>
	<polygon fill="none" stroke="#231F20" stroke-width="2" stroke-miterlimit="10" points="6.5,6.5 -6.5,6.5 -6.5,-6.5 6.5,-6.5 	"/>
	<path fill="#231F20" d="M1,0c0,0.552-0.448,1-1,1s-1-0.448-1-1s0.448-1,1-1S1-0.552,1,0z"/>
	<path fill="#231F20" d="M-2.25,0c0,0.552-0.448,1-1,1s-1-0.448-1-1s0.448-1,1-1S-2.25-0.552-2.25,0z"/>
	<path fill="#231F20" d="M4.25,0c0,0.552-0.448,1-1,1s-1-0.448-1-1s0.448-1,1-1S4.25-0.552,4.25,0z"/>
	<path fill="#231F20" d="M0-2.25c-0.552,0-1-0.448-1-1s0.448-1,1-1s1,0.448,1,1S0.552-2.25,0-2.25z"/>
	<path fill="#231F20" d="M0,4.25c-0.552,0-1-0.448-1-1s0.448-1,1-1s1,0.448,1,1S0.552,4.25,0,4.25z"/>
	<path fill="#231F20" d="M3.25-2.25c-0.552,0-1-0.448-1-1s0.448-1,1-1s1,0.448,1,1S3.802-2.25,3.25-2.25z"/>
	<path fill="#231F20" d="M3.25,4.25c-0.552,0-1-0.448-1-1s0.448-1,1-1s1,0.448,1,1S3.802,4.25,3.25,4.25z"/>
	<path fill="#231F20" d="M-3.25-2.25c-0.552,0-1-0.448-1-1s0.448-1,1-1s1,0.448,1,1S-2.698-2.25-3.25-2.25z"/>
	<path fill="#231F20" d="M-3.25,4.25c-0.552,0-1-0.448-1-1s0.448-1,1-1s1,0.448,1,1S-2.698,4.25-3.25,4.25z"/>
</symbol>
<symbol  id="Band_Aid_2" viewBox="-24 -24 48 48">
	<polygon fill="none" points="24,-24 -24,-24 -24,24 24,24 	"/>
	<g>
		<polygon opacity="0.4" fill="#231F20" points="0,-11.252 11.252,0 0,11.252 -11.252,0 		"/>
		<path fill="none" stroke="#231F20" stroke-width="2" stroke-miterlimit="10" d="M-3.751-15.004L15.004,3.751
			c3.106,3.106,3.106,8.146,0,11.253c-3.107,3.106-8.146,3.106-11.253,0L-15.004-3.751c-3.106-3.106-3.106-8.146,0-11.253
			C-11.896-18.11-6.857-18.11-3.751-15.004z"/>
		<path fill="#231F20" d="M-0.707-0.707c0.391-0.391,1.023-0.391,1.414,0s0.391,1.023,0,1.414s-1.023,0.391-1.414,0
			S-1.098-0.316-0.707-0.707z"/>
		<path fill="#231F20" d="M2.105,2.105c0.391-0.391,1.024-0.39,1.415,0c0.39,0.391,0.39,1.024,0,1.415
			c-0.391,0.39-1.024,0.39-1.415,0C1.716,3.13,1.715,2.496,2.105,2.105z"/>
		<path fill="#231F20" d="M-3.521-3.521c0.391-0.39,1.024-0.39,1.415,0c0.39,0.391,0.391,1.024,0,1.415s-1.024,0.39-1.415,0
			C-3.91-2.496-3.91-3.13-3.521-3.521z"/>
		<path fill="#231F20" d="M-2.105,2.105c0.391,0.391,0.39,1.024,0,1.415c-0.391,0.39-1.024,0.39-1.415,0
			c-0.39-0.391-0.39-1.024,0-1.415C-3.13,1.716-2.496,1.715-2.105,2.105z"/>
		<path fill="#231F20" d="M3.521-3.521c0.39,0.391,0.39,1.024,0,1.415c-0.391,0.39-1.024,0.391-1.415,0s-0.39-1.024,0-1.415
			C2.496-3.91,3.13-3.91,3.521-3.521z"/>
		<path fill="#231F20" d="M-4.92-0.707c0.391,0.391,0.391,1.023,0,1.414s-1.022,0.391-1.413,0s-0.391-1.023,0-1.414
			S-5.311-1.098-4.92-0.707z"/>
		<path fill="#231F20" d="M0.707-6.334c0.391,0.392,0.391,1.023,0,1.414s-1.023,0.391-1.414,0s-0.391-1.022,0-1.414
			C-0.316-6.724,0.316-6.724,0.707-6.334z"/>
		<path fill="#231F20" d="M0.707,4.92c0.391,0.391,0.391,1.022,0,1.413s-1.023,0.391-1.414,0s-0.391-1.022,0-1.413
			S0.316,4.529,0.707,4.92z"/>
		<path fill="#231F20" d="M6.333-0.707c0.391,0.391,0.391,1.023,0,1.414s-1.022,0.391-1.413,0s-0.391-1.023,0-1.414
			S5.942-1.098,6.333-0.707z"/>
		<line fill="none" stroke="#231F20" stroke-width="2" stroke-miterlimit="10" x1="0" y1="-11.252" x2="-11.252" y2="0"/>
		<line fill="none" stroke="#231F20" stroke-width="2" stroke-miterlimit="10" x1="0" y1="11.252" x2="11.252" y2="0"/>
	</g>
	<path fill="none" stroke="#231F20" stroke-width="2" stroke-linecap="round" stroke-linejoin="round" stroke-miterlimit="10" d="
		M-2.828,14.081l-0.923,0.923c-3.106,3.106-8.146,3.106-11.253,0c-3.106-3.107-3.106-8.146,0-11.253l0.923-0.923"/>
	<path fill="none" stroke="#231F20" stroke-width="2" stroke-linecap="round" stroke-linejoin="round" stroke-miterlimit="10" d="
		M2.828-14.081l0.923-0.923c3.106-3.106,8.146-3.106,11.253,0c3.106,3.107,3.106,8.146,0,11.253l-0.923,0.923"/>
	<path fill="none" d="M24,24h-48v-48h48V24z"/>
</symbol>
<symbol  id="Band_Aid_3" viewBox="-24 -24 48 48">
	<polygon fill="none" points="24,-24 -24,-24 -24,24 24,24 	"/>
	<polygon opacity="0.4" fill="#231F20" points="0,11.252 -11.252,0 0,-11.252 11.252,0 	"/>
	<path fill="none" stroke="#231F20" stroke-width="2" stroke-miterlimit="10" d="M3.751,15.003L-15.003-3.751
		c-3.107-3.107-3.107-8.145,0-11.252c3.107-3.107,8.146-3.107,11.252,0L15.003,3.751c3.107,3.107,3.107,8.145,0,11.252
		C11.896,18.11,6.858,18.11,3.751,15.003z"/>
	<polygon fill="none" stroke="#231F20" stroke-width="2" stroke-miterlimit="10" points="0,11.252 -11.252,0 0,-11.252 11.252,0 	
		"/>
	<path fill="#231F20" d="M0.707,0.707c-0.391,0.391-1.023,0.391-1.414,0s-0.391-1.023,0-1.414s1.023-0.391,1.414,0
		S1.098,0.316,0.707,0.707z"/>
	<path fill="#231F20" d="M-2.105-2.105c-0.391,0.39-1.024,0.39-1.415,0c-0.39-0.391-0.39-1.024,0-1.415
		c0.391-0.39,1.024-0.39,1.415,0C-1.715-3.13-1.715-2.496-2.105-2.105z"/>
	<path fill="#231F20" d="M3.521,3.521c-0.391,0.39-1.024,0.39-1.415,0c-0.39-0.391-0.39-1.024,0-1.415
		c0.391-0.39,1.024-0.39,1.415,0C3.911,2.496,3.911,3.13,3.521,3.521z"/>
	<path fill="#231F20" d="M2.105-2.105c-0.39-0.391-0.39-1.024,0-1.415c0.391-0.39,1.024-0.39,1.415,0c0.39,0.391,0.39,1.024,0,1.415
		C3.13-1.715,2.496-1.715,2.105-2.105z"/>
	<path fill="#231F20" d="M-3.521,3.521c-0.39-0.391-0.39-1.024,0-1.415c0.391-0.39,1.024-0.39,1.415,0
		c0.39,0.391,0.39,1.024,0,1.415C-2.496,3.911-3.13,3.911-3.521,3.521z"/>
	<path fill="#231F20" d="M4.919,0.707c-0.391-0.391-0.391-1.023,0-1.414c0.39-0.391,1.023-0.391,1.414,0
		c0.391,0.39,0.391,1.023,0,1.414C5.943,1.098,5.31,1.098,4.919,0.707z"/>
	<path fill="#231F20" d="M-0.707,6.333c-0.391-0.39-0.391-1.023,0-1.414c0.391-0.391,1.023-0.391,1.414,0
		c0.391,0.39,0.391,1.023,0,1.414C0.316,6.724-0.316,6.724-0.707,6.333z"/>
	<path fill="#231F20" d="M-0.707-4.919c-0.391-0.39-0.391-1.023,0-1.414c0.391-0.39,1.023-0.39,1.414,0
		c0.391,0.391,0.391,1.024,0,1.414C0.316-4.529-0.316-4.529-0.707-4.919z"/>
	<path fill="#231F20" d="M-6.333,0.707c-0.391-0.391-0.391-1.023,0-1.414c0.391-0.391,1.023-0.391,1.414,0
		c0.391,0.39,0.391,1.023,0,1.414C-5.31,1.098-5.942,1.098-6.333,0.707z"/>
</symbol>
<symbol  id="CGM" viewBox="-24 -24 48 48">
	<polygon fill="none" points="24,-24 -24,-24 -24,24 24,24 	"/>
	<path fill="none" stroke="#231F20" stroke-width="2" stroke-linecap="round" stroke-linejoin="round" stroke-miterlimit="10" d="
		M11.466-13c3.599,3.177,5.868,7.823,5.868,13c0,9.573-7.761,17.334-17.334,17.334S-17.334,9.573-17.334,0S-9.573-17.334,0-17.334
		c2.044,0,4.005,0.354,5.825,1.003"/>
	<path fill="none" stroke="#231F20" stroke-width="2" stroke-linecap="round" stroke-linejoin="round" stroke-miterlimit="10" d="
		M6.5,0c0,3.59-2.91,6.5-6.5,6.5S-6.5,3.59-6.5,0S-3.59-6.5,0-6.5S6.5-3.59,6.5,0z"/>
	<g>
		<path fill="none" stroke="#231F20" stroke-width="2" stroke-linecap="round" stroke-linejoin="round" stroke-miterlimit="10" d="
			M2.341-6.065C3.146-10.016,6.647-13,10.833-13h4.333c1.197,0,2.167-0.97,2.167-2.167s-0.97-2.167-2.167-2.167h-4.333
			c-6.543,0-11.973,4.86-12.871,11.159"/>
	</g>
</symbol>
<symbol  id="DNA" viewBox="-24 -24 48 48">
	<polygon fill="none" points="24,-24 -24,-24 -24,24 24,24 	"/>
	<path fill="none" stroke="#231F20" stroke-width="2" stroke-linecap="round" stroke-linejoin="round" stroke-miterlimit="10" d="
		M13,17.344C13,7.76,0-0.01,0-0.01s-13-7.76-13-17.344"/>
	<g>
		<defs>
			<path id="SVGID_13_" d="M-24,24v-48h48v48H-24z M1.539-2.586c-1.681-1.008-4.76-3.253-7.317-6.08h-7.506
				C-9.215-2.084-1.961,2.313-1.537,2.566c1.682,1.01,4.769,3.264,7.328,6.1h7.502C9.225,2.074,1.963-2.332,1.539-2.586z"/>
		</defs>
		<clipPath id="SVGID_2_">
			<use xlink:href="#SVGID_13_"  overflow="visible"/>
		</clipPath>
		
			<path clip-path="url(#SVGID_2_)" fill="none" stroke="#231F20" stroke-width="2" stroke-linecap="round" stroke-linejoin="round" stroke-miterlimit="10" d="
			M-13,17.344C-13,7.76,0-0.01,0-0.01s13-7.76,13-17.344"/>
	</g>
	
		<line opacity="0.4" fill="none" stroke="#231F20" stroke-width="2" stroke-linecap="round" stroke-linejoin="round" stroke-miterlimit="10" x1="-6.5" y1="-17.334" x2="6.5" y2="-17.334"/>
	
		<line opacity="0.4" fill="none" stroke="#231F20" stroke-width="2" stroke-linecap="round" stroke-linejoin="round" stroke-miterlimit="10" x1="-4.334" y1="-13" x2="4.334" y2="-13"/>
	
		<line opacity="0.4" fill="none" stroke="#231F20" stroke-width="2" stroke-linecap="round" stroke-linejoin="round" stroke-miterlimit="10" x1="-2.167" y1="-8.666" x2="2.167" y2="-8.666"/>
	
		<line opacity="0.4" fill="none" stroke="#231F20" stroke-width="2" stroke-linecap="round" stroke-linejoin="round" stroke-miterlimit="10" x1="6.5" y1="17.334" x2="-6.5" y2="17.334"/>
	
		<line opacity="0.4" fill="none" stroke="#231F20" stroke-width="2" stroke-linecap="round" stroke-linejoin="round" stroke-miterlimit="10" x1="4.334" y1="13" x2="-4.334" y2="13"/>
	
		<line opacity="0.4" fill="none" stroke="#231F20" stroke-width="2" stroke-linecap="round" stroke-linejoin="round" stroke-miterlimit="10" x1="2.167" y1="8.666" x2="-2.167" y2="8.666"/>
</symbol>
<symbol  id="Drop_2_" viewBox="-24 -24 48 48">
	<polygon fill="none" points="24,-24 -24,-24 -24,24 24,24 	"/>
	<g>
		<path fill="none" stroke="#231F20" stroke-width="2" stroke-linecap="round" stroke-linejoin="round" stroke-miterlimit="10" d="
			M-10.154-13.128c5.608-5.608,14.7-5.607,20.309,0c5.607,5.608,5.607,14.7,0,20.309L0,17.334L-10.154,7.181
			C-15.762,1.572-15.761-7.52-10.154-13.128z"/>
		
			<path opacity="0.5" fill="none" stroke="#231F20" stroke-width="2" stroke-linecap="round" stroke-linejoin="round" stroke-miterlimit="10" d="
			M6.655-9.628c3.675,3.675,3.675,9.634,0,13.31"/>
	</g>
</symbol>
<symbol  id="Drugs" viewBox="-24 -24 48 48">
	<polygon fill="none" points="24,-24 -24,-24 -24,24 24,24 	"/>
	<path opacity="0.4" fill="#231F20" d="M-2.936-15.113c-3.457,2.337-5.73,6.293-5.73,10.779c0,1.52,0.262,2.979,0.74,4.334h-9.407
		v-8.666c0-4.787,3.88-8.668,8.667-8.668c2.213,0,4.234,0.831,5.767,2.197L-2.936-15.113z"/>
	<path fill="none" stroke="#231F20" stroke-width="2" stroke-miterlimit="10" d="M0,7.926v0.74c0,4.787-3.881,8.667-8.667,8.667
		s-8.667-3.88-8.667-8.667V-8.666c0-4.787,3.881-8.668,8.667-8.668c2.214,0,4.235,0.831,5.767,2.197"/>
	<line fill="none" stroke="#231F20" stroke-width="2" stroke-miterlimit="10" x1="-7.927" y1="0" x2="-17.334" y2="0"/>
	<line fill="none" stroke="#231F20" stroke-width="2" stroke-miterlimit="10" x1="17.332" y1="-4.334" x2="-8.666" y2="-4.334"/>
	<path fill="none" stroke="#231F20" stroke-width="2" stroke-miterlimit="10" d="M17.334-4.334c0,7.18-5.82,13-13,13s-13-5.82-13-13
		s5.82-13,13-13S17.334-11.514,17.334-4.334z"/>
</symbol>
<symbol  id="Drugs_2" viewBox="-24 -24 48 48">
	<polygon fill="none" points="24,-24 -24,-24 -24,24 24,24 	"/>
	<polygon opacity="0.4" fill="#231F20" points="10.833,-10.833 -4.333,-10.833 -4.333,2.167 10.833,2.167 	"/>
	<polygon opacity="0.4" fill="#231F20" points="-6.5,17.333 6.5,17.333 6.5,13 -6.5,13 	"/>
	<path fill="none" stroke="#231F20" stroke-width="2" stroke-miterlimit="10" d="M8.667,8.667c1.196,0,2.167-0.97,2.167-2.167
		v-21.667c0-1.196-0.97-2.167-2.167-2.167H-8.667c-1.196,0-2.167,0.97-2.167,2.167V6.5c0,1.196,0.97,2.167,2.167,2.167H-6.5
		c1.196,0,2.167,0.97,2.167,2.167V13h8.667v-2.167c0-1.196,0.97-2.167,2.167-2.167H8.667z"/>
	<polygon fill="none" stroke="#231F20" stroke-width="2" stroke-miterlimit="10" points="-6.5,17.333 6.5,17.333 6.5,13 -6.5,13 	
		"/>
	<line fill="none" stroke="#231F20" stroke-width="2" stroke-miterlimit="10" x1="-2.167" y1="13" x2="-2.167" y2="17.375"/>
	<line fill="none" stroke="#231F20" stroke-width="2" stroke-miterlimit="10" x1="2.167" y1="13" x2="2.167" y2="17.375"/>
	<polygon fill="none" stroke="#231F20" stroke-width="2" stroke-miterlimit="10" points="10.833,-10.833 -4.333,-10.833 
		-4.333,2.167 10.833,2.167 	"/>
</symbol>
<symbol  id="First_Aid_Kit" viewBox="-24 -24 48 48">
	<polygon fill="none" points="24,-24 -24,-24 -24,24 24,24 	"/>
	<polygon opacity="0.4" fill="#231F20" points="6.5,-0.31 2.166,-0.31 2.166,4.024 -2.168,4.024 -2.168,-0.31 -6.5,-0.31 
		-6.5,-4.643 -2.168,-4.643 -2.168,-8.976 2.166,-8.976 2.166,-4.643 6.5,-4.643 	"/>
	<polygon fill="none" stroke="#231F20" stroke-width="2" stroke-miterlimit="10" points="6.5,-0.31 2.166,-0.31 2.166,4.024 
		-2.168,4.024 -2.168,-0.31 -6.5,-0.31 -6.5,-4.643 -2.168,-4.643 -2.168,-8.976 2.166,-8.976 2.166,-4.643 6.5,-4.643 	"/>
	<path fill="none" stroke="#231F20" stroke-width="2" stroke-miterlimit="10" d="M-7.428,9.905v2.476
		c0,1.368,1.109,2.477,2.477,2.477h9.904c1.368,0,2.477-1.109,2.477-2.477V9.905"/>
	<path fill="none" stroke="#231F20" stroke-width="2" stroke-miterlimit="10" d="M14.856,9.905c1.368,0,2.477-1.109,2.477-2.477
		l0.001-19.809c0-1.368-1.109-2.477-2.477-2.477h-29.714c-1.368,0-2.477,1.109-2.477,2.477l-0.001,19.809
		c0,1.368,1.109,2.477,2.477,2.477H14.856z"/>
</symbol>
<symbol  id="IV_1_" viewBox="-24 -24 48 48">
	<polygon fill="none" points="24,-24 -24,-24 -24,24 24,24 	"/>
	<path opacity="0.4" fill="#231F20" d="M-17.333,4.334v-13C-17.333-11.06-15.393-13-13-13H0c2.394,0,4.334,1.94,4.334,4.334v13
		H-17.333z"/>
	<path fill="none" stroke="#231F20" stroke-width="2" stroke-miterlimit="10" d="M0,13h-13c-2.394,0-4.334-1.939-4.334-4.334V-8.666
		C-17.334-11.06-15.394-13-13-13H0c2.393,0,4.333,1.94,4.333,4.334V8.666C4.333,11.061,2.393,13,0,13z"/>
	<path fill="none" stroke="#231F20" stroke-width="2" stroke-miterlimit="10" d="M-8.667,13v2.167c0,1.196,0.97,2.167,2.167,2.167
		c1.196,0,2.166-0.971,2.166-2.167V13"/>
	<path fill="none" stroke="#231F20" stroke-width="2" stroke-linecap="round" stroke-miterlimit="10" d="M17.334,4.334
		C14.94,4.334,13,2.393,13,0v-13c0-2.393-1.94-4.333-4.334-4.333l-10.833-0.001c-2.394,0-4.333,1.94-4.333,4.334"/>
	<line fill="none" stroke="#231F20" stroke-width="2" stroke-miterlimit="10" x1="-17.334" y1="4.334" x2="4.334" y2="4.334"/>
	
		<line fill="none" stroke="#231F20" stroke-width="2" stroke-linecap="round" stroke-miterlimit="10" x1="0" y1="-4.334" x2="-4.334" y2="-4.334"/>
	
		<line fill="none" stroke="#231F20" stroke-width="2" stroke-linecap="round" stroke-miterlimit="10" x1="0" y1="0" x2="-4.334" y2="0"/>
	
		<line fill="none" stroke="#231F20" stroke-width="2" stroke-linecap="round" stroke-miterlimit="10" x1="0" y1="-8.666" x2="-4.334" y2="-8.666"/>
	
		<line fill="none" stroke="#231F20" stroke-width="2" stroke-linecap="round" stroke-miterlimit="10" x1="0" y1="8.666" x2="-4.334" y2="8.666"/>
</symbol>
<symbol  id="IV_2" viewBox="-24 -24 48 48">
	<polygon fill="none" points="24,-24 -24,-24 -24,24 24,24 	"/>
	<path opacity="0.4" fill="#231F20" d="M-10.833,4.334v-13C-10.833-11.06-8.893-13-6.5-13h13c2.394,0,4.334,1.94,4.334,4.334v13
		H-10.833z"/>
	<path fill="none" stroke="#231F20" stroke-width="2" stroke-miterlimit="10" d="M6.5,13h-13c-2.394,0-4.334-1.939-4.334-4.334
		V-8.666C-10.834-11.06-8.894-13-6.5-13h13c2.393,0,4.333,1.94,4.333,4.334V8.666C10.833,11.061,8.893,13,6.5,13z"/>
	<path fill="none" stroke="#231F20" stroke-width="2" stroke-miterlimit="10" d="M-2.167,13v2.167c0,1.196,0.97,2.167,2.167,2.167
		c1.196,0,2.166-0.971,2.166-2.167V13"/>
	<path fill="none" stroke="#231F20" stroke-width="2" stroke-linecap="round" stroke-miterlimit="10" d="M4.333-17.334
		C1.939-17.334,0-15.394,0-13"/>
	<line fill="none" stroke="#231F20" stroke-width="2" stroke-miterlimit="10" x1="-10.834" y1="4.334" x2="10.834" y2="4.334"/>
	
		<line fill="none" stroke="#231F20" stroke-width="2" stroke-linecap="round" stroke-miterlimit="10" x1="6.5" y1="-4.334" x2="2.166" y2="-4.334"/>
	
		<line fill="none" stroke="#231F20" stroke-width="2" stroke-linecap="round" stroke-miterlimit="10" x1="6.5" y1="-8.666" x2="2.166" y2="-8.666"/>
	<line fill="none" stroke="#231F20" stroke-width="2" stroke-miterlimit="10" x1="6.5" y1="4.334" x2="2.166" y2="4.334"/>
	
		<line fill="none" stroke="#231F20" stroke-width="2" stroke-linecap="round" stroke-miterlimit="10" x1="6.5" y1="8.666" x2="2.166" y2="8.666"/>
	
		<line fill="none" stroke="#231F20" stroke-width="2" stroke-linecap="round" stroke-miterlimit="10" x1="6.5" y1="0" x2="2.166" y2="0"/>
</symbol>
<symbol  id="Insulin_Pump_2_" viewBox="-24 -24 48 48">
	<polygon fill="none" points="24,-24 -24,-24 -24,24 24,24 	"/>
	<path fill="none" stroke="#231F20" stroke-width="2" stroke-linecap="round" stroke-linejoin="round" stroke-miterlimit="10" d="
		M7.583,13c1.197,0,2.167-0.971,2.167-2.167v-26c0-1.196-0.97-2.167-2.167-2.167H-7.582c-1.196,0-2.167,0.97-2.167,2.167
		c0,0,0,26.209,0,27.167c0,1,1,1,1,2c0,0.5,0,3.334,0,3.334h6.582v-2.167C-2.167,13.97-1.196,13,0,13C3.792,13,3.792,13,7.583,13z"
		/>
	
		<polygon fill="#231F20" fill-opacity="0.5" stroke="#231F20" stroke-width="2" stroke-linecap="round" stroke-linejoin="round" stroke-miterlimit="10" points="
		5.418,0 -5.417,0 -5.417,8.666 5.418,8.666 	"/>
	
		<polygon fill="none" stroke="#231F20" stroke-width="2" stroke-linecap="round" stroke-linejoin="round" stroke-miterlimit="10" points="
		4.333,-8.667 0,-13 -4.333,-8.667 0,-4.334 	"/>
</symbol>
<symbol  id="Medical" viewBox="-24 -24 48 48">
	<polygon fill="none" points="24,-24 -24,-24 -24,24 24,24 	"/>
	<polygon opacity="0.4" fill="#231F20" points="8.667,2.889 2.889,2.889 2.889,8.667 -2.889,8.667 -2.889,2.889 -8.667,2.889 
		-8.667,-2.889 -2.889,-2.889 -2.889,-8.667 2.889,-8.667 2.889,-2.889 8.667,-2.889 	"/>
	<polygon fill="none" stroke="#231F20" stroke-width="2" stroke-miterlimit="10" points="8.667,2.889 2.889,2.889 2.889,8.667 
		-2.889,8.667 -2.889,2.889 -8.667,2.889 -8.667,-2.889 -2.889,-2.889 -2.889,-8.667 2.889,-8.667 2.889,-2.889 8.667,-2.889 	"/>
	<path fill="none" stroke="#231F20" stroke-width="2" stroke-miterlimit="10" d="M17.333,0c0,9.573-7.76,17.333-17.333,17.333
		S-17.333,9.573-17.333,0S-9.573-17.333,0-17.333S17.333-9.573,17.333,0z"/>
</symbol>
<symbol  id="Medical_2" viewBox="-24 -24 48 48">
	<polygon fill="none" points="24,-24 -24,-24 -24,24 24,24 	"/>
	<polygon opacity="0.4" fill="#231F20" points="8.667,2.888 2.889,2.888 2.889,8.666 -2.889,8.666 -2.889,2.888 -8.667,2.888 
		-8.667,-2.889 -2.889,-2.889 -2.889,-8.667 2.889,-8.667 2.889,-2.889 8.667,-2.889 	"/>
	<path fill="none" stroke="#231F20" stroke-width="2" stroke-miterlimit="10" d="M13-17.334c2.393,0,4.333,1.94,4.333,4.333V13
		c0,2.393-1.94,4.333-4.333,4.333h-26c-2.393,0-4.333-1.94-4.333-4.333v-26.001c0-2.393,1.94-4.333,4.333-4.333H13z"/>
	<polygon fill="none" stroke="#231F20" stroke-width="2" stroke-miterlimit="10" points="8.667,2.888 2.889,2.888 2.889,8.666 
		-2.889,8.666 -2.889,2.888 -8.667,2.888 -8.667,-2.889 -2.889,-2.889 -2.889,-8.667 2.889,-8.667 2.889,-2.889 8.667,-2.889 	"/>
</symbol>
<symbol  id="Medicine" viewBox="-24 -24 48 48">
	<polygon fill="none" points="24,-24 -24,-24 -24,24 24,24 	"/>
	<polygon opacity="0.4" fill="#231F20" points="-6.5,17.334 6.5,17.334 6.5,13 -6.5,13 	"/>
	<path opacity="0.4" fill="#231F20" d="M6.5-4.334c0,3.59-2.91,6.5-6.5,6.5s-6.5-2.91-6.5-6.5s2.91-6.5,6.5-6.5S6.5-7.924,6.5-4.334
		z"/>
	<path fill="none" stroke="#231F20" stroke-width="2" stroke-linecap="round" stroke-linejoin="round" stroke-miterlimit="10" d="
		M8.667,8.666c1.196,0,2.167-0.97,2.167-2.166v-21.667c0-1.196-0.971-2.167-2.167-2.167H-8.666c-1.197,0-2.167,0.971-2.167,2.167
		V6.5c0,1.196,0.97,2.166,2.167,2.166H-6.5c1.196,0,2.166,0.971,2.166,2.167V13h8.668v-2.167c0-1.196,0.971-2.167,2.166-2.167H8.667
		z"/>
	
		<polygon fill="none" stroke="#231F20" stroke-width="2" stroke-linecap="round" stroke-linejoin="round" stroke-miterlimit="10" points="
		-6.5,17.334 6.5,17.334 6.5,13 -6.5,13 	"/>
	
		<line fill="none" stroke="#231F20" stroke-width="2" stroke-linecap="round" stroke-linejoin="round" stroke-miterlimit="10" x1="-3" y1="-4.334" x2="3" y2="-4.334"/>
	
		<line fill="none" stroke="#231F20" stroke-width="2" stroke-linecap="round" stroke-linejoin="round" stroke-miterlimit="10" x1="0" y1="-7.334" x2="0" y2="-1.334"/>
	<path fill="none" stroke="#231F20" stroke-width="2" stroke-linecap="round" stroke-linejoin="round" stroke-miterlimit="10" d="
		M6.5-4.334c0,3.59-2.91,6.5-6.5,6.5s-6.5-2.91-6.5-6.5s2.91-6.5,6.5-6.5S6.5-7.924,6.5-4.334z"/>
	
		<line fill="none" stroke="#231F20" stroke-width="2" stroke-linecap="round" stroke-linejoin="round" stroke-miterlimit="10" x1="-2.166" y1="13" x2="-2.166" y2="17.344"/>
	
		<line fill="none" stroke="#231F20" stroke-width="2" stroke-linecap="round" stroke-linejoin="round" stroke-miterlimit="10" x1="2.166" y1="13" x2="2.166" y2="17.344"/>
</symbol>
<symbol  id="Mortel" viewBox="-24 -24 48 48">
	<polygon fill="none" points="24,-24 -24,-24 -24,24 24,24 	"/>
	<path opacity="0.4" fill="#231F20" d="M3.436,4.334l10.199,10.199c0.846,0.846,2.219,0.846,3.064,0
		c0.846-0.847,0.846-2.219,0-3.064L9.563,4.333"/>
	
		<polygon fill="none" stroke="#231F20" stroke-width="2" stroke-linecap="round" stroke-linejoin="round" stroke-miterlimit="10" points="
		-17.334,4.334 17.334,4.334 17.334,0 -17.334,0 	"/>
	<path fill="none" stroke="#231F20" stroke-width="2" stroke-linecap="round" stroke-linejoin="round" stroke-miterlimit="10" d="
		M15.166,0h-30.333c0-5.152,2.574-9.695,6.501-12.438v-2.729H8.666v2.729C12.592-9.695,15.166-5.151,15.166,0z"/>
	<path fill="none" stroke="#231F20" stroke-width="2" stroke-miterlimit="10" d="M3.436,4.334l10.199,10.199
		c0.846,0.846,2.219,0.846,3.064,0c0.846-0.847,0.846-2.219,0-3.064L9.563,4.333"/>
</symbol>
<symbol  id="On-body_infuser" viewBox="-24 -24 48 48">
	<polygon fill="none" points="24,-24 -24,-24 -24,24 24,24 	"/>
	<path fill="none" stroke="#231F20" stroke-width="2" stroke-linecap="round" stroke-linejoin="round" stroke-miterlimit="10" d="
		M4.086,4.086c-1.251,1.251-2.038,2.79-2.363,4.405c-2.75,0.555-5.718-0.231-7.851-2.363C-8.26,3.995-9.046,1.027-8.491-1.723
		c1.614-0.326,3.154-1.112,4.405-2.363s2.037-2.791,2.363-4.405c2.75-0.555,5.718,0.231,7.851,2.363
		C8.26-3.995,9.046-1.027,8.491,1.723C6.876,2.048,5.337,2.835,4.086,4.086z"/>
	<path fill="none" stroke="#231F20" stroke-width="2" stroke-linecap="round" stroke-linejoin="round" stroke-miterlimit="10" d="
		M13.694-10.63c5.292,6.8,4.813,16.636-1.438,22.887c-6.77,6.77-17.744,6.77-24.514,0s-6.77-17.744,0-24.514
		c6.25-6.251,16.087-6.729,22.887-1.438"/>
	
		<line fill="none" stroke="#231F20" stroke-width="2" stroke-linecap="round" stroke-linejoin="round" stroke-miterlimit="10" x1="17.334" y1="-14.27" x2="7.467" y2="-4.402"/>
	
		<line fill="none" stroke="#231F20" stroke-width="2" stroke-linecap="round" stroke-linejoin="round" stroke-miterlimit="10" x1="4.402" y1="-7.467" x2="14.27" y2="-17.334"/>
</symbol>
<symbol  id="On-body_sensor_2_" viewBox="-24 -24 48 48">
	<polygon fill="none" points="24,-24 -24,-24 -24,24 24,24 	"/>
	<path opacity="0.5" fill="#231F20" d="M13,0c0,1.196,0.97,2.167,2.167,2.167h1.986c-0.593,3.585-2.69,6.499-6.278,6.499
		C8.75,8.666,7.583,6.5,4.334,6.5v-13c3.249,0,4.416-2.166,6.541-2.166c3.588,0,5.686,2.914,6.278,6.499h-1.986
		C13.97-2.167,13-1.196,13,0z"/>
	<path fill="none" stroke="#231F20" stroke-width="2" stroke-linecap="round" stroke-linejoin="round" stroke-miterlimit="10" d="
		M13,0c0,1.196,0.97,2.167,2.167,2.167h1.986c-0.593,3.585-2.69,6.499-6.278,6.499C8.75,8.666,7.583,6.5,4.334,6.5
		C-0.457,6.5,0,13-4.334,13c-7.18,0-13-5.82-13-13s5.82-13,13-13C0-13-0.457-6.5,4.334-6.5c3.249,0,4.416-2.166,6.541-2.166
		c3.588,0,5.686,2.914,6.278,6.499h-1.986C13.97-2.167,13-1.196,13,0z"/>
	
		<line fill="none" stroke="#231F20" stroke-width="2" stroke-linecap="round" stroke-linejoin="round" stroke-miterlimit="10" x1="4.334" y1="6.5" x2="4.334" y2="-6.5"/>
</symbol>
<symbol  id="Pharmacy" viewBox="-24 -24 48 48">
	<polygon fill="none" points="24,-24 -24,-24 -24,24 24,24 	"/>
	<path fill="none" stroke="#231F20" stroke-width="2" stroke-miterlimit="10" d="M0-13c9.572,0,17.333,7.761,17.333,17.333h-34.666
		C-17.333-5.239-9.573-13,0-13z"/>
	<path fill="none" stroke="#231F20" stroke-width="2" stroke-miterlimit="10" d="M5.603,4.333l8.031,8.032
		c0.846,0.846,2.218,0.846,3.064,0c0.847-0.847,0.846-2.218,0-3.065l-4.967-4.967"/>
</symbol>
<symbol  id="Pushtronex_Infuser" viewBox="-24 -24 48 48">
	<path opacity="0.5" fill="#231F20" d="M-4.318,17.333c-4.557,0-4.33-2.247-4.33-2.934c0-0.188-0.001-2.488-0.003-5.733h4.317
		c1.196,0,2.167-0.97,2.167-2.167S-1.196,4.332,0,4.332h8.666c0,4.282,0,7.683,0,8.164C8.666,13.9,3.763,17.333-4.318,17.333z"/>
	<polygon fill="none" points="-24,24 24,24 24,-24 -24,-24 	"/>
	<path fill="none" stroke="#231F20" stroke-width="2" stroke-linecap="round" stroke-linejoin="round" stroke-miterlimit="10" d="
		M-8.666-15.648c0-0.655,3.215-1.685,8.666-1.685s8.666,1.029,8.666,1.685c0,0.499,0,26.741,0,28.145
		c0,1.404-4.903,4.837-12.984,4.837c-4.557,0-4.33-2.247-4.33-2.934C-8.648,13.714-8.666-15.117-8.666-15.648z"/>
	
		<path fill="#231F20" fill-opacity="0.5" stroke="#231F20" stroke-width="2" stroke-linecap="round" stroke-linejoin="round" stroke-miterlimit="10" d="
		M4.334-6.5c0,1.196-0.971,2.167-2.167,2.167C0.97-4.333,0-5.304,0-6.5c0-1.197,0.97-2.168,2.167-2.168
		C3.363-8.668,4.334-7.697,4.334-6.5z"/>
	<path fill="none" stroke="#231F20" stroke-width="2" stroke-linecap="round" stroke-linejoin="round" stroke-miterlimit="10" d="
		M8.666,4.332H0c-1.196,0-2.167,0.97-2.167,2.167s-0.971,2.167-2.167,2.167h-4.317"/>
	
		<line fill="none" stroke="#231F20" stroke-width="2" stroke-linecap="round" stroke-linejoin="round" stroke-miterlimit="10" x1="-4.334" y1="-10.835" x2="-4.334" y2="-2.167"/>
	
		<line fill="none" stroke="#231F20" stroke-width="2" stroke-linecap="round" stroke-linejoin="round" stroke-miterlimit="10" x1="4.334" y1="0" x2="4.334" y2="0"/>
</symbol>
<symbol  id="Pushtronex_Infuser_Broken" viewBox="-24 -24 48 48">
	<g>
		<defs>
			<path id="SVGID_11_" d="M-24,24v-48h48v48H-24z M19.455,15.213l-34.668-34.668c-0.585-0.586-1.354-0.879-2.121-0.879
				s-1.536,0.293-2.121,0.879c-1.172,1.171-1.172,3.071,0,4.242l34.668,34.668c1.171,1.172,3.071,1.172,4.242,0
				C20.627,18.284,20.627,16.384,19.455,15.213z"/>
		</defs>
		<clipPath id="SVGID_4_">
			<use xlink:href="#SVGID_11_"  overflow="visible"/>
		</clipPath>
		<g clip-path="url(#SVGID_4_)">
			<path opacity="0.5" fill="#231F20" d="M-4.318,17.333c-4.557,0-4.33-2.247-4.33-2.934c0-0.188-0.001-2.488-0.003-5.733h4.317
				c1.196,0,2.167-0.97,2.167-2.167S-1.196,4.332,0,4.332h8.666c0,4.282,0,7.683,0,8.164C8.666,13.9,3.763,17.333-4.318,17.333z"/>
			<path fill="none" stroke="#231F20" stroke-width="2" stroke-linecap="round" stroke-linejoin="round" stroke-miterlimit="10" d="
				M-8.666-15.648c0-0.655,3.215-1.685,8.666-1.685s8.666,1.029,8.666,1.685c0,0.499,0,26.741,0,28.145
				c0,1.404-4.903,4.837-12.984,4.837c-4.557,0-4.33-2.247-4.33-2.934C-8.648,13.714-8.666-15.117-8.666-15.648z"/>
			
				<path fill="#231F20" fill-opacity="0.5" stroke="#231F20" stroke-width="2" stroke-linecap="round" stroke-linejoin="round" stroke-miterlimit="10" d="
				M4.334-6.5c0,1.196-0.971,2.167-2.167,2.167C0.97-4.333,0-5.304,0-6.5c0-1.197,0.97-2.168,2.167-2.168
				C3.363-8.668,4.334-7.697,4.334-6.5z"/>
			<path fill="none" stroke="#231F20" stroke-width="2" stroke-linecap="round" stroke-linejoin="round" stroke-miterlimit="10" d="
				M8.666,4.332H0c-1.196,0-2.167,0.97-2.167,2.167s-0.971,2.167-2.167,2.167h-4.317"/>
			
				<line fill="none" stroke="#231F20" stroke-width="2" stroke-linecap="round" stroke-linejoin="round" stroke-miterlimit="10" x1="-4.334" y1="-10.835" x2="-4.334" y2="-2.167"/>
			
				<line fill="none" stroke="#231F20" stroke-width="2" stroke-linecap="round" stroke-linejoin="round" stroke-miterlimit="10" x1="4.334" y1="0" x2="4.334" y2="0"/>
		</g>
	</g>
	
		<line fill="none" stroke="#231F20" stroke-width="2" stroke-linecap="round" stroke-linejoin="round" stroke-miterlimit="10" x1="-17.334" y1="-17.334" x2="17.334" y2="17.334"/>
</symbol>
<symbol  id="Scale" viewBox="-24 -24 48 48">
	<polygon fill="none" points="24,-24 -24,-24 -24,24 24,24 	"/>
	<path fill="none" stroke="#231F20" stroke-width="2" stroke-linecap="round" stroke-linejoin="round" stroke-miterlimit="10" d="
		M6.5,10.834c0,3.59-2.91,6.5-6.5,6.5s-6.5-2.91-6.5-6.5s2.91-6.5,6.5-6.5S6.5,7.244,6.5,10.834z"/>
	
		<line fill="none" stroke="#231F20" stroke-width="2" stroke-linecap="round" stroke-linejoin="round" stroke-miterlimit="10" x1="0" y1="10.834" x2="2.299" y2="13.131"/>
	
		<polyline fill="none" stroke="#231F20" stroke-width="2" stroke-linecap="round" stroke-linejoin="round" stroke-miterlimit="10" points="
		6.074,13 17.334,13 17.334,-17.334 -17.334,-17.334 -17.334,13 -6.123,13 	"/>
	
		<line opacity="0.5" fill="none" stroke="#231F20" stroke-width="2" stroke-linecap="round" stroke-linejoin="round" stroke-miterlimit="10" x1="-12.979" y1="-8.666" x2="-4.334" y2="-8.666"/>
	
		<line opacity="0.5" fill="none" stroke="#231F20" stroke-width="2" stroke-linecap="round" stroke-linejoin="round" stroke-miterlimit="10" x1="-12.979" y1="-4.334" x2="-4.334" y2="-4.334"/>
	
		<line opacity="0.5" fill="none" stroke="#231F20" stroke-width="2" stroke-linecap="round" stroke-linejoin="round" stroke-miterlimit="10" x1="4.344" y1="-8.666" x2="12.989" y2="-8.666"/>
	
		<line opacity="0.5" fill="none" stroke="#231F20" stroke-width="2" stroke-linecap="round" stroke-linejoin="round" stroke-miterlimit="10" x1="4.344" y1="-4.334" x2="12.989" y2="-4.334"/>
</symbol>
<symbol  id="Shower" viewBox="-24 -24 48 48">
	<polygon fill="none" points="24,-24 -24,-24 -24,24 24,24 	"/>
	
		<polygon fill="none" stroke="#231F20" stroke-width="2" stroke-linecap="round" stroke-linejoin="round" stroke-miterlimit="10" points="
		8.666,4.333 -17.334,4.333 -17.334,8.666 8.666,8.666 	"/>
	
		<line opacity="0.4" fill="none" stroke="#231F20" stroke-width="2" stroke-linecap="round" stroke-linejoin="round" stroke-miterlimit="10" x1="4.334" y1="0" x2="4.334" y2="-8.666"/>
	
		<line opacity="0.4" fill="none" stroke="#231F20" stroke-width="2" stroke-linecap="round" stroke-linejoin="round" stroke-miterlimit="10" x1="-13" y1="0" x2="-13" y2="-8.666"/>
	
		<line opacity="0.4" fill="none" stroke="#231F20" stroke-width="2" stroke-linecap="round" stroke-linejoin="round" stroke-miterlimit="10" x1="-4.334" y1="0" x2="-4.334" y2="-8.666"/>
	
		<line opacity="0.4" fill="none" stroke="#231F20" stroke-width="2" stroke-linecap="round" stroke-linejoin="round" stroke-miterlimit="10" x1="-8.666" y1="0" x2="-8.666" y2="-13"/>
	
		<line opacity="0.4" fill="none" stroke="#231F20" stroke-width="2" stroke-linecap="round" stroke-linejoin="round" stroke-miterlimit="10" x1="0" y1="0" x2="0" y2="-13"/>
	<path fill="none" stroke="#231F20" stroke-width="2" stroke-linecap="round" stroke-linejoin="round" stroke-miterlimit="10" d="
		M-4.334,8.666v6.501c0,1.196,0.971,2.167,2.167,2.167h17.333c1.197,0,2.168-0.971,2.168-2.167v-32.501"/>
</symbol>
<symbol  id="Stethoscope" viewBox="-24 -24 48 48">
	<polygon fill="none" points="24,-24 -24,-24 -24,24 24,24 	"/>
	<path fill="none" stroke="#231F20" stroke-width="2" stroke-miterlimit="10" d="M-8.667,15.167c0-1.196-0.97-2.167-2.167-2.167
		C-12.03,13-13,13.97-13,15.167c0,1.197,0.97,2.167,2.167,2.167C-9.637,17.333-8.667,16.363-8.667,15.167z"/>
	<path fill="none" stroke="#231F20" stroke-width="2" stroke-miterlimit="10" d="M2.167-15.167c0-1.196-0.97-2.167-2.167-2.167
		c-1.196,0-2.167,0.97-2.167,2.167C-2.167-13.97-1.197-13,0-13C1.196-13,2.167-13.97,2.167-15.167z"/>
	<path fill="none" stroke="#231F20" stroke-width="2" stroke-miterlimit="10" d="M13,15.167C13,13.97,12.03,13,10.833,13
		c-1.196,0-2.167,0.97-2.167,2.167c0,1.197,0.97,2.167,2.167,2.167C12.03,17.333,13,16.363,13,15.167z"/>
	<path fill="none" stroke="#231F20" stroke-width="2" stroke-miterlimit="10" d="M10.833,13.016v-2.183C10.833,4.85,5.983,0,0,0
		s-10.833,4.85-10.833,10.833V13"/>
	<line fill="none" stroke="#231F20" stroke-width="2" stroke-miterlimit="10" x1="0" y1="-13" x2="0" y2="0"/>
</symbol>
<symbol  id="Syringe" viewBox="-24 -24 48 48">
	<polygon fill="none" points="24,-24 -24,-24 -24,24 24,24 	"/>
	<polygon opacity="0.4" fill="#231F20" points="4.334,-8.667 0,-13 -4.334,-8.667 -4.334,8.666 4.334,8.666 	"/>
	
		<polygon fill="none" stroke="#231F20" stroke-width="2" stroke-linecap="round" stroke-linejoin="round" stroke-miterlimit="10" points="
		0,-13 4.334,-8.667 4.334,8.666 -4.334,8.666 -4.334,-8.667 	"/>
	
		<line fill="none" stroke="#231F20" stroke-width="2" stroke-linecap="round" stroke-linejoin="round" stroke-miterlimit="10" x1="0" y1="4.334" x2="4.334" y2="4.334"/>
	
		<line fill="none" stroke="#231F20" stroke-width="2" stroke-linecap="round" stroke-linejoin="round" stroke-miterlimit="10" x1="0" y1="0" x2="4.334" y2="0"/>
	
		<line fill="none" stroke="#231F20" stroke-width="2" stroke-linecap="round" stroke-linejoin="round" stroke-miterlimit="10" x1="0" y1="-4.334" x2="4.334" y2="-4.334"/>
	
		<line fill="none" stroke="#231F20" stroke-width="2" stroke-linecap="round" stroke-linejoin="round" stroke-miterlimit="10" x1="0" y1="-13" x2="0" y2="-17.334"/>
	
		<line fill="none" stroke="#231F20" stroke-width="2" stroke-linecap="round" stroke-linejoin="round" stroke-miterlimit="10" x1="-8.666" y1="8.666" x2="8.666" y2="8.666"/>
	
		<line fill="none" stroke="#231F20" stroke-width="2" stroke-linecap="round" stroke-linejoin="round" stroke-miterlimit="10" x1="-6.5" y1="17.334" x2="6.5" y2="17.334"/>
	
		<polygon fill="none" stroke="#231F20" stroke-width="2" stroke-linecap="round" stroke-linejoin="round" stroke-miterlimit="10" points="
		-4.334,17.334 4.334,17.334 4.334,8.666 -4.334,8.666 	"/>
</symbol>
<symbol  id="Syringe_2" viewBox="-24 -24 48 48">
	<polygon fill="none" points="24,-24 -24,-24 -24,24 24,24 	"/>
	<polygon opacity="0.4" fill="#231F20" points="-6.375,-13.682 -13.682,-13.682 -13.682,-6.377 0.93,8.234 8.234,0.928 	"/>
	
		<polygon fill="none" stroke="#231F20" stroke-width="2" stroke-linecap="round" stroke-linejoin="round" stroke-miterlimit="10" points="
		-13.682,-13.682 -6.375,-13.682 8.234,0.928 0.93,8.234 -13.682,-6.377 	"/>
	
		<line fill="none" stroke="#231F20" stroke-width="2" stroke-linecap="round" stroke-linejoin="round" stroke-miterlimit="10" x1="0.93" y1="0.93" x2="4.582" y2="-2.723"/>
	
		<line fill="none" stroke="#231F20" stroke-width="2" stroke-linecap="round" stroke-linejoin="round" stroke-miterlimit="10" x1="-2.723" y1="-2.723" x2="0.93" y2="-6.377"/>
	
		<line fill="none" stroke="#231F20" stroke-width="2" stroke-linecap="round" stroke-linejoin="round" stroke-miterlimit="10" x1="-6.377" y1="-6.377" x2="-2.723" y2="-10.029"/>
	
		<line fill="none" stroke="#231F20" stroke-width="2" stroke-linecap="round" stroke-linejoin="round" stroke-miterlimit="10" x1="-13.682" y1="-13.682" x2="-17.334" y2="-17.334"/>
	
		<line fill="none" stroke="#231F20" stroke-width="2" stroke-linecap="round" stroke-linejoin="round" stroke-miterlimit="10" x1="-2.723" y1="11.886" x2="11.886" y2="-2.723"/>
	
		<line fill="none" stroke="#231F20" stroke-width="2" stroke-linecap="round" stroke-linejoin="round" stroke-miterlimit="10" x1="6.408" y1="17.365" x2="17.365" y2="6.408"/>
	
		<polygon fill="none" stroke="#231F20" stroke-width="2" stroke-linecap="round" stroke-linejoin="round" stroke-miterlimit="10" points="
		8.234,15.539 15.539,8.233 8.234,0.928 0.93,8.234 	"/>
</symbol>
<symbol  id="Temperature_Guage" viewBox="-24 -24 48 48">
	<polygon fill="none" points="24,-24 -24,-24 -24,24 24,24 	"/>
	<path opacity="0.4" fill="#231F20" d="M-3.644,4.893l-6.403-6.403c-1.575-1.576-2.073-3.801-1.542-5.811l-4.861-4.861
		c-1.178-1.178-1.178-3.089,0-4.268c1.179-1.18,3.09-1.18,4.269,0l4.86,4.86c2.011-0.53,4.236-0.033,5.812,1.543l6.403,6.403
		L-3.644,4.893z"/>
	<path fill="none" stroke="#231F20" stroke-width="2" stroke-miterlimit="10" d="M15.565,15.566c-2.356,2.356-6.179,2.356-8.536,0
		L-10.046-1.51c-1.575-1.576-2.073-3.801-1.542-5.811l-4.861-4.861c-1.178-1.178-1.178-3.089,0-4.268c1.179-1.18,3.09-1.18,4.269,0
		l4.86,4.86c2.011-0.53,4.236-0.033,5.812,1.543L15.566,7.028C17.923,9.385,17.923,13.208,15.565,15.566z"/>
	<line fill="none" stroke="#231F20" stroke-width="2" stroke-miterlimit="10" x1="11.296" y1="11.296" x2="15.566" y2="7.028"/>
	<line fill="none" stroke="#231F20" stroke-width="2" stroke-miterlimit="10" x1="7.028" y1="7.028" x2="11.296" y2="2.758"/>
	<line fill="none" stroke="#231F20" stroke-width="2" stroke-miterlimit="10" x1="2.76" y1="2.759" x2="7.028" y2="-1.51"/>
	<line fill="none" stroke="#231F20" stroke-width="2" stroke-miterlimit="10" x1="-1.509" y1="-1.51" x2="2.76" y2="-5.778"/>
	<line fill="none" stroke="#231F20" stroke-width="2" stroke-miterlimit="10" x1="-5.779" y1="-5.778" x2="-1.509" y2="-10.047"/>
</symbol>
<symbol  id="Tubing" viewBox="-24 -24 48 48">
	<polygon fill="none" points="24,24 -24,24 -24,-24 24,-24 	"/>
	<g>
		<path fill="none" stroke="#231F20" stroke-width="2" stroke-linecap="round" stroke-linejoin="round" stroke-miterlimit="10" d="
			M0-17.334c-0.555,0-1.109,0.212-1.532,0.635L-12.908-5.324c-2.936,2.936-2.936,7.713,0,10.648
			c1.421,1.422,3.312,2.205,5.323,2.205h0c2.011,0,3.902-0.783,5.324-2.205L5.324-2.26c1.207-1.207,3.312-1.207,4.519,0
			c1.247,1.246,1.247,3.273,0,4.52L-1.532,13.635c-0.846,0.846-0.846,2.218,0,3.064c0.846,0.846,2.218,0.846,3.064,0L12.908,5.324
			c2.936-2.936,2.936-7.713,0-10.648C11.486-6.747,9.595-7.53,7.583-7.53S3.681-6.746,2.259-5.324L-5.324,2.26
			C-5.928,2.863-6.73,3.195-7.583,3.195c0,0,0,0,0,0c-0.854,0-1.655-0.332-2.258-0.936c-1.247-1.246-1.247-3.273-0.001-4.52
			L1.532-13.635c0.846-0.846,0.846-2.218,0-3.064C1.109-17.122,0.555-17.334,0-17.334z"/>
	</g>
</symbol>
<g id="Background">
</g>
<g id="Layer_1">
</g>
<g id="Model">
	<g id="Woman">
	</g>
	<g id="Threshold">
	</g>
	<g id="Man_with_Tie">
	</g>
	<g id="Building_5">
	</g>
</g>
<g id="Icons">
	<g id="Random_Forest">
	</g>
	<g>
		<g>
			
				<use xlink:href="#IV_2"  width="48" height="48" id="XMLID_363_" x="-24" y="-24" transform="matrix(1.875 0 0 -1.875 795 235)" overflow="visible"/>
			
				<use xlink:href="#Syringe_2"  width="48" height="48" id="XMLID_362_" x="-24" y="-24" transform="matrix(1.875 0 0 -1.875 935 235)" overflow="visible"/>
			
				<use xlink:href="#Syringe"  width="48" height="48" id="XMLID_361_" x="-24" y="-24" transform="matrix(1.875 0 0 -1.875 1075 235)" overflow="visible"/>
			
				<use xlink:href="#Drugs"  width="48" height="48" id="XMLID_360_" x="-24" y="-24" transform="matrix(1.875 0 0 -1.875 375 235)" overflow="visible"/>
			
				<use xlink:href="#IV_1_"  width="48" height="48" id="XMLID_359_" x="-24" y="-24" transform="matrix(1.875 0 0 -1.875 655 235)" overflow="visible"/>
			
				<use xlink:href="#Pharmacy"  width="48" height="48" x="-24" y="-24" transform="matrix(1.875 0 0 -1.875 95 235)" overflow="visible"/>
			
				<use xlink:href="#Mortel"  width="48" height="48" id="XMLID_358_" x="-24" y="-24" transform="matrix(1.875 0 0 -1.875 235 235)" overflow="visible"/>
			
				<use xlink:href="#Temperature_Guage"  width="48" height="48" x="-24" y="-24" transform="matrix(1.875 0 0 -1.875 515 235)" overflow="visible"/>
		</g>
		<g>
			
				<use xlink:href="#Drop_2_"  width="48" height="48" x="-24" y="-24" transform="matrix(1.875 0 0 -1.875 655 375)" overflow="visible"/>
			
				<use xlink:href="#Stethoscope"  width="48" height="48" x="-24" y="-24" transform="matrix(1.875 0 0 -1.875 795 375)" overflow="visible"/>
			
				<use xlink:href="#Medical_2"  width="48" height="48" x="-24" y="-24" transform="matrix(1.875 0 0 -1.875 235 375)" overflow="visible"/>
			
				<use xlink:href="#Medical"  width="48" height="48" x="-24" y="-24" transform="matrix(1.875 0 0 -1.875 375 375)" overflow="visible"/>
			
				<use xlink:href="#Shower"  width="48" height="48" id="XMLID_356_" x="-24" y="-24" transform="matrix(1.875 0 0 -1.875 95 375)" overflow="visible"/>
			
				<use xlink:href="#First_Aid_Kit"  width="48" height="48" x="-24" y="-24" transform="matrix(1.875 0 0 -1.875 515 375)" overflow="visible"/>
			
				<use xlink:href="#Pushtronex_Infuser"  width="48" height="48" id="XMLID_355_" x="-24" y="-24" transform="matrix(1.875 0 0 -1.875 935 375)" overflow="visible"/>
			
				<use xlink:href="#Pushtronex_Infuser_Broken"  width="48" height="48" id="XMLID_342_" x="-24" y="-24" transform="matrix(1.875 0 0 -1.875 1075 375)" overflow="visible"/>
		</g>
		<g>
			
				<use xlink:href="#Tubing"  width="48" height="48" x="-24" y="-24" transform="matrix(1.875 0 0 -1.875 655 515)" overflow="visible"/>
			
				<use xlink:href="#Autoinjectors"  width="48" height="48" x="-24" y="-24" transform="matrix(1.875 0 0 -1.875 795 515)" overflow="visible"/>
			
				<use xlink:href="#Autoinjector_2"  width="48" height="48" x="-24" y="-24" transform="matrix(1.875 0 0 -1.875 1075 515)" overflow="visible"/>
			
				<use xlink:href="#Autoinjector"  width="48" height="48" x="-24" y="-24" transform="matrix(1.875 0 0 -1.875 935 515)" overflow="visible"/>
			
				<use xlink:href="#CGM"  width="48" height="48" id="XMLID_319_" x="-24" y="-24" transform="matrix(1.875 0 0 -1.875 375 515)" overflow="visible"/>
			
				<use xlink:href="#Insulin_Pump_2_"  width="48" height="48" x="-24" y="-24" transform="matrix(1.875 0 0 -1.875 95 515)" overflow="visible"/>
			
				<use xlink:href="#On-body_sensor_2_"  width="48" height="48" x="-24" y="-24" transform="matrix(1.875 0 0 -1.875 235 515)" overflow="visible"/>
			
				<use xlink:href="#On-body_infuser"  width="48" height="48" x="-24" y="-24" transform="matrix(1.875 0 0 -1.875 515 515)" overflow="visible"/>
		</g>
		<g>
			
				<use xlink:href="#Band_Aid"  width="48" height="48" x="-24" y="-24" transform="matrix(1.875 0 0 -1.875 935 95)" overflow="visible"/>
			
				<use xlink:href="#Band_Aid_2"  width="48" height="48" id="XMLID_318_" x="-24" y="-24" transform="matrix(1.875 0 0 -1.875 655 95)" overflow="visible"/>
			
				<use xlink:href="#Scale"  width="48" height="48" id="XMLID_314_" x="-24" y="-24" transform="matrix(1.875 0 0 -1.875 515 95)" overflow="visible"/>
			
				<use xlink:href="#DNA"  width="48" height="48" id="XMLID_140_" x="-24" y="-24" transform="matrix(1.875 0 0 -1.875 375 95)" overflow="visible"/>
			
				<use xlink:href="#Medicine"  width="48" height="48" id="XMLID_139_" x="-24" y="-24" transform="matrix(1.875 0 0 -1.875 95 95)" overflow="visible"/>
			
				<use xlink:href="#Drugs_2"  width="48" height="48" x="-24" y="-24" transform="matrix(1.875 0 0 -1.875 235 95)" overflow="visible"/>
			
				<use xlink:href="#Band_Aid_3"  width="48" height="48" x="-24" y="-24" transform="matrix(1.875 0 0 -1.875 795 95)" overflow="visible"/>
			
				<use xlink:href="#Antibody"  width="48" height="48" x="-24" y="-24" transform="matrix(1.875 0 0 -1.875 1075 95)" overflow="visible"/>
		</g>
	</g>
	<g id="Database">
	</g>
	<g id="Random_Forest_1_">
	</g>
	<g id="University">
	</g>
	<g id="Group">
	</g>
	<g id="Group_1_">
	</g>
	<g id="Scatterplott">
	</g>
	<g id="Long_Paper_2_">
	</g>
	<g id="Spread">
	</g>
	<g id="Isometric_Box">
	</g>
	<g id="Magnifying_Glass">
	</g>
	<g id="Code_2">
	</g>
</g>
<g id="Figures">
	<g id="Models">
	</g>
	<g id="Justice">
	</g>
	<g id="Sensor">
	</g>
	<g id="Widget">
	</g>
	<g id="Drop_1_">
	</g>
	<g id="Algorithm_1_">
	</g>
	<g id="On-body_sensor_1_">
	</g>
	<g id="Insulin_Pump_1_">
	</g>
	<g id="Drop">
	</g>
	<g id="Algorithm">
	</g>
	<g id="On-body_sensor">
	</g>
	<g id="Insulin_Pump">
	</g>
</g>
<g id="Meta__x2B__Title">
</g>
<g id="Isolation_Mode">
</g>
<g id="Long_Paper">
	<g id="Long_Paper_1_">
	</g>
	<g id="IV">
	</g>
	<g id="Air_Purifier">
	</g>
	<g id="Alarm">
	</g>
	<g id="Chat">
	</g>
	<g id="Presentation">
	</g>
	<g id="Dog_2">
	</g>
	<g id="Delivery">
	</g>
	<g id="Meat_2">
	</g>
</g>
</svg>
