<?xml version="1.0" encoding="utf-8"?>
<!-- Generator: Adobe Illustrator 16.0.0, SVG Export Plug-In . SVG Version: 6.00 Build 0)  -->
<!DOCTYPE svg PUBLIC "-//W3C//DTD SVG 1.1//EN" "http://www.w3.org/Graphics/SVG/1.1/DTD/svg11.dtd">
<svg version="1.1" xmlns="http://www.w3.org/2000/svg" xmlns:xlink="http://www.w3.org/1999/xlink" x="0px" y="0px" width="1170px"
	 height="470px" viewBox="0 0 1170 470" enable-background="new 0 0 1170 470" xml:space="preserve">
<symbol  id="Alarm_Clock" viewBox="-24 -24 48 48">
	<polygon fill="none" points="24,-24 -24,-24 -24,24 24,24 	"/>
	<path fill="none" stroke="#231F20" stroke-width="2" stroke-linecap="round" stroke-linejoin="round" stroke-miterlimit="10" d="
		M17.334,0c0,9.573-7.761,17.334-17.334,17.334S-17.334,9.573-17.334,0S-9.573-17.334,0-17.334S17.334-9.573,17.334,0z"/>
	<path fill="none" stroke="#231F20" stroke-width="2" stroke-linecap="round" stroke-linejoin="round" stroke-miterlimit="10" d="
		M15.642,7.47c1.046,1.046,1.692,2.49,1.692,4.086c0,3.191-2.587,5.778-5.779,5.778c-1.595,0-3.038-0.645-4.083-1.689"/>
	<path fill="none" stroke="#231F20" stroke-width="2" stroke-linecap="round" stroke-linejoin="round" stroke-miterlimit="10" d="
		M-7.467,15.641c-1.047,1.047-2.492,1.693-4.088,1.693c-3.192,0-5.779-2.587-5.779-5.778c0-1.593,0.645-3.034,1.687-4.08"/>
	
		<line fill="none" stroke="#231F20" stroke-width="2" stroke-linecap="round" stroke-linejoin="round" stroke-miterlimit="10" x1="17.334" y1="-17.334" x2="12.25" y2="-12.251"/>
	
		<line fill="none" stroke="#231F20" stroke-width="2" stroke-linecap="round" stroke-linejoin="round" stroke-miterlimit="10" x1="-17.334" y1="-17.334" x2="-12.257" y2="-12.257"/>
	
		<polyline fill="none" stroke="#231F20" stroke-width="2" stroke-linecap="round" stroke-linejoin="round" stroke-miterlimit="10" points="
		-9.191,-9.191 0,0 0,13 	"/>
	<path fill="#231F20" d="M13,0c0,0.553-0.448,1-1,1s-1-0.447-1-1s0.448-1,1-1S13-0.553,13,0z"/>
	<path fill="#231F20" d="M-11,0c0,0.553-0.448,1-1,1s-1-0.447-1-1s0.448-1,1-1S-11-0.553-11,0z"/>
	<path fill="#231F20" d="M1-12c0,0.553-0.448,1.001-1,1.001S-1-11.447-1-12s0.448-1,1-1S1-12.553,1-12z"/>
</symbol>
<symbol  id="Calendar__x28_Add_x29_" viewBox="-24 -24 48 48">
	<polygon fill="none" points="24,-24 -24,-24 -24,24 24,24 	"/>
	<polygon opacity="0.5" fill="#231F20" points="17.333,4.334 -17.334,4.334 -17.334,13 17.333,13 	"/>
	
		<polygon fill="none" stroke="#231F20" stroke-width="2" stroke-linecap="round" stroke-linejoin="round" stroke-miterlimit="10" points="
		17.333,4.334 -17.334,4.334 -17.334,-17.333 17.333,-17.333 	"/>
	
		<polygon fill="none" stroke="#231F20" stroke-width="2" stroke-linecap="round" stroke-linejoin="round" stroke-miterlimit="10" points="
		-17.334,13 17.333,13 17.333,4.334 -17.334,4.334 	"/>
	
		<line fill="none" stroke="#231F20" stroke-width="2" stroke-linecap="round" stroke-linejoin="round" stroke-miterlimit="10" x1="-8.667" y1="8.667" x2="-8.667" y2="17.334"/>
	
		<line fill="none" stroke="#231F20" stroke-width="2" stroke-linecap="round" stroke-linejoin="round" stroke-miterlimit="10" x1="8.666" y1="8.667" x2="8.666" y2="17.334"/>
	
		<line fill="none" stroke="#231F20" stroke-width="2" stroke-linecap="round" stroke-linejoin="round" stroke-miterlimit="10" x1="0" y1="0" x2="0" y2="-13"/>
	
		<line fill="none" stroke="#231F20" stroke-width="2" stroke-linecap="round" stroke-linejoin="round" stroke-miterlimit="10" x1="-6.5" y1="-6.5" x2="6.5" y2="-6.5"/>
</symbol>
<symbol  id="Calendar__x28_Blank_x29_" viewBox="-24 -24 48 48">
	<polygon fill="none" points="24,-24 -24,-24 -24,24 24,24 	"/>
	<polygon opacity="0.5" fill="#231F20" points="17.333,4.334 -17.334,4.334 -17.334,13 17.333,13 	"/>
	
		<polygon fill="none" stroke="#231F20" stroke-width="2" stroke-linecap="round" stroke-linejoin="round" stroke-miterlimit="10" points="
		17.333,4.334 -17.334,4.334 -17.334,-17.333 17.333,-17.333 	"/>
	
		<polygon fill="none" stroke="#231F20" stroke-width="2" stroke-linecap="round" stroke-linejoin="round" stroke-miterlimit="10" points="
		-17.334,13 17.333,13 17.333,4.334 -17.334,4.334 	"/>
	
		<line fill="none" stroke="#231F20" stroke-width="2" stroke-linecap="round" stroke-linejoin="round" stroke-miterlimit="10" x1="-8.667" y1="8.667" x2="-8.667" y2="17.334"/>
	
		<line fill="none" stroke="#231F20" stroke-width="2" stroke-linecap="round" stroke-linejoin="round" stroke-miterlimit="10" x1="8.666" y1="8.667" x2="8.666" y2="17.334"/>
</symbol>
<symbol  id="Calendar__x28_Cancel_x29_" viewBox="-24 -24 48 48">
	<polygon fill="none" points="24,-24 -24,-24 -24,24 24,24 	"/>
	<polygon opacity="0.5" fill="#231F20" points="17.333,4.334 -17.334,4.334 -17.334,13 17.333,13 	"/>
	
		<polygon fill="none" stroke="#231F20" stroke-width="2" stroke-linecap="round" stroke-linejoin="round" stroke-miterlimit="10" points="
		17.333,4.334 -17.334,4.334 -17.334,-17.333 17.333,-17.333 	"/>
	
		<polygon fill="none" stroke="#231F20" stroke-width="2" stroke-linecap="round" stroke-linejoin="round" stroke-miterlimit="10" points="
		-17.334,13 17.333,13 17.333,4.334 -17.334,4.334 	"/>
	
		<line fill="none" stroke="#231F20" stroke-width="2" stroke-linecap="round" stroke-linejoin="round" stroke-miterlimit="10" x1="-8.667" y1="8.667" x2="-8.667" y2="17.334"/>
	
		<line fill="none" stroke="#231F20" stroke-width="2" stroke-linecap="round" stroke-linejoin="round" stroke-miterlimit="10" x1="8.666" y1="8.667" x2="8.666" y2="17.334"/>
	
		<line fill="none" stroke="#231F20" stroke-width="2" stroke-linecap="round" stroke-linejoin="round" stroke-miterlimit="10" x1="-6.5" y1="-13" x2="6.5" y2="0"/>
	
		<line fill="none" stroke="#231F20" stroke-width="2" stroke-linecap="round" stroke-linejoin="round" stroke-miterlimit="10" x1="-6.5" y1="0" x2="6.5" y2="-13"/>
</symbol>
<symbol  id="Calendar__x28_Confirm_x29_" viewBox="-24 -24 48 48">
	<polygon fill="none" points="24,-24 -24,-24 -24,24 24,24 	"/>
	<polygon opacity="0.5" fill="#231F20" points="17.333,4.334 -17.334,4.334 -17.334,13 17.333,13 	"/>
	
		<polygon fill="none" stroke="#231F20" stroke-width="2" stroke-linecap="round" stroke-linejoin="round" stroke-miterlimit="10" points="
		17.333,4.334 -17.334,4.334 -17.334,-17.333 17.333,-17.333 	"/>
	
		<polygon fill="none" stroke="#231F20" stroke-width="2" stroke-linecap="round" stroke-linejoin="round" stroke-miterlimit="10" points="
		-17.334,13 17.333,13 17.333,4.334 -17.334,4.334 	"/>
	
		<line fill="none" stroke="#231F20" stroke-width="2" stroke-linecap="round" stroke-linejoin="round" stroke-miterlimit="10" x1="-8.667" y1="8.667" x2="-8.667" y2="17.334"/>
	
		<line fill="none" stroke="#231F20" stroke-width="2" stroke-linecap="round" stroke-linejoin="round" stroke-miterlimit="10" x1="8.666" y1="8.667" x2="8.666" y2="17.334"/>
	
		<polyline fill="none" stroke="#231F20" stroke-width="2" stroke-linecap="round" stroke-linejoin="round" stroke-miterlimit="10" points="
		-8.667,-8.576 -4.333,-13 8.667,0 	"/>
</symbol>
<symbol  id="Calendar__x28_Details_x29_" viewBox="-24 -24 48 48">
	<polygon fill="none" points="24,-24 -24,-24 -24,24 24,24 	"/>
	<polygon opacity="0.5" fill="#231F20" points="17.333,4.334 -17.334,4.334 -17.334,13 17.333,13 	"/>
	
		<polygon fill="none" stroke="#231F20" stroke-width="2" stroke-linecap="round" stroke-linejoin="round" stroke-miterlimit="10" points="
		17.333,4.334 -17.334,4.334 -17.334,-17.333 17.333,-17.333 	"/>
	
		<polygon fill="none" stroke="#231F20" stroke-width="2" stroke-linecap="round" stroke-linejoin="round" stroke-miterlimit="10" points="
		-17.334,13 17.333,13 17.333,4.334 -17.334,4.334 	"/>
	
		<line fill="none" stroke="#231F20" stroke-width="2" stroke-linecap="round" stroke-linejoin="round" stroke-miterlimit="10" x1="-8.667" y1="8.667" x2="-8.667" y2="17.334"/>
	
		<line fill="none" stroke="#231F20" stroke-width="2" stroke-linecap="round" stroke-linejoin="round" stroke-miterlimit="10" x1="8.666" y1="8.667" x2="8.666" y2="17.334"/>
	
		<line fill="none" stroke="#231F20" stroke-width="2" stroke-linecap="round" stroke-linejoin="round" stroke-miterlimit="10" x1="-8.667" y1="-4.333" x2="8.666" y2="-4.333"/>
	
		<line fill="none" stroke="#231F20" stroke-width="2" stroke-linecap="round" stroke-linejoin="round" stroke-miterlimit="10" x1="-8.667" y1="-8.666" x2="4.333" y2="-8.666"/>
</symbol>
<symbol  id="Calendar__x28_Remove_x29_" viewBox="-24 -24 48 48">
	<polygon fill="none" points="24,-24 -24,-24 -24,24 24,24 	"/>
	<polygon opacity="0.5" fill="#231F20" points="17.333,4.334 -17.334,4.334 -17.334,13 17.333,13 	"/>
	
		<polygon fill="none" stroke="#231F20" stroke-width="2" stroke-linecap="round" stroke-linejoin="round" stroke-miterlimit="10" points="
		17.333,4.334 -17.334,4.334 -17.334,-17.333 17.333,-17.333 	"/>
	
		<polygon fill="none" stroke="#231F20" stroke-width="2" stroke-linecap="round" stroke-linejoin="round" stroke-miterlimit="10" points="
		-17.334,13 17.333,13 17.333,4.334 -17.334,4.334 	"/>
	
		<line fill="none" stroke="#231F20" stroke-width="2" stroke-linecap="round" stroke-linejoin="round" stroke-miterlimit="10" x1="-8.667" y1="8.667" x2="-8.667" y2="17.334"/>
	
		<line fill="none" stroke="#231F20" stroke-width="2" stroke-linecap="round" stroke-linejoin="round" stroke-miterlimit="10" x1="8.666" y1="8.667" x2="8.666" y2="17.334"/>
	
		<line fill="none" stroke="#231F20" stroke-width="2" stroke-linecap="round" stroke-linejoin="round" stroke-miterlimit="10" x1="-6.5" y1="-6.5" x2="6.5" y2="-6.5"/>
</symbol>
<symbol  id="Clock" viewBox="-24 -24 48 48">
	<polygon fill="none" points="24,-24 -24,-24 -24,24 24,24 	"/>
	<path fill="none" stroke="#231F20" stroke-width="2" stroke-linecap="round" stroke-linejoin="round" stroke-miterlimit="10" d="
		M17.334,0c0,9.573-7.761,17.334-17.334,17.334S-17.334,9.573-17.334,0S-9.573-17.334,0-17.334S17.334-9.573,17.334,0z"/>
	
		<polyline fill="none" stroke="#231F20" stroke-width="2" stroke-linecap="round" stroke-linejoin="round" stroke-miterlimit="10" points="
		0,13 0,0 13,0 	"/>
	<path fill="#231F20" d="M1-12c0,0.553-0.447,1-1,1s-1-0.447-1-1s0.447-1,1-1S1-12.553,1-12z"/>
	<path fill="#231F20" d="M-11,0c0,0.553-0.447,1-1,1s-1-0.447-1-1s0.447-1,1-1S-11-0.553-11,0z"/>
</symbol>
<symbol  id="Clock_2" viewBox="-24 -24 48 48">
	<polygon fill="none" points="24,-24 -24,-24 -24,24 24,24 	"/>
	<path fill="none" stroke="#231F20" stroke-width="2" stroke-linecap="round" stroke-linejoin="round" stroke-miterlimit="10" d="
		M17.333,0c0-9.573-7.76-17.334-17.333-17.334S-17.333-9.573-17.333,0S-9.573,17.334,0,17.334S17.333,9.573,17.333,0z"/>
	
		<polyline fill="none" stroke="#231F20" stroke-width="2" stroke-linecap="round" stroke-linejoin="round" stroke-miterlimit="10" points="
		0,13 0,0 9.195,-9.195 	"/>
	
		<line fill="none" stroke="#231F20" stroke-width="2" stroke-linecap="round" stroke-linejoin="round" stroke-miterlimit="10" x1="-12" y1="0" x2="-12" y2="0"/>
	
		<line fill="none" stroke="#231F20" stroke-width="2" stroke-linecap="round" stroke-linejoin="round" stroke-miterlimit="10" x1="0" y1="-12" x2="0" y2="-12"/>
	
		<line fill="none" stroke="#231F20" stroke-width="2" stroke-linecap="round" stroke-linejoin="round" stroke-miterlimit="10" x1="12" y1="0" x2="12" y2="0"/>
</symbol>
<symbol  id="Clock_3" viewBox="-24 -24 48 48">
	<polygon fill="none" points="24,-24 -24,-24 -24,24 24,24 	"/>
	<path fill="none" stroke="#231F20" stroke-width="2" stroke-linecap="round" stroke-linejoin="round" stroke-miterlimit="10" d="
		M17.333,0c0-9.573-7.76-17.334-17.333-17.334S-17.333-9.573-17.333,0S-9.573,17.334,0,17.334S17.333,9.573,17.333,0z"/>
	
		<polyline fill="none" stroke="#231F20" stroke-width="2" stroke-linecap="round" stroke-linejoin="round" stroke-miterlimit="10" points="
		0,13 0,0 -9.195,-9.195 	"/>
	<g id="Clock_2_4_">
		
			<line fill="none" stroke="#231F20" stroke-width="2" stroke-linecap="round" stroke-linejoin="round" stroke-miterlimit="10" x1="-12" y1="0" x2="-12" y2="0"/>
		
			<line fill="none" stroke="#231F20" stroke-width="2" stroke-linecap="round" stroke-linejoin="round" stroke-miterlimit="10" x1="0.001" y1="-12" x2="0.001" y2="-12"/>
		
			<line fill="none" stroke="#231F20" stroke-width="2" stroke-linecap="round" stroke-linejoin="round" stroke-miterlimit="10" x1="12" y1="0" x2="12" y2="0"/>
	</g>
</symbol>
<symbol  id="Clock_4" viewBox="-24 -24 48 48">
	<polygon fill="none" points="24,-24 -24,-24 -24,24 24,24 	"/>
	<path fill="none" stroke="#231F20" stroke-width="2" stroke-linecap="round" stroke-linejoin="round" stroke-miterlimit="10" d="
		M17.334,0c0,9.573-7.761,17.334-17.334,17.334S-17.334,9.573-17.334,0S-9.573-17.334,0-17.334S17.334-9.573,17.334,0z"/>
	
		<polyline fill="none" stroke="#231F20" stroke-width="2" stroke-linecap="round" stroke-linejoin="round" stroke-miterlimit="10" points="
		0,13 0,0 -13,0 	"/>
	<path fill="#231F20" d="M1-12c0,0.553-0.447,1-1,1s-1-0.447-1-1s0.447-1,1-1S1-12.553,1-12z"/>
	<path fill="#231F20" d="M11,0c0,0.553,0.447,1,1,1s1-0.447,1-1s-0.447-1-1-1S11-0.553,11,0z"/>
</symbol>
<symbol  id="Future" viewBox="-24 -24 48 48">
	<g id="Clock_2_1_">
		<polygon fill="none" points="24,-24 -24,-24 -24,24 24,24 		"/>
		<path fill="none" stroke="#231F20" stroke-width="2" stroke-linecap="round" stroke-linejoin="round" stroke-miterlimit="10" d="
			M17.334,0c0-9.574-7.761-17.334-17.334-17.334S-17.333-9.573-17.333,0c0,9.572,7.76,17.334,17.333,17.334
			c4.787,0,9.12-1.94,12.257-5.077"/>
		
			<polyline fill="none" stroke="#231F20" stroke-width="2" stroke-linecap="round" stroke-linejoin="round" stroke-miterlimit="10" points="
			0,13 0,0 9.195,-9.195 		"/>
		
			<line fill="none" stroke="#231F20" stroke-width="2" stroke-linecap="round" stroke-linejoin="round" stroke-miterlimit="10" x1="-12" y1="0" x2="-12" y2="0"/>
		
			<line fill="none" stroke="#231F20" stroke-width="2" stroke-linecap="round" stroke-linejoin="round" stroke-miterlimit="10" x1="0" y1="-12" x2="0" y2="-12"/>
		
			<line fill="none" stroke="#231F20" stroke-width="2" stroke-linecap="round" stroke-linejoin="round" stroke-miterlimit="10" x1="12" y1="0" x2="12" y2="0"/>
		
			<polyline fill="none" stroke="#231F20" stroke-width="2" stroke-linecap="round" stroke-linejoin="round" stroke-miterlimit="10" points="
			12.257,17.343 12.257,12.257 7.171,12.257 		"/>
	</g>
</symbol>
<symbol  id="Future_2" viewBox="-24 -24 48 48">
	<g id="Clock_2_5_">
		<polygon fill="none" points="24,-24 -24,-24 -24,24 24,24 		"/>
		<path fill="none" stroke="#231F20" stroke-width="2" stroke-linecap="round" stroke-linejoin="round" stroke-miterlimit="10" d="
			M17.334,0c0-9.574-7.761-17.334-17.334-17.334S-17.333-9.573-17.333,0c0,9.572,7.76,17.334,17.333,17.334
			c4.787,0,9.12-1.94,12.257-5.077"/>
		
			<polyline fill="none" stroke="#231F20" stroke-width="2" stroke-linecap="round" stroke-linejoin="round" stroke-miterlimit="10" points="
			0,13 0,0 -9.195,-9.195 		"/>
		
			<line fill="none" stroke="#231F20" stroke-width="2" stroke-linecap="round" stroke-linejoin="round" stroke-miterlimit="10" x1="-12" y1="0" x2="-12" y2="0"/>
		
			<line fill="none" stroke="#231F20" stroke-width="2" stroke-linecap="round" stroke-linejoin="round" stroke-miterlimit="10" x1="0" y1="-12" x2="0" y2="-12"/>
		
			<line fill="none" stroke="#231F20" stroke-width="2" stroke-linecap="round" stroke-linejoin="round" stroke-miterlimit="10" x1="12" y1="0" x2="12" y2="0"/>
		
			<polyline fill="none" stroke="#231F20" stroke-width="2" stroke-linecap="round" stroke-linejoin="round" stroke-miterlimit="10" points="
			12.257,17.343 12.257,12.257 7.171,12.257 		"/>
	</g>
</symbol>
<symbol  id="Future_3" viewBox="-24 -24 48 48">
	<g id="Clock_2_7_">
		<polygon fill="none" points="24,-24 -24,-24 -24,24 24,24 		"/>
		<path fill="none" stroke="#231F20" stroke-width="2" stroke-linecap="round" stroke-linejoin="round" stroke-miterlimit="10" d="
			M17.334,0c0-9.574-7.761-17.334-17.334-17.334S-17.333-9.573-17.333,0c0,9.572,7.76,17.334,17.333,17.334
			c4.787,0,9.12-1.94,12.257-5.077"/>
		
			<polyline fill="none" stroke="#231F20" stroke-width="2" stroke-linecap="round" stroke-linejoin="round" stroke-miterlimit="10" points="
			0,13 0,0 -12.991,0 		"/>
		
			<line fill="none" stroke="#231F20" stroke-width="2" stroke-linecap="round" stroke-linejoin="round" stroke-miterlimit="10" x1="0" y1="-12" x2="0" y2="-12"/>
		
			<line fill="none" stroke="#231F20" stroke-width="2" stroke-linecap="round" stroke-linejoin="round" stroke-miterlimit="10" x1="12" y1="0" x2="12" y2="0"/>
		
			<polyline fill="none" stroke="#231F20" stroke-width="2" stroke-linecap="round" stroke-linejoin="round" stroke-miterlimit="10" points="
			12.257,17.343 12.257,12.257 7.171,12.257 		"/>
	</g>
</symbol>
<symbol  id="Future_4" viewBox="-24 -24 48 48">
	<g id="Clock_2_8_">
		<polygon fill="none" points="24,-24 -24,-24 -24,24 24,24 		"/>
		<path fill="none" stroke="#231F20" stroke-width="2" stroke-linecap="round" stroke-linejoin="round" stroke-miterlimit="10" d="
			M17.334,0c0-9.574-7.761-17.334-17.334-17.334S-17.333-9.573-17.333,0c0,9.572,7.76,17.334,17.333,17.334
			c4.787,0,9.12-1.94,12.257-5.077"/>
		
			<polyline fill="none" stroke="#231F20" stroke-width="2" stroke-linecap="round" stroke-linejoin="round" stroke-miterlimit="10" points="
			0,13 0,0 12.991,0 		"/>
		
			<line fill="none" stroke="#231F20" stroke-width="2" stroke-linecap="round" stroke-linejoin="round" stroke-miterlimit="10" x1="0" y1="-12" x2="0" y2="-12"/>
		
			<line fill="none" stroke="#231F20" stroke-width="2" stroke-linecap="round" stroke-linejoin="round" stroke-miterlimit="10" x1="-12" y1="0" x2="-12" y2="0"/>
		
			<polyline fill="none" stroke="#231F20" stroke-width="2" stroke-linecap="round" stroke-linejoin="round" stroke-miterlimit="10" points="
			12.257,17.343 12.257,12.257 7.171,12.257 		"/>
	</g>
</symbol>
<symbol  id="History" viewBox="-24 -24 48 48">
	<g id="Future_2_">
		<g id="Clock_2_3_">
			<polygon fill="none" points="24,-24 -24,-24 -24,24 24,24 			"/>
			
				<polyline fill="none" stroke="#231F20" stroke-width="2" stroke-linecap="round" stroke-linejoin="round" stroke-miterlimit="10" points="
				0,13 0,0 9.195,-9.195 			"/>
			
				<line fill="none" stroke="#231F20" stroke-width="2" stroke-linecap="round" stroke-linejoin="round" stroke-miterlimit="10" x1="-12" y1="0" x2="-12" y2="0"/>
			
				<line fill="none" stroke="#231F20" stroke-width="2" stroke-linecap="round" stroke-linejoin="round" stroke-miterlimit="10" x1="0" y1="-12" x2="0" y2="-12"/>
			
				<line fill="none" stroke="#231F20" stroke-width="2" stroke-linecap="round" stroke-linejoin="round" stroke-miterlimit="10" x1="12" y1="0" x2="12" y2="0"/>
			<path fill="none" stroke="#231F20" stroke-width="2" stroke-linecap="round" stroke-linejoin="round" stroke-miterlimit="10" d="
				M-17.334,0c0-9.574,7.761-17.334,17.334-17.334S17.333-9.573,17.333,0c0,9.572-7.76,17.334-17.333,17.334
				c-4.787,0-9.12-1.94-12.257-5.077"/>
			
				<polyline fill="none" stroke="#231F20" stroke-width="2" stroke-linecap="round" stroke-linejoin="round" stroke-miterlimit="10" points="
				-12.257,17.343 -12.257,12.257 -7.171,12.257 			"/>
		</g>
	</g>
</symbol>
<symbol  id="History_2" viewBox="-24 -24 48 48">
	<g id="Future_3_">
		<g id="Clock_2_6_">
			<polygon fill="none" points="24,-24 -24,-24 -24,24 24,24 			"/>
			
				<polyline fill="none" stroke="#231F20" stroke-width="2" stroke-linecap="round" stroke-linejoin="round" stroke-miterlimit="10" points="
				0,13 0,0 -9.196,-9.195 			"/>
			
				<line fill="none" stroke="#231F20" stroke-width="2" stroke-linecap="round" stroke-linejoin="round" stroke-miterlimit="10" x1="-12" y1="0" x2="-12" y2="0"/>
			
				<line fill="none" stroke="#231F20" stroke-width="2" stroke-linecap="round" stroke-linejoin="round" stroke-miterlimit="10" x1="0" y1="-12" x2="0" y2="-12"/>
			
				<line fill="none" stroke="#231F20" stroke-width="2" stroke-linecap="round" stroke-linejoin="round" stroke-miterlimit="10" x1="12" y1="0" x2="12" y2="0"/>
			<path fill="none" stroke="#231F20" stroke-width="2" stroke-linecap="round" stroke-linejoin="round" stroke-miterlimit="10" d="
				M-17.334,0c0-9.574,7.761-17.334,17.334-17.334S17.333-9.573,17.333,0c0,9.572-7.76,17.334-17.333,17.334
				c-4.787,0-9.12-1.94-12.257-5.077"/>
			
				<polyline fill="none" stroke="#231F20" stroke-width="2" stroke-linecap="round" stroke-linejoin="round" stroke-miterlimit="10" points="
				-12.257,17.343 -12.257,12.257 -7.171,12.257 			"/>
		</g>
	</g>
</symbol>
<symbol  id="History_3" viewBox="-24 -24 48 48">
	<g id="Future_4_">
		<g id="Clock_2_9_">
			<polygon fill="none" points="24,-24 -24,-24 -24,24 24,24 			"/>
			
				<polyline fill="none" stroke="#231F20" stroke-width="2" stroke-linecap="round" stroke-linejoin="round" stroke-miterlimit="10" points="
				0,13 0,0 -12.991,0 			"/>
			
				<line fill="none" stroke="#231F20" stroke-width="2" stroke-linecap="round" stroke-linejoin="round" stroke-miterlimit="10" x1="0" y1="-12" x2="0" y2="-12"/>
			
				<line fill="none" stroke="#231F20" stroke-width="2" stroke-linecap="round" stroke-linejoin="round" stroke-miterlimit="10" x1="12" y1="0" x2="12" y2="0"/>
			<path fill="none" stroke="#231F20" stroke-width="2" stroke-linecap="round" stroke-linejoin="round" stroke-miterlimit="10" d="
				M-17.334,0c0-9.574,7.761-17.334,17.334-17.334S17.333-9.573,17.333,0c0,9.572-7.76,17.334-17.333,17.334
				c-4.787,0-9.12-1.94-12.257-5.077"/>
			
				<polyline fill="none" stroke="#231F20" stroke-width="2" stroke-linecap="round" stroke-linejoin="round" stroke-miterlimit="10" points="
				-12.257,17.343 -12.257,12.257 -7.171,12.257 			"/>
		</g>
	</g>
</symbol>
<symbol  id="History_4" viewBox="-24 -24 48 48">
	<g id="Future_5_">
		<g id="Clock_2_10_">
			<polygon fill="none" points="24,-24 -24,-24 -24,24 24,24 			"/>
			
				<polyline fill="none" stroke="#231F20" stroke-width="2" stroke-linecap="round" stroke-linejoin="round" stroke-miterlimit="10" points="
				0,13 0,0 12.991,0 			"/>
			
				<line fill="none" stroke="#231F20" stroke-width="2" stroke-linecap="round" stroke-linejoin="round" stroke-miterlimit="10" x1="0" y1="-12" x2="0" y2="-12"/>
			
				<line fill="none" stroke="#231F20" stroke-width="2" stroke-linecap="round" stroke-linejoin="round" stroke-miterlimit="10" x1="-12" y1="0" x2="-12" y2="0"/>
			<path fill="none" stroke="#231F20" stroke-width="2" stroke-linecap="round" stroke-linejoin="round" stroke-miterlimit="10" d="
				M-17.334,0c0-9.574,7.761-17.334,17.334-17.334S17.333-9.573,17.333,0c0,9.572-7.76,17.334-17.333,17.334
				c-4.787,0-9.12-1.94-12.257-5.077"/>
			
				<polyline fill="none" stroke="#231F20" stroke-width="2" stroke-linecap="round" stroke-linejoin="round" stroke-miterlimit="10" points="
				-12.257,17.343 -12.257,12.257 -7.171,12.257 			"/>
		</g>
	</g>
</symbol>
<symbol  id="Timer" viewBox="-24 -24 48 48">
	<polygon fill="none" points="24,-24 -24,-24 -24,24 24,24 	"/>
	<path fill="none" stroke="#231F20" stroke-width="2" stroke-linecap="round" stroke-linejoin="round" stroke-miterlimit="10" d="
		M13-4.334c0,7.18-5.82,13-13,13s-13-5.82-13-13s5.82-13,13-13S13-11.514,13-4.334z"/>
	<path fill="none" stroke="#231F20" stroke-width="2" stroke-linecap="round" stroke-linejoin="round" stroke-miterlimit="10" d="
		M-2.166-4.333c0,1.196,0.97,2.167,2.166,2.167c1.197,0,2.167-0.971,2.167-2.167S1.197-6.5,0-6.5
		C-1.196-6.5-2.166-5.529-2.166-4.333z"/>
	
		<line fill="none" stroke="#231F20" stroke-width="2" stroke-linecap="round" stroke-linejoin="round" stroke-miterlimit="10" x1="-1.516" y1="-2.817" x2="-6.112" y2="1.779"/>
	<path fill="none" stroke="#231F20" stroke-width="2" stroke-linecap="round" stroke-linejoin="round" stroke-miterlimit="10" d="
		M2.166,13c1.197,0,2.168,0.971,2.168,2.166c0,1.197-0.971,2.168-2.168,2.168h-4.333c-1.196,0-2.167-0.971-2.167-2.167
		S-3.363,13-2.167,13H2.166z"/>
	
		<line fill="none" stroke="#231F20" stroke-width="2" stroke-linecap="round" stroke-linejoin="round" stroke-miterlimit="10" x1="0" y1="13" x2="0" y2="8.666"/>
	<path fill="none" stroke="#231F20" stroke-width="2" stroke-linecap="round" stroke-linejoin="round" stroke-miterlimit="10" d="
		M7.745,11.158c3.347-1.678,6.068-4.399,7.746-7.746"/>
	<path fill="none" stroke="#231F20" stroke-width="2" stroke-linecap="round" stroke-linejoin="round" stroke-miterlimit="10" d="
		M-15.49,3.411c1.676,3.347,4.398,6.069,7.745,7.746"/>
</symbol>
<g id="Background">
</g>
<g id="Layer_1">
</g>
<g id="Model">
	<g id="Woman">
	</g>
	<g id="Threshold">
	</g>
	<g id="Man_with_Tie">
	</g>
	<g id="Building_5">
	</g>
</g>
<g id="Icons">
	<g id="Random_Forest">
	</g>
	<g>
		<g>
			
				<use xlink:href="#Calendar__x28_Cancel_x29_"  width="48" height="48" id="XMLID_185_" x="-24" y="-24" transform="matrix(1.875 0 0 -1.875 235.0005 375)" overflow="visible"/>
			
				<use xlink:href="#Calendar__x28_Confirm_x29_"  width="48" height="48" id="XMLID_165_" x="-24" y="-24" transform="matrix(1.875 0 0 -1.875 95 375)" overflow="visible"/>
			
				<use xlink:href="#Calendar__x28_Add_x29_"  width="48" height="48" id="XMLID_163_" x="-24" y="-24" transform="matrix(1.875 0 0 -1.875 375.0005 375)" overflow="visible"/>
			
				<use xlink:href="#Calendar__x28_Remove_x29_"  width="48" height="48" id="XMLID_160_" x="-24" y="-24" transform="matrix(1.875 0 0 -1.875 515.0005 375)" overflow="visible"/>
		</g>
		<g>
			
				<use xlink:href="#Calendar__x28_Details_x29_"  width="48" height="48" id="XMLID_156_" x="-24" y="-24" transform="matrix(1.875 0 0 -1.875 1075.0005 235)" overflow="visible"/>
			
				<use xlink:href="#Clock_3"  width="48" height="48" id="XMLID_141_" x="-24" y="-24" transform="matrix(1.875 0 0 -1.875 375.0005 235)" overflow="visible"/>
			
				<use xlink:href="#Calendar__x28_Blank_x29_"  width="48" height="48" id="XMLID_97_" x="-24" y="-24" transform="matrix(1.875 0 0 -1.875 935.0005 235)" overflow="visible"/>
			
				<use xlink:href="#Clock"  width="48" height="48" id="XMLID_96_" x="-24" y="-24" transform="matrix(1.875 0 0 -1.875 95 235)" overflow="visible"/>
			
				<use xlink:href="#Clock_4"  width="48" height="48" id="XMLID_95_" x="-24" y="-24" transform="matrix(1.875 0 0 -1.875 515.0005 235)" overflow="visible"/>
			
				<use xlink:href="#Clock_2"  width="48" height="48" id="XMLID_87_" x="-24" y="-24" transform="matrix(1.875 0 0 -1.875 235.0005 235)" overflow="visible"/>
			
				<use xlink:href="#Alarm_Clock"  width="48" height="48" id="XMLID_86_" x="-24" y="-24" transform="matrix(1.875 0 0 -1.875 655.0005 235)" overflow="visible"/>
			
				<use xlink:href="#Timer"  width="48" height="48" id="XMLID_85_" x="-24" y="-24" transform="matrix(1.875 0 0 -1.875 795.0005 235)" overflow="visible"/>
		</g>
		<g>
			
				<use xlink:href="#Future"  width="48" height="48" id="XMLID_82_" x="-24" y="-24" transform="matrix(1.875 0 0 -1.875 795.0005 95)" overflow="visible"/>
			
				<use xlink:href="#Future_2"  width="48" height="48" id="XMLID_67_" x="-24" y="-24" transform="matrix(1.875 0 0 -1.875 935.0005 95)" overflow="visible"/>
			
				<use xlink:href="#Future_3"  width="48" height="48" id="XMLID_63_" x="-24" y="-24" transform="matrix(1.875 0 0 -1.875 1075.0005 95)" overflow="visible"/>
			
				<use xlink:href="#Future_4"  width="48" height="48" id="XMLID_51_" x="-24" y="-24" transform="matrix(1.875 0 0 -1.875 655.0005 95)" overflow="visible"/>
			
				<use xlink:href="#History"  width="48" height="48" id="XMLID_50_" x="-24" y="-24" transform="matrix(1.875 0 0 -1.875 235.0005 95)" overflow="visible"/>
			
				<use xlink:href="#History_2"  width="48" height="48" id="XMLID_49_" x="-24" y="-24" transform="matrix(1.875 0 0 -1.875 515.0005 95)" overflow="visible"/>
			
				<use xlink:href="#History_3"  width="48" height="48" id="XMLID_44_" x="-24" y="-24" transform="matrix(1.875 0 0 -1.875 375.0005 95)" overflow="visible"/>
			
				<use xlink:href="#History_4"  width="48" height="48" id="XMLID_42_" x="-24" y="-24" transform="matrix(1.875 0 0 -1.875 95 95)" overflow="visible"/>
		</g>
	</g>
	<g id="Database">
	</g>
	<g id="Random_Forest_1_">
	</g>
	<g id="University">
	</g>
	<g id="Group">
	</g>
	<g id="Group_1_">
	</g>
	<g id="Scatterplott">
	</g>
	<g id="Long_Paper_2_">
	</g>
	<g id="Spread">
	</g>
	<g id="Isometric_Box">
	</g>
	<g id="Magnifying_Glass">
	</g>
	<g id="Code_2">
	</g>
</g>
<g id="Figures">
	<g id="Models">
	</g>
	<g id="Justice">
	</g>
	<g id="Sensor">
	</g>
	<g id="Widget">
	</g>
	<g id="Drop_1_">
	</g>
	<g id="Algorithm_1_">
	</g>
	<g id="On-body_sensor_1_">
	</g>
	<g id="Insulin_Pump_1_">
	</g>
	<g id="Drop">
	</g>
	<g id="Algorithm">
	</g>
	<g id="On-body_sensor">
	</g>
	<g id="Insulin_Pump">
	</g>
</g>
<g id="Meta__x2B__Title">
</g>
<g id="Isolation_Mode">
</g>
<g id="Long_Paper">
	<g id="Long_Paper_1_">
	</g>
	<g id="IV">
	</g>
	<g id="Air_Purifier">
	</g>
	<g id="Alarm">
	</g>
	<g id="Chat">
	</g>
	<g id="Presentation">
	</g>
	<g id="Dog_2">
	</g>
	<g id="Delivery">
	</g>
	<g id="Meat_2">
	</g>
</g>
</svg>
