<?xml version="1.0" encoding="utf-8"?>
<!-- Generator: Adobe Illustrator 16.0.0, SVG Export Plug-In . SVG Version: 6.00 Build 0)  -->
<!DOCTYPE svg PUBLIC "-//W3C//DTD SVG 1.1//EN" "http://www.w3.org/Graphics/SVG/1.1/DTD/svg11.dtd">
<svg version="1.1" xmlns="http://www.w3.org/2000/svg" xmlns:xlink="http://www.w3.org/1999/xlink" x="0px" y="0px" width="1170px"
	 height="330px" viewBox="0 0 1170 330" enable-background="new 0 0 1170 330" xml:space="preserve">
<symbol  id="Camera" viewBox="-24 -24 48 48">
	<polygon fill="none" points="24,-24 -24,-24 -24,24 24,24 	"/>
	<path opacity="0.5" fill="#231F20" d="M4.334-0.717c0,2.394-1.94,4.334-4.334,4.334s-4.334-1.94-4.334-4.334
		C-4.334-3.11-2.394-5.05,0-5.05S4.334-3.11,4.334-0.717z"/>
	
		<polyline fill="none" stroke="#231F20" stroke-width="2" stroke-linecap="round" stroke-linejoin="round" stroke-miterlimit="10" points="
		4.595,9.309 17.333,9.309 17.333,-12.359 -17.333,-12.359 -17.333,9.309 -4.595,9.309 	"/>
	<path fill="none" stroke="#231F20" stroke-width="2" stroke-linecap="round" stroke-linejoin="round" stroke-miterlimit="10" d="
		M4.334-0.716c0-2.394-1.94-4.334-4.333-4.334c-2.394,0-4.335,1.94-4.335,4.334s1.941,4.334,4.335,4.334
		C2.394,3.619,4.334,1.678,4.334-0.716z"/>
	<path fill="none" stroke="#231F20" stroke-width="2" stroke-linecap="round" stroke-linejoin="round" stroke-miterlimit="10" d="
		M8.132-0.716c0,4.49-5.247,13.075-5.247,13.075h-5.77c0,0-5.247-8.585-5.247-13.075c0-4.491,3.64-8.132,8.132-8.132
		C4.491-8.848,8.132-5.207,8.132-0.716z"/>
	<path fill="#231F20" d="M1,8.362c0-0.55-0.45-1-1-1l0,0c-0.55,0-1,0.45-1,1l0,0c0,0.55,0.45,1,1,1l0,0C0.55,9.362,1,8.912,1,8.362
		L1,8.362z"/>
	
		<polyline fill="none" stroke="#231F20" stroke-width="2" stroke-linecap="round" stroke-linejoin="round" stroke-miterlimit="10" points="
		-9.201,9.314 -10.957,12.359 -12.87,12.359 -14.631,9.309 	"/>
</symbol>
<symbol  id="Image" viewBox="-24 -24 48 48">
	<polygon fill="none" points="24,-24 -24,-24 -24,24 24,24 	"/>
	<g>
		
			<polygon fill="none" stroke="#231F20" stroke-width="2" stroke-linecap="round" stroke-linejoin="round" stroke-miterlimit="10" points="
			17.333,13 -17.333,13 -17.333,-13 17.333,-13 		"/>
		
			<polyline fill="none" stroke="#231F20" stroke-width="2" stroke-linecap="round" stroke-linejoin="round" stroke-miterlimit="10" points="
			-13,-8.667 -8.667,-4.334 -4.333,-8.667 4.333,0 13,-8.667 		"/>
		<path fill="none" stroke="#231F20" stroke-width="2" stroke-linecap="round" stroke-linejoin="round" stroke-miterlimit="10" d="
			M-4.333,4.334C-4.333,1.94-6.274,0-8.667,0S-13,1.94-13,4.334c0,2.393,1.941,4.332,4.333,4.332S-4.333,6.727-4.333,4.334z"/>
	</g>
</symbol>
<symbol  id="Megaphone" viewBox="-24 -24 48 48">
	<polygon fill="none" points="24,-24 -24,-24 -24,24 24,24 	"/>
	<polygon opacity="0.5" fill="#231F20" points="4.333,-4.334 0,-4.334 0,8.666 4.333,8.666 	"/>
	
		<polygon fill="none" stroke="#231F20" stroke-width="2" stroke-linecap="round" stroke-linejoin="round" stroke-miterlimit="10" points="
		17.333,17.334 4.333,8.666 4.333,-4.334 17.333,-13 	"/>
	<path fill="none" stroke="#231F20" stroke-width="2" stroke-linecap="round" stroke-linejoin="round" stroke-miterlimit="10" d="
		M-10.833,8.666c-3.59,0-6.5-2.91-6.5-6.5s2.91-6.5,6.5-6.5H4.333v13H-10.833z"/>
	<path fill="none" stroke="#231F20" stroke-width="2" stroke-linecap="round" stroke-linejoin="round" stroke-miterlimit="10" d="
		M-8.667-4.334V-13c0-2.393,1.94-4.334,4.333-4.334C-1.94-17.334,0-15.393,0-13V8.666"/>
</symbol>
<symbol  id="Microphone" viewBox="-24 -24 48 48">
	<polygon fill="none" points="24,-24 -24,-24 -24,24 24,24 	"/>
	<path fill="none" stroke="#231F20" stroke-width="2" stroke-linecap="round" stroke-linejoin="round" stroke-miterlimit="40" d="
		M-8.667,0c0-4.787,3.88-8.667,8.667-8.667S8.667-4.787,8.667,0v8.666c0,4.787-3.88,8.668-8.667,8.668s-8.667-3.881-8.667-8.668V0z"
		/>
	<path fill="none" stroke="#231F20" stroke-width="2" stroke-linecap="round" stroke-linejoin="round" stroke-miterlimit="40" d="
		M-9.192-9.192c5.077-5.077,13.308-5.077,18.385,0"/>
	
		<line fill="none" stroke="#231F20" stroke-width="2" stroke-linecap="round" stroke-linejoin="round" stroke-miterlimit="40" x1="0" y1="-17.334" x2="0" y2="-12.997"/>
	
		<line fill="none" stroke="#231F20" stroke-width="2" stroke-linecap="round" stroke-linejoin="round" stroke-miterlimit="40" x1="-3.333" y1="8.666" x2="3.333" y2="8.666"/>
	
		<line fill="none" stroke="#231F20" stroke-width="2" stroke-linecap="round" stroke-linejoin="round" stroke-miterlimit="40" x1="3.333" y1="4.334" x2="-3.333" y2="4.334"/>
	
		<line fill="none" stroke="#231F20" stroke-width="2" stroke-linecap="round" stroke-linejoin="round" stroke-miterlimit="40" x1="-3.333" y1="0" x2="3.333" y2="0"/>
</symbol>
<symbol  id="Music" viewBox="-24 -24 48 48">
	<polygon fill="none" points="24,-24 -24,-24 -24,24 24,24 	"/>
	<path fill="none" stroke="#231F20" stroke-width="2" stroke-linecap="round" stroke-linejoin="round" stroke-miterlimit="10" d="
		M-4.333-10.832c0-3.59-2.909-6.5-6.499-6.5c-3.59,0-6.501,2.91-6.501,6.5c0,3.591,2.911,6.5,6.501,6.5
		C-7.243-4.332-4.333-7.241-4.333-10.832z"/>
	<path fill="none" stroke="#231F20" stroke-width="2" stroke-linecap="round" stroke-linejoin="round" stroke-miterlimit="10" d="
		M17.333-6.5c0-3.59-2.909-6.5-6.499-6.5c-3.59,0-6.501,2.91-6.501,6.5c0,3.591,2.911,6.5,6.501,6.5
		C14.424,0,17.333-2.909,17.333-6.5z"/>
	
		<polyline fill="none" stroke="#231F20" stroke-width="2" stroke-linecap="round" stroke-linejoin="round" stroke-miterlimit="10" points="
		17.333,-6.5 17.333,17.334 -4.333,13.001 -4.333,-10.832 	"/>
	
		<line fill="none" stroke="#231F20" stroke-width="2" stroke-linecap="round" stroke-linejoin="round" stroke-miterlimit="10" x1="17.333" y1="13" x2="-4.333" y2="8.666"/>
</symbol>
<symbol  id="No_Microphone" viewBox="-24 -24 48 48">
	<polygon fill="none" points="24,-24 -24,-24 -24,24 24,24 	"/>
	<g>
		<defs>
			<path id="SVGID_1_" d="M-24,24v-48h48v48H-24z M-15.212-19.455l-4.242,4.242l34.667,34.668l4.242-4.242L-15.212-19.455z"/>
		</defs>
		<clipPath id="SVGID_2_">
			<use xlink:href="#SVGID_1_"  overflow="visible"/>
		</clipPath>
		
			<line clip-path="url(#SVGID_2_)" fill="none" stroke="#231F20" stroke-width="2" stroke-linecap="round" stroke-linejoin="round" stroke-miterlimit="40" x1="-3.333" y1="8.666" x2="3.333" y2="8.666"/>
		
			<line clip-path="url(#SVGID_2_)" fill="none" stroke="#231F20" stroke-width="2" stroke-linecap="round" stroke-linejoin="round" stroke-miterlimit="40" x1="3.333" y1="4.334" x2="-3.333" y2="4.334"/>
		
			<line clip-path="url(#SVGID_2_)" fill="none" stroke="#231F20" stroke-width="2" stroke-linecap="round" stroke-linejoin="round" stroke-miterlimit="40" x1="-3.333" y1="0" x2="3.333" y2="0"/>
		
			<path clip-path="url(#SVGID_2_)" fill="none" stroke="#231F20" stroke-width="2" stroke-linecap="round" stroke-linejoin="round" stroke-miterlimit="40" d="
			M-8.666,0c0-4.787,3.88-8.667,8.667-8.667S8.667-4.787,8.667,0v8.666c0,4.787-3.88,8.668-8.666,8.668s-8.667-3.881-8.667-8.668V0z
			"/>
		
			<path clip-path="url(#SVGID_2_)" fill="none" stroke="#231F20" stroke-width="2" stroke-linecap="round" stroke-linejoin="round" stroke-miterlimit="40" d="
			M-9.192-9.192c5.077-5.077,13.308-5.077,18.385,0"/>
		
			<line clip-path="url(#SVGID_2_)" fill="none" stroke="#231F20" stroke-width="2" stroke-linecap="round" stroke-linejoin="round" stroke-miterlimit="40" x1="0" y1="-17.334" x2="0" y2="-12.997"/>
	</g>
	
		<line fill="none" stroke="#231F20" stroke-width="2" stroke-linecap="round" stroke-miterlimit="40" x1="17.334" y1="17.334" x2="-17.333" y2="-17.334"/>
</symbol>
<symbol  id="Speaker_Muted" viewBox="-24 -24 48 48">
	<polygon fill="none" points="24,-24 -24,-24 -24,24 24,24 	"/>
	
		<polygon fill="none" stroke="#231F20" stroke-width="2" stroke-linecap="round" stroke-linejoin="round" stroke-miterlimit="10" points="
		-8.667,-6.5 -17.333,-6.5 -17.333,6.5 -8.667,6.5 0,13 0,-13 	"/>
	
		<line fill="none" stroke="#231F20" stroke-width="2" stroke-linecap="round" stroke-linejoin="round" stroke-miterlimit="10" x1="4.333" y1="6.5" x2="17.333" y2="-6.5"/>
	
		<line fill="none" stroke="#231F20" stroke-width="2" stroke-linecap="round" stroke-linejoin="round" stroke-miterlimit="10" x1="17.333" y1="6.5" x2="4.333" y2="-6.5"/>
</symbol>
<symbol  id="Speaker_On_High" viewBox="-24 -24 48 48">
	<polygon fill="none" points="24,-24 -24,-24 -24,24 24,24 	"/>
	
		<polygon fill="none" stroke="#231F20" stroke-width="2" stroke-linecap="round" stroke-linejoin="round" stroke-miterlimit="10" points="
		-8.667,-6.5 -17.333,-6.5 -17.333,6.5 -8.667,6.5 0,13 0,-13 	"/>
	<path fill="none" stroke="#231F20" stroke-width="2" stroke-linecap="round" stroke-linejoin="round" stroke-miterlimit="10" d="
		M3.064-3.064c1.692,1.692,1.692,4.436,0,6.129"/>
	<path fill="none" stroke="#231F20" stroke-width="2" stroke-linecap="round" stroke-linejoin="round" stroke-miterlimit="10" d="
		M12.257-12.256c6.77,6.77,6.768,17.74,0,24.512"/>
	<path fill="none" stroke="#231F20" stroke-width="2" stroke-linecap="round" stroke-linejoin="round" stroke-miterlimit="10" d="
		M7.662-7.661c4.231,4.231,4.23,11.089,0,15.322"/>
</symbol>
<symbol  id="Speaker_On_Low" viewBox="-24 -24 48 48">
	<polygon fill="none" points="24,-24 -24,-24 -24,24 24,24 	"/>
	
		<polygon fill="none" stroke="#231F20" stroke-width="2" stroke-linecap="round" stroke-linejoin="round" stroke-miterlimit="10" points="
		-8.667,-6.5 -17.333,-6.5 -17.333,6.5 -8.667,6.5 0,13 0,-13 	"/>
	<path fill="none" stroke="#231F20" stroke-width="2" stroke-linecap="round" stroke-linejoin="round" stroke-miterlimit="10" d="
		M3.064-3.064c1.692,1.692,1.692,4.436,0,6.129"/>
</symbol>
<symbol  id="Speaker_On_Medium" viewBox="-24 -24 48 48">
	<polygon fill="none" points="24,-24 -24,-24 -24,24 24,24 	"/>
	
		<polygon fill="none" stroke="#231F20" stroke-width="2" stroke-linecap="round" stroke-linejoin="round" stroke-miterlimit="10" points="
		-8.667,-6.5 -17.333,-6.5 -17.333,6.5 -8.667,6.5 0,13 0,-13 	"/>
	<path fill="none" stroke="#231F20" stroke-width="2" stroke-linecap="round" stroke-linejoin="round" stroke-miterlimit="10" d="
		M3.064-3.064c1.692,1.692,1.692,4.436,0,6.129"/>
	<path fill="none" stroke="#231F20" stroke-width="2" stroke-linecap="round" stroke-linejoin="round" stroke-miterlimit="10" d="
		M7.662-7.661c4.231,4.231,4.23,11.089,0,15.322"/>
</symbol>
<symbol  id="Video" viewBox="-24 -24 48 48">
	<polygon fill="none" points="24,-24 -24,-24 -24,24 24,24 	"/>
	
		<polygon fill="none" stroke="#231F20" stroke-width="2" stroke-linecap="round" stroke-linejoin="round" stroke-miterlimit="10" points="
		17.334,-13 -17.334,-13 -17.334,13 17.334,13 	"/>
	
		<polygon fill="none" stroke="#231F20" stroke-width="2" stroke-linecap="round" stroke-linejoin="round" stroke-miterlimit="10" points="
		-4.334,5.004 4.334,0 -4.334,-5.004 	"/>
</symbol>
<symbol  id="Video_Camera" viewBox="-24 -24 48 48">
	<polygon fill="none" points="24,-24 -24,-24 -24,24 24,24 	"/>
	<polygon opacity="0.5" fill="#231F20" points="-8.667,-13 4.333,-13 4.333,-4.334 -8.667,-4.334 	"/>
	
		<polygon fill="none" stroke="#231F20" stroke-width="2" stroke-linecap="round" stroke-linejoin="round" stroke-miterlimit="10" points="
		8.667,0 -17.333,0 -17.333,-17.334 8.667,-17.334 	"/>
	
		<polyline fill="none" stroke="#231F20" stroke-width="2" stroke-linecap="round" stroke-linejoin="round" stroke-miterlimit="10" points="
		8.667,-8.666 17.333,-3.662 17.333,-13.67 8.667,-8.666 	"/>
	<path fill="none" stroke="#231F20" stroke-width="2" stroke-linecap="round" stroke-linejoin="round" stroke-miterlimit="10" d="
		M8.667,10.833c0,3.591-2.91,6.501-6.5,6.501s-6.5-2.91-6.5-6.501c0-3.589,2.91-6.5,6.5-6.5S8.667,7.244,8.667,10.833z"/>
	<path fill="none" stroke="#231F20" stroke-width="2" stroke-linecap="round" stroke-linejoin="round" stroke-miterlimit="10" d="
		M-8.667,8.666C-8.667,11.061-10.606,13-13,13s-4.333-1.939-4.333-4.334c0-2.393,1.94-4.333,4.333-4.333S-8.667,6.273-8.667,8.666z"
		/>
	
		<polygon fill="none" stroke="#231F20" stroke-width="2" stroke-linecap="round" stroke-linejoin="round" stroke-miterlimit="10" points="
		-8.667,-13 4.333,-13 4.333,-4.334 -8.667,-4.334 	"/>
	
		<line fill="none" stroke="#231F20" stroke-width="2" stroke-linecap="round" stroke-linejoin="round" stroke-miterlimit="10" x1="-13" y1="-4.334" x2="-13" y2="-13"/>
</symbol>
<g id="Background">
</g>
<g id="Layer_1">
</g>
<g id="Model">
	<g id="Woman">
	</g>
	<g id="Threshold">
	</g>
	<g id="Man_with_Tie">
	</g>
	<g id="Building_5">
	</g>
</g>
<g id="Icons">
	<g>
		
			<use xlink:href="#Speaker_On_High"  width="48" height="48" id="XMLID_177_" x="-24" y="-24" transform="matrix(1.875 0 0 -1.875 515 235)" overflow="visible"/>
		
			<use xlink:href="#Speaker_On_Low"  width="48" height="48" id="XMLID_176_" x="-24" y="-24" transform="matrix(1.875 0 0 -1.875 235 235)" overflow="visible"/>
		
			<use xlink:href="#Speaker_On_Medium"  width="48" height="48" id="XMLID_105_" x="-24" y="-24" transform="matrix(1.875 0 0 -1.875 375 235)" overflow="visible"/>
		
			<use xlink:href="#Speaker_Muted"  width="48" height="48" id="XMLID_104_" x="-24" y="-24" transform="matrix(1.875 0 0 -1.875 95 235)" overflow="visible"/>
		
			<use xlink:href="#Microphone"  width="48" height="48" id="XMLID_59_" x="-24" y="-24" transform="matrix(1.875 0 0 -1.875 795 95)" overflow="visible"/>
		
			<use xlink:href="#Camera"  width="48" height="48" id="XMLID_20_" x="-24" y="-24" transform="matrix(1.875 0 0 -1.875 375 95)" overflow="visible"/>
		
			<use xlink:href="#Megaphone"  width="48" height="48" id="XMLID_19_" x="-24" y="-24" transform="matrix(1.875 0 0 -1.875 655 95)" overflow="visible"/>
		
			<use xlink:href="#No_Microphone"  width="48" height="48" id="XMLID_18_" x="-24" y="-24" transform="matrix(1.875 0 0 -1.875 935 95)" overflow="visible"/>
		
			<use xlink:href="#Music"  width="48" height="48" id="XMLID_17_" x="-24" y="-24" transform="matrix(1.875 0 0 -1.875 1075 95)" overflow="visible"/>
		
			<use xlink:href="#Image"  width="48" height="48" id="XMLID_16_" x="-24" y="-24" transform="matrix(1.875 0 0 -1.875 95 95)" overflow="visible"/>
		
			<use xlink:href="#Video_Camera"  width="48" height="48" id="XMLID_15_" x="-24" y="-24" transform="matrix(1.875 0 0 -1.875 515 95)" overflow="visible"/>
		
			<use xlink:href="#Video"  width="48" height="48" id="XMLID_8_" x="-24" y="-24" transform="matrix(1.875 0 0 -1.875 235 95)" overflow="visible"/>
	</g>
	<g id="Random_Forest">
	</g>
	<g id="Database">
	</g>
	<g id="Random_Forest_1_">
	</g>
	<g id="University">
	</g>
	<g id="Group">
	</g>
	<g id="Group_1_">
	</g>
	<g id="Scatterplott">
	</g>
	<g id="Long_Paper_2_">
	</g>
	<g id="Spread">
	</g>
	<g id="Isometric_Box">
	</g>
	<g id="Magnifying_Glass">
	</g>
	<g id="Code_2">
	</g>
</g>
<g id="Figures">
	<g id="Models">
	</g>
	<g id="Justice">
	</g>
	<g id="Sensor">
	</g>
	<g id="Widget">
	</g>
	<g id="Drop_1_">
	</g>
	<g id="Algorithm_1_">
	</g>
	<g id="On-body_sensor_1_">
	</g>
	<g id="Insulin_Pump_1_">
	</g>
	<g id="Drop">
	</g>
	<g id="Algorithm">
	</g>
	<g id="On-body_sensor">
	</g>
	<g id="Insulin_Pump">
	</g>
</g>
<g id="Meta__x2B__Title">
</g>
<g id="Isolation_Mode">
</g>
<g id="Long_Paper">
	<g id="Long_Paper_1_">
	</g>
	<g id="IV">
	</g>
	<g id="Air_Purifier">
	</g>
	<g id="Alarm">
	</g>
	<g id="Chat">
	</g>
	<g id="Presentation">
	</g>
	<g id="Dog_2">
	</g>
	<g id="Delivery">
	</g>
	<g id="Meat_2">
	</g>
</g>
</svg>
