<?xml version="1.0" encoding="utf-8"?>
<!-- Generator: Adobe Illustrator 16.0.0, SVG Export Plug-In . SVG Version: 6.00 Build 0)  -->
<!DOCTYPE svg PUBLIC "-//W3C//DTD SVG 1.1//EN" "http://www.w3.org/Graphics/SVG/1.1/DTD/svg11.dtd">
<svg version="1.1" xmlns="http://www.w3.org/2000/svg" xmlns:xlink="http://www.w3.org/1999/xlink" x="0px" y="0px" width="1170px"
	 height="470px" viewBox="0 0 1170 470" enable-background="new 0 0 1170 470" xml:space="preserve">
<symbol  id="Bottle_and_Glass" viewBox="-24 -24 48 48">
	<polygon fill="none" points="24,-24 -24,-24 -24,24 24,24 	"/>
	<polygon opacity="0.5" fill="#231F20" points="17.333,-13 4.333,-13 4.333,0 17.333,0 	"/>
	<path fill="none" stroke="#231F20" stroke-width="2" stroke-linecap="round" stroke-linejoin="round" stroke-miterlimit="10" d="
		M13,13v4.334H8.667V13c0-4.334-4.333-8.666-4.333-13s0-13,0-13c0-2.394,1.94-4.334,4.333-4.334H13c2.394,0,4.333,1.94,4.333,4.334
		c0,0,0,8.667,0,13S13,8.666,13,13z"/>
	
		<polygon fill="none" stroke="#231F20" stroke-width="2" stroke-linecap="round" stroke-linejoin="round" stroke-miterlimit="10" points="
		17.333,-13 4.333,-13 4.333,0 17.333,0 	"/>
	<path fill="none" stroke="#231F20" stroke-width="2" stroke-linecap="round" stroke-linejoin="round" stroke-miterlimit="10" d="
		M-17.333,0c0-4.334,0-13,0-13c0-2.394,1.94-4.334,4.333-4.334h4.333c2.394,0,4.333,1.94,4.333,4.334c0,0,0,8.667,0,13"/>
	<path opacity="0.5" fill="#231F20" d="M-17.333-4.334c0-4.333,0-8.666,0-8.666c0-2.394,1.94-4.334,4.333-4.334h4.333
		c2.394,0,4.333,1.94,4.333,4.334c0,0,0,4.334,0,8.666"/>
</symbol>
<symbol  id="Bottle_with_Label" viewBox="-24 -24 48 48">
	<polygon fill="none" points="24,-24 -24,-24 -24,24 24,24 	"/>
	<polygon opacity="0.5" fill="#231F20" points="6.5,-13 -6.5,-13 -6.5,0 6.5,0 	"/>
	<path fill="none" stroke="#231F20" stroke-width="2" stroke-linecap="round" stroke-linejoin="round" stroke-miterlimit="10" d="
		M2.167,13v4.334h-4.333V13c0-4.334-4.333-8.666-4.333-13s0-13,0-13c0-2.394,1.94-4.334,4.333-4.334h4.333
		C4.56-17.334,6.5-15.394,6.5-13c0,0,0,8.667,0,13S2.167,8.666,2.167,13z"/>
	
		<polygon fill="none" stroke="#231F20" stroke-width="2" stroke-linecap="round" stroke-linejoin="round" stroke-miterlimit="10" points="
		6.5,-13 -6.5,-13 -6.5,0 6.5,0 	"/>
</symbol>
<symbol  id="Bread" viewBox="-24 -24 48 48">
	<polygon fill="none" points="24,-24 -24,-24 -24,24 24,24 	"/>
	<path fill="none" stroke="#231F20" stroke-width="2" stroke-linecap="round" stroke-linejoin="round" stroke-miterlimit="10" d="
		M17.333,8.666c0,4.787-3.88,8.668-8.667,8.668H-8.667c-4.787,0-8.667-3.881-8.667-8.668c0-3.205,1.746-5.998,4.333-7.497v-18.503
		h26V1.169C15.588,2.668,17.333,5.461,17.333,8.666z"/>
	
		<line opacity="0.5" fill="none" stroke="#231F20" stroke-width="2" stroke-linecap="round" stroke-linejoin="round" stroke-miterlimit="10" x1="-4.333" y1="8.666" x2="-4.333" y2="-8.666"/>
	
		<line opacity="0.5" fill="none" stroke="#231F20" stroke-width="2" stroke-linecap="round" stroke-linejoin="round" stroke-miterlimit="10" x1="4.334" y1="-8.666" x2="4.334" y2="8.666"/>
</symbol>
<symbol  id="Bread_2" viewBox="-24 -24 48 48">
	<polygon fill="none" points="24,-24 -24,-24 -24,24 24,24 	"/>
	<path fill="none" stroke="#231F20" stroke-width="2" stroke-linecap="round" stroke-linejoin="round" stroke-miterlimit="10" d="
		M17.333,8.666c0,4.787-3.88,8.668-8.667,8.668H-8.667c-4.787,0-8.667-3.881-8.667-8.668c0-3.205,1.746-5.998,4.333-7.497v-18.503
		h26V1.169C15.588,2.668,17.333,5.461,17.333,8.666z"/>
	
		<line opacity="0.5" fill="none" stroke="#231F20" stroke-width="2" stroke-linecap="round" stroke-linejoin="round" stroke-miterlimit="10" x1="0" y1="-13" x2="8.667" y2="-4.334"/>
	
		<line opacity="0.5" fill="none" stroke="#231F20" stroke-width="2" stroke-linecap="round" stroke-linejoin="round" stroke-miterlimit="10" x1="13" y1="8.666" x2="-8.667" y2="-13"/>
</symbol>
<symbol  id="Cup_with_Straw" viewBox="-24 -24 48 48">
	<polygon fill="none" points="24,-24 -24,-24 -24,24 24,24 	"/>
	
		<polygon fill="none" stroke="#231F20" stroke-width="2" stroke-linecap="round" stroke-linejoin="round" stroke-miterlimit="10" points="
		5.417,-17.334 -5.417,-17.334 -8.667,4.334 8.667,4.334 	"/>
	
		<polyline fill="none" stroke="#231F20" stroke-width="2" stroke-linecap="round" stroke-linejoin="round" stroke-miterlimit="10" points="
		0,4.334 0,13 13,17.334 	"/>
</symbol>
<symbol  id="Cutlery" viewBox="-24 -24 48 48">
	<polygon fill="none" points="24,-24 -24,-24 -24,24 24,24 	"/>
	
		<line fill="none" stroke="#231F20" stroke-width="2" stroke-linecap="round" stroke-linejoin="round" stroke-miterlimit="10" x1="-4.333" y1="-11" x2="-4.333" y2="11"/>
	<path fill="none" stroke="#231F20" stroke-width="2" stroke-linecap="round" stroke-linejoin="round" stroke-miterlimit="10" d="
		M-1,11V6.667c0-1.841-1.493-3.333-3.333-3.333s-3.333,1.492-3.333,3.333V11"/>
	<path fill="none" stroke="#231F20" stroke-width="2" stroke-linecap="round" stroke-linejoin="round" stroke-miterlimit="10" d="
		M4.333-11v22c2.394,0,4.333-1.939,4.333-4.334V-1H4.333"/>
	<path fill="none" stroke="#231F20" stroke-width="2" stroke-linecap="round" stroke-linejoin="round" stroke-miterlimit="10" d="
		M17.333,0c0,9.572-7.761,17.334-17.333,17.334S-17.333,9.572-17.333,0S-9.573-17.334,0-17.334S17.333-9.572,17.333,0z"/>
	<g id="Layer_1_2_">
	</g>
</symbol>
<symbol  id="Donut" viewBox="-24 -24 48 48">
	<polygon fill="none" points="24,-24 -24,-24 -24,24 24,24 	"/>
	<path opacity="0.5" fill="#231F20" d="M17.292-0.799C17.317-0.535,17.333-0.27,17.333,0c0,4.786-3.88,8.666-8.667,8.666H-8.667
		c-4.517,0-8.223-3.456-8.626-7.867c3.422-0.014,3.439-1.599,6.89-1.599c3.463,0,3.463,1.6,6.927,1.6c3.467,0,3.467-1.6,6.933-1.6
		c3.469,0,3.469,1.6,6.938,1.6C13.85,0.8,13.867-0.785,17.292-0.799z"/>
	<path fill="none" stroke="#231F20" stroke-width="2" stroke-linecap="round" stroke-linejoin="round" stroke-miterlimit="10" d="
		M8.667,8.666H-8.667c-4.786,0-8.667-3.88-8.667-8.666s3.88-8.666,8.667-8.666H8.667c4.786,0,8.667,3.88,8.667,8.666
		S13.453,8.666,8.667,8.666z"/>
	<path fill="none" stroke="#231F20" stroke-width="2" stroke-linecap="round" stroke-linejoin="round" stroke-miterlimit="10" d="
		M-17.333,0.8c3.465,0,3.465-1.6,6.931-1.6c3.463,0,3.463,1.6,6.927,1.6c3.467,0,3.467-1.6,6.933-1.6c3.469,0,3.469,1.6,6.938,1.6
		s3.469-1.6,6.938-1.6"/>
	<path fill="#231F20" d="M-10.042,2.459c0,0.552-0.448,1-1,1s-1-0.448-1-1c0-0.553,0.448-1,1-1S-10.042,1.906-10.042,2.459z"/>
	<path fill="#231F20" d="M-9.583,5.709c0,0.552-0.448,1-1,1s-1-0.448-1-1c0-0.553,0.448-1,1-1S-9.583,5.156-9.583,5.709z"/>
	<path fill="#231F20" d="M-5.958,3.334c0,0.552-0.448,1-1,1s-1-0.448-1-1c0-0.553,0.448-1,1-1S-5.958,2.781-5.958,3.334z"/>
	<path fill="#231F20" d="M0.333,4.334c0,0.552-0.448,1-1,1s-1-0.448-1-1c0-0.553,0.448-1,1-1S0.333,3.781,0.333,4.334z"/>
	<path fill="#231F20" d="M3.583,2.459c0,0.552-0.448,1-1,1s-1-0.448-1-1c0-0.553,0.448-1,1-1S3.583,1.906,3.583,2.459z"/>
	<path fill="#231F20" d="M5.583,5.334c0,0.552-0.448,1-1,1s-1-0.448-1-1c0-0.553,0.448-1,1-1S5.583,4.781,5.583,5.334z"/>
	<path fill="#231F20" d="M8.125,3.334c0,0.552-0.448,1-1,1s-1-0.448-1-1c0-0.553,0.448-1,1-1S8.125,2.781,8.125,3.334z"/>
	<path fill="#231F20" d="M11.375,5.334c0,0.552-0.448,1-1,1s-1-0.448-1-1c0-0.553,0.448-1,1-1S11.375,4.781,11.375,5.334z"/>
	<path fill="#231F20" d="M-3.333,6.042c0,0.552-0.448,1-1,1s-1-0.448-1-1s0.448-1,1-1S-3.333,5.49-3.333,6.042z"/>
	<path fill="#231F20" d="M14.333,3.042c0,0.552-0.448,1-1,1s-1-0.448-1-1s0.448-1,1-1S14.333,2.49,14.333,3.042z"/>
</symbol>
<symbol  id="Drop_2_" viewBox="-24 -24 48 48">
	<polygon fill="none" points="24,-24 -24,-24 -24,24 24,24 	"/>
	<g>
		<path fill="none" stroke="#231F20" stroke-width="2" stroke-linecap="round" stroke-linejoin="round" stroke-miterlimit="10" d="
			M-10.154-13.128c5.608-5.608,14.7-5.607,20.309,0c5.607,5.608,5.607,14.7,0,20.309L0,17.334L-10.154,7.181
			C-15.762,1.572-15.761-7.52-10.154-13.128z"/>
		
			<path opacity="0.5" fill="none" stroke="#231F20" stroke-width="2" stroke-linecap="round" stroke-linejoin="round" stroke-miterlimit="10" d="
			M6.655-9.628c3.675,3.675,3.675,9.634,0,13.31"/>
	</g>
</symbol>
<symbol  id="Egg" viewBox="-24 -24 48 48">
	<polygon fill="none" points="24,24 -24,24 -24,-24 24,-24 	"/>
	<path fill="none" stroke="#231F20" stroke-width="2" stroke-linecap="round" stroke-linejoin="round" stroke-miterlimit="10" d="
		M13.866-3.467c0,7.658-6.208,20.799-13.866,20.799S-13.866,4.191-13.866-3.467S-7.658-17.334,0-17.334S13.866-11.125,13.866-3.467z
		"/>
	
		<path opacity="0.5" fill="none" stroke="#231F20" stroke-width="2" stroke-linecap="round" stroke-linejoin="round" stroke-miterlimit="10" d="
		M-2.979,11.914c-2.289-1.946-4.648-5.668-5.925-9.688"/>
</symbol>
<symbol  id="Filled_Wine_Glass" viewBox="-24 -24 48 48">
	<polygon fill="none" points="24,-24 -24,-24 -24,24 24,24 	"/>
	<path opacity="0.5" fill="#231F20" d="M8.666,8.667c0-4.786-3.88-8.666-8.666-8.666s-8.666,3.88-8.666,8.666H8.666z"/>
	<path fill="none" stroke="#231F20" stroke-width="2" stroke-linecap="round" stroke-linejoin="round" stroke-miterlimit="10" d="
		M-8.666,17.334V8.666C-8.666,3.881-4.786,0,0,0s8.666,3.881,8.666,8.666v8.668"/>
	
		<line fill="none" stroke="#231F20" stroke-width="2" stroke-linecap="round" stroke-linejoin="round" stroke-miterlimit="10" x1="0" y1="0" x2="0" y2="-17.334"/>
	
		<line fill="none" stroke="#231F20" stroke-width="2" stroke-linecap="round" stroke-linejoin="round" stroke-miterlimit="10" x1="-8.666" y1="-17.334" x2="8.666" y2="-17.334"/>
</symbol>
<symbol  id="Food_Tray" viewBox="-24 -24 48 48">
	<polygon fill="none" points="24,-24 -24,-24 -24,24 24,24 	"/>
	<path fill="none" stroke="#231F20" stroke-width="2" stroke-linecap="round" stroke-linejoin="round" stroke-miterlimit="10" d="
		M-17.333-8.666c0,9.572,7.76,17.333,17.333,17.333S17.333,0.906,17.333-8.666H-17.333z"/>
	
		<line fill="none" stroke="#231F20" stroke-width="2" stroke-linecap="round" stroke-linejoin="round" stroke-miterlimit="10" x1="-17.333" y1="-13" x2="17.333" y2="-13"/>
	
		<line fill="none" stroke="#231F20" stroke-width="2" stroke-linecap="round" stroke-linejoin="round" stroke-miterlimit="10" x1="0" y1="8.667" x2="0" y2="13"/>
	
		<line fill="none" stroke="#231F20" stroke-width="2" stroke-linecap="round" stroke-linejoin="round" stroke-miterlimit="10" x1="-2.167" y1="13" x2="2.167" y2="13"/>
</symbol>
<symbol  id="Hotdog" viewBox="-24 -24 48 48">
	<polygon fill="none" points="24,-24 -24,-24 -24,24 24,24 	"/>
	<path opacity="0.5" fill="#231F20" d="M-10.83,4.332v-8.664c0-3.591,2.909-6.501,6.498-6.501v21.666
		C-7.921,10.833-10.83,7.923-10.83,4.332z"/>
	<path opacity="0.5" fill="#231F20" d="M10.834-4.332v8.664c0,3.59-2.909,6.5-6.498,6.5v-21.666
		C7.925-10.834,10.834-7.924,10.834-4.332z"/>
	<path fill="none" stroke="#231F20" stroke-width="2" stroke-linecap="round" stroke-linejoin="round" stroke-miterlimit="10" d="
		M-10.83,4.332v-8.664c0-3.591,2.909-6.501,6.498-6.501v21.666C-7.921,10.833-10.83,7.923-10.83,4.332z"/>
	<path fill="none" stroke="#231F20" stroke-width="2" stroke-linecap="round" stroke-linejoin="round" stroke-miterlimit="10" d="
		M10.834-4.332v8.664c0,3.59-2.909,6.5-6.498,6.5v-21.666C7.925-10.834,10.834-7.924,10.834-4.332z"/>
	<path fill="none" stroke="#231F20" stroke-width="2" stroke-linecap="round" stroke-linejoin="round" stroke-miterlimit="10" d="
		M4.334,13c0,2.393-1.94,4.334-4.334,4.334S-4.334,15.393-4.334,13l0.002-25.998c0-2.394,1.94-4.334,4.334-4.334
		s4.334,1.94,4.334,4.334L4.334,13z"/>
	<path fill="none" stroke="#231F20" stroke-width="2" stroke-linecap="round" stroke-linejoin="round" stroke-miterlimit="10" d="
		M1,13c0-2.6-2-2.6-2-5.198c0-2.598,2-2.598,2-5.195c0-2.6-2-2.6-2-5.199c0-2.603,2-2.603,2-5.204S-1-10.398-1-13"/>
</symbol>
<symbol  id="Hotdog_2" viewBox="-24 -24 48 48">
	<polygon fill="none" points="24,-24 -24,-24 -24,24 24,24 	"/>
	<path opacity="0.5" fill="#231F20" d="M-0.788,14.529L-14.53,0.787c-2.539-2.539-2.54-6.654-0.003-9.191L8.403,14.532
		C5.866,17.07,1.751,17.068-0.788,14.529z"/>
	<path opacity="0.5" fill="#231F20" d="M0.788-14.531L14.53-0.789c2.539,2.539,2.54,6.654,0.002,9.191L-8.404-14.533
		C-5.866-17.072-1.751-17.07,0.788-14.531z"/>
	<path fill="none" stroke="#231F20" stroke-width="2" stroke-linecap="round" stroke-linejoin="round" stroke-miterlimit="10" d="
		M-0.788,14.529L-14.53,0.787c-2.539-2.539-2.54-6.654-0.003-9.191L8.403,14.532C5.866,17.07,1.751,17.068-0.788,14.529z"/>
	<path fill="none" stroke="#231F20" stroke-width="2" stroke-linecap="round" stroke-linejoin="round" stroke-miterlimit="10" d="
		M0.788-14.531L14.53-0.789c2.539,2.539,2.54,6.654,0.002,9.191L-8.404-14.533C-5.866-17.072-1.751-17.07,0.788-14.531z"/>
	<path fill="none" stroke="#231F20" stroke-width="2" stroke-linecap="round" stroke-linejoin="round" stroke-miterlimit="10" d="
		M16.063,9.936c1.692,1.693,1.692,4.438,0,6.13s-4.437,1.692-6.129,0L-16.063-9.936c-1.692-1.692-1.692-4.437,0-6.129
		s4.437-1.692,6.129,0L16.063,9.936z"/>
	<path fill="none" stroke="#231F20" stroke-width="2" stroke-linecap="round" stroke-linejoin="round" stroke-miterlimit="10" d="
		M13.706,12.294c-2.599-2.599-4.013-1.185-6.612-3.784C4.496,5.912,5.91,4.498,3.312,1.9c-2.6-2.6-4.014-1.186-6.614-3.786
		c-2.602-2.603-1.188-4.017-3.79-6.618c-2.602-2.602-4.016-1.188-6.618-3.789"/>
</symbol>
<symbol  id="Meat_1" viewBox="-24 -24 48 48">
	<polygon fill="none" points="24,-24 -24,-24 -24,24 24,24 	"/>
	<path fill="none" stroke="#231F20" stroke-width="2" stroke-linecap="round" stroke-linejoin="round" stroke-miterlimit="10" d="
		M-2.166-8.047V-13c-1.196,0-2.167-0.971-2.167-2.167s0.971-2.167,2.167-2.167s2.167,1.084,2.167,1.084s0.971-1.084,2.167-1.084
		s2.167,0.971,2.167,2.167S3.364-13,2.168-13v4.953"/>
	<path fill="none" stroke="#231F20" stroke-width="2" stroke-linecap="round" stroke-linejoin="round" stroke-miterlimit="10" d="
		M0.001,12.668c-1.153,0-2.12,0.142-2.885,0.333c0.766,0.191,1.732,0.333,2.885,0.333s2.12-0.142,2.885-0.333
		C2.121,12.81,1.154,12.668,0.001,12.668z"/>
	<path fill="none" stroke="#231F20" stroke-width="2" stroke-linecap="round" stroke-linejoin="round" stroke-miterlimit="10" d="
		M-8.665,13.001c0,2.394,3.88,4.333,8.666,4.333s8.666-1.939,8.666-4.333s-3.88-4.333-8.666-4.333S-8.665,10.607-8.665,13.001z"/>
	<g>
		<path fill="none" stroke="#231F20" stroke-width="2" stroke-linecap="round" stroke-linejoin="round" stroke-miterlimit="10" d="
			M-8.665,12.999C-8.665,0-4.785-8.666,0.001-8.666S8.667,0,8.667,12.999"/>
		
			<path opacity="0.5" fill="none" stroke="#231F20" stroke-width="2" stroke-linecap="round" stroke-linejoin="round" stroke-miterlimit="10" d="
			M2.044-2.042c0.701,1.444,1.413,3.534,1.921,6.376"/>
	</g>
</symbol>
<symbol  id="Meat_2_1_" viewBox="-24 -24 48 48">
	<polygon fill="none" points="24,-24 -24,-24 -24,24 24,24 	"/>
	<path fill="none" stroke="#231F20" stroke-width="2" stroke-linecap="round" stroke-linejoin="round" stroke-miterlimit="10" d="
		M-9.142-5.653l-3.984-3.985c-0.962,0.962-2.524,0.962-3.486,0c-0.962-0.963-0.962-2.524,0-3.487
		c0.962-0.962,2.615-0.871,2.615-0.871s-0.091-1.653,0.871-2.615c0.963-0.962,2.524-0.962,3.487,0c0.962,0.962,0.962,2.524,0,3.486
		l3.985,3.984"/>
	<path fill="none" stroke="#231F20" stroke-width="2" stroke-linecap="round" stroke-linejoin="round" stroke-miterlimit="10" d="
		M9.269,9.269c-0.929,0.929-1.592,1.819-2.054,2.59c0.77-0.463,1.662-1.126,2.59-2.054s1.591-1.82,2.054-2.59
		C11.088,7.677,10.197,8.341,9.269,9.269z"/>
	<path fill="none" stroke="#231F20" stroke-width="2" stroke-linecap="round" stroke-linejoin="round" stroke-miterlimit="10" d="
		M2.564,16.509c1.926,1.926,6.607,0.364,10.458-3.486c3.852-3.851,5.412-8.532,3.486-10.458C14.582,0.639,9.901,2.2,6.05,6.05
		C2.2,9.901,0.639,14.582,2.564,16.509z"/>
	<path fill="none" stroke="#231F20" stroke-width="2" stroke-linecap="round" stroke-linejoin="round" stroke-miterlimit="10" d="
		M2.562,16.507C-7.896,6.049-11.746-4.045-7.896-7.896s13.944,0,24.402,10.458"/>
	
		<path opacity="0.5" fill="none" stroke="#231F20" stroke-width="2" stroke-linecap="round" stroke-linejoin="round" stroke-miterlimit="10" d="
		M-0.922-4.21c1.725,0.599,3.979,1.707,6.674,3.584"/>
</symbol>
<symbol  id="Meat_3" viewBox="-24 -24 48 48">
	<polygon fill="none" points="24,-24 -24,-24 -24,24 24,24 	"/>
	<path fill="none" stroke="#231F20" stroke-width="2" stroke-linecap="round" stroke-linejoin="round" stroke-miterlimit="10" d="
		M8.666,8.666C8.666,1.485,4.786-8.666,0-8.666S-8.666,1.485-8.666,8.666s3.88,8.668,8.666,8.668S8.666,15.847,8.666,8.666z"/>
	<path fill="none" stroke="#231F20" stroke-width="2" stroke-linecap="round" stroke-linejoin="round" stroke-miterlimit="10" d="
		M-2.167-7.971V-13c-1.197,0-2.167-0.971-2.167-2.167s0.97-2.167,2.167-2.167S0-16.25,0-16.25s0.97-1.084,2.167-1.084
		c1.196,0,2.167,0.971,2.167,2.167S3.363-13,2.167-13v5.029"/>
	
		<path opacity="0.5" fill="none" stroke="#231F20" stroke-width="2" stroke-linecap="round" stroke-linejoin="round" stroke-miterlimit="10" d="
		M-4.461,11.026C-5.052,8.471-4.55,5.528-3.905,3.032"/>
</symbol>
<symbol  id="Meat_4" viewBox="-24 -24 48 48">
	<polygon fill="none" points="24,-24 -24,-24 -24,24 24,24 	"/>
	<g>
		<path fill="none" stroke="#231F20" stroke-width="2" stroke-linecap="round" stroke-linejoin="round" stroke-miterlimit="10" d="
			M13.616-0.602c-5.891-5.89-17.4-11.034-21.327-7.109c-3.925,3.927,1.22,15.437,7.109,21.327c5.89,5.89,10.293,3.928,14.219,0.001
			C17.544,9.691,19.506,5.288,13.616-0.602z"/>
		<path fill="none" stroke="#231F20" stroke-width="2" stroke-linecap="round" stroke-linejoin="round" stroke-miterlimit="10" d="
			M-8.917-5.362l-4.126-4.126c-0.981,0.981-2.574,0.981-3.555,0c-0.981-0.98-0.981-2.573,0-3.555
			c0.98-0.981,2.666-0.889,2.666-0.889s-0.093-1.686,0.889-2.666c0.981-0.981,2.574-0.981,3.555,0c0.981,0.98,0.981,2.573,0,3.555
			l4.126,4.126"/>
		
			<path opacity="0.5" fill="none" stroke="#231F20" stroke-width="2" stroke-linecap="round" stroke-linejoin="round" stroke-miterlimit="10" d="
			M4.784,12.103c-2.58-1.609-4.585-4.438-6.102-7.014"/>
	</g>
</symbol>
<symbol  id="Pizza" viewBox="-24 -24 48 48">
	<polygon fill="none" points="24,-24 -24,-24 -24,24 24,24 	"/>
	<path opacity="0.5" fill="#231F20" d="M-4.333,17.334l-1.527-4.071c0,0,0.004-0.001,0.004-0.001
		c1.648-0.683,3.032-1.928,4.561-2.812C0.341,9.503,2.23,8.906,3.669,7.697c1.443-1.212,2.356-2.97,3.568-4.413
		c1.209-1.438,2.784-2.642,3.73-4.277c0.886-1.532,1.168-3.37,1.744-5.073l4.622,1.733C13.587,5.652,5.652,13.587-4.333,17.334z"/>
	<path fill="none" stroke="#231F20" stroke-width="2" stroke-linecap="round" stroke-linejoin="round" stroke-miterlimit="10" d="
		M-17.334-17.334L17.334-4.333C13.587,5.652,5.652,13.587-4.333,17.334L-17.334-17.334z"/>
	<path fill="none" stroke="#231F20" stroke-width="2" stroke-linecap="round" stroke-linejoin="round" stroke-miterlimit="10" d="
		M12.712-6.066c-0.576,1.703-0.858,3.541-1.744,5.073c-0.946,1.636-2.521,2.839-3.73,4.277C6.026,4.728,5.112,6.485,3.669,7.697
		C2.23,8.906,0.341,9.503-1.295,10.449c-1.529,0.885-2.912,2.13-4.561,2.812"/>
	<path fill="none" stroke="#231F20" stroke-width="2" stroke-linecap="round" stroke-linejoin="round" stroke-miterlimit="10" d="
		M1.322-2.694c0-1.487-1.207-2.694-2.694-2.694c-1.487,0-2.694,1.207-2.694,2.694S-2.86,0-1.373,0C0.115,0,1.322-1.207,1.322-2.694z
		"/>
	<path fill="none" stroke="#231F20" stroke-width="2" stroke-linecap="round" stroke-linejoin="round" stroke-miterlimit="10" d="
		M-11.949-2.977c0.092,0.012,0.186,0.019,0.281,0.019c1.197,0,2.167-0.97,2.167-2.167c0-1.196-0.97-2.166-2.167-2.166
		c-0.647,0-1.228,0.283-1.625,0.733"/>
	<path fill="none" stroke="#231F20" stroke-width="2" stroke-linecap="round" stroke-linejoin="round" stroke-miterlimit="10" d="
		M6.259-8.416c-1.196,0-2.167,0.97-2.167,2.166c0,1.197,0.97,2.167,2.167,2.167c1.197,0,2.167-0.97,2.167-2.167
		c0-0.729-0.361-1.374-0.913-1.767"/>
	<path fill="none" stroke="#231F20" stroke-width="2" stroke-linecap="round" stroke-linejoin="round" stroke-miterlimit="10" d="
		M-7.748,1.176C-6.524,0.95-5.35,1.76-5.125,2.984"/>
	<path fill="none" stroke="#231F20" stroke-width="2" stroke-linecap="round" stroke-linejoin="round" stroke-miterlimit="10" d="
		M-12.076-15.37c0.569,1.106,0.133,2.464-0.973,3.034"/>
	<path fill="none" stroke="#231F20" stroke-width="2" stroke-linecap="round" stroke-linejoin="round" stroke-miterlimit="10" d="
		M-4.331,6.361c1.574-1.694,4.223-1.793,5.918-0.219"/>
	
		<line fill="none" stroke="#231F20" stroke-width="2" stroke-linecap="round" stroke-linejoin="round" stroke-miterlimit="10" x1="-7.25" y1="-9.209" x2="-2.5" y2="-9.844"/>
</symbol>
<symbol  id="Popcorn" viewBox="-24 -24 48 48">
	<polygon fill="none" points="24,-24 -24,-24 -24,24 24,24 	"/>
	<path fill="none" stroke="#231F20" stroke-width="2" stroke-linecap="round" stroke-linejoin="round" stroke-miterlimit="10" d="
		M-15.167-17.334c1.197,0,2.167,0.971,2.167,2.167"/>
	
		<polygon fill="none" stroke="#231F20" stroke-width="2" stroke-linecap="round" stroke-linejoin="round" stroke-miterlimit="10" points="
		8.666,-17.334 -8.666,-17.334 -13,4.334 13,4.334 	"/>
	
		<line fill="none" stroke="#231F20" stroke-width="2" stroke-linecap="round" stroke-linejoin="round" stroke-miterlimit="10" x1="0" y1="-17.334" x2="0" y2="-13"/>
	
		<line fill="none" stroke="#231F20" stroke-width="2" stroke-linecap="round" stroke-linejoin="round" stroke-miterlimit="10" x1="0" y1="0" x2="0" y2="4.334"/>
	
		<line fill="none" stroke="#231F20" stroke-width="2" stroke-linecap="round" stroke-linejoin="round" stroke-miterlimit="10" x1="5.725" y1="-3.42" x2="6.5" y2="4.334"/>
	
		<line fill="none" stroke="#231F20" stroke-width="2" stroke-linecap="round" stroke-linejoin="round" stroke-miterlimit="10" x1="4.334" y1="-17.334" x2="5.002" y2="-10.65"/>
	
		<line fill="none" stroke="#231F20" stroke-width="2" stroke-linecap="round" stroke-linejoin="round" stroke-miterlimit="10" x1="-5.725" y1="-3.42" x2="-6.5" y2="4.334"/>
	
		<line fill="none" stroke="#231F20" stroke-width="2" stroke-linecap="round" stroke-linejoin="round" stroke-miterlimit="10" x1="-4.334" y1="-17.334" x2="-5.002" y2="-10.649"/>
	<path fill="none" stroke="#231F20" stroke-width="2" stroke-linecap="round" stroke-linejoin="round" stroke-miterlimit="10" d="
		M8.667,8.666c0,2.392-1.94,4.333-4.333,4.333c0,0-0.001,0-0.002,0c0,2.392-1.94,4.333-4.333,4.333s-4.333-1.941-4.333-4.333
		c-2.393,0-4.333-1.94-4.333-4.332C-11.06,8.667-13,6.726-13,4.334h25.999C12.999,6.726,11.059,8.665,8.667,8.666z"/>
	<path fill="none" stroke="#231F20" stroke-width="2" stroke-linecap="round" stroke-linejoin="round" stroke-miterlimit="10" d="
		M-0.001,8.658c0.002,1.112-0.421,2.225-1.269,3.072"/>
	<path fill="none" stroke="#231F20" stroke-width="2" stroke-linecap="round" stroke-linejoin="round" stroke-miterlimit="10" d="
		M3.064,9.935c-0.847-0.847-1.956-1.27-3.065-1.27"/>
	<path fill="none" stroke="#231F20" stroke-width="2" stroke-linecap="round" stroke-linejoin="round" stroke-miterlimit="10" d="
		M5.602,7.398C4.756,6.553,4.333,5.443,4.333,4.334"/>
	<path fill="none" stroke="#231F20" stroke-width="2" stroke-linecap="round" stroke-linejoin="round" stroke-miterlimit="10" d="
		M-5.603,7.397c-0.846,0.846-1.955,1.269-3.063,1.269"/>
	<path fill="none" stroke="#231F20" stroke-width="2" stroke-linecap="round" stroke-linejoin="round" stroke-miterlimit="10" d="
		M6.5-6.5C6.5-2.91,3.59,0,0,0s-6.5-2.91-6.5-6.5S-3.59-13,0-13S6.5-10.09,6.5-6.5z"/>
	<path fill="none" stroke="#231F20" stroke-width="2" stroke-linecap="round" stroke-linejoin="round" stroke-miterlimit="10" d="
		M-10.396-8.69c-0.144,0.015-0.291,0.022-0.438,0.022c-2.393,0-4.333-1.94-4.333-4.332l0,0c-1.197,0-2.167-0.971-2.167-2.167
		s0.97-2.167,2.167-2.167c0.714,0,1.342,0.351,1.737,0.883c0.725-0.547,1.618-0.883,2.596-0.883c0.747,0,1.45,0.189,2.063,0.522"/>
	<path fill="none" stroke="#231F20" stroke-width="2" stroke-linecap="round" stroke-linejoin="round" stroke-miterlimit="10" d="
		M13-15.167c0-1.196,0.97-2.167,2.167-2.167s2.167,0.971,2.167,2.167S16.364-13,15.167-13S13-13.971,13-15.167z"/>
</symbol>
<g id="Background">
</g>
<g id="Layer_1">
</g>
<g id="Model">
	<g id="Woman">
	</g>
	<g id="Threshold">
	</g>
	<g id="Man_with_Tie">
	</g>
	<g id="Building_5">
	</g>
</g>
<g id="Icons">
	<g>
		<g>
			
				<use xlink:href="#Hotdog_2"  width="48" height="48" id="XMLID_382_" x="-24" y="-24" transform="matrix(1.875 0 0 -1.875 235 95)" overflow="visible"/>
			
				<use xlink:href="#Pizza"  width="48" height="48" id="XMLID_381_" x="-24" y="-24" transform="matrix(1.875 0 0 -1.875 515 95)" overflow="visible"/>
			
				<use xlink:href="#Donut"  width="48" height="48" id="XMLID_380_" x="-24" y="-24" transform="matrix(1.875 0 0 -1.875 655 95)" overflow="visible"/>
			
				<use xlink:href="#Cup_with_Straw"  width="48" height="48" id="XMLID_379_" x="-24" y="-24" transform="matrix(1.875 0 0 -1.875 935 95)" overflow="visible"/>
			
				<use xlink:href="#Hotdog"  width="48" height="48" id="XMLID_368_" x="-24" y="-24" transform="matrix(1.875 0 0 -1.875 375 95)" overflow="visible"/>
			
				<use xlink:href="#Cutlery"  width="48" height="48" id="XMLID_367_" x="-24" y="-24" transform="matrix(1.875 0 0 -1.875 95 95)" overflow="visible"/>
			
				<use xlink:href="#Filled_Wine_Glass"  width="48" height="48" id="XMLID_366_" x="-24" y="-24" transform="matrix(1.875 0 0 -1.875 795 95)" overflow="visible"/>
			
				<use xlink:href="#Food_Tray"  width="48" height="48" id="XMLID_264_" x="-24" y="-24" transform="matrix(1.875 0 0 -1.875 1075 95)" overflow="visible"/>
		</g>
		<g>
			
				<use xlink:href="#Meat_4"  width="48" height="48" id="XMLID_263_" x="-24" y="-24" transform="matrix(1.875 0 0 -1.875 1075 235)" overflow="visible"/>
			
				<use xlink:href="#Meat_3"  width="48" height="48" id="XMLID_152_" x="-24" y="-24" transform="matrix(1.875 0 0 -1.875 935 235)" overflow="visible"/>
			
				<use xlink:href="#Meat_2_1_"  width="48" height="48" id="XMLID_151_" x="-24" y="-24" transform="matrix(1.875 0 0 -1.875 795 235)" overflow="visible"/>
			
				<use xlink:href="#Meat_1"  width="48" height="48" id="XMLID_150_" x="-24" y="-24" transform="matrix(1.875 0 0 -1.875 655 235)" overflow="visible"/>
			
				<use xlink:href="#Bottle_with_Label"  width="48" height="48" id="XMLID_149_" x="-24" y="-24" transform="matrix(1.875 0 0 -1.875 95 235)" overflow="visible"/>
			
				<use xlink:href="#Bottle_and_Glass"  width="48" height="48" id="XMLID_148_" x="-24" y="-24" transform="matrix(1.875 0 0 -1.875 235 235)" overflow="visible"/>
			
				<use xlink:href="#Bread"  width="48" height="48" id="XMLID_147_" x="-24" y="-24" transform="matrix(1.875 0 0 -1.875 515 235)" overflow="visible"/>
			
				<use xlink:href="#Bread_2"  width="48" height="48" id="XMLID_146_" x="-24" y="-24" transform="matrix(1.875 0 0 -1.875 375 235)" overflow="visible"/>
		</g>
		<g>
			
				<use xlink:href="#Drop_2_"  width="48" height="48" id="XMLID_145_" x="-24" y="-24" transform="matrix(1.875 0 0 -1.875 235 375)" overflow="visible"/>
			
				<use xlink:href="#Egg"  width="48" height="48" id="XMLID_133_" x="-24" y="-24" transform="matrix(1.875 0 0 -1.875 95 375)" overflow="visible"/>
			
				<use xlink:href="#Popcorn"  width="48" height="48" x="-24" y="-24" transform="matrix(1.875 0 0 -1.875 375 375)" overflow="visible"/>
		</g>
	</g>
	<g id="Random_Forest">
	</g>
	<g id="Database">
	</g>
	<g id="Random_Forest_1_">
	</g>
	<g id="University">
	</g>
	<g id="Group">
	</g>
	<g id="Group_1_">
	</g>
	<g id="Scatterplott">
	</g>
	<g id="Long_Paper_2_">
	</g>
	<g id="Spread">
	</g>
	<g id="Isometric_Box">
	</g>
	<g id="Magnifying_Glass">
	</g>
	<g id="Code_2">
	</g>
</g>
<g id="Figures">
	<g id="Models">
	</g>
	<g id="Justice">
	</g>
	<g id="Sensor">
	</g>
	<g id="Widget">
	</g>
	<g id="Drop_1_">
	</g>
	<g id="Algorithm_1_">
	</g>
	<g id="On-body_sensor_1_">
	</g>
	<g id="Insulin_Pump_1_">
	</g>
	<g id="Drop">
	</g>
	<g id="Algorithm">
	</g>
	<g id="On-body_sensor">
	</g>
	<g id="Insulin_Pump">
	</g>
</g>
<g id="Meta__x2B__Title">
</g>
<g id="Isolation_Mode">
</g>
<g id="Long_Paper">
	<g id="Long_Paper_1_">
	</g>
	<g id="IV">
	</g>
	<g id="Air_Purifier">
	</g>
	<g id="Alarm">
	</g>
	<g id="Chat">
	</g>
	<g id="Presentation">
	</g>
	<g id="Dog_2">
	</g>
	<g id="Delivery">
	</g>
	<g id="Meat_2">
	</g>
</g>
</svg>
