<?xml version="1.0" encoding="utf-8"?>
<!-- Generator: Adobe Illustrator 16.0.0, SVG Export Plug-In . SVG Version: 6.00 Build 0)  -->
<!DOCTYPE svg PUBLIC "-//W3C//DTD SVG 1.1//EN" "http://www.w3.org/Graphics/SVG/1.1/DTD/svg11.dtd">
<svg version="1.1" xmlns="http://www.w3.org/2000/svg" xmlns:xlink="http://www.w3.org/1999/xlink" x="0px" y="0px" width="1170px"
	 height="330px" viewBox="0 0 1170 330" enable-background="new 0 0 1170 330" xml:space="preserve">
<symbol  id="Bed" viewBox="-24 -24 48 48">
	<polygon fill="none" points="24,-24 -24,-24 -24,24 24,24 	"/>
	<g>
		
			<polygon fill="none" stroke="#231F20" stroke-width="2" stroke-linecap="round" stroke-linejoin="round" stroke-miterlimit="10" points="
			17.334,2.167 -17.333,2.167 -17.333,-6.5 17.334,-6.5 		"/>
		
			<line fill="none" stroke="#231F20" stroke-width="2" stroke-linecap="round" stroke-linejoin="round" stroke-miterlimit="10" x1="-17.333" y1="-10.833" x2="-17.333" y2="10.833"/>
		
			<line fill="none" stroke="#231F20" stroke-width="2" stroke-linecap="round" stroke-linejoin="round" stroke-miterlimit="10" x1="17.334" y1="-6.5" x2="17.334" y2="-10.833"/>
		<path fill="none" stroke="#231F20" stroke-width="2" stroke-linecap="round" stroke-linejoin="round" stroke-miterlimit="10" d="
			M-17.333,2.167c0,2.394,1.94,4.334,4.334,4.334h4.333c2.394,0,4.334-1.94,4.334-4.334"/>
	</g>
</symbol>
<symbol  id="Broom" viewBox="-24 -24 48 48">
	<polygon fill="none" points="-24,24 24,24 24,-24 -24,-24 	"/>
	<g>
		<path fill="none" stroke="#231F20" stroke-width="2" stroke-linecap="round" stroke-linejoin="round" stroke-miterlimit="10" d="
			M4.113-2.014c1.693-1.693,1.693-4.437,0-6.13l-9.191-9.19L-17.334-5.079l9.192,9.192c1.692,1.692,4.436,1.691,6.128,0L4.113-2.014
			z"/>
		
			<line fill="none" stroke="#231F20" stroke-width="2" stroke-linecap="round" stroke-linejoin="round" stroke-miterlimit="10" x1="-8.849" y1="3.406" x2="3.406" y2="-8.85"/>
		
			<line opacity="0.4" fill="none" stroke="#231F20" stroke-width="2" stroke-linecap="round" stroke-linejoin="round" stroke-miterlimit="10" x1="-11.208" y1="-5.079" x2="-14.271" y2="-8.142"/>
		
			<line opacity="0.4" fill="none" stroke="#231F20" stroke-width="2" stroke-linecap="round" stroke-linejoin="round" stroke-miterlimit="10" x1="-8.143" y1="-8.144" x2="-11.206" y2="-11.206"/>
		
			<line opacity="0.4" fill="none" stroke="#231F20" stroke-width="2" stroke-linecap="round" stroke-linejoin="round" stroke-miterlimit="10" x1="-5.078" y1="-11.208" x2="-8.142" y2="-14.271"/>
		
			<polygon fill="none" stroke="#231F20" stroke-width="2" stroke-linecap="round" stroke-linejoin="round" stroke-miterlimit="10" points="
			2.581,-0.482 -0.482,2.581 2.583,5.646 5.646,2.582 		"/>
		
			<line fill="none" stroke="#231F20" stroke-width="2" stroke-linecap="round" stroke-linejoin="round" stroke-miterlimit="10" x1="4.113" y1="4.113" x2="17.334" y2="17.334"/>
	</g>
</symbol>
<symbol  id="Door" viewBox="-24 -24 48 48">
	<polygon fill="none" points="24,-24 -24,-24 -24,24 24,24 	"/>
	
		<polygon fill="none" stroke="#231F20" stroke-width="2" stroke-linecap="round" stroke-linejoin="round" stroke-miterlimit="10" points="
		-13,17.334 13,17.334 13,-17.334 -13,-17.334 	"/>
	
		<line fill="none" stroke="#231F20" stroke-width="2" stroke-linecap="round" stroke-linejoin="round" stroke-miterlimit="10" x1="10.833" y1="8.666" x2="15.167" y2="8.666"/>
	
		<line fill="none" stroke="#231F20" stroke-width="2" stroke-linecap="round" stroke-linejoin="round" stroke-miterlimit="10" x1="10.833" y1="-8.666" x2="15.167" y2="-8.666"/>
	<path fill="none" stroke="#231F20" stroke-width="2" stroke-linecap="round" stroke-linejoin="round" stroke-miterlimit="10" d="
		M-8.666-2.167C-8.666-0.97-7.696,0-6.5,0h2.167"/>
</symbol>
<symbol  id="Glasses" viewBox="-24 -24 48 48">
	<polygon fill="none" points="24,-24 -24,-24 -24,24 24,24 	"/>
	<g>
		<path fill="none" stroke="#231F20" stroke-width="2" stroke-linecap="round" stroke-linejoin="round" stroke-miterlimit="10" d="
			M-13-10.833C-13-8.44-11.06-6.5-8.667-6.5c2.394,0,4.333-1.94,4.333-4.333c0-2.394-1.94-4.334-4.333-4.334
			C-11.06-15.167-13-13.227-13-10.833z"/>
		<path fill="none" stroke="#231F20" stroke-width="2" stroke-linecap="round" stroke-linejoin="round" stroke-miterlimit="10" d="
			M4.333-10.833c0,2.393,1.94,4.333,4.333,4.333C11.06-6.5,13-8.44,13-10.833c0-2.394-1.94-4.334-4.333-4.334
			C6.273-15.167,4.333-13.227,4.333-10.833z"/>
		<path fill="none" stroke="#231F20" stroke-width="2" stroke-linecap="round" stroke-linejoin="round" stroke-miterlimit="10" d="
			M13,15.167c2.393,0,4.333-1.94,4.333-4.333V-6.5c0-2.393-1.94-4.333-4.333-4.333"/>
		<path fill="none" stroke="#231F20" stroke-width="2" stroke-linecap="round" stroke-linejoin="round" stroke-miterlimit="10" d="
			M-13.001-10.833c-2.393,0-4.333,1.94-4.333,4.333v17.333c0,2.394,1.94,4.334,4.333,4.334"/>
		<g>
			<path fill="none" stroke="#231F20" stroke-width="2" stroke-linecap="round" stroke-linejoin="round" stroke-miterlimit="10" d="
				M-4.324-10.829c2.388,2.388,6.259,2.388,8.647,0"/>
		</g>
	</g>
</symbol>
<symbol  id="Hanger" viewBox="-24 -24 48 48">
	<polygon fill="none" points="24,-24 -24,-24 -24,24 24,24 	"/>
	<path fill="none" stroke="#231F20" stroke-width="2" stroke-linecap="round" stroke-linejoin="round" stroke-miterlimit="10" d="
		M17.333-13C17.333-5.82,9.573,0,0,0s-17.333-5.82-17.333-13H17.333z"/>
	<path fill="none" stroke="#231F20" stroke-width="2" stroke-linecap="round" stroke-linejoin="round" stroke-miterlimit="10" d="
		M-4.333,8.666C-4.333,11.061-2.394,13,0,13s4.333-1.939,4.333-4.334c0-2.393-1.94-4.333-4.333-4.333V0"/>
</symbol>
<symbol  id="Hat" viewBox="-24 -24 48 48">
	<polygon fill="none" points="24,-24 -24,-24 -24,24 24,24 	"/>
	<path opacity="0.5" fill="#231F20" d="M-13-8.666h26c0,0-0.002,1.848-0.303,4.333h-25.395C-12.998-6.818-13-8.666-13-8.666z"/>
	
		<line fill="none" stroke="#231F20" stroke-width="2" stroke-linecap="round" stroke-linejoin="round" stroke-miterlimit="10" x1="-17.333" y1="-8.666" x2="17.333" y2="-8.666"/>
	<path fill="none" stroke="#231F20" stroke-width="2" stroke-linecap="round" stroke-linejoin="round" stroke-miterlimit="10" d="
		M-13-8.666c0,0,0,17.333,8.667,17.333c0,0,2.527-2.167,4.333-2.167s4.333,2.167,4.333,2.167C13,8.667,13-8.666,13-8.666"/>
	
		<line fill="none" stroke="#231F20" stroke-width="2" stroke-linecap="round" stroke-linejoin="round" stroke-miterlimit="10" x1="12.698" y1="-4.333" x2="-12.698" y2="-4.333"/>
</symbol>
<symbol  id="Machine_Wash" viewBox="-24 -24 48 48">
	<polygon fill="none" points="24,-24 -24,-24 -24,24 24,24 	"/>
	
		<polyline fill="none" stroke="#231F20" stroke-width="2" stroke-linecap="round" stroke-linejoin="round" stroke-miterlimit="10" points="
		-17.334,15.167 -13,-15.167 13,-15.167 17.334,15.167 	"/>
	<path fill="none" stroke="#231F20" stroke-width="2" stroke-linecap="round" stroke-linejoin="round" stroke-miterlimit="10" d="
		M-16.212,7.329c1.433-0.484,1.797-1.83,3.828-1.83c2.476,0,2.476,2,4.95,2c2.477,0,2.477-2,4.952-2c2.475,0,2.475,2,4.949,2
		c2.477,0,2.477-2,4.953-2c2.478,0,2.478,2,4.956,2c1.858,0,2.323-1.125,3.484-1.688"/>
</symbol>
<symbol  id="Pants" viewBox="-24 -24 48 48">
	<path opacity="0.5" fill="#231F20" d="M-4.333,17.334c0-4.787-1.94-8.668-4.333-8.668v8.668H-4.333z"/>
	<path opacity="0.5" fill="#231F20" d="M8.667,17.334V8.666c-2.394,0-4.333,3.881-4.333,8.668"/>
	<polygon fill="none" points="24,-24 -24,-24 -24,24 24,24 	"/>
	
		<polygon fill="none" stroke="#231F20" stroke-width="2" stroke-linecap="round" stroke-linejoin="round" stroke-miterlimit="10" points="
		8.667,-17.334 2.167,-17.334 0.5,4.334 -0.5,4.334 -2.167,-17.334 -8.667,-17.334 -8.667,17.334 8.667,17.334 	"/>
	
		<line fill="none" stroke="#231F20" stroke-width="2" stroke-linecap="round" stroke-linejoin="round" stroke-miterlimit="10" x1="0" y1="17.334" x2="0" y2="8.666"/>
	<path fill="none" stroke="#231F20" stroke-width="2" stroke-linecap="round" stroke-linejoin="round" stroke-miterlimit="10" d="
		M-4.333,17.334c0-4.787-1.94-8.668-4.333-8.668v8.668H-4.333z"/>
	<path fill="none" stroke="#231F20" stroke-width="2" stroke-linecap="round" stroke-linejoin="round" stroke-miterlimit="10" d="
		M8.667,8.666c-2.394,0-4.333,3.881-4.333,8.668h4.333V8.666z"/>
</symbol>
<symbol  id="Recliner" viewBox="-24 -24 48 48">
	<polygon fill="none" points="24,-24 -24,-24 -24,24 24,24 	"/>
	<path fill="none" stroke="#231F20" stroke-width="2" stroke-linecap="round" stroke-linejoin="round" stroke-miterlimit="10" d="
		M12.966,4.334V13c0,2.394-1.94,4.334-4.334,4.334H-8.632c-2.394,0-4.334-1.94-4.334-4.334L-13,4.334"/>
	<g>
		<path fill="none" stroke="#231F20" stroke-width="2" stroke-linecap="round" stroke-linejoin="round" stroke-miterlimit="10" d="
			M17.334,0c0,2.394-1.94,4.334-4.334,4.334S8.666,2.394,8.666,0v-17.334h6.501L15.151-3.763C16.455-3.016,17.334-1.61,17.334,0z"/>
	</g>
	<g>
		<path fill="none" stroke="#231F20" stroke-width="2" stroke-linecap="round" stroke-linejoin="round" stroke-miterlimit="10" d="
			M-8.666,0c0,2.394-1.94,4.334-4.334,4.334S-17.334,2.394-17.334,0c0-1.607,0.885-2.994,2.184-3.742l-0.017-13.592h6.5v17.319
			C-8.667-0.01-8.666-0.005-8.666,0z"/>
	</g>
	
		<line fill="none" stroke="#231F20" stroke-width="2" stroke-linecap="round" stroke-linejoin="round" stroke-miterlimit="10" x1="-8.667" y1="-17.334" x2="8.666" y2="-17.334"/>
	<path fill="none" stroke="#231F20" stroke-width="2" stroke-linecap="round" stroke-linejoin="round" stroke-miterlimit="10" d="
		M6.482-0.018H-6.519c-1.187,0-2.149-0.962-2.149-2.149v-2.167H8.632v2.167C8.632-0.979,7.67-0.018,6.482-0.018z"/>
</symbol>
<symbol  id="T-Shirt" viewBox="-24 -24 48 48">
	<path opacity="0.5" fill="#231F20" d="M-4.333,13c0-2.394,1.94-4.334,4.333-4.334S4.333,10.606,4.333,13"/>
	<polygon fill="none" points="24,-24 -24,-24 -24,24 24,24 	"/>
	
		<polygon fill="none" stroke="#231F20" stroke-width="2" stroke-linecap="round" stroke-linejoin="round" stroke-miterlimit="10" points="
		8.667,13 -8.667,13 -17.333,4.333 -13,0 -8.667,4.333 -8.667,-13 8.667,-13 8.667,4.333 13,0 17.333,4.333 	"/>
	<path fill="none" stroke="#231F20" stroke-width="2" stroke-linecap="round" stroke-linejoin="round" stroke-miterlimit="10" d="
		M-4.333,13c0-2.394,1.94-4.334,4.333-4.334S4.333,10.606,4.333,13"/>
</symbol>
<symbol  id="Trash_Can" viewBox="-24 -24 48 48">
	<polygon fill="none" points="24,-24 -24,-24 -24,24 24,24 	"/>
	
		<polygon fill="none" stroke="#231F20" stroke-width="2" stroke-linecap="round" stroke-linejoin="round" stroke-miterlimit="10" points="
		8.666,-17.334 -8.666,-17.334 -13,13 13,13 	"/>
	
		<line fill="none" stroke="#231F20" stroke-width="2" stroke-linecap="round" stroke-linejoin="round" stroke-miterlimit="10" x1="-17.334" y1="13" x2="17.334" y2="13"/>
	
		<line fill="none" stroke="#231F20" stroke-width="2" stroke-linecap="round" stroke-linejoin="round" stroke-miterlimit="10" x1="4.643" y1="-13" x2="6.19" y2="8.666"/>
	
		<line fill="none" stroke="#231F20" stroke-width="2" stroke-linecap="round" stroke-linejoin="round" stroke-miterlimit="10" x1="0" y1="-13" x2="0" y2="8.666"/>
	
		<line fill="none" stroke="#231F20" stroke-width="2" stroke-linecap="round" stroke-linejoin="round" stroke-miterlimit="10" x1="-4.643" y1="-13" x2="-6.166" y2="8.666"/>
	<path fill="none" stroke="#231F20" stroke-width="2" stroke-linecap="round" stroke-linejoin="round" stroke-miterlimit="10" d="
		M4.334,13v2.166c0,1.197-0.971,2.168-2.167,2.168h-4.334c-1.197,0-2.167-0.971-2.167-2.168V13"/>
</symbol>
<symbol  id="Umbrella" viewBox="-24 -24 48 48">
	<polygon fill="none" points="24,-24 -24,-24 -24,24 24,24 	"/>
	<path fill="none" stroke="#231F20" stroke-width="2" stroke-linecap="round" stroke-linejoin="round" stroke-miterlimit="10" d="
		M0,13c-7.18,0-13-5.82-13-13h26C13,7.18,7.18,13,0,13z"/>
	<path fill="none" stroke="#231F20" stroke-width="2" stroke-linecap="round" stroke-linejoin="round" stroke-miterlimit="10" d="
		M-4.333-17.333C-1.94-17.333,0-15.393,0-13V0"/>
	
		<line fill="none" stroke="#231F20" stroke-width="2" stroke-linecap="round" stroke-linejoin="round" stroke-miterlimit="10" x1="0" y1="15.167" x2="0" y2="13"/>
	<path fill="none" stroke="#231F20" stroke-width="2" stroke-linecap="round" stroke-linejoin="round" stroke-miterlimit="10" d="
		M-7.398-16.063c0.846-0.846,1.955-1.269,3.064-1.269"/>
</symbol>
<symbol  id="Washing_Machine" viewBox="-24 -24 48 48">
	<polygon fill="none" points="24,-24 -24,-24 -24,24 24,24 	"/>
	
		<polygon fill="none" stroke="#231F20" stroke-width="2" stroke-linecap="round" stroke-linejoin="round" stroke-miterlimit="10" points="
		13,-17.334 -13,-17.334 -13,17.334 13,17.334 	"/>
	
		<line fill="none" stroke="#231F20" stroke-width="2" stroke-linecap="round" stroke-linejoin="round" stroke-miterlimit="10" x1="-13" y1="8.666" x2="13" y2="8.666"/>
	
		<line fill="none" stroke="#231F20" stroke-width="2" stroke-linecap="round" stroke-linejoin="round" stroke-miterlimit="10" x1="-4.334" y1="8.666" x2="-4.334" y2="17.334"/>
	<path fill="none" stroke="#231F20" stroke-width="2" stroke-linecap="round" stroke-linejoin="round" stroke-miterlimit="10" d="
		M8.666-4.332c0,4.785-3.88,8.666-8.666,8.666s-8.666-3.881-8.666-8.666c0-4.787,3.88-8.666,8.666-8.666S8.666-9.119,8.666-4.332z"
		/>
	<path fill="#231F20" d="M-7.666,13c0,0.553-0.448,1-1,1s-1-0.447-1-1s0.448-1,1-1S-7.666,12.447-7.666,13z"/>
	<path fill="#231F20" d="M1,13c0,0.553-0.448,1-1,1s-1-0.447-1-1s0.448-1,1-1S1,12.447,1,13z"/>
	<path fill="#231F20" d="M5.334,13c0,0.553-0.448,1-1,1s-1-0.447-1-1s0.448-1,1-1S5.334,12.447,5.334,13z"/>
	<path fill="#231F20" d="M9.666,13c0,0.553-0.448,1-1,1s-1-0.447-1-1s0.448-1,1-1S9.666,12.447,9.666,13z"/>
</symbol>
<symbol  id="Window" viewBox="-24 -24 48 48">
	<polygon fill="none" points="24,-24 -24,-24 -24,24 24,24 	"/>
	
		<polygon fill="none" stroke="#231F20" stroke-width="2" stroke-linecap="round" stroke-linejoin="round" stroke-miterlimit="10" points="
		17.334,-13 -17.334,-13 -17.334,13 17.334,13 	"/>
	
		<line fill="none" stroke="#231F20" stroke-width="2" stroke-linecap="round" stroke-linejoin="round" stroke-miterlimit="10" x1="-8.666" y1="8.666" x2="-13" y2="4.334"/>
	
		<line fill="none" stroke="#231F20" stroke-width="2" stroke-linecap="round" stroke-linejoin="round" stroke-miterlimit="10" x1="-4.334" y1="8.666" x2="-13" y2="0"/>
</symbol>
<g id="Background">
</g>
<g id="Layer_1">
</g>
<g id="Model">
	<g id="Woman">
	</g>
	<g id="Threshold">
	</g>
	<g id="Man_with_Tie">
	</g>
	<g id="Building_5">
	</g>
</g>
<g id="Icons">
	<g id="Random_Forest">
	</g>
	<g>
		<g>
			
				<use xlink:href="#Recliner"  width="48" height="48" id="XMLID_293_" x="-24" y="-24" transform="matrix(1.875 0 0 -1.875 1075 95)" overflow="visible"/>
			
				<use xlink:href="#T-Shirt"  width="48" height="48" id="XMLID_189_" x="-24" y="-24" transform="matrix(1.875 0 0 -1.875 95 95)" overflow="visible"/>
			
				<use xlink:href="#Pants"  width="48" height="48" id="XMLID_14_" x="-24" y="-24" transform="matrix(1.875 0 0 -1.875 235 95)" overflow="visible"/>
			
				<use xlink:href="#Hanger"  width="48" height="48" id="XMLID_13_" x="-24" y="-24" transform="matrix(1.875 0 0 -1.875 795 95)" overflow="visible"/>
			
				<use xlink:href="#Bed"  width="48" height="48" id="XMLID_12_" x="-24" y="-24" transform="matrix(1.875 0 0 -1.875 935 95)" overflow="visible"/>
			
				<use xlink:href="#Glasses"  width="48" height="48" id="XMLID_10_" x="-24" y="-24" transform="matrix(1.875 0 0 -1.875 515 95)" overflow="visible"/>
			
				<use xlink:href="#Umbrella"  width="48" height="48" id="XMLID_9_" x="-24" y="-24" transform="matrix(1.875 0 0 -1.875 655 95)" overflow="visible"/>
			
				<use xlink:href="#Hat"  width="48" height="48" id="XMLID_7_" x="-24" y="-24" transform="matrix(1.875 0 0 -1.875 375 95)" overflow="visible"/>
		</g>
		<g>
			
				<use xlink:href="#Machine_Wash"  width="48" height="48" id="XMLID_6_" x="-24" y="-24" transform="matrix(1.875 0 0 -1.875 795 235)" overflow="visible"/>
			
				<use xlink:href="#Door"  width="48" height="48" id="XMLID_5_" x="-24" y="-24" transform="matrix(-1.875 0 0 -1.875 375 235)" overflow="visible"/>
			
				<use xlink:href="#Trash_Can"  width="48" height="48" id="XMLID_4_" x="-24" y="-24" transform="matrix(1.875 0 0 -1.875 235 235)" overflow="visible"/>
			
				<use xlink:href="#Washing_Machine"  width="48" height="48" id="XMLID_3_" x="-24" y="-24" transform="matrix(1.875 0 0 -1.875 655 235)" overflow="visible"/>
			
				<use xlink:href="#Broom"  width="48" height="48" id="XMLID_2_" x="-24" y="-24" transform="matrix(1.875 0 0 -1.875 515 235)" overflow="visible"/>
			
				<use xlink:href="#Window"  width="48" height="48" id="XMLID_1_" x="-24" y="-24" transform="matrix(1.875 0 0 -1.875 95 235)" overflow="visible"/>
		</g>
	</g>
	<g id="Database">
	</g>
	<g id="Random_Forest_1_">
	</g>
	<g id="University">
	</g>
	<g id="Group">
	</g>
	<g id="Group_1_">
	</g>
	<g id="Scatterplott">
	</g>
	<g id="Long_Paper_2_">
	</g>
	<g id="Spread">
	</g>
	<g id="Isometric_Box">
	</g>
	<g id="Magnifying_Glass">
	</g>
	<g id="Code_2">
	</g>
</g>
<g id="Figures">
	<g id="Models">
	</g>
	<g id="Justice">
	</g>
	<g id="Sensor">
	</g>
	<g id="Widget">
	</g>
	<g id="Drop_1_">
	</g>
	<g id="Algorithm_1_">
	</g>
	<g id="On-body_sensor_1_">
	</g>
	<g id="Insulin_Pump_1_">
	</g>
	<g id="Drop">
	</g>
	<g id="Algorithm">
	</g>
	<g id="On-body_sensor">
	</g>
	<g id="Insulin_Pump">
	</g>
</g>
<g id="Meta__x2B__Title">
</g>
<g id="Isolation_Mode">
</g>
<g id="Long_Paper">
	<g id="Long_Paper_1_">
	</g>
	<g id="IV">
	</g>
	<g id="Air_Purifier">
	</g>
	<g id="Alarm">
	</g>
	<g id="Chat">
	</g>
	<g id="Presentation">
	</g>
	<g id="Dog_2">
	</g>
	<g id="Delivery">
	</g>
	<g id="Meat_2">
	</g>
</g>
</svg>
