<?xml version="1.0" encoding="utf-8"?>
<!-- Generator: Adobe Illustrator 16.0.0, SVG Export Plug-In . SVG Version: 6.00 Build 0)  -->
<!DOCTYPE svg PUBLIC "-//W3C//DTD SVG 1.1//EN" "http://www.w3.org/Graphics/SVG/1.1/DTD/svg11.dtd">
<svg version="1.1" xmlns="http://www.w3.org/2000/svg" xmlns:xlink="http://www.w3.org/1999/xlink" x="0px" y="0px" width="1170px"
	 height="1363px" viewBox="0 0 1170 1363" enable-background="new 0 0 1170 1363" xml:space="preserve">
<g id="Background" display="none">
	<rect display="inline" fill="#EEEEEE" width="1170" height="1363"/>
</g>
<g id="Layer_1">
	<g>
		<rect x="1398.633" y="197.488" fill="#BE1E2D" stroke="#231F20" stroke-miterlimit="10" width="80.23" height="43.646"/>
		<rect x="1476.068" y="193.801" fill="#BE1E2D" stroke="#231F20" stroke-miterlimit="10" width="28" height="50.938"/>
		<rect x="1373.363" y="193.801" fill="#BE1E2D" stroke="#231F20" stroke-miterlimit="10" width="28" height="50.938"/>
	</g>
	<rect x="1392.587" y="638.968" fill="#00ADEE" stroke="#231F20" stroke-miterlimit="10" width="46.129" height="165.333"/>
	<g>
		<path d="M126.398,279.401c0.671-1.383,1.98-2.639,3.928-3.769l2.906-1.681c1.302-0.757,2.215-1.403,2.74-1.939
			c0.827-0.839,1.241-1.8,1.241-2.881c0-1.265-0.378-2.268-1.135-3.011s-1.766-1.115-3.027-1.115c-1.867,0-3.159,0.709-3.875,2.126
			c-0.384,0.759-0.596,1.812-0.636,3.157h-2.77c0.03-1.887,0.378-3.426,1.044-4.617c1.181-2.099,3.264-3.148,6.251-3.148
			c2.482,0,4.296,0.672,5.442,2.014c1.145,1.342,1.718,2.836,1.718,4.48c0,1.735-0.611,3.219-1.832,4.45
			c-0.707,0.717-1.973,1.584-3.799,2.604l-2.074,1.15c-0.989,0.545-1.766,1.064-2.331,1.56c-1.009,0.877-1.645,1.852-1.907,2.921
			h11.837v2.573H125.24C125.341,282.408,125.727,280.784,126.398,279.401z"/>
		<path d="M151.879,270.593l1.795-1.796l5.754,5.734l5.734-5.734l1.817,1.772l-5.753,5.754l5.768,5.749l-1.838,1.838l-5.75-5.767
			l-5.747,5.746l-1.772-1.817l5.727-5.727L151.879,270.593z"/>
	</g>
	<g>
		<path d="M398.6,268.926v-2.089c1.968-0.191,3.34-0.512,4.117-0.961c0.777-0.449,1.357-1.512,1.741-3.187h2.149v21.585h-2.906
			v-15.349H398.6z"/>
		<path d="M415.001,279.401c0.671-1.383,1.98-2.639,3.928-3.769l2.906-1.681c1.302-0.757,2.215-1.403,2.74-1.939
			c0.827-0.839,1.241-1.8,1.241-2.881c0-1.265-0.378-2.268-1.135-3.011s-1.766-1.115-3.027-1.115c-1.867,0-3.159,0.709-3.875,2.126
			c-0.384,0.759-0.596,1.812-0.636,3.157h-2.77c0.03-1.887,0.378-3.426,1.044-4.617c1.181-2.099,3.264-3.148,6.251-3.148
			c2.482,0,4.296,0.672,5.442,2.014c1.145,1.342,1.718,2.836,1.718,4.48c0,1.735-0.611,3.219-1.832,4.45
			c-0.707,0.717-1.973,1.584-3.799,2.604l-2.074,1.15c-0.989,0.545-1.766,1.064-2.331,1.56c-1.009,0.877-1.645,1.852-1.907,2.921
			h11.837v2.573h-14.879C413.943,282.408,414.33,280.784,415.001,279.401z"/>
		<path d="M440.482,270.593l1.795-1.796l5.754,5.734l5.734-5.734l1.817,1.772l-5.753,5.754l5.768,5.749l-1.838,1.838l-5.75-5.767
			l-5.747,5.746l-1.772-1.817l5.727-5.727L440.482,270.593z"/>
	</g>
	<g>
		<path d="M725.482,262.962v2.377c-0.696,0.676-1.622,1.852-2.777,3.526c-1.156,1.675-2.178,3.481-3.065,5.419
			c-0.878,1.887-1.544,3.607-1.998,5.162c-0.293,0.998-0.671,2.608-1.136,4.828h-3.012c0.686-4.138,2.199-8.255,4.541-12.352
			c1.383-2.401,2.836-4.476,4.359-6.221h-11.988v-2.74H725.482z"/>
		<path d="M736.879,270.593l1.795-1.796l5.754,5.734l5.734-5.734l1.818,1.772l-5.754,5.754l5.768,5.749l-1.838,1.838l-5.75-5.767
			l-5.746,5.746l-1.771-1.817l5.727-5.727L736.879,270.593z"/>
	</g>
	<g>
		<path d="M1419.559,317.338v-2.842c1.314-0.059,2.234-0.146,2.761-0.264c0.838-0.186,1.521-0.557,2.046-1.113
			c0.36-0.381,0.633-0.889,0.818-1.523c0.107-0.381,0.16-0.664,0.16-0.85h3.486v21.24h-4.277v-14.648H1419.559z"/>
		<path d="M1456.567,316.275l2.695,2.711l-5.034,5.04l5.034,5.022l-2.69,2.75l-5.058-5.054l-5.054,5.06l-2.711-2.756l5.043-5.024
			l-5.043-5.038l2.71-2.711l5.051,5.04L1456.567,316.275z"/>
	</g>
	<g>
		<path d="M1004.77,268.926v-2.089c1.969-0.191,3.34-0.512,4.117-0.961s1.357-1.512,1.741-3.187h2.149v21.585h-2.906v-15.349
			H1004.77z"/>
		<path d="M1029.411,270.593l1.796-1.796l5.754,5.734l5.734-5.734l1.816,1.772l-5.753,5.754l5.769,5.749l-1.839,1.838l-5.749-5.767
			l-5.747,5.746l-1.772-1.817l5.727-5.727L1029.411,270.593z"/>
	</g>
	<rect y="-406.857" width="292.5" height="100"/>
	<rect x="292.5" y="-370.857" width="292.5" height="100"/>
	<rect x="585" y="-406.857" width="292.5" height="100"/>
	<rect x="877.5" y="-370.857" width="292.5" height="100"/>
	<g>
		<g>
			<rect x="1012.569" y="498.334" fill="#FFFFFF" stroke="#231F20" stroke-miterlimit="10" width="46.129" height="129.02"/>
			<g>
				<rect x="972.266" y="648.354" fill="#FFFFFF" stroke="#231F20" stroke-miterlimit="10" width="28" height="50.938"/>
				<rect x="1010.297" y="610.104" fill="#FFFFFF" stroke="#231F20" stroke-miterlimit="10" width="50.938" height="28"/>
				<path fill="#FFFFFF" stroke="#231F20" stroke-miterlimit="10" d="M1058.434,638.104c0,3.475-1,24.998-17.668,41.666
					c-16.667,16.666-37.638,16.557-40.5,16.557v-46.104c3.115,0,5.926-1.545,8.168-3.787s4.166-5.766,4.166-8.332H1058.434z"/>
			</g>
			<rect x="913.91" y="652.11" fill="#FFFFFF" stroke="#231F20" stroke-miterlimit="10" width="109.28" height="46.129"/>
			<rect x="183.839" y="424.441" fill="#FFFFFF" stroke="#231F20" stroke-miterlimit="10" width="187.63" height="46.128"/>
			<rect x="482.795" y="424.441" fill="#FFFFFF" stroke="#231F20" stroke-miterlimit="10" width="39.503" height="46.128"/>
			<rect x="624.135" y="424.441" fill="#FFFFFF" stroke="#231F20" stroke-miterlimit="10" width="360.279" height="46.128"/>
			<rect x="1087.118" y="424.445" fill="#FFFFFF" stroke="#231F20" stroke-miterlimit="10" width="140.35" height="46.128"/>
			<rect x="408.246" y="498.334" fill="#FFFFFF" stroke="#231F20" stroke-miterlimit="10" width="46.129" height="129.02"/>
			<g>
				<path fill="#FFFFFF" stroke="#231F20" stroke-miterlimit="10" d="M394.091,425.46h74.806v43.646c0,0-5.375-0.203-10.45,4.873
					c-5.076,5.076-4.873,10.354-4.873,10.354h-44.459c0,0-0.609-5.889-5.074-10.354c-4.467-4.467-9.949-4.873-9.949-4.873V425.46z"
					/>
				<rect x="366.091" y="422.037" fill="#FFFFFF" stroke="#231F20" stroke-miterlimit="10" width="28" height="50.937"/>
				<rect x="468.795" y="422.037" fill="#FFFFFF" stroke="#231F20" stroke-miterlimit="10" width="28" height="50.937"/>
				<rect x="406.074" y="484.333" fill="#FFFFFF" stroke="#231F20" stroke-miterlimit="10" width="50.938" height="28.002"/>
			</g>
			<rect x="544.386" y="498.334" fill="#FFFFFF" stroke="#231F20" stroke-miterlimit="10" width="46.129" height="129.02"/>
			<g>
				<path fill="#FFFFFF" stroke="#231F20" stroke-miterlimit="10" d="M530.298,425.46h74.806v43.646c0,0-5.375-0.203-10.45,4.873
					c-5.076,5.076-4.873,10.354-4.873,10.354h-44.459c0,0-0.609-5.889-5.074-10.354c-4.467-4.467-9.949-4.873-9.949-4.873V425.46z"
					/>
				<rect x="502.298" y="422.037" fill="#FFFFFF" stroke="#231F20" stroke-miterlimit="10" width="28" height="50.937"/>
				<rect x="605.002" y="422.037" fill="#FFFFFF" stroke="#231F20" stroke-miterlimit="10" width="28" height="50.937"/>
				<rect x="542.281" y="484.333" fill="#FFFFFF" stroke="#231F20" stroke-miterlimit="10" width="50.938" height="28.002"/>
			</g>
			<g>
				<path fill="#FFFFFF" stroke="#231F20" stroke-miterlimit="10" d="M998.414,425.46h74.806v43.646c0,0-5.375-0.203-10.45,4.873
					c-5.076,5.076-4.873,10.354-4.873,10.354h-44.459c0,0-0.609-5.889-5.074-10.354c-4.467-4.467-9.949-4.873-9.949-4.873V425.46z"
					/>
				<rect x="970.414" y="422.037" fill="#FFFFFF" stroke="#231F20" stroke-miterlimit="10" width="28" height="50.937"/>
				<rect x="1073.118" y="422.037" fill="#FFFFFF" stroke="#231F20" stroke-miterlimit="10" width="28" height="50.937"/>
				<rect x="1010.397" y="484.333" fill="#FFFFFF" stroke="#231F20" stroke-miterlimit="10" width="50.938" height="28.002"/>
			</g>
			<g>
				<rect x="542.181" y="611.487" fill="#FFFFFF" stroke="#231F20" stroke-miterlimit="10" width="50.938" height="28"/>
				<rect x="544.585" y="639.487" fill="#FFFFFF" stroke="#231F20" stroke-miterlimit="10" width="46.129" height="32.475"/>
			</g>
			<rect x="-112.543" y="424.441" fill="#FFFFFF" stroke="#231F20" stroke-miterlimit="10" width="192.679" height="46.128"/>
			<rect x="612.181" y="652.11" fill="#FFFFFF" stroke="#231F20" stroke-miterlimit="10" width="68.066" height="46.129"/>
			<g>
				<circle fill="#FFFFFF" stroke="#231F20" stroke-miterlimit="10" cx="567.45" cy="675.175" r="25.469"/>
				<rect x="602.95" y="649.706" fill="#FFFFFF" stroke="#231F20" stroke-miterlimit="10" width="28" height="50.938"/>
				<path fill="#FFFFFF" stroke="#231F20" stroke-miterlimit="10" d="M602.95,652.11h-32.474c-12.738,0-23.064,10.326-23.064,23.064
					s10.326,23.064,23.064,23.064h32.474V652.11z"/>
			</g>
			<g>
				<circle fill="#FFFFFF" stroke="#231F20" stroke-miterlimit="10" cx="862.117" cy="675.175" r="25.469"/>
				<rect x="897.617" y="649.706" fill="#FFFFFF" stroke="#231F20" stroke-miterlimit="10" width="28" height="50.938"/>
				<path fill="#FFFFFF" stroke="#231F20" stroke-miterlimit="10" d="M897.617,652.11h-32.474
					c-12.738,0-23.064,10.326-23.064,23.064s10.326,23.064,23.064,23.064h32.474V652.11z"/>
			</g>
			<g>
				<circle fill="#FFFFFF" stroke="#231F20" stroke-miterlimit="10" cx="730.808" cy="675.175" r="25.469"/>
				<rect x="667.308" y="649.706" fill="#FFFFFF" stroke="#231F20" stroke-miterlimit="10" width="28" height="50.938"/>
				<path fill="#FFFFFF" stroke="#231F20" stroke-miterlimit="10" d="M695.308,698.239h32.474c12.738,0,23.064-10.326,23.064-23.064
					s-10.326-23.064-23.064-23.064h-32.474V698.239z"/>
			</g>
			<rect x="110.969" y="498.334" fill="#FFFFFF" stroke="#231F20" stroke-miterlimit="10" width="46.129" height="129.02"/>
			<g>
				<path fill="#FFFFFF" stroke="#231F20" stroke-miterlimit="10" d="M96.881,425.46h74.806v43.646c0,0-5.375-0.203-10.45,4.873
					c-5.076,5.076-4.873,10.354-4.873,10.354h-44.459c0,0-0.609-5.889-5.074-10.354c-4.467-4.467-9.949-4.873-9.949-4.873V425.46z"
					/>
				<rect x="68.881" y="422.037" fill="#FFFFFF" stroke="#231F20" stroke-miterlimit="10" width="28" height="50.937"/>
				<rect x="171.585" y="422.037" fill="#FFFFFF" stroke="#231F20" stroke-miterlimit="10" width="28" height="50.937"/>
				<rect x="108.864" y="484.333" fill="#FFFFFF" stroke="#231F20" stroke-miterlimit="10" width="50.938" height="28.002"/>
			</g>
			<g>
				<rect x="108.764" y="611.487" fill="#FFFFFF" stroke="#231F20" stroke-miterlimit="10" width="50.938" height="28"/>
				<rect x="111.168" y="639.487" fill="#FFFFFF" stroke="#231F20" stroke-miterlimit="10" width="46.129" height="32.475"/>
			</g>
			<rect x="178.764" y="652.11" fill="#FFFFFF" stroke="#231F20" stroke-miterlimit="10" width="68.066" height="46.129"/>
			<g>
				<circle fill="#FFFFFF" stroke="#231F20" stroke-miterlimit="10" cx="134.033" cy="675.175" r="25.469"/>
				<rect x="169.533" y="649.706" fill="#FFFFFF" stroke="#231F20" stroke-miterlimit="10" width="28" height="50.938"/>
				<path fill="#FFFFFF" stroke="#231F20" stroke-miterlimit="10" d="M169.533,652.11H137.06c-12.738,0-23.064,10.326-23.064,23.064
					s10.326,23.064,23.064,23.064h32.474V652.11z"/>
			</g>
			<g>
				<circle fill="#FFFFFF" stroke="#231F20" stroke-miterlimit="10" cx="297.391" cy="675.175" r="25.469"/>
				<rect x="233.891" y="649.706" fill="#FFFFFF" stroke="#231F20" stroke-miterlimit="10" width="28" height="50.938"/>
				<path fill="#FFFFFF" stroke="#231F20" stroke-miterlimit="10" d="M261.891,698.239h32.474c12.738,0,23.064-10.326,23.064-23.064
					s-10.326-23.064-23.064-23.064h-32.474V698.239z"/>
			</g>
			<g>
				<rect x="406.074" y="611.241" fill="#FFFFFF" stroke="#231F20" stroke-miterlimit="10" width="50.938" height="28"/>
				<path fill="#FFFFFF" stroke="#231F20" stroke-miterlimit="10" d="M408.479,639.241v32.475c0,12.738,10.326,23.064,23.064,23.064
					s23.064-10.326,23.064-23.064v-32.475H408.479z"/>
				<circle fill="#FFFFFF" stroke="#231F20" stroke-miterlimit="10" cx="431.543" cy="674.741" r="25.469"/>
			</g>
		</g>
		<g>
			<path fill="#231F20" d="M1101.118,422.037v2.408h126.35v46.128h-126.35v2.4h-28v-3.867c-0.729,0-5.661,0.186-10.349,4.873
				c-5.076,5.076-4.873,10.354-4.873,10.354h3.438v28.002h-2.637v97.77h2.536v28h-2.801c0,3.475-1,24.998-17.668,41.666
				c-5.655,5.654-11.805,9.375-17.575,11.826v6.643h-22.925v1.053h-28v-1.053h-46.648v2.404h-28v-2.404h-24.695
				c-3.281,1.539-6.941,2.404-10.805,2.404c-14.065,0-25.469-11.402-25.469-25.469s11.403-25.469,25.469-25.469
				c3.863,0,7.523,0.865,10.805,2.404h24.695v-2.404h28v2.404h46.648v-3.756h28v1.869c3.115,0,5.926-1.545,8.168-3.787
				s4.166-5.766,4.166-8.332h-2.303v-28h2.272v-97.77h-2.172v-28.002h3.04c0,0-0.609-5.889-5.074-10.354
				c-4.467-4.467-9.949-4.873-9.949-4.873v3.867h-28v-2.404H633.002v2.404h-28v-3.867c-0.729,0-5.661,0.186-10.349,4.873
				c-5.076,5.076-4.873,10.354-4.873,10.354h3.438v28.002h-2.704v99.153h2.604v28h-2.404v12.623h12.236v-2.404h28v2.404h36.357
				v-2.404h28v2.404h24.695c3.281-1.541,6.941-2.404,10.805-2.404c14.065,0,25.469,11.402,25.469,25.469
				s-11.403,25.469-25.469,25.469c-3.863,0-7.523-0.865-10.805-2.404h-24.695v2.404h-28v-2.404H630.95v2.404h-28v-2.404h-24.695
				c-3.281,1.539-6.941,2.404-10.805,2.404c-14.065,0-25.469-11.402-25.469-25.469c0-4.027,0.938-7.836,2.604-11.221v-24.467h-2.404
				v-28h2.205v-99.153h-2.104v-28.002h3.04c0,0-0.609-5.889-5.074-10.354c-4.467-4.467-9.949-4.873-9.949-4.873v3.867h-28v-2.404
				h-5.503v2.404h-28v-3.867c-0.728,0-5.661,0.186-10.349,4.873c-5.076,5.076-4.873,10.354-4.873,10.354h3.438v28.002h-2.637v98.907
				h2.637v28h-2.404v24.695c1.54,3.281,2.404,6.941,2.404,10.805c0,14.066-11.402,25.469-25.469,25.469
				s-25.469-11.402-25.469-25.469c0-3.863,0.865-7.523,2.404-10.805v-24.695h-2.404v-28h2.172v-98.907h-2.172v-28.002h3.04
				c0,0-0.609-5.889-5.074-10.354c-4.467-4.467-9.949-4.873-9.949-4.873v3.867h-28v-2.404H199.585v2.404h-28v-3.867
				c-0.728,0-5.661,0.186-10.349,4.873c-5.076,5.076-4.873,10.354-4.873,10.354h3.438v28.002h-2.704v99.153h2.604v28h-2.404v12.623
				h12.236v-2.404h28v2.404h36.357v-2.404h28v2.404h24.695c3.281-1.541,6.941-2.404,10.805-2.404
				c14.065,0,25.469,11.402,25.469,25.469s-11.403,25.469-25.469,25.469c-3.864,0-7.524-0.865-10.805-2.404h-24.695v2.404h-28
				v-2.404h-36.357v2.404h-28v-2.404h-24.695c-3.281,1.539-6.941,2.404-10.805,2.404c-14.065,0-25.469-11.402-25.469-25.469
				c0-4.027,0.938-7.836,2.604-11.221v-24.467h-2.404v-28h2.205v-99.153h-2.104v-28.002h3.04c0,0-0.609-5.889-5.074-10.354
				c-4.467-4.467-9.949-4.873-9.949-4.873v3.867h-28v-2.404h-181.422l-0.002-46.128H68.881v-2.404h28v3.424h74.704v-3.424h28v2.404
				h166.506v-2.404h28v3.424h74.704v-3.424h28v2.404h5.503v-2.404h28v3.424h74.704v-3.424h28v2.404h337.412v-2.404h28v3.424h74.704
				v-3.424H1101.118 M1101.118,420.037h-28c-1.104,0-2,0.896-2,2v1.424h-70.704v-1.424c0-1.104-0.896-2-2-2h-28
				c-1.104,0-2,0.896-2,2v0.404H635.002v-0.404c0-1.104-0.896-2-2-2h-28c-1.104,0-2,0.896-2,2v1.424h-70.704v-1.424
				c0-1.104-0.896-2-2-2h-28c-1.104,0-2,0.896-2,2v0.404h-1.503v-0.404c0-1.104-0.896-2-2-2h-28c-1.104,0-2,0.896-2,2v1.424h-70.704
				v-1.424c0-1.104-0.896-2-2-2h-28c-1.104,0-2,0.896-2,2v0.404H201.585v-0.404c0-1.104-0.896-2-2-2h-28c-1.104,0-2,0.896-2,2v1.424
				H98.881v-1.424c0-1.104-0.896-2-2-2h-28c-1.104,0-2,0.896-2,2v0.404h-179.424c-0.53,0-1.039,0.21-1.414,0.586
				c-0.375,0.375-0.586,0.884-0.586,1.414l0.002,46.128c0,1.105,0.896,2,2,2H66.881v0.404c0,1.104,0.896,2,2,2h28
				c1.104,0,2-0.896,2-2v-1.416c1.756,0.52,4.304,1.605,6.535,3.836c2.292,2.292,3.444,5.054,4.005,6.939h-0.557
				c-1.104,0-2,0.896-2,2v28.002c0,1.104,0.896,2,2,2h0.104v95.153h-0.205c-1.104,0-2,0.896-2,2v28c0,1.104,0.896,2,2,2h0.404
				v22.011c-1.728,3.667-2.604,7.593-2.604,11.677c0,15.146,12.322,27.469,27.469,27.469c3.913,0,7.692-0.809,11.242-2.404h22.258
				v0.404c0,1.104,0.896,2,2,2h28c1.104,0,2-0.896,2-2v-0.404h32.357v0.404c0,1.104,0.896,2,2,2h28c1.104,0,2-0.896,2-2v-0.404
				h22.258c3.55,1.596,7.329,2.404,11.242,2.404c15.146,0,27.469-12.322,27.469-27.469s-12.322-27.469-27.469-27.469
				c-3.917,0-7.697,0.809-11.242,2.404h-22.258v-0.404c0-1.104-0.896-2-2-2h-28c-1.104,0-2,0.896-2,2v0.404h-32.357v-0.404
				c0-1.104-0.896-2-2-2h-28c-1.104,0-2,0.896-2,2v0.404h-8.236v-8.623h0.404c1.104,0,2-0.896,2-2v-28c0-1.104-0.896-2-2-2h-0.604
				v-95.153h0.704c1.104,0,2-0.896,2-2v-28.002c0-1.104-0.896-2-2-2h-1.185c0.4-1.708,1.422-4.328,4.034-6.939
				c2.574-2.573,5.194-3.603,6.935-4.015v1.595c0,1.104,0.896,2,2,2h28c1.104,0,2-0.896,2-2v-0.404h162.506v0.404
				c0,1.104,0.896,2,2,2h28c1.104,0,2-0.896,2-2v-1.416c1.756,0.52,4.304,1.605,6.535,3.836c2.292,2.292,3.444,5.054,4.005,6.939
				h-0.557c-1.104,0-2,0.896-2,2v28.002c0,1.104,0.896,2,2,2h0.172v94.907h-0.172c-1.104,0-2,0.896-2,2v28c0,1.104,0.896,2,2,2
				h0.404v22.258c-1.596,3.549-2.404,7.329-2.404,11.242c0,15.146,12.322,27.469,27.469,27.469s27.469-12.322,27.469-27.469
				c0-3.913-0.809-7.692-2.404-11.242v-22.258h0.404c1.104,0,2-0.896,2-2v-28c0-1.104-0.896-2-2-2h-0.637v-94.907h0.637
				c1.104,0,2-0.896,2-2v-28.002c0-1.104-0.896-2-2-2h-1.185c0.4-1.708,1.422-4.328,4.034-6.939
				c2.573-2.573,5.194-3.603,6.935-4.015v1.595c0,1.104,0.896,2,2,2h28c1.104,0,2-0.896,2-2v-0.404h1.503v0.404c0,1.104,0.896,2,2,2
				h28c1.104,0,2-0.896,2-2v-1.416c1.756,0.52,4.304,1.605,6.535,3.836c2.292,2.292,3.444,5.054,4.005,6.939h-0.557
				c-1.104,0-2,0.896-2,2v28.002c0,1.104,0.896,2,2,2h0.104v95.153h-0.205c-1.104,0-2,0.896-2,2v28c0,1.104,0.896,2,2,2h0.404
				v22.011c-1.728,3.667-2.604,7.593-2.604,11.677c0,15.146,12.322,27.469,27.469,27.469c3.913,0,7.692-0.809,11.242-2.404h22.258
				v0.404c0,1.104,0.896,2,2,2h28c1.104,0,2-0.896,2-2v-0.404h32.357v0.404c0,1.104,0.896,2,2,2h28c1.104,0,2-0.896,2-2v-0.404
				h22.259c3.55,1.596,7.329,2.404,11.241,2.404c15.146,0,27.469-12.322,27.469-27.469s-12.322-27.469-27.469-27.469
				c-3.917,0-7.696,0.809-11.242,2.404h-22.258v-0.404c0-1.104-0.896-2-2-2h-28c-1.104,0-2,0.896-2,2v0.404H632.95v-0.404
				c0-1.104-0.896-2-2-2h-28c-1.104,0-2,0.896-2,2v0.404h-8.236v-8.623h0.404c1.104,0,2-0.896,2-2v-28c0-1.104-0.896-2-2-2h-0.604
				v-95.153h0.704c1.104,0,2-0.896,2-2v-28.002c0-1.104-0.896-2-2-2h-1.186c0.4-1.708,1.423-4.328,4.034-6.939
				c2.573-2.573,5.194-3.603,6.935-4.015v1.595c0,1.104,0.896,2,2,2h28c1.104,0,2-0.896,2-2v-0.404h333.412v0.404
				c0,1.104,0.896,2,2,2h28c1.104,0,2-0.896,2-2v-1.416c1.756,0.52,4.304,1.605,6.535,3.836c2.292,2.292,3.444,5.054,4.005,6.939
				h-0.557c-1.104,0-2,0.896-2,2v28.002c0,1.104,0.896,2,2,2h0.172v93.77h-0.272c-1.104,0-2,0.896-2,2v28
				c0,1.067,0.836,1.939,1.889,1.997c-0.596,1.648-1.777,3.531-3.166,4.921c-1.119,1.119-2.764,2.402-4.792,2.941
				c-0.182-0.918-0.991-1.609-1.962-1.609h-28c-1.104,0-2,0.896-2,2v1.756h-42.648v-0.404c0-1.104-0.896-2-2-2h-28
				c-1.104,0-2,0.896-2,2v0.404h-22.258c-3.551-1.596-7.33-2.404-11.242-2.404c-15.146,0-27.469,12.322-27.469,27.469
				s12.322,27.469,27.469,27.469c3.912,0,7.691-0.809,11.242-2.404h22.258v0.404c0,1.104,0.896,2,2,2h28c1.104,0,2-0.896,2-2v-0.404
				h42.887c0.338,0.627,1,1.053,1.762,1.053h28c0.762,0,1.424-0.426,1.762-1.053h21.163c1.104,0,2-0.896,2-2v-5.335
				c6.375-2.878,12.085-6.816,16.989-11.72c15.405-15.404,17.82-34.622,18.189-41.08h0.865c1.104,0,2-0.896,2-2v-28
				c0-1.104-0.896-2-2-2h-0.536v-93.77h0.637c1.104,0,2-0.896,2-2v-28.002c0-1.104-0.896-2-2-2h-1.186
				c0.4-1.708,1.423-4.328,4.034-6.939c2.573-2.573,5.194-3.603,6.935-4.015v1.595c0,1.104,0.896,2,2,2h28c1.104,0,2-0.896,2-2v-0.4
				h124.35c1.104,0,2-0.896,2-2v-46.128c0-1.104-0.896-2-2-2h-124.35v-0.408C1103.118,420.932,1102.223,420.037,1101.118,420.037
				L1101.118,420.037z"/>
		</g>
	</g>
	<g>
		<g>
			<rect x="-112.54" y="1176.509" fill="#FFFFFF" stroke="#231F20" stroke-miterlimit="10" width="188.008" height="46.129"/>
			<rect x="195.655" y="1176.509" fill="#FFFFFF" stroke="#231F20" stroke-miterlimit="10" width="188.008" height="46.129"/>
			<rect x="621.785" y="1176.509" fill="#FFFFFF" stroke="#231F20" stroke-miterlimit="10" width="292.237" height="46.129"/>
			<rect x="1087.117" y="1176.509" fill="#FFFFFF" stroke="#231F20" stroke-miterlimit="10" width="146.12" height="46.129"/>
			<rect x="481.26" y="1176.509" fill="#FFFFFF" stroke="#231F20" stroke-miterlimit="10" width="35.235" height="46.129"/>
			<rect x="612.504" y="1025.136" fill="#FFFFFF" stroke="#231F20" stroke-miterlimit="10" width="68.066" height="46.129"/>
			<rect x="598.504" y="1022.731" fill="#FFFFFF" stroke="#231F20" stroke-miterlimit="10" width="28" height="50.938"/>
			<rect x="409.237" y="890.532" fill="#FFFFFF" stroke="#231F20" stroke-miterlimit="10" width="46.129" height="269.332"/>
			<rect x="544.908" y="950.966" fill="#FFFFFF" stroke="#231F20" stroke-miterlimit="10" width="46.129" height="208.898"/>
			<rect x="707.115" y="948.2" fill="#FFFFFF" stroke="#231F20" stroke-miterlimit="10" width="46.129" height="46.596"/>
			<rect x="612.504" y="877.181" fill="#FFFFFF" stroke="#231F20" stroke-miterlimit="10" width="68.066" height="46.129"/>
			<g>
				<path fill="#FFFFFF" stroke="#231F20" stroke-miterlimit="10" d="M545.928,1085.503l0.001-74.807h43.646
					c0,0-0.203,5.375,4.873,10.451s10.354,4.873,10.354,4.873l-0.001,44.459c0,0-5.889,0.609-10.354,5.074
					c-4.467,4.467-4.873,9.949-4.873,9.949H545.928z"/>
				<rect x="542.504" y="1085.503" fill="#FFFFFF" stroke="#231F20" stroke-miterlimit="10" width="50.938" height="28"/>
				<rect x="542.505" y="982.798" fill="#FFFFFF" stroke="#231F20" stroke-miterlimit="10" width="50.938" height="28"/>
				<rect x="604.801" y="1022.581" fill="#FFFFFF" stroke="#231F20" stroke-miterlimit="10" width="28.002" height="50.938"/>
			</g>
			<rect x="406.833" y="874.667" fill="#FFFFFF" stroke="#231F20" stroke-miterlimit="10" width="50.938" height="28"/>
			<g>
				<rect x="603.473" y="874.667" fill="#FFFFFF" stroke="#231F20" stroke-miterlimit="10" width="28" height="50.938"/>
				<rect x="542.504" y="935.854" fill="#FFFFFF" stroke="#231F20" stroke-miterlimit="10" width="50.938" height="28"/>
				<path fill="#FFFFFF" stroke="#231F20" stroke-miterlimit="10" d="M545.306,935.854c0-3.475,1-24.998,17.667-41.666
					c16.667-16.666,37.638-16.557,40.5-16.557v46.104c-3.114,0-5.925,1.545-8.167,3.787s-4.166,5.766-4.166,8.332H545.306z"/>
			</g>
			<g>
				<rect x="704.711" y="935.745" fill="#FFFFFF" stroke="#231F20" stroke-miterlimit="10" width="50.938" height="28"/>
				<rect x="666.461" y="874.776" fill="#FFFFFF" stroke="#231F20" stroke-miterlimit="10" width="28" height="50.938"/>
				<path fill="#FFFFFF" stroke="#231F20" stroke-miterlimit="10" d="M694.461,877.579c3.475,0,24.998,1,41.666,17.666
					c16.666,16.668,16.557,37.639,16.557,40.5H706.58c0-3.113-1.545-5.924-3.787-8.166s-5.766-4.166-8.332-4.166V877.579z"/>
			</g>
			<g>
				<rect x="666.57" y="1023.354" fill="#FFFFFF" stroke="#231F20" stroke-miterlimit="10" width="28" height="50.938"/>
				<rect x="704.602" y="985.105" fill="#FFFFFF" stroke="#231F20" stroke-miterlimit="10" width="50.938" height="28"/>
				<path fill="#FFFFFF" stroke="#231F20" stroke-miterlimit="10" d="M752.736,1013.106c0,3.475-1,24.998-17.666,41.666
					c-16.668,16.666-37.639,16.555-40.5,16.555v-46.104c3.113,0,5.924-1.545,8.166-3.787s4.166-5.766,4.166-8.332L752.736,1013.106z
					"/>
			</g>
			<rect x="178.87" y="1025.136" fill="#FFFFFF" stroke="#231F20" stroke-miterlimit="10" width="68.066" height="46.129"/>
			<rect x="164.87" y="1022.731" fill="#FFFFFF" stroke="#231F20" stroke-miterlimit="10" width="28" height="50.938"/>
			<rect x="111.274" y="950.966" fill="#FFFFFF" stroke="#231F20" stroke-miterlimit="10" width="46.129" height="208.898"/>
			<rect x="273.481" y="948.2" fill="#FFFFFF" stroke="#231F20" stroke-miterlimit="10" width="46.129" height="46.596"/>
			<rect x="178.87" y="877.181" fill="#FFFFFF" stroke="#231F20" stroke-miterlimit="10" width="68.066" height="46.129"/>
			<g>
				<path fill="#FFFFFF" stroke="#231F20" stroke-miterlimit="10" d="M112.294,1085.503l0.001-74.807h43.646
					c0,0-0.203,5.375,4.873,10.451s10.354,4.873,10.354,4.873l-0.001,44.459c0,0-5.889,0.609-10.354,5.074
					c-4.467,4.467-4.873,9.949-4.873,9.949H112.294z"/>
				<rect x="108.87" y="1085.503" fill="#FFFFFF" stroke="#231F20" stroke-miterlimit="10" width="50.938" height="28"/>
				<rect x="108.871" y="982.798" fill="#FFFFFF" stroke="#231F20" stroke-miterlimit="10" width="50.938" height="28"/>
				<rect x="171.167" y="1022.581" fill="#FFFFFF" stroke="#231F20" stroke-miterlimit="10" width="28.002" height="50.938"/>
			</g>
			<g>
				<rect x="169.839" y="874.667" fill="#FFFFFF" stroke="#231F20" stroke-miterlimit="10" width="28" height="50.938"/>
				<rect x="108.87" y="935.854" fill="#FFFFFF" stroke="#231F20" stroke-miterlimit="10" width="50.938" height="28"/>
				<path fill="#FFFFFF" stroke="#231F20" stroke-miterlimit="10" d="M111.672,935.854c0-3.475,1-24.998,17.667-41.666
					c16.667-16.666,37.638-16.557,40.5-16.557v46.104c-3.114,0-5.925,1.545-8.167,3.787s-4.166,5.766-4.166,8.332H111.672z"/>
			</g>
			<g>
				<rect x="271.077" y="935.745" fill="#FFFFFF" stroke="#231F20" stroke-miterlimit="10" width="50.938" height="28"/>
				<rect x="232.827" y="874.776" fill="#FFFFFF" stroke="#231F20" stroke-miterlimit="10" width="28" height="50.938"/>
				<path fill="#FFFFFF" stroke="#231F20" stroke-miterlimit="10" d="M260.827,877.579c3.475,0,24.998,1,41.666,17.666
					c16.666,16.668,16.557,37.639,16.557,40.5h-46.104c0-3.113-1.545-5.924-3.787-8.166s-5.766-4.166-8.332-4.166V877.579z"/>
			</g>
			<g>
				<rect x="232.937" y="1023.354" fill="#FFFFFF" stroke="#231F20" stroke-miterlimit="10" width="28" height="50.938"/>
				<rect x="270.968" y="985.105" fill="#FFFFFF" stroke="#231F20" stroke-miterlimit="10" width="50.938" height="28"/>
				<path fill="#FFFFFF" stroke="#231F20" stroke-miterlimit="10" d="M319.103,1013.106c0,3.475-1,24.998-17.666,41.666
					c-16.668,16.666-37.639,16.555-40.5,16.555v-46.104c3.113,0,5.924-1.545,8.166-3.787s4.166-5.766,4.166-8.332L319.103,1013.106z
					"/>
			</g>
			<rect x="995.683" y="1176.8" fill="#FFFFFF" stroke="#231F20" stroke-miterlimit="10" width="80.23" height="43.646"/>
			<rect x="1073.118" y="1173.112" fill="#FFFFFF" stroke="#231F20" stroke-miterlimit="10" width="28" height="50.938"/>
			<rect x="913.913" y="1028.55" fill="#FFFFFF" stroke="#231F20" stroke-miterlimit="10" width="66.611" height="46.129"/>
			<rect x="972.269" y="1026.146" fill="#FFFFFF" stroke="#231F20" stroke-miterlimit="10" width="28" height="50.938"/>
			<rect x="841.239" y="939.95" fill="#FFFFFF" stroke="#231F20" stroke-miterlimit="10" width="46.129" height="64.666"/>
			<rect x="841.239" y="1105.019" fill="#FFFFFF" stroke="#231F20" stroke-miterlimit="10" width="46.129" height="46.596"/>
			<rect x="913.913" y="877.183" fill="#FFFFFF" stroke="#231F20" stroke-miterlimit="10" width="58.353" height="46.129"/>
			<rect x="913.913" y="1176.505" fill="#FFFFFF" stroke="#231F20" stroke-miterlimit="10" width="72.355" height="46.129"/>
			<g>
				<path fill="#FFFFFF" stroke="#231F20" stroke-miterlimit="10" d="M841.147,1089.019v-74.807h43.646
					c0,0-0.203,5.375,4.873,10.451s10.354,4.873,10.354,4.873v44.459c0,0-5.889,0.609-10.354,5.074
					c-4.467,4.467-4.873,9.949-4.873,9.949H841.147z"/>
				<rect x="837.724" y="1089.019" fill="#FFFFFF" stroke="#231F20" stroke-miterlimit="10" width="50.938" height="28"/>
				<rect x="837.724" y="986.313" fill="#FFFFFF" stroke="#231F20" stroke-miterlimit="10" width="50.938" height="28"/>
				<rect x="900.021" y="1026.099" fill="#FFFFFF" stroke="#231F20" stroke-miterlimit="10" width="28.002" height="50.938"/>
			</g>
			<g>
				<rect x="838.835" y="1136.069" fill="#FFFFFF" stroke="#231F20" stroke-miterlimit="10" width="50.938" height="28"/>
				<rect x="900.022" y="1174.101" fill="#FFFFFF" stroke="#231F20" stroke-miterlimit="10" width="28" height="50.938"/>
				<path fill="#FFFFFF" stroke="#231F20" stroke-miterlimit="10" d="M900.022,1222.237c-3.475,0-24.998-1-41.666-17.668
					c-16.666-16.666-16.557-37.637-16.557-40.5h46.104c0,3.115,1.545,5.926,3.787,8.168s5.766,4.166,8.332,4.166V1222.237z"/>
			</g>
			<g>
				<rect x="899.913" y="874.776" fill="#FFFFFF" stroke="#231F20" stroke-miterlimit="10" width="28" height="50.938"/>
				<rect x="838.944" y="935.964" fill="#FFFFFF" stroke="#231F20" stroke-miterlimit="10" width="50.938" height="28"/>
				<path fill="#FFFFFF" stroke="#231F20" stroke-miterlimit="10" d="M841.745,935.964c0-3.475,1-24.998,17.668-41.666
					c16.667-16.666,37.638-16.557,40.5-16.557v46.104c-3.115,0-5.926,1.545-8.168,3.787s-4.166,5.766-4.166,8.332H841.745z"/>
			</g>
			<circle fill="#FFFFFF" stroke="#231F20" stroke-miterlimit="10" cx="1035.769" cy="1198.581" r="25.469"/>
			<rect x="972.269" y="1173.112" fill="#FFFFFF" stroke="#231F20" stroke-miterlimit="10" width="28" height="50.938"/>
			<path fill="#FFFFFF" stroke="#231F20" stroke-miterlimit="10" d="M1000.269,1221.646h32.475
				c12.738,0,23.064-10.328,23.064-23.066c0-12.736-10.326-23.064-23.064-23.064h-32.475V1221.646z"/>
			<g>
				<g>
					<rect x="527.891" y="1176.8" fill="#FFFFFF" stroke="#231F20" stroke-miterlimit="10" width="80.23" height="43.646"/>
					<rect x="605.326" y="1173.112" fill="#FFFFFF" stroke="#231F20" stroke-miterlimit="10" width="28" height="50.938"/>
					<rect x="502.621" y="1173.112" fill="#FFFFFF" stroke="#231F20" stroke-miterlimit="10" width="28" height="50.938"/>
				</g>
				<circle fill="#FFFFFF" stroke="#231F20" stroke-miterlimit="10" cx="567.45" cy="1198.581" r="25.469"/>
				<rect x="542.504" y="1135.083" fill="#FFFFFF" stroke="#231F20" stroke-miterlimit="10" width="50.938" height="28"/>
				<path fill="#FFFFFF" stroke="#231F20" stroke-miterlimit="10" d="M544.908,1163.083v32.473
					c0,12.738,10.326,23.064,23.064,23.064s23.064-10.326,23.064-23.064v-32.473H544.908z"/>
			</g>
			<g>
				<g>
					<rect x="392.219" y="1176.8" fill="#FFFFFF" stroke="#231F20" stroke-miterlimit="10" width="80.23" height="43.646"/>
					<rect x="469.654" y="1173.112" fill="#FFFFFF" stroke="#231F20" stroke-miterlimit="10" width="28" height="50.938"/>
					<rect x="366.949" y="1173.112" fill="#FFFFFF" stroke="#231F20" stroke-miterlimit="10" width="28" height="50.938"/>
				</g>
				<circle fill="#FFFFFF" stroke="#231F20" stroke-miterlimit="10" cx="431.778" cy="1198.581" r="25.469"/>
				<rect x="406.832" y="1135.083" fill="#FFFFFF" stroke="#231F20" stroke-miterlimit="10" width="50.938" height="28"/>
				<path fill="#FFFFFF" stroke="#231F20" stroke-miterlimit="10" d="M409.236,1163.083v32.473
					c0,12.738,10.326,23.064,23.064,23.064s23.064-10.326,23.064-23.064v-32.473H409.236z"/>
			</g>
			<g>
				<g>
					<rect x="94.257" y="1176.8" fill="#FFFFFF" stroke="#231F20" stroke-miterlimit="10" width="80.23" height="43.646"/>
					<rect x="171.692" y="1173.112" fill="#FFFFFF" stroke="#231F20" stroke-miterlimit="10" width="28" height="50.938"/>
					<rect x="68.987" y="1173.112" fill="#FFFFFF" stroke="#231F20" stroke-miterlimit="10" width="28" height="50.938"/>
				</g>
				<circle fill="#FFFFFF" stroke="#231F20" stroke-miterlimit="10" cx="133.816" cy="1198.581" r="25.469"/>
				<rect x="108.87" y="1135.083" fill="#FFFFFF" stroke="#231F20" stroke-miterlimit="10" width="50.938" height="28"/>
				<path fill="#FFFFFF" stroke="#231F20" stroke-miterlimit="10" d="M111.274,1163.083v32.473
					c0,12.738,10.326,23.064,23.064,23.064s23.064-10.326,23.064-23.064v-32.473H111.274z"/>
			</g>
			<g>
				<rect x="1013.026" y="847.282" fill="#FFFFFF" stroke="#231F20" stroke-miterlimit="10" width="15" height="49.58"/>
				<g>
					<rect x="980.443" y="878.954" fill="#FFFFFF" stroke="#231F20" stroke-miterlimit="10" width="80.23" height="43.646"/>
					<rect x="1057.879" y="875.267" fill="#FFFFFF" stroke="#231F20" stroke-miterlimit="10" width="28" height="50.938"/>
					<rect x="955.174" y="875.267" fill="#FFFFFF" stroke="#231F20" stroke-miterlimit="10" width="28" height="50.938"/>
				</g>
				<polygon fill="#FFFFFF" stroke="#231F20" stroke-miterlimit="10" points="983.174,845.405 1003.021,838.405 1038.021,838.405 
					1057.879,845.405 1057.879,861.407 983.174,861.407 				"/>
			</g>
		</g>
		<g>
			<path fill="#231F20" d="M1038.021,838.405l19.858,7v16.002h-29.853v17.547h29.853v-3.688h28v50.938h-28v-3.604h-74.705v3.604h-28
				v-2.893h-27.261v2.402h-28v-1.869c-3.115,0-5.926,1.545-8.168,3.787s-4.166,5.766-4.166,8.332h2.303v28h-2.514v22.35h1.293v28
				h-3.868c0.001,0.729,0.186,5.662,4.874,10.35c4.7,4.7,9.572,4.874,10.269,4.874c0.056,0,0.085-0.001,0.085-0.001v-3.438h28.002
				v2.451h44.246v-2.404h28v50.938h-28v-2.404h-44.246v2.357h-28.002v-3.041c0,0-5.889,0.609-10.354,5.074
				c-4.467,4.467-4.873,9.949-4.873,9.949h3.867v28h-1.293v19.051h2.404v28h-1.869c0,3.115,1.545,5.926,3.787,8.168
				s5.766,4.166,8.332,4.166v-2.303h28v2.404h44.246v-3.393h28v2.402h24.7c3.279-1.537,6.938-2.402,10.8-2.402
				c4.835,0,9.355,1.348,13.206,3.688h24.144v-3.688h28v3.396h132.119v46.129l-132.119-0.002v1.414h-28v-3.604h-24.287
				c-3.82,2.287-8.287,3.604-13.062,3.604c-3.863,0-7.522-0.865-10.804-2.404h-24.696v2.404h-28v-1.416h-44.246v2.404h-28v-2.4
				l-266.696-0.002v1.414h-28v-3.604h-24.814c-3.819,2.287-8.286,3.604-13.062,3.604c-4.775,0-9.242-1.316-13.062-3.604h-23.768
				v3.604h-28v-1.412h-4.967v1.412h-28v-3.604H444.84c-3.819,2.287-8.286,3.604-13.062,3.604c-4.775,0-9.242-1.316-13.062-3.604
				h-23.768v3.604h-28v-1.412l-167.257-0.002v1.414h-28v-3.604h-24.814c-3.819,2.287-8.286,3.604-13.062,3.604
				c-4.775,0-9.242-1.316-13.062-3.604H96.987v3.604h-28v-1.412l-181.526-0.002l-0.001-46.127H68.987v-3.396h28v3.688h14.287
				v-13.717h-2.404v-28h2.404v-21.58h-2.404v-28h2.404v-74.705h-2.403v-28h2.403v-18.943h-2.404v-28h2.802
				c0-3.475,1-24.998,17.667-41.666c16.451-16.45,37.096-16.557,40.379-16.557c0.043,0,0.083,0,0.121,0v-2.965h28v2.514h34.988
				v-2.404h28v2.803c3.475,0,24.998,1,41.666,17.666c16.666,16.668,16.557,37.639,16.557,40.5h2.965v28h-2.404v21.361h2.295v28
				l-27.974-0.002l25.171,0.002c0,3.475-1,24.998-17.666,41.666c-16.449,16.447-37.088,16.555-40.377,16.555
				c-0.044,0-0.085,0-0.123,0v2.965h-28v-3.027h-33.768v2.254h-6.299v0.15h-28v-1.094c-1.354,0.725-2.764,1.686-4.057,2.979
				c-1.608,1.609-2.684,3.346-3.41,4.914v5.035h2.404v28h-2.404v21.58h2.404v28h-2.404v13.717h14.289v-3.688h28v3.396h167.257
				v-3.396h28v3.688h14.287v-13.717h-2.404v-28h2.405V902.667h-2.404v-28h50.938v28h-2.404v232.416h2.403v28h-2.404v13.717h14.289
				v-3.688h28v3.396h4.967v-3.396h28v3.688h14.287v-13.717h-2.404v-28h2.404v-21.58h-2.404v-28h2.404v-74.705h-2.403v-28h2.403
				v-18.943h-2.404v-28h2.802c0-3.475,1-24.998,17.667-41.666c16.451-16.45,37.096-16.557,40.38-16.557c0.043,0,0.083,0,0.12,0
				v-2.965h28v2.514h34.988v-2.404h28v2.803c3.475,0,24.998,1,41.666,17.666c16.666,16.668,16.557,37.639,16.557,40.5h2.965v28
				h-2.404v21.361h2.295v28h-2.803c0,3.475-1,24.998-17.666,41.666c-16.449,16.447-37.088,16.555-40.378,16.555
				c-0.043,0-0.085,0-0.122,0v2.965h-28v-3.027h-33.768v2.254h-6.299v0.15h-28v-1.094c-1.354,0.725-2.764,1.686-4.057,2.979
				c-1.608,1.609-2.685,3.346-3.41,4.914v5.035h2.404v28h-2.404v21.58h2.404v28h-2.404v13.717h14.289v-3.688h28v3.396h209.861
				c-1.406-6.387-1.388-11.176-1.388-12.439h-2.965v-28h2.404v-19.051h-3.516v-28h3.424v-74.705h-3.424v-28h3.516v-22.35h-2.295v-28
				h2.801c0-3.475,1-24.998,17.668-41.666c16.451-16.45,37.096-16.557,40.38-16.557c0.043,0,0.083,0,0.12,0v-2.965h28v2.406h27.261
				v-1.916h28v3.688h29.853v-17.547h-29.853v-16.002l19.848-7H1038.021 M603.473,925.604v-1.869c-3.114,0-5.925,1.545-8.167,3.787
				s-4.166,5.766-4.166,8.332h2.302v28h-2.404v18.943h2.405v28h-2.405v5.607c0.723,1.49,1.8,3.131,3.411,4.742
				c1.374,1.375,2.761,2.354,4.056,3.062v-1.479h6.298v-0.15h28.002v2.555h33.767v-1.781h28v1.869c3.113,0,5.924-1.545,8.166-3.787
				s4.166-5.766,4.166-8.332h-2.301v-28h2.514v-21.359h-2.404v-28h1.869c0-3.113-1.545-5.924-3.787-8.166s-5.766-4.166-8.332-4.166
				v2.301h-28v-2.404h-34.988v2.295H603.473 M169.839,925.604v-1.869c-3.114,0-5.925,1.545-8.167,3.787s-4.166,5.766-4.166,8.332
				h2.302v28h-2.404v18.943h2.405v28h-2.405v5.607c0.723,1.49,1.799,3.131,3.411,4.742c1.375,1.375,2.76,2.354,4.056,3.062v-1.479
				h6.298v-0.15h28.002v2.555h33.767v-1.781h28v1.869c3.113,0,5.924-1.545,8.166-3.787s4.166-5.766,4.166-8.332h-2.301v-28h2.514
				v-21.359h-2.404v-28h1.869c0-3.113-1.545-5.924-3.787-8.166s-5.766-4.166-8.332-4.166v2.301h-28v-2.404h-34.988v2.295H169.839
				 M1038.021,836.405h-34.999c-0.227,0-0.451,0.039-0.665,0.114l-19.848,7c-0.8,0.282-1.335,1.038-1.335,1.886v16.002
				c0,1.104,0.896,2,2,2h27.853v13.547h-25.853v-1.688c0-1.104-0.896-2-2-2h-28c-1.076,0-1.954,0.851-1.998,1.916h-23.263v-0.406
				c0-1.104-0.896-2-2-2h-28c-1.104,0-2,0.896-2,2v0.999c-8.383,0.299-25.616,2.811-39.914,17.108
				c-15.405,15.404-17.82,34.622-18.189,41.08h-0.865c-1.104,0-2,0.896-2,2v28c0,1.104,0.896,2,2,2h0.295v18.35h-1.516
				c-1.104,0-2,0.896-2,2v28c0,1.104,0.896,2,2,2h1.424v70.705h-1.424c-1.104,0-2,0.896-2,2v28c0,1.104,0.896,2,2,2h1.516v15.051
				h-0.404c-1.104,0-2,0.896-2,2v28c0,1.104,0.896,2,2,2h1c0.099,2.788,0.405,5.608,0.913,8.439H635.326v-1.396c0-1.104-0.896-2-2-2
				h-28c-1.104,0-2,0.896-2,2v1.688h-10.289v-9.717h0.404c1.104,0,2-0.896,2-2v-28c0-1.104-0.896-2-2-2h-0.404v-17.58h0.404
				c1.104,0,2-0.896,2-2v-28c0-1.104-0.896-2-2-2h-0.404v-2.581c0.736-1.485,1.685-2.813,2.825-3.954
				c0.536-0.537,1.128-1.038,1.769-1.499c0.264,0.128,0.56,0.2,0.873,0.2h28c0.27,0,0.527-0.054,0.762-0.15h5.537
				c1.104,0,2-0.896,2-2v-0.254h29.768v1.027c0,1.104,0.896,2,2,2h28c1.104,0,2-0.896,2-2v-0.999
				c8.381-0.298,25.615-2.809,39.914-17.106c15.403-15.404,17.818-34.622,18.188-41.08h0.867c1.104,0,2-0.896,2-2v-28
				c0-1.104-0.896-2-2-2h-0.295v-17.361h0.404c1.104,0,2-0.896,2-2v-28c0-1.104-0.896-2-2-2h-1.001
				c-0.307-8.424-2.838-25.645-17.106-39.914c-15.404-15.403-34.622-17.818-41.08-18.188v-0.867c0-1.104-0.896-2-2-2h-28
				c-1.104,0-2,0.896-2,2v0.404h-30.988v-0.514c0-1.104-0.896-2-2-2h-28c-1.104,0-2,0.896-2,2v0.999
				c-8.382,0.299-25.615,2.81-39.914,17.108c-15.404,15.404-17.819,34.622-18.188,41.08h-0.867c-1.104,0-2,0.896-2,2v28
				c0,1.104,0.896,2,2,2h0.404v14.943h-0.403c-1.104,0-2,0.896-2,2v28c0,1.104,0.896,2,2,2h0.403v70.705h-0.404
				c-1.104,0-2,0.896-2,2v28c0,1.104,0.896,2,2,2h0.404v17.58h-0.404c-1.104,0-2,0.896-2,2v28c0,1.104,0.896,2,2,2h0.404v9.717
				h-10.287v-1.688c0-1.104-0.896-2-2-2h-28c-1.104,0-2,0.896-2,2v1.396h-0.967v-1.396c0-1.104-0.896-2-2-2h-28
				c-1.104,0-2,0.896-2,2v1.688h-10.289v-9.717h0.404c1.104,0,2-0.896,2-2v-28c0-1.104-0.896-2-2-2h-0.403V904.667h0.404
				c1.104,0,2-0.896,2-2v-28c0-1.104-0.896-2-2-2h-50.938c-1.104,0-2,0.896-2,2v28c0,1.104,0.896,2,2,2h0.404v228.416h-0.405
				c-1.104,0-2,0.896-2,2v28c0,1.104,0.896,2,2,2h0.404v9.717h-10.287v-1.688c0-1.104-0.896-2-2-2h-28c-1.104,0-2,0.896-2,2v1.396
				H201.692v-1.396c0-1.104-0.896-2-2-2h-28c-1.104,0-2,0.896-2,2v1.688h-10.289v-9.717h0.404c1.104,0,2-0.896,2-2v-28
				c0-1.104-0.896-2-2-2h-0.404v-17.58h0.404c1.104,0,2-0.896,2-2v-28c0-1.104-0.896-2-2-2h-0.404v-2.581
				c0.737-1.486,1.686-2.814,2.825-3.954c0.537-0.537,1.128-1.038,1.769-1.499c0.264,0.128,0.561,0.2,0.874,0.2h28
				c0.27,0,0.527-0.054,0.762-0.15h5.537c1.104,0,2-0.896,2-2v-0.254h29.768v1.027c0,1.104,0.896,2,2,2h28c1.104,0,2-0.896,2-2
				v-0.999c8.381-0.298,25.615-2.809,39.914-17.106c15.403-15.404,17.818-34.622,18.187-41.08h0.868c0.53,0,1.039-0.211,1.414-0.586
				c0.375-0.375,0.586-0.884,0.586-1.414v-28c0-1.104-0.896-2-2-2h-0.295v-17.361h0.404c1.104,0,2-0.896,2-2v-28
				c0-1.104-0.896-2-2-2h-1.001c-0.307-8.424-2.838-25.645-17.106-39.914c-15.405-15.403-34.622-17.818-41.081-18.188v-0.867
				c0-1.104-0.896-2-2-2h-28c-1.104,0-2,0.896-2,2v0.404h-30.988v-0.514c0-1.104-0.896-2-2-2h-28c-1.104,0-2,0.896-2,2v0.999
				c-8.382,0.299-25.615,2.81-39.914,17.108c-15.404,15.404-17.819,34.622-18.188,41.08h-0.867c-1.104,0-2,0.896-2,2v28
				c0,1.104,0.896,2,2,2h0.404v14.943h-0.403c-1.104,0-2,0.896-2,2v28c0,1.104,0.896,2,2,2h0.403v70.705h-0.404
				c-1.104,0-2,0.896-2,2v28c0,1.104,0.896,2,2,2h0.404v17.58h-0.404c-1.104,0-2,0.896-2,2v28c0,1.104,0.896,2,2,2h0.404v9.717
				H98.987v-1.688c0-1.104-0.896-2-2-2h-28c-1.104,0-2,0.896-2,2v1.396H-112.54c-0.53,0-1.039,0.211-1.414,0.586
				c-0.375,0.375-0.586,0.884-0.586,1.414l0.001,46.127c0,1.104,0.896,2,2,2l179.614,0.002c0.251,0.817,1.012,1.412,1.912,1.412h28
				c1.104,0,2-0.896,2-2v-1.604h21.226c4.132,2.359,8.823,3.604,13.604,3.604c4.782,0,9.472-1.244,13.604-3.604h22.272v1.604
				c0,1.104,0.896,2,2,2h28c0.901,0,1.663-0.596,1.913-1.414l163.432,0.002c0.251,0.817,1.012,1.412,1.912,1.412h28
				c1.104,0,2-0.896,2-2v-1.604h21.226c4.132,2.359,8.823,3.604,13.604,3.604c4.782,0,9.472-1.244,13.604-3.604h22.272v1.604
				c0,1.104,0.896,2,2,2h28c0.9,0,1.661-0.595,1.912-1.412h1.143c0.251,0.817,1.012,1.412,1.912,1.412h28c1.104,0,2-0.896,2-2
				v-1.604h21.226c4.132,2.359,8.823,3.604,13.604,3.604c4.782,0,9.472-1.244,13.604-3.604h22.272v1.604c0,1.104,0.896,2,2,2h28
				c0.9,0,1.662-0.596,1.913-1.414l262.783,0.002v0.4c0,1.104,0.896,2,2,2h28c1.104,0,2-0.896,2-2v-0.404h40.333
				c0.25,0.819,1.012,1.416,1.913,1.416h28c1.104,0,2-0.896,2-2v-0.404h22.259c3.551,1.596,7.33,2.404,11.241,2.404
				c4.781,0,9.472-1.244,13.604-3.604h21.745v1.604c0,1.104,0.896,2,2,2h28c0.9,0,1.662-0.596,1.913-1.414l130.206,0.002
				c0.53,0,1.039-0.211,1.414-0.586s0.586-0.884,0.586-1.414v-46.129c0-1.104-0.896-2-2-2h-130.119v-1.396c0-1.104-0.896-2-2-2h-28
				c-1.104,0-2,0.896-2,2v1.688h-21.595c-4.167-2.414-8.91-3.688-13.755-3.688c-3.909,0-7.688,0.808-11.236,2.402h-22.264v-0.402
				c0-1.104-0.896-2-2-2h-28c-1.104,0-2,0.896-2,2v1.393h-40.246v-0.404c0-1.104-0.896-2-2-2h-28c-1.067,0-1.939,0.836-1.997,1.889
				c-1.648-0.596-3.531-1.777-4.921-3.166c-1.118-1.119-2.401-2.764-2.941-4.792c0.918-0.182,1.609-0.991,1.609-1.962v-28
				c0-1.104-0.896-2-2-2h-0.404v-15.18c0.756-0.285,1.293-1.016,1.293-1.871v-28c0-1.104-0.896-2-2-2h-1.416
				c0.52-1.756,1.604-4.304,3.836-6.535c2.292-2.292,5.054-3.444,6.939-4.005v0.558c0,1.104,0.896,2,2,2h28.002c1.104,0,2-0.896,2-2
				v-0.357h40.246v0.404c0,1.104,0.896,2,2,2h28c1.104,0,2-0.896,2-2v-50.938c0-1.104-0.896-2-2-2h-28c-1.104,0-2,0.896-2,2v0.404
				h-40.246v-0.451c0-1.104-0.896-2-2-2h-28.002c-1.104,0-2,0.896-2,2v1.179c-1.719-0.403-4.339-1.429-6.939-4.028
				c-2.57-2.57-3.602-5.193-4.014-6.936h1.594c1.104,0,2-0.896,2-2v-28c0-0.855-0.537-1.586-1.293-1.871v-18.479h0.514
				c1.104,0,2-0.896,2-2v-28c0-1.067-0.836-1.939-1.889-1.997c0.596-1.648,1.776-3.531,3.166-4.921
				c1.119-1.118,2.764-2.401,4.792-2.941c0.182,0.918,0.991,1.609,1.962,1.609h28c1.104,0,2-0.896,2-2v-0.402h23.261v0.893
				c0,1.104,0.896,2,2,2h28c1.104,0,2-0.896,2-2v-1.604h70.705v1.604c0,1.104,0.896,2,2,2h28c1.104,0,2-0.896,2-2v-50.938
				c0-1.104-0.896-2-2-2h-28c-1.104,0-2,0.896-2,2v1.688h-25.853v-13.547h27.853c1.104,0,2-0.896,2-2v-16.002
				c0-0.848-0.535-1.604-1.335-1.886l-19.858-7C1038.472,836.444,1038.247,836.405,1038.021,836.405L1038.021,836.405z
				 M633.473,925.31h30.988v0.404c0,1.104,0.896,2,2,2h28c1.066,0,1.938-0.835,1.997-1.887c1.648,0.596,3.531,1.776,4.921,3.166
				c1.118,1.119,2.401,2.763,2.941,4.79c-0.918,0.182-1.609,0.991-1.609,1.962v28c0,1.104,0.896,2,2,2h0.404v17.359h-0.514
				c-1.104,0-2,0.896-2,2v28c0,1.066,0.835,1.938,1.887,1.997c-0.596,1.648-1.776,3.531-3.166,4.921
				c-1.119,1.118-2.763,2.401-4.79,2.941c-0.182-0.918-0.991-1.609-1.962-1.609h-28c-1.03,0-1.879,0.779-1.988,1.781h-29.778v-0.555
				c0-1.104-0.896-2-2-2h-28.002c-0.27,0-0.527,0.054-0.763,0.15h-5.535c-0.417,0-0.805,0.128-1.125,0.347
				c-0.525-0.411-1.032-0.86-1.516-1.345c-1.163-1.162-2.111-2.439-2.826-3.804v-3.132h0.405c1.104,0,2-0.896,2-2v-28
				c0-1.104-0.896-2-2-2h-0.405v-14.943h0.404c1.104,0,2-0.896,2-2v-28c0-1.066-0.835-1.938-1.888-1.997
				c0.596-1.648,1.776-3.531,3.166-4.921c1.119-1.118,2.764-2.401,4.791-2.941c0.182,0.918,0.991,1.609,1.962,1.609h28
				c1.104,0,2-0.896,2-2V925.31L633.473,925.31z M199.839,925.31h30.988v0.404c0,1.104,0.896,2,2,2h28
				c1.066,0,1.938-0.835,1.997-1.887c1.648,0.596,3.531,1.776,4.921,3.166c1.118,1.119,2.401,2.763,2.941,4.79
				c-0.917,0.182-1.609,0.991-1.609,1.962v28c0,1.104,0.896,2,2,2h0.404v17.359h-0.514c-1.104,0-2,0.896-2,2v28
				c0,1.066,0.835,1.938,1.887,1.997c-0.596,1.648-1.777,3.531-3.166,4.921c-1.119,1.118-2.763,2.401-4.79,2.941
				c-0.182-0.918-0.991-1.609-1.962-1.609h-28c-1.031,0-1.879,0.779-1.988,1.781H201.17v-0.555c0-1.104-0.896-2-2-2h-28.002
				c-0.27,0-0.527,0.054-0.762,0.15h-5.536c-0.417,0-0.805,0.128-1.125,0.347c-0.525-0.411-1.031-0.86-1.516-1.345
				c-1.162-1.161-2.111-2.439-2.826-3.804v-3.132h0.405c1.104,0,2-0.896,2-2v-28c0-1.104-0.896-2-2-2h-0.405v-14.943h0.404
				c1.104,0,2-0.896,2-2v-28c0-1.066-0.835-1.938-1.888-1.997c0.596-1.648,1.777-3.531,3.166-4.921
				c1.119-1.118,2.763-2.401,4.791-2.941c0.182,0.918,0.991,1.609,1.962,1.609h28c1.104,0,2-0.896,2-2V925.31L199.839,925.31z"/>
		</g>
	</g>
	<g>
		<g>
			<rect x="1016.249" y="149.137" fill="#FFFFFF" stroke="#231F20" stroke-miterlimit="10" width="15" height="49.58"/>
			<g>
				<rect x="983.666" y="180.81" fill="#FFFFFF" stroke="#231F20" stroke-miterlimit="10" width="80.23" height="43.646"/>
				<rect x="1061.102" y="177.123" fill="#FFFFFF" stroke="#231F20" stroke-miterlimit="10" width="28" height="50.938"/>
				<rect x="958.396" y="177.123" fill="#FFFFFF" stroke="#231F20" stroke-miterlimit="10" width="28" height="50.938"/>
			</g>
			<polygon fill="#FFFFFF" stroke="#231F20" stroke-miterlimit="10" points="986.396,147.26 1006.244,140.26 1041.243,140.26 
				1061.102,147.26 1061.102,163.262 986.396,163.262 			"/>
		</g>
		<g>
			<path fill="#231F20" d="M1041.243,140.26l19.858,7v16.002h-29.853v17.548h29.853v-3.688h28v50.938h-28v-3.604h-74.705v3.604h-28
				v-50.938h28v3.688h29.853v-17.548h-29.853V147.26l19.848-7H1041.243 M1041.243,138.26h-34.999c-0.227,0-0.451,0.039-0.665,0.114
				l-19.848,7c-0.8,0.282-1.335,1.038-1.335,1.886v16.002c0,1.104,0.896,2,2,2h27.853v13.548h-25.853v-1.688c0-1.104-0.896-2-2-2
				h-28c-1.104,0-2,0.896-2,2v50.938c0,1.104,0.896,2,2,2h28c1.104,0,2-0.896,2-2v-1.604h70.705v1.604c0,1.104,0.896,2,2,2h28
				c1.104,0,2-0.896,2-2v-50.938c0-1.104-0.896-2-2-2h-28c-1.104,0-2,0.896-2,2v1.688h-25.853v-13.548h27.853c1.104,0,2-0.896,2-2
				V147.26c0-0.848-0.535-1.604-1.335-1.886l-19.858-7C1041.694,138.299,1041.47,138.26,1041.243,138.26L1041.243,138.26z"/>
		</g>
	</g>
	<g>
		<g>
			<path fill="#FFFFFF" stroke="#231F20" stroke-miterlimit="10" d="M768.602,224.636h-74.807V180.99c0,0,5.376,0.203,10.451-4.873
				c5.076-5.076,4.873-10.354,4.873-10.354h44.459c0,0,0.609,5.889,5.075,10.354c4.467,4.467,9.948,4.873,9.948,4.873V224.636z"/>
			<rect x="768.602" y="177.123" fill="#FFFFFF" stroke="#231F20" stroke-miterlimit="10" width="28" height="50.938"/>
			<rect x="665.896" y="177.123" fill="#FFFFFF" stroke="#231F20" stroke-miterlimit="10" width="28" height="50.938"/>
			<rect x="705.682" y="137.761" fill="#FFFFFF" stroke="#231F20" stroke-miterlimit="10" width="50.938" height="28.002"/>
		</g>
		<g>
			<path fill="#231F20" d="M756.619,137.761v28.002h-3.041c0,0,0.609,5.889,5.075,10.354c4.467,4.467,9.948,4.873,9.948,4.873
				v-3.867h28v50.938h-28v-3.424h-74.705v3.424h-28v-50.938h28v3.868c0.729-0.001,5.662-0.186,10.35-4.874
				c5.076-5.076,4.873-10.354,4.873-10.354h-3.438v-28.002H756.619 M756.619,135.761h-50.938c-1.104,0-2,0.896-2,2v28.002
				c0,1.104,0.896,2,2,2h1.185c-0.4,1.708-1.423,4.328-4.034,6.939c-2.57,2.57-5.193,3.601-6.936,4.013v-1.593c0-1.104-0.896-2-2-2
				h-28c-1.104,0-2,0.896-2,2v50.938c0,1.104,0.896,2,2,2h28c1.104,0,2-0.896,2-2v-1.424h70.705v1.424c0,1.104,0.896,2,2,2h28
				c1.104,0,2-0.896,2-2v-50.938c0-1.104-0.896-2-2-2h-28c-1.104,0-2,0.896-2,2v1.416c-1.756-0.52-4.303-1.605-6.534-3.836
				c-2.293-2.292-3.445-5.054-4.006-6.939h0.558c1.104,0,2-0.896,2-2v-28.002C758.619,136.657,757.724,135.761,756.619,135.761
				L756.619,135.761z"/>
		</g>
	</g>
	<g>
		<g>
			
				<rect x="365.684" y="171.317" transform="matrix(0.7071 -0.7071 0.7071 0.7071 -16.473 330.865)" fill="#FFFFFF" stroke="#231F20" stroke-miterlimit="10" width="50.938" height="28"/>
			
				<rect x="435.842" y="171.162" transform="matrix(0.7071 0.7071 -0.7071 0.7071 266.0416 -271.9622)" fill="#FFFFFF" stroke="#231F20" stroke-miterlimit="10" width="50.938" height="28"/>
			<path fill="#FFFFFF" stroke="#231F20" stroke-miterlimit="10" d="M467.439,211.09c-2.457,2.457-18.384,16.97-41.955,16.97
				s-38.322-14.906-40.346-16.93l32.6-32.6c2.202,2.202,5.282,3.097,8.453,3.097s7.023-1.13,8.838-2.946L467.439,211.09z"/>
		</g>
		<g>
			<path fill="#231F20" d="M453.202,157.254l36.018,36.019l-19.799,19.799l-1.981-1.981c-2.457,2.457-18.384,16.97-41.955,16.97
				s-38.322-14.906-40.346-16.93l-2.096,2.096l-19.799-19.799l36.018-36.018l19.799,19.799l-1.322,1.323
				c2.202,2.202,5.282,3.097,8.453,3.097s7.023-1.13,8.838-2.946l-1.628-1.628L453.202,157.254 M453.202,155.254
				c-0.53,0-1.039,0.211-1.414,0.586l-19.799,19.799c-0.754,0.754-0.78,1.961-0.077,2.747c-1.587,0.744-3.754,1.241-5.719,1.241
				c-1.582,0-3.652-0.256-5.467-1.308c0.521-0.777,0.438-1.839-0.249-2.526l-19.799-19.799c-0.39-0.391-0.902-0.586-1.414-0.586
				s-1.023,0.195-1.414,0.586l-36.018,36.018c-0.781,0.781-0.781,2.047,0,2.828l19.799,19.799c0.39,0.391,0.902,0.586,1.414,0.586
				s1.023-0.195,1.414-0.585l0.708-0.708c6.174,5.74,20.141,16.127,40.32,16.127c21.783,0,37.082-11.882,41.909-16.188l0.613,0.613
				c0.391,0.39,0.902,0.585,1.414,0.585s1.023-0.195,1.414-0.586l19.799-19.799c0.781-0.781,0.781-2.047,0-2.828l-36.018-36.019
				C454.241,155.465,453.732,155.254,453.202,155.254L453.202,155.254z"/>
		</g>
	</g>
	<rect x="132.25" y="177.123" fill="#FFFFFF" stroke="#231F20" stroke-miterlimit="10" width="28" height="50.938"/>
	<g>
		<path fill="#231F20" d="M160.25,177.123v50.938h-28v-50.938H160.25 M160.25,175.123h-28c-1.104,0-2,0.896-2,2v50.938
			c0,1.104,0.896,2,2,2h28c1.104,0,2-0.896,2-2v-50.938C162.25,176.018,161.354,175.123,160.25,175.123L160.25,175.123z"/>
	</g>
	<rect x="-226.489" y="670.133" fill="#ED1C24" width="68.881" height="68.881"/>
	<rect x="-427.023" y="1059.435" fill="#ED1C24" width="68.881" height="68.881"/>
	<rect x="-396.786" y="1128.317" fill="#ED1C24" width="68.881" height="68.881"/>
	<rect x="-182.092" y="545.624" fill="#ED1C24" width="34.44" height="34.44"/>
	<rect x="-216.533" y="856.093" fill="#ED1C24" width="68.881" height="68.881"/>
	<rect x="-313.307" y="454.896" fill="#ED1C24" width="68.881" height="68.881"/>
	<rect x="-268.594" y="386.016" fill="#ED1C24" width="68.881" height="68.881"/>
	<g>
	</g>
	<g>
	</g>
	<g>
	</g>
	<g>
	</g>
	<g>
	</g>
	<g>
	</g>
</g>
</svg>
