<?xml version="1.0" encoding="utf-8"?>
<!-- Generator: Adobe Illustrator 16.0.0, SVG Export Plug-In . SVG Version: 6.00 Build 0)  -->
<!DOCTYPE svg PUBLIC "-//W3C//DTD SVG 1.1//EN" "http://www.w3.org/Graphics/SVG/1.1/DTD/svg11.dtd">
<svg version="1.1" xmlns="http://www.w3.org/2000/svg" xmlns:xlink="http://www.w3.org/1999/xlink" x="0px" y="0px" width="1170px"
	 height="530px" viewBox="0 0 1170 530" enable-background="new 0 0 1170 530" xml:space="preserve">
<symbol  id="Box" viewBox="-24 -24 48 48">
	<polygon fill="none" points="24,-24 -24,-24 -24,24 24,24 	"/>
	<polygon fill="none" stroke="#231F20" stroke-width="2" stroke-miterlimit="10" points="15.0112,-8.667 0,-17.3335 
		-15.0112,-8.667 -15.0112,8.6665 0,17.3335 15.0112,8.6665 	"/>
	<polyline fill="none" stroke="#231F20" stroke-width="2" stroke-miterlimit="10" points="-15.0112,8.6665 0,0 15.0112,8.6665 	"/>
	<line fill="none" stroke="#231F20" stroke-width="2" stroke-miterlimit="10" x1="0" y1="0" x2="0" y2="-17.3335"/>
	<line fill="none" stroke="#231F20" stroke-width="2" stroke-miterlimit="10" x1="7.5059" y1="4.333" x2="-7.5059" y2="13"/>
</symbol>
<symbol  id="Database" viewBox="-24 -24 48 48">
	<polygon fill="none" points="24,-24 -24,-24 -24,24 24,24 	"/>
	<path fill="none" stroke="#231F20" stroke-width="2" stroke-miterlimit="10" d="M17.333,13c0,2.3926-7.7598,4.333-17.333,4.333
		S-17.333,15.3926-17.333,13c0-2.3936,7.7598-4.334,17.333-4.334S17.333,10.6064,17.333,13z"/>
	<path fill="none" stroke="#231F20" stroke-width="2" stroke-miterlimit="10" d="M-17.333-13c0-2.3936,7.7598-4.333,17.333-4.333
		S17.333-15.3936,17.333-13"/>
	<path fill="none" stroke="#231F20" stroke-width="2" stroke-miterlimit="10" d="M-17.333-4.334c0-2.3926,7.7598-4.333,17.333-4.333
		s17.333,1.9404,17.333,4.333"/>
	<path fill="none" stroke="#231F20" stroke-width="2" stroke-miterlimit="10" d="M-17.333,4.334C-17.333,1.9395-9.5732,0,0,0
		s17.333,1.9395,17.333,4.334"/>
	<line fill="none" stroke="#231F20" stroke-width="2" stroke-miterlimit="10" x1="17.333" y1="-13" x2="17.333" y2="13"/>
	<line fill="none" stroke="#231F20" stroke-width="2" stroke-miterlimit="10" x1="-17.333" y1="-13" x2="-17.333" y2="13"/>
</symbol>
<symbol  id="Screen" viewBox="-24 -24 48 48">
	<polygon fill="none" points="24,-24 -24,-24 -24,24 24,24 	"/>
	
		<polygon fill="none" stroke="#231F20" stroke-width="2" stroke-linecap="round" stroke-linejoin="round" stroke-miterlimit="10" points="
		17.333,15.168 -17.333,15.168 -17.333,-15.166 17.333,-15.166 	"/>
	
		<line fill="none" stroke="#231F20" stroke-width="2" stroke-linecap="round" stroke-linejoin="round" stroke-miterlimit="10" x1="17.333" y1="10.834" x2="-17.333" y2="10.834"/>
	
		<line fill="none" stroke="#231F20" stroke-width="2" stroke-linecap="round" stroke-linejoin="round" stroke-miterlimit="10" x1="-12.9995" y1="15.168" x2="-12.9995" y2="10.834"/>
	
		<line fill="none" stroke="#231F20" stroke-width="2" stroke-linecap="round" stroke-linejoin="round" stroke-miterlimit="10" x1="-8.666" y1="10.834" x2="-8.666" y2="15.168"/>
</symbol>
<symbol  id="Tag" viewBox="-24 -24 48 48">
	<path opacity="0.5" fill="#231F20" d="M8.6665,10.833c0-1.1963,0.9702-2.167,2.1665-2.167c1.1968,0,2.167,0.9707,2.167,2.167
		S12.0298,13,10.833,13C9.6367,13,8.6665,12.0293,8.6665,10.833z"/>
	<polygon fill="none" points="-24,-24 24,-24 24,24 -24,24 	"/>
	
		<polygon fill="none" stroke="#231F20" stroke-width="2" stroke-linecap="round" stroke-linejoin="round" stroke-miterlimit="10" points="
		-17.3335,-4.334 -4.3335,-17.334 17.3335,4.334 17.3335,17.334 4.3335,17.334 	"/>
	<path fill="none" stroke="#231F20" stroke-width="2" stroke-linecap="round" stroke-linejoin="round" stroke-miterlimit="10" d="
		M8.6665,10.833c0-1.1963,0.9702-2.167,2.1665-2.167c1.1968,0,2.167,0.9707,2.167,2.167S12.0298,13,10.833,13
		C9.6367,13,8.6665,12.0293,8.6665,10.833z"/>
</symbol>
<symbol  id="Woman" viewBox="-24 -24 48 48">
	<polygon fill="none" points="24,-24 -24,-24 -24,24 24,24 	"/>
	<g>
		
			<line fill="none" stroke="#231F20" stroke-width="2" stroke-linecap="round" stroke-linejoin="round" stroke-miterlimit="10" x1="9.8018" y1="-17.333" x2="8.6694" y2="-13.001"/>
	</g>
	<g>
		
			<line fill="none" stroke="#231F20" stroke-width="2" stroke-linecap="round" stroke-linejoin="round" stroke-miterlimit="10" x1="-9.8018" y1="-17.334" x2="-8.6694" y2="-13.001"/>
	</g>
	<g>
		<path fill="none" stroke="#231F20" stroke-width="2" stroke-linecap="round" stroke-linejoin="round" stroke-miterlimit="10" d="
			M-17.3354-17.334l3.6479,10.9424c0.377,1.1309,1.6606,2.0557,2.8525,2.0557H10.835c1.1919,0,2.4751-0.9248,2.8521-2.0557
			l3.6475-10.9424"/>
	</g>
	<path fill="none" stroke="#231F20" stroke-width="2" stroke-linecap="round" stroke-linejoin="round" stroke-miterlimit="10" d="
		M5.5557,2.0176C5.5557-0.8965,12.2495-3.334,16.083,0c-5.896,2.8125-3.0039,7.7881-4.6665,12.457C9.2354,18.584,5.583,20.5,0,20.5
		s-9.2368-1.916-11.4165-8.043C-13.0806,7.7881-10.1885,2.8125-16.083,0c3.832-3.334,10.5259-0.8965,10.5259,2.0176"/>
	<path fill="none" stroke="#231F20" stroke-width="2" stroke-linecap="round" stroke-linejoin="round" stroke-miterlimit="1" d="
		M-8.5898,9.7539c3.5542,0.041,6.4229,2.8672,6.4229,4.5781c0-1.7109,3.395-5.666,7.5835-5.666
		c1.1509,0,2.2383,0.2637,3.2153,0.7227l0.0073,0.002C8.6577,9.1523,8.6685,8.9111,8.6685,8.666C8.6685,3.8789,4.7881,0,0.0024,0
		C-4.7847,0-8.665,3.8789-8.665,8.666c0,0.3691,0.0234,0.7324,0.0684,1.0889L-8.5898,9.7539z"/>
</symbol>
<g id="Layer_1">
</g>
<g id="Icons">
	<g>
		<path fill="#231F20" d="M682.1992,470.6299h2.5498l1.6953,6.8105h0.0303l2.2197-6.8105h2.1748l2.2051,6.9902h0.0303l1.7852-6.9902
			h2.3701l-3.1055,10.6201h-2.085l-2.3398-7.3496h-0.0303l-2.3398,7.3496h-2.0098L682.1992,470.6299z"/>
		<path fill="#231F20" d="M704.6553,479.9902c-0.3604,0.46-0.8154,0.8145-1.3652,1.0645s-1.1201,0.375-1.71,0.375
			c-0.5605,0-1.0879-0.0898-1.583-0.2695c-0.4941-0.1797-0.9248-0.4375-1.29-0.7725c-0.3643-0.335-0.6523-0.7373-0.8623-1.208
			c-0.21-0.4697-0.3145-0.9941-0.3145-1.5742s0.1045-1.1055,0.3145-1.5752s0.498-0.873,0.8623-1.208
			c0.3652-0.335,0.7959-0.5918,1.29-0.7725c0.4951-0.1797,1.0225-0.2695,1.583-0.2695c0.5195,0,0.9922,0.0898,1.417,0.2695
			c0.4258,0.1807,0.7852,0.4375,1.0801,0.7725s0.5225,0.7383,0.6826,1.208S705,477.0254,705,477.6055v0.7041h-5.2197
			c0.0898,0.4307,0.2852,0.7725,0.585,1.0283c0.2998,0.2549,0.6699,0.3818,1.1094,0.3818c0.3701,0,0.6826-0.082,0.9375-0.2471
			s0.4775-0.3779,0.668-0.6377L704.6553,479.9902z M702.75,476.7803c0.0098-0.3799-0.1152-0.7051-0.375-0.9756
			c-0.2598-0.2695-0.5947-0.4043-1.0049-0.4043c-0.25,0-0.4707,0.04-0.6602,0.1191c-0.1904,0.0811-0.3525,0.1826-0.4873,0.3076
			c-0.1348,0.126-0.2402,0.2705-0.3154,0.4355s-0.1172,0.3369-0.127,0.5176H702.75z"/>
		<path fill="#231F20" d="M706.5742,469.9102h2.25v4.8301h0.0303c0.2598-0.3506,0.5928-0.5977,0.9971-0.7432
			c0.4053-0.1445,0.8428-0.2168,1.3125-0.2168c0.5205,0,0.9854,0.1074,1.3955,0.3223s0.7568,0.5029,1.042,0.8623
			c0.2852,0.3604,0.5049,0.7725,0.6602,1.2373c0.1553,0.4658,0.2324,0.9531,0.2324,1.4629c0,0.5498-0.085,1.0547-0.2549,1.5146
			s-0.4121,0.8574-0.7275,1.1924c-0.3145,0.3359-0.6924,0.5957-1.1328,0.7803c-0.4395,0.1855-0.9297,0.2773-1.4697,0.2773
			c-0.2598,0-0.5049-0.0352-0.7344-0.1045c-0.2305-0.0703-0.4434-0.1602-0.6377-0.2705c-0.1953-0.1094-0.3652-0.2324-0.5107-0.3672
			c-0.1445-0.1348-0.2617-0.2676-0.3516-0.3975h-0.0303v0.96h-2.0703V469.9102z M708.6445,477.6055
			c0,0.5498,0.1572,0.9951,0.4727,1.335c0.3145,0.3398,0.7568,0.5098,1.3271,0.5098s1.0127-0.1699,1.3271-0.5098
			c0.3154-0.3398,0.4727-0.7852,0.4727-1.335c0-0.5508-0.1572-0.9951-0.4727-1.3359c-0.3145-0.3398-0.7568-0.5098-1.3271-0.5098
			s-1.0127,0.1699-1.3271,0.5098C708.8018,476.6104,708.6445,477.0547,708.6445,477.6055z"/>
		<path fill="#231F20" d="M725.7891,473.2246c-0.1904-0.2393-0.4473-0.417-0.7725-0.5322
			c-0.3252-0.1143-0.6328-0.1729-0.9229-0.1729c-0.1699,0-0.3447,0.0205-0.5244,0.0605c-0.1807,0.04-0.3506,0.1025-0.5107,0.1875
			s-0.29,0.1973-0.3896,0.3379c-0.0996,0.1396-0.1504,0.3096-0.1504,0.5098c0,0.3203,0.1201,0.5645,0.3604,0.7344
			c0.2402,0.1709,0.542,0.3154,0.9072,0.4355s0.7578,0.2402,1.1777,0.3594c0.4199,0.1201,0.8125,0.291,1.1777,0.5107
			s0.667,0.5146,0.9072,0.8848s0.3604,0.8652,0.3604,1.4854c0,0.5898-0.1104,1.1045-0.3301,1.5449
			c-0.2197,0.4395-0.5176,0.8047-0.8926,1.0947s-0.8096,0.5049-1.3047,0.6445c-0.4951,0.1406-1.0176,0.21-1.5674,0.21
			c-0.6904,0-1.3301-0.1045-1.9209-0.3145c-0.5898-0.21-1.1396-0.5498-1.6494-1.0205l1.665-1.8291
			c0.2402,0.3193,0.542,0.5674,0.9072,0.7422s0.7422,0.2627,1.1328,0.2627c0.1895,0,0.3818-0.0225,0.5771-0.0674
			c0.1953-0.0459,0.3701-0.1133,0.5254-0.2031c0.1543-0.0898,0.2793-0.2051,0.375-0.3447c0.0947-0.1396,0.1426-0.3047,0.1426-0.4951
			c0-0.3203-0.123-0.5723-0.3682-0.7578c-0.2451-0.1846-0.5527-0.3418-0.9219-0.4727c-0.3701-0.1289-0.7705-0.2598-1.2002-0.3896
			c-0.4307-0.1299-0.8301-0.3047-1.2002-0.5244c-0.3701-0.2207-0.6777-0.5107-0.9229-0.8701
			c-0.2451-0.3604-0.3672-0.835-0.3672-1.4258c0-0.5693,0.1123-1.0693,0.3379-1.5c0.2246-0.4297,0.5244-0.7891,0.8994-1.0791
			s0.8076-0.5078,1.2979-0.6533c0.4902-0.1445,0.9951-0.2168,1.5146-0.2168c0.6006,0,1.1797,0.085,1.7402,0.2549
			c0.5596,0.1699,1.0654,0.4551,1.5146,0.8545L725.7891,473.2246z"/>
		<path fill="#231F20" d="M733.8291,475.7598h-1.9795v2.4307c0,0.2002,0.0098,0.3818,0.0293,0.5469
			c0.0205,0.165,0.0654,0.3076,0.1357,0.4277c0.0693,0.1201,0.1768,0.2129,0.3223,0.2773c0.1445,0.0654,0.3379,0.0977,0.5771,0.0977
			c0.1201,0,0.2773-0.0127,0.4727-0.0371c0.1953-0.0254,0.3428-0.083,0.4424-0.1729v1.875c-0.25,0.0898-0.5098,0.1504-0.7793,0.1797
			c-0.2705,0.0303-0.5352,0.0449-0.7959,0.0449c-0.3799,0-0.7295-0.04-1.0498-0.1201c-0.3203-0.0791-0.5996-0.207-0.8398-0.3818
			s-0.4277-0.4023-0.5625-0.6826s-0.2021-0.6201-0.2021-1.0205v-3.4648h-1.4404V473.96h1.4404v-2.1602h2.25v2.1602h1.9795V475.7598z
			"/>
		<path fill="#231F20" d="M734.6992,477.6055c0-0.5801,0.1045-1.1055,0.3145-1.5752s0.4971-0.873,0.8623-1.208
			s0.7949-0.5918,1.29-0.7725c0.4951-0.1797,1.0225-0.2695,1.583-0.2695c0.5596,0,1.0869,0.0898,1.582,0.2695
			c0.4951,0.1807,0.9248,0.4375,1.29,0.7725s0.6523,0.7383,0.8623,1.208s0.3154,0.9951,0.3154,1.5752s-0.1055,1.1045-0.3154,1.5742
			c-0.21,0.4707-0.4971,0.873-0.8623,1.208s-0.7949,0.5928-1.29,0.7725s-1.0225,0.2695-1.582,0.2695
			c-0.5605,0-1.0879-0.0898-1.583-0.2695s-0.9248-0.4375-1.29-0.7725s-0.6523-0.7373-0.8623-1.208
			C734.8037,478.71,734.6992,478.1855,734.6992,477.6055z M736.9492,477.6055c0,0.5498,0.1572,0.9951,0.4717,1.335
			c0.3154,0.3398,0.7578,0.5098,1.3281,0.5098c0.5693,0,1.0127-0.1699,1.3271-0.5098c0.3154-0.3398,0.4727-0.7852,0.4727-1.335
			c0-0.5508-0.1572-0.9951-0.4727-1.3359c-0.3145-0.3398-0.7578-0.5098-1.3271-0.5098c-0.5703,0-1.0127,0.1699-1.3281,0.5098
			C737.1064,476.6104,736.9492,477.0547,736.9492,477.6055z"/>
		<path fill="#231F20" d="M744.1191,473.96h2.25v1.1699h0.0303c0.2402-0.4502,0.5244-0.7871,0.8545-1.0127
			c0.3301-0.2246,0.7451-0.3369,1.2451-0.3369c0.1299,0,0.2598,0.0049,0.3906,0.0146c0.1299,0.0098,0.249,0.0303,0.3594,0.0605
			v2.0547c-0.1602-0.0498-0.3174-0.0879-0.4727-0.1123c-0.1553-0.0254-0.3174-0.0381-0.4873-0.0381
			c-0.4297,0-0.7695,0.0605-1.0195,0.1807c-0.25,0.1191-0.4424,0.2871-0.5781,0.502c-0.1348,0.2148-0.2227,0.4727-0.2617,0.7725
			c-0.041,0.2998-0.0605,0.6299-0.0605,0.9902v3.0449h-2.25V473.96z"/>
		<path fill="#231F20" d="M756.8545,479.9902c-0.3604,0.46-0.8154,0.8145-1.3652,1.0645s-1.1201,0.375-1.71,0.375
			c-0.5605,0-1.0879-0.0898-1.583-0.2695c-0.4941-0.1797-0.9248-0.4375-1.29-0.7725c-0.3643-0.335-0.6523-0.7373-0.8623-1.208
			c-0.21-0.4697-0.3145-0.9941-0.3145-1.5742s0.1045-1.1055,0.3145-1.5752s0.498-0.873,0.8623-1.208
			c0.3652-0.335,0.7959-0.5918,1.29-0.7725c0.4951-0.1797,1.0225-0.2695,1.583-0.2695c0.5195,0,0.9922,0.0898,1.417,0.2695
			c0.4258,0.1807,0.7852,0.4375,1.0801,0.7725s0.5225,0.7383,0.6826,1.208s0.2402,0.9951,0.2402,1.5752v0.7041h-5.2197
			c0.0898,0.4307,0.2852,0.7725,0.585,1.0283c0.2998,0.2549,0.6699,0.3818,1.1094,0.3818c0.3701,0,0.6826-0.082,0.9375-0.2471
			s0.4775-0.3779,0.668-0.6377L756.8545,479.9902z M754.9492,476.7803c0.0098-0.3799-0.1152-0.7051-0.375-0.9756
			c-0.2598-0.2695-0.5947-0.4043-1.0049-0.4043c-0.25,0-0.4707,0.04-0.6602,0.1191c-0.1904,0.0811-0.3525,0.1826-0.4873,0.3076
			c-0.1348,0.126-0.2402,0.2705-0.3154,0.4355s-0.1172,0.3369-0.127,0.5176H754.9492z"/>
	</g>
	<g>
		<path fill="#231F20" d="M153.5996,248.3896c-0.2305-0.2793-0.5127-0.4951-0.8477-0.6445
			c-0.335-0.1504-0.7227-0.2256-1.1631-0.2256c-0.4395,0-0.8467,0.0859-1.2217,0.2559s-0.7002,0.4072-0.9756,0.7119
			c-0.2754,0.3057-0.4902,0.668-0.6445,1.0879c-0.1553,0.4199-0.2324,0.875-0.2324,1.3652c0,0.5,0.0771,0.957,0.2324,1.3721
			c0.1543,0.415,0.3672,0.7754,0.6367,1.0801c0.2705,0.3047,0.5879,0.543,0.9531,0.7129c0.3643,0.1699,0.7568,0.2549,1.1777,0.2549
			c0.4795,0,0.9043-0.1006,1.2744-0.3008c0.3701-0.1992,0.6748-0.4795,0.915-0.8398l1.9502,1.4551
			c-0.4502,0.6299-1.0205,1.0947-1.71,1.3955c-0.6904,0.2998-1.4004,0.4492-2.1299,0.4492c-0.8301,0-1.5957-0.1299-2.2949-0.3896
			c-0.7002-0.2598-1.3057-0.6318-1.8154-1.1172s-0.9072-1.0723-1.1924-1.7627s-0.4277-1.46-0.4277-2.3096
			c0-0.8506,0.1426-1.6201,0.4277-2.3105c0.2852-0.6895,0.6826-1.2773,1.1924-1.7627c0.5098-0.4844,1.1152-0.8574,1.8154-1.1172
			c0.6992-0.2598,1.4648-0.3896,2.2949-0.3896c0.2998,0,0.6123,0.0273,0.9375,0.082c0.3242,0.0557,0.6445,0.1426,0.96,0.2627
			c0.3145,0.1201,0.6172,0.2803,0.9072,0.4795c0.29,0.2002,0.5498,0.4453,0.7803,0.7354L153.5996,248.3896z"/>
		<path fill="#231F20" d="M163.665,256.25h-2.1602v-0.9902h-0.0303c-0.0801,0.1406-0.1826,0.2803-0.3076,0.4199
			c-0.125,0.1406-0.2773,0.2656-0.457,0.375c-0.1807,0.1104-0.3857,0.2002-0.6152,0.2705c-0.2305,0.0693-0.4805,0.1045-0.75,0.1045
			c-0.5703,0-1.0332-0.0869-1.3877-0.2617c-0.3555-0.1758-0.6299-0.418-0.8252-0.7275c-0.1943-0.3105-0.3252-0.6758-0.3896-1.0957
			c-0.0654-0.4199-0.0977-0.875-0.0977-1.3643V248.96h2.25v3.5703c0,0.21,0.0078,0.4268,0.0225,0.6523
			c0.0146,0.2246,0.0605,0.4326,0.1348,0.6221c0.0752,0.1904,0.1904,0.3457,0.3457,0.4648c0.1543,0.1201,0.377,0.1807,0.667,0.1807
			s0.5254-0.0527,0.7051-0.1572c0.1797-0.1055,0.3174-0.2451,0.4121-0.4209c0.0957-0.1748,0.1582-0.3721,0.1875-0.5918
			c0.0303-0.2197,0.0459-0.4502,0.0459-0.6904V248.96h2.25V256.25z"/>
		<path fill="#231F20" d="M169.3789,251.1055c-0.3301-0.4102-0.7646-0.6152-1.3047-0.6152c-0.1904,0-0.375,0.0449-0.5557,0.1348
			c-0.1797,0.0898-0.2695,0.2451-0.2695,0.4648c0,0.1797,0.0928,0.3125,0.2773,0.3975s0.4199,0.1602,0.7051,0.2256
			c0.2852,0.0645,0.5898,0.1348,0.915,0.21c0.3252,0.0742,0.6299,0.1924,0.915,0.3525s0.5195,0.377,0.7051,0.6523
			c0.1846,0.2754,0.2773,0.6426,0.2773,1.1025c0,0.4697-0.1025,0.8574-0.3076,1.1621c-0.2051,0.3057-0.4678,0.5498-0.7871,0.7354
			c-0.3203,0.1846-0.6807,0.3145-1.0801,0.3896c-0.4004,0.0752-0.7949,0.1123-1.1855,0.1123c-0.5098,0-1.0244-0.0723-1.5449-0.2168
			c-0.5195-0.1455-0.96-0.4023-1.3193-0.7725l1.3643-1.5156c0.21,0.2607,0.4434,0.458,0.6982,0.5928s0.5518,0.2021,0.8926,0.2021
			c0.2598,0,0.4941-0.0371,0.7041-0.1123c0.2109-0.0752,0.3154-0.2119,0.3154-0.4121c0-0.1904-0.0928-0.333-0.2773-0.4277
			c-0.1855-0.0947-0.4199-0.1748-0.7051-0.2402c-0.2852-0.0645-0.5898-0.1348-0.915-0.21s-0.6299-0.1875-0.915-0.3369
			c-0.2852-0.1504-0.5205-0.3633-0.7051-0.6377c-0.1846-0.2754-0.2773-0.6426-0.2773-1.1025c0-0.4297,0.0869-0.7998,0.2627-1.1104
			c0.1748-0.3096,0.4043-0.5645,0.6895-0.7646s0.6123-0.3477,0.9824-0.4424c0.3701-0.0957,0.7451-0.1426,1.125-0.1426
			c0.4805,0,0.9648,0.0693,1.4551,0.21c0.4902,0.1396,0.9053,0.3896,1.2451,0.75L169.3789,251.1055z"/>
		<path fill="#231F20" d="M177.1641,250.7598h-1.9795v2.4307c0,0.2002,0.0098,0.3818,0.0293,0.5469
			c0.0205,0.165,0.0654,0.3076,0.1357,0.4277c0.0693,0.1201,0.1768,0.2129,0.3223,0.2773c0.1445,0.0654,0.3379,0.0977,0.5771,0.0977
			c0.1201,0,0.2773-0.0127,0.4727-0.0371c0.1953-0.0254,0.3428-0.083,0.4424-0.1729v1.875c-0.25,0.0898-0.5098,0.1504-0.7793,0.1797
			c-0.2705,0.0303-0.5352,0.0449-0.7959,0.0449c-0.3799,0-0.7295-0.04-1.0498-0.1201c-0.3203-0.0791-0.5996-0.207-0.8398-0.3818
			s-0.4277-0.4023-0.5625-0.6826s-0.2021-0.6201-0.2021-1.0205v-3.4648h-1.4404V248.96h1.4404v-2.1602h2.25v2.1602h1.9795V250.7598z
			"/>
		<path fill="#231F20" d="M178.0342,252.6055c0-0.5801,0.1045-1.1055,0.3145-1.5752s0.4971-0.873,0.8623-1.208
			s0.7949-0.5918,1.29-0.7725c0.4951-0.1797,1.0225-0.2695,1.583-0.2695c0.5596,0,1.0869,0.0898,1.582,0.2695
			c0.4951,0.1807,0.9248,0.4375,1.29,0.7725s0.6523,0.7383,0.8623,1.208s0.3154,0.9951,0.3154,1.5752s-0.1055,1.1045-0.3154,1.5742
			c-0.21,0.4707-0.4971,0.873-0.8623,1.208s-0.7949,0.5928-1.29,0.7725s-1.0225,0.2695-1.582,0.2695
			c-0.5605,0-1.0879-0.0898-1.583-0.2695s-0.9248-0.4375-1.29-0.7725s-0.6523-0.7373-0.8623-1.208
			C178.1387,253.71,178.0342,253.1855,178.0342,252.6055z M180.2842,252.6055c0,0.5498,0.1572,0.9951,0.4717,1.335
			c0.3154,0.3398,0.7578,0.5098,1.3281,0.5098c0.5693,0,1.0127-0.1699,1.3271-0.5098c0.3154-0.3398,0.4727-0.7852,0.4727-1.335
			c0-0.5508-0.1572-0.9951-0.4727-1.3359c-0.3145-0.3398-0.7578-0.5098-1.3271-0.5098c-0.5703,0-1.0127,0.1699-1.3281,0.5098
			C180.4414,251.6104,180.2842,252.0547,180.2842,252.6055z"/>
		<path fill="#231F20" d="M187.4541,248.96h2.1602v0.9902h0.0303c0.0693-0.1396,0.1699-0.2803,0.2998-0.4199
			c0.1299-0.1406,0.2852-0.2646,0.4648-0.375s0.3848-0.2002,0.6152-0.2705c0.2295-0.0693,0.4795-0.1045,0.75-0.1045
			c0.5098,0,0.9619,0.1045,1.3574,0.3145c0.3945,0.21,0.6924,0.54,0.8926,0.9902c0.2598-0.4697,0.5742-0.8047,0.9443-1.0049
			s0.8252-0.2998,1.3652-0.2998c0.4902,0,0.9023,0.082,1.2373,0.2471s0.6006,0.3906,0.7949,0.6748
			c0.1953,0.2852,0.335,0.6201,0.4209,1.0049c0.084,0.3857,0.127,0.7979,0.127,1.2383v4.3047h-2.25v-4.2451
			c0-0.3398-0.0723-0.6318-0.2178-0.877c-0.1445-0.2451-0.4023-0.3682-0.7725-0.3682c-0.2598,0-0.4775,0.043-0.6523,0.1279
			s-0.3145,0.2021-0.4199,0.3525c-0.1045,0.1494-0.1797,0.3252-0.2246,0.5244c-0.0449,0.2002-0.0674,0.4102-0.0674,0.6299v3.8555
			h-2.25v-3.8555c0-0.1289-0.0059-0.2891-0.0156-0.4795c-0.0098-0.1895-0.0449-0.3701-0.1045-0.54
			c-0.0605-0.1699-0.1582-0.3154-0.293-0.4346c-0.1348-0.1201-0.332-0.1807-0.5928-0.1807c-0.29,0-0.5244,0.0527-0.7041,0.1582
			c-0.1807,0.1045-0.3184,0.2451-0.4131,0.4199s-0.1572,0.3721-0.1875,0.5918c-0.0303,0.2207-0.0449,0.4502-0.0449,0.6904v3.6299
			h-2.25V248.96z"/>
		<path fill="#231F20" d="M207.4043,254.9902c-0.3604,0.46-0.8154,0.8145-1.3652,1.0645s-1.1201,0.375-1.71,0.375
			c-0.5605,0-1.0879-0.0898-1.583-0.2695c-0.4941-0.1797-0.9248-0.4375-1.29-0.7725c-0.3643-0.335-0.6523-0.7373-0.8623-1.208
			c-0.21-0.4697-0.3145-0.9941-0.3145-1.5742s0.1045-1.1055,0.3145-1.5752s0.498-0.873,0.8623-1.208
			c0.3652-0.335,0.7959-0.5918,1.29-0.7725c0.4951-0.1797,1.0225-0.2695,1.583-0.2695c0.5195,0,0.9922,0.0898,1.417,0.2695
			c0.4258,0.1807,0.7852,0.4375,1.0801,0.7725s0.5225,0.7383,0.6826,1.208s0.2402,0.9951,0.2402,1.5752v0.7041h-5.2197
			c0.0898,0.4307,0.2852,0.7725,0.585,1.0283c0.2998,0.2549,0.6699,0.3818,1.1094,0.3818c0.3701,0,0.6826-0.082,0.9375-0.2471
			s0.4775-0.3779,0.668-0.6377L207.4043,254.9902z M205.499,251.7803c0.0098-0.3799-0.1152-0.7051-0.375-0.9756
			c-0.2598-0.2695-0.5947-0.4043-1.0049-0.4043c-0.25,0-0.4707,0.04-0.6602,0.1191c-0.1904,0.0811-0.3525,0.1826-0.4873,0.3076
			c-0.1348,0.126-0.2402,0.2705-0.3154,0.4355s-0.1172,0.3369-0.127,0.5176H205.499z"/>
		<path fill="#231F20" d="M209.1133,248.96h2.25v1.1699h0.0303c0.2402-0.4502,0.5244-0.7871,0.8545-1.0127
			c0.3301-0.2246,0.7451-0.3369,1.2451-0.3369c0.1299,0,0.2598,0.0049,0.3906,0.0146c0.1299,0.0098,0.249,0.0303,0.3594,0.0605
			v2.0547c-0.1602-0.0498-0.3174-0.0879-0.4727-0.1123c-0.1553-0.0254-0.3174-0.0381-0.4873-0.0381
			c-0.4297,0-0.7695,0.0605-1.0195,0.1807c-0.25,0.1191-0.4424,0.2871-0.5781,0.502c-0.1348,0.2148-0.2227,0.4727-0.2617,0.7725
			c-0.041,0.2998-0.0605,0.6299-0.0605,0.9902v3.0449h-2.25V248.96z"/>
	</g>
	<g>
		<path fill="#231F20" d="M385.3955,245.6299h3.9453c0.5498,0,1.0693,0.0498,1.5596,0.1504
			c0.4902,0.0996,0.917,0.2725,1.2822,0.5176s0.6553,0.5752,0.8701,0.9893c0.2148,0.415,0.3223,0.9375,0.3223,1.5684
			c0,0.6201-0.0996,1.1396-0.2998,1.5596s-0.4746,0.7549-0.8252,1.0049c-0.3496,0.25-0.7646,0.4277-1.2441,0.5322
			c-0.4805,0.1055-1.001,0.1582-1.5605,0.1582h-1.71v4.1396h-2.3398V245.6299z M387.7354,250.1299h1.5605
			c0.21,0,0.4121-0.0195,0.6074-0.0596c0.1943-0.04,0.3691-0.1074,0.5244-0.2031c0.1553-0.0947,0.2803-0.2246,0.375-0.3896
			s0.1426-0.3721,0.1426-0.6221c0-0.2705-0.0625-0.4883-0.1875-0.6533s-0.2852-0.292-0.4795-0.3818
			c-0.1953-0.0898-0.4131-0.1475-0.6533-0.1729c-0.2393-0.0244-0.4697-0.0371-0.6895-0.0371h-1.2002V250.1299z"/>
		<path fill="#231F20" d="M394.5605,248.96h2.25v1.1699h0.0303c0.2402-0.4502,0.5244-0.7871,0.8545-1.0127
			c0.3301-0.2246,0.7451-0.3369,1.2451-0.3369c0.1299,0,0.2598,0.0049,0.3906,0.0146c0.1299,0.0098,0.249,0.0303,0.3594,0.0605
			v2.0547c-0.1602-0.0498-0.3174-0.0879-0.4727-0.1123c-0.1553-0.0254-0.3174-0.0381-0.4873-0.0381
			c-0.4297,0-0.7695,0.0605-1.0195,0.1807c-0.25,0.1191-0.4424,0.2871-0.5781,0.502c-0.1348,0.2148-0.2227,0.4727-0.2617,0.7725
			c-0.041,0.2998-0.0605,0.6299-0.0605,0.9902v3.0449h-2.25V248.96z"/>
		<path fill="#231F20" d="M400.126,252.6055c0-0.5801,0.1045-1.1055,0.3145-1.5752s0.4971-0.873,0.8623-1.208
			s0.7949-0.5918,1.29-0.7725c0.4951-0.1797,1.0225-0.2695,1.583-0.2695c0.5596,0,1.0869,0.0898,1.582,0.2695
			c0.4951,0.1807,0.9248,0.4375,1.29,0.7725s0.6523,0.7383,0.8623,1.208s0.3154,0.9951,0.3154,1.5752s-0.1055,1.1045-0.3154,1.5742
			c-0.21,0.4707-0.4971,0.873-0.8623,1.208s-0.7949,0.5928-1.29,0.7725s-1.0225,0.2695-1.582,0.2695
			c-0.5605,0-1.0879-0.0898-1.583-0.2695s-0.9248-0.4375-1.29-0.7725s-0.6523-0.7373-0.8623-1.208
			C400.2305,253.71,400.126,253.1855,400.126,252.6055z M402.376,252.6055c0,0.5498,0.1572,0.9951,0.4717,1.335
			c0.3154,0.3398,0.7578,0.5098,1.3281,0.5098c0.5693,0,1.0127-0.1699,1.3271-0.5098c0.3154-0.3398,0.4727-0.7852,0.4727-1.335
			c0-0.5508-0.1572-0.9951-0.4727-1.3359c-0.3145-0.3398-0.7578-0.5098-1.3271-0.5098c-0.5703,0-1.0127,0.1699-1.3281,0.5098
			C402.5332,251.6104,402.376,252.0547,402.376,252.6055z"/>
		<path fill="#231F20" d="M417.1953,256.25h-2.0703v-0.96h-0.0303c-0.0898,0.1299-0.207,0.2627-0.3525,0.3975
			c-0.1445,0.1348-0.3145,0.2578-0.5098,0.3672c-0.1953,0.1104-0.4102,0.2002-0.6445,0.2705
			c-0.2354,0.0693-0.4785,0.1045-0.7275,0.1045c-0.54,0-1.0303-0.0918-1.4707-0.2773c-0.4395-0.1846-0.8174-0.4443-1.1318-0.7803
			c-0.3154-0.335-0.5576-0.7324-0.7275-1.1924c-0.1709-0.46-0.2549-0.9648-0.2549-1.5146c0-0.5098,0.0771-0.9971,0.2324-1.4629
			c0.1543-0.4648,0.375-0.877,0.6602-1.2373c0.2842-0.3594,0.6318-0.6475,1.042-0.8623s0.875-0.3223,1.3955-0.3223
			c0.4697,0,0.9072,0.0723,1.3125,0.2168c0.4043,0.1455,0.7373,0.3926,0.9971,0.7432h0.0303v-4.8301h2.25V256.25z M415.125,252.6055
			c0-0.5508-0.1572-0.9951-0.4727-1.3359c-0.3145-0.3398-0.7578-0.5098-1.3271-0.5098c-0.5703,0-1.0127,0.1699-1.3281,0.5098
			c-0.3145,0.3408-0.4717,0.7852-0.4717,1.3359c0,0.5498,0.1572,0.9951,0.4717,1.335c0.3154,0.3398,0.7578,0.5098,1.3281,0.5098
			c0.5693,0,1.0127-0.1699,1.3271-0.5098C414.9678,253.6006,415.125,253.1553,415.125,252.6055z"/>
		<path fill="#231F20" d="M426.0156,256.25h-2.1602v-0.9902h-0.0303c-0.0801,0.1406-0.1826,0.2803-0.3076,0.4199
			c-0.125,0.1406-0.2773,0.2656-0.457,0.375c-0.1807,0.1104-0.3857,0.2002-0.6152,0.2705c-0.2305,0.0693-0.4805,0.1045-0.75,0.1045
			c-0.5703,0-1.0332-0.0869-1.3877-0.2617c-0.3555-0.1758-0.6299-0.418-0.8252-0.7275c-0.1943-0.3105-0.3252-0.6758-0.3896-1.0957
			c-0.0654-0.4199-0.0977-0.875-0.0977-1.3643V248.96h2.25v3.5703c0,0.21,0.0078,0.4268,0.0225,0.6523
			c0.0146,0.2246,0.0605,0.4326,0.1348,0.6221c0.0752,0.1904,0.1904,0.3457,0.3457,0.4648c0.1543,0.1201,0.377,0.1807,0.667,0.1807
			s0.5254-0.0527,0.7051-0.1572c0.1797-0.1055,0.3174-0.2451,0.4121-0.4209c0.0957-0.1748,0.1582-0.3721,0.1875-0.5918
			c0.0303-0.2197,0.0459-0.4502,0.0459-0.6904V248.96h2.25V256.25z"/>
		<path fill="#231F20" d="M432.54,251.3154c-0.1104-0.1602-0.2656-0.293-0.4658-0.3975c-0.2002-0.1055-0.415-0.1582-0.6445-0.1582
			c-0.5703,0-1.0127,0.1699-1.3271,0.5098c-0.3154,0.3408-0.4727,0.7852-0.4727,1.3359c0,0.5498,0.1572,0.9951,0.4727,1.335
			c0.3145,0.3398,0.7568,0.5098,1.3271,0.5098c0.25,0,0.4648-0.0547,0.6445-0.165c0.1807-0.1104,0.335-0.2402,0.4658-0.3906
			l1.4844,1.5605c-0.3496,0.3604-0.7627,0.6123-1.2373,0.7578c-0.4756,0.1445-0.9277,0.2168-1.3574,0.2168
			c-0.5605,0-1.0879-0.0898-1.583-0.2695c-0.4941-0.1797-0.9248-0.4375-1.29-0.7725c-0.3643-0.335-0.6523-0.7373-0.8623-1.208
			c-0.21-0.4697-0.3145-0.9941-0.3145-1.5742s0.1045-1.1055,0.3145-1.5752s0.498-0.873,0.8623-1.208
			c0.3652-0.335,0.7959-0.5918,1.29-0.7725c0.4951-0.1797,1.0225-0.2695,1.583-0.2695c0.4297,0,0.8818,0.0723,1.3574,0.2168
			c0.4746,0.1455,0.8877,0.3975,1.2373,0.7578L432.54,251.3154z"/>
		<path fill="#231F20" d="M439.7998,250.7598h-1.9795v2.4307c0,0.2002,0.0098,0.3818,0.0293,0.5469
			c0.0205,0.165,0.0654,0.3076,0.1357,0.4277c0.0693,0.1201,0.1768,0.2129,0.3223,0.2773c0.1445,0.0654,0.3379,0.0977,0.5771,0.0977
			c0.1201,0,0.2773-0.0127,0.4727-0.0371c0.1953-0.0254,0.3428-0.083,0.4424-0.1729v1.875c-0.25,0.0898-0.5098,0.1504-0.7793,0.1797
			c-0.2705,0.0303-0.5352,0.0449-0.7959,0.0449c-0.3799,0-0.7295-0.04-1.0498-0.1201c-0.3203-0.0791-0.5996-0.207-0.8398-0.3818
			s-0.4277-0.4023-0.5625-0.6826s-0.2021-0.6201-0.2021-1.0205v-3.4648h-1.4404V248.96h1.4404v-2.1602h2.25v2.1602h1.9795V250.7598z
			"/>
		<path fill="#231F20" d="M445.1104,252.6055c0-0.5801,0.1045-1.1055,0.3145-1.5752s0.4971-0.873,0.8623-1.208
			s0.7949-0.5918,1.29-0.7725c0.4951-0.1797,1.0225-0.2695,1.583-0.2695c0.5596,0,1.0869,0.0898,1.582,0.2695
			c0.4951,0.1807,0.9248,0.4375,1.29,0.7725s0.6523,0.7383,0.8623,1.208s0.3154,0.9951,0.3154,1.5752s-0.1055,1.1045-0.3154,1.5742
			c-0.21,0.4707-0.4971,0.873-0.8623,1.208s-0.7949,0.5928-1.29,0.7725s-1.0225,0.2695-1.582,0.2695
			c-0.5605,0-1.0879-0.0898-1.583-0.2695s-0.9248-0.4375-1.29-0.7725s-0.6523-0.7373-0.8623-1.208
			C445.2148,253.71,445.1104,253.1855,445.1104,252.6055z M447.3604,252.6055c0,0.5498,0.1572,0.9951,0.4717,1.335
			c0.3154,0.3398,0.7578,0.5098,1.3281,0.5098c0.5693,0,1.0127-0.1699,1.3271-0.5098c0.3154-0.3398,0.4727-0.7852,0.4727-1.335
			c0-0.5508-0.1572-0.9951-0.4727-1.3359c-0.3145-0.3398-0.7578-0.5098-1.3271-0.5098c-0.5703,0-1.0127,0.1699-1.3281,0.5098
			C447.5176,251.6104,447.3604,252.0547,447.3604,252.6055z"/>
		<path fill="#231F20" d="M454.5293,248.96h2.25v1.1699h0.0303c0.2402-0.4502,0.5244-0.7871,0.8545-1.0127
			c0.3301-0.2246,0.7451-0.3369,1.2451-0.3369c0.1299,0,0.2598,0.0049,0.3906,0.0146c0.1299,0.0098,0.249,0.0303,0.3594,0.0605
			v2.0547c-0.1602-0.0498-0.3174-0.0879-0.4727-0.1123c-0.1553-0.0254-0.3174-0.0381-0.4873-0.0381
			c-0.4297,0-0.7695,0.0605-1.0195,0.1807c-0.25,0.1191-0.4424,0.2871-0.5781,0.502c-0.1348,0.2148-0.2227,0.4727-0.2617,0.7725
			c-0.041,0.2998-0.0605,0.6299-0.0605,0.9902v3.0449h-2.25V248.96z"/>
		<path fill="#231F20" d="M470.6094,248.2246c-0.1904-0.2393-0.4473-0.417-0.7725-0.5322
			c-0.3252-0.1143-0.6328-0.1729-0.9229-0.1729c-0.1699,0-0.3447,0.0205-0.5244,0.0605c-0.1807,0.04-0.3506,0.1025-0.5107,0.1875
			s-0.29,0.1973-0.3896,0.3379c-0.0996,0.1396-0.1504,0.3096-0.1504,0.5098c0,0.3203,0.1201,0.5645,0.3604,0.7344
			c0.2402,0.1709,0.542,0.3154,0.9072,0.4355s0.7578,0.2402,1.1777,0.3594c0.4199,0.1201,0.8125,0.291,1.1777,0.5107
			s0.667,0.5146,0.9072,0.8848s0.3604,0.8652,0.3604,1.4854c0,0.5898-0.1104,1.1045-0.3301,1.5449
			c-0.2197,0.4395-0.5176,0.8047-0.8926,1.0947s-0.8096,0.5049-1.3047,0.6445c-0.4951,0.1406-1.0176,0.21-1.5674,0.21
			c-0.6904,0-1.3301-0.1045-1.9209-0.3145c-0.5898-0.21-1.1396-0.5498-1.6494-1.0205l1.665-1.8291
			c0.2402,0.3193,0.542,0.5674,0.9072,0.7422s0.7422,0.2627,1.1328,0.2627c0.1895,0,0.3818-0.0225,0.5771-0.0674
			c0.1953-0.0459,0.3701-0.1133,0.5254-0.2031c0.1543-0.0898,0.2793-0.2051,0.375-0.3447c0.0947-0.1396,0.1426-0.3047,0.1426-0.4951
			c0-0.3203-0.123-0.5723-0.3682-0.7578c-0.2451-0.1846-0.5527-0.3418-0.9219-0.4727c-0.3701-0.1289-0.7705-0.2598-1.2002-0.3896
			c-0.4307-0.1299-0.8301-0.3047-1.2002-0.5244c-0.3701-0.2207-0.6777-0.5107-0.9229-0.8701
			c-0.2451-0.3604-0.3672-0.835-0.3672-1.4258c0-0.5693,0.1123-1.0693,0.3379-1.5c0.2246-0.4297,0.5244-0.7891,0.8994-1.0791
			s0.8076-0.5078,1.2979-0.6533c0.4902-0.1445,0.9951-0.2168,1.5146-0.2168c0.6006,0,1.1797,0.085,1.7402,0.2549
			c0.5596,0.1699,1.0654,0.4551,1.5146,0.8545L470.6094,248.2246z"/>
		<path fill="#231F20" d="M480.584,254.9902c-0.3604,0.46-0.8154,0.8145-1.3652,1.0645s-1.1201,0.375-1.71,0.375
			c-0.5605,0-1.0879-0.0898-1.583-0.2695c-0.4941-0.1797-0.9248-0.4375-1.29-0.7725c-0.3643-0.335-0.6523-0.7373-0.8623-1.208
			c-0.21-0.4697-0.3145-0.9941-0.3145-1.5742s0.1045-1.1055,0.3145-1.5752s0.498-0.873,0.8623-1.208
			c0.3652-0.335,0.7959-0.5918,1.29-0.7725c0.4951-0.1797,1.0225-0.2695,1.583-0.2695c0.5195,0,0.9922,0.0898,1.417,0.2695
			c0.4258,0.1807,0.7852,0.4375,1.0801,0.7725s0.5225,0.7383,0.6826,1.208s0.2402,0.9951,0.2402,1.5752v0.7041h-5.2197
			c0.0898,0.4307,0.2852,0.7725,0.585,1.0283c0.2998,0.2549,0.6699,0.3818,1.1094,0.3818c0.3701,0,0.6826-0.082,0.9375-0.2471
			s0.4775-0.3779,0.668-0.6377L480.584,254.9902z M478.6787,251.7803c0.0098-0.3799-0.1152-0.7051-0.375-0.9756
			c-0.2598-0.2695-0.5947-0.4043-1.0049-0.4043c-0.25,0-0.4707,0.04-0.6602,0.1191c-0.1904,0.0811-0.3525,0.1826-0.4873,0.3076
			c-0.1348,0.126-0.2402,0.2705-0.3154,0.4355s-0.1172,0.3369-0.127,0.5176H478.6787z"/>
		<path fill="#231F20" d="M482.2939,248.96h2.25v1.1699h0.0303c0.2402-0.4502,0.5244-0.7871,0.8545-1.0127
			c0.3301-0.2246,0.7451-0.3369,1.2451-0.3369c0.1299,0,0.2598,0.0049,0.3906,0.0146c0.1299,0.0098,0.249,0.0303,0.3594,0.0605
			v2.0547c-0.1602-0.0498-0.3174-0.0879-0.4727-0.1123c-0.1553-0.0254-0.3174-0.0381-0.4873-0.0381
			c-0.4297,0-0.7695,0.0605-1.0195,0.1807c-0.25,0.1191-0.4424,0.2871-0.5781,0.502c-0.1348,0.2148-0.2227,0.4727-0.2617,0.7725
			c-0.041,0.2998-0.0605,0.6299-0.0605,0.9902v3.0449h-2.25V248.96z"/>
		<path fill="#231F20" d="M487.6338,248.96h2.4297l1.8447,4.9502h0.0303l1.71-4.9502h2.2646l-2.8799,7.29h-2.3848L487.6338,248.96z"
			/>
		<path fill="#231F20" d="M496.5879,246.665c0-0.3604,0.1279-0.668,0.3828-0.9229s0.5625-0.3818,0.9229-0.3818
			c0.3594,0,0.667,0.127,0.9219,0.3818c0.2559,0.2549,0.3828,0.5625,0.3828,0.9229s-0.127,0.667-0.3828,0.9229
			c-0.2549,0.2549-0.5625,0.3818-0.9219,0.3818c-0.3604,0-0.668-0.127-0.9229-0.3818
			C496.7158,247.332,496.5879,247.0254,496.5879,246.665z M496.7686,248.96h2.25v7.29h-2.25V248.96z"/>
		<path fill="#231F20" d="M505.5742,251.3154c-0.1104-0.1602-0.2656-0.293-0.4658-0.3975c-0.2002-0.1055-0.415-0.1582-0.6445-0.1582
			c-0.5703,0-1.0127,0.1699-1.3271,0.5098c-0.3154,0.3408-0.4727,0.7852-0.4727,1.3359c0,0.5498,0.1572,0.9951,0.4727,1.335
			c0.3145,0.3398,0.7568,0.5098,1.3271,0.5098c0.25,0,0.4648-0.0547,0.6445-0.165c0.1807-0.1104,0.335-0.2402,0.4658-0.3906
			l1.4844,1.5605c-0.3496,0.3604-0.7627,0.6123-1.2373,0.7578c-0.4756,0.1445-0.9277,0.2168-1.3574,0.2168
			c-0.5605,0-1.0879-0.0898-1.583-0.2695c-0.4941-0.1797-0.9248-0.4375-1.29-0.7725c-0.3643-0.335-0.6523-0.7373-0.8623-1.208
			c-0.21-0.4697-0.3145-0.9941-0.3145-1.5742s0.1045-1.1055,0.3145-1.5752s0.498-0.873,0.8623-1.208
			c0.3652-0.335,0.7959-0.5918,1.29-0.7725c0.4951-0.1797,1.0225-0.2695,1.583-0.2695c0.4297,0,0.8818,0.0723,1.3574,0.2168
			c0.4746,0.1455,0.8877,0.3975,1.2373,0.7578L505.5742,251.3154z"/>
		<path fill="#231F20" d="M514.7686,254.9902c-0.3604,0.46-0.8154,0.8145-1.3652,1.0645s-1.1201,0.375-1.71,0.375
			c-0.5605,0-1.0879-0.0898-1.583-0.2695c-0.4941-0.1797-0.9248-0.4375-1.29-0.7725c-0.3643-0.335-0.6523-0.7373-0.8623-1.208
			c-0.21-0.4697-0.3145-0.9941-0.3145-1.5742s0.1045-1.1055,0.3145-1.5752s0.498-0.873,0.8623-1.208
			c0.3652-0.335,0.7959-0.5918,1.29-0.7725c0.4951-0.1797,1.0225-0.2695,1.583-0.2695c0.5195,0,0.9922,0.0898,1.417,0.2695
			c0.4258,0.1807,0.7852,0.4375,1.0801,0.7725s0.5225,0.7383,0.6826,1.208s0.2402,0.9951,0.2402,1.5752v0.7041h-5.2197
			c0.0898,0.4307,0.2852,0.7725,0.585,1.0283c0.2998,0.2549,0.6699,0.3818,1.1094,0.3818c0.3701,0,0.6826-0.082,0.9375-0.2471
			s0.4775-0.3779,0.668-0.6377L514.7686,254.9902z M512.8633,251.7803c0.0098-0.3799-0.1152-0.7051-0.375-0.9756
			c-0.2598-0.2695-0.5947-0.4043-1.0049-0.4043c-0.25,0-0.4707,0.04-0.6602,0.1191c-0.1904,0.0811-0.3525,0.1826-0.4873,0.3076
			c-0.1348,0.126-0.2402,0.2705-0.3154,0.4355s-0.1172,0.3369-0.127,0.5176H512.8633z"/>
	</g>
	<g>
		<g>
			<path fill="none" stroke="#00ADEF" stroke-width="3.75" stroke-linejoin="round" d="M450,284.8594V398.75
				c0,6.1875,5.0625,11.25,11.25,11.25H675"/>
			<g>
				<polygon fill="#00ADEF" points="461.3892,286.3867 438.6108,286.3867 450,275 				"/>
			</g>
		</g>
	</g>
	<g>
		<g>
			<path fill="none" stroke="#00ADEF" stroke-width="3.75" stroke-linejoin="round" d="M180.0005,130.1406L180,61.25
				c0-6.1875,5.0625-11.25,11.25-11.25h247.5c6.1875,0,11.25,5.0625,11.25,11.25l0.0005,78.75"/>
			<g>
				<polygon fill="#00ADEF" points="168.6113,128.6138 191.3896,128.6133 180.0005,140 				"/>
			</g>
		</g>
	</g>
	<g>
		<g>
			<line fill="none" stroke="#00ADEF" stroke-width="3.75" stroke-linejoin="round" x1="720" y1="355.1406" x2="720" y2="275"/>
			<g>
				<polygon fill="#00ADEF" points="708.6113,353.6133 731.3887,353.6133 720,365 				"/>
			</g>
		</g>
	</g>
	<g>
		<g>
			<path fill="#00ADEF" d="M744.7939,323.75h-0.9902v-11.3398h0.9902V323.75z"/>
			<path fill="#00ADEF" d="M748.6182,314.0303c0,0.21-0.0742,0.3818-0.2246,0.5176c-0.1504,0.1348-0.3145,0.2021-0.4951,0.2021
				c-0.1797,0-0.3447-0.0674-0.4951-0.2021c-0.1494-0.1357-0.2246-0.3076-0.2246-0.5176s0.0752-0.3828,0.2246-0.5176
				c0.1504-0.1348,0.3154-0.2031,0.4951-0.2031c0.1807,0,0.3447,0.0684,0.4951,0.2031S748.6182,313.8203,748.6182,314.0303z
				 M748.3936,323.75h-0.9902v-7.0195h0.9902V323.75z"/>
			<path fill="#00ADEF" d="M751.7246,316.7305c0.0195,0.1895,0.0322,0.377,0.0371,0.5625c0.0049,0.1846,0.0078,0.3721,0.0078,0.5625
				h0.0293c0.1104-0.1904,0.25-0.3652,0.4199-0.5254s0.3604-0.2979,0.5703-0.4121c0.21-0.1152,0.4326-0.2051,0.668-0.2705
				c0.2344-0.0645,0.4668-0.0977,0.6973-0.0977c0.9004,0,1.5645,0.2383,1.9951,0.7129c0.4297,0.4746,0.6445,1.1523,0.6445,2.0322
				v4.4551h-0.9893v-3.8848c0-0.7803-0.1357-1.3779-0.4053-1.793c-0.2705-0.415-0.7705-0.6221-1.5-0.6221
				c-0.0508,0-0.1904,0.0195-0.4199,0.0596c-0.2305,0.04-0.4727,0.1504-0.7275,0.3301s-0.4824,0.4502-0.6826,0.8105
				c-0.2002,0.3594-0.2998,0.8594-0.2998,1.5v3.5996h-0.9902v-5.4746c0-0.1904-0.0078-0.4307-0.0225-0.7207
				s-0.0322-0.5645-0.0527-0.8242H751.7246z"/>
			<path fill="#00ADEF" d="M760.1094,319.8945l3.3145-3.1641h1.4854l-3.4951,3.21l3.8701,3.8096h-1.5303l-3.6445-3.6904v3.6904
				h-0.9902v-11.3398h0.9902V319.8945z"/>
			<path fill="#00ADEF" d="M770.0684,318.3945c-0.1494-0.2891-0.3496-0.5195-0.5996-0.6895s-0.5557-0.2549-0.915-0.2549
				c-0.1699,0-0.3428,0.0195-0.5176,0.0596s-0.333,0.1025-0.4727,0.1875s-0.2529,0.1934-0.3379,0.3223
				c-0.085,0.1309-0.127,0.291-0.127,0.4805c0,0.3301,0.1152,0.5703,0.3447,0.7197c0.2305,0.1504,0.5752,0.2803,1.0352,0.3906
				l1.0049,0.2393c0.4902,0.1104,0.8975,0.333,1.2227,0.668s0.4873,0.7529,0.4873,1.252c0,0.3809-0.0771,0.708-0.2324,0.9834
				c-0.1553,0.2744-0.3604,0.5-0.6152,0.6748s-0.5469,0.3027-0.877,0.3818c-0.3301,0.0801-0.665,0.1201-1.0049,0.1201
				c-0.54,0-1.043-0.1025-1.5078-0.3076c-0.4648-0.2041-0.8623-0.5566-1.1924-1.0566l0.8545-0.585
				c0.2002,0.3193,0.4531,0.5742,0.7578,0.7646s0.668,0.2852,1.0879,0.2852c0.1992,0,0.3994-0.0225,0.5996-0.0674
				s0.377-0.1152,0.5322-0.21c0.1553-0.0957,0.2803-0.2178,0.375-0.3682c0.0957-0.1494,0.1426-0.3242,0.1426-0.5244
				c0-0.3506-0.1299-0.6025-0.3896-0.7578s-0.5752-0.2773-0.9453-0.3672l-0.96-0.2256c-0.1201-0.0293-0.2822-0.0801-0.4873-0.1494
				c-0.2051-0.0703-0.4053-0.1748-0.5996-0.3154c-0.1953-0.1396-0.3633-0.3223-0.5029-0.5479c-0.1396-0.2246-0.21-0.502-0.21-0.832
				c0-0.3604,0.0723-0.6748,0.2178-0.9453c0.1445-0.2695,0.3398-0.4893,0.585-0.6602c0.2451-0.1699,0.5225-0.2969,0.832-0.3818
				c0.3105-0.085,0.6299-0.1279,0.96-0.1279c0.4902,0,0.9453,0.0957,1.3652,0.2852c0.4199,0.1904,0.7451,0.5156,0.9746,0.9746
				L770.0684,318.3945z"/>
			<path fill="#00ADEF" d="M780.5381,317.6299h-2.0254v4.1396c0,0.2607,0.0254,0.4727,0.0752,0.6377s0.1201,0.293,0.21,0.3828
				s0.1973,0.1523,0.3232,0.1875c0.124,0.0352,0.2617,0.0527,0.4121,0.0527c0.1699,0,0.3447-0.0254,0.5254-0.0752
				c0.1797-0.0498,0.3447-0.1152,0.4941-0.1953l0.0449,0.915c-0.3691,0.1699-0.8145,0.2549-1.335,0.2549
				c-0.1895,0-0.3877-0.0244-0.5918-0.0742c-0.2051-0.0508-0.3926-0.1455-0.5625-0.2852c-0.1709-0.1406-0.3105-0.3301-0.4199-0.5703
				c-0.1104-0.2402-0.165-0.5547-0.165-0.9453v-4.4248h-1.4854v-0.8994h1.4854V314.75h0.9893v1.9805h2.0254V317.6299z"/>
			<path fill="#00ADEF" d="M788.9834,320.2402c0,0.5303-0.0928,1.0195-0.2773,1.4697c-0.1855,0.4502-0.4424,0.8398-0.7725,1.1699
				s-0.7227,0.5879-1.1777,0.7725c-0.4551,0.1855-0.957,0.2773-1.5068,0.2773c-0.54,0-1.0381-0.0918-1.4932-0.2773
				c-0.4551-0.1846-0.8477-0.4424-1.1777-0.7725c-0.3291-0.3301-0.5869-0.7197-0.7725-1.1699
				c-0.1846-0.4502-0.2773-0.9395-0.2773-1.4697s0.0928-1.0205,0.2773-1.4707c0.1855-0.4492,0.4434-0.8398,0.7725-1.1699
				c0.3301-0.3301,0.7227-0.5869,1.1777-0.7725c0.4551-0.1846,0.9531-0.2773,1.4932-0.2773c0.5498,0,1.0518,0.0928,1.5068,0.2773
				c0.4551,0.1855,0.8477,0.4424,1.1777,0.7725s0.5869,0.7207,0.7725,1.1699C788.8906,319.2197,788.9834,319.71,788.9834,320.2402z
				 M787.9033,320.2402c0-0.3906-0.0625-0.7549-0.1875-1.0957c-0.125-0.3398-0.3027-0.6348-0.5322-0.8848
				c-0.2305-0.25-0.5078-0.4473-0.832-0.5918c-0.3252-0.1455-0.6934-0.2178-1.1025-0.2178c-0.4102,0-0.7783,0.0723-1.1025,0.2178
				c-0.3252,0.1445-0.6006,0.3418-0.8252,0.5918c-0.2256,0.25-0.4004,0.5449-0.5254,0.8848
				c-0.125,0.3408-0.1875,0.7051-0.1875,1.0957c0,0.3896,0.0625,0.7549,0.1875,1.0947s0.2998,0.6348,0.5254,0.8848
				c0.2246,0.25,0.5,0.4482,0.8252,0.5928c0.3242,0.1455,0.6924,0.2178,1.1025,0.2178c0.4092,0,0.7773-0.0723,1.1025-0.2178
				c0.3242-0.1445,0.6016-0.3428,0.832-0.5928c0.2295-0.25,0.4072-0.5449,0.5322-0.8848S787.9033,320.6299,787.9033,320.2402z"/>
		</g>
	</g>
	<g>
		<g>
			
				<line fill="none" stroke="#EC008C" stroke-width="3.75" stroke-linejoin="round" x1="225.0005" y1="185" x2="395.1411" y2="185"/>
			<g>
				<polygon fill="#EC008C" points="393.6138,173.6113 393.6138,196.3887 405.0005,185 				"/>
			</g>
		</g>
	</g>
	<g>
		<g>
			<path fill="#EC008C" d="M254.9473,199.9102h0.9902v5.4902h0.0293c0.1602-0.2402,0.3506-0.4453,0.5703-0.6152
				s0.4502-0.3096,0.6904-0.4199c0.2393-0.1104,0.4873-0.1904,0.7422-0.2402s0.4971-0.0752,0.7275-0.0752
				c0.5498,0,1.0527,0.0928,1.5078,0.2773c0.4541,0.1855,0.8467,0.4424,1.1768,0.7725s0.5879,0.7207,0.7725,1.1699
				c0.1855,0.4502,0.2783,0.9404,0.2783,1.4707s-0.0928,1.0195-0.2783,1.4697c-0.1846,0.4502-0.4424,0.8398-0.7725,1.1699
				s-0.7227,0.5879-1.1768,0.7725c-0.4551,0.1855-0.958,0.2773-1.5078,0.2773c-0.2305,0-0.4727-0.0244-0.7275-0.0742
				c-0.2549-0.0508-0.5029-0.1299-0.7422-0.2402c-0.2402-0.1104-0.4707-0.25-0.6904-0.4199s-0.4102-0.375-0.5703-0.6152h-0.0293
				v1.1699h-0.9902V199.9102z M261.3525,207.7402c0-0.3906-0.0625-0.7549-0.1875-1.0957c-0.126-0.3398-0.3027-0.6348-0.5332-0.8848
				c-0.2295-0.25-0.5068-0.4473-0.832-0.5918c-0.3252-0.1455-0.6924-0.2178-1.1025-0.2178s-0.7852,0.0723-1.125,0.2178
				c-0.3398,0.1445-0.6348,0.3418-0.8848,0.5918s-0.4453,0.5449-0.585,0.8848c-0.1406,0.3408-0.21,0.7051-0.21,1.0957
				c0,0.3896,0.0693,0.7549,0.21,1.0947c0.1396,0.3398,0.335,0.6348,0.585,0.8848s0.5449,0.4482,0.8848,0.5928
				c0.3398,0.1455,0.7148,0.2178,1.125,0.2178s0.7773-0.0723,1.1025-0.2178c0.3252-0.1445,0.6025-0.3428,0.832-0.5928
				c0.2305-0.25,0.4072-0.5449,0.5332-0.8848C261.29,208.4951,261.3525,208.1299,261.3525,207.7402z"/>
			<path fill="#EC008C" d="M264.8018,208.0098c0.0303,0.3506,0.1152,0.6807,0.2559,0.9902
				c0.1396,0.3105,0.3242,0.5771,0.5547,0.8027c0.2295,0.2246,0.4951,0.4023,0.7949,0.5322s0.625,0.1953,0.9746,0.1953
				c0.5303,0,0.9883-0.123,1.373-0.3682c0.3848-0.2441,0.6768-0.5273,0.877-0.8467l0.7656,0.6299
				c-0.4199,0.5303-0.8828,0.9102-1.3877,1.1396s-1.0479,0.3447-1.6279,0.3447c-0.5195,0-1.002-0.0918-1.4473-0.2773
				c-0.4453-0.1846-0.8271-0.4424-1.1475-0.7725s-0.5723-0.7197-0.7578-1.1699c-0.1846-0.4502-0.2773-0.9395-0.2773-1.4697
				s0.0898-1.0205,0.2705-1.4707c0.1797-0.4492,0.4297-0.8398,0.75-1.1699c0.3193-0.3301,0.6943-0.5869,1.125-0.7725
				c0.4297-0.1846,0.8945-0.2773,1.3945-0.2773c0.5303,0,1.0049,0.0957,1.4248,0.2852c0.4209,0.1904,0.7725,0.4424,1.0576,0.7578
				c0.2852,0.3145,0.5029,0.6846,0.6523,1.1094c0.1504,0.4258,0.2256,0.8779,0.2256,1.3574v0.4502H264.8018z M269.5723,207.2002
				c0-0.6699-0.2002-1.2129-0.5996-1.6279c-0.4004-0.415-0.96-0.6221-1.6807-0.6221c-0.3203,0-0.6299,0.0625-0.9297,0.1875
				s-0.5625,0.292-0.7871,0.502c-0.2256,0.21-0.4053,0.4502-0.54,0.7207c-0.1357,0.2695-0.2031,0.5498-0.2031,0.8398H269.5723z"/>
			<path fill="#EC008C" d="M277.5674,205.8799c-0.1709-0.2598-0.4082-0.4795-0.7129-0.6602
				c-0.3047-0.1797-0.6523-0.2695-1.042-0.2695c-0.4102-0.0098-0.7783,0.0547-1.1025,0.1943
				c-0.3252,0.1406-0.6025,0.3359-0.833,0.5859s-0.4053,0.5469-0.5244,0.8916c-0.1201,0.3457-0.1807,0.7178-0.1807,1.1182
				c0,0.3994,0.0605,0.7725,0.1807,1.1172c0.1191,0.3447,0.2939,0.6426,0.5244,0.8926s0.5078,0.4453,0.833,0.585
				c0.3242,0.1406,0.6924,0.2051,1.1025,0.1953c0.3896,0,0.7373-0.0898,1.042-0.2705c0.3047-0.1797,0.542-0.3994,0.7129-0.6602
				l0.8096,0.6152c-0.3496,0.4102-0.7451,0.7129-1.1846,0.9072c-0.4404,0.1953-0.9004,0.2979-1.3799,0.3076
				c-0.5703,0.0098-1.0859-0.0771-1.5459-0.2617c-0.46-0.1855-0.8525-0.4434-1.1768-0.7734
				c-0.3252-0.3291-0.5732-0.7217-0.7432-1.1768s-0.2549-0.9473-0.2549-1.4775s0.085-1.0225,0.2549-1.4775
				s0.418-0.8477,0.7432-1.1777c0.3242-0.3301,0.7168-0.5869,1.1768-0.7725c0.46-0.1846,0.9756-0.2725,1.5459-0.2627
				c0.4795,0.0107,0.9395,0.1123,1.3799,0.3076c0.4395,0.1953,0.835,0.498,1.1846,0.9072L277.5674,205.8799z"/>
			<path fill="#EC008C" d="M286.7764,207.7402c0,0.5303-0.0928,1.0195-0.2773,1.4697c-0.1855,0.4502-0.4424,0.8398-0.7725,1.1699
				s-0.7227,0.5879-1.1777,0.7725c-0.4551,0.1855-0.957,0.2773-1.5068,0.2773c-0.54,0-1.0381-0.0918-1.4932-0.2773
				c-0.4551-0.1846-0.8477-0.4424-1.1777-0.7725c-0.3291-0.3301-0.5869-0.7197-0.7725-1.1699
				c-0.1846-0.4502-0.2773-0.9395-0.2773-1.4697s0.0928-1.0205,0.2773-1.4707c0.1855-0.4492,0.4434-0.8398,0.7725-1.1699
				c0.3301-0.3301,0.7227-0.5869,1.1777-0.7725c0.4551-0.1846,0.9531-0.2773,1.4932-0.2773c0.5498,0,1.0518,0.0928,1.5068,0.2773
				c0.4551,0.1855,0.8477,0.4424,1.1777,0.7725s0.5869,0.7207,0.7725,1.1699C286.6836,206.7197,286.7764,207.21,286.7764,207.7402z
				 M285.6963,207.7402c0-0.3906-0.0625-0.7549-0.1875-1.0957c-0.125-0.3398-0.3027-0.6348-0.5322-0.8848
				c-0.2305-0.25-0.5078-0.4473-0.832-0.5918c-0.3252-0.1455-0.6934-0.2178-1.1025-0.2178c-0.4102,0-0.7783,0.0723-1.1025,0.2178
				c-0.3252,0.1445-0.6006,0.3418-0.8252,0.5918c-0.2256,0.25-0.4004,0.5449-0.5254,0.8848
				c-0.125,0.3408-0.1875,0.7051-0.1875,1.0957c0,0.3896,0.0625,0.7549,0.1875,1.0947s0.2998,0.6348,0.5254,0.8848
				c0.2246,0.25,0.5,0.4482,0.8252,0.5928c0.3242,0.1455,0.6924,0.2178,1.1025,0.2178c0.4092,0,0.7773-0.0723,1.1025-0.2178
				c0.3242-0.1445,0.6016-0.3428,0.832-0.5928c0.2295-0.25,0.4072-0.5449,0.5322-0.8848S285.6963,208.1299,285.6963,207.7402z"/>
			<path fill="#EC008C" d="M288.5771,205.79c0-0.2598-0.0078-0.5195-0.0225-0.7803c-0.0146-0.2598-0.0322-0.5195-0.0527-0.7793
				h1.0654v1.0645h0.0293c0.2402-0.4102,0.5723-0.7197,0.998-0.9297c0.4248-0.21,0.8477-0.3154,1.2676-0.3154
				c0.1895,0,0.3926,0.0205,0.6074,0.0605s0.4219,0.1123,0.6221,0.2168c0.2002,0.1055,0.3877,0.2529,0.5625,0.4424
				c0.1748,0.1904,0.3232,0.4355,0.4424,0.7354c0.2002-0.4502,0.5176-0.8047,0.9531-1.0645
				c0.4346-0.2607,0.8867-0.3906,1.3574-0.3906c0.8994,0,1.5645,0.2383,1.9951,0.7129c0.4297,0.4746,0.6445,1.1523,0.6445,2.0322
				v4.4551h-0.9902v-4.0947c0-0.71-0.125-1.2549-0.375-1.6357c-0.25-0.3799-0.7148-0.5693-1.3945-0.5693
				c-0.3701,0-0.6807,0.0723-0.9297,0.2178c-0.25,0.1445-0.4531,0.3369-0.6074,0.5771c-0.1553,0.2402-0.2686,0.5127-0.3379,0.8174
				c-0.0703,0.3047-0.1055,0.6221-0.1055,0.9521v3.7354h-0.9893v-4.0947c0-0.71-0.125-1.2549-0.375-1.6357
				c-0.25-0.3799-0.7158-0.5693-1.3955-0.5693c-0.0596,0-0.1973,0.0195-0.4121,0.0596c-0.2158,0.04-0.4375,0.1504-0.668,0.3301
				c-0.2295,0.1797-0.4375,0.4502-0.6221,0.8105c-0.1855,0.3594-0.2773,0.8594-0.2773,1.5v3.5996h-0.9902V205.79z"/>
			<path fill="#EC008C" d="M302.0459,208.0098c0.0303,0.3506,0.1152,0.6807,0.2559,0.9902
				c0.1396,0.3105,0.3242,0.5771,0.5547,0.8027c0.2295,0.2246,0.4951,0.4023,0.7949,0.5322s0.625,0.1953,0.9746,0.1953
				c0.5303,0,0.9883-0.123,1.373-0.3682c0.3848-0.2441,0.6768-0.5273,0.877-0.8467l0.7656,0.6299
				c-0.4199,0.5303-0.8828,0.9102-1.3877,1.1396s-1.0479,0.3447-1.6279,0.3447c-0.5195,0-1.002-0.0918-1.4473-0.2773
				c-0.4453-0.1846-0.8271-0.4424-1.1475-0.7725s-0.5723-0.7197-0.7578-1.1699c-0.1846-0.4502-0.2773-0.9395-0.2773-1.4697
				s0.0898-1.0205,0.2705-1.4707c0.1797-0.4492,0.4297-0.8398,0.75-1.1699c0.3193-0.3301,0.6943-0.5869,1.125-0.7725
				c0.4297-0.1846,0.8945-0.2773,1.3945-0.2773c0.5303,0,1.0049,0.0957,1.4248,0.2852c0.4209,0.1904,0.7725,0.4424,1.0576,0.7578
				c0.2852,0.3145,0.5029,0.6846,0.6523,1.1094c0.1504,0.4258,0.2256,0.8779,0.2256,1.3574v0.4502H302.0459z M306.8164,207.2002
				c0-0.6699-0.2002-1.2129-0.5996-1.6279c-0.4004-0.415-0.96-0.6221-1.6807-0.6221c-0.3203,0-0.6299,0.0625-0.9297,0.1875
				s-0.5625,0.292-0.7871,0.502c-0.2256,0.21-0.4053,0.4502-0.54,0.7207c-0.1357,0.2695-0.2031,0.5498-0.2031,0.8398H306.8164z"/>
			<path fill="#EC008C" d="M313.416,205.8945c-0.1494-0.2891-0.3496-0.5195-0.5996-0.6895s-0.5557-0.2549-0.915-0.2549
				c-0.1699,0-0.3428,0.0195-0.5176,0.0596s-0.333,0.1025-0.4727,0.1875s-0.2529,0.1934-0.3379,0.3223
				c-0.085,0.1309-0.127,0.291-0.127,0.4805c0,0.3301,0.1152,0.5703,0.3447,0.7197c0.2305,0.1504,0.5752,0.2803,1.0352,0.3906
				l1.0049,0.2393c0.4902,0.1104,0.8975,0.333,1.2227,0.668s0.4873,0.7529,0.4873,1.252c0,0.3809-0.0771,0.708-0.2324,0.9834
				c-0.1553,0.2744-0.3604,0.5-0.6152,0.6748s-0.5469,0.3027-0.877,0.3818c-0.3301,0.0801-0.665,0.1201-1.0049,0.1201
				c-0.54,0-1.043-0.1025-1.5078-0.3076c-0.4648-0.2041-0.8623-0.5566-1.1924-1.0566l0.8545-0.585
				c0.2002,0.3193,0.4531,0.5742,0.7578,0.7646s0.668,0.2852,1.0879,0.2852c0.1992,0,0.3994-0.0225,0.5996-0.0674
				s0.377-0.1152,0.5322-0.21c0.1553-0.0957,0.2803-0.2178,0.375-0.3682c0.0957-0.1494,0.1426-0.3242,0.1426-0.5244
				c0-0.3506-0.1299-0.6025-0.3896-0.7578s-0.5752-0.2773-0.9453-0.3672l-0.96-0.2256c-0.1201-0.0293-0.2822-0.0801-0.4873-0.1494
				c-0.2051-0.0703-0.4053-0.1748-0.5996-0.3154c-0.1953-0.1396-0.3633-0.3223-0.5029-0.5479c-0.1396-0.2246-0.21-0.502-0.21-0.832
				c0-0.3604,0.0723-0.6748,0.2178-0.9453c0.1445-0.2695,0.3398-0.4893,0.585-0.6602c0.2451-0.1699,0.5225-0.2969,0.832-0.3818
				c0.3105-0.085,0.6299-0.1279,0.96-0.1279c0.4902,0,0.9453,0.0957,1.3652,0.2852c0.4199,0.1904,0.7451,0.5156,0.9746,0.9746
				L313.416,205.8945z"/>
			<path fill="#EC008C" d="M324.7568,206.9453v-0.1807c0-1.21-0.5996-1.8145-1.7998-1.8145c-0.8203,0-1.5352,0.2754-2.1455,0.8252
				l-0.5996-0.7051c0.6602-0.6807,1.6494-1.0205,2.9697-1.0205c0.3398,0,0.668,0.0508,0.9824,0.1504
				c0.3154,0.0996,0.5879,0.2529,0.8174,0.457c0.2305,0.2051,0.415,0.4629,0.5557,0.7725c0.1396,0.3105,0.21,0.6807,0.21,1.1104
				v3.1348c0,0.2705,0.0117,0.5527,0.0371,0.8477s0.0527,0.5381,0.083,0.7275h-0.96c-0.0303-0.1699-0.0527-0.3545-0.0684-0.5547
				c-0.0146-0.2002-0.0225-0.3955-0.0225-0.585h-0.0293c-0.29,0.4697-0.6328,0.8076-1.0283,1.0117
				c-0.3945,0.2051-0.877,0.3076-1.4473,0.3076c-0.3096,0-0.6094-0.042-0.8994-0.127s-0.5479-0.2148-0.7725-0.3906
				c-0.2256-0.1748-0.4053-0.3896-0.54-0.6445c-0.1357-0.2549-0.2031-0.5527-0.2031-0.8926c0-0.5703,0.1475-1.0176,0.4424-1.3428
				c0.2949-0.3242,0.665-0.5674,1.1104-0.7275c0.4453-0.1592,0.9199-0.2598,1.4248-0.2998s0.9678-0.0596,1.3877-0.0596H324.7568z
				 M324.2471,207.7549c-0.25,0-0.5625,0.0127-0.9375,0.0381c-0.375,0.0244-0.7354,0.085-1.0801,0.1797
				c-0.3457,0.0947-0.6406,0.2422-0.8848,0.4424c-0.2461,0.2002-0.3682,0.4746-0.3682,0.8252c0,0.2295,0.0479,0.4277,0.1426,0.5918
				c0.0947,0.165,0.2227,0.3008,0.3828,0.4053c0.1592,0.1055,0.3369,0.1807,0.5322,0.2256s0.3926,0.0674,0.5928,0.0674
				c0.3594,0,0.6719-0.0605,0.9375-0.1807c0.2646-0.1191,0.4873-0.2822,0.667-0.4873c0.1807-0.2051,0.3125-0.4443,0.3975-0.7197
				s0.1279-0.5674,0.1279-0.8779v-0.5098H324.2471z"/>
			<path fill="#EC008C" d="M328.3418,204.2305l1.6201,5.6992h0.0303l1.875-5.6992h1.0195l1.875,5.6992h0.0303l1.6201-5.6992h1.1699
				l-2.2197,7.0195h-1.1104l-1.8604-5.7598h-0.0293l-1.8604,5.7598h-1.1104l-2.2197-7.0195H328.3418z"/>
			<path fill="#EC008C" d="M343.3711,206.9453v-0.1807c0-1.21-0.5996-1.8145-1.7998-1.8145c-0.8203,0-1.5352,0.2754-2.1455,0.8252
				l-0.5996-0.7051c0.6602-0.6807,1.6494-1.0205,2.9697-1.0205c0.3398,0,0.668,0.0508,0.9824,0.1504
				c0.3154,0.0996,0.5879,0.2529,0.8174,0.457c0.2305,0.2051,0.415,0.4629,0.5557,0.7725c0.1396,0.3105,0.21,0.6807,0.21,1.1104
				v3.1348c0,0.2705,0.0117,0.5527,0.0371,0.8477s0.0527,0.5381,0.083,0.7275h-0.96c-0.0303-0.1699-0.0527-0.3545-0.0684-0.5547
				c-0.0146-0.2002-0.0225-0.3955-0.0225-0.585h-0.0293c-0.29,0.4697-0.6328,0.8076-1.0283,1.0117
				c-0.3945,0.2051-0.877,0.3076-1.4473,0.3076c-0.3096,0-0.6094-0.042-0.8994-0.127s-0.5479-0.2148-0.7725-0.3906
				c-0.2256-0.1748-0.4053-0.3896-0.54-0.6445c-0.1357-0.2549-0.2031-0.5527-0.2031-0.8926c0-0.5703,0.1475-1.0176,0.4424-1.3428
				c0.2949-0.3242,0.665-0.5674,1.1104-0.7275c0.4453-0.1592,0.9199-0.2598,1.4248-0.2998s0.9678-0.0596,1.3877-0.0596H343.3711z
				 M342.8613,207.7549c-0.25,0-0.5625,0.0127-0.9375,0.0381c-0.375,0.0244-0.7354,0.085-1.0801,0.1797
				c-0.3457,0.0947-0.6406,0.2422-0.8848,0.4424c-0.2461,0.2002-0.3682,0.4746-0.3682,0.8252c0,0.2295,0.0479,0.4277,0.1426,0.5918
				c0.0947,0.165,0.2227,0.3008,0.3828,0.4053c0.1592,0.1055,0.3369,0.1807,0.5322,0.2256s0.3926,0.0674,0.5928,0.0674
				c0.3594,0,0.6719-0.0605,0.9375-0.1807c0.2646-0.1191,0.4873-0.2822,0.667-0.4873c0.1807-0.2051,0.3125-0.4443,0.3975-0.7197
				s0.1279-0.5674,0.1279-0.8779v-0.5098H342.8613z"/>
			<path fill="#EC008C" d="M346.7607,206.4199c0-0.3096-0.0068-0.625-0.0225-0.9453c-0.0146-0.3193-0.0273-0.7344-0.0371-1.2441
				h0.9746v1.3047h0.0303c0.0703-0.1904,0.1699-0.373,0.2998-0.5479s0.2881-0.332,0.4727-0.4727
				c0.1855-0.1396,0.4004-0.252,0.6455-0.3369c0.2441-0.085,0.5225-0.1279,0.832-0.1279c0.2803,0,0.5254,0.0303,0.7354,0.0898
				l-0.1953,0.9756c-0.1299-0.0498-0.3203-0.0752-0.5703-0.0752c-0.3799,0-0.7051,0.0723-0.9746,0.2178
				c-0.2695,0.1445-0.4951,0.3301-0.6748,0.5547c-0.1807,0.2246-0.3125,0.4678-0.3975,0.7275s-0.1279,0.5098-0.1279,0.75v3.96
				h-0.9902V206.4199z"/>
			<path fill="#EC008C" d="M352.0557,208.0098c0.0303,0.3506,0.1152,0.6807,0.2559,0.9902
				c0.1396,0.3105,0.3242,0.5771,0.5547,0.8027c0.2295,0.2246,0.4951,0.4023,0.7949,0.5322s0.625,0.1953,0.9746,0.1953
				c0.5303,0,0.9883-0.123,1.373-0.3682c0.3848-0.2441,0.6768-0.5273,0.877-0.8467l0.7656,0.6299
				c-0.4199,0.5303-0.8828,0.9102-1.3877,1.1396s-1.0479,0.3447-1.6279,0.3447c-0.5195,0-1.002-0.0918-1.4473-0.2773
				c-0.4453-0.1846-0.8271-0.4424-1.1475-0.7725s-0.5723-0.7197-0.7578-1.1699c-0.1846-0.4502-0.2773-0.9395-0.2773-1.4697
				s0.0898-1.0205,0.2705-1.4707c0.1797-0.4492,0.4297-0.8398,0.75-1.1699c0.3193-0.3301,0.6943-0.5869,1.125-0.7725
				c0.4297-0.1846,0.8945-0.2773,1.3945-0.2773c0.5303,0,1.0049,0.0957,1.4248,0.2852c0.4209,0.1904,0.7725,0.4424,1.0576,0.7578
				c0.2852,0.3145,0.5029,0.6846,0.6523,1.1094c0.1504,0.4258,0.2256,0.8779,0.2256,1.3574v0.4502H352.0557z M356.8262,207.2002
				c0-0.6699-0.2002-1.2129-0.5996-1.6279c-0.4004-0.415-0.96-0.6221-1.6807-0.6221c-0.3203,0-0.6299,0.0625-0.9297,0.1875
				s-0.5625,0.292-0.7871,0.502c-0.2256,0.21-0.4053,0.4502-0.54,0.7207c-0.1357,0.2695-0.2031,0.5498-0.2031,0.8398H356.8262z"/>
			<path fill="#EC008C" d="M370.9707,207.7402c0,0.5303-0.0928,1.0195-0.2773,1.4697c-0.1855,0.4502-0.4424,0.8398-0.7725,1.1699
				s-0.7227,0.5879-1.1777,0.7725c-0.4551,0.1855-0.957,0.2773-1.5068,0.2773c-0.54,0-1.0381-0.0918-1.4932-0.2773
				c-0.4551-0.1846-0.8477-0.4424-1.1777-0.7725c-0.3291-0.3301-0.5869-0.7197-0.7725-1.1699
				c-0.1846-0.4502-0.2773-0.9395-0.2773-1.4697s0.0928-1.0205,0.2773-1.4707c0.1855-0.4492,0.4434-0.8398,0.7725-1.1699
				c0.3301-0.3301,0.7227-0.5869,1.1777-0.7725c0.4551-0.1846,0.9531-0.2773,1.4932-0.2773c0.5498,0,1.0518,0.0928,1.5068,0.2773
				c0.4551,0.1855,0.8477,0.4424,1.1777,0.7725s0.5869,0.7207,0.7725,1.1699C370.8779,206.7197,370.9707,207.21,370.9707,207.7402z
				 M369.8906,207.7402c0-0.3906-0.0625-0.7549-0.1875-1.0957c-0.125-0.3398-0.3027-0.6348-0.5322-0.8848
				c-0.2305-0.25-0.5078-0.4473-0.832-0.5918c-0.3252-0.1455-0.6934-0.2178-1.1025-0.2178c-0.4102,0-0.7783,0.0723-1.1025,0.2178
				c-0.3252,0.1445-0.6006,0.3418-0.8252,0.5918c-0.2256,0.25-0.4004,0.5449-0.5254,0.8848
				c-0.125,0.3408-0.1875,0.7051-0.1875,1.0957c0,0.3896,0.0625,0.7549,0.1875,1.0947s0.2998,0.6348,0.5254,0.8848
				c0.2246,0.25,0.5,0.4482,0.8252,0.5928c0.3242,0.1455,0.6924,0.2178,1.1025,0.2178c0.4092,0,0.7773-0.0723,1.1025-0.2178
				c0.3242-0.1445,0.6016-0.3428,0.832-0.5928c0.2295-0.25,0.4072-0.5449,0.5322-0.8848S369.8906,208.1299,369.8906,207.7402z"/>
			<path fill="#EC008C" d="M376.041,205.1299h-1.665v6.1201h-0.9893v-6.1201h-1.4854v-0.8994h1.4854v-1.9209
				c0-0.9297,0.2148-1.5918,0.6445-1.9873c0.4297-0.3945,1-0.5918,1.71-0.5918c0.1396,0,0.2822,0.0098,0.4277,0.0293
				c0.1445,0.0205,0.2871,0.0449,0.4277,0.0752l-0.1807,0.9004c-0.1191-0.0303-0.2451-0.0557-0.375-0.0752
				c-0.1299-0.0205-0.2598-0.0303-0.3896-0.0303c-0.2695,0-0.4902,0.0449-0.6602,0.1348c-0.1699,0.0908-0.2998,0.2178-0.3896,0.3828
				s-0.1504,0.3574-0.1797,0.5771c-0.0303,0.2207-0.0459,0.4551-0.0459,0.7051v1.8008h1.665V205.1299z"/>
		</g>
	</g>
	<g>
		<path fill="#231F20" d="M643.9053,245.6299h1.9346L650.46,256.25h-2.6396l-0.915-2.25h-4.125l-0.8848,2.25h-2.5801
			L643.9053,245.6299z M644.8047,248.7197l-1.29,3.2998h2.5957L644.8047,248.7197z"/>
		<path fill="#231F20" d="M658.8906,256.25h-2.0703v-0.96H656.79c-0.0898,0.1299-0.207,0.2627-0.3525,0.3975
			c-0.1445,0.1348-0.3145,0.2578-0.5098,0.3672c-0.1953,0.1104-0.4102,0.2002-0.6445,0.2705
			c-0.2354,0.0693-0.4785,0.1045-0.7275,0.1045c-0.54,0-1.0303-0.0918-1.4707-0.2773c-0.4395-0.1846-0.8174-0.4443-1.1318-0.7803
			c-0.3154-0.335-0.5576-0.7324-0.7275-1.1924c-0.1709-0.46-0.2549-0.9648-0.2549-1.5146c0-0.5098,0.0771-0.9971,0.2324-1.4629
			c0.1543-0.4648,0.375-0.877,0.6602-1.2373c0.2842-0.3594,0.6318-0.6475,1.042-0.8623s0.875-0.3223,1.3955-0.3223
			c0.4697,0,0.9072,0.0723,1.3125,0.2168c0.4043,0.1455,0.7373,0.3926,0.9971,0.7432h0.0303v-4.8301h2.25V256.25z
			 M656.8203,252.6055c0-0.5508-0.1572-0.9951-0.4727-1.3359c-0.3145-0.3398-0.7578-0.5098-1.3271-0.5098
			c-0.5703,0-1.0127,0.1699-1.3281,0.5098c-0.3145,0.3408-0.4717,0.7852-0.4717,1.3359c0,0.5498,0.1572,0.9951,0.4717,1.335
			c0.3154,0.3398,0.7578,0.5098,1.3281,0.5098c0.5693,0,1.0127-0.1699,1.3271-0.5098
			C656.6631,253.6006,656.8203,253.1553,656.8203,252.6055z"/>
		<path fill="#231F20" d="M659.9248,248.96h2.4297l1.8447,4.9502h0.0303l1.71-4.9502h2.2646l-2.8799,7.29h-2.3848L659.9248,248.96z"
			/>
		<path fill="#231F20" d="M675.9307,254.9902c-0.3604,0.46-0.8154,0.8145-1.3652,1.0645s-1.1201,0.375-1.71,0.375
			c-0.5605,0-1.0879-0.0898-1.583-0.2695c-0.4941-0.1797-0.9248-0.4375-1.29-0.7725c-0.3643-0.335-0.6523-0.7373-0.8623-1.208
			c-0.21-0.4697-0.3145-0.9941-0.3145-1.5742s0.1045-1.1055,0.3145-1.5752s0.498-0.873,0.8623-1.208
			c0.3652-0.335,0.7959-0.5918,1.29-0.7725c0.4951-0.1797,1.0225-0.2695,1.583-0.2695c0.5195,0,0.9922,0.0898,1.417,0.2695
			c0.4258,0.1807,0.7852,0.4375,1.0801,0.7725s0.5225,0.7383,0.6826,1.208s0.2402,0.9951,0.2402,1.5752v0.7041h-5.2197
			c0.0898,0.4307,0.2852,0.7725,0.585,1.0283c0.2998,0.2549,0.6699,0.3818,1.1094,0.3818c0.3701,0,0.6826-0.082,0.9375-0.2471
			s0.4775-0.3779,0.668-0.6377L675.9307,254.9902z M674.0254,251.7803c0.0098-0.3799-0.1152-0.7051-0.375-0.9756
			c-0.2598-0.2695-0.5947-0.4043-1.0049-0.4043c-0.25,0-0.4707,0.04-0.6602,0.1191c-0.1904,0.0811-0.3525,0.1826-0.4873,0.3076
			c-0.1348,0.126-0.2402,0.2705-0.3154,0.4355s-0.1172,0.3369-0.127,0.5176H674.0254z"/>
		<path fill="#231F20" d="M677.6396,248.96h2.25v1.1699h0.0303c0.2402-0.4502,0.5244-0.7871,0.8545-1.0127
			c0.3301-0.2246,0.7451-0.3369,1.2451-0.3369c0.1299,0,0.2598,0.0049,0.3906,0.0146c0.1299,0.0098,0.249,0.0303,0.3594,0.0605
			v2.0547c-0.1602-0.0498-0.3174-0.0879-0.4727-0.1123c-0.1553-0.0254-0.3174-0.0381-0.4873-0.0381
			c-0.4297,0-0.7695,0.0605-1.0195,0.1807c-0.25,0.1191-0.4424,0.2871-0.5781,0.502c-0.1348,0.2148-0.2227,0.4727-0.2617,0.7725
			c-0.041,0.2998-0.0605,0.6299-0.0605,0.9902v3.0449h-2.25V248.96z"/>
		<path fill="#231F20" d="M688.709,250.7598h-1.9795v2.4307c0,0.2002,0.0098,0.3818,0.0293,0.5469
			c0.0205,0.165,0.0654,0.3076,0.1357,0.4277c0.0693,0.1201,0.1768,0.2129,0.3223,0.2773c0.1445,0.0654,0.3379,0.0977,0.5771,0.0977
			c0.1201,0,0.2773-0.0127,0.4727-0.0371c0.1953-0.0254,0.3428-0.083,0.4424-0.1729v1.875c-0.25,0.0898-0.5098,0.1504-0.7793,0.1797
			c-0.2705,0.0303-0.5352,0.0449-0.7959,0.0449c-0.3799,0-0.7295-0.04-1.0498-0.1201c-0.3203-0.0791-0.5996-0.207-0.8398-0.3818
			s-0.4277-0.4023-0.5625-0.6826s-0.2021-0.6201-0.2021-1.0205v-3.4648h-1.4404V248.96h1.4404v-2.1602h2.25v2.1602h1.9795V250.7598z
			"/>
		<path fill="#231F20" d="M689.6992,246.665c0-0.3604,0.1279-0.668,0.3828-0.9229s0.5625-0.3818,0.9229-0.3818
			c0.3594,0,0.667,0.127,0.9219,0.3818c0.2559,0.2549,0.3828,0.5625,0.3828,0.9229s-0.127,0.667-0.3828,0.9229
			c-0.2549,0.2549-0.5625,0.3818-0.9219,0.3818c-0.3604,0-0.668-0.127-0.9229-0.3818
			C689.8271,247.332,689.6992,247.0254,689.6992,246.665z M689.8799,248.96h2.25v7.29h-2.25V248.96z"/>
		<path fill="#231F20" d="M697.874,251.1055c-0.3301-0.4102-0.7646-0.6152-1.3047-0.6152c-0.1904,0-0.375,0.0449-0.5557,0.1348
			c-0.1797,0.0898-0.2695,0.2451-0.2695,0.4648c0,0.1797,0.0928,0.3125,0.2773,0.3975s0.4199,0.1602,0.7051,0.2256
			c0.2852,0.0645,0.5898,0.1348,0.915,0.21c0.3252,0.0742,0.6299,0.1924,0.915,0.3525s0.5195,0.377,0.7051,0.6523
			c0.1846,0.2754,0.2773,0.6426,0.2773,1.1025c0,0.4697-0.1025,0.8574-0.3076,1.1621c-0.2051,0.3057-0.4678,0.5498-0.7871,0.7354
			c-0.3203,0.1846-0.6807,0.3145-1.0801,0.3896c-0.4004,0.0752-0.7949,0.1123-1.1855,0.1123c-0.5098,0-1.0244-0.0723-1.5449-0.2168
			c-0.5195-0.1455-0.96-0.4023-1.3193-0.7725l1.3643-1.5156c0.21,0.2607,0.4434,0.458,0.6982,0.5928s0.5518,0.2021,0.8926,0.2021
			c0.2598,0,0.4941-0.0371,0.7041-0.1123c0.2109-0.0752,0.3154-0.2119,0.3154-0.4121c0-0.1904-0.0928-0.333-0.2773-0.4277
			c-0.1855-0.0947-0.4199-0.1748-0.7051-0.2402c-0.2852-0.0645-0.5898-0.1348-0.915-0.21s-0.6299-0.1875-0.915-0.3369
			c-0.2852-0.1504-0.5205-0.3633-0.7051-0.6377c-0.1846-0.2754-0.2773-0.6426-0.2773-1.1025c0-0.4297,0.0869-0.7998,0.2627-1.1104
			c0.1748-0.3096,0.4043-0.5645,0.6895-0.7646s0.6123-0.3477,0.9824-0.4424c0.3701-0.0957,0.7451-0.1426,1.125-0.1426
			c0.4805,0,0.9648,0.0693,1.4551,0.21c0.4902,0.1396,0.9053,0.3896,1.2451,0.75L697.874,251.1055z"/>
		<path fill="#231F20" d="M707.5947,254.9902c-0.3604,0.46-0.8154,0.8145-1.3652,1.0645s-1.1201,0.375-1.71,0.375
			c-0.5605,0-1.0879-0.0898-1.583-0.2695c-0.4941-0.1797-0.9248-0.4375-1.29-0.7725c-0.3643-0.335-0.6523-0.7373-0.8623-1.208
			c-0.21-0.4697-0.3145-0.9941-0.3145-1.5742s0.1045-1.1055,0.3145-1.5752s0.498-0.873,0.8623-1.208
			c0.3652-0.335,0.7959-0.5918,1.29-0.7725c0.4951-0.1797,1.0225-0.2695,1.583-0.2695c0.5195,0,0.9922,0.0898,1.417,0.2695
			c0.4258,0.1807,0.7852,0.4375,1.0801,0.7725s0.5225,0.7383,0.6826,1.208s0.2402,0.9951,0.2402,1.5752v0.7041h-5.2197
			c0.0898,0.4307,0.2852,0.7725,0.585,1.0283c0.2998,0.2549,0.6699,0.3818,1.1094,0.3818c0.3701,0,0.6826-0.082,0.9375-0.2471
			s0.4775-0.3779,0.668-0.6377L707.5947,254.9902z M705.6895,251.7803c0.0098-0.3799-0.1152-0.7051-0.375-0.9756
			c-0.2598-0.2695-0.5947-0.4043-1.0049-0.4043c-0.25,0-0.4707,0.04-0.6602,0.1191c-0.1904,0.0811-0.3525,0.1826-0.4873,0.3076
			c-0.1348,0.126-0.2402,0.2705-0.3154,0.4355s-0.1172,0.3369-0.127,0.5176H705.6895z"/>
		<path fill="#231F20" d="M709.3047,248.96h2.1602v0.9902h0.0303c0.0693-0.1396,0.1699-0.2803,0.2998-0.4199
			c0.1299-0.1406,0.2852-0.2646,0.4648-0.375s0.3848-0.2002,0.6152-0.2705c0.2295-0.0693,0.4795-0.1045,0.75-0.1045
			c0.5098,0,0.9619,0.1045,1.3574,0.3145c0.3945,0.21,0.6924,0.54,0.8926,0.9902c0.2598-0.4697,0.5742-0.8047,0.9443-1.0049
			s0.8252-0.2998,1.3652-0.2998c0.4902,0,0.9023,0.082,1.2373,0.2471s0.6006,0.3906,0.7949,0.6748
			c0.1953,0.2852,0.335,0.6201,0.4209,1.0049c0.084,0.3857,0.127,0.7979,0.127,1.2383v4.3047h-2.25v-4.2451
			c0-0.3398-0.0723-0.6318-0.2178-0.877c-0.1445-0.2451-0.4023-0.3682-0.7725-0.3682c-0.2598,0-0.4775,0.043-0.6523,0.1279
			s-0.3145,0.2021-0.4199,0.3525c-0.1045,0.1494-0.1797,0.3252-0.2246,0.5244c-0.0449,0.2002-0.0674,0.4102-0.0674,0.6299v3.8555
			h-2.25v-3.8555c0-0.1289-0.0059-0.2891-0.0156-0.4795c-0.0098-0.1895-0.0449-0.3701-0.1045-0.54
			c-0.0605-0.1699-0.1582-0.3154-0.293-0.4346c-0.1348-0.1201-0.332-0.1807-0.5928-0.1807c-0.29,0-0.5244,0.0527-0.7041,0.1582
			c-0.1807,0.1045-0.3184,0.2451-0.4131,0.4199s-0.1572,0.3721-0.1875,0.5918c-0.0303,0.2207-0.0449,0.4502-0.0449,0.6904v3.6299
			h-2.25V248.96z"/>
		<path fill="#231F20" d="M729.2549,254.9902c-0.3604,0.46-0.8154,0.8145-1.3652,1.0645s-1.1201,0.375-1.71,0.375
			c-0.5605,0-1.0879-0.0898-1.583-0.2695c-0.4941-0.1797-0.9248-0.4375-1.29-0.7725c-0.3643-0.335-0.6523-0.7373-0.8623-1.208
			c-0.21-0.4697-0.3145-0.9941-0.3145-1.5742s0.1045-1.1055,0.3145-1.5752s0.498-0.873,0.8623-1.208
			c0.3652-0.335,0.7959-0.5918,1.29-0.7725c0.4951-0.1797,1.0225-0.2695,1.583-0.2695c0.5195,0,0.9922,0.0898,1.417,0.2695
			c0.4258,0.1807,0.7852,0.4375,1.0801,0.7725s0.5225,0.7383,0.6826,1.208s0.2402,0.9951,0.2402,1.5752v0.7041h-5.2197
			c0.0898,0.4307,0.2852,0.7725,0.585,1.0283c0.2998,0.2549,0.6699,0.3818,1.1094,0.3818c0.3701,0,0.6826-0.082,0.9375-0.2471
			s0.4775-0.3779,0.668-0.6377L729.2549,254.9902z M727.3496,251.7803c0.0098-0.3799-0.1152-0.7051-0.375-0.9756
			c-0.2598-0.2695-0.5947-0.4043-1.0049-0.4043c-0.25,0-0.4707,0.04-0.6602,0.1191c-0.1904,0.0811-0.3525,0.1826-0.4873,0.3076
			c-0.1348,0.126-0.2402,0.2705-0.3154,0.4355s-0.1172,0.3369-0.127,0.5176H727.3496z"/>
		<path fill="#231F20" d="M730.9639,248.96h2.1602v0.9902h0.0303c0.0693-0.1396,0.1699-0.2803,0.2998-0.4199
			c0.1299-0.1406,0.2852-0.2646,0.4648-0.375s0.3848-0.2002,0.6152-0.2705c0.2295-0.0693,0.4795-0.1045,0.75-0.1045
			c0.5693,0,1.0293,0.0869,1.3799,0.2627c0.3496,0.1748,0.6221,0.417,0.8174,0.7266c0.1953,0.3105,0.3271,0.6758,0.3975,1.0957
			s0.1055,0.875,0.1055,1.3652v4.0195h-2.25v-3.5703c0-0.21-0.0078-0.4268-0.0225-0.6523
			c-0.0156-0.2246-0.0605-0.4326-0.1357-0.6221c-0.0752-0.1904-0.1895-0.3457-0.3447-0.4648
			c-0.1553-0.1201-0.3779-0.1807-0.668-0.1807s-0.5244,0.0527-0.7041,0.1582c-0.1807,0.1045-0.3184,0.2451-0.4131,0.4199
			s-0.1572,0.3721-0.1875,0.5918c-0.0303,0.2207-0.0449,0.4502-0.0449,0.6904v3.6299h-2.25V248.96z"/>
		<path fill="#231F20" d="M744.5391,250.7598h-1.9795v2.4307c0,0.2002,0.0098,0.3818,0.0293,0.5469
			c0.0205,0.165,0.0654,0.3076,0.1357,0.4277c0.0693,0.1201,0.1768,0.2129,0.3223,0.2773c0.1445,0.0654,0.3379,0.0977,0.5771,0.0977
			c0.1201,0,0.2773-0.0127,0.4727-0.0371c0.1953-0.0254,0.3428-0.083,0.4424-0.1729v1.875c-0.25,0.0898-0.5098,0.1504-0.7793,0.1797
			c-0.2705,0.0303-0.5352,0.0449-0.7959,0.0449c-0.3799,0-0.7295-0.04-1.0498-0.1201c-0.3203-0.0791-0.5996-0.207-0.8398-0.3818
			s-0.4277-0.4023-0.5625-0.6826s-0.2021-0.6201-0.2021-1.0205v-3.4648h-1.4404V248.96h1.4404v-2.1602h2.25v2.1602h1.9795V250.7598z
			"/>
		<path fill="#231F20" d="M749.8496,252.6055c0-0.5801,0.1045-1.1055,0.3145-1.5752s0.4971-0.873,0.8623-1.208
			s0.7949-0.5918,1.29-0.7725c0.4951-0.1797,1.0225-0.2695,1.583-0.2695c0.5596,0,1.0869,0.0898,1.582,0.2695
			c0.4951,0.1807,0.9248,0.4375,1.29,0.7725s0.6523,0.7383,0.8623,1.208s0.3154,0.9951,0.3154,1.5752s-0.1055,1.1045-0.3154,1.5742
			c-0.21,0.4707-0.4971,0.873-0.8623,1.208s-0.7949,0.5928-1.29,0.7725s-1.0225,0.2695-1.582,0.2695
			c-0.5605,0-1.0879-0.0898-1.583-0.2695s-0.9248-0.4375-1.29-0.7725s-0.6523-0.7373-0.8623-1.208
			C749.9541,253.71,749.8496,253.1855,749.8496,252.6055z M752.0996,252.6055c0,0.5498,0.1572,0.9951,0.4717,1.335
			c0.3154,0.3398,0.7578,0.5098,1.3281,0.5098c0.5693,0,1.0127-0.1699,1.3271-0.5098c0.3154-0.3398,0.4727-0.7852,0.4727-1.335
			c0-0.5508-0.1572-0.9951-0.4727-1.3359c-0.3145-0.3398-0.7578-0.5098-1.3271-0.5098c-0.5703,0-1.0127,0.1699-1.3281,0.5098
			C752.2568,251.6104,752.0996,252.0547,752.0996,252.6055z"/>
		<path fill="#231F20" d="M759.2686,248.96h2.25v1.1699h0.0303c0.2402-0.4502,0.5244-0.7871,0.8545-1.0127
			c0.3301-0.2246,0.7451-0.3369,1.2451-0.3369c0.1299,0,0.2598,0.0049,0.3906,0.0146c0.1299,0.0098,0.249,0.0303,0.3594,0.0605
			v2.0547c-0.1602-0.0498-0.3174-0.0879-0.4727-0.1123c-0.1553-0.0254-0.3174-0.0381-0.4873-0.0381
			c-0.4297,0-0.7695,0.0605-1.0195,0.1807c-0.25,0.1191-0.4424,0.2871-0.5781,0.502c-0.1348,0.2148-0.2227,0.4727-0.2617,0.7725
			c-0.041,0.2998-0.0605,0.6299-0.0605,0.9902v3.0449h-2.25V248.96z"/>
		<path fill="#231F20" d="M770.0986,245.6299h3.9453c0.5498,0,1.0693,0.0498,1.5596,0.1504
			c0.4902,0.0996,0.917,0.2725,1.2822,0.5176s0.6553,0.5752,0.8701,0.9893c0.2148,0.415,0.3223,0.9375,0.3223,1.5684
			c0,0.6201-0.0996,1.1396-0.2998,1.5596s-0.4746,0.7549-0.8252,1.0049c-0.3496,0.25-0.7646,0.4277-1.2441,0.5322
			c-0.4805,0.1055-1.001,0.1582-1.5605,0.1582h-1.71v4.1396h-2.3398V245.6299z M772.4385,250.1299h1.5605
			c0.21,0,0.4121-0.0195,0.6074-0.0596c0.1943-0.04,0.3691-0.1074,0.5244-0.2031c0.1553-0.0947,0.2803-0.2246,0.375-0.3896
			s0.1426-0.3721,0.1426-0.6221c0-0.2705-0.0625-0.4883-0.1875-0.6533s-0.2852-0.292-0.4795-0.3818
			c-0.1953-0.0898-0.4131-0.1475-0.6533-0.1729c-0.2393-0.0244-0.4697-0.0371-0.6895-0.0371h-1.2002V250.1299z"/>
		<path fill="#231F20" d="M778.9941,252.6055c0-0.5801,0.1045-1.1055,0.3145-1.5752s0.4971-0.873,0.8623-1.208
			s0.7949-0.5918,1.29-0.7725c0.4951-0.1797,1.0225-0.2695,1.583-0.2695c0.5596,0,1.0869,0.0898,1.582,0.2695
			c0.4951,0.1807,0.9248,0.4375,1.29,0.7725s0.6523,0.7383,0.8623,1.208s0.3154,0.9951,0.3154,1.5752s-0.1055,1.1045-0.3154,1.5742
			c-0.21,0.4707-0.4971,0.873-0.8623,1.208s-0.7949,0.5928-1.29,0.7725s-1.0225,0.2695-1.582,0.2695
			c-0.5605,0-1.0879-0.0898-1.583-0.2695s-0.9248-0.4375-1.29-0.7725s-0.6523-0.7373-0.8623-1.208
			C779.0986,253.71,778.9941,253.1855,778.9941,252.6055z M781.2441,252.6055c0,0.5498,0.1572,0.9951,0.4717,1.335
			c0.3154,0.3398,0.7578,0.5098,1.3281,0.5098c0.5693,0,1.0127-0.1699,1.3271-0.5098c0.3154-0.3398,0.4727-0.7852,0.4727-1.335
			c0-0.5508-0.1572-0.9951-0.4727-1.3359c-0.3145-0.3398-0.7578-0.5098-1.3271-0.5098c-0.5703,0-1.0127,0.1699-1.3281,0.5098
			C781.4014,251.6104,781.2441,252.0547,781.2441,252.6055z"/>
		<path fill="#231F20" d="M792.5381,251.1055c-0.3301-0.4102-0.7646-0.6152-1.3047-0.6152c-0.1904,0-0.375,0.0449-0.5557,0.1348
			c-0.1797,0.0898-0.2695,0.2451-0.2695,0.4648c0,0.1797,0.0928,0.3125,0.2773,0.3975s0.4199,0.1602,0.7051,0.2256
			c0.2852,0.0645,0.5898,0.1348,0.915,0.21c0.3252,0.0742,0.6299,0.1924,0.915,0.3525s0.5195,0.377,0.7051,0.6523
			c0.1846,0.2754,0.2773,0.6426,0.2773,1.1025c0,0.4697-0.1025,0.8574-0.3076,1.1621c-0.2051,0.3057-0.4678,0.5498-0.7871,0.7354
			c-0.3203,0.1846-0.6807,0.3145-1.0801,0.3896c-0.4004,0.0752-0.7949,0.1123-1.1855,0.1123c-0.5098,0-1.0244-0.0723-1.5449-0.2168
			c-0.5195-0.1455-0.96-0.4023-1.3193-0.7725l1.3643-1.5156c0.21,0.2607,0.4434,0.458,0.6982,0.5928s0.5518,0.2021,0.8926,0.2021
			c0.2598,0,0.4941-0.0371,0.7041-0.1123c0.2109-0.0752,0.3154-0.2119,0.3154-0.4121c0-0.1904-0.0928-0.333-0.2773-0.4277
			c-0.1855-0.0947-0.4199-0.1748-0.7051-0.2402c-0.2852-0.0645-0.5898-0.1348-0.915-0.21s-0.6299-0.1875-0.915-0.3369
			c-0.2852-0.1504-0.5205-0.3633-0.7051-0.6377c-0.1846-0.2754-0.2773-0.6426-0.2773-1.1025c0-0.4297,0.0869-0.7998,0.2627-1.1104
			c0.1748-0.3096,0.4043-0.5645,0.6895-0.7646s0.6123-0.3477,0.9824-0.4424c0.3701-0.0957,0.7451-0.1426,1.125-0.1426
			c0.4805,0,0.9648,0.0693,1.4551,0.21c0.4902,0.1396,0.9053,0.3896,1.2451,0.75L792.5381,251.1055z"/>
		<path fill="#231F20" d="M800.3232,250.7598h-1.9795v2.4307c0,0.2002,0.0098,0.3818,0.0293,0.5469
			c0.0205,0.165,0.0654,0.3076,0.1357,0.4277c0.0693,0.1201,0.1768,0.2129,0.3223,0.2773c0.1445,0.0654,0.3379,0.0977,0.5771,0.0977
			c0.1201,0,0.2773-0.0127,0.4727-0.0371c0.1953-0.0254,0.3428-0.083,0.4424-0.1729v1.875c-0.25,0.0898-0.5098,0.1504-0.7793,0.1797
			c-0.2705,0.0303-0.5352,0.0449-0.7959,0.0449c-0.3799,0-0.7295-0.04-1.0498-0.1201c-0.3203-0.0791-0.5996-0.207-0.8398-0.3818
			s-0.4277-0.4023-0.5625-0.6826s-0.2021-0.6201-0.2021-1.0205v-3.4648h-1.4404V248.96h1.4404v-2.1602h2.25v2.1602h1.9795V250.7598z
			"/>
	</g>
	<g>
		<g>
			
				<line fill="none" stroke="#EC008C" stroke-width="3.75" stroke-linejoin="round" x1="495.0005" y1="185" x2="665.1406" y2="185"/>
			<g>
				<polygon fill="#EC008C" points="663.6133,173.6113 663.6133,196.3887 675,185 				"/>
			</g>
		</g>
	</g>
	<g>
		<g>
			<path fill="#EC008C" d="M563.3242,205.1299h-2.0254v4.1396c0,0.2607,0.0254,0.4727,0.0752,0.6377s0.1201,0.293,0.21,0.3828
				s0.1973,0.1523,0.3232,0.1875c0.124,0.0352,0.2617,0.0527,0.4121,0.0527c0.1699,0,0.3447-0.0254,0.5254-0.0752
				c0.1797-0.0498,0.3447-0.1152,0.4941-0.1953l0.0449,0.915c-0.3691,0.1699-0.8145,0.2549-1.335,0.2549
				c-0.1895,0-0.3877-0.0244-0.5918-0.0742c-0.2051-0.0508-0.3926-0.1455-0.5625-0.2852c-0.1709-0.1406-0.3105-0.3301-0.4199-0.5703
				c-0.1104-0.2402-0.165-0.5547-0.165-0.9453v-4.4248h-1.4854v-0.8994h1.4854V202.25h0.9893v1.9805h2.0254V205.1299z"/>
			<path fill="#EC008C" d="M564.6738,199.9102h0.9902v5.4453h0.0293c0.1104-0.1904,0.25-0.3652,0.4199-0.5254
				s0.3604-0.2979,0.5703-0.4121c0.21-0.1152,0.4326-0.2051,0.668-0.2705c0.2344-0.0645,0.4668-0.0977,0.6973-0.0977
				c0.9004,0,1.5645,0.2383,1.9951,0.7129c0.4297,0.4746,0.6445,1.1523,0.6445,2.0322v4.4551h-0.9893v-3.8848
				c0-0.7803-0.1357-1.3779-0.4053-1.793c-0.2705-0.415-0.7705-0.6221-1.5-0.6221c-0.0508,0-0.1904,0.0195-0.4199,0.0596
				c-0.2305,0.04-0.4727,0.1504-0.7275,0.3301s-0.4824,0.4502-0.6826,0.8105c-0.2002,0.3594-0.2998,0.8594-0.2998,1.5v3.5996
				h-0.9902V199.9102z"/>
			<path fill="#EC008C" d="M573.1182,206.4199c0-0.3096-0.0068-0.625-0.0225-0.9453c-0.0146-0.3193-0.0273-0.7344-0.0371-1.2441
				h0.9746v1.3047h0.0303c0.0703-0.1904,0.1699-0.373,0.2998-0.5479s0.2881-0.332,0.4727-0.4727
				c0.1855-0.1396,0.4004-0.252,0.6455-0.3369c0.2441-0.085,0.5225-0.1279,0.832-0.1279c0.2803,0,0.5254,0.0303,0.7354,0.0898
				l-0.1953,0.9756c-0.1299-0.0498-0.3203-0.0752-0.5703-0.0752c-0.3799,0-0.7051,0.0723-0.9746,0.2178
				c-0.2695,0.1445-0.4951,0.3301-0.6748,0.5547c-0.1807,0.2246-0.3125,0.4678-0.3975,0.7275s-0.1279,0.5098-0.1279,0.75v3.96
				h-0.9902V206.4199z"/>
			<path fill="#EC008C" d="M584.8184,207.7402c0,0.5303-0.0928,1.0195-0.2773,1.4697c-0.1855,0.4502-0.4424,0.8398-0.7725,1.1699
				s-0.7227,0.5879-1.1777,0.7725c-0.4551,0.1855-0.957,0.2773-1.5068,0.2773c-0.54,0-1.0381-0.0918-1.4932-0.2773
				c-0.4551-0.1846-0.8477-0.4424-1.1777-0.7725c-0.3291-0.3301-0.5869-0.7197-0.7725-1.1699
				c-0.1846-0.4502-0.2773-0.9395-0.2773-1.4697s0.0928-1.0205,0.2773-1.4707c0.1855-0.4492,0.4434-0.8398,0.7725-1.1699
				c0.3301-0.3301,0.7227-0.5869,1.1777-0.7725c0.4551-0.1846,0.9531-0.2773,1.4932-0.2773c0.5498,0,1.0518,0.0928,1.5068,0.2773
				c0.4551,0.1855,0.8477,0.4424,1.1777,0.7725s0.5869,0.7207,0.7725,1.1699C584.7256,206.7197,584.8184,207.21,584.8184,207.7402z
				 M583.7383,207.7402c0-0.3906-0.0625-0.7549-0.1875-1.0957c-0.125-0.3398-0.3027-0.6348-0.5322-0.8848
				c-0.2305-0.25-0.5078-0.4473-0.832-0.5918c-0.3252-0.1455-0.6934-0.2178-1.1025-0.2178c-0.4102,0-0.7783,0.0723-1.1025,0.2178
				c-0.3252,0.1445-0.6006,0.3418-0.8252,0.5918c-0.2256,0.25-0.4004,0.5449-0.5254,0.8848
				c-0.125,0.3408-0.1875,0.7051-0.1875,1.0957c0,0.3896,0.0625,0.7549,0.1875,1.0947s0.2998,0.6348,0.5254,0.8848
				c0.2246,0.25,0.5,0.4482,0.8252,0.5928c0.3242,0.1455,0.6924,0.2178,1.1025,0.2178c0.4092,0,0.7773-0.0723,1.1025-0.2178
				c0.3242-0.1445,0.6016-0.3428,0.832-0.5928c0.2295-0.25,0.4072-0.5449,0.5322-0.8848S583.7383,208.1299,583.7383,207.7402z"/>
			<path fill="#EC008C" d="M591.6895,211.25c-0.0205-0.1895-0.0332-0.377-0.0381-0.5625c-0.0049-0.1846-0.0068-0.3721-0.0068-0.5625
				h-0.0303c-0.1104,0.1904-0.25,0.3652-0.4199,0.5254c-0.1709,0.1602-0.3604,0.2969-0.5703,0.4121s-0.4326,0.2051-0.667,0.2695
				c-0.2354,0.0654-0.4678,0.0977-0.6982,0.0977c-0.8994,0-1.5645-0.2373-1.9951-0.7119c-0.4297-0.4756-0.6445-1.1523-0.6445-2.0332
				v-4.4541h0.9902v3.8848c0,0.3896,0.0293,0.7344,0.0898,1.0352c0.0596,0.2998,0.1621,0.5527,0.3076,0.7568
				c0.1445,0.2051,0.3398,0.3604,0.585,0.4648c0.2451,0.1055,0.5518,0.1582,0.9219,0.1582c0.0508,0,0.1904-0.0205,0.4199-0.0605
				c0.2305-0.04,0.4727-0.1494,0.7275-0.3301c0.2559-0.1797,0.4824-0.4492,0.6826-0.8096s0.3008-0.8604,0.3008-1.5v-3.5996h0.9893
				v5.4746c0,0.1904,0.0078,0.4297,0.0225,0.7197c0.0156,0.29,0.0322,0.5654,0.0527,0.8252H591.6895z"/>
			<path fill="#EC008C" d="M595.499,212.6602c0.29,0.3896,0.667,0.7021,1.1328,0.9375c0.4648,0.2344,0.9824,0.3525,1.5518,0.3525
				c0.5,0,0.9248-0.0732,1.2754-0.2178c0.3496-0.1445,0.6318-0.3428,0.8477-0.5928c0.2148-0.25,0.3691-0.542,0.4648-0.877
				c0.0947-0.335,0.1426-0.6924,0.1426-1.0723v-1.2607h-0.0303c-0.3203,0.4805-0.71,0.8203-1.1699,1.0205
				s-0.9453,0.2998-1.4551,0.2998s-0.9873-0.0898-1.4326-0.2695c-0.4453-0.1807-0.832-0.4277-1.1621-0.7432
				c-0.3301-0.3145-0.5898-0.6924-0.7803-1.1318c-0.1904-0.4404-0.2852-0.915-0.2852-1.4258c0-0.5098,0.0898-0.9844,0.2705-1.4248
				c0.1797-0.4395,0.4277-0.8252,0.7422-1.1553c0.3154-0.3301,0.6904-0.5869,1.125-0.7725
				c0.4355-0.1846,0.9121-0.2773,1.4326-0.2773c0.21,0,0.4326,0.0205,0.667,0.0605c0.2354,0.04,0.4707,0.1094,0.7051,0.21
				c0.2354,0.0996,0.4678,0.2373,0.6982,0.4121c0.2295,0.1748,0.4443,0.3975,0.6445,0.668h0.0303v-1.1699h0.9902v6.96
				c0,0.3799-0.0479,0.7842-0.1426,1.2148c-0.0957,0.4297-0.2803,0.8252-0.5557,1.1846c-0.2744,0.3604-0.6572,0.6602-1.1475,0.9004
				s-1.1299,0.3594-1.9199,0.3594c-0.7002,0-1.3252-0.1143-1.875-0.3447s-1.0498-0.585-1.5-1.0645L595.499,212.6602z
				 M595.6787,207.6504c0,0.3701,0.0674,0.7168,0.2031,1.042c0.1348,0.3252,0.3193,0.6104,0.5547,0.8555
				c0.2344,0.2451,0.5098,0.4395,0.8252,0.585c0.3145,0.1445,0.6572,0.2168,1.0273,0.2168c0.3594,0,0.7021-0.0645,1.0273-0.1943
				s0.6123-0.3125,0.8623-0.5479c0.25-0.2344,0.4424-0.5176,0.5781-0.8477c0.1348-0.3301,0.1973-0.6992,0.1875-1.1094
				c0-0.3701-0.0605-0.7178-0.1807-1.043s-0.2949-0.6094-0.5244-0.8545c-0.2305-0.2451-0.5107-0.4404-0.8408-0.585
				c-0.3291-0.1455-0.6992-0.2178-1.1094-0.2178c-0.3701,0-0.7129,0.0723-1.0273,0.2178c-0.3154,0.1445-0.5908,0.3398-0.8252,0.585
				c-0.2354,0.2451-0.4199,0.5293-0.5547,0.8545C595.7461,206.9326,595.6787,207.2803,595.6787,207.6504z"/>
			<path fill="#EC008C" d="M604.124,199.9102h0.9902v5.4453h0.0293c0.1104-0.1904,0.25-0.3652,0.4199-0.5254
				s0.3604-0.2979,0.5703-0.4121c0.21-0.1152,0.4326-0.2051,0.668-0.2705c0.2344-0.0645,0.4668-0.0977,0.6973-0.0977
				c0.9004,0,1.5645,0.2383,1.9951,0.7129c0.4297,0.4746,0.6445,1.1523,0.6445,2.0322v4.4551h-0.9893v-3.8848
				c0-0.7803-0.1357-1.3779-0.4053-1.793c-0.2705-0.415-0.7705-0.6221-1.5-0.6221c-0.0508,0-0.1904,0.0195-0.4199,0.0596
				c-0.2305,0.04-0.4727,0.1504-0.7275,0.3301s-0.4824,0.4502-0.6826,0.8105c-0.2002,0.3594-0.2998,0.8594-0.2998,1.5v3.5996
				h-0.9902V199.9102z"/>
		</g>
	</g>
	
		<use xlink:href="#Woman"  width="48" height="48" id="XMLID_224_" x="-24" y="-24" transform="matrix(1.875 0 0 -1.875 180.0005 185)" overflow="visible"/>
	
		<use xlink:href="#Box"  width="48" height="48" id="XMLID_223_" x="-24" y="-24" transform="matrix(1.875 0 0 -1.875 450.0005 185)" overflow="visible"/>
	
		<use xlink:href="#Tag"  width="48" height="48" id="XMLID_222_" x="-24" y="-24" transform="matrix(1.875 0 0 -1.875 720 185)" overflow="visible"/>
	<g>
		<path fill="#231F20" d="M951.5996,248.2246c-0.1904-0.2393-0.4473-0.417-0.7725-0.5322
			c-0.3252-0.1143-0.6328-0.1729-0.9229-0.1729c-0.1699,0-0.3447,0.0205-0.5244,0.0605c-0.1807,0.04-0.3506,0.1025-0.5107,0.1875
			s-0.29,0.1973-0.3896,0.3379c-0.0996,0.1396-0.1504,0.3096-0.1504,0.5098c0,0.3203,0.1201,0.5645,0.3604,0.7344
			c0.2402,0.1709,0.542,0.3154,0.9072,0.4355s0.7578,0.2402,1.1777,0.3594c0.4199,0.1201,0.8125,0.291,1.1777,0.5107
			s0.667,0.5146,0.9072,0.8848s0.3604,0.8652,0.3604,1.4854c0,0.5898-0.1104,1.1045-0.3301,1.5449
			c-0.2197,0.4395-0.5176,0.8047-0.8926,1.0947s-0.8096,0.5049-1.3047,0.6445c-0.4951,0.1406-1.0176,0.21-1.5674,0.21
			c-0.6904,0-1.3301-0.1045-1.9209-0.3145c-0.5898-0.21-1.1396-0.5498-1.6494-1.0205l1.665-1.8291
			c0.2402,0.3193,0.542,0.5674,0.9072,0.7422s0.7422,0.2627,1.1328,0.2627c0.1895,0,0.3818-0.0225,0.5771-0.0674
			c0.1953-0.0459,0.3701-0.1133,0.5254-0.2031c0.1543-0.0898,0.2793-0.2051,0.375-0.3447c0.0947-0.1396,0.1426-0.3047,0.1426-0.4951
			c0-0.3203-0.123-0.5723-0.3682-0.7578c-0.2451-0.1846-0.5527-0.3418-0.9219-0.4727c-0.3701-0.1289-0.7705-0.2598-1.2002-0.3896
			c-0.4307-0.1299-0.8301-0.3047-1.2002-0.5244c-0.3701-0.2207-0.6777-0.5107-0.9229-0.8701
			c-0.2451-0.3604-0.3672-0.835-0.3672-1.4258c0-0.5693,0.1123-1.0693,0.3379-1.5c0.2246-0.4297,0.5244-0.7891,0.8994-1.0791
			s0.8076-0.5078,1.2979-0.6533c0.4902-0.1445,0.9951-0.2168,1.5146-0.2168c0.6006,0,1.1797,0.085,1.7402,0.2549
			c0.5596,0.1699,1.0654,0.4551,1.5146,0.8545L951.5996,248.2246z"/>
		<path fill="#231F20" d="M954.4043,252.6055c0-0.5801,0.1045-1.1055,0.3145-1.5752s0.4971-0.873,0.8623-1.208
			s0.7949-0.5918,1.29-0.7725c0.4951-0.1797,1.0225-0.2695,1.583-0.2695c0.5596,0,1.0869,0.0898,1.582,0.2695
			c0.4951,0.1807,0.9248,0.4375,1.29,0.7725s0.6523,0.7383,0.8623,1.208s0.3154,0.9951,0.3154,1.5752s-0.1055,1.1045-0.3154,1.5742
			c-0.21,0.4707-0.4971,0.873-0.8623,1.208s-0.7949,0.5928-1.29,0.7725s-1.0225,0.2695-1.582,0.2695
			c-0.5605,0-1.0879-0.0898-1.583-0.2695s-0.9248-0.4375-1.29-0.7725s-0.6523-0.7373-0.8623-1.208
			C954.5088,253.71,954.4043,253.1855,954.4043,252.6055z M956.6543,252.6055c0,0.5498,0.1572,0.9951,0.4717,1.335
			c0.3154,0.3398,0.7578,0.5098,1.3281,0.5098c0.5693,0,1.0127-0.1699,1.3271-0.5098c0.3154-0.3398,0.4727-0.7852,0.4727-1.335
			c0-0.5508-0.1572-0.9951-0.4727-1.3359c-0.3145-0.3398-0.7578-0.5098-1.3271-0.5098c-0.5703,0-1.0127,0.1699-1.3281,0.5098
			C956.8115,251.6104,956.6543,252.0547,956.6543,252.6055z"/>
		<path fill="#231F20" d="M968.7598,251.3154c-0.1104-0.1602-0.2656-0.293-0.4658-0.3975c-0.2002-0.1055-0.415-0.1582-0.6445-0.1582
			c-0.5703,0-1.0127,0.1699-1.3271,0.5098c-0.3154,0.3408-0.4727,0.7852-0.4727,1.3359c0,0.5498,0.1572,0.9951,0.4727,1.335
			c0.3145,0.3398,0.7568,0.5098,1.3271,0.5098c0.25,0,0.4648-0.0547,0.6445-0.165c0.1807-0.1104,0.335-0.2402,0.4658-0.3906
			l1.4844,1.5605c-0.3496,0.3604-0.7627,0.6123-1.2373,0.7578c-0.4756,0.1445-0.9277,0.2168-1.3574,0.2168
			c-0.5605,0-1.0879-0.0898-1.583-0.2695c-0.4941-0.1797-0.9248-0.4375-1.29-0.7725c-0.3643-0.335-0.6523-0.7373-0.8623-1.208
			c-0.21-0.4697-0.3145-0.9941-0.3145-1.5742s0.1045-1.1055,0.3145-1.5752s0.498-0.873,0.8623-1.208
			c0.3652-0.335,0.7959-0.5918,1.29-0.7725c0.4951-0.1797,1.0225-0.2695,1.583-0.2695c0.4297,0,0.8818,0.0723,1.3574,0.2168
			c0.4746,0.1455,0.8877,0.3975,1.2373,0.7578L968.7598,251.3154z"/>
		<path fill="#231F20" d="M970.9033,246.665c0-0.3604,0.1279-0.668,0.3828-0.9229s0.5625-0.3818,0.9229-0.3818
			c0.3594,0,0.667,0.127,0.9219,0.3818c0.2559,0.2549,0.3828,0.5625,0.3828,0.9229s-0.127,0.667-0.3828,0.9229
			c-0.2549,0.2549-0.5625,0.3818-0.9219,0.3818c-0.3604,0-0.668-0.127-0.9229-0.3818
			C971.0312,247.332,970.9033,247.0254,970.9033,246.665z M971.084,248.96h2.25v7.29h-2.25V248.96z"/>
		<path fill="#231F20" d="M979.5293,255.335h-0.0303c-0.25,0.3896-0.582,0.6699-0.9971,0.8398s-0.8525,0.2549-1.3125,0.2549
			c-0.3408,0-0.668-0.0469-0.9824-0.1426c-0.3154-0.0947-0.5928-0.2373-0.833-0.4268c-0.2402-0.1904-0.4297-0.4248-0.5703-0.7051
			c-0.1396-0.2803-0.21-0.6055-0.21-0.9756c0-0.4199,0.0781-0.7744,0.2334-1.0645c0.1543-0.29,0.3643-0.5303,0.6299-0.7207
			c0.2646-0.1895,0.5674-0.3369,0.9072-0.4424c0.3398-0.1045,0.6924-0.1816,1.0576-0.2324
			c0.3643-0.0498,0.7295-0.0801,1.0947-0.0898s0.7021-0.0146,1.0127-0.0146c0-0.4004-0.1426-0.7178-0.4277-0.9531
			c-0.2852-0.2344-0.6221-0.3525-1.0127-0.3525c-0.3701,0-0.707,0.0781-1.0117,0.2334c-0.3057,0.1543-0.5781,0.3672-0.8184,0.6367
			l-1.1992-1.2295c0.4199-0.3906,0.9092-0.6826,1.4697-0.8779c0.5596-0.1943,1.1396-0.292,1.7402-0.292
			c0.6592,0,1.2021,0.082,1.627,0.2471s0.7656,0.4082,1.0205,0.7275c0.2549,0.3203,0.4316,0.7129,0.5322,1.1777
			c0.0996,0.4648,0.1504,1.0029,0.1504,1.6123v3.7051h-2.0703V255.335z M978.9746,253.0547c-0.1709,0-0.3828,0.0078-0.6377,0.0225
			c-0.2549,0.0156-0.5,0.0576-0.7354,0.1279s-0.4346,0.1748-0.5996,0.3145c-0.165,0.1406-0.248,0.3359-0.248,0.5859
			c0,0.2695,0.1152,0.4697,0.3457,0.5996c0.2295,0.1299,0.4697,0.1953,0.7197,0.1953c0.2197,0,0.4326-0.0303,0.6377-0.0908
			c0.2041-0.0596,0.3867-0.1445,0.5469-0.2549c0.1602-0.1094,0.2881-0.25,0.3828-0.4199s0.1426-0.3691,0.1426-0.5996v-0.4805
			H978.9746z"/>
		<path fill="#231F20" d="M983.0391,244.9102h2.25V256.25h-2.25V244.9102z"/>
		<path fill="#231F20" d="M991.6338,245.6299h3.54l2.4453,6.9297h0.0293l2.46-6.9297h3.5254V256.25h-2.3398v-8.1445h-0.0303
			l-2.79,8.1445h-1.7852l-2.6846-8.1445h-0.0303v8.1445h-2.3398V245.6299z"/>
		<path fill="#231F20" d="M1012.4082,254.9902c-0.3604,0.46-0.8154,0.8145-1.3652,1.0645s-1.1201,0.375-1.71,0.375
			c-0.5605,0-1.0879-0.0898-1.583-0.2695c-0.4941-0.1797-0.9248-0.4375-1.29-0.7725c-0.3643-0.335-0.6523-0.7373-0.8623-1.208
			c-0.21-0.4697-0.3145-0.9941-0.3145-1.5742s0.1045-1.1055,0.3145-1.5752s0.498-0.873,0.8623-1.208
			c0.3652-0.335,0.7959-0.5918,1.29-0.7725c0.4951-0.1797,1.0225-0.2695,1.583-0.2695c0.5195,0,0.9922,0.0898,1.417,0.2695
			c0.4258,0.1807,0.7852,0.4375,1.0801,0.7725s0.5225,0.7383,0.6826,1.208s0.2402,0.9951,0.2402,1.5752v0.7041h-5.2197
			c0.0898,0.4307,0.2852,0.7725,0.585,1.0283c0.2998,0.2549,0.6699,0.3818,1.1094,0.3818c0.3701,0,0.6826-0.082,0.9375-0.2471
			s0.4775-0.3779,0.668-0.6377L1012.4082,254.9902z M1010.5029,251.7803c0.0098-0.3799-0.1152-0.7051-0.375-0.9756
			c-0.2598-0.2695-0.5947-0.4043-1.0049-0.4043c-0.25,0-0.4707,0.04-0.6602,0.1191c-0.1904,0.0811-0.3525,0.1826-0.4873,0.3076
			c-0.1348,0.126-0.2402,0.2705-0.3154,0.4355s-0.1172,0.3369-0.127,0.5176H1010.5029z"/>
		<path fill="#231F20" d="M1021.7686,256.25h-2.0703v-0.96h-0.0303c-0.0898,0.1299-0.207,0.2627-0.3525,0.3975
			c-0.1445,0.1348-0.3145,0.2578-0.5098,0.3672c-0.1953,0.1104-0.4102,0.2002-0.6445,0.2705
			c-0.2354,0.0693-0.4785,0.1045-0.7275,0.1045c-0.54,0-1.0303-0.0918-1.4707-0.2773c-0.4395-0.1846-0.8174-0.4443-1.1318-0.7803
			c-0.3154-0.335-0.5576-0.7324-0.7275-1.1924c-0.1709-0.46-0.2549-0.9648-0.2549-1.5146c0-0.5098,0.0771-0.9971,0.2324-1.4629
			c0.1543-0.4648,0.375-0.877,0.6602-1.2373c0.2842-0.3594,0.6318-0.6475,1.042-0.8623s0.875-0.3223,1.3955-0.3223
			c0.4697,0,0.9072,0.0723,1.3125,0.2168c0.4043,0.1455,0.7373,0.3926,0.9971,0.7432h0.0303v-4.8301h2.25V256.25z
			 M1019.6982,252.6055c0-0.5508-0.1572-0.9951-0.4727-1.3359c-0.3145-0.3398-0.7578-0.5098-1.3271-0.5098
			c-0.5703,0-1.0127,0.1699-1.3281,0.5098c-0.3145,0.3408-0.4717,0.7852-0.4717,1.3359c0,0.5498,0.1572,0.9951,0.4717,1.335
			c0.3154,0.3398,0.7578,0.5098,1.3281,0.5098c0.5693,0,1.0127-0.1699,1.3271-0.5098
			C1019.541,253.6006,1019.6982,253.1553,1019.6982,252.6055z"/>
		<path fill="#231F20" d="M1023.418,246.665c0-0.3604,0.1279-0.668,0.3828-0.9229s0.5625-0.3818,0.9229-0.3818
			c0.3594,0,0.667,0.127,0.9219,0.3818c0.2559,0.2549,0.3828,0.5625,0.3828,0.9229s-0.127,0.667-0.3828,0.9229
			c-0.2549,0.2549-0.5625,0.3818-0.9219,0.3818c-0.3604,0-0.668-0.127-0.9229-0.3818
			C1023.5459,247.332,1023.418,247.0254,1023.418,246.665z M1023.5986,248.96h2.25v7.29h-2.25V248.96z"/>
		<path fill="#231F20" d="M1032.043,255.335h-0.0303c-0.25,0.3896-0.582,0.6699-0.9971,0.8398s-0.8525,0.2549-1.3125,0.2549
			c-0.3408,0-0.668-0.0469-0.9824-0.1426c-0.3154-0.0947-0.5928-0.2373-0.833-0.4268c-0.2402-0.1904-0.4297-0.4248-0.5703-0.7051
			c-0.1396-0.2803-0.21-0.6055-0.21-0.9756c0-0.4199,0.0781-0.7744,0.2334-1.0645c0.1543-0.29,0.3643-0.5303,0.6299-0.7207
			c0.2646-0.1895,0.5674-0.3369,0.9072-0.4424c0.3398-0.1045,0.6924-0.1816,1.0576-0.2324
			c0.3643-0.0498,0.7295-0.0801,1.0947-0.0898s0.7021-0.0146,1.0127-0.0146c0-0.4004-0.1426-0.7178-0.4277-0.9531
			c-0.2852-0.2344-0.6221-0.3525-1.0127-0.3525c-0.3701,0-0.707,0.0781-1.0117,0.2334c-0.3057,0.1543-0.5781,0.3672-0.8184,0.6367
			l-1.1992-1.2295c0.4199-0.3906,0.9092-0.6826,1.4697-0.8779c0.5596-0.1943,1.1396-0.292,1.7402-0.292
			c0.6592,0,1.2021,0.082,1.627,0.2471s0.7656,0.4082,1.0205,0.7275c0.2549,0.3203,0.4316,0.7129,0.5322,1.1777
			c0.0996,0.4648,0.1504,1.0029,0.1504,1.6123v3.7051h-2.0703V255.335z M1031.4883,253.0547c-0.1709,0-0.3828,0.0078-0.6377,0.0225
			c-0.2549,0.0156-0.5,0.0576-0.7354,0.1279s-0.4346,0.1748-0.5996,0.3145c-0.165,0.1406-0.248,0.3359-0.248,0.5859
			c0,0.2695,0.1152,0.4697,0.3457,0.5996c0.2295,0.1299,0.4697,0.1953,0.7197,0.1953c0.2197,0,0.4326-0.0303,0.6377-0.0908
			c0.2041-0.0596,0.3867-0.1445,0.5469-0.2549c0.1602-0.1094,0.2881-0.25,0.3828-0.4199s0.1426-0.3691,0.1426-0.5996v-0.4805
			H1031.4883z"/>
	</g>
	<g>
		<g>
			<line fill="none" stroke="#EC008C" stroke-width="3.75" stroke-linejoin="round" x1="765" y1="185" x2="935.1406" y2="185"/>
			<g>
				<polygon fill="#EC008C" points="933.6133,173.6113 933.6133,196.3887 945,185 				"/>
			</g>
		</g>
	</g>
	<g>
		<g>
			<path fill="#EC008C" d="M854.5566,207.7402c0,0.5303-0.0928,1.0195-0.2773,1.4697c-0.1855,0.4502-0.4424,0.8398-0.7725,1.1699
				s-0.7227,0.5879-1.1777,0.7725c-0.4551,0.1855-0.957,0.2773-1.5068,0.2773c-0.54,0-1.0381-0.0918-1.4932-0.2773
				c-0.4551-0.1846-0.8477-0.4424-1.1777-0.7725c-0.3291-0.3301-0.5869-0.7197-0.7725-1.1699
				c-0.1846-0.4502-0.2773-0.9395-0.2773-1.4697s0.0928-1.0205,0.2773-1.4707c0.1855-0.4492,0.4434-0.8398,0.7725-1.1699
				c0.3301-0.3301,0.7227-0.5869,1.1777-0.7725c0.4551-0.1846,0.9531-0.2773,1.4932-0.2773c0.5498,0,1.0518,0.0928,1.5068,0.2773
				c0.4551,0.1855,0.8477,0.4424,1.1777,0.7725s0.5869,0.7207,0.7725,1.1699C854.4639,206.7197,854.5566,207.21,854.5566,207.7402z
				 M853.4766,207.7402c0-0.3906-0.0625-0.7549-0.1875-1.0957c-0.125-0.3398-0.3027-0.6348-0.5322-0.8848
				c-0.2305-0.25-0.5078-0.4473-0.832-0.5918c-0.3252-0.1455-0.6934-0.2178-1.1025-0.2178c-0.4102,0-0.7783,0.0723-1.1025,0.2178
				c-0.3252,0.1445-0.6006,0.3418-0.8252,0.5918c-0.2256,0.25-0.4004,0.5449-0.5254,0.8848
				c-0.125,0.3408-0.1875,0.7051-0.1875,1.0957c0,0.3896,0.0625,0.7549,0.1875,1.0947s0.2998,0.6348,0.5254,0.8848
				c0.2246,0.25,0.5,0.4482,0.8252,0.5928c0.3242,0.1455,0.6924,0.2178,1.1025,0.2178c0.4092,0,0.7773-0.0723,1.1025-0.2178
				c0.3242-0.1445,0.6016-0.3428,0.832-0.5928c0.2295-0.25,0.4072-0.5449,0.5322-0.8848S853.4766,208.1299,853.4766,207.7402z"/>
			<path fill="#EC008C" d="M857.3018,204.2305c0.0195,0.1895,0.0322,0.377,0.0371,0.5625c0.0049,0.1846,0.0078,0.3721,0.0078,0.5625
				h0.0293c0.1104-0.1904,0.25-0.3652,0.4199-0.5254s0.3604-0.2979,0.5703-0.4121c0.21-0.1152,0.4326-0.2051,0.668-0.2705
				c0.2344-0.0645,0.4668-0.0977,0.6973-0.0977c0.9004,0,1.5645,0.2383,1.9951,0.7129c0.4297,0.4746,0.6445,1.1523,0.6445,2.0322
				v4.4551h-0.9893v-3.8848c0-0.7803-0.1357-1.3779-0.4053-1.793c-0.2705-0.415-0.7705-0.6221-1.5-0.6221
				c-0.0508,0-0.1904,0.0195-0.4199,0.0596c-0.2305,0.04-0.4727,0.1504-0.7275,0.3301s-0.4824,0.4502-0.6826,0.8105
				c-0.2002,0.3594-0.2998,0.8594-0.2998,1.5v3.5996h-0.9902v-5.4746c0-0.1904-0.0078-0.4307-0.0225-0.7207
				s-0.0322-0.5645-0.0527-0.8242H857.3018z"/>
		</g>
	</g>
	
		<use xlink:href="#Database"  width="48" height="48" id="XMLID_1_" x="-24" y="-24" transform="matrix(1.875 0 0 -1.875 990 185)" overflow="visible"/>
	
		<use xlink:href="#Screen"  width="48" height="48" id="XMLID_40_" x="-24" y="-24" transform="matrix(1.875 0 0 -1.875 720 410)" overflow="visible"/>
	<g>
		<g>
			<path fill="#00ADEF" d="M575.6387,430.8945c-0.1494-0.2891-0.3496-0.5195-0.5996-0.6895s-0.5557-0.2549-0.915-0.2549
				c-0.1699,0-0.3428,0.0195-0.5176,0.0596s-0.333,0.1025-0.4727,0.1875s-0.2529,0.1934-0.3379,0.3223
				c-0.085,0.1309-0.127,0.291-0.127,0.4805c0,0.3301,0.1152,0.5703,0.3447,0.7197c0.2305,0.1504,0.5752,0.2803,1.0352,0.3906
				l1.0049,0.2393c0.4902,0.1104,0.8975,0.333,1.2227,0.668s0.4873,0.7529,0.4873,1.252c0,0.3809-0.0771,0.708-0.2324,0.9834
				c-0.1553,0.2744-0.3604,0.5-0.6152,0.6748s-0.5469,0.3027-0.877,0.3818c-0.3301,0.0801-0.665,0.1201-1.0049,0.1201
				c-0.54,0-1.043-0.1025-1.5078-0.3076c-0.4648-0.2041-0.8623-0.5566-1.1924-1.0566l0.8545-0.585
				c0.2002,0.3193,0.4531,0.5742,0.7578,0.7646s0.668,0.2852,1.0879,0.2852c0.1992,0,0.3994-0.0225,0.5996-0.0674
				s0.377-0.1152,0.5322-0.21c0.1553-0.0957,0.2803-0.2178,0.375-0.3682c0.0957-0.1494,0.1426-0.3242,0.1426-0.5244
				c0-0.3506-0.1299-0.6025-0.3896-0.7578s-0.5752-0.2773-0.9453-0.3672l-0.96-0.2256c-0.1201-0.0293-0.2822-0.0801-0.4873-0.1494
				c-0.2051-0.0703-0.4053-0.1748-0.5996-0.3154c-0.1953-0.1396-0.3633-0.3223-0.5029-0.5479c-0.1396-0.2246-0.21-0.502-0.21-0.832
				c0-0.3604,0.0723-0.6748,0.2178-0.9453c0.1445-0.2695,0.3398-0.4893,0.585-0.6602c0.2451-0.1699,0.5225-0.2969,0.832-0.3818
				c0.3105-0.085,0.6299-0.1279,0.96-0.1279c0.4902,0,0.9453,0.0957,1.3652,0.2852c0.4199,0.1904,0.7451,0.5156,0.9746,0.9746
				L575.6387,430.8945z"/>
			<path fill="#00ADEF" d="M578.998,433.0098c0.0303,0.3506,0.1152,0.6807,0.2559,0.9902c0.1396,0.3105,0.3242,0.5771,0.5547,0.8027
				c0.2295,0.2246,0.4951,0.4023,0.7949,0.5322s0.625,0.1953,0.9746,0.1953c0.5303,0,0.9883-0.123,1.373-0.3682
				c0.3848-0.2441,0.6768-0.5273,0.877-0.8467l0.7656,0.6299c-0.4199,0.5303-0.8828,0.9102-1.3877,1.1396
				s-1.0479,0.3447-1.6279,0.3447c-0.5195,0-1.002-0.0918-1.4473-0.2773c-0.4453-0.1846-0.8271-0.4424-1.1475-0.7725
				s-0.5723-0.7197-0.7578-1.1699c-0.1846-0.4502-0.2773-0.9395-0.2773-1.4697s0.0898-1.0205,0.2705-1.4707
				c0.1797-0.4492,0.4297-0.8398,0.75-1.1699c0.3193-0.3301,0.6943-0.5869,1.125-0.7725c0.4297-0.1846,0.8945-0.2773,1.3945-0.2773
				c0.5303,0,1.0049,0.0957,1.4248,0.2852c0.4209,0.1904,0.7725,0.4424,1.0576,0.7578c0.2852,0.3145,0.5029,0.6846,0.6523,1.1094
				c0.1504,0.4258,0.2256,0.8779,0.2256,1.3574v0.4502H578.998z M583.7686,432.2002c0-0.6699-0.2002-1.2129-0.5996-1.6279
				c-0.4004-0.415-0.96-0.6221-1.6807-0.6221c-0.3203,0-0.6299,0.0625-0.9297,0.1875s-0.5625,0.292-0.7871,0.502
				c-0.2256,0.21-0.4053,0.4502-0.54,0.7207c-0.1357,0.2695-0.2031,0.5498-0.2031,0.8398H583.7686z"/>
			<path fill="#00ADEF" d="M587.8633,436.25h-0.9902v-11.3398h0.9902V436.25z"/>
			<path fill="#00ADEF" d="M591.4639,436.25h-0.9902v-11.3398h0.9902V436.25z"/>
			<path fill="#00ADEF" d="M597.5684,430.8945c-0.1494-0.2891-0.3496-0.5195-0.5996-0.6895s-0.5557-0.2549-0.915-0.2549
				c-0.1699,0-0.3428,0.0195-0.5176,0.0596s-0.333,0.1025-0.4727,0.1875s-0.2529,0.1934-0.3379,0.3223
				c-0.085,0.1309-0.127,0.291-0.127,0.4805c0,0.3301,0.1152,0.5703,0.3447,0.7197c0.2305,0.1504,0.5752,0.2803,1.0352,0.3906
				l1.0049,0.2393c0.4902,0.1104,0.8975,0.333,1.2227,0.668s0.4873,0.7529,0.4873,1.252c0,0.3809-0.0771,0.708-0.2324,0.9834
				c-0.1553,0.2744-0.3604,0.5-0.6152,0.6748s-0.5469,0.3027-0.877,0.3818c-0.3301,0.0801-0.665,0.1201-1.0049,0.1201
				c-0.54,0-1.043-0.1025-1.5078-0.3076c-0.4648-0.2041-0.8623-0.5566-1.1924-1.0566l0.8545-0.585
				c0.2002,0.3193,0.4531,0.5742,0.7578,0.7646s0.668,0.2852,1.0879,0.2852c0.1992,0,0.3994-0.0225,0.5996-0.0674
				s0.377-0.1152,0.5322-0.21c0.1553-0.0957,0.2803-0.2178,0.375-0.3682c0.0957-0.1494,0.1426-0.3242,0.1426-0.5244
				c0-0.3506-0.1299-0.6025-0.3896-0.7578s-0.5752-0.2773-0.9453-0.3672l-0.96-0.2256c-0.1201-0.0293-0.2822-0.0801-0.4873-0.1494
				c-0.2051-0.0703-0.4053-0.1748-0.5996-0.3154c-0.1953-0.1396-0.3633-0.3223-0.5029-0.5479c-0.1396-0.2246-0.21-0.502-0.21-0.832
				c0-0.3604,0.0723-0.6748,0.2178-0.9453c0.1445-0.2695,0.3398-0.4893,0.585-0.6602c0.2451-0.1699,0.5225-0.2969,0.832-0.3818
				c0.3105-0.085,0.6299-0.1279,0.96-0.1279c0.4902,0,0.9453,0.0957,1.3652,0.2852c0.4199,0.1904,0.7451,0.5156,0.9746,0.9746
				L597.5684,430.8945z"/>
		</g>
	</g>
	<g>
		<g>
			<path fill="#00ADEF" d="M312.7715,70.1299h-2.0254v4.1396c0,0.2607,0.0254,0.4727,0.0752,0.6377s0.1201,0.293,0.21,0.3828
				s0.1973,0.1523,0.3232,0.1875c0.124,0.0352,0.2617,0.0527,0.4121,0.0527c0.1699,0,0.3447-0.0254,0.5254-0.0752
				c0.1797-0.0498,0.3447-0.1152,0.4941-0.1953l0.0449,0.915c-0.3691,0.1699-0.8145,0.2549-1.335,0.2549
				c-0.1895,0-0.3877-0.0244-0.5918-0.0742c-0.2051-0.0508-0.3926-0.1455-0.5625-0.2852c-0.1709-0.1406-0.3105-0.3301-0.4199-0.5703
				c-0.1104-0.2402-0.165-0.5547-0.165-0.9453v-4.4248h-1.4854v-0.8994h1.4854V67.25h0.9893v1.9805h2.0254V70.1299z"/>
			<path fill="#00ADEF" d="M321.2158,72.7402c0,0.5303-0.0928,1.0195-0.2773,1.4697c-0.1855,0.4502-0.4424,0.8398-0.7725,1.1699
				s-0.7227,0.5879-1.1777,0.7725c-0.4551,0.1855-0.957,0.2773-1.5068,0.2773c-0.54,0-1.0381-0.0918-1.4932-0.2773
				c-0.4551-0.1846-0.8477-0.4424-1.1777-0.7725c-0.3291-0.3301-0.5869-0.7197-0.7725-1.1699
				c-0.1846-0.4502-0.2773-0.9395-0.2773-1.4697s0.0928-1.0205,0.2773-1.4707c0.1855-0.4492,0.4434-0.8398,0.7725-1.1699
				c0.3301-0.3301,0.7227-0.5869,1.1777-0.7725c0.4551-0.1846,0.9531-0.2773,1.4932-0.2773c0.5498,0,1.0518,0.0928,1.5068,0.2773
				c0.4551,0.1855,0.8477,0.4424,1.1777,0.7725s0.5869,0.7207,0.7725,1.1699C321.123,71.7197,321.2158,72.21,321.2158,72.7402z
				 M320.1357,72.7402c0-0.3906-0.0625-0.7549-0.1875-1.0957c-0.125-0.3398-0.3027-0.6348-0.5322-0.8848
				c-0.2305-0.25-0.5078-0.4473-0.832-0.5918c-0.3252-0.1455-0.6934-0.2178-1.1025-0.2178c-0.4102,0-0.7783,0.0723-1.1025,0.2178
				c-0.3252,0.1445-0.6006,0.3418-0.8252,0.5918c-0.2256,0.25-0.4004,0.5449-0.5254,0.8848
				c-0.125,0.3408-0.1875,0.7051-0.1875,1.0957c0,0.3896,0.0625,0.7549,0.1875,1.0947s0.2998,0.6348,0.5254,0.8848
				c0.2246,0.25,0.5,0.4482,0.8252,0.5928c0.3242,0.1455,0.6924,0.2178,1.1025,0.2178c0.4092,0,0.7773-0.0723,1.1025-0.2178
				c0.3242-0.1445,0.6016-0.3428,0.832-0.5928c0.2295-0.25,0.4072-0.5449,0.5322-0.8848S320.1357,73.1299,320.1357,72.7402z"/>
		</g>
	</g>
	<g>
	</g>
	<g>
	</g>
	<g>
	</g>
	<g>
	</g>
	<g>
	</g>
	<g>
	</g>
	<g>
	</g>
	<g>
	</g>
	<g>
	</g>
	<g>
	</g>
	<g>
	</g>
	<g>
	</g>
	<g>
	</g>
	<g>
	</g>
	<g>
	</g>
	<g>
	</g>
	<g>
	</g>
	<g>
	</g>
	<g>
	</g>
	<g>
	</g>
	<g>
	</g>
	<g>
	</g>
	<g>
	</g>
	<g>
	</g>
	<g>
	</g>
	<g>
	</g>
	<g>
	</g>
	<g>
	</g>
	<g>
	</g>
	<g>
	</g>
	<g>
	</g>
	<g>
	</g>
	<g>
	</g>
	<g>
	</g>
	<g>
	</g>
	<g>
	</g>
	<g>
	</g>
	<g>
	</g>
</g>
</svg>
