<?xml version="1.0" encoding="utf-8"?>
<!-- Generator: Adobe Illustrator 16.0.0, SVG Export Plug-In . SVG Version: 6.00 Build 0)  -->
<!DOCTYPE svg PUBLIC "-//W3C//DTD SVG 1.1//EN" "http://www.w3.org/Graphics/SVG/1.1/DTD/svg11.dtd">
<svg version="1.1" xmlns="http://www.w3.org/2000/svg" xmlns:xlink="http://www.w3.org/1999/xlink" x="0px" y="0px" width="600px"
	 height="600px" viewBox="0 0 600 600" enable-background="new 0 0 600 600" xml:space="preserve">
<symbol  id="Image" viewBox="-24 -24 48 48">
	<polygon fill="none" points="24,-24 -24,-24 -24,24 24,24 	"/>
	<g>
		
			<polygon fill="none" stroke="#231F20" stroke-width="2" stroke-linecap="round" stroke-linejoin="round" stroke-miterlimit="10" points="
			17.333,13 -17.333,13 -17.333,-13 17.333,-13 		"/>
		
			<polyline fill="none" stroke="#231F20" stroke-width="2" stroke-linecap="round" stroke-linejoin="round" stroke-miterlimit="10" points="
			-13,-8.667 -8.667,-4.334 -4.333,-8.667 4.333,0 13,-8.667 		"/>
		<path fill="none" stroke="#231F20" stroke-width="2" stroke-linecap="round" stroke-linejoin="round" stroke-miterlimit="10" d="
			M-4.333,4.334C-4.333,1.94-6.274,0-8.667,0S-13,1.94-13,4.334c0,2.393,1.941,4.332,4.333,4.332S-4.333,6.727-4.333,4.334z"/>
	</g>
</symbol>
<g id="Background">
	<rect x="0" y="0" opacity="0.1" fill="#00ADEE" width="600" height="600.001"/>
</g>
<g id="Model">
</g>
<g id="Icons">
	<g>
		
			<line opacity="0.05" fill="none" stroke="#231F20" stroke-width="7.1686" stroke-linecap="round" stroke-linejoin="round" stroke-miterlimit="10" x1="1748.069" y1="-1148.068" x2="-1354.136" y2="1954.135"/>
		
			<use xlink:href="#Image"  width="48" height="48" id="XMLID_28_" x="-24" y="-24" transform="matrix(5.069 5.069 5.069 -5.069 349.0308 250.9668)" overflow="visible"/>
		<g>
			<path fill="#231F20" d="M53.555,312.046c2.298-2.298,4.766-3.994,7.401-5.09c2.636-1.095,5.298-1.608,7.989-1.541
				c2.69,0.068,5.332,0.696,7.928,1.887c2.595,1.189,5.014,2.905,7.259,5.149c2.243,2.244,3.96,4.664,5.15,7.259
				c1.188,2.595,1.818,5.238,1.885,7.928c0.068,2.69-0.446,5.353-1.541,7.988c-1.094,2.637-2.791,5.104-5.089,7.401
				c-2.298,2.299-4.765,3.994-7.401,5.089c-2.636,1.095-5.298,1.609-7.989,1.541c-2.69-0.066-5.333-0.696-7.927-1.886
				c-2.596-1.189-5.015-2.906-7.259-5.149c-2.245-2.245-3.961-4.664-5.15-7.259c-1.19-2.596-1.818-5.237-1.886-7.929
				c-0.068-2.689,0.446-5.353,1.54-7.988C49.561,316.811,51.257,314.344,53.555,312.046z M60.124,318.615
				c-1.352,1.352-2.38,2.798-3.082,4.339c-0.703,1.541-1.075,3.116-1.115,4.725c-0.041,1.608,0.256,3.189,0.891,4.744
				c0.635,1.556,1.629,3.008,2.981,4.36c1.351,1.351,2.804,2.345,4.359,2.979c1.555,0.636,3.136,0.933,4.745,0.893
				c1.608-0.04,3.183-0.412,4.724-1.115c1.54-0.703,2.987-1.729,4.339-3.082c1.324-1.324,2.345-2.765,3.062-4.319
				c0.717-1.554,1.094-3.135,1.136-4.744c0.04-1.608-0.258-3.189-0.893-4.744s-1.629-3.008-2.98-4.359
				c-1.352-1.352-2.805-2.346-4.36-2.98c-1.555-0.636-3.136-0.933-4.744-0.893c-1.61,0.041-3.191,0.419-4.745,1.135
				C62.888,316.27,61.448,317.291,60.124,318.615z"/>
			<path fill="#231F20" d="M104.933,330.82l6.083,6.083l-13.058,13.058l0.081,0.081c1.649-0.243,3.217-0.014,4.704,0.689
				c1.487,0.704,2.865,1.689,4.136,2.96c1.406,1.406,2.372,2.953,2.9,4.644c0.527,1.69,0.689,3.406,0.486,5.149
				c-0.203,1.744-0.723,3.454-1.561,5.131c-0.838,1.676-1.947,3.202-3.326,4.581c-1.488,1.487-3.082,2.623-4.785,3.407
				c-1.704,0.783-3.434,1.203-5.191,1.257c-1.757,0.055-3.481-0.263-5.17-0.952c-1.69-0.69-3.264-1.765-4.724-3.225
				c-0.703-0.703-1.27-1.461-1.703-2.271c-0.433-0.812-0.765-1.629-0.994-2.454c-0.23-0.824-0.359-1.615-0.385-2.372
				c-0.027-0.757,0.013-1.433,0.122-2.028l-0.081-0.08l-2.595,2.596l-5.596-5.597L104.933,330.82z M89.726,357.22
				c-1.487,1.487-2.265,3.116-2.332,4.886c-0.067,1.771,0.669,3.427,2.211,4.969c1.541,1.54,3.197,2.277,4.968,2.21
				c1.77-0.067,3.399-0.845,4.886-2.332c1.487-1.486,2.264-3.116,2.332-4.886c0.067-1.771-0.669-3.428-2.21-4.969
				c-1.542-1.541-3.198-2.276-4.968-2.21C92.842,354.955,91.213,355.733,89.726,357.22z"/>
			<path fill="#231F20" d="M124.316,383.699c0.216-2-0.405-3.73-1.865-5.19c-0.514-0.514-1.135-0.892-1.865-1.136
				c-0.73-0.243-1.393-0.066-1.987,0.527c-0.487,0.486-0.596,1.095-0.325,1.824c0.27,0.73,0.703,1.568,1.298,2.515
				c0.595,0.946,1.23,1.96,1.906,3.042c0.675,1.08,1.182,2.224,1.521,3.426c0.338,1.204,0.385,2.427,0.142,3.67
				c-0.244,1.244-0.987,2.488-2.23,3.73c-1.271,1.271-2.596,2.041-3.974,2.312c-1.379,0.271-2.751,0.223-4.116-0.143
				c-1.366-0.365-2.69-0.986-3.974-1.865c-1.284-0.878-2.453-1.845-3.507-2.899c-1.379-1.379-2.576-2.968-3.589-4.765
				c-1.014-1.798-1.507-3.684-1.481-5.657l7.786-0.405c-0.135,1.271-0.04,2.434,0.284,3.487c0.324,1.055,0.946,2.041,1.865,2.96
				c0.703,0.703,1.44,1.237,2.21,1.602c0.77,0.365,1.426,0.279,1.967-0.263c0.513-0.513,0.647-1.149,0.405-1.906
				c-0.244-0.757-0.663-1.607-1.258-2.555c-0.595-0.946-1.23-1.96-1.905-3.041c-0.677-1.082-1.197-2.211-1.562-3.386
				c-0.365-1.177-0.427-2.387-0.182-3.63c0.242-1.243,0.986-2.487,2.229-3.731c1.162-1.162,2.399-1.926,3.711-2.291
				c1.31-0.365,2.621-0.432,3.933-0.203c1.311,0.23,2.594,0.718,3.852,1.461c1.257,0.743,2.399,1.628,3.427,2.656
				c1.297,1.297,2.42,2.798,3.365,4.5c0.946,1.704,1.392,3.502,1.338,5.395L124.316,383.699z"/>
			<path fill="#231F20" d="M140.091,420.48c-2.217,0.271-4.407,0-6.569-0.812c-2.163-0.812-4.042-2.015-5.637-3.609
				c-1.514-1.515-2.697-3.183-3.548-5.008c-0.852-1.825-1.319-3.684-1.399-5.576c-0.081-1.893,0.23-3.757,0.933-5.596
				c0.703-1.838,1.838-3.541,3.406-5.109c1.568-1.567,3.271-2.703,5.11-3.406c1.838-0.703,3.702-1.015,5.595-0.934
				c1.892,0.081,3.751,0.548,5.576,1.399c1.825,0.852,3.494,2.034,5.008,3.548c1.406,1.406,2.44,2.927,3.103,4.562
				c0.662,1.635,0.939,3.306,0.832,5.009c-0.109,1.703-0.582,3.406-1.419,5.108c-0.839,1.704-2.041,3.34-3.609,4.908l-1.906,1.905
				l-14.113-14.112c-0.918,1.406-1.317,2.859-1.196,4.359c0.122,1.501,0.777,2.845,1.967,4.034c1,1,2.068,1.623,3.204,1.867
				c1.135,0.242,2.311,0.27,3.528,0.08L140.091,420.48z M143.619,406.652c1.053-1.001,1.594-2.218,1.622-3.649
				c0.027-1.435-0.514-2.704-1.622-3.812c-0.676-0.677-1.379-1.162-2.109-1.46c-0.73-0.297-1.447-0.459-2.149-0.486
				c-0.704-0.027-1.379,0.081-2.028,0.324c-0.648,0.244-1.23,0.594-1.744,1.054L143.619,406.652z"/>
			<path fill="#231F20" d="M161.016,408.801l6.083,6.083l-3.163,3.163l0.082,0.081c1.865-0.567,3.548-0.71,5.048-0.426
				c1.5,0.284,2.926,1.102,4.278,2.453c0.352,0.352,0.689,0.718,1.014,1.095c0.324,0.379,0.594,0.757,0.811,1.136l-5.556,5.556
				c-0.297-0.567-0.622-1.095-0.973-1.581c-0.353-0.487-0.758-0.96-1.217-1.42c-1.163-1.163-2.244-1.919-3.244-2.271
				c-1-0.352-1.973-0.419-2.919-0.203c-0.947,0.217-1.88,0.676-2.799,1.379c-0.919,0.703-1.865,1.541-2.839,2.515l-8.232,8.231
				l-6.083-6.083L161.016,408.801z"/>
			<path fill="#231F20" d="M175.452,423.237l6.569,6.569l-8.394,18.37l0.082,0.081l18.005-8.76l6.124,6.124l-27.494,11.922
				l-6.448-6.447L175.452,423.237z"/>
			<path fill="#231F20" d="M195.201,477.455l-0.081-0.081c-1.73,0.378-3.386,0.236-4.968-0.426
				c-1.581-0.663-2.994-1.616-4.238-2.859c-0.919-0.919-1.676-1.933-2.271-3.041c-0.595-1.108-0.96-2.244-1.095-3.406
				c-0.136-1.162-0.014-2.312,0.365-3.447c0.377-1.136,1.067-2.203,2.068-3.203c1.135-1.136,2.304-1.886,3.508-2.251
				c1.203-0.364,2.419-0.445,3.65-0.243c1.229,0.203,2.446,0.622,3.65,1.257c1.202,0.635,2.364,1.379,3.487,2.23
				c1.121,0.852,2.189,1.757,3.203,2.717c1.013,0.96,1.94,1.859,2.778,2.697c1.081-1.081,1.554-2.325,1.419-3.73
				c-0.135-1.406-0.729-2.636-1.784-3.69c-1-1.001-2.122-1.703-3.366-2.109c-1.245-0.405-2.555-0.567-3.933-0.485l0.081-6.569
				c2.19,0.081,4.305,0.614,6.346,1.601c2.041,0.986,3.873,2.292,5.495,3.914c1.784,1.784,3.027,3.474,3.73,5.068
				s0.967,3.17,0.791,4.725c-0.176,1.555-0.757,3.096-1.744,4.623c-0.987,1.526-2.305,3.116-3.954,4.765l-10.016,10.017
				l-5.596-5.597L195.201,477.455z M199.865,469.791c-0.46-0.46-1.055-1.014-1.784-1.663c-0.73-0.648-1.508-1.196-2.332-1.643
				c-0.824-0.446-1.649-0.702-2.473-0.771c-0.825-0.066-1.575,0.237-2.251,0.913c-0.73,0.729-0.96,1.581-0.689,2.555
				c0.27,0.973,0.744,1.798,1.419,2.474c0.595,0.595,1.25,1.088,1.967,1.48c0.716,0.392,1.439,0.656,2.169,0.79
				c0.729,0.135,1.452,0.102,2.169-0.101c0.716-0.203,1.385-0.615,2.007-1.237l1.298-1.298L199.865,469.791z"/>
			<path fill="#231F20" d="M230.399,487.917l-5.353-5.353l-6.569,6.569c-0.541,0.541-1.008,1.061-1.399,1.562
				c-0.392,0.5-0.656,1.006-0.79,1.521c-0.136,0.513-0.096,1.054,0.121,1.622c0.216,0.567,0.649,1.176,1.297,1.824
				c0.325,0.325,0.784,0.717,1.379,1.176c0.594,0.461,1.149,0.703,1.663,0.73l-5.069,5.069c-0.919-0.434-1.784-0.974-2.595-1.622
				c-0.811-0.648-1.568-1.325-2.271-2.028c-1.028-1.027-1.866-2.081-2.514-3.162c-0.65-1.082-1.062-2.183-1.237-3.306
				c-0.176-1.121-0.068-2.243,0.325-3.365c0.391-1.121,1.128-2.224,2.21-3.306l9.367-9.367l-3.893-3.894l4.866-4.865l3.893,3.893
				l5.84-5.84l6.083,6.083l-5.84,5.84l5.353,5.353L230.399,487.917z"/>
			<path fill="#231F20" d="M238.429,486.214l6.083,6.083l-19.708,19.708l-6.083-6.083L238.429,486.214z M244.146,479.522
				c0.973-0.974,2.149-1.46,3.529-1.459c1.378-0.001,2.554,0.486,3.528,1.46c0.974,0.973,1.46,2.148,1.46,3.527
				c0,1.379-0.487,2.555-1.46,3.527c-0.973,0.974-2.149,1.461-3.528,1.461c-1.379,0-2.555-0.486-3.528-1.46
				c-0.973-0.974-1.46-2.149-1.459-3.528C242.687,481.672,243.173,480.496,244.146,479.522z"/>
			<path fill="#231F20" d="M238.306,505.8c1.568-1.567,3.271-2.703,5.11-3.406c1.838-0.702,3.703-1.013,5.596-0.933
				c1.892,0.082,3.751,0.548,5.576,1.399c1.825,0.852,3.494,2.034,5.008,3.548c1.514,1.514,2.697,3.184,3.548,5.009
				c0.852,1.824,1.317,3.683,1.399,5.575c0.081,1.893-0.229,3.759-0.932,5.597c-0.703,1.839-1.839,3.542-3.407,5.109
				c-1.568,1.568-3.271,2.704-5.109,3.406c-1.838,0.704-3.704,1.014-5.596,0.933c-1.893-0.081-3.751-0.547-5.576-1.398
				c-1.825-0.852-3.494-2.035-5.008-3.549c-1.514-1.515-2.697-3.183-3.548-5.008c-0.852-1.825-1.319-3.684-1.399-5.576
				c-0.081-1.893,0.23-3.757,0.933-5.596C235.603,509.071,236.738,507.368,238.306,505.8z M244.389,511.883
				c-1.487,1.487-2.264,3.117-2.332,4.887c-0.067,1.771,0.67,3.427,2.21,4.968c1.541,1.541,3.197,2.277,4.968,2.21
				c1.771-0.066,3.399-0.845,4.886-2.332c1.487-1.486,2.265-3.115,2.332-4.887c0.067-1.77-0.669-3.426-2.21-4.967
				c-1.541-1.541-3.198-2.277-4.968-2.211C247.506,509.619,245.876,510.396,244.389,511.883z"/>
			<path fill="#231F20" d="M273.626,521.412l5.84,5.84l-2.677,2.676l0.081,0.081c0.568-0.189,1.217-0.297,1.947-0.324
				c0.729-0.027,1.486,0.055,2.271,0.243c0.784,0.189,1.581,0.5,2.393,0.933c0.81,0.433,1.582,1.014,2.311,1.743
				c1.542,1.542,2.548,3.021,3.021,4.44c0.473,1.42,0.554,2.812,0.244,4.178c-0.311,1.364-0.94,2.71-1.885,4.034
				c-0.947,1.324-2.083,2.65-3.406,3.975l-10.868,10.868l-6.083-6.083l9.651-9.651c0.568-0.567,1.135-1.176,1.703-1.825
				c0.567-0.648,1.007-1.331,1.318-2.048c0.311-0.716,0.419-1.446,0.324-2.189c-0.095-0.744-0.534-1.507-1.318-2.292
				c-0.784-0.783-1.561-1.277-2.332-1.48c-0.77-0.201-1.521-0.194-2.251,0.021c-0.73,0.217-1.433,0.582-2.108,1.095
				c-0.676,0.515-1.338,1.096-1.987,1.744l-9.814,9.814l-6.083-6.083L273.626,521.412z"/>
		</g>
		<g>
			<g>
				
					<line fill="none" stroke="#00ADEE" stroke-width="14.3372" stroke-linecap="round" stroke-linejoin="round" x1="713.997" y1="-113.998" x2="497.342" y2="102.66"/>
				<g>
					<polygon fill="#00ADEE" points="532.261,129.321 470.68,67.742 470.688,129.314 					"/>
				</g>
			</g>
		</g>
	</g>
</g>
<g id="Meta__x2B__Title">
</g>
</svg>
