<?xml version="1.0" encoding="utf-8"?>
<!-- Generator: Adobe Illustrator 16.0.0, SVG Export Plug-In . SVG Version: 6.00 Build 0)  -->
<!DOCTYPE svg PUBLIC "-//W3C//DTD SVG 1.1//EN" "http://www.w3.org/Graphics/SVG/1.1/DTD/svg11.dtd">
<svg version="1.1" xmlns="http://www.w3.org/2000/svg" xmlns:xlink="http://www.w3.org/1999/xlink" x="0px" y="0px" width="1056px"
	 height="660px" viewBox="0 0 1056 660" enable-background="new 0 0 1056 660" xml:space="preserve">
<symbol  id="Globe" viewBox="-24 -24 48 48">
	<polygon fill="none" points="24,-24 -24,-24 -24,24 24,24 	"/>
	<path fill="none" stroke="#231F20" stroke-width="2" stroke-miterlimit="10" d="M17.333,0c0,9.573-7.76,17.333-17.333,17.333
		S-17.333,9.573-17.333,0S-9.573-17.333,0-17.333S17.333-9.573,17.333,0z"/>
	<path fill="none" stroke="#231F20" stroke-width="2" stroke-miterlimit="10" d="M8.667,0c0,9.573-3.88,17.333-8.667,17.333
		S-8.667,9.573-8.667,0S-4.787-17.333,0-17.333S8.667-9.573,8.667,0z"/>
	<line fill="none" stroke="#231F20" stroke-width="2" stroke-miterlimit="10" x1="0" y1="17.333" x2="0" y2="-17.333"/>
	<path fill="none" stroke="#231F20" stroke-width="2" stroke-miterlimit="10" d="M-12.917,11.555C-9.743,9.782-5.132,8.667,0,8.667
		c5.134,0,9.746,1.116,12.92,2.889"/>
	<path fill="none" stroke="#231F20" stroke-width="2" stroke-miterlimit="10" d="M12.92-11.555C9.746-9.782,5.135-8.667,0.003-8.667
		c-5.134,0-9.746-1.116-12.92-2.889"/>
	<line fill="none" stroke="#231F20" stroke-width="2" stroke-miterlimit="10" x1="-17.333" y1="0" x2="17.333" y2="0"/>
</symbol>
<symbol  id="Image" viewBox="-24 -24 48 48">
	<polygon fill="none" points="24,-24 -24,-24 -24,24 24,24 	"/>
	<g>
		
			<polygon fill="none" stroke="#231F20" stroke-width="2" stroke-linecap="round" stroke-linejoin="round" stroke-miterlimit="10" points="
			17.333,13 -17.333,13 -17.333,-13 17.333,-13 		"/>
		
			<polyline fill="none" stroke="#231F20" stroke-width="2" stroke-linecap="round" stroke-linejoin="round" stroke-miterlimit="10" points="
			-13,-8.667 -8.667,-4.334 -4.333,-8.667 4.333,0 13,-8.667 		"/>
		<path fill="none" stroke="#231F20" stroke-width="2" stroke-linecap="round" stroke-linejoin="round" stroke-miterlimit="10" d="
			M-4.333,4.334C-4.333,1.94-6.274,0-8.667,0S-13,1.94-13,4.334c0,2.393,1.941,4.332,4.333,4.332S-4.333,6.727-4.333,4.334z"/>
	</g>
</symbol>
<symbol  id="Sensor" viewBox="-24 -24 48 48">
	<polygon fill="none" points="24,-24 -24,-24 -24,24 24,24 	"/>
	<path fill="none" stroke="#231F20" stroke-width="2" stroke-linecap="round" stroke-miterlimit="10" d="M-1,0c0,0.553,0.447,1,1,1
		s1-0.447,1-1S0.553-1,0-1S-1-0.553-1,0z"/>
	<path fill="none" stroke="#231F20" stroke-width="2" stroke-linecap="round" stroke-miterlimit="10" d="M4.557-4.557
		c2.517,2.516,2.517,6.597,0,9.113"/>
	<path fill="none" stroke="#231F20" stroke-width="2" stroke-linecap="round" stroke-miterlimit="10" d="M-4.557,4.557
		c-2.518-2.517-2.517-6.597,0-9.113"/>
	<path fill="none" stroke="#231F20" stroke-width="2" stroke-linecap="round" stroke-miterlimit="10" d="M8.406-8.406
		c4.644,4.643,4.643,12.17,0,16.812"/>
	<path fill="none" stroke="#231F20" stroke-width="2" stroke-linecap="round" stroke-miterlimit="10" d="M-8.406,8.406
		c-4.644-4.643-4.643-12.17,0-16.812"/>
	<path fill="none" stroke="#231F20" stroke-width="2" stroke-linecap="round" stroke-miterlimit="10" d="M12.257-12.257
		c6.77,6.77,6.77,17.744,0,24.514"/>
	<path fill="none" stroke="#231F20" stroke-width="2" stroke-linecap="round" stroke-miterlimit="10" d="M-12.257,12.257
		c-6.77-6.77-6.77-17.744,0-24.514"/>
</symbol>
<g id="Background">
	<rect opacity="0.05" fill="#00ADEE" width="1056" height="660"/>
	<rect x="456" opacity="0.05" fill="#00ADEE" width="144" height="659.999"/>
</g>
<g id="Model">
	
		<line opacity="0.05" fill="none" stroke="#231F20" stroke-linecap="round" stroke-linejoin="round" stroke-miterlimit="10" x1="528" y1="72" x2="528" y2="684"/>
	
		<line opacity="0.05" fill="none" stroke="#231F20" stroke-linecap="round" stroke-linejoin="round" stroke-miterlimit="10" x1="383.999" y1="72" x2="383.999" y2="684"/>
	
		<line opacity="0.05" fill="none" stroke="#231F20" stroke-linecap="round" stroke-linejoin="round" stroke-miterlimit="10" x1="239.999" y1="72" x2="239.999" y2="684"/>
	
		<line opacity="0.05" fill="none" stroke="#231F20" stroke-linecap="round" stroke-linejoin="round" stroke-miterlimit="10" x1="95.999" y1="72" x2="95.999" y2="684"/>
	
		<line opacity="0.05" fill="none" stroke="#231F20" stroke-linecap="round" stroke-linejoin="round" stroke-miterlimit="10" x1="959.999" y1="72" x2="959.999" y2="684"/>
	
		<line opacity="0.05" fill="none" stroke="#231F20" stroke-linecap="round" stroke-linejoin="round" stroke-miterlimit="10" x1="815.999" y1="72" x2="815.999" y2="684"/>
	
		<line opacity="0.05" fill="none" stroke="#231F20" stroke-linecap="round" stroke-linejoin="round" stroke-miterlimit="10" x1="671.999" y1="72" x2="671.999" y2="684"/>
	<g opacity="0.7">
		<g>
			<path fill="#00ADEE" d="M483.979,27.504h2.832l1.956,5.543h0.024l1.968-5.543h2.82V36h-1.872v-6.517h-0.024L489.451,36h-1.428
				l-2.148-6.517h-0.024V36h-1.872V27.504z"/>
			<path fill="#00ADEE" d="M494.862,33.084c0-0.465,0.084-0.885,0.252-1.26c0.168-0.377,0.398-0.699,0.69-0.967
				s0.636-0.475,1.032-0.617c0.396-0.145,0.818-0.217,1.266-0.217c0.448,0,0.87,0.072,1.266,0.217
				c0.396,0.143,0.74,0.35,1.032,0.617s0.522,0.59,0.69,0.967c0.168,0.375,0.252,0.795,0.252,1.26c0,0.463-0.084,0.884-0.252,1.26
				s-0.398,0.697-0.69,0.966s-0.636,0.474-1.032,0.618c-0.396,0.144-0.818,0.216-1.266,0.216c-0.448,0-0.87-0.072-1.266-0.216
				c-0.396-0.145-0.74-0.35-1.032-0.618s-0.522-0.59-0.69-0.966S494.862,33.547,494.862,33.084z M496.663,33.084
				c0,0.439,0.126,0.795,0.378,1.067s0.606,0.408,1.062,0.408s0.81-0.136,1.062-0.408s0.378-0.628,0.378-1.067
				c0-0.44-0.126-0.797-0.378-1.068s-0.606-0.408-1.062-0.408s-0.81,0.137-1.062,0.408S496.663,32.644,496.663,33.084z"/>
			<path fill="#00ADEE" d="M501.786,30.168h1.944l1.476,3.959h0.024l1.368-3.959h1.812L506.106,36h-1.908L501.786,30.168z"/>
			<path fill="#00ADEE" d="M508.95,28.332c0-0.289,0.102-0.535,0.306-0.738c0.204-0.204,0.45-0.307,0.738-0.307
				s0.534,0.103,0.738,0.307c0.204,0.203,0.306,0.449,0.306,0.738c0,0.287-0.102,0.533-0.306,0.737
				c-0.204,0.204-0.45,0.306-0.738,0.306s-0.534-0.102-0.738-0.306C509.052,28.865,508.95,28.619,508.95,28.332z M509.094,30.168
				h1.8V36h-1.8V30.168z"/>
			<path fill="#00ADEE" d="M512.19,30.168h1.728v0.791h0.024c0.056-0.111,0.136-0.223,0.24-0.336
				c0.104-0.111,0.228-0.211,0.372-0.299c0.144-0.089,0.308-0.16,0.492-0.217c0.184-0.056,0.384-0.084,0.6-0.084
				c0.456,0,0.824,0.07,1.104,0.21c0.28,0.14,0.498,0.335,0.654,0.582c0.156,0.248,0.262,0.54,0.318,0.876
				c0.056,0.336,0.084,0.7,0.084,1.092V36h-1.8v-2.856c0-0.168-0.006-0.343-0.018-0.522c-0.012-0.18-0.048-0.346-0.108-0.498
				c-0.06-0.151-0.152-0.275-0.276-0.371c-0.124-0.097-0.302-0.145-0.534-0.145c-0.232,0-0.42,0.042-0.564,0.126
				s-0.254,0.196-0.33,0.336c-0.076,0.14-0.126,0.298-0.15,0.474c-0.024,0.177-0.036,0.36-0.036,0.553V36h-1.8V30.168z"/>
			<path fill="#00ADEE" d="M525.198,35.508c0,1.104-0.278,1.941-0.834,2.514s-1.402,0.857-2.538,0.857
				c-0.52,0-1.032-0.058-1.536-0.174c-0.504-0.115-0.968-0.342-1.392-0.678l0.996-1.488c0.28,0.232,0.574,0.416,0.882,0.553
				c0.308,0.136,0.646,0.203,1.014,0.203c0.552,0,0.958-0.133,1.218-0.401s0.39-0.61,0.39-1.026v-0.563h-0.024
				c-0.208,0.28-0.466,0.478-0.774,0.594c-0.308,0.116-0.598,0.174-0.87,0.174c-0.432,0-0.824-0.073-1.176-0.222
				s-0.654-0.355-0.906-0.624s-0.446-0.586-0.582-0.954c-0.136-0.367-0.204-0.771-0.204-1.212c0-0.384,0.062-0.76,0.186-1.128
				s0.3-0.691,0.528-0.973c0.228-0.279,0.506-0.506,0.834-0.678s0.7-0.258,1.116-0.258c0.256,0,0.49,0.028,0.702,0.084
				c0.212,0.057,0.402,0.128,0.57,0.217c0.168,0.088,0.312,0.186,0.432,0.293c0.12,0.108,0.216,0.215,0.288,0.318h0.024v-0.768
				h1.656V35.508z M520.662,33.047c0,0.193,0.036,0.375,0.108,0.547c0.072,0.172,0.174,0.324,0.306,0.455
				c0.132,0.133,0.284,0.238,0.456,0.318s0.362,0.12,0.57,0.12c0.2,0,0.388-0.04,0.564-0.12c0.176-0.08,0.33-0.186,0.462-0.318
				c0.132-0.131,0.234-0.283,0.306-0.455c0.072-0.172,0.108-0.354,0.108-0.547c0-0.191-0.036-0.373-0.108-0.545
				c-0.072-0.172-0.174-0.324-0.306-0.457c-0.132-0.131-0.286-0.237-0.462-0.317c-0.176-0.08-0.364-0.12-0.564-0.12
				c-0.208,0-0.398,0.04-0.57,0.12s-0.324,0.187-0.456,0.317c-0.132,0.133-0.234,0.285-0.306,0.457
				C520.698,32.674,520.662,32.855,520.662,33.047z"/>
			<path fill="#00ADEE" d="M530.358,30.168h1.656v0.768h0.024c0.072-0.104,0.166-0.21,0.282-0.318
				c0.116-0.107,0.252-0.205,0.408-0.293c0.156-0.089,0.326-0.16,0.51-0.217c0.184-0.056,0.38-0.084,0.588-0.084
				c0.432,0,0.824,0.074,1.176,0.223c0.352,0.147,0.654,0.355,0.906,0.623c0.252,0.269,0.446,0.586,0.582,0.955
				c0.136,0.367,0.204,0.771,0.204,1.211c0,0.408-0.062,0.799-0.186,1.17c-0.124,0.373-0.3,0.703-0.528,0.99
				c-0.228,0.288-0.506,0.518-0.834,0.69c-0.328,0.172-0.7,0.258-1.116,0.258c-0.376,0-0.726-0.058-1.05-0.174
				c-0.324-0.116-0.59-0.313-0.798-0.595h-0.024v3.36h-1.8V30.168z M532.014,33.084c0,0.439,0.126,0.795,0.378,1.067
				s0.606,0.408,1.062,0.408s0.81-0.136,1.062-0.408s0.378-0.628,0.378-1.067c0-0.44-0.126-0.797-0.378-1.068
				s-0.606-0.408-1.062-0.408s-0.81,0.137-1.062,0.408S532.014,32.644,532.014,33.084z"/>
			<path fill="#00ADEE" d="M537.75,30.168h1.8v0.936h0.024c0.192-0.359,0.42-0.63,0.684-0.811c0.264-0.18,0.596-0.27,0.996-0.27
				c0.104,0,0.208,0.004,0.312,0.012c0.104,0.008,0.2,0.024,0.288,0.049v1.644c-0.128-0.04-0.254-0.069-0.378-0.09
				s-0.254-0.03-0.39-0.03c-0.344,0-0.616,0.048-0.816,0.145c-0.2,0.096-0.354,0.229-0.462,0.401
				c-0.108,0.173-0.178,0.378-0.21,0.618c-0.032,0.24-0.048,0.504-0.048,0.792V36h-1.8V30.168z"/>
			<path fill="#00ADEE" d="M547.938,34.992c-0.288,0.367-0.652,0.651-1.092,0.852c-0.44,0.199-0.896,0.3-1.368,0.3
				c-0.448,0-0.87-0.072-1.266-0.216c-0.396-0.145-0.74-0.35-1.032-0.618s-0.522-0.59-0.69-0.966s-0.252-0.797-0.252-1.26
				c0-0.465,0.084-0.885,0.252-1.26c0.168-0.377,0.398-0.699,0.69-0.967s0.636-0.475,1.032-0.617
				c0.396-0.145,0.818-0.217,1.266-0.217c0.416,0,0.794,0.072,1.134,0.217c0.34,0.143,0.628,0.35,0.864,0.617
				s0.418,0.59,0.546,0.967c0.127,0.375,0.192,0.795,0.192,1.26v0.563h-4.176c0.072,0.345,0.228,0.618,0.468,0.822
				c0.24,0.204,0.536,0.306,0.888,0.306c0.296,0,0.546-0.066,0.75-0.197c0.204-0.133,0.382-0.303,0.534-0.511L547.938,34.992z
				 M546.414,32.424c0.008-0.305-0.092-0.564-0.3-0.78s-0.476-0.324-0.804-0.324c-0.2,0-0.376,0.032-0.528,0.097
				c-0.152,0.063-0.282,0.146-0.39,0.246c-0.108,0.1-0.192,0.215-0.252,0.348c-0.06,0.132-0.094,0.27-0.102,0.414H546.414z"/>
			<path fill="#00ADEE" d="M552.605,31.883c-0.264-0.327-0.612-0.491-1.044-0.491c-0.152,0-0.3,0.036-0.444,0.108
				c-0.144,0.071-0.216,0.195-0.216,0.371c0,0.145,0.074,0.25,0.222,0.318c0.148,0.068,0.336,0.128,0.564,0.18
				c0.228,0.053,0.472,0.108,0.732,0.168c0.26,0.061,0.504,0.154,0.732,0.282s0.416,0.302,0.564,0.522
				c0.148,0.22,0.222,0.514,0.222,0.882c0,0.376-0.082,0.687-0.246,0.93c-0.164,0.244-0.374,0.44-0.63,0.589
				c-0.256,0.147-0.544,0.252-0.864,0.312s-0.636,0.09-0.948,0.09c-0.408,0-0.82-0.058-1.236-0.174
				c-0.417-0.116-0.768-0.322-1.056-0.618l1.092-1.212c0.168,0.208,0.354,0.366,0.558,0.474c0.204,0.108,0.442,0.162,0.714,0.162
				c0.208,0,0.396-0.029,0.564-0.09s0.252-0.17,0.252-0.33c0-0.152-0.074-0.266-0.222-0.342c-0.148-0.076-0.336-0.141-0.564-0.192
				s-0.472-0.108-0.732-0.168c-0.26-0.06-0.504-0.149-0.732-0.271c-0.228-0.119-0.416-0.289-0.564-0.51
				c-0.148-0.219-0.222-0.514-0.222-0.881c0-0.345,0.07-0.641,0.21-0.889c0.14-0.248,0.324-0.451,0.552-0.611
				s0.49-0.278,0.786-0.354s0.596-0.114,0.9-0.114c0.384,0,0.772,0.057,1.164,0.168c0.392,0.112,0.724,0.312,0.996,0.6
				L552.605,31.883z"/>
			<path fill="#00ADEE" d="M560.381,34.992c-0.288,0.367-0.652,0.651-1.092,0.852c-0.44,0.199-0.896,0.3-1.368,0.3
				c-0.448,0-0.87-0.072-1.266-0.216c-0.396-0.145-0.74-0.35-1.032-0.618s-0.522-0.59-0.69-0.966s-0.252-0.797-0.252-1.26
				c0-0.465,0.084-0.885,0.252-1.26c0.168-0.377,0.398-0.699,0.69-0.967s0.636-0.475,1.032-0.617
				c0.396-0.145,0.818-0.217,1.266-0.217c0.416,0,0.794,0.072,1.134,0.217c0.34,0.143,0.628,0.35,0.864,0.617
				s0.418,0.59,0.546,0.967c0.127,0.375,0.192,0.795,0.192,1.26v0.563h-4.176c0.072,0.345,0.228,0.618,0.468,0.822
				c0.24,0.204,0.536,0.306,0.888,0.306c0.296,0,0.546-0.066,0.75-0.197c0.204-0.133,0.382-0.303,0.534-0.511L560.381,34.992z
				 M558.857,32.424c0.008-0.305-0.092-0.564-0.3-0.78s-0.476-0.324-0.804-0.324c-0.2,0-0.376,0.032-0.528,0.097
				c-0.152,0.063-0.282,0.146-0.39,0.246c-0.108,0.1-0.192,0.215-0.252,0.348c-0.06,0.132-0.094,0.27-0.102,0.414H558.857z"/>
			<path fill="#00ADEE" d="M561.75,30.168h1.728v0.791h0.024c0.056-0.111,0.136-0.223,0.24-0.336
				c0.104-0.111,0.228-0.211,0.372-0.299c0.144-0.089,0.308-0.16,0.492-0.217c0.184-0.056,0.384-0.084,0.6-0.084
				c0.456,0,0.824,0.07,1.104,0.21c0.28,0.14,0.498,0.335,0.654,0.582c0.156,0.248,0.262,0.54,0.318,0.876
				c0.056,0.336,0.084,0.7,0.084,1.092V36h-1.8v-2.856c0-0.168-0.006-0.343-0.018-0.522c-0.012-0.18-0.048-0.346-0.108-0.498
				c-0.06-0.151-0.152-0.275-0.276-0.371c-0.124-0.097-0.302-0.145-0.534-0.145c-0.232,0-0.42,0.042-0.564,0.126
				s-0.254,0.196-0.33,0.336c-0.076,0.14-0.126,0.298-0.15,0.474c-0.024,0.177-0.036,0.36-0.036,0.553V36h-1.8V30.168z"/>
			<path fill="#00ADEE" d="M572.609,31.607h-1.584v1.943c0,0.16,0.008,0.307,0.024,0.439c0.016,0.131,0.052,0.245,0.108,0.342
				c0.056,0.096,0.142,0.17,0.258,0.222c0.116,0.052,0.27,0.077,0.462,0.077c0.096,0,0.222-0.01,0.378-0.029
				c0.156-0.02,0.274-0.066,0.354-0.139v1.5c-0.2,0.072-0.408,0.121-0.624,0.145c-0.216,0.023-0.428,0.036-0.636,0.036
				c-0.304,0-0.584-0.032-0.84-0.097c-0.256-0.063-0.48-0.166-0.672-0.305c-0.192-0.141-0.342-0.322-0.45-0.547
				c-0.108-0.224-0.162-0.496-0.162-0.816v-2.771h-1.152v-1.439h1.152v-1.729h1.8v1.729h1.584V31.607z"/>
		</g>
	</g>
	<g opacity="0.7">
		<g>
			<path fill="#00ADEE" d="M84.642,27.504h3.156c0.44,0,0.856,0.039,1.248,0.119c0.392,0.08,0.734,0.219,1.026,0.414
				c0.292,0.196,0.524,0.461,0.696,0.793c0.172,0.332,0.258,0.75,0.258,1.254c0,0.496-0.08,0.912-0.24,1.248s-0.38,0.604-0.66,0.804
				c-0.28,0.2-0.612,0.342-0.996,0.426c-0.384,0.084-0.8,0.126-1.248,0.126h-1.368V36h-1.872V27.504z M86.514,31.104h1.248
				c0.168,0,0.33-0.016,0.486-0.048c0.156-0.032,0.296-0.086,0.42-0.162s0.224-0.181,0.3-0.312c0.076-0.133,0.114-0.299,0.114-0.498
				c0-0.217-0.05-0.391-0.15-0.522s-0.228-0.233-0.384-0.306c-0.156-0.072-0.33-0.118-0.522-0.139
				c-0.192-0.02-0.376-0.029-0.552-0.029h-0.96V31.104z"/>
			<path fill="#00ADEE" d="M95.634,35.268H95.61c-0.2,0.312-0.466,0.536-0.798,0.672c-0.332,0.137-0.682,0.204-1.05,0.204
				c-0.272,0-0.534-0.038-0.786-0.114s-0.474-0.189-0.666-0.342c-0.192-0.152-0.344-0.34-0.456-0.564
				c-0.112-0.224-0.168-0.483-0.168-0.779c0-0.336,0.062-0.62,0.186-0.852c0.124-0.232,0.292-0.425,0.504-0.576
				c0.212-0.152,0.454-0.271,0.726-0.354c0.271-0.084,0.554-0.146,0.846-0.187c0.292-0.039,0.584-0.063,0.876-0.071
				c0.292-0.009,0.562-0.013,0.81-0.013c0-0.319-0.114-0.573-0.342-0.762c-0.228-0.188-0.498-0.281-0.81-0.281
				c-0.296,0-0.566,0.062-0.81,0.186s-0.462,0.294-0.654,0.51l-0.96-0.984c0.336-0.312,0.728-0.545,1.176-0.701
				c0.448-0.156,0.912-0.234,1.392-0.234c0.528,0,0.962,0.066,1.302,0.198c0.34,0.132,0.612,0.325,0.816,0.582
				c0.204,0.256,0.346,0.569,0.426,0.942c0.08,0.371,0.12,0.802,0.12,1.289V36h-1.656V35.268z M95.19,33.443
				c-0.136,0-0.306,0.006-0.51,0.018c-0.204,0.013-0.4,0.047-0.588,0.103s-0.348,0.14-0.48,0.252s-0.198,0.269-0.198,0.468
				c0,0.217,0.092,0.377,0.276,0.48s0.376,0.156,0.576,0.156c0.176,0,0.346-0.024,0.51-0.072c0.164-0.049,0.31-0.116,0.438-0.204
				s0.23-0.2,0.306-0.336c0.076-0.136,0.114-0.296,0.114-0.479v-0.385H95.19z"/>
			<path fill="#00ADEE" d="M101.718,31.883c-0.264-0.327-0.612-0.491-1.044-0.491c-0.152,0-0.3,0.036-0.444,0.108
				c-0.144,0.071-0.216,0.195-0.216,0.371c0,0.145,0.074,0.25,0.222,0.318c0.148,0.068,0.336,0.128,0.564,0.18
				c0.228,0.053,0.472,0.108,0.732,0.168c0.26,0.061,0.504,0.154,0.732,0.282s0.416,0.302,0.564,0.522
				c0.148,0.22,0.222,0.514,0.222,0.882c0,0.376-0.082,0.687-0.246,0.93c-0.164,0.244-0.374,0.44-0.63,0.589
				c-0.256,0.147-0.544,0.252-0.864,0.312s-0.636,0.09-0.948,0.09c-0.408,0-0.82-0.058-1.236-0.174
				c-0.417-0.116-0.768-0.322-1.056-0.618l1.092-1.212c0.168,0.208,0.354,0.366,0.558,0.474c0.204,0.108,0.442,0.162,0.714,0.162
				c0.208,0,0.396-0.029,0.564-0.09s0.252-0.17,0.252-0.33c0-0.152-0.074-0.266-0.222-0.342c-0.148-0.076-0.336-0.141-0.564-0.192
				s-0.472-0.108-0.732-0.168c-0.26-0.06-0.504-0.149-0.732-0.271c-0.228-0.119-0.416-0.289-0.564-0.51
				c-0.148-0.219-0.222-0.514-0.222-0.881c0-0.345,0.07-0.641,0.21-0.889c0.14-0.248,0.324-0.451,0.552-0.611
				s0.49-0.278,0.786-0.354s0.596-0.114,0.9-0.114c0.384,0,0.772,0.057,1.164,0.168c0.392,0.112,0.724,0.312,0.996,0.6
				L101.718,31.883z"/>
			<path fill="#00ADEE" d="M107.946,31.607h-1.584v1.943c0,0.16,0.008,0.307,0.024,0.439c0.016,0.131,0.052,0.245,0.108,0.342
				c0.056,0.096,0.142,0.17,0.258,0.222c0.116,0.052,0.27,0.077,0.462,0.077c0.096,0,0.222-0.01,0.378-0.029
				c0.156-0.02,0.274-0.066,0.354-0.139v1.5c-0.2,0.072-0.408,0.121-0.624,0.145c-0.216,0.023-0.428,0.036-0.636,0.036
				c-0.304,0-0.584-0.032-0.84-0.097c-0.256-0.063-0.48-0.166-0.672-0.305c-0.192-0.141-0.342-0.322-0.45-0.547
				c-0.108-0.224-0.162-0.496-0.162-0.816v-2.771h-1.152v-1.439h1.152v-1.729h1.8v1.729h1.584V31.607z"/>
		</g>
	</g>
	<g opacity="0.7">
		<g>
			<path fill="#00ADEE" d="M942.271,27.504h5.7v1.728h-3.828v1.728h3.54v1.729h-3.54V36h-1.872V27.504z"/>
			<path fill="#00ADEE" d="M954.702,36h-1.728v-0.793h-0.024c-0.064,0.113-0.146,0.225-0.246,0.336
				c-0.1,0.113-0.222,0.213-0.366,0.301s-0.308,0.16-0.492,0.216s-0.384,0.084-0.6,0.084c-0.456,0-0.826-0.07-1.11-0.21
				c-0.284-0.141-0.504-0.334-0.66-0.582c-0.156-0.248-0.26-0.54-0.312-0.876c-0.052-0.336-0.078-0.7-0.078-1.093v-3.215h1.8v2.855
				c0,0.168,0.006,0.342,0.018,0.521c0.012,0.181,0.048,0.347,0.108,0.498c0.06,0.152,0.152,0.276,0.276,0.373
				c0.124,0.096,0.302,0.144,0.534,0.144c0.232,0,0.42-0.042,0.564-0.126s0.254-0.195,0.33-0.336
				c0.076-0.141,0.126-0.298,0.15-0.475c0.024-0.176,0.036-0.359,0.036-0.552v-2.903h1.8V36z"/>
			<path fill="#00ADEE" d="M959.946,31.607h-1.584v1.943c0,0.16,0.008,0.307,0.024,0.439c0.016,0.131,0.052,0.245,0.108,0.342
				c0.056,0.096,0.142,0.17,0.258,0.222c0.116,0.052,0.27,0.077,0.462,0.077c0.096,0,0.222-0.01,0.378-0.029
				c0.156-0.02,0.274-0.066,0.354-0.139v1.5c-0.2,0.072-0.408,0.121-0.624,0.145c-0.216,0.023-0.428,0.036-0.636,0.036
				c-0.304,0-0.584-0.032-0.84-0.097c-0.256-0.063-0.48-0.166-0.672-0.305c-0.192-0.141-0.342-0.322-0.45-0.547
				c-0.108-0.224-0.162-0.496-0.162-0.816v-2.771h-1.152v-1.439h1.152v-1.729h1.8v1.729h1.584V31.607z"/>
			<path fill="#00ADEE" d="M966.474,36h-1.728v-0.793h-0.024c-0.064,0.113-0.146,0.225-0.246,0.336
				c-0.1,0.113-0.222,0.213-0.366,0.301s-0.308,0.16-0.492,0.216s-0.384,0.084-0.6,0.084c-0.456,0-0.826-0.07-1.11-0.21
				c-0.284-0.141-0.504-0.334-0.66-0.582c-0.156-0.248-0.26-0.54-0.312-0.876c-0.052-0.336-0.078-0.7-0.078-1.093v-3.215h1.8v2.855
				c0,0.168,0.006,0.342,0.018,0.521c0.012,0.181,0.048,0.347,0.108,0.498c0.06,0.152,0.152,0.276,0.276,0.373
				c0.124,0.096,0.302,0.144,0.534,0.144c0.232,0,0.42-0.042,0.564-0.126s0.254-0.195,0.33-0.336
				c0.076-0.141,0.126-0.298,0.15-0.475c0.024-0.176,0.036-0.359,0.036-0.552v-2.903h1.8V36z"/>
			<path fill="#00ADEE" d="M967.746,30.168h1.8v0.936h0.024c0.192-0.359,0.42-0.63,0.684-0.811c0.264-0.18,0.596-0.27,0.996-0.27
				c0.104,0,0.208,0.004,0.312,0.012c0.104,0.008,0.2,0.024,0.288,0.049v1.644c-0.128-0.04-0.254-0.069-0.378-0.09
				s-0.254-0.03-0.39-0.03c-0.344,0-0.616,0.048-0.816,0.145c-0.2,0.096-0.354,0.229-0.462,0.401
				c-0.108,0.173-0.178,0.378-0.21,0.618c-0.032,0.24-0.048,0.504-0.048,0.792V36h-1.8V30.168z"/>
			<path fill="#00ADEE" d="M977.933,34.992c-0.288,0.367-0.652,0.651-1.092,0.852c-0.44,0.199-0.896,0.3-1.368,0.3
				c-0.448,0-0.87-0.072-1.266-0.216c-0.396-0.145-0.74-0.35-1.032-0.618s-0.522-0.59-0.69-0.966s-0.252-0.797-0.252-1.26
				c0-0.465,0.084-0.885,0.252-1.26c0.168-0.377,0.398-0.699,0.69-0.967s0.636-0.475,1.032-0.617
				c0.396-0.145,0.818-0.217,1.266-0.217c0.416,0,0.794,0.072,1.134,0.217c0.34,0.143,0.628,0.35,0.864,0.617
				s0.418,0.59,0.546,0.967c0.127,0.375,0.192,0.795,0.192,1.26v0.563h-4.176c0.072,0.345,0.228,0.618,0.468,0.822
				c0.24,0.204,0.536,0.306,0.888,0.306c0.296,0,0.546-0.066,0.75-0.197c0.204-0.133,0.382-0.303,0.534-0.511L977.933,34.992z
				 M976.409,32.424c0.008-0.305-0.092-0.564-0.3-0.78s-0.476-0.324-0.804-0.324c-0.2,0-0.376,0.032-0.528,0.097
				c-0.152,0.063-0.282,0.146-0.39,0.246c-0.108,0.1-0.192,0.215-0.252,0.348c-0.06,0.132-0.094,0.27-0.102,0.414H976.409z"/>
		</g>
	</g>
</g>
<g id="Icons">
	<g>
		<g>
			<path fill="#00ADEE" d="M540.423,180.194c0-0.33,0.057-0.63,0.171-0.899c0.114-0.271,0.27-0.503,0.468-0.698
				c0.198-0.194,0.435-0.347,0.711-0.454c0.276-0.108,0.576-0.162,0.9-0.162c0.324,0,0.624,0.054,0.9,0.162
				c0.276,0.107,0.513,0.26,0.711,0.454c0.198,0.195,0.354,0.428,0.468,0.698c0.114,0.27,0.171,0.569,0.171,0.899
				s-0.057,0.63-0.171,0.899c-0.114,0.271-0.27,0.503-0.468,0.698c-0.198,0.194-0.435,0.347-0.711,0.454
				c-0.276,0.108-0.576,0.162-0.9,0.162c-0.324,0-0.624-0.054-0.9-0.162c-0.276-0.107-0.513-0.26-0.711-0.454
				c-0.198-0.195-0.354-0.428-0.468-0.698C540.48,180.824,540.423,180.524,540.423,180.194z M541.179,180.194
				c0,0.222,0.034,0.427,0.104,0.616c0.069,0.189,0.169,0.354,0.301,0.495c0.132,0.142,0.29,0.252,0.473,0.333
				c0.183,0.081,0.388,0.121,0.616,0.121s0.434-0.04,0.617-0.121s0.34-0.191,0.473-0.333c0.132-0.141,0.232-0.306,0.301-0.495
				s0.104-0.395,0.104-0.616s-0.035-0.428-0.104-0.616c-0.069-0.189-0.169-0.354-0.301-0.495c-0.132-0.142-0.29-0.253-0.473-0.333
				c-0.183-0.081-0.389-0.121-0.617-0.121s-0.434,0.04-0.616,0.121c-0.183,0.08-0.341,0.191-0.473,0.333
				c-0.132,0.141-0.232,0.306-0.301,0.495C541.213,179.767,541.179,179.973,541.179,180.194z"/>
			<path fill="#00ADEE" d="M545.976,175.496h0.702v3.204h0.018c0.192-0.228,0.416-0.405,0.67-0.53
				c0.255-0.127,0.536-0.189,0.841-0.189c0.33,0,0.631,0.055,0.905,0.166c0.273,0.111,0.505,0.266,0.697,0.464
				s0.342,0.433,0.45,0.702s0.162,0.564,0.162,0.882s-0.054,0.612-0.162,0.882s-0.256,0.504-0.446,0.702
				c-0.189,0.198-0.413,0.353-0.67,0.464c-0.258,0.11-0.534,0.166-0.828,0.166c-0.378,0-0.71-0.082-0.995-0.248
				c-0.285-0.164-0.494-0.367-0.625-0.607h-0.018v0.748h-0.702V175.496z M546.678,180.194c0,0.222,0.034,0.427,0.104,0.616
				c0.069,0.189,0.169,0.354,0.301,0.495c0.132,0.142,0.29,0.252,0.473,0.333s0.389,0.121,0.617,0.121
				c0.228,0,0.433-0.04,0.616-0.121s0.34-0.191,0.473-0.333c0.132-0.141,0.232-0.306,0.301-0.495
				c0.069-0.189,0.104-0.395,0.104-0.616s-0.034-0.428-0.104-0.616c-0.069-0.189-0.169-0.354-0.301-0.495
				c-0.132-0.142-0.29-0.253-0.473-0.333c-0.183-0.081-0.389-0.121-0.616-0.121c-0.228,0-0.434,0.04-0.617,0.121
				c-0.183,0.08-0.34,0.191-0.473,0.333c-0.132,0.141-0.232,0.306-0.301,0.495C546.712,179.767,546.678,179.973,546.678,180.194z"/>
			<path fill="#00ADEE" d="M551.601,181.193c0.138,0.174,0.29,0.312,0.455,0.414s0.374,0.152,0.625,0.152
				c0.108,0,0.217-0.012,0.329-0.035c0.111-0.024,0.211-0.063,0.301-0.117c0.09-0.055,0.162-0.121,0.216-0.203
				c0.054-0.08,0.081-0.178,0.081-0.292s-0.026-0.207-0.077-0.278c-0.051-0.072-0.119-0.135-0.203-0.186s-0.18-0.091-0.288-0.121
				c-0.108-0.029-0.219-0.057-0.333-0.081c-0.198-0.042-0.387-0.09-0.567-0.144c-0.18-0.055-0.337-0.125-0.472-0.212
				c-0.135-0.087-0.243-0.199-0.324-0.337c-0.081-0.139-0.122-0.315-0.122-0.531c0-0.204,0.045-0.385,0.135-0.541
				c0.09-0.155,0.21-0.284,0.36-0.387c0.15-0.102,0.318-0.18,0.504-0.233s0.378-0.081,0.576-0.081c0.3,0,0.577,0.061,0.833,0.18
				c0.255,0.12,0.455,0.314,0.598,0.585l-0.585,0.388c-0.09-0.15-0.208-0.271-0.355-0.365c-0.147-0.093-0.325-0.139-0.535-0.139
				c-0.096,0-0.194,0.012-0.292,0.035c-0.099,0.024-0.188,0.061-0.266,0.108c-0.078,0.048-0.143,0.109-0.193,0.185
				c-0.051,0.074-0.077,0.16-0.077,0.256c0,0.09,0.028,0.167,0.085,0.23c0.057,0.062,0.135,0.118,0.234,0.166
				s0.213,0.09,0.342,0.126c0.129,0.036,0.262,0.065,0.4,0.09c0.186,0.036,0.363,0.083,0.531,0.14s0.315,0.133,0.441,0.229
				c0.126,0.097,0.225,0.216,0.297,0.36c0.072,0.144,0.108,0.32,0.108,0.531c0,0.239-0.048,0.443-0.144,0.611
				c-0.096,0.168-0.224,0.305-0.382,0.41c-0.159,0.104-0.339,0.182-0.54,0.229c-0.201,0.049-0.407,0.072-0.617,0.072
				c-0.36,0-0.67-0.056-0.932-0.166c-0.261-0.111-0.497-0.316-0.706-0.617L551.601,181.193z"/>
			<path fill="#00ADEE" d="M559.107,181.535c-0.252,0.324-0.528,0.551-0.828,0.68c-0.3,0.129-0.648,0.193-1.044,0.193
				c-0.33,0-0.627-0.059-0.891-0.176c-0.264-0.117-0.488-0.273-0.67-0.473c-0.183-0.197-0.324-0.432-0.423-0.701
				c-0.099-0.271-0.148-0.559-0.148-0.864c0-0.324,0.054-0.622,0.162-0.896s0.258-0.507,0.45-0.702
				c0.192-0.194,0.42-0.347,0.684-0.454c0.264-0.108,0.552-0.162,0.864-0.162c0.294,0,0.564,0.049,0.81,0.148
				s0.458,0.242,0.634,0.432c0.177,0.189,0.313,0.42,0.41,0.693c0.096,0.273,0.144,0.584,0.144,0.932v0.225h-3.402
				c0.012,0.18,0.055,0.353,0.13,0.518c0.075,0.165,0.172,0.309,0.292,0.432s0.261,0.221,0.423,0.293s0.339,0.107,0.531,0.107
				c0.306,0,0.564-0.054,0.774-0.162c0.21-0.107,0.399-0.266,0.567-0.477L559.107,181.535z M558.504,179.816
				c-0.012-0.36-0.129-0.648-0.351-0.864c-0.222-0.216-0.528-0.323-0.918-0.323c-0.39,0-0.705,0.107-0.945,0.323
				c-0.24,0.216-0.384,0.504-0.432,0.864H558.504z"/>
			<path fill="#00ADEE" d="M560.349,179.088c0-0.192-0.006-0.373-0.018-0.541s-0.018-0.32-0.018-0.459h0.666
				c0,0.114,0.003,0.229,0.009,0.342c0.006,0.115,0.009,0.231,0.009,0.352h0.018c0.048-0.102,0.115-0.201,0.203-0.297
				c0.087-0.096,0.19-0.182,0.311-0.256c0.12-0.076,0.255-0.136,0.405-0.181s0.312-0.067,0.486-0.067
				c0.048,0,0.096,0.003,0.144,0.009s0.096,0.019,0.144,0.036l-0.045,0.711c-0.12-0.036-0.246-0.055-0.378-0.055
				c-0.432,0-0.746,0.141-0.94,0.419c-0.195,0.279-0.292,0.661-0.292,1.147v2.053h-0.702V179.088z"/>
			<path fill="#00ADEE" d="M565.434,182.301h-0.774l-1.719-4.213h0.819l1.314,3.303h0.018l1.251-3.303h0.756L565.434,182.301z"/>
			<path fill="#00ADEE" d="M571.617,181.535c-0.252,0.324-0.528,0.551-0.828,0.68c-0.3,0.129-0.648,0.193-1.044,0.193
				c-0.33,0-0.627-0.059-0.891-0.176c-0.264-0.117-0.488-0.273-0.67-0.473c-0.183-0.197-0.324-0.432-0.423-0.701
				c-0.099-0.271-0.148-0.559-0.148-0.864c0-0.324,0.054-0.622,0.162-0.896s0.258-0.507,0.45-0.702
				c0.192-0.194,0.42-0.347,0.684-0.454c0.264-0.108,0.552-0.162,0.864-0.162c0.294,0,0.564,0.049,0.81,0.148
				s0.458,0.242,0.634,0.432c0.177,0.189,0.313,0.42,0.41,0.693c0.096,0.273,0.144,0.584,0.144,0.932v0.225h-3.402
				c0.012,0.18,0.055,0.353,0.13,0.518c0.075,0.165,0.172,0.309,0.292,0.432s0.261,0.221,0.423,0.293s0.339,0.107,0.531,0.107
				c0.306,0,0.564-0.054,0.774-0.162c0.21-0.107,0.399-0.266,0.567-0.477L571.617,181.535z M571.014,179.816
				c-0.012-0.36-0.129-0.648-0.351-0.864c-0.222-0.216-0.528-0.323-0.918-0.323c-0.39,0-0.705,0.107-0.945,0.323
				c-0.24,0.216-0.384,0.504-0.432,0.864H571.014z"/>
			<path fill="#00ADEE" d="M576.359,181.553h-0.018c-0.132,0.24-0.34,0.443-0.625,0.607c-0.285,0.166-0.616,0.248-0.995,0.248
				c-0.294,0-0.57-0.056-0.828-0.166c-0.258-0.111-0.481-0.266-0.671-0.464c-0.189-0.198-0.337-0.433-0.445-0.702
				s-0.162-0.564-0.162-0.882s0.054-0.612,0.162-0.882s0.258-0.504,0.45-0.702c0.192-0.198,0.424-0.353,0.697-0.464
				s0.575-0.166,0.905-0.166c0.306,0,0.586,0.062,0.841,0.189c0.255,0.125,0.479,0.303,0.67,0.53h0.018v-3.204h0.702v6.805h-0.702
				V181.553z M576.359,180.194c0-0.222-0.035-0.428-0.104-0.616c-0.069-0.189-0.169-0.354-0.301-0.495
				c-0.132-0.142-0.29-0.253-0.473-0.333c-0.183-0.081-0.389-0.121-0.617-0.121s-0.434,0.04-0.616,0.121
				c-0.183,0.08-0.341,0.191-0.473,0.333c-0.132,0.141-0.232,0.306-0.301,0.495c-0.069,0.188-0.104,0.395-0.104,0.616
				s0.034,0.427,0.104,0.616c0.069,0.189,0.169,0.354,0.301,0.495c0.132,0.142,0.29,0.252,0.473,0.333
				c0.183,0.081,0.388,0.121,0.616,0.121s0.434-0.04,0.617-0.121s0.34-0.191,0.473-0.333c0.132-0.141,0.232-0.306,0.301-0.495
				S576.359,180.416,576.359,180.194z"/>
			<path fill="#00ADEE" d="M580.823,175.496h0.702v3.204h0.018c0.192-0.228,0.416-0.405,0.67-0.53
				c0.255-0.127,0.536-0.189,0.841-0.189c0.33,0,0.631,0.055,0.905,0.166c0.273,0.111,0.505,0.266,0.697,0.464
				s0.342,0.433,0.45,0.702s0.162,0.564,0.162,0.882s-0.054,0.612-0.162,0.882s-0.256,0.504-0.446,0.702
				c-0.189,0.198-0.413,0.353-0.67,0.464c-0.258,0.11-0.534,0.166-0.828,0.166c-0.378,0-0.71-0.082-0.995-0.248
				c-0.285-0.164-0.494-0.367-0.625-0.607h-0.018v0.748h-0.702V175.496z M581.525,180.194c0,0.222,0.034,0.427,0.104,0.616
				c0.069,0.189,0.169,0.354,0.301,0.495c0.132,0.142,0.29,0.252,0.473,0.333s0.389,0.121,0.617,0.121
				c0.228,0,0.433-0.04,0.616-0.121s0.34-0.191,0.473-0.333c0.132-0.141,0.232-0.306,0.301-0.495
				c0.069-0.189,0.104-0.395,0.104-0.616s-0.034-0.428-0.104-0.616c-0.069-0.189-0.169-0.354-0.301-0.495
				c-0.132-0.142-0.29-0.253-0.473-0.333c-0.183-0.081-0.389-0.121-0.616-0.121c-0.228,0-0.434,0.04-0.617,0.121
				c-0.183,0.08-0.34,0.191-0.473,0.333c-0.132,0.141-0.232,0.306-0.301,0.495C581.56,179.767,581.525,179.973,581.525,180.194z"/>
			<path fill="#00ADEE" d="M587.906,183.264c-0.072,0.18-0.146,0.344-0.22,0.49c-0.075,0.146-0.165,0.273-0.27,0.378
				s-0.231,0.187-0.378,0.243c-0.147,0.057-0.326,0.086-0.536,0.086c-0.102,0-0.208-0.007-0.319-0.019
				c-0.111-0.013-0.215-0.042-0.311-0.091l0.09-0.611c0.072,0.029,0.147,0.049,0.225,0.059c0.078,0.009,0.168,0.014,0.27,0.014
				c0.228,0,0.396-0.062,0.504-0.189c0.108-0.126,0.201-0.294,0.279-0.504l0.288-0.792l-1.746-4.239h0.819l1.305,3.303h0.018
				l1.251-3.303h0.765L587.906,183.264z"/>
		</g>
	</g>
	<g>
		<g>
			<path fill="#00ADEE" d="M542.214,303.264c-0.072,0.18-0.146,0.344-0.22,0.49c-0.075,0.146-0.165,0.273-0.27,0.378
				s-0.231,0.187-0.378,0.243c-0.147,0.057-0.326,0.086-0.536,0.086c-0.102,0-0.208-0.007-0.319-0.019
				c-0.111-0.013-0.215-0.042-0.311-0.091l0.09-0.611c0.072,0.029,0.147,0.049,0.225,0.059c0.078,0.009,0.168,0.014,0.27,0.014
				c0.228,0,0.396-0.062,0.504-0.189c0.108-0.126,0.201-0.294,0.279-0.504l0.288-0.792l-1.746-4.239h0.819l1.305,3.303h0.018
				l1.251-3.303h0.765L542.214,303.264z"/>
			<path fill="#00ADEE" d="M544.905,296.441c0-0.139,0.05-0.258,0.148-0.36c0.099-0.102,0.221-0.153,0.365-0.153
				s0.266,0.052,0.364,0.153c0.099,0.103,0.148,0.222,0.148,0.36c0,0.15-0.048,0.273-0.144,0.369
				c-0.096,0.096-0.219,0.144-0.369,0.144s-0.273-0.048-0.369-0.144S544.905,296.592,544.905,296.441z M545.067,298.088h0.702v4.213
				h-0.702V298.088z"/>
			<path fill="#00ADEE" d="M550.926,301.535c-0.252,0.324-0.528,0.551-0.828,0.68c-0.3,0.129-0.648,0.193-1.044,0.193
				c-0.33,0-0.627-0.059-0.891-0.176c-0.264-0.117-0.488-0.273-0.67-0.473c-0.183-0.197-0.324-0.432-0.423-0.701
				c-0.099-0.271-0.148-0.559-0.148-0.864c0-0.324,0.054-0.622,0.162-0.896s0.258-0.507,0.45-0.702
				c0.192-0.194,0.42-0.347,0.684-0.454c0.264-0.108,0.552-0.162,0.864-0.162c0.294,0,0.564,0.049,0.81,0.148
				s0.458,0.242,0.634,0.432c0.177,0.189,0.313,0.42,0.41,0.693c0.096,0.273,0.144,0.584,0.144,0.932v0.225h-3.402
				c0.012,0.18,0.055,0.353,0.13,0.518c0.075,0.165,0.172,0.309,0.292,0.432s0.261,0.221,0.423,0.293s0.339,0.107,0.531,0.107
				c0.306,0,0.564-0.054,0.774-0.162c0.21-0.107,0.399-0.266,0.567-0.477L550.926,301.535z M550.323,299.816
				c-0.012-0.36-0.129-0.648-0.351-0.864c-0.222-0.216-0.528-0.323-0.918-0.323c-0.39,0-0.705,0.107-0.945,0.323
				c-0.24,0.216-0.384,0.504-0.432,0.864H550.323z"/>
			<path fill="#00ADEE" d="M552.231,295.496h0.702v6.805h-0.702V295.496z"/>
			<path fill="#00ADEE" d="M557.829,301.553h-0.018c-0.132,0.24-0.34,0.443-0.625,0.607c-0.285,0.166-0.616,0.248-0.995,0.248
				c-0.294,0-0.57-0.056-0.828-0.166c-0.258-0.111-0.481-0.266-0.671-0.464c-0.189-0.198-0.337-0.433-0.445-0.702
				s-0.162-0.564-0.162-0.882s0.054-0.612,0.162-0.882s0.258-0.504,0.45-0.702c0.192-0.198,0.424-0.353,0.697-0.464
				s0.575-0.166,0.905-0.166c0.306,0,0.586,0.062,0.841,0.189c0.255,0.125,0.479,0.303,0.67,0.53h0.018v-3.204h0.702v6.805h-0.702
				V301.553z M557.829,300.194c0-0.222-0.035-0.428-0.104-0.616c-0.069-0.189-0.169-0.354-0.301-0.495
				c-0.132-0.142-0.29-0.253-0.473-0.333c-0.183-0.081-0.389-0.121-0.617-0.121s-0.434,0.04-0.616,0.121
				c-0.183,0.08-0.341,0.191-0.473,0.333c-0.132,0.141-0.232,0.306-0.301,0.495c-0.069,0.188-0.104,0.395-0.104,0.616
				s0.034,0.427,0.104,0.616c0.069,0.189,0.169,0.354,0.301,0.495c0.132,0.142,0.29,0.252,0.473,0.333
				c0.183,0.081,0.388,0.121,0.616,0.121s0.434-0.04,0.617-0.121s0.34-0.191,0.473-0.333c0.132-0.141,0.232-0.306,0.301-0.495
				S557.829,300.416,557.829,300.194z"/>
		</g>
	</g>
	
		<use xlink:href="#Sensor"  width="48" height="48" id="XMLID_78_" x="-24" y="-24" transform="matrix(1 0 0 -1 528 228.001)" overflow="visible"/>
	
		<use xlink:href="#Image"  width="48" height="48" id="XMLID_77_" x="-24" y="-24" transform="matrix(1 0 0 -1 528 348.001)" overflow="visible"/>
	<use xlink:href="#Globe"  width="48" height="48" x="-24" y="-24" transform="matrix(1 0 0 -1 528 108.001)" overflow="visible"/>
	<g>
		<g>
			<path fill="#231F20" d="M515.306,261.485c-0.114-0.144-0.269-0.251-0.463-0.319c-0.195-0.069-0.379-0.104-0.554-0.104
				c-0.102,0-0.207,0.012-0.315,0.035c-0.108,0.025-0.21,0.062-0.306,0.113c-0.096,0.051-0.174,0.118-0.234,0.202
				c-0.06,0.085-0.09,0.187-0.09,0.306c0,0.193,0.072,0.34,0.216,0.441c0.144,0.102,0.326,0.189,0.545,0.262
				c0.219,0.071,0.454,0.144,0.707,0.215c0.252,0.072,0.487,0.175,0.706,0.307c0.219,0.132,0.401,0.309,0.545,0.531
				c0.144,0.222,0.216,0.519,0.216,0.891c0,0.354-0.066,0.663-0.198,0.928c-0.132,0.264-0.31,0.482-0.535,0.656
				s-0.486,0.303-0.783,0.387s-0.61,0.127-0.94,0.127c-0.414,0-0.798-0.063-1.152-0.189s-0.684-0.33-0.99-0.612l0.999-1.098
				c0.144,0.192,0.326,0.341,0.544,0.445c0.219,0.104,0.446,0.157,0.68,0.157c0.114,0,0.229-0.014,0.347-0.04
				c0.117-0.027,0.222-0.067,0.315-0.122c0.093-0.054,0.168-0.123,0.225-0.207c0.057-0.084,0.086-0.183,0.086-0.297
				c0-0.191-0.074-0.344-0.221-0.454s-0.332-0.206-0.554-0.284c-0.222-0.077-0.462-0.155-0.72-0.233
				c-0.258-0.078-0.498-0.183-0.72-0.315c-0.222-0.131-0.406-0.306-0.553-0.521c-0.147-0.217-0.221-0.501-0.221-0.855
				c0-0.342,0.067-0.642,0.203-0.899c0.135-0.259,0.315-0.474,0.54-0.648c0.225-0.174,0.484-0.304,0.778-0.392
				c0.294-0.086,0.597-0.131,0.909-0.131c0.36,0,0.708,0.052,1.044,0.154c0.336,0.102,0.639,0.272,0.909,0.512L515.306,261.485z"/>
			<path fill="#231F20" d="M521.291,265.545c-0.216,0.275-0.489,0.488-0.819,0.639c-0.33,0.149-0.672,0.225-1.026,0.225
				c-0.336,0-0.652-0.054-0.95-0.162c-0.297-0.107-0.555-0.262-0.774-0.463c-0.219-0.201-0.391-0.443-0.518-0.725
				c-0.126-0.282-0.189-0.598-0.189-0.945s0.063-0.663,0.189-0.945c0.126-0.281,0.299-0.523,0.518-0.725
				c0.219-0.201,0.477-0.355,0.774-0.463c0.297-0.108,0.614-0.162,0.95-0.162c0.312,0,0.595,0.054,0.851,0.162
				c0.255,0.107,0.471,0.262,0.648,0.463c0.177,0.201,0.313,0.443,0.41,0.725c0.096,0.282,0.144,0.598,0.144,0.945v0.423h-3.132
				c0.054,0.259,0.171,0.464,0.351,0.616c0.18,0.153,0.402,0.23,0.666,0.23c0.222,0,0.41-0.05,0.562-0.148
				c0.153-0.1,0.287-0.227,0.4-0.383L521.291,265.545z M520.148,263.618c0.006-0.228-0.069-0.423-0.225-0.585
				c-0.156-0.162-0.357-0.242-0.603-0.242c-0.15,0-0.282,0.023-0.396,0.071c-0.114,0.048-0.211,0.109-0.292,0.185
				s-0.144,0.162-0.189,0.261s-0.071,0.202-0.077,0.311H520.148z"/>
			<path fill="#231F20" d="M522.317,261.926h1.296v0.595h0.018c0.042-0.084,0.102-0.168,0.18-0.253
				c0.078-0.083,0.171-0.158,0.279-0.225c0.108-0.065,0.231-0.119,0.369-0.162c0.138-0.041,0.288-0.062,0.45-0.062
				c0.342,0,0.618,0.053,0.828,0.157c0.21,0.105,0.374,0.251,0.491,0.437c0.117,0.186,0.196,0.405,0.238,0.657
				s0.063,0.524,0.063,0.819v2.412h-1.35v-2.143c0-0.126-0.004-0.256-0.013-0.392c-0.009-0.135-0.036-0.259-0.081-0.374
				c-0.045-0.113-0.114-0.206-0.207-0.278c-0.093-0.071-0.227-0.108-0.4-0.108c-0.174,0-0.315,0.031-0.423,0.095
				s-0.19,0.147-0.248,0.253c-0.057,0.104-0.094,0.223-0.112,0.355c-0.018,0.131-0.027,0.27-0.027,0.413v2.179h-1.35V261.926z"/>
			<path fill="#231F20" d="M529.958,263.213c-0.198-0.246-0.459-0.369-0.783-0.369c-0.114,0-0.225,0.027-0.333,0.082
				c-0.108,0.054-0.162,0.146-0.162,0.278c0,0.108,0.056,0.188,0.167,0.239c0.111,0.051,0.252,0.096,0.423,0.135
				c0.171,0.039,0.354,0.08,0.549,0.125c0.195,0.046,0.378,0.116,0.549,0.213c0.171,0.096,0.312,0.226,0.423,0.391
				c0.111,0.165,0.167,0.386,0.167,0.662c0,0.281-0.062,0.514-0.185,0.697s-0.281,0.33-0.473,0.441
				c-0.192,0.11-0.408,0.188-0.648,0.233c-0.24,0.045-0.477,0.067-0.711,0.067c-0.306,0-0.615-0.043-0.927-0.131
				c-0.312-0.086-0.576-0.241-0.792-0.463l0.819-0.909c0.126,0.156,0.265,0.274,0.418,0.355c0.153,0.081,0.332,0.122,0.535,0.122
				c0.156,0,0.297-0.023,0.423-0.068s0.189-0.127,0.189-0.247c0-0.114-0.056-0.2-0.167-0.257c-0.111-0.057-0.252-0.104-0.423-0.144
				c-0.171-0.039-0.354-0.081-0.549-0.126s-0.378-0.113-0.549-0.203s-0.312-0.217-0.423-0.383c-0.111-0.164-0.167-0.385-0.167-0.66
				c0-0.258,0.052-0.48,0.157-0.666c0.105-0.187,0.243-0.34,0.414-0.459c0.171-0.121,0.368-0.209,0.589-0.266
				c0.222-0.058,0.447-0.086,0.675-0.086c0.288,0,0.579,0.042,0.873,0.126c0.294,0.084,0.543,0.233,0.747,0.45L529.958,263.213z"/>
			<path fill="#231F20" d="M531.488,264.113c0-0.348,0.063-0.663,0.189-0.945c0.126-0.281,0.298-0.523,0.518-0.725
				c0.219-0.201,0.477-0.355,0.774-0.463c0.297-0.108,0.613-0.162,0.95-0.162c0.336,0,0.652,0.054,0.949,0.162
				c0.297,0.107,0.555,0.262,0.774,0.463c0.219,0.201,0.392,0.443,0.518,0.725c0.126,0.282,0.189,0.598,0.189,0.945
				s-0.063,0.663-0.189,0.945c-0.126,0.281-0.298,0.523-0.518,0.725c-0.219,0.201-0.477,0.355-0.774,0.463
				c-0.297,0.108-0.613,0.162-0.949,0.162c-0.336,0-0.653-0.054-0.95-0.162c-0.297-0.107-0.555-0.262-0.774-0.463
				c-0.219-0.201-0.392-0.443-0.518-0.725C531.551,264.776,531.488,264.461,531.488,264.113z M532.838,264.113
				c0,0.33,0.094,0.598,0.284,0.801c0.189,0.204,0.454,0.307,0.796,0.307c0.342,0,0.607-0.103,0.796-0.307
				c0.189-0.203,0.284-0.471,0.284-0.801s-0.095-0.598-0.284-0.801c-0.189-0.204-0.455-0.307-0.796-0.307
				c-0.342,0-0.607,0.103-0.796,0.307C532.932,263.516,532.838,263.783,532.838,264.113z"/>
			<path fill="#231F20" d="M537.14,261.926h1.35v0.703h0.018c0.144-0.271,0.315-0.473,0.513-0.607
				c0.198-0.136,0.447-0.203,0.747-0.203c0.078,0,0.156,0.003,0.234,0.009c0.078,0.007,0.15,0.019,0.216,0.036v1.232
				c-0.096-0.029-0.191-0.052-0.284-0.066c-0.093-0.016-0.19-0.023-0.292-0.023c-0.258,0-0.462,0.037-0.612,0.108
				c-0.15,0.072-0.266,0.173-0.347,0.302s-0.134,0.283-0.158,0.463s-0.036,0.379-0.036,0.594v1.828h-1.35V261.926z"/>
			<path fill="#231F20" d="M543.278,263.213c-0.198-0.246-0.459-0.369-0.783-0.369c-0.114,0-0.225,0.027-0.333,0.082
				c-0.108,0.054-0.162,0.146-0.162,0.278c0,0.108,0.056,0.188,0.167,0.239c0.111,0.051,0.252,0.096,0.423,0.135
				c0.171,0.039,0.354,0.08,0.549,0.125c0.195,0.046,0.378,0.116,0.549,0.213c0.171,0.096,0.312,0.226,0.423,0.391
				c0.111,0.165,0.167,0.386,0.167,0.662c0,0.281-0.062,0.514-0.185,0.697s-0.281,0.33-0.473,0.441
				c-0.192,0.11-0.408,0.188-0.648,0.233c-0.24,0.045-0.477,0.067-0.711,0.067c-0.306,0-0.615-0.043-0.927-0.131
				c-0.312-0.086-0.576-0.241-0.792-0.463l0.819-0.909c0.126,0.156,0.265,0.274,0.418,0.355c0.153,0.081,0.332,0.122,0.535,0.122
				c0.156,0,0.297-0.023,0.423-0.068s0.189-0.127,0.189-0.247c0-0.114-0.056-0.2-0.167-0.257c-0.111-0.057-0.252-0.104-0.423-0.144
				c-0.171-0.039-0.354-0.081-0.549-0.126s-0.378-0.113-0.549-0.203s-0.312-0.217-0.423-0.383c-0.111-0.164-0.167-0.385-0.167-0.66
				c0-0.258,0.052-0.48,0.157-0.666c0.105-0.187,0.243-0.34,0.414-0.459c0.171-0.121,0.368-0.209,0.589-0.266
				c0.222-0.058,0.447-0.086,0.675-0.086c0.288,0,0.579,0.042,0.873,0.126c0.294,0.084,0.543,0.233,0.747,0.45L543.278,263.213z"/>
		</g>
	</g>
	<g>
		<g>
			<path fill="#231F20" d="M497.986,383.114c0-0.51,0.085-0.972,0.256-1.386s0.41-0.767,0.715-1.058
				c0.306-0.291,0.669-0.515,1.089-0.671c0.42-0.156,0.879-0.234,1.377-0.234s0.957,0.078,1.377,0.234s0.783,0.38,1.089,0.671
				s0.544,0.644,0.715,1.058c0.171,0.414,0.257,0.876,0.257,1.386c0,0.511-0.085,0.972-0.257,1.386
				c-0.171,0.414-0.409,0.767-0.715,1.058c-0.306,0.292-0.669,0.515-1.089,0.671s-0.879,0.234-1.377,0.234s-0.957-0.078-1.377-0.234
				c-0.42-0.156-0.783-0.379-1.089-0.671c-0.306-0.291-0.544-0.644-0.715-1.058S497.986,383.625,497.986,383.114z M499.444,383.114
				c0,0.3,0.046,0.575,0.139,0.823c0.093,0.25,0.227,0.465,0.401,0.648c0.174,0.184,0.382,0.325,0.625,0.428
				c0.243,0.102,0.514,0.152,0.814,0.152c0.3,0,0.571-0.051,0.814-0.152c0.243-0.103,0.451-0.244,0.625-0.428
				c0.174-0.184,0.307-0.398,0.4-0.648c0.093-0.248,0.14-0.523,0.14-0.823c0-0.294-0.047-0.567-0.14-0.819
				c-0.093-0.252-0.227-0.469-0.4-0.652c-0.174-0.183-0.383-0.325-0.625-0.428c-0.243-0.102-0.515-0.152-0.814-0.152
				c-0.3,0-0.572,0.051-0.814,0.152c-0.243,0.103-0.452,0.245-0.625,0.428c-0.174,0.184-0.308,0.4-0.401,0.652
				C499.49,382.547,499.444,382.82,499.444,383.114z"/>
			<path fill="#231F20" d="M505.771,379.496h1.35v2.898h0.018c0.156-0.21,0.355-0.359,0.598-0.445
				c0.243-0.088,0.505-0.131,0.788-0.131c0.312,0,0.591,0.064,0.837,0.193s0.455,0.302,0.625,0.518
				c0.171,0.216,0.303,0.463,0.396,0.742c0.093,0.279,0.14,0.572,0.14,0.878c0,0.33-0.051,0.633-0.153,0.909
				c-0.102,0.275-0.248,0.514-0.437,0.715s-0.416,0.357-0.68,0.469c-0.264,0.11-0.558,0.166-0.882,0.166
				c-0.156,0-0.303-0.021-0.441-0.062c-0.138-0.043-0.266-0.096-0.383-0.162c-0.117-0.066-0.219-0.14-0.306-0.221
				c-0.087-0.081-0.158-0.16-0.212-0.238h-0.018v0.576h-1.242V379.496z M507.013,384.113c0,0.33,0.094,0.598,0.283,0.801
				c0.189,0.204,0.455,0.307,0.796,0.307c0.342,0,0.608-0.103,0.797-0.307c0.189-0.203,0.283-0.471,0.283-0.801
				s-0.094-0.598-0.283-0.801c-0.189-0.204-0.455-0.307-0.797-0.307c-0.342,0-0.607,0.103-0.796,0.307
				C507.107,383.516,507.013,383.783,507.013,384.113z"/>
			<path fill="#231F20" d="M513.79,383.213c-0.198-0.246-0.459-0.369-0.783-0.369c-0.114,0-0.225,0.027-0.333,0.082
				c-0.108,0.054-0.162,0.146-0.162,0.278c0,0.108,0.056,0.188,0.167,0.239c0.111,0.051,0.252,0.096,0.423,0.135
				c0.171,0.039,0.354,0.08,0.549,0.125c0.195,0.046,0.378,0.116,0.549,0.213c0.171,0.096,0.312,0.226,0.423,0.391
				c0.111,0.165,0.167,0.386,0.167,0.662c0,0.281-0.062,0.514-0.185,0.697s-0.281,0.33-0.473,0.441
				c-0.192,0.11-0.408,0.188-0.648,0.233c-0.24,0.045-0.477,0.067-0.711,0.067c-0.306,0-0.615-0.043-0.927-0.131
				c-0.312-0.086-0.576-0.241-0.792-0.463l0.819-0.909c0.126,0.156,0.265,0.274,0.418,0.355c0.153,0.081,0.332,0.122,0.535,0.122
				c0.156,0,0.297-0.023,0.423-0.068s0.189-0.127,0.189-0.247c0-0.114-0.056-0.2-0.167-0.257c-0.111-0.057-0.252-0.104-0.423-0.144
				c-0.171-0.039-0.354-0.081-0.549-0.126s-0.378-0.113-0.549-0.203s-0.312-0.217-0.423-0.383c-0.111-0.164-0.167-0.385-0.167-0.66
				c0-0.258,0.052-0.48,0.157-0.666c0.105-0.187,0.243-0.34,0.414-0.459c0.171-0.121,0.368-0.209,0.589-0.266
				c0.222-0.058,0.447-0.086,0.675-0.086c0.288,0,0.579,0.042,0.873,0.126c0.294,0.084,0.543,0.233,0.747,0.45L513.79,383.213z"/>
			<path fill="#231F20" d="M519.622,385.545c-0.216,0.275-0.489,0.488-0.819,0.639c-0.33,0.149-0.672,0.225-1.026,0.225
				c-0.336,0-0.652-0.054-0.95-0.162c-0.297-0.107-0.555-0.262-0.774-0.463c-0.219-0.201-0.391-0.443-0.518-0.725
				c-0.126-0.282-0.189-0.598-0.189-0.945s0.063-0.663,0.189-0.945c0.126-0.281,0.299-0.523,0.518-0.725
				c0.219-0.201,0.477-0.355,0.774-0.463c0.297-0.108,0.614-0.162,0.95-0.162c0.312,0,0.595,0.054,0.851,0.162
				c0.255,0.107,0.471,0.262,0.648,0.463c0.177,0.201,0.313,0.443,0.41,0.725c0.096,0.282,0.144,0.598,0.144,0.945v0.423h-3.132
				c0.054,0.259,0.171,0.464,0.351,0.616c0.18,0.153,0.402,0.23,0.666,0.23c0.222,0,0.41-0.05,0.562-0.148
				c0.153-0.1,0.287-0.227,0.4-0.383L519.622,385.545z M518.479,383.618c0.006-0.228-0.069-0.423-0.225-0.585
				c-0.156-0.162-0.357-0.242-0.603-0.242c-0.15,0-0.282,0.023-0.396,0.071c-0.114,0.048-0.211,0.109-0.292,0.185
				s-0.144,0.162-0.189,0.261s-0.071,0.202-0.077,0.311H518.479z"/>
			<path fill="#231F20" d="M520.647,381.926h1.35v0.703h0.018c0.144-0.271,0.315-0.473,0.513-0.607
				c0.198-0.136,0.447-0.203,0.747-0.203c0.078,0,0.156,0.003,0.234,0.009c0.078,0.007,0.15,0.019,0.216,0.036v1.232
				c-0.096-0.029-0.191-0.052-0.284-0.066c-0.093-0.016-0.19-0.023-0.292-0.023c-0.258,0-0.462,0.037-0.612,0.108
				c-0.15,0.072-0.266,0.173-0.347,0.302s-0.134,0.283-0.158,0.463s-0.036,0.379-0.036,0.594v1.828h-1.35V381.926z"/>
			<path fill="#231F20" d="M523.852,381.926h1.458l1.107,2.971h0.018l1.026-2.971h1.359l-1.728,4.375h-1.431L523.852,381.926z"/>
			<path fill="#231F20" d="M532.06,385.752h-0.018c-0.15,0.233-0.35,0.401-0.599,0.504c-0.249,0.102-0.512,0.152-0.788,0.152
				c-0.204,0-0.4-0.028-0.589-0.086c-0.189-0.057-0.355-0.143-0.5-0.256c-0.144-0.114-0.258-0.255-0.342-0.424
				c-0.084-0.167-0.126-0.362-0.126-0.584c0-0.252,0.046-0.465,0.139-0.639c0.093-0.175,0.219-0.318,0.378-0.433
				c0.159-0.114,0.341-0.202,0.545-0.266c0.204-0.063,0.415-0.109,0.634-0.14c0.219-0.029,0.438-0.048,0.657-0.054
				c0.219-0.006,0.422-0.009,0.608-0.009c0-0.24-0.085-0.431-0.257-0.572c-0.171-0.141-0.374-0.211-0.607-0.211
				c-0.222,0-0.424,0.047-0.607,0.14s-0.347,0.22-0.491,0.382l-0.72-0.737c0.252-0.234,0.546-0.409,0.882-0.526
				s0.684-0.176,1.044-0.176c0.396,0,0.722,0.049,0.977,0.148s0.459,0.244,0.612,0.437c0.153,0.192,0.259,0.427,0.319,0.706
				s0.09,0.602,0.09,0.968v2.224h-1.242V385.752z M531.727,384.383c-0.102,0-0.229,0.005-0.383,0.014
				c-0.153,0.01-0.3,0.035-0.441,0.076c-0.141,0.043-0.261,0.105-0.36,0.189s-0.148,0.201-0.148,0.352
				c0,0.162,0.069,0.281,0.207,0.359c0.138,0.078,0.282,0.117,0.432,0.117c0.132,0,0.26-0.018,0.383-0.054
				c0.123-0.036,0.232-0.087,0.329-0.153c0.096-0.066,0.172-0.15,0.229-0.252c0.057-0.102,0.085-0.222,0.085-0.359v-0.289H531.727z"
				/>
			<path fill="#231F20" d="M537.126,383.006h-1.188v1.459c0,0.119,0.006,0.229,0.018,0.328c0.012,0.099,0.039,0.184,0.081,0.256
				c0.042,0.072,0.106,0.128,0.193,0.167s0.203,0.059,0.347,0.059c0.072,0,0.167-0.008,0.283-0.022
				c0.117-0.016,0.206-0.05,0.266-0.104v1.125c-0.15,0.054-0.306,0.09-0.468,0.107c-0.162,0.019-0.321,0.027-0.477,0.027
				c-0.229,0-0.438-0.023-0.63-0.072c-0.192-0.047-0.36-0.124-0.504-0.229c-0.144-0.105-0.256-0.242-0.337-0.41
				s-0.122-0.372-0.122-0.611v-2.08h-0.864v-1.08h0.864v-1.295h1.35v1.295h1.188V383.006z"/>
			<path fill="#231F20" d="M537.721,380.549c0-0.215,0.076-0.4,0.229-0.553c0.153-0.153,0.337-0.23,0.553-0.23
				c0.216,0,0.4,0.077,0.554,0.23c0.153,0.152,0.229,0.338,0.229,0.553c0,0.217-0.077,0.4-0.229,0.555
				c-0.153,0.152-0.337,0.229-0.554,0.229c-0.216,0-0.4-0.076-0.553-0.229C537.797,380.949,537.721,380.766,537.721,380.549z
				 M537.829,381.926h1.35v4.375h-1.35V381.926z"/>
			<path fill="#231F20" d="M539.988,384.113c0-0.348,0.063-0.663,0.189-0.945c0.126-0.281,0.298-0.523,0.518-0.725
				c0.219-0.201,0.477-0.355,0.774-0.463c0.297-0.108,0.613-0.162,0.95-0.162c0.336,0,0.652,0.054,0.949,0.162
				c0.297,0.107,0.555,0.262,0.774,0.463c0.219,0.201,0.392,0.443,0.518,0.725c0.126,0.282,0.189,0.598,0.189,0.945
				s-0.063,0.663-0.189,0.945c-0.126,0.281-0.298,0.523-0.518,0.725c-0.219,0.201-0.477,0.355-0.774,0.463
				c-0.297,0.108-0.613,0.162-0.949,0.162c-0.336,0-0.653-0.054-0.95-0.162c-0.297-0.107-0.555-0.262-0.774-0.463
				c-0.219-0.201-0.392-0.443-0.518-0.725C540.051,384.776,539.988,384.461,539.988,384.113z M541.338,384.113
				c0,0.33,0.094,0.598,0.284,0.801c0.189,0.204,0.454,0.307,0.796,0.307c0.342,0,0.607-0.103,0.796-0.307
				c0.189-0.203,0.284-0.471,0.284-0.801s-0.095-0.598-0.284-0.801c-0.189-0.204-0.455-0.307-0.796-0.307
				c-0.342,0-0.607,0.103-0.796,0.307C541.433,383.516,541.338,383.783,541.338,384.113z"/>
			<path fill="#231F20" d="M545.64,381.926h1.296v0.595h0.018c0.042-0.084,0.102-0.168,0.18-0.253
				c0.078-0.083,0.171-0.158,0.279-0.225c0.108-0.065,0.231-0.119,0.369-0.162c0.138-0.041,0.288-0.062,0.45-0.062
				c0.342,0,0.618,0.053,0.828,0.157c0.21,0.105,0.374,0.251,0.491,0.437c0.117,0.186,0.196,0.405,0.238,0.657
				s0.063,0.524,0.063,0.819v2.412h-1.35v-2.143c0-0.126-0.004-0.256-0.013-0.392c-0.009-0.135-0.036-0.259-0.081-0.374
				c-0.045-0.113-0.114-0.206-0.207-0.278c-0.093-0.071-0.227-0.108-0.4-0.108c-0.174,0-0.315,0.031-0.423,0.095
				s-0.19,0.147-0.248,0.253c-0.057,0.104-0.094,0.223-0.112,0.355c-0.018,0.131-0.027,0.27-0.027,0.413v2.179h-1.35V381.926z"/>
			<path fill="#231F20" d="M553.434,384.869l2.475-2.223c0.126-0.114,0.252-0.243,0.378-0.387c0.126-0.145,0.189-0.312,0.189-0.504
				c0-0.217-0.078-0.387-0.234-0.51c-0.156-0.122-0.339-0.184-0.549-0.184c-0.252,0-0.449,0.078-0.59,0.234
				c-0.141,0.155-0.22,0.348-0.238,0.575l-1.35-0.099c0.018-0.33,0.087-0.617,0.207-0.859c0.12-0.243,0.279-0.445,0.477-0.607
				c0.198-0.162,0.43-0.283,0.697-0.365c0.267-0.08,0.557-0.121,0.869-0.121c0.288,0,0.558,0.041,0.81,0.121
				c0.252,0.082,0.471,0.201,0.657,0.36s0.332,0.358,0.437,0.599s0.158,0.52,0.158,0.837c0,0.204-0.021,0.389-0.063,0.554
				s-0.101,0.314-0.175,0.449c-0.075,0.136-0.164,0.26-0.266,0.374s-0.213,0.226-0.333,0.333l-1.935,1.665h2.826v1.188h-4.446
				V384.869z"/>
		</g>
	</g>
	
		<use xlink:href="#Image"  width="48" height="48" id="XMLID_76_" x="-24" y="-24" transform="matrix(1 0 0 -1 383.999 348.001)" overflow="visible"/>
	<g>
		<g>
			<path fill="#231F20" d="M353.984,383.114c0-0.51,0.085-0.972,0.256-1.386s0.41-0.767,0.715-1.058
				c0.306-0.291,0.669-0.515,1.089-0.671c0.42-0.156,0.879-0.234,1.377-0.234s0.957,0.078,1.377,0.234s0.783,0.38,1.089,0.671
				s0.544,0.644,0.715,1.058c0.171,0.414,0.257,0.876,0.257,1.386c0,0.511-0.085,0.972-0.257,1.386
				c-0.171,0.414-0.409,0.767-0.715,1.058c-0.306,0.292-0.669,0.515-1.089,0.671s-0.879,0.234-1.377,0.234s-0.957-0.078-1.377-0.234
				c-0.42-0.156-0.783-0.379-1.089-0.671c-0.306-0.291-0.544-0.644-0.715-1.058S353.984,383.625,353.984,383.114z M355.442,383.114
				c0,0.3,0.046,0.575,0.139,0.823c0.093,0.25,0.227,0.465,0.401,0.648c0.174,0.184,0.382,0.325,0.625,0.428
				c0.243,0.102,0.514,0.152,0.814,0.152c0.3,0,0.571-0.051,0.814-0.152c0.243-0.103,0.451-0.244,0.625-0.428
				c0.174-0.184,0.307-0.398,0.4-0.648c0.093-0.248,0.14-0.523,0.14-0.823c0-0.294-0.047-0.567-0.14-0.819
				c-0.093-0.252-0.227-0.469-0.4-0.652c-0.174-0.183-0.383-0.325-0.625-0.428c-0.243-0.102-0.515-0.152-0.814-0.152
				c-0.3,0-0.572,0.051-0.814,0.152c-0.243,0.103-0.452,0.245-0.625,0.428c-0.174,0.184-0.308,0.4-0.401,0.652
				C355.488,382.547,355.442,382.82,355.442,383.114z"/>
			<path fill="#231F20" d="M361.769,379.496h1.35v2.898h0.018c0.156-0.21,0.355-0.359,0.598-0.445
				c0.243-0.088,0.505-0.131,0.788-0.131c0.312,0,0.591,0.064,0.837,0.193s0.455,0.302,0.625,0.518
				c0.171,0.216,0.303,0.463,0.396,0.742c0.093,0.279,0.14,0.572,0.14,0.878c0,0.33-0.051,0.633-0.153,0.909
				c-0.102,0.275-0.248,0.514-0.437,0.715s-0.416,0.357-0.68,0.469c-0.264,0.11-0.558,0.166-0.882,0.166
				c-0.156,0-0.303-0.021-0.441-0.062c-0.138-0.043-0.266-0.096-0.383-0.162c-0.117-0.066-0.219-0.14-0.306-0.221
				c-0.087-0.081-0.158-0.16-0.212-0.238h-0.018v0.576h-1.242V379.496z M363.011,384.113c0,0.33,0.094,0.598,0.283,0.801
				c0.189,0.204,0.455,0.307,0.796,0.307c0.342,0,0.608-0.103,0.797-0.307c0.189-0.203,0.283-0.471,0.283-0.801
				s-0.094-0.598-0.283-0.801c-0.189-0.204-0.455-0.307-0.797-0.307c-0.342,0-0.607,0.103-0.796,0.307
				C363.105,383.516,363.011,383.783,363.011,384.113z"/>
			<path fill="#231F20" d="M369.788,383.213c-0.198-0.246-0.459-0.369-0.783-0.369c-0.114,0-0.225,0.027-0.333,0.082
				c-0.108,0.054-0.162,0.146-0.162,0.278c0,0.108,0.056,0.188,0.167,0.239c0.111,0.051,0.252,0.096,0.423,0.135
				c0.171,0.039,0.354,0.08,0.549,0.125c0.195,0.046,0.378,0.116,0.549,0.213c0.171,0.096,0.312,0.226,0.423,0.391
				c0.111,0.165,0.167,0.386,0.167,0.662c0,0.281-0.062,0.514-0.185,0.697s-0.281,0.33-0.473,0.441
				c-0.192,0.11-0.408,0.188-0.648,0.233c-0.24,0.045-0.477,0.067-0.711,0.067c-0.306,0-0.615-0.043-0.927-0.131
				c-0.312-0.086-0.576-0.241-0.792-0.463l0.819-0.909c0.126,0.156,0.265,0.274,0.418,0.355c0.153,0.081,0.332,0.122,0.535,0.122
				c0.156,0,0.297-0.023,0.423-0.068s0.189-0.127,0.189-0.247c0-0.114-0.056-0.2-0.167-0.257c-0.111-0.057-0.252-0.104-0.423-0.144
				c-0.171-0.039-0.354-0.081-0.549-0.126s-0.378-0.113-0.549-0.203s-0.312-0.217-0.423-0.383c-0.111-0.164-0.167-0.385-0.167-0.66
				c0-0.258,0.052-0.48,0.157-0.666c0.105-0.187,0.243-0.34,0.414-0.459c0.171-0.121,0.368-0.209,0.589-0.266
				c0.222-0.058,0.447-0.086,0.675-0.086c0.288,0,0.579,0.042,0.873,0.126c0.294,0.084,0.543,0.233,0.747,0.45L369.788,383.213z"/>
			<path fill="#231F20" d="M375.62,385.545c-0.216,0.275-0.489,0.488-0.819,0.639c-0.33,0.149-0.672,0.225-1.026,0.225
				c-0.336,0-0.652-0.054-0.95-0.162c-0.297-0.107-0.555-0.262-0.774-0.463c-0.219-0.201-0.391-0.443-0.518-0.725
				c-0.126-0.282-0.189-0.598-0.189-0.945s0.063-0.663,0.189-0.945c0.126-0.281,0.299-0.523,0.518-0.725
				c0.219-0.201,0.477-0.355,0.774-0.463c0.297-0.108,0.614-0.162,0.95-0.162c0.312,0,0.595,0.054,0.851,0.162
				c0.255,0.107,0.471,0.262,0.648,0.463c0.177,0.201,0.313,0.443,0.41,0.725c0.096,0.282,0.144,0.598,0.144,0.945v0.423h-3.132
				c0.054,0.259,0.171,0.464,0.351,0.616c0.18,0.153,0.402,0.23,0.666,0.23c0.222,0,0.41-0.05,0.562-0.148
				c0.153-0.1,0.287-0.227,0.4-0.383L375.62,385.545z M374.477,383.618c0.006-0.228-0.069-0.423-0.225-0.585
				c-0.156-0.162-0.357-0.242-0.603-0.242c-0.15,0-0.282,0.023-0.396,0.071c-0.114,0.048-0.211,0.109-0.292,0.185
				s-0.144,0.162-0.189,0.261s-0.071,0.202-0.077,0.311H374.477z"/>
			<path fill="#231F20" d="M376.646,381.926h1.35v0.703h0.018c0.144-0.271,0.315-0.473,0.513-0.607
				c0.198-0.136,0.447-0.203,0.747-0.203c0.078,0,0.156,0.003,0.234,0.009c0.078,0.007,0.15,0.019,0.216,0.036v1.232
				c-0.096-0.029-0.191-0.052-0.284-0.066c-0.093-0.016-0.19-0.023-0.292-0.023c-0.258,0-0.462,0.037-0.612,0.108
				c-0.15,0.072-0.266,0.173-0.347,0.302s-0.134,0.283-0.158,0.463s-0.036,0.379-0.036,0.594v1.828h-1.35V381.926z"/>
			<path fill="#231F20" d="M379.85,381.926h1.458l1.107,2.971h0.018l1.026-2.971h1.359l-1.728,4.375h-1.431L379.85,381.926z"/>
			<path fill="#231F20" d="M388.058,385.752h-0.018c-0.15,0.233-0.35,0.401-0.599,0.504c-0.249,0.102-0.512,0.152-0.788,0.152
				c-0.204,0-0.4-0.028-0.589-0.086c-0.189-0.057-0.355-0.143-0.5-0.256c-0.144-0.114-0.258-0.255-0.342-0.424
				c-0.084-0.167-0.126-0.362-0.126-0.584c0-0.252,0.046-0.465,0.139-0.639c0.093-0.175,0.219-0.318,0.378-0.433
				c0.159-0.114,0.341-0.202,0.545-0.266c0.204-0.063,0.415-0.109,0.634-0.14c0.219-0.029,0.438-0.048,0.657-0.054
				c0.219-0.006,0.422-0.009,0.608-0.009c0-0.24-0.085-0.431-0.257-0.572c-0.171-0.141-0.374-0.211-0.607-0.211
				c-0.222,0-0.424,0.047-0.607,0.14s-0.347,0.22-0.491,0.382l-0.72-0.737c0.252-0.234,0.546-0.409,0.882-0.526
				s0.684-0.176,1.044-0.176c0.396,0,0.722,0.049,0.977,0.148s0.459,0.244,0.612,0.437c0.153,0.192,0.259,0.427,0.319,0.706
				s0.09,0.602,0.09,0.968v2.224h-1.242V385.752z M387.725,384.383c-0.102,0-0.229,0.005-0.383,0.014
				c-0.153,0.01-0.3,0.035-0.441,0.076c-0.141,0.043-0.261,0.105-0.36,0.189s-0.148,0.201-0.148,0.352
				c0,0.162,0.069,0.281,0.207,0.359c0.138,0.078,0.282,0.117,0.432,0.117c0.132,0,0.26-0.018,0.383-0.054
				c0.123-0.036,0.232-0.087,0.329-0.153c0.096-0.066,0.172-0.15,0.229-0.252c0.057-0.102,0.085-0.222,0.085-0.359v-0.289H387.725z"
				/>
			<path fill="#231F20" d="M393.125,383.006h-1.188v1.459c0,0.119,0.006,0.229,0.018,0.328c0.012,0.099,0.039,0.184,0.081,0.256
				c0.042,0.072,0.106,0.128,0.193,0.167s0.203,0.059,0.347,0.059c0.072,0,0.167-0.008,0.283-0.022
				c0.117-0.016,0.206-0.05,0.266-0.104v1.125c-0.15,0.054-0.306,0.09-0.468,0.107c-0.162,0.019-0.321,0.027-0.477,0.027
				c-0.229,0-0.438-0.023-0.63-0.072c-0.192-0.047-0.36-0.124-0.504-0.229c-0.144-0.105-0.256-0.242-0.337-0.41
				s-0.122-0.372-0.122-0.611v-2.08h-0.864v-1.08h0.864v-1.295h1.35v1.295h1.188V383.006z"/>
			<path fill="#231F20" d="M393.719,380.549c0-0.215,0.076-0.4,0.229-0.553c0.153-0.153,0.337-0.23,0.553-0.23
				c0.216,0,0.4,0.077,0.554,0.23c0.153,0.152,0.229,0.338,0.229,0.553c0,0.217-0.077,0.4-0.229,0.555
				c-0.153,0.152-0.337,0.229-0.554,0.229c-0.216,0-0.4-0.076-0.553-0.229C393.795,380.949,393.719,380.766,393.719,380.549z
				 M393.827,381.926h1.35v4.375h-1.35V381.926z"/>
			<path fill="#231F20" d="M395.986,384.113c0-0.348,0.063-0.663,0.189-0.945c0.126-0.281,0.298-0.523,0.518-0.725
				c0.219-0.201,0.477-0.355,0.774-0.463c0.297-0.108,0.613-0.162,0.95-0.162c0.336,0,0.652,0.054,0.949,0.162
				c0.297,0.107,0.555,0.262,0.774,0.463c0.219,0.201,0.392,0.443,0.518,0.725c0.126,0.282,0.189,0.598,0.189,0.945
				s-0.063,0.663-0.189,0.945c-0.126,0.281-0.298,0.523-0.518,0.725c-0.219,0.201-0.477,0.355-0.774,0.463
				c-0.297,0.108-0.613,0.162-0.949,0.162c-0.336,0-0.653-0.054-0.95-0.162c-0.297-0.107-0.555-0.262-0.774-0.463
				c-0.219-0.201-0.392-0.443-0.518-0.725C396.049,384.776,395.986,384.461,395.986,384.113z M397.336,384.113
				c0,0.33,0.094,0.598,0.284,0.801c0.189,0.204,0.454,0.307,0.796,0.307c0.342,0,0.607-0.103,0.796-0.307
				c0.189-0.203,0.284-0.471,0.284-0.801s-0.095-0.598-0.284-0.801c-0.189-0.204-0.455-0.307-0.796-0.307
				c-0.342,0-0.607,0.103-0.796,0.307C397.431,383.516,397.336,383.783,397.336,384.113z"/>
			<path fill="#231F20" d="M401.638,381.926h1.296v0.595h0.018c0.042-0.084,0.102-0.168,0.18-0.253
				c0.078-0.083,0.171-0.158,0.279-0.225c0.108-0.065,0.231-0.119,0.369-0.162c0.138-0.041,0.288-0.062,0.45-0.062
				c0.342,0,0.618,0.053,0.828,0.157c0.21,0.105,0.374,0.251,0.491,0.437c0.117,0.186,0.196,0.405,0.238,0.657
				s0.063,0.524,0.063,0.819v2.412h-1.35v-2.143c0-0.126-0.004-0.256-0.013-0.392c-0.009-0.135-0.036-0.259-0.081-0.374
				c-0.045-0.113-0.114-0.206-0.207-0.278c-0.093-0.071-0.227-0.108-0.4-0.108c-0.174,0-0.315,0.031-0.423,0.095
				s-0.19,0.147-0.248,0.253c-0.057,0.104-0.094,0.223-0.112,0.355c-0.018,0.131-0.027,0.27-0.027,0.413v2.179h-1.35V381.926z"/>
			<path fill="#231F20" d="M411.583,381.44l-1.278,1.125l-0.765-0.882l2.079-1.756h1.26v6.373h-1.296V381.44z"/>
		</g>
	</g>
	<g>
		<g>
			
				<line fill="none" stroke="#00ADEE" stroke-width="2" stroke-linecap="round" stroke-linejoin="round" x1="528" y1="156.001" x2="528" y2="198.743"/>
			<g>
				<polygon fill="#00ADEE" points="534.074,197.929 521.926,197.929 528,204.001 				"/>
			</g>
		</g>
	</g>
	<g>
		<g>
			
				<line fill="none" stroke="#00ADEE" stroke-width="2" stroke-linecap="round" stroke-linejoin="round" x1="528" y1="276.001" x2="528" y2="318.743"/>
			<g>
				<polygon fill="#00ADEE" points="534.074,317.929 521.926,317.929 528,324.001 				"/>
			</g>
		</g>
	</g>
	<g>
		<g>
			<path fill="#231F20" d="M510.986,139.928h1.53l1.017,4.086h0.018l1.332-4.086h1.305l1.323,4.194h0.018l1.071-4.194h1.422
				l-1.863,6.373h-1.251l-1.404-4.41h-0.018l-1.404,4.41h-1.206L510.986,139.928z"/>
			<path fill="#231F20" d="M520.157,144.113c0-0.348,0.063-0.663,0.189-0.945c0.126-0.281,0.298-0.523,0.518-0.725
				c0.219-0.201,0.477-0.355,0.774-0.463c0.297-0.108,0.613-0.162,0.95-0.162c0.336,0,0.652,0.054,0.949,0.162
				c0.297,0.107,0.555,0.262,0.774,0.463c0.219,0.201,0.392,0.443,0.518,0.725c0.126,0.282,0.189,0.598,0.189,0.945
				s-0.063,0.663-0.189,0.945c-0.126,0.281-0.298,0.523-0.518,0.725c-0.219,0.201-0.477,0.355-0.774,0.463
				c-0.297,0.108-0.613,0.162-0.949,0.162c-0.336,0-0.653-0.054-0.95-0.162c-0.297-0.107-0.555-0.262-0.774-0.463
				c-0.219-0.201-0.392-0.443-0.518-0.725C520.22,144.776,520.157,144.461,520.157,144.113z M521.507,144.113
				c0,0.33,0.094,0.598,0.284,0.801c0.189,0.204,0.454,0.307,0.796,0.307c0.342,0,0.607-0.103,0.796-0.307
				c0.189-0.203,0.284-0.471,0.284-0.801s-0.095-0.598-0.284-0.801c-0.189-0.204-0.455-0.307-0.796-0.307
				c-0.342,0-0.607,0.103-0.796,0.307C521.601,143.516,521.507,143.783,521.507,144.113z"/>
			<path fill="#231F20" d="M525.809,141.926h1.35v0.703h0.018c0.144-0.271,0.315-0.473,0.513-0.607
				c0.198-0.136,0.447-0.203,0.747-0.203c0.078,0,0.156,0.003,0.234,0.009c0.078,0.007,0.15,0.019,0.216,0.036v1.232
				c-0.096-0.029-0.191-0.052-0.284-0.066c-0.093-0.016-0.19-0.023-0.292-0.023c-0.258,0-0.462,0.037-0.612,0.108
				c-0.15,0.072-0.266,0.173-0.347,0.302s-0.134,0.283-0.158,0.463s-0.036,0.379-0.036,0.594v1.828h-1.35V141.926z"/>
			<path fill="#231F20" d="M529.49,139.496h1.35v6.805h-1.35V139.496z"/>
			<path fill="#231F20" d="M536.401,146.301h-1.242v-0.576h-0.018c-0.054,0.078-0.125,0.157-0.211,0.238
				c-0.087,0.081-0.189,0.154-0.306,0.221s-0.246,0.119-0.387,0.162c-0.141,0.041-0.287,0.062-0.437,0.062
				c-0.324,0-0.618-0.056-0.882-0.166c-0.264-0.111-0.491-0.268-0.68-0.469s-0.334-0.439-0.437-0.715
				c-0.102-0.276-0.153-0.579-0.153-0.909c0-0.306,0.046-0.599,0.14-0.878c0.093-0.279,0.225-0.526,0.396-0.742
				s0.379-0.389,0.625-0.518s0.525-0.193,0.837-0.193c0.282,0,0.544,0.043,0.788,0.131c0.243,0.086,0.442,0.235,0.599,0.445h0.018
				v-2.898h1.35V146.301z M535.16,144.113c0-0.33-0.095-0.598-0.284-0.801c-0.189-0.204-0.455-0.307-0.796-0.307
				c-0.342,0-0.607,0.103-0.796,0.307c-0.189,0.203-0.284,0.471-0.284,0.801s0.094,0.598,0.284,0.801
				c0.189,0.204,0.454,0.307,0.796,0.307c0.342,0,0.607-0.103,0.796-0.307C535.065,144.711,535.16,144.443,535.16,144.113z"/>
			<path fill="#231F20" d="M540.109,144.869l2.475-2.223c0.126-0.114,0.252-0.243,0.378-0.387c0.126-0.145,0.189-0.312,0.189-0.504
				c0-0.217-0.078-0.387-0.234-0.51c-0.156-0.122-0.339-0.184-0.549-0.184c-0.252,0-0.449,0.078-0.59,0.234
				c-0.141,0.155-0.22,0.348-0.238,0.575l-1.35-0.099c0.018-0.33,0.087-0.617,0.207-0.859c0.12-0.243,0.279-0.445,0.477-0.607
				c0.198-0.162,0.43-0.283,0.697-0.365c0.267-0.08,0.557-0.121,0.869-0.121c0.288,0,0.558,0.041,0.81,0.121
				c0.252,0.082,0.471,0.201,0.657,0.36s0.332,0.358,0.437,0.599s0.158,0.52,0.158,0.837c0,0.204-0.021,0.389-0.063,0.554
				s-0.101,0.314-0.175,0.449c-0.075,0.136-0.164,0.26-0.266,0.374s-0.213,0.226-0.333,0.333l-1.935,1.665h2.826v1.188h-4.446
				V144.869z"/>
		</g>
	</g>
	<g>
		<g>
			<path fill="#231F20" d="M517.785,60.868l2.475-2.223c0.126-0.114,0.252-0.243,0.378-0.388c0.126-0.144,0.189-0.312,0.189-0.504
				c0-0.216-0.078-0.385-0.234-0.508c-0.156-0.123-0.339-0.185-0.549-0.185c-0.252,0-0.449,0.077-0.59,0.233
				s-0.22,0.349-0.238,0.576l-1.35-0.099c0.018-0.33,0.087-0.616,0.207-0.86c0.12-0.242,0.279-0.445,0.477-0.607
				c0.198-0.161,0.43-0.283,0.697-0.363c0.267-0.082,0.557-0.122,0.869-0.122c0.288,0,0.558,0.04,0.81,0.122
				c0.252,0.08,0.471,0.201,0.657,0.359c0.186,0.159,0.332,0.358,0.437,0.599c0.105,0.239,0.158,0.519,0.158,0.837
				c0,0.204-0.021,0.389-0.063,0.554s-0.101,0.315-0.175,0.45c-0.075,0.135-0.164,0.26-0.266,0.373
				c-0.102,0.114-0.213,0.225-0.333,0.333l-1.935,1.665h2.826v1.188h-4.446V60.868z"/>
			<path fill="#231F20" d="M522.969,59.113c0-0.378,0.035-0.762,0.104-1.152c0.069-0.39,0.192-0.744,0.369-1.062
				c0.177-0.317,0.418-0.577,0.725-0.778c0.306-0.201,0.696-0.302,1.17-0.302c0.474,0,0.864,0.101,1.17,0.302
				s0.547,0.461,0.725,0.778c0.177,0.317,0.3,0.672,0.369,1.062c0.069,0.391,0.103,0.774,0.103,1.152s-0.034,0.762-0.103,1.152
				c-0.069,0.39-0.192,0.744-0.369,1.062c-0.177,0.318-0.418,0.577-0.725,0.778s-0.696,0.302-1.17,0.302
				c-0.474,0-0.864-0.101-1.17-0.302c-0.306-0.201-0.548-0.46-0.725-0.778c-0.177-0.317-0.3-0.672-0.369-1.062
				C523.004,59.875,522.969,59.491,522.969,59.113z M524.319,59.113c0,0.168,0.007,0.369,0.022,0.604
				c0.015,0.233,0.056,0.459,0.122,0.674c0.066,0.217,0.167,0.4,0.301,0.55c0.135,0.149,0.326,0.226,0.572,0.226
				c0.24,0,0.429-0.076,0.567-0.226s0.24-0.333,0.306-0.55c0.066-0.215,0.106-0.44,0.122-0.674c0.015-0.234,0.022-0.436,0.022-0.604
				s-0.008-0.369-0.022-0.604c-0.015-0.233-0.056-0.459-0.122-0.674c-0.066-0.217-0.168-0.399-0.306-0.55
				c-0.138-0.149-0.327-0.225-0.567-0.225c-0.246,0-0.437,0.075-0.572,0.225c-0.135,0.15-0.235,0.333-0.301,0.55
				c-0.066,0.215-0.106,0.44-0.122,0.674C524.327,58.744,524.319,58.945,524.319,59.113z"/>
			<path fill="#231F20" d="M530.592,57.439l-1.278,1.125l-0.765-0.883l2.079-1.754h1.26v6.371h-1.296V57.439z"/>
			<path fill="#231F20" d="M536.812,57.17h-3.15v-1.242h4.662v1.188l-2.547,5.184h-1.575L536.812,57.17z"/>
		</g>
	</g>
	<g>
		<g>
			<path fill="#231F20" d="M373.785,60.868l2.475-2.223c0.126-0.114,0.252-0.243,0.378-0.388c0.126-0.144,0.189-0.312,0.189-0.504
				c0-0.216-0.078-0.385-0.234-0.508c-0.156-0.123-0.339-0.185-0.549-0.185c-0.252,0-0.449,0.077-0.59,0.233
				s-0.22,0.349-0.238,0.576l-1.35-0.099c0.018-0.33,0.087-0.616,0.207-0.86c0.12-0.242,0.279-0.445,0.477-0.607
				c0.198-0.161,0.43-0.283,0.697-0.363c0.267-0.082,0.557-0.122,0.869-0.122c0.288,0,0.558,0.04,0.81,0.122
				c0.252,0.08,0.471,0.201,0.657,0.359c0.186,0.159,0.332,0.358,0.437,0.599c0.105,0.239,0.158,0.519,0.158,0.837
				c0,0.204-0.021,0.389-0.063,0.554s-0.101,0.315-0.175,0.45c-0.075,0.135-0.164,0.26-0.266,0.373
				c-0.102,0.114-0.213,0.225-0.333,0.333l-1.935,1.665h2.826v1.188h-4.446V60.868z"/>
			<path fill="#231F20" d="M378.969,59.113c0-0.378,0.035-0.762,0.104-1.152c0.069-0.39,0.192-0.744,0.369-1.062
				c0.177-0.317,0.418-0.577,0.725-0.778c0.306-0.201,0.696-0.302,1.17-0.302c0.474,0,0.864,0.101,1.17,0.302
				s0.547,0.461,0.725,0.778c0.177,0.317,0.3,0.672,0.369,1.062c0.069,0.391,0.103,0.774,0.103,1.152s-0.034,0.762-0.103,1.152
				c-0.069,0.39-0.192,0.744-0.369,1.062c-0.177,0.318-0.418,0.577-0.725,0.778s-0.696,0.302-1.17,0.302
				c-0.474,0-0.864-0.101-1.17-0.302c-0.306-0.201-0.548-0.46-0.725-0.778c-0.177-0.317-0.3-0.672-0.369-1.062
				C379.004,59.875,378.969,59.491,378.969,59.113z M380.319,59.113c0,0.168,0.007,0.369,0.022,0.604
				c0.015,0.233,0.056,0.459,0.122,0.674c0.066,0.217,0.167,0.4,0.301,0.55c0.135,0.149,0.326,0.226,0.572,0.226
				c0.24,0,0.429-0.076,0.567-0.226s0.24-0.333,0.306-0.55c0.066-0.215,0.106-0.44,0.122-0.674c0.015-0.234,0.022-0.436,0.022-0.604
				s-0.008-0.369-0.022-0.604c-0.015-0.233-0.056-0.459-0.122-0.674c-0.066-0.217-0.168-0.399-0.306-0.55
				c-0.138-0.149-0.327-0.225-0.567-0.225c-0.246,0-0.437,0.075-0.572,0.225c-0.135,0.15-0.235,0.333-0.301,0.55
				c-0.066,0.215-0.106,0.44-0.122,0.674C380.327,58.744,380.319,58.945,380.319,59.113z"/>
			<path fill="#231F20" d="M386.592,57.439l-1.278,1.125l-0.765-0.883l2.079-1.754h1.26v6.371h-1.296V57.439z"/>
			<path fill="#231F20" d="M391.912,58.204c0.072-0.018,0.144-0.032,0.216-0.045c0.072-0.012,0.147-0.019,0.225-0.019
				c0.3,0,0.573,0.055,0.819,0.162c0.246,0.108,0.456,0.256,0.63,0.441c0.174,0.186,0.309,0.406,0.405,0.662
				c0.096,0.255,0.144,0.525,0.144,0.814c0,0.33-0.062,0.629-0.185,0.895c-0.123,0.268-0.291,0.497-0.504,0.689
				c-0.213,0.191-0.465,0.34-0.756,0.445c-0.291,0.104-0.602,0.157-0.932,0.157c-0.336,0-0.648-0.053-0.936-0.157
				c-0.288-0.105-0.539-0.254-0.751-0.445c-0.213-0.192-0.381-0.422-0.504-0.689c-0.123-0.266-0.185-0.564-0.185-0.895
				c0-0.229,0.021-0.438,0.063-0.626s0.098-0.367,0.167-0.536c0.069-0.167,0.15-0.328,0.243-0.48
				c0.093-0.153,0.19-0.311,0.292-0.473l1.395-2.178h1.647L391.912,58.204z M393,60.166c0-0.287-0.094-0.526-0.283-0.715
				c-0.189-0.189-0.437-0.283-0.743-0.283s-0.554,0.094-0.743,0.283c-0.189,0.188-0.283,0.428-0.283,0.715
				c0,0.288,0.094,0.527,0.283,0.716s0.437,0.284,0.743,0.284s0.554-0.096,0.743-0.284S393,60.454,393,60.166z"/>
		</g>
	</g>
	<g>
		<g>
			<path fill="#231F20" d="M229.785,60.868l2.475-2.223c0.126-0.114,0.252-0.243,0.378-0.388c0.126-0.144,0.189-0.312,0.189-0.504
				c0-0.216-0.078-0.385-0.234-0.508c-0.156-0.123-0.339-0.185-0.549-0.185c-0.252,0-0.449,0.077-0.59,0.233
				s-0.22,0.349-0.238,0.576l-1.35-0.099c0.018-0.33,0.087-0.616,0.207-0.86c0.12-0.242,0.279-0.445,0.477-0.607
				c0.198-0.161,0.43-0.283,0.697-0.363c0.267-0.082,0.557-0.122,0.869-0.122c0.288,0,0.558,0.04,0.81,0.122
				c0.252,0.08,0.471,0.201,0.657,0.359c0.186,0.159,0.332,0.358,0.437,0.599c0.105,0.239,0.158,0.519,0.158,0.837
				c0,0.204-0.021,0.389-0.063,0.554s-0.101,0.315-0.175,0.45c-0.075,0.135-0.164,0.26-0.266,0.373
				c-0.102,0.114-0.213,0.225-0.333,0.333l-1.935,1.665h2.826v1.188h-4.446V60.868z"/>
			<path fill="#231F20" d="M234.969,59.113c0-0.378,0.035-0.762,0.104-1.152c0.069-0.39,0.192-0.744,0.369-1.062
				c0.177-0.317,0.418-0.577,0.725-0.778c0.306-0.201,0.696-0.302,1.17-0.302c0.474,0,0.864,0.101,1.17,0.302
				s0.547,0.461,0.725,0.778c0.177,0.317,0.3,0.672,0.369,1.062c0.069,0.391,0.103,0.774,0.103,1.152s-0.034,0.762-0.103,1.152
				c-0.069,0.39-0.192,0.744-0.369,1.062c-0.177,0.318-0.418,0.577-0.725,0.778s-0.696,0.302-1.17,0.302
				c-0.474,0-0.864-0.101-1.17-0.302c-0.306-0.201-0.548-0.46-0.725-0.778c-0.177-0.317-0.3-0.672-0.369-1.062
				C235.004,59.875,234.969,59.491,234.969,59.113z M236.319,59.113c0,0.168,0.007,0.369,0.022,0.604
				c0.015,0.233,0.056,0.459,0.122,0.674c0.066,0.217,0.167,0.4,0.301,0.55c0.135,0.149,0.326,0.226,0.572,0.226
				c0.24,0,0.429-0.076,0.567-0.226s0.24-0.333,0.306-0.55c0.066-0.215,0.106-0.44,0.122-0.674c0.015-0.234,0.022-0.436,0.022-0.604
				s-0.008-0.369-0.022-0.604c-0.015-0.233-0.056-0.459-0.122-0.674c-0.066-0.217-0.168-0.399-0.306-0.55
				c-0.138-0.149-0.327-0.225-0.567-0.225c-0.246,0-0.437,0.075-0.572,0.225c-0.135,0.15-0.235,0.333-0.301,0.55
				c-0.066,0.215-0.106,0.44-0.122,0.674C236.327,58.744,236.319,58.945,236.319,59.113z"/>
			<path fill="#231F20" d="M242.592,57.439l-1.278,1.125l-0.765-0.883l2.079-1.754h1.26v6.371h-1.296V57.439z"/>
			<path fill="#231F20" d="M249.981,57.115h-2.529l-0.027,0.98c0.138-0.047,0.327-0.071,0.567-0.071
				c0.324,0,0.621,0.048,0.891,0.144s0.502,0.236,0.697,0.419s0.347,0.405,0.455,0.666s0.162,0.554,0.162,0.878
				c0,0.359-0.062,0.681-0.185,0.963c-0.123,0.281-0.292,0.52-0.509,0.715c-0.216,0.195-0.472,0.344-0.769,0.445
				c-0.297,0.103-0.62,0.153-0.968,0.153c-0.552,0-1.014-0.135-1.386-0.405c-0.373-0.27-0.627-0.678-0.765-1.224l1.413-0.324
				c0.036,0.229,0.132,0.413,0.288,0.554c0.156,0.141,0.351,0.211,0.585,0.211c0.288,0,0.517-0.09,0.688-0.27
				c0.171-0.18,0.256-0.408,0.256-0.684c0-0.211-0.043-0.383-0.13-0.518c-0.087-0.135-0.201-0.243-0.342-0.324
				s-0.298-0.137-0.472-0.166c-0.174-0.03-0.348-0.045-0.522-0.045c-0.222,0-0.445,0.021-0.67,0.062
				c-0.225,0.042-0.442,0.1-0.652,0.171l0.072-3.519h3.852V57.115z"/>
		</g>
	</g>
	<g>
		<g>
			<path fill="#231F20" d="M805.785,60.868l2.475-2.223c0.126-0.114,0.252-0.243,0.378-0.388c0.126-0.144,0.189-0.312,0.189-0.504
				c0-0.216-0.078-0.385-0.234-0.508c-0.156-0.123-0.339-0.185-0.549-0.185c-0.252,0-0.449,0.077-0.59,0.233
				s-0.22,0.349-0.238,0.576l-1.35-0.099c0.018-0.33,0.087-0.616,0.207-0.86c0.12-0.242,0.279-0.445,0.477-0.607
				c0.198-0.161,0.43-0.283,0.697-0.363c0.267-0.082,0.557-0.122,0.869-0.122c0.288,0,0.558,0.04,0.81,0.122
				c0.252,0.08,0.471,0.201,0.657,0.359c0.186,0.159,0.332,0.358,0.437,0.599c0.105,0.239,0.158,0.519,0.158,0.837
				c0,0.204-0.021,0.389-0.063,0.554s-0.101,0.315-0.175,0.45c-0.075,0.135-0.164,0.26-0.266,0.373
				c-0.102,0.114-0.213,0.225-0.333,0.333l-1.935,1.665h2.826v1.188h-4.446V60.868z"/>
			<path fill="#231F20" d="M810.969,59.113c0-0.378,0.035-0.762,0.104-1.152c0.069-0.39,0.192-0.744,0.369-1.062
				c0.177-0.317,0.418-0.577,0.725-0.778c0.306-0.201,0.696-0.302,1.17-0.302c0.474,0,0.864,0.101,1.17,0.302
				s0.547,0.461,0.725,0.778c0.177,0.317,0.3,0.672,0.369,1.062c0.069,0.391,0.103,0.774,0.103,1.152s-0.034,0.762-0.103,1.152
				c-0.069,0.39-0.192,0.744-0.369,1.062c-0.177,0.318-0.418,0.577-0.725,0.778s-0.696,0.302-1.17,0.302
				c-0.474,0-0.864-0.101-1.17-0.302c-0.306-0.201-0.548-0.46-0.725-0.778c-0.177-0.317-0.3-0.672-0.369-1.062
				C811.004,59.875,810.969,59.491,810.969,59.113z M812.319,59.113c0,0.168,0.007,0.369,0.022,0.604
				c0.015,0.233,0.056,0.459,0.122,0.674c0.066,0.217,0.167,0.4,0.301,0.55c0.135,0.149,0.326,0.226,0.572,0.226
				c0.24,0,0.429-0.076,0.567-0.226s0.24-0.333,0.306-0.55c0.066-0.215,0.106-0.44,0.122-0.674c0.015-0.234,0.022-0.436,0.022-0.604
				s-0.008-0.369-0.022-0.604c-0.015-0.233-0.056-0.459-0.122-0.674c-0.066-0.217-0.168-0.399-0.306-0.55
				c-0.138-0.149-0.327-0.225-0.567-0.225c-0.246,0-0.437,0.075-0.572,0.225c-0.135,0.15-0.235,0.333-0.301,0.55
				c-0.066,0.215-0.106,0.44-0.122,0.674C812.327,58.744,812.319,58.945,812.319,59.113z"/>
			<path fill="#231F20" d="M818.592,57.439l-1.278,1.125l-0.765-0.883l2.079-1.754h1.26v6.371h-1.296V57.439z"/>
			<path fill="#231F20" d="M824.074,60.022c-0.072,0.019-0.144,0.032-0.216,0.045c-0.072,0.013-0.147,0.019-0.225,0.019
				c-0.3,0-0.573-0.055-0.819-0.162c-0.246-0.108-0.456-0.256-0.63-0.441c-0.174-0.186-0.309-0.406-0.405-0.662
				c-0.096-0.254-0.144-0.525-0.144-0.814c0-0.33,0.062-0.628,0.185-0.895c0.123-0.268,0.291-0.497,0.504-0.689
				c0.213-0.191,0.463-0.34,0.751-0.445c0.288-0.104,0.6-0.157,0.936-0.157c0.33,0,0.64,0.053,0.931,0.157
				c0.291,0.105,0.543,0.254,0.756,0.445c0.213,0.192,0.381,0.422,0.504,0.689c0.123,0.267,0.185,0.564,0.185,0.895
				c0,0.229-0.021,0.438-0.063,0.626s-0.098,0.368-0.167,0.536c-0.069,0.168-0.15,0.328-0.243,0.48
				c-0.093,0.153-0.19,0.311-0.292,0.473l-1.395,2.178h-1.647L824.074,60.022z M822.984,58.061c0,0.287,0.095,0.526,0.284,0.715
				c0.189,0.189,0.437,0.283,0.743,0.283c0.306,0,0.553-0.094,0.742-0.283c0.189-0.188,0.284-0.428,0.284-0.715
				c0-0.288-0.095-0.527-0.284-0.716s-0.437-0.283-0.742-0.283c-0.306,0-0.554,0.095-0.743,0.283S822.984,57.772,822.984,58.061z"/>
		</g>
	</g>
	<g>
		<g>
			<path fill="#231F20" d="M661.785,60.868l2.475-2.223c0.126-0.114,0.252-0.243,0.378-0.388c0.126-0.144,0.189-0.312,0.189-0.504
				c0-0.216-0.078-0.385-0.234-0.508c-0.156-0.123-0.339-0.185-0.549-0.185c-0.252,0-0.449,0.077-0.59,0.233
				s-0.22,0.349-0.238,0.576l-1.35-0.099c0.018-0.33,0.087-0.616,0.207-0.86c0.12-0.242,0.279-0.445,0.477-0.607
				c0.198-0.161,0.43-0.283,0.697-0.363c0.267-0.082,0.557-0.122,0.869-0.122c0.288,0,0.558,0.04,0.81,0.122
				c0.252,0.08,0.471,0.201,0.657,0.359c0.186,0.159,0.332,0.358,0.437,0.599c0.105,0.239,0.158,0.519,0.158,0.837
				c0,0.204-0.021,0.389-0.063,0.554s-0.101,0.315-0.175,0.45c-0.075,0.135-0.164,0.26-0.266,0.373
				c-0.102,0.114-0.213,0.225-0.333,0.333l-1.935,1.665h2.826v1.188h-4.446V60.868z"/>
			<path fill="#231F20" d="M666.969,59.113c0-0.378,0.035-0.762,0.104-1.152c0.069-0.39,0.192-0.744,0.369-1.062
				c0.177-0.317,0.418-0.577,0.725-0.778c0.306-0.201,0.696-0.302,1.17-0.302c0.474,0,0.864,0.101,1.17,0.302
				s0.547,0.461,0.725,0.778c0.177,0.317,0.3,0.672,0.369,1.062c0.069,0.391,0.103,0.774,0.103,1.152s-0.034,0.762-0.103,1.152
				c-0.069,0.39-0.192,0.744-0.369,1.062c-0.177,0.318-0.418,0.577-0.725,0.778s-0.696,0.302-1.17,0.302
				c-0.474,0-0.864-0.101-1.17-0.302c-0.306-0.201-0.548-0.46-0.725-0.778c-0.177-0.317-0.3-0.672-0.369-1.062
				C667.004,59.875,666.969,59.491,666.969,59.113z M668.319,59.113c0,0.168,0.007,0.369,0.022,0.604
				c0.015,0.233,0.056,0.459,0.122,0.674c0.066,0.217,0.167,0.4,0.301,0.55c0.135,0.149,0.326,0.226,0.572,0.226
				c0.24,0,0.429-0.076,0.567-0.226s0.24-0.333,0.306-0.55c0.066-0.215,0.106-0.44,0.122-0.674c0.015-0.234,0.022-0.436,0.022-0.604
				s-0.008-0.369-0.022-0.604c-0.015-0.233-0.056-0.459-0.122-0.674c-0.066-0.217-0.168-0.399-0.306-0.55
				c-0.138-0.149-0.327-0.225-0.567-0.225c-0.246,0-0.437,0.075-0.572,0.225c-0.135,0.15-0.235,0.333-0.301,0.55
				c-0.066,0.215-0.106,0.44-0.122,0.674C668.327,58.744,668.319,58.945,668.319,59.113z"/>
			<path fill="#231F20" d="M674.592,57.439l-1.278,1.125l-0.765-0.883l2.079-1.754h1.26v6.371h-1.296V57.439z"/>
			<path fill="#231F20" d="M677.859,57.574c0-0.294,0.056-0.551,0.167-0.77c0.111-0.219,0.264-0.402,0.459-0.549
				c0.195-0.146,0.421-0.256,0.679-0.328s0.534-0.108,0.828-0.108s0.57,0.036,0.828,0.108c0.258,0.072,0.483,0.182,0.675,0.328
				s0.345,0.33,0.459,0.549c0.114,0.219,0.171,0.476,0.171,0.77c0,0.348-0.094,0.645-0.283,0.891s-0.455,0.42-0.797,0.522v0.019
				c0.384,0.102,0.678,0.286,0.882,0.553c0.204,0.268,0.306,0.599,0.306,0.994c0,0.307-0.062,0.576-0.184,0.811
				c-0.123,0.234-0.288,0.428-0.495,0.58c-0.207,0.153-0.446,0.27-0.716,0.348c-0.27,0.077-0.552,0.116-0.846,0.116
				s-0.576-0.039-0.846-0.116c-0.27-0.078-0.508-0.194-0.715-0.348c-0.207-0.152-0.372-0.346-0.495-0.58s-0.185-0.504-0.185-0.811
				c0-0.396,0.102-0.727,0.306-0.994c0.204-0.267,0.498-0.451,0.882-0.553v-0.019c-0.342-0.103-0.607-0.276-0.796-0.522
				S677.859,57.922,677.859,57.574z M679.102,60.364c0,0.222,0.081,0.411,0.243,0.567s0.378,0.234,0.648,0.234
				s0.486-0.078,0.648-0.234s0.243-0.346,0.243-0.567c0-0.228-0.081-0.42-0.243-0.576c-0.162-0.155-0.378-0.233-0.648-0.233
				s-0.486,0.078-0.648,0.233C679.183,59.944,679.102,60.137,679.102,60.364z M679.209,57.764c0,0.197,0.072,0.365,0.216,0.504
				c0.144,0.138,0.333,0.207,0.567,0.207s0.423-0.069,0.567-0.207c0.144-0.139,0.216-0.307,0.216-0.504
				c0-0.192-0.072-0.357-0.216-0.495s-0.333-0.207-0.567-0.207s-0.423,0.069-0.567,0.207S679.209,57.571,679.209,57.764z"/>
		</g>
	</g>
	<g>
		<g>
			
				<line fill="none" stroke="#231F20" stroke-width="2" stroke-linecap="round" stroke-linejoin="round" x1="1026.742" y1="72" x2="29.258" y2="72"/>
			<g>
				<polygon fill="#231F20" points="1025.927,78.074 1025.927,65.926 1032,72 				"/>
			</g>
			<g>
				<polygon fill="#231F20" points="30.073,78.074 30.073,65.926 24,72 				"/>
			</g>
		</g>
	</g>
	
		<line fill="none" stroke="#231F20" stroke-linecap="round" stroke-linejoin="round" stroke-miterlimit="10" x1="240" y1="66" x2="240" y2="72"/>
	<g>
		<g>
			<path fill="#231F20" d="M85.785,60.868l2.475-2.223c0.126-0.114,0.252-0.243,0.378-0.388c0.126-0.144,0.189-0.312,0.189-0.504
				c0-0.216-0.078-0.385-0.234-0.508c-0.156-0.123-0.339-0.185-0.549-0.185c-0.252,0-0.449,0.077-0.59,0.233
				s-0.22,0.349-0.238,0.576l-1.35-0.099c0.018-0.33,0.087-0.616,0.207-0.86c0.12-0.242,0.279-0.445,0.477-0.607
				c0.198-0.161,0.43-0.283,0.697-0.363c0.267-0.082,0.557-0.122,0.869-0.122c0.288,0,0.558,0.04,0.81,0.122
				c0.252,0.08,0.471,0.201,0.657,0.359c0.186,0.159,0.332,0.358,0.437,0.599c0.105,0.239,0.158,0.519,0.158,0.837
				c0,0.204-0.021,0.389-0.063,0.554s-0.101,0.315-0.175,0.45c-0.075,0.135-0.164,0.26-0.266,0.373
				c-0.102,0.114-0.213,0.225-0.333,0.333l-1.935,1.665h2.826v1.188h-4.446V60.868z"/>
			<path fill="#231F20" d="M90.969,59.113c0-0.378,0.035-0.762,0.104-1.152c0.069-0.39,0.192-0.744,0.369-1.062
				c0.177-0.317,0.418-0.577,0.725-0.778c0.306-0.201,0.696-0.302,1.17-0.302c0.474,0,0.864,0.101,1.17,0.302
				s0.547,0.461,0.725,0.778c0.177,0.317,0.3,0.672,0.369,1.062c0.069,0.391,0.103,0.774,0.103,1.152s-0.034,0.762-0.103,1.152
				c-0.069,0.39-0.192,0.744-0.369,1.062c-0.177,0.318-0.418,0.577-0.725,0.778s-0.696,0.302-1.17,0.302
				c-0.474,0-0.864-0.101-1.17-0.302c-0.306-0.201-0.548-0.46-0.725-0.778c-0.177-0.317-0.3-0.672-0.369-1.062
				C91.004,59.875,90.969,59.491,90.969,59.113z M92.319,59.113c0,0.168,0.007,0.369,0.022,0.604
				c0.015,0.233,0.056,0.459,0.122,0.674c0.066,0.217,0.167,0.4,0.301,0.55c0.135,0.149,0.326,0.226,0.572,0.226
				c0.24,0,0.429-0.076,0.567-0.226s0.24-0.333,0.306-0.55c0.066-0.215,0.106-0.44,0.122-0.674c0.015-0.234,0.022-0.436,0.022-0.604
				s-0.008-0.369-0.022-0.604c-0.015-0.233-0.056-0.459-0.122-0.674c-0.066-0.217-0.168-0.399-0.306-0.55
				c-0.138-0.149-0.327-0.225-0.567-0.225c-0.246,0-0.437,0.075-0.572,0.225c-0.135,0.15-0.235,0.333-0.301,0.55
				c-0.066,0.215-0.106,0.44-0.122,0.674C92.327,58.744,92.319,58.945,92.319,59.113z"/>
			<path fill="#231F20" d="M98.592,57.439l-1.278,1.125l-0.765-0.883l2.079-1.754h1.26v6.371h-1.296V57.439z"/>
			<path fill="#231F20" d="M104.326,61.021h-2.781v-1.135l2.601-3.959h1.476v3.959h0.819v1.135h-0.819v1.277h-1.296V61.021z
				 M104.326,57.691h-0.018l-1.413,2.195h1.431V57.691z"/>
		</g>
	</g>
	
		<line fill="none" stroke="#231F20" stroke-linecap="round" stroke-linejoin="round" stroke-miterlimit="10" x1="96" y1="66" x2="96" y2="72"/>
	
		<line fill="none" stroke="#231F20" stroke-linecap="round" stroke-linejoin="round" stroke-miterlimit="10" x1="384" y1="66" x2="384" y2="72"/>
	
		<line fill="none" stroke="#231F20" stroke-linecap="round" stroke-linejoin="round" stroke-miterlimit="10" x1="528" y1="66" x2="528" y2="72"/>
	
		<line fill="none" stroke="#231F20" stroke-linecap="round" stroke-linejoin="round" stroke-miterlimit="10" x1="672" y1="66" x2="672" y2="72"/>
	
		<line fill="none" stroke="#231F20" stroke-linecap="round" stroke-linejoin="round" stroke-miterlimit="10" x1="816" y1="66" x2="816" y2="72"/>
	<g>
		<g>
			<path fill="#231F20" d="M949.785,60.868l2.475-2.223c0.126-0.114,0.252-0.243,0.378-0.388c0.126-0.144,0.189-0.312,0.189-0.504
				c0-0.216-0.078-0.385-0.234-0.508c-0.156-0.123-0.339-0.185-0.549-0.185c-0.252,0-0.449,0.077-0.59,0.233
				s-0.22,0.349-0.238,0.576l-1.35-0.099c0.018-0.33,0.087-0.616,0.207-0.86c0.12-0.242,0.279-0.445,0.477-0.607
				c0.198-0.161,0.43-0.283,0.697-0.363c0.267-0.082,0.557-0.122,0.869-0.122c0.288,0,0.558,0.04,0.81,0.122
				c0.252,0.08,0.471,0.201,0.657,0.359c0.186,0.159,0.332,0.358,0.437,0.599c0.105,0.239,0.158,0.519,0.158,0.837
				c0,0.204-0.021,0.389-0.063,0.554s-0.101,0.315-0.175,0.45c-0.075,0.135-0.164,0.26-0.266,0.373
				c-0.102,0.114-0.213,0.225-0.333,0.333l-1.935,1.665h2.826v1.188h-4.446V60.868z"/>
			<path fill="#231F20" d="M954.969,59.113c0-0.378,0.035-0.762,0.104-1.152c0.069-0.39,0.192-0.744,0.369-1.062
				c0.177-0.317,0.418-0.577,0.725-0.778c0.306-0.201,0.696-0.302,1.17-0.302c0.474,0,0.864,0.101,1.17,0.302
				s0.547,0.461,0.725,0.778c0.177,0.317,0.3,0.672,0.369,1.062c0.069,0.391,0.103,0.774,0.103,1.152s-0.034,0.762-0.103,1.152
				c-0.069,0.39-0.192,0.744-0.369,1.062c-0.177,0.318-0.418,0.577-0.725,0.778s-0.696,0.302-1.17,0.302
				c-0.474,0-0.864-0.101-1.17-0.302c-0.306-0.201-0.548-0.46-0.725-0.778c-0.177-0.317-0.3-0.672-0.369-1.062
				C955.003,59.875,954.969,59.491,954.969,59.113z M956.319,59.113c0,0.168,0.007,0.369,0.022,0.604
				c0.015,0.233,0.056,0.459,0.122,0.674c0.066,0.217,0.167,0.4,0.301,0.55c0.135,0.149,0.326,0.226,0.572,0.226
				c0.24,0,0.429-0.076,0.567-0.226s0.24-0.333,0.306-0.55c0.066-0.215,0.106-0.44,0.122-0.674c0.015-0.234,0.022-0.436,0.022-0.604
				s-0.008-0.369-0.022-0.604c-0.015-0.233-0.056-0.459-0.122-0.674c-0.066-0.217-0.168-0.399-0.306-0.55
				c-0.138-0.149-0.327-0.225-0.567-0.225c-0.246,0-0.437,0.075-0.572,0.225c-0.135,0.15-0.235,0.333-0.301,0.55
				c-0.066,0.215-0.106,0.44-0.122,0.674C956.326,58.744,956.319,58.945,956.319,59.113z"/>
			<path fill="#231F20" d="M960.441,60.868l2.475-2.223c0.126-0.114,0.252-0.243,0.378-0.388c0.126-0.144,0.189-0.312,0.189-0.504
				c0-0.216-0.078-0.385-0.234-0.508c-0.156-0.123-0.339-0.185-0.549-0.185c-0.252,0-0.449,0.077-0.59,0.233
				s-0.22,0.349-0.238,0.576l-1.35-0.099c0.018-0.33,0.087-0.616,0.207-0.86c0.12-0.242,0.279-0.445,0.477-0.607
				c0.198-0.161,0.43-0.283,0.697-0.363c0.267-0.082,0.557-0.122,0.869-0.122c0.288,0,0.558,0.04,0.81,0.122
				c0.252,0.08,0.471,0.201,0.657,0.359c0.186,0.159,0.332,0.358,0.437,0.599c0.105,0.239,0.158,0.519,0.158,0.837
				c0,0.204-0.021,0.389-0.063,0.554s-0.101,0.315-0.175,0.45c-0.075,0.135-0.164,0.26-0.266,0.373
				c-0.102,0.114-0.213,0.225-0.333,0.333l-1.935,1.665h2.826v1.188h-4.446V60.868z"/>
			<path fill="#231F20" d="M965.625,59.113c0-0.378,0.035-0.762,0.104-1.152c0.069-0.39,0.192-0.744,0.369-1.062
				c0.177-0.317,0.418-0.577,0.725-0.778c0.306-0.201,0.696-0.302,1.17-0.302c0.474,0,0.864,0.101,1.17,0.302
				s0.547,0.461,0.725,0.778c0.177,0.317,0.3,0.672,0.369,1.062c0.069,0.391,0.103,0.774,0.103,1.152s-0.034,0.762-0.103,1.152
				c-0.069,0.39-0.192,0.744-0.369,1.062c-0.177,0.318-0.418,0.577-0.725,0.778s-0.696,0.302-1.17,0.302
				c-0.474,0-0.864-0.101-1.17-0.302c-0.306-0.201-0.548-0.46-0.725-0.778c-0.177-0.317-0.3-0.672-0.369-1.062
				C965.66,59.875,965.625,59.491,965.625,59.113z M966.975,59.113c0,0.168,0.007,0.369,0.022,0.604
				c0.015,0.233,0.056,0.459,0.122,0.674c0.066,0.217,0.167,0.4,0.301,0.55c0.135,0.149,0.326,0.226,0.572,0.226
				c0.24,0,0.429-0.076,0.567-0.226s0.24-0.333,0.306-0.55c0.066-0.215,0.106-0.44,0.122-0.674c0.015-0.234,0.022-0.436,0.022-0.604
				s-0.008-0.369-0.022-0.604c-0.015-0.233-0.056-0.459-0.122-0.674c-0.066-0.217-0.168-0.399-0.306-0.55
				c-0.138-0.149-0.327-0.225-0.567-0.225c-0.246,0-0.437,0.075-0.572,0.225c-0.135,0.15-0.235,0.333-0.301,0.55
				c-0.066,0.215-0.106,0.44-0.122,0.674C966.982,58.744,966.975,58.945,966.975,59.113z"/>
		</g>
	</g>
	
		<line fill="none" stroke="#231F20" stroke-linecap="round" stroke-linejoin="round" stroke-miterlimit="10" x1="960" y1="66" x2="960" y2="72"/>
	<use xlink:href="#Globe"  width="48" height="48" x="-24" y="-24" transform="matrix(1 0 0 -1 384 108.001)" overflow="visible"/>
	<g>
		<g>
			<path fill="#231F20" d="M366.986,139.928h1.53l1.017,4.086h0.018l1.332-4.086h1.305l1.323,4.194h0.018l1.071-4.194h1.422
				l-1.863,6.373h-1.251l-1.404-4.41h-0.018l-1.404,4.41h-1.206L366.986,139.928z"/>
			<path fill="#231F20" d="M376.157,144.113c0-0.348,0.063-0.663,0.189-0.945c0.126-0.281,0.298-0.523,0.518-0.725
				c0.219-0.201,0.477-0.355,0.774-0.463c0.297-0.108,0.613-0.162,0.95-0.162c0.336,0,0.652,0.054,0.949,0.162
				c0.297,0.107,0.555,0.262,0.774,0.463c0.219,0.201,0.392,0.443,0.518,0.725c0.126,0.282,0.189,0.598,0.189,0.945
				s-0.063,0.663-0.189,0.945c-0.126,0.281-0.298,0.523-0.518,0.725c-0.219,0.201-0.477,0.355-0.774,0.463
				c-0.297,0.108-0.613,0.162-0.949,0.162c-0.336,0-0.653-0.054-0.95-0.162c-0.297-0.107-0.555-0.262-0.774-0.463
				c-0.219-0.201-0.392-0.443-0.518-0.725C376.22,144.776,376.157,144.461,376.157,144.113z M377.507,144.113
				c0,0.33,0.094,0.598,0.284,0.801c0.189,0.204,0.454,0.307,0.796,0.307c0.342,0,0.607-0.103,0.796-0.307
				c0.189-0.203,0.284-0.471,0.284-0.801s-0.095-0.598-0.284-0.801c-0.189-0.204-0.455-0.307-0.796-0.307
				c-0.342,0-0.607,0.103-0.796,0.307C377.601,143.516,377.507,143.783,377.507,144.113z"/>
			<path fill="#231F20" d="M381.809,141.926h1.35v0.703h0.018c0.144-0.271,0.315-0.473,0.513-0.607
				c0.198-0.136,0.447-0.203,0.747-0.203c0.078,0,0.156,0.003,0.234,0.009c0.078,0.007,0.15,0.019,0.216,0.036v1.232
				c-0.096-0.029-0.191-0.052-0.284-0.066c-0.093-0.016-0.19-0.023-0.292-0.023c-0.258,0-0.462,0.037-0.612,0.108
				c-0.15,0.072-0.266,0.173-0.347,0.302s-0.134,0.283-0.158,0.463s-0.036,0.379-0.036,0.594v1.828h-1.35V141.926z"/>
			<path fill="#231F20" d="M385.49,139.496h1.35v6.805h-1.35V139.496z"/>
			<path fill="#231F20" d="M392.401,146.301h-1.242v-0.576h-0.018c-0.054,0.078-0.125,0.157-0.211,0.238
				c-0.087,0.081-0.189,0.154-0.306,0.221s-0.246,0.119-0.387,0.162c-0.141,0.041-0.287,0.062-0.437,0.062
				c-0.324,0-0.618-0.056-0.882-0.166c-0.264-0.111-0.491-0.268-0.68-0.469s-0.334-0.439-0.437-0.715
				c-0.102-0.276-0.153-0.579-0.153-0.909c0-0.306,0.046-0.599,0.14-0.878c0.093-0.279,0.225-0.526,0.396-0.742
				s0.379-0.389,0.625-0.518s0.525-0.193,0.837-0.193c0.282,0,0.544,0.043,0.788,0.131c0.243,0.086,0.442,0.235,0.599,0.445h0.018
				v-2.898h1.35V146.301z M391.16,144.113c0-0.33-0.095-0.598-0.284-0.801c-0.189-0.204-0.455-0.307-0.796-0.307
				c-0.342,0-0.607,0.103-0.796,0.307c-0.189,0.203-0.284,0.471-0.284,0.801s0.094,0.598,0.284,0.801
				c0.189,0.204,0.454,0.307,0.796,0.307c0.342,0,0.607-0.103,0.796-0.307C391.065,144.711,391.16,144.443,391.16,144.113z"/>
			<path fill="#231F20" d="M398.26,141.44l-1.278,1.125l-0.765-0.882l2.079-1.756h1.26v6.373h-1.296V141.44z"/>
		</g>
	</g>
	
		<use xlink:href="#Globe"  width="48" height="48" x="-24" y="-24" transform="matrix(1 0 0 -1 240 108.001)" overflow="visible" opacity="0.1"/>
	<g opacity="0.1">
		<g>
			<path fill="#231F20" d="M226.981,139.928h1.53l1.017,4.086h0.018l1.332-4.086h1.305l1.323,4.194h0.018l1.071-4.194h1.422
				l-1.863,6.373h-1.251l-1.404-4.41h-0.018l-1.404,4.41h-1.206L226.981,139.928z"/>
			<path fill="#231F20" d="M236.152,144.113c0-0.348,0.063-0.663,0.189-0.945c0.126-0.281,0.298-0.523,0.518-0.725
				c0.219-0.201,0.477-0.355,0.774-0.463c0.297-0.108,0.613-0.162,0.95-0.162c0.336,0,0.652,0.054,0.949,0.162
				c0.297,0.107,0.555,0.262,0.774,0.463c0.219,0.201,0.392,0.443,0.518,0.725c0.126,0.282,0.189,0.598,0.189,0.945
				s-0.063,0.663-0.189,0.945c-0.126,0.281-0.298,0.523-0.518,0.725c-0.219,0.201-0.477,0.355-0.774,0.463
				c-0.297,0.108-0.613,0.162-0.949,0.162c-0.336,0-0.653-0.054-0.95-0.162c-0.297-0.107-0.555-0.262-0.774-0.463
				c-0.219-0.201-0.392-0.443-0.518-0.725C236.215,144.776,236.152,144.461,236.152,144.113z M237.502,144.113
				c0,0.33,0.094,0.598,0.284,0.801c0.189,0.204,0.454,0.307,0.796,0.307c0.342,0,0.607-0.103,0.796-0.307
				c0.189-0.203,0.284-0.471,0.284-0.801s-0.095-0.598-0.284-0.801c-0.189-0.204-0.455-0.307-0.796-0.307
				c-0.342,0-0.607,0.103-0.796,0.307C237.597,143.516,237.502,143.783,237.502,144.113z"/>
			<path fill="#231F20" d="M241.804,141.926h1.35v0.703h0.018c0.144-0.271,0.315-0.473,0.513-0.607
				c0.198-0.136,0.447-0.203,0.747-0.203c0.078,0,0.156,0.003,0.234,0.009c0.078,0.007,0.15,0.019,0.216,0.036v1.232
				c-0.096-0.029-0.191-0.052-0.284-0.066c-0.093-0.016-0.19-0.023-0.292-0.023c-0.258,0-0.462,0.037-0.612,0.108
				c-0.15,0.072-0.266,0.173-0.347,0.302s-0.134,0.283-0.158,0.463s-0.036,0.379-0.036,0.594v1.828h-1.35V141.926z"/>
			<path fill="#231F20" d="M245.485,139.496h1.35v6.805h-1.35V139.496z"/>
			<path fill="#231F20" d="M252.397,146.301h-1.242v-0.576h-0.018c-0.054,0.078-0.125,0.157-0.211,0.238
				c-0.087,0.081-0.189,0.154-0.306,0.221s-0.246,0.119-0.387,0.162c-0.141,0.041-0.287,0.062-0.437,0.062
				c-0.324,0-0.618-0.056-0.882-0.166c-0.264-0.111-0.491-0.268-0.68-0.469s-0.334-0.439-0.437-0.715
				c-0.102-0.276-0.153-0.579-0.153-0.909c0-0.306,0.046-0.599,0.14-0.878c0.093-0.279,0.225-0.526,0.396-0.742
				s0.379-0.389,0.625-0.518s0.525-0.193,0.837-0.193c0.282,0,0.544,0.043,0.788,0.131c0.243,0.086,0.442,0.235,0.599,0.445h0.018
				v-2.898h1.35V146.301z M251.155,144.113c0-0.33-0.095-0.598-0.284-0.801c-0.189-0.204-0.455-0.307-0.796-0.307
				c-0.342,0-0.607,0.103-0.796,0.307c-0.189,0.203-0.284,0.471-0.284,0.801s0.094,0.598,0.284,0.801
				c0.189,0.204,0.454,0.307,0.796,0.307c0.342,0,0.607-0.103,0.796-0.307C251.061,144.711,251.155,144.443,251.155,144.113z"/>
		</g>
	</g>
	
		<use xlink:href="#Globe"  width="48" height="48" x="-24" y="-24" transform="matrix(1 0 0 -1 96 108.001)" overflow="visible" opacity="0.1"/>
	<g opacity="0.1">
		<g>
			<path fill="#231F20" d="M82.981,139.928h1.53l1.017,4.086h0.018l1.332-4.086h1.305l1.323,4.194h0.018l1.071-4.194h1.422
				l-1.863,6.373h-1.251l-1.404-4.41h-0.018l-1.404,4.41h-1.206L82.981,139.928z"/>
			<path fill="#231F20" d="M92.152,144.113c0-0.348,0.063-0.663,0.189-0.945c0.126-0.281,0.298-0.523,0.518-0.725
				c0.219-0.201,0.477-0.355,0.774-0.463c0.297-0.108,0.613-0.162,0.95-0.162c0.336,0,0.652,0.054,0.949,0.162
				c0.297,0.107,0.555,0.262,0.774,0.463c0.219,0.201,0.392,0.443,0.518,0.725c0.126,0.282,0.189,0.598,0.189,0.945
				s-0.063,0.663-0.189,0.945c-0.126,0.281-0.298,0.523-0.518,0.725c-0.219,0.201-0.477,0.355-0.774,0.463
				c-0.297,0.108-0.613,0.162-0.949,0.162c-0.336,0-0.653-0.054-0.95-0.162c-0.297-0.107-0.555-0.262-0.774-0.463
				c-0.219-0.201-0.392-0.443-0.518-0.725C92.215,144.776,92.152,144.461,92.152,144.113z M93.502,144.113
				c0,0.33,0.094,0.598,0.284,0.801c0.189,0.204,0.454,0.307,0.796,0.307c0.342,0,0.607-0.103,0.796-0.307
				c0.189-0.203,0.284-0.471,0.284-0.801s-0.095-0.598-0.284-0.801c-0.189-0.204-0.455-0.307-0.796-0.307
				c-0.342,0-0.607,0.103-0.796,0.307C93.597,143.516,93.502,143.783,93.502,144.113z"/>
			<path fill="#231F20" d="M97.804,141.926h1.35v0.703h0.018c0.144-0.271,0.315-0.473,0.513-0.607
				c0.198-0.136,0.447-0.203,0.747-0.203c0.078,0,0.156,0.003,0.234,0.009c0.078,0.007,0.15,0.019,0.216,0.036v1.232
				c-0.096-0.029-0.191-0.052-0.284-0.066c-0.093-0.016-0.19-0.023-0.292-0.023c-0.258,0-0.462,0.037-0.612,0.108
				c-0.15,0.072-0.266,0.173-0.347,0.302s-0.134,0.283-0.158,0.463s-0.036,0.379-0.036,0.594v1.828h-1.35V141.926z"/>
			<path fill="#231F20" d="M101.485,139.496h1.35v6.805h-1.35V139.496z"/>
			<path fill="#231F20" d="M108.397,146.301h-1.242v-0.576h-0.018c-0.054,0.078-0.125,0.157-0.211,0.238
				c-0.087,0.081-0.189,0.154-0.306,0.221s-0.246,0.119-0.387,0.162c-0.141,0.041-0.287,0.062-0.437,0.062
				c-0.324,0-0.618-0.056-0.882-0.166c-0.264-0.111-0.491-0.268-0.68-0.469s-0.334-0.439-0.437-0.715
				c-0.102-0.276-0.153-0.579-0.153-0.909c0-0.306,0.046-0.599,0.14-0.878c0.093-0.279,0.225-0.526,0.396-0.742
				s0.379-0.389,0.625-0.518s0.525-0.193,0.837-0.193c0.282,0,0.544,0.043,0.788,0.131c0.243,0.086,0.442,0.235,0.599,0.445h0.018
				v-2.898h1.35V146.301z M107.155,144.113c0-0.33-0.095-0.598-0.284-0.801c-0.189-0.204-0.455-0.307-0.796-0.307
				c-0.342,0-0.607,0.103-0.796,0.307c-0.189,0.203-0.284,0.471-0.284,0.801s0.094,0.598,0.284,0.801
				c0.189,0.204,0.454,0.307,0.796,0.307c0.342,0,0.607-0.103,0.796-0.307C107.061,144.711,107.155,144.443,107.155,144.113z"/>
		</g>
	</g>
	<g>
		<g>
			
				<line fill="none" stroke="#00ADEE" stroke-width="2" stroke-linecap="round" stroke-linejoin="round" stroke-dasharray="2,6" x1="384" y1="156" x2="384" y2="318.742"/>
			<g>
				<polygon fill="#00ADEE" points="390.074,317.928 377.926,317.928 384,324 				"/>
			</g>
		</g>
	</g>
</g>
<g id="Meta__x2B__Title">
</g>
</svg>
