<?xml version="1.0" encoding="utf-8"?>
<!-- Generator: Adobe Illustrator 16.0.0, SVG Export Plug-In . SVG Version: 6.00 Build 0)  -->
<!DOCTYPE svg PUBLIC "-//W3C//DTD SVG 1.1//EN" "http://www.w3.org/Graphics/SVG/1.1/DTD/svg11.dtd">
<svg version="1.1" id="Layer_1" xmlns="http://www.w3.org/2000/svg" xmlns:xlink="http://www.w3.org/1999/xlink" x="0px" y="0px"
	 width="1170px" height="945px" viewBox="0 0 1170 945" enable-background="new 0 0 1170 945" xml:space="preserve">
<g>
	<g transform="translate(15,-13679.5) scale(1)">
		<g>
			<rect x="165" y="13724.5" fill="#FFFFFF" width="45" height="45"/>
			<g>
				<g>
					<g id="cross_93_">
						<line fill="none" stroke="#00A94F" x1="170" y1="13729.5" x2="175" y2="13734.5"/>
						<line fill="none" stroke="#00A94F" x1="170" y1="13734.5" x2="175" y2="13729.5"/>
					</g>
				</g>
				<g>
					<circle id="circle_52_" fill="none" stroke="#00A94F" cx="187.5" cy="13732" r="2.5"/>
				</g>
				<g>
					<g id="cross_94_">
						<line fill="none" stroke="#00A94F" x1="200" y1="13729.5" x2="205" y2="13734.5"/>
						<line fill="none" stroke="#00A94F" x1="200" y1="13734.5" x2="205" y2="13729.5"/>
					</g>
				</g>
				<g>
					<circle id="circle_53_" fill="none" stroke="#00A94F" cx="187.5" cy="13747" r="2.5"/>
				</g>
			</g>
			<g opacity="0.2">
				<line fill="none" stroke="#00A94F" x1="180" y1="13724.5" x2="180" y2="13769.5"/>
				<line fill="none" stroke="#00A94F" x1="195" y1="13724.5" x2="195" y2="13769.5"/>
				<line fill="none" stroke="#00A94F" x1="165" y1="13739.5" x2="210" y2="13739.5"/>
				<line fill="none" stroke="#00A94F" x1="165" y1="13754.5" x2="210" y2="13754.5"/>
			</g>
			<rect x="165" y="14084.5" fill="#FFFFFF" width="45" height="45"/>
			<g>
				<g>
					<g id="cross_95_">
						<line fill="none" stroke="#00A94F" x1="170" y1="14089.5" x2="175" y2="14094.5"/>
						<line fill="none" stroke="#00A94F" x1="170" y1="14094.5" x2="175" y2="14089.5"/>
					</g>
				</g>
				<g>
					<circle id="circle_54_" fill="none" stroke="#00A94F" cx="187.5" cy="14092" r="2.5"/>
				</g>
				<g>
					<g id="cross_96_">
						<line fill="none" stroke="#00A94F" x1="200" y1="14089.5" x2="205" y2="14094.5"/>
						<line fill="none" stroke="#00A94F" x1="200" y1="14094.5" x2="205" y2="14089.5"/>
					</g>
				</g>
				<g>
					<circle id="circle_55_" fill="none" stroke="#00A94F" cx="172.5" cy="14122" r="2.5"/>
				</g>
			</g>
			<g opacity="0.2">
				<line fill="none" stroke="#00A94F" x1="180" y1="14084.5" x2="180" y2="14129.5"/>
				<line fill="none" stroke="#00A94F" x1="195" y1="14084.5" x2="195" y2="14129.5"/>
				<line fill="none" stroke="#00A94F" x1="165" y1="14099.5" x2="210" y2="14099.5"/>
				<line fill="none" stroke="#00A94F" x1="165" y1="14114.5" x2="210" y2="14114.5"/>
			</g>
			<rect x="165" y="14444.5" fill="#FFFFFF" width="45" height="45"/>
			<g>
				<g>
					<g id="cross_97_">
						<line fill="none" stroke="#E24486" x1="170" y1="14449.5" x2="175" y2="14454.5"/>
						<line fill="none" stroke="#E24486" x1="170" y1="14454.5" x2="175" y2="14449.5"/>
					</g>
				</g>
				<g>
					<circle id="circle_56_" fill="none" stroke="#E24486" cx="187.5" cy="14452" r="2.5"/>
				</g>
				<g>
					<g id="cross_98_">
						<line fill="none" stroke="#E24486" x1="200" y1="14449.5" x2="205" y2="14454.5"/>
						<line fill="none" stroke="#E24486" x1="200" y1="14454.5" x2="205" y2="14449.5"/>
					</g>
				</g>
				<g>
					<circle id="circle_57_" fill="none" stroke="#E24486" cx="187.5" cy="14482" r="2.5"/>
				</g>
			</g>
			<g opacity="0.2">
				<line fill="none" stroke="#E24486" x1="180" y1="14444.5" x2="180" y2="14489.5"/>
				<line fill="none" stroke="#E24486" x1="195" y1="14444.5" x2="195" y2="14489.5"/>
				<line fill="none" stroke="#E24486" x1="165" y1="14459.5" x2="210" y2="14459.5"/>
				<line fill="none" stroke="#E24486" x1="165" y1="14474.5" x2="210" y2="14474.5"/>
			</g>
			<rect x="930" y="13634.5" fill="#FFFFFF" width="45" height="45"/>
			<g opacity="0.2">
				<line fill="none" stroke="#00A94F" x1="945" y1="13634.5" x2="945" y2="13679.5"/>
				<line fill="none" stroke="#00A94F" x1="960" y1="13634.5" x2="960" y2="13679.5"/>
			</g>
			<rect x="930" y="13724.5" fill="#FFFFFF" width="45" height="45"/>
			<g>
				<g>
					<g id="cross_325_">
						<line fill="none" stroke="#00A94F" x1="935" y1="13729.5" x2="940" y2="13734.5"/>
						<line fill="none" stroke="#00A94F" x1="935" y1="13734.5" x2="940" y2="13729.5"/>
					</g>
				</g>
				<g>
					<circle id="circle_278_" fill="none" stroke="#00A94F" cx="952.5" cy="13732" r="2.5"/>
				</g>
				<g>
					<g id="cross_326_">
						<line fill="none" stroke="#00A94F" x1="965" y1="13729.5" x2="970" y2="13734.5"/>
						<line fill="none" stroke="#00A94F" x1="965" y1="13734.5" x2="970" y2="13729.5"/>
					</g>
				</g>
				<g>
					<circle id="circle_279_" fill="none" stroke="#00A94F" cx="952.5" cy="13747" r="2.5"/>
				</g>
				<g>
					<g id="cross_327_">
						<line fill="none" stroke="#00A94F" x1="935" y1="13759.5" x2="940" y2="13764.5"/>
						<line fill="none" stroke="#00A94F" x1="935" y1="13764.5" x2="940" y2="13759.5"/>
					</g>
				</g>
			</g>
			<g opacity="0.2">
				<line fill="none" stroke="#00A94F" x1="945" y1="13724.5" x2="945" y2="13769.5"/>
				<line fill="none" stroke="#00A94F" x1="960" y1="13724.5" x2="960" y2="13769.5"/>
				<line fill="none" stroke="#00A94F" x1="930" y1="13739.5" x2="975" y2="13739.5"/>
				<line fill="none" stroke="#00A94F" x1="930" y1="13754.5" x2="975" y2="13754.5"/>
			</g>
			<rect x="930" y="13814.5" fill="#FFFFFF" width="45" height="45"/>
			<g>
				<g>
					<g id="cross_328_">
						<line fill="none" stroke="#00A94F" x1="935" y1="13819.5" x2="940" y2="13824.5"/>
						<line fill="none" stroke="#00A94F" x1="935" y1="13824.5" x2="940" y2="13819.5"/>
					</g>
				</g>
				<g>
					<circle id="circle_280_" fill="none" stroke="#00A94F" cx="952.5" cy="13822" r="2.5"/>
				</g>
				<g>
					<g id="cross_329_">
						<line fill="none" stroke="#00A94F" x1="965" y1="13819.5" x2="970" y2="13824.5"/>
						<line fill="none" stroke="#00A94F" x1="965" y1="13824.5" x2="970" y2="13819.5"/>
					</g>
				</g>
				<g>
					<circle id="circle_281_" fill="none" stroke="#00A94F" cx="952.5" cy="13837" r="2.5"/>
				</g>
				<g>
					<g id="cross_330_">
						<line fill="none" stroke="#00A94F" x1="950" y1="13849.5" x2="955" y2="13854.5"/>
						<line fill="none" stroke="#00A94F" x1="950" y1="13854.5" x2="955" y2="13849.5"/>
					</g>
				</g>
			</g>
			<g opacity="0.2">
				<line fill="none" stroke="#00A94F" x1="945" y1="13814.5" x2="945" y2="13859.5"/>
				<line fill="none" stroke="#00A94F" x1="960" y1="13814.5" x2="960" y2="13859.5"/>
				<line fill="none" stroke="#00A94F" x1="930" y1="13829.5" x2="975" y2="13829.5"/>
				<line fill="none" stroke="#00A94F" x1="930" y1="13844.5" x2="975" y2="13844.5"/>
			</g>
			<rect x="930" y="13904.5" fill="#FFFFFF" width="45" height="45"/>
			<g>
				<g>
					<g id="cross_331_">
						<line fill="none" stroke="#00A94F" x1="935" y1="13909.5" x2="940" y2="13914.5"/>
						<line fill="none" stroke="#00A94F" x1="935" y1="13914.5" x2="940" y2="13909.5"/>
					</g>
				</g>
				<g>
					<circle id="circle_282_" fill="none" stroke="#00A94F" cx="952.5" cy="13912" r="2.5"/>
				</g>
				<g>
					<g id="cross_332_">
						<line fill="none" stroke="#00A94F" x1="965" y1="13909.5" x2="970" y2="13914.5"/>
						<line fill="none" stroke="#00A94F" x1="965" y1="13914.5" x2="970" y2="13909.5"/>
					</g>
				</g>
				<g>
					<g id="cross_333_">
						<line fill="none" stroke="#00A94F" x1="935" y1="13924.5" x2="940" y2="13929.5"/>
						<line fill="none" stroke="#00A94F" x1="935" y1="13929.5" x2="940" y2="13924.5"/>
					</g>
				</g>
				<g>
					<circle id="circle_283_" fill="none" stroke="#00A94F" cx="937.5" cy="13942" r="2.5"/>
				</g>
			</g>
			<g opacity="0.2">
				<line fill="none" stroke="#00A94F" x1="945" y1="13904.5" x2="945" y2="13949.5"/>
				<line fill="none" stroke="#00A94F" x1="960" y1="13904.5" x2="960" y2="13949.5"/>
				<line fill="none" stroke="#00A94F" x1="930" y1="13919.5" x2="975" y2="13919.5"/>
				<line fill="none" stroke="#00A94F" x1="930" y1="13934.5" x2="975" y2="13934.5"/>
			</g>
			<rect x="930" y="13994.5" fill="#FFFFFF" width="45" height="45"/>
			<g>
				<g>
					<g id="cross_334_">
						<line fill="none" stroke="#00A94F" x1="935" y1="13999.5" x2="940" y2="14004.5"/>
						<line fill="none" stroke="#00A94F" x1="935" y1="14004.5" x2="940" y2="13999.5"/>
					</g>
				</g>
				<g>
					<circle id="circle_284_" fill="none" stroke="#00A94F" cx="952.5" cy="14002" r="2.5"/>
				</g>
				<g>
					<g id="cross_335_">
						<line fill="none" stroke="#00A94F" x1="965" y1="13999.5" x2="970" y2="14004.5"/>
						<line fill="none" stroke="#00A94F" x1="965" y1="14004.5" x2="970" y2="13999.5"/>
					</g>
				</g>
				<g>
					<g id="cross_336_">
						<line fill="none" stroke="#00A94F" x1="950" y1="14014.5" x2="955" y2="14019.5"/>
						<line fill="none" stroke="#00A94F" x1="950" y1="14019.5" x2="955" y2="14014.5"/>
					</g>
				</g>
				<g>
					<circle id="circle_285_" fill="none" stroke="#00A94F" cx="937.5" cy="14032" r="2.5"/>
				</g>
			</g>
			<g opacity="0.2">
				<line fill="none" stroke="#00A94F" x1="945" y1="13994.5" x2="945" y2="14039.5"/>
				<line fill="none" stroke="#00A94F" x1="960" y1="13994.5" x2="960" y2="14039.5"/>
				<line fill="none" stroke="#00A94F" x1="930" y1="14009.5" x2="975" y2="14009.5"/>
				<line fill="none" stroke="#00A94F" x1="930" y1="14024.5" x2="975" y2="14024.5"/>
			</g>
			<rect x="930" y="14084.5" fill="#FFFFFF" width="45" height="45"/>
			<g>
				<g>
					<g id="cross_337_">
						<line fill="none" stroke="#00A94F" x1="935" y1="14089.5" x2="940" y2="14094.5"/>
						<line fill="none" stroke="#00A94F" x1="935" y1="14094.5" x2="940" y2="14089.5"/>
					</g>
				</g>
				<g>
					<circle id="circle_286_" fill="none" stroke="#00A94F" cx="952.5" cy="14092" r="2.5"/>
				</g>
				<g>
					<g id="cross_338_">
						<line fill="none" stroke="#00A94F" x1="965" y1="14089.5" x2="970" y2="14094.5"/>
						<line fill="none" stroke="#00A94F" x1="965" y1="14094.5" x2="970" y2="14089.5"/>
					</g>
				</g>
				<g>
					<g id="cross_339_">
						<line fill="none" stroke="#00A94F" x1="965" y1="14104.5" x2="970" y2="14109.5"/>
						<line fill="none" stroke="#00A94F" x1="965" y1="14109.5" x2="970" y2="14104.5"/>
					</g>
				</g>
				<g>
					<circle id="circle_287_" fill="none" stroke="#00A94F" cx="937.5" cy="14122" r="2.5"/>
				</g>
			</g>
			<g opacity="0.2">
				<line fill="none" stroke="#00A94F" x1="945" y1="14084.5" x2="945" y2="14129.5"/>
				<line fill="none" stroke="#00A94F" x1="960" y1="14084.5" x2="960" y2="14129.5"/>
				<line fill="none" stroke="#00A94F" x1="930" y1="14099.5" x2="975" y2="14099.5"/>
				<line fill="none" stroke="#00A94F" x1="930" y1="14114.5" x2="975" y2="14114.5"/>
			</g>
			<rect x="930" y="14174.5" fill="#FFFFFF" width="45" height="45"/>
			<g>
				<g>
					<g id="cross_340_">
						<line fill="none" stroke="#00A94F" x1="935" y1="14179.5" x2="940" y2="14184.5"/>
						<line fill="none" stroke="#00A94F" x1="935" y1="14184.5" x2="940" y2="14179.5"/>
					</g>
				</g>
				<g>
					<circle id="circle_288_" fill="none" stroke="#00A94F" cx="952.5" cy="14182" r="2.5"/>
				</g>
				<g>
					<g id="cross_341_">
						<line fill="none" stroke="#00A94F" x1="965" y1="14179.5" x2="970" y2="14184.5"/>
						<line fill="none" stroke="#00A94F" x1="965" y1="14184.5" x2="970" y2="14179.5"/>
					</g>
				</g>
				<g>
					<circle id="circle_289_" fill="none" stroke="#00A94F" cx="937.5" cy="14212" r="2.5"/>
				</g>
				<g>
					<g id="cross_342_">
						<line fill="none" stroke="#00A94F" x1="950" y1="14209.5" x2="955" y2="14214.5"/>
						<line fill="none" stroke="#00A94F" x1="950" y1="14214.5" x2="955" y2="14209.5"/>
					</g>
				</g>
			</g>
			<g opacity="0.2">
				<line fill="none" stroke="#00A94F" x1="945" y1="14174.5" x2="945" y2="14219.5"/>
				<line fill="none" stroke="#00A94F" x1="960" y1="14174.5" x2="960" y2="14219.5"/>
				<line fill="none" stroke="#00A94F" x1="930" y1="14189.5" x2="975" y2="14189.5"/>
				<line fill="none" stroke="#00A94F" x1="930" y1="14204.5" x2="975" y2="14204.5"/>
			</g>
			<rect x="930" y="14264.5" fill="#FFFFFF" width="45" height="45"/>
			<g>
				<g>
					<g id="cross_343_">
						<line fill="none" stroke="#00A94F" x1="935" y1="14269.5" x2="940" y2="14274.5"/>
						<line fill="none" stroke="#00A94F" x1="935" y1="14274.5" x2="940" y2="14269.5"/>
					</g>
				</g>
				<g>
					<circle id="circle_290_" fill="none" stroke="#00A94F" cx="952.5" cy="14272" r="2.5"/>
				</g>
				<g>
					<g id="cross_344_">
						<line fill="none" stroke="#00A94F" x1="965" y1="14269.5" x2="970" y2="14274.5"/>
						<line fill="none" stroke="#00A94F" x1="965" y1="14274.5" x2="970" y2="14269.5"/>
					</g>
				</g>
				<g>
					<circle id="circle_291_" fill="none" stroke="#00A94F" cx="937.5" cy="14302" r="2.5"/>
				</g>
				<g>
					<g id="cross_345_">
						<line fill="none" stroke="#00A94F" x1="965" y1="14299.5" x2="970" y2="14304.5"/>
						<line fill="none" stroke="#00A94F" x1="965" y1="14304.5" x2="970" y2="14299.5"/>
					</g>
				</g>
			</g>
			<g opacity="0.2">
				<line fill="none" stroke="#00A94F" x1="945" y1="14264.5" x2="945" y2="14309.5"/>
				<line fill="none" stroke="#00A94F" x1="960" y1="14264.5" x2="960" y2="14309.5"/>
				<line fill="none" stroke="#00A94F" x1="930" y1="14279.5" x2="975" y2="14279.5"/>
				<line fill="none" stroke="#00A94F" x1="930" y1="14294.5" x2="975" y2="14294.5"/>
			</g>
			<rect x="930" y="14354.5" fill="#FFFFFF" width="45" height="45"/>
			<g>
				<g>
					<g id="cross_346_">
						<line fill="none" stroke="#00A94F" x1="935" y1="14359.5" x2="940" y2="14364.5"/>
						<line fill="none" stroke="#00A94F" x1="935" y1="14364.5" x2="940" y2="14359.5"/>
					</g>
				</g>
				<g>
					<circle id="circle_292_" fill="none" stroke="#00A94F" cx="952.5" cy="14362" r="2.5"/>
				</g>
				<g>
					<g id="cross_347_">
						<line fill="none" stroke="#00A94F" x1="965" y1="14359.5" x2="970" y2="14364.5"/>
						<line fill="none" stroke="#00A94F" x1="965" y1="14364.5" x2="970" y2="14359.5"/>
					</g>
				</g>
				<g>
					<g id="cross_348_">
						<line fill="none" stroke="#00A94F" x1="935" y1="14374.5" x2="940" y2="14379.5"/>
						<line fill="none" stroke="#00A94F" x1="935" y1="14379.5" x2="940" y2="14374.5"/>
					</g>
				</g>
				<g>
					<circle id="circle_293_" fill="none" stroke="#00A94F" cx="952.5" cy="14392" r="2.5"/>
				</g>
			</g>
			<g opacity="0.2">
				<line fill="none" stroke="#00A94F" x1="945" y1="14354.5" x2="945" y2="14399.5"/>
				<line fill="none" stroke="#00A94F" x1="960" y1="14354.5" x2="960" y2="14399.5"/>
				<line fill="none" stroke="#00A94F" x1="930" y1="14369.5" x2="975" y2="14369.5"/>
				<line fill="none" stroke="#00A94F" x1="930" y1="14384.5" x2="975" y2="14384.5"/>
			</g>
			<rect x="930" y="14444.5" fill="#FFFFFF" width="45" height="45"/>
			<g>
				<g>
					<g id="cross_349_">
						<line fill="none" stroke="#00A94F" x1="935" y1="14449.5" x2="940" y2="14454.5"/>
						<line fill="none" stroke="#00A94F" x1="935" y1="14454.5" x2="940" y2="14449.5"/>
					</g>
				</g>
				<g>
					<circle id="circle_294_" fill="none" stroke="#00A94F" cx="952.5" cy="14452" r="2.5"/>
				</g>
				<g>
					<g id="cross_350_">
						<line fill="none" stroke="#00A94F" x1="965" y1="14449.5" x2="970" y2="14454.5"/>
						<line fill="none" stroke="#00A94F" x1="965" y1="14454.5" x2="970" y2="14449.5"/>
					</g>
				</g>
				<g>
					<g id="cross_351_">
						<line fill="none" stroke="#00A94F" x1="950" y1="14464.5" x2="955" y2="14469.5"/>
						<line fill="none" stroke="#00A94F" x1="950" y1="14469.5" x2="955" y2="14464.5"/>
					</g>
				</g>
				<g>
					<circle id="circle_295_" fill="none" stroke="#00A94F" cx="952.5" cy="14482" r="2.5"/>
				</g>
			</g>
			<g opacity="0.2">
				<line fill="none" stroke="#00A94F" x1="945" y1="14444.5" x2="945" y2="14489.5"/>
				<line fill="none" stroke="#00A94F" x1="960" y1="14444.5" x2="960" y2="14489.5"/>
				<line fill="none" stroke="#00A94F" x1="930" y1="14459.5" x2="975" y2="14459.5"/>
				<line fill="none" stroke="#00A94F" x1="930" y1="14474.5" x2="975" y2="14474.5"/>
			</g>
			<rect x="930" y="14534.5" fill="#FFFFFF" width="45" height="45"/>
			<g>
				<g>
					<g id="cross_352_">
						<line fill="none" stroke="#00A94F" x1="935" y1="14539.5" x2="940" y2="14544.5"/>
						<line fill="none" stroke="#00A94F" x1="935" y1="14544.5" x2="940" y2="14539.5"/>
					</g>
				</g>
				<g>
					<circle id="circle_296_" fill="none" stroke="#00A94F" cx="952.5" cy="14542" r="2.5"/>
				</g>
				<g>
					<g id="cross_353_">
						<line fill="none" stroke="#00A94F" x1="965" y1="14539.5" x2="970" y2="14544.5"/>
						<line fill="none" stroke="#00A94F" x1="965" y1="14544.5" x2="970" y2="14539.5"/>
					</g>
				</g>
				<g>
					<g id="cross_354_">
						<line fill="none" stroke="#00A94F" x1="935" y1="14569.5" x2="940" y2="14574.5"/>
						<line fill="none" stroke="#00A94F" x1="935" y1="14574.5" x2="940" y2="14569.5"/>
					</g>
				</g>
				<g>
					<circle id="circle_297_" fill="none" stroke="#00A94F" cx="952.5" cy="14572" r="2.5"/>
				</g>
			</g>
			<g opacity="0.2">
				<line fill="none" stroke="#00A94F" x1="945" y1="14534.5" x2="945" y2="14579.5"/>
				<line fill="none" stroke="#00A94F" x1="960" y1="14534.5" x2="960" y2="14579.5"/>
				<line fill="none" stroke="#00A94F" x1="930" y1="14549.5" x2="975" y2="14549.5"/>
				<line fill="none" stroke="#00A94F" x1="930" y1="14564.5" x2="975" y2="14564.5"/>
			</g>
		</g>
		<g>
			<path id="_x31_6-55_1_" opacity="0.2" fill="none" stroke="#000000" enable-background="new    " d="M-15,13781.234
				c42.53-20.215,93.834-34.234,165-34.234"/>
			<path id="_x31_6-56_1_" opacity="0.2" fill="none" stroke="#000000" enable-background="new    " d="M-15,14072.766
				c42.53,20.215,93.834,34.234,165,34.234"/>
			<path id="_x31_6-57_1_" opacity="0.2" fill="none" stroke="#000000" enable-background="new    " d="M-15,14364.3
				c42.529,60.642,93.834,102.7,165,102.7"/>
			<path id="_x32_0-54_2_" opacity="0.2" fill="none" stroke="#00A94F" enable-background="new    " d="M-15,14298.062
				c16.762-274.867,34.888-516.536,55.056-708.477"/>
			<path id="_x32_7-56_1_" opacity="0.2" fill="none" stroke="#00A94F" enable-background="new    " d="M56.946,14624.5
				c26.993-327.352,57.552-517.5,93.054-517.5"/>
			<path id="_x33_1-55_1_" opacity="0.2" fill="none" stroke="#000000" enable-background="new    " d="M35.463,14624.5
				C67.51,14078.758,104.738,13747,150,13747"/>
			<path id="_x33_7-57_1_" opacity="0.2" fill="none" stroke="#E24486" enable-background="new    " d="M98.02,14624.5
				c16.1-102.313,33.36-157.5,51.98-157.5"/>
			<path id="_x35_5-167" opacity="0.2" fill="none" stroke="#000000" enable-background="new    " d="M225,13747
				c345,0,345-90,690-90"/>
			<path id="_x35_5-168" opacity="0.2" fill="none" stroke="#000000" enable-background="new    " d="M225,13747c345,0,345,0,690,0"
				/>
			<path id="_x35_5-169" opacity="0.2" fill="none" stroke="#000000" enable-background="new    " d="M225,13747
				c345,0,345,90,690,90"/>
			<path id="_x35_6-170" opacity="0.2" fill="none" stroke="#000000" enable-background="new    " d="M225,14107
				c345,0,345-180,690-180"/>
			<path id="_x35_6-171" opacity="0.2" fill="none" stroke="#000000" enable-background="new    " d="M225,14107
				c345,0,345-90,690-90"/>
			<path id="_x35_6-172" opacity="0.2" fill="none" stroke="#000000" enable-background="new    " d="M225,14107c345,0,345,0,690,0"
				/>
			<path id="_x35_6-173" opacity="0.2" fill="none" stroke="#000000" enable-background="new    " d="M225,14107
				c345,0,345,90,690,90"/>
			<path id="_x35_6-174" opacity="0.2" fill="none" stroke="#000000" enable-background="new    " d="M225,14107
				c345,0,345,180,690,180"/>
			<path id="_x35_7-175" opacity="0.2" fill="none" stroke="#000000" enable-background="new    " d="M225,14467
				c345,0,345-90,690-90"/>
			<path id="_x35_7-176" opacity="0.2" fill="none" stroke="#000000" enable-background="new    " d="M225,14467c345,0,345,0,690,0"
				/>
			<path id="_x35_7-177" opacity="0.2" fill="none" stroke="#000000" enable-background="new    " d="M225,14467
				c345,0,345,90,690,90"/>
			<path id="_x35_9-167_1_" opacity="0.2" fill="none" stroke="#000000" enable-background="new    " d="M615.523,14624.5
				C688.912,14101.996,772.545,13657,915,13657"/>
			<path id="_x36_0-163_1_" opacity="0.2" fill="none" stroke="#00A94F" enable-background="new    " d="M580.278,14624.5
				c33.85-369.713,68.227-733.666,108.317-1035"/>
			<path id="_x36_1-170_1_" opacity="0.2" fill="none" stroke="#000000" enable-background="new    " d="M676.452,14624.5
				C736.984,14218.668,810.02,13927,915,13927"/>
			<path id="_x36_2-175_1_" opacity="0.2" fill="none" stroke="#000000" enable-background="new    " d="M762.107,14624.5
				c42.889-154.126,92.627-247.5,152.893-247.5"/>
			<path id="_x36_3-172_1_" opacity="0.2" fill="none" stroke="#00A94F" enable-background="new    " d="M717.522,14624.5
				C769.945,14312.148,832.643,14107,915,14107"/>
			<path id="_x36_5-162_1_" opacity="0.2" fill="none" stroke="#000000" enable-background="new    " d="M617.474,14624.5
				c23.451-372.279,47.985-726.17,75.177-1035"/>
			<path id="_x36_6-162_1_" opacity="0.2" fill="none" stroke="#00A94F" enable-background="new    " d="M619.519,14624.5
				c23.257-372.768,47.62-726.501,74.609-1035"/>
			<path id="_x36_7-171_1_" opacity="0.2" fill="none" stroke="#000000" enable-background="new    " d="M722.908,14624.5
				C774.234,14256.285,835.444,14017,915,14017"/>
			<path id="_x36_8-176_1_" opacity="0.2" fill="none" stroke="#000000" enable-background="new    " d="M806.73,14624.5
				c32.086-100.547,67.805-157.5,108.27-157.5"/>
			<path id="_x36_9-171_1_" opacity="0.2" fill="none" stroke="#00A94F" enable-background="new    " d="M726.203,14624.5
				C776.852,14255.362,837.14,14017,915,14017"/>
			<path id="_x37_1-163_1_" opacity="0.2" fill="none" stroke="#000000" enable-background="new    " d="M644.631,14624.5
				c26.101-389.411,54.108-745.497,85.925-1035"/>
			<path id="_x37_1-165_1_" opacity="0.2" fill="none" stroke="#00A94F" enable-background="new    " d="M680.696,14624.5
				c42.463-476.871,91.178-855.877,152.664-1035"/>
			<path id="_x37_2-167_1_" opacity="0.2" fill="none" stroke="#00A94F" enable-background="new    " d="M695.906,14624.5
				C752.634,14051.068,821.015,13657,915,13657"/>
			<path id="_x37_3-172_1_" opacity="0.2" fill="none" stroke="#000000" enable-background="new    " d="M743.481,14624.5
				C790.487,14306.125,845.805,14107,915,14107"/>
			<path id="_x37_4-175_1_" opacity="0.2" fill="none" stroke="#00A94F" enable-background="new    " d="M790.055,14624.5
				c36.286-156.641,77.33-247.5,124.945-247.5"/>
			<path id="_x37_5-170_1_" opacity="0.2" fill="none" stroke="#00A94F" enable-background="new    " d="M725.212,14624.5
				C776.064,14200.992,836.631,13927,915,13927"/>
			<path id="_x37_7-168_1_" opacity="0.2" fill="none" stroke="#000000" enable-background="new    " d="M711.015,14624.5
				C764.749,14097.629,829.207,13747,915,13747"/>
			<path id="_x37_8-166_1_" opacity="0.2" fill="none" stroke="#00A94F" enable-background="new    " d="M698.112,14624.5
				c48.764-544.006,106.18-939.051,180.969-1035"/>
			<path id="_x37_9-177_1_" opacity="0.2" fill="none" stroke="#000000" enable-background="new    " d="M848.834,14624.5
				c20.589-43.926,42.57-67.5,66.166-67.5"/>
			<path id="_x38_0-174_1_" opacity="0.2" fill="none" stroke="#00A94F" enable-background="new    " d="M778.959,14624.5
				c38.972-212.289,83.506-337.5,136.041-337.5"/>
			<path id="_x38_2-169_1_" opacity="0.2" fill="none" stroke="#000000" enable-background="new    " d="M725.697,14624.5
				C776.45,14146.171,836.881,13837,915,13837"/>
			<path id="_x38_3-165_1_" opacity="0.2" fill="none" stroke="#00A94F" enable-background="new    " d="M698.618,14624.5
				c39.816-483.062,85.407-857.674,141.502-1035"/>
			<path id="_x38_4-173_1_" opacity="0.2" fill="none" stroke="#000000" enable-background="new    " d="M768.954,14624.5
				c41.32-267.332,88.96-427.5,146.046-427.5"/>
			<path id="_x38_5-173_1_" opacity="0.2" fill="none" stroke="#00A94F" enable-background="new    " d="M769.958,14624.5
				c41.087-267.492,88.417-427.5,145.042-427.5"/>
			<path id="_x38_7-166_1_" opacity="0.2" fill="none" stroke="#000000" enable-background="new    " d="M709.917,14624.5
				c46.689-548.949,101.462-939.713,171.338-1034.999"/>
			<path id="_x38_8-168_1_" opacity="0.2" fill="none" stroke="#00A94F" enable-background="new    " d="M724.958,14624.5
				C775.862,14091.803,836.5,13747,915,13747"/>
			<path id="_x38_9-164_1_" opacity="0.2" fill="none" stroke="#E24486" enable-background="new    " d="M684.697,14624.5
				c27.65-414.957,57.987-772.435,92.761-1035"/>
			<path id="_x39_0-174_1_" opacity="0.2" fill="none" stroke="#000000" enable-background="new    " d="M788.211,14624.5
				c36.738-213.387,78.365-337.5,126.789-337.5"/>
			<path id="_x39_1-177_1_" opacity="0.2" fill="none" stroke="#00A94F" enable-background="new    " d="M854.712,14624.5
				c18.883-44.031,38.924-67.5,60.288-67.5"/>
			<path id="_x31_67-354" opacity="0.2" fill="none" stroke="#000000" enable-background="new    " d="M990,13657
				c66.023,0,119.412,9.889,165.001,25.88"/>
			<path id="_x31_67-355" opacity="0.2" fill="none" stroke="#000000" enable-background="new    " d="M990,13657
				c66.023,0,119.411,13.184,165,34.506"/>
			<path id="_x31_67-356" opacity="0.2" fill="none" stroke="#000000" enable-background="new    " d="M990,13657
				c66.022,0,119.41,16.48,164.999,43.132"/>
			<path id="_x31_68-344" opacity="0.2" fill="none" stroke="#000000" enable-background="new    " d="M990,13747
				c66.023,0,119.411-26.369,165-69.014"/>
			<path id="_x31_68-351" opacity="0.2" fill="none" stroke="#00A94F" enable-background="new    " d="M990,13747
				c66.023,0,119.412-3.296,165.001-8.627"/>
			<path id="_x31_68-357" opacity="0.2" fill="none" stroke="#000000" enable-background="new    " d="M990,13747
				c66.023,0,119.411,16.48,165,43.133"/>
			<path id="_x31_68-358" opacity="0.2" fill="none" stroke="#000000" enable-background="new    " d="M990,13747
				c66.023,0,119.412,19.776,165.001,51.76"/>
			<path id="_x31_69-347" opacity="0.2" fill="none" stroke="#000000" enable-background="new    " d="M990,13837
				c66.023,0,119.411-19.776,165-51.76"/>
			<path id="_x31_69-359" opacity="0.2" fill="none" stroke="#000000" enable-background="new    " d="M990,13837
				c66.023,0,119.411,19.776,165,51.76"/>
			<path id="_x31_70-354" opacity="0.2" fill="none" stroke="#000000" enable-background="new    " d="M990,13927
				c66.022,0,119.41,0,164.999,0"/>
			<path id="_x31_70-343" opacity="0.2" fill="none" stroke="#00A94F" enable-background="new    " d="M990,13927
				c66.023,0,119.411-36.257,165-94.893"/>
			<path id="_x31_70-360" opacity="0.2" fill="none" stroke="#000000" enable-background="new    " d="M990,13927
				c66.022,0,119.41,19.775,164.999,51.758"/>
			<path id="_x31_70-361" opacity="0.2" fill="none" stroke="#000000" enable-background="new    " d="M990,13927
				c66.023,0,119.411,23.072,165,60.387"/>
			<path id="_x31_71-337" opacity="0.2" fill="none" stroke="#000000" enable-background="new    " d="M990,14017
				c66.023,0,119.411-59.329,165-155.279"/>
			<path id="_x31_71-339" opacity="0.2" fill="none" stroke="#00A94F" enable-background="new    " d="M990,14017
				c66.023,0,119.411-52.736,165-138.025"/>
			<path id="_x31_71-362" opacity="0.2" fill="none" stroke="#000000" enable-background="new    " d="M990,14017
				c66.023,0,119.411,23.072,165,60.387"/>
			<path id="_x31_71-363" opacity="0.2" fill="none" stroke="#000000" enable-background="new    " d="M990,14017
				c66.023,0,119.411,26.368,165,69.014"/>
			<path id="_x31_72-341" opacity="0.2" fill="none" stroke="#000000" enable-background="new    " d="M990,14107
				c66.023,0,119.411-49.441,165-129.399"/>
			<path id="_x31_72-356" opacity="0.2" fill="none" stroke="#00A94F" enable-background="new    " d="M990,14107
				c66.022,0,119.41,0,164.999,0"/>
			<path id="_x31_72-364" opacity="0.2" fill="none" stroke="#000000" enable-background="new    " d="M990,14107
				c66.023,0,119.411,26.368,165,69.014"/>
			<path id="_x31_72-361" opacity="0.2" fill="none" stroke="#00A94F" enable-background="new    " d="M990,14107
				c66.022,0,119.41,16.479,164.999,43.132"/>
			<path id="_x31_73-349" opacity="0.2" fill="none" stroke="#000000" enable-background="new    " d="M990,14197
				c66.023,0,119.411-26.369,165-69.014"/>
			<path id="_x31_73-359" opacity="0.2" fill="none" stroke="#000000" enable-background="new    " d="M990,14197
				c66.022,0,119.41,6.592,164.999,17.253"/>
			<path id="_x31_73-350" opacity="0.2" fill="none" stroke="#00A94F" enable-background="new    " d="M990,14197
				c66.023,0,119.411-23.072,165-60.387"/>
			<path id="_x31_73-365" opacity="0.2" fill="none" stroke="#000000" enable-background="new    " d="M990,14197
				c66.023,0,119.411,26.368,165,69.014"/>
			<path id="_x31_74-352" opacity="0.2" fill="none" stroke="#000000" enable-background="new    " d="M990,14287
				c66.023,0,119.411-19.776,165-51.76"/>
			<path id="_x31_74-358" opacity="0.2" fill="none" stroke="#00A94F" enable-background="new    " d="M990,14287
				c66.022,0,119.41,0,164.999,0"/>
			<path id="_x31_74-346" opacity="0.2" fill="none" stroke="#E24486" enable-background="new    " d="M990,14287
				c66.023,0,119.411-39.553,165-103.52"/>
			<path id="_x31_74-366" opacity="0.2" fill="none" stroke="#000000" enable-background="new    " d="M990,14287
				c66.023,0,119.411,26.368,165,69.013"/>
			<path id="_x31_75-355" opacity="0.2" fill="none" stroke="#000000" enable-background="new    " d="M990,14377
				c66.023,0,119.411-13.184,165-34.506"/>
			<path id="_x31_75-342" opacity="0.2" fill="none" stroke="#00A94F" enable-background="new    " d="M990,14377
				c66.023,0,119.411-56.033,165-146.652"/>
			<path id="_x31_75-360" opacity="0.2" fill="none" stroke="#000000" enable-background="new    " d="M990,14377
				c66.022,0,119.41,3.296,164.999,8.627"/>
			<path id="_x31_75-364" opacity="0.2" fill="none" stroke="#00A94F" enable-background="new    " d="M990,14377
				c66.023,0,119.411,16.48,165,43.133"/>
			<path id="_x31_76-338" opacity="0.2" fill="none" stroke="#000000" enable-background="new    " d="M990,14467
				c66.023,0,119.411-72.514,165-189.785"/>
			<path id="_x31_76-362" opacity="0.2" fill="none" stroke="#000000" enable-background="new    " d="M990,14467
				c66.022,0,119.41,6.592,164.999,17.253"/>
			<path id="_x31_77-345" opacity="0.2" fill="none" stroke="#00A94F" enable-background="new    " d="M990,14557
				c66.023,0,119.411-52.736,165-138.025"/>
			<path id="_x31_77-357" opacity="0.2" fill="none" stroke="#000000" enable-background="new    " d="M990,14557
				c66.023,0,119.411-13.184,165-34.506"/>
			<path id="_x31_77-353" opacity="0.2" fill="none" stroke="#00A94F" enable-background="new    " d="M990,14557
				c66.023,0,119.411-26.368,165-69.013"/>
			<path id="_x31_77-366" opacity="0.2" fill="none" stroke="#00A94F" enable-background="new    " d="M990,14557
				c66.023,0,119.412,16.48,165.001,43.134"/>
		</g>
	</g>
</g>
</svg>
