<?xml version="1.0" encoding="utf-8"?>
<!-- Generator: Adobe Illustrator 16.0.0, SVG Export Plug-In . SVG Version: 6.00 Build 0)  -->
<!DOCTYPE svg PUBLIC "-//W3C//DTD SVG 1.1//EN" "http://www.w3.org/Graphics/SVG/1.1/DTD/svg11.dtd">
<svg version="1.1" xmlns="http://www.w3.org/2000/svg" xmlns:xlink="http://www.w3.org/1999/xlink" x="0px" y="0px" width="1170px"
	 height="470px" viewBox="0 0 1170 470" enable-background="new 0 0 1170 470" xml:space="preserve">
<symbol  id="Call_Transfer" viewBox="-24 -24 48 48">
	<polygon fill="none" points="24,-24 -24,-24 -24,24 24,24 	"/>
	<path fill="none" stroke="#231F20" stroke-width="2" stroke-linecap="round" stroke-linejoin="round" stroke-miterlimit="10" d="
		M-8.644-13.275c-0.762-0.304-1.718-0.042-2.48,0.176c-0.99,0.294-1.849,0.739-2.58,1.47c-1.012,1.012-1.512,2.339-2.099,3.601
		c-0.426,0.902-0.773,1.84-1.002,2.808c-0.707,2.992-0.707,7.452,0.001,10.447c0.227,0.968,0.576,1.903,1,2.807
		c0.588,1.264,1.087,2.59,2.1,3.603c0.729,0.729,1.589,1.175,2.579,1.469c0.763,0.218,1.719,0.479,2.482,0.174
		c0.521-0.196,1.458-0.783,1.85-1.176c0.076-0.076,0.152-0.152,0.195-0.261c0.152-0.304-0.141-1.077-0.251-1.403
		C-7.12,9.469-7.414,8.5-7.663,7.532C-7.773,7.074-7.795,6.4-8.132,6.063c-0.664-0.664-3.602,0.337-4.189-0.25
		c-0.294-0.295-0.402-0.948-0.513-1.361c-0.88-3.079-0.881-5.822,0.001-8.9c0.108-0.414,0.217-1.067,0.51-1.36
		c0.589-0.589,3.526,0.413,4.189-0.25c0.337-0.338,0.359-1.013,0.47-1.471c0.249-0.969,0.542-1.936,0.815-2.904
		c0.109-0.326,0.402-1.1,0.249-1.403c-0.042-0.108-0.119-0.186-0.195-0.262C-7.185-12.49-8.121-13.078-8.644-13.275z"/>
	<path fill="none" stroke="#231F20" stroke-width="2" stroke-linecap="round" stroke-linejoin="round" stroke-miterlimit="10" d="
		M8.644,13.279c0.762,0.304,1.718,0.042,2.48-0.176c0.99-0.294,1.849-0.739,2.58-1.47c1.012-1.012,1.512-2.339,2.099-3.601
		c0.426-0.902,0.773-1.84,1.002-2.808c0.707-2.992,0.707-7.452-0.001-10.447c-0.227-0.968-0.576-1.903-1-2.807
		c-0.588-1.264-1.087-2.59-2.1-3.603c-0.729-0.729-1.589-1.175-2.579-1.469c-0.763-0.218-1.719-0.479-2.482-0.174
		c-0.521,0.196-1.458,0.783-1.85,1.176c-0.076,0.076-0.152,0.152-0.195,0.261c-0.152,0.304,0.141,1.077,0.251,1.403
		C7.12-9.465,7.414-8.496,7.663-7.528C7.773-7.07,7.795-6.396,8.132-6.06c0.664,0.664,3.602-0.337,4.189,0.25
		c0.294,0.295,0.402,0.948,0.513,1.361c0.88,3.079,0.881,5.822-0.001,8.9c-0.108,0.414-0.217,1.067-0.51,1.36
		c-0.589,0.589-3.526-0.413-4.189,0.25C7.795,6.4,7.773,7.075,7.662,7.533c-0.249,0.969-0.542,1.936-0.815,2.904
		c-0.109,0.326-0.402,1.1-0.249,1.403c0.042,0.108,0.119,0.186,0.195,0.262C7.185,12.494,8.121,13.082,8.644,13.279z"/>
	
		<polyline fill="none" stroke="#231F20" stroke-width="2" stroke-linecap="round" stroke-linejoin="round" stroke-miterlimit="10" points="
		1.27,-3.065 4.334,-0.001 1.27,3.063 	"/>
	
		<line fill="none" stroke="#231F20" stroke-width="2" stroke-linecap="round" stroke-linejoin="round" stroke-miterlimit="10" x1="-4.333" y1="-0.001" x2="4.333" y2="-0.001"/>
</symbol>
<symbol  id="Chat_1_" viewBox="-24 -24 48 48">
	<polygon fill="none" points="24,-24 -24,-24 -24,24 24,24 	"/>
	<path fill="none" stroke="#231F20" stroke-width="2" stroke-linecap="round" stroke-linejoin="round" stroke-miterlimit="10" d="
		M-13-12.998v-4.334l4.334,4.334H2.168c1.195,0,2.166,0.97,2.166,2.167V2.167c0,1.196-0.969,2.167-2.166,2.167h-17.334
		c-1.195,0-2.166-0.97-2.166-2.167v-12.998c0-1.196,0.969-2.167,2.166-2.167H-13z"/>
	<path fill="none" stroke="#231F20" stroke-width="2" stroke-linecap="round" stroke-linejoin="round" stroke-miterlimit="10" d="
		M-4.334,4.334v10.833c0,1.196,0.971,2.166,2.166,2.166h17.334c1.197,0,2.166-0.97,2.166-2.166L17.33,2.168
		c0-1.196-0.969-2.166-2.166-2.166L13,0.001v-4.334L8.666,0.001H4.334"/>
</symbol>
<symbol  id="Comment" viewBox="-24 -24 48 48">
	<polygon fill="none" points="24,-24 -24,-24 -24,24 24,24 	"/>
	<path fill="none" stroke="#231F20" stroke-width="2" stroke-linecap="round" stroke-linejoin="round" stroke-miterlimit="10" d="
		M-10.402-10.399v-6.935l6.935,6.935h17.335c1.913,0,3.466,1.552,3.466,3.468v20.799c0,1.914-1.55,3.467-3.466,3.467h-27.736
		c-1.913,0-3.466-1.552-3.466-3.467V-6.932c0-1.915,1.55-3.468,3.466-3.468H-10.402z"/>
</symbol>
<symbol  id="Comment_2" viewBox="-24 -24 48 48">
	<polygon fill="none" points="24,-24 -24,-24 -24,24 24,24 	"/>
	<path fill="none" stroke="#231F20" stroke-width="2" stroke-linecap="round" stroke-linejoin="round" stroke-miterlimit="10" d="
		M10.402-10.399v-6.935l-6.935,6.935h-17.335c-1.913,0-3.466,1.552-3.466,3.468v20.799c0,1.914,1.55,3.467,3.466,3.467h27.736
		c1.913,0,3.466-1.552,3.466-3.467V-6.932c0-1.915-1.55-3.468-3.466-3.468H10.402z"/>
</symbol>
<symbol  id="Correspondence" viewBox="-24 -24 48 48">
	<polygon fill="none" points="24,-24 -24,-24 -24,24 24,24 	"/>
	<polygon opacity="0.5" fill="#231F20" points="-13,7.584 -17.333,4.334 -13,1.084 	"/>
	<polygon opacity="0.5" fill="#231F20" points="12.998,1.084 17.331,4.334 12.998,7.584 	"/>
	
		<polygon fill="none" stroke="#231F20" stroke-width="2" stroke-linecap="round" stroke-linejoin="round" stroke-miterlimit="10" points="
		17.333,-17.334 -17.333,-17.334 -17.333,4.334 -13,7.584 -13,17.334 13,17.334 12.998,7.585 17.333,4.334 	"/>
	
		<polyline fill="none" stroke="#231F20" stroke-width="2" stroke-linecap="round" stroke-linejoin="round" stroke-miterlimit="10" points="
		17.333,4.334 0,-8.666 -17.333,4.334 	"/>
	
		<line fill="none" stroke="#231F20" stroke-width="2" stroke-linecap="round" stroke-linejoin="round" stroke-miterlimit="10" x1="-13" y1="7.584" x2="-13" y2="1.084"/>
	
		<line fill="none" stroke="#231F20" stroke-width="2" stroke-linecap="round" stroke-linejoin="round" stroke-miterlimit="10" x1="12.998" y1="7.585" x2="12.998" y2="1.084"/>
</symbol>
<symbol  id="Correspondence_2" viewBox="-24 -24 48 48">
	<polygon fill="none" points="24,-24 -24,-24 -24,24 24,24 	"/>
	<polygon opacity="0.5" fill="#231F20" points="-13,7.584 -17.333,4.334 -13,1.084 	"/>
	<polygon opacity="0.5" fill="#231F20" points="12.998,1.084 17.331,4.334 12.998,7.584 	"/>
	
		<polygon fill="none" stroke="#231F20" stroke-width="2" stroke-linecap="round" stroke-linejoin="round" stroke-miterlimit="10" points="
		17.333,-17.334 -17.333,-17.334 -17.333,4.334 -13,7.584 -13,17.334 13,17.334 12.998,7.585 17.333,4.334 	"/>
	
		<polyline fill="none" stroke="#231F20" stroke-width="2" stroke-linecap="round" stroke-linejoin="round" stroke-miterlimit="10" points="
		17.333,4.334 0,-8.666 -17.333,4.334 	"/>
	
		<line fill="none" stroke="#231F20" stroke-width="2" stroke-linecap="round" stroke-linejoin="round" stroke-miterlimit="10" x1="-13" y1="7.584" x2="-13" y2="1.084"/>
	
		<line fill="none" stroke="#231F20" stroke-width="2" stroke-linecap="round" stroke-linejoin="round" stroke-miterlimit="10" x1="12.998" y1="7.585" x2="12.998" y2="1.084"/>
	
		<line fill="none" stroke="#231F20" stroke-width="2" stroke-linecap="round" stroke-linejoin="round" stroke-miterlimit="10" x1="-7.667" y1="13" x2="7.667" y2="13"/>
	
		<line fill="none" stroke="#231F20" stroke-width="2" stroke-linecap="round" stroke-linejoin="round" stroke-miterlimit="10" x1="-7.667" y1="8.666" x2="3.333" y2="8.666"/>
	
		<line fill="none" stroke="#231F20" stroke-width="2" stroke-linecap="round" stroke-linejoin="round" stroke-miterlimit="10" x1="-7.667" y1="4.334" x2="7.667" y2="4.334"/>
	
		<line fill="none" stroke="#231F20" stroke-width="2" stroke-linecap="round" stroke-linejoin="round" stroke-miterlimit="10" x1="-7.667" y1="0" x2="3.333" y2="0"/>
	
		<line fill="none" stroke="#231F20" stroke-width="2" stroke-linecap="round" stroke-linejoin="round" stroke-miterlimit="10" x1="-5.776" y1="-4.334" x2="5.776" y2="-4.334"/>
</symbol>
<symbol  id="Envelope" viewBox="-24 -24 48 48">
	<polygon fill="none" points="24,-24 -24,-24 -24,24 24,24 	"/>
	<g>
		
			<polygon fill="none" stroke="#231F20" stroke-width="2" stroke-linecap="round" stroke-linejoin="round" stroke-miterlimit="10" points="
			17.333,-10.834 -17.333,-10.834 -17.333,10.833 17.333,10.833 		"/>
		
			<polyline fill="none" stroke="#231F20" stroke-width="2" stroke-linecap="round" stroke-linejoin="round" stroke-miterlimit="10" points="
			17.333,10.833 0,-2.167 -17.333,10.833 		"/>
	</g>
</symbol>
<symbol  id="Incomming_Call" viewBox="-24 -24 48 48">
	<polygon fill="none" points="24,-24 -24,-24 -24,24 24,24 	"/>
	<path fill="none" stroke="#231F20" stroke-width="2" stroke-linecap="round" stroke-linejoin="round" stroke-miterlimit="10" d="
		M16.57-13.469c-0.517-1.207-1.895-1.993-3.002-2.608c-1.453-0.788-2.929-1.257-4.581-1.257c-2.29,0-4.357,0.937-6.449,1.699
		c-1.503,0.541-2.955,1.207-4.31,2.043c-4.185,2.586-9.232,7.633-11.819,11.82c-0.837,1.354-1.5,2.805-2.044,4.307
		c-0.763,2.095-1.699,4.162-1.699,6.452c0,1.649,0.468,3.127,1.256,4.58c0.615,1.108,1.403,2.485,2.611,3.003
		c0.812,0.369,2.535,0.764,3.423,0.764c0.171,0,0.342,0,0.515-0.074c0.517-0.173,1.059-1.379,1.304-1.873
		c0.789-1.401,1.552-2.83,2.365-4.208c0.394-0.642,1.132-1.429,1.132-2.191c0-1.502-4.456-3.694-4.456-5.022
		c0-0.666,0.616-1.527,0.959-2.12C-5.736-2.635-2.635-5.738,1.847-8.223C2.438-8.568,3.3-9.184,3.963-9.184
		c1.331,0,3.522,4.456,5.023,4.456c0.763,0,1.551-0.74,2.193-1.132c1.378-0.813,2.806-1.578,4.209-2.363
		c0.492-0.246,1.699-0.789,1.872-1.307c0.073-0.171,0.073-0.344,0.073-0.516C17.333-10.932,16.94-12.656,16.57-13.469z"/>
	
		<line fill="none" stroke="#231F20" stroke-width="2" stroke-linecap="round" stroke-linejoin="round" stroke-miterlimit="40" x1="17.334" y1="17.301" x2="4.333" y2="4.301"/>
	
		<polyline fill="none" stroke="#231F20" stroke-width="2" stroke-linecap="round" stroke-linejoin="round" stroke-miterlimit="40" points="
		10.85,4.301 4.333,4.302 4.333,10.817 	"/>
</symbol>
<symbol  id="No_Phone" viewBox="-24 -24 48 48">
	<polygon fill="none" points="24,-24 -24,-24 -24,24 24,24 	"/>
	<path fill="none" stroke="#231F20" stroke-width="2" stroke-linecap="round" stroke-linejoin="round" stroke-miterlimit="10" d="
		M-10.985-5.331c-1.007,1.206-1.898,2.415-2.606,3.56c-0.837,1.354-1.501,2.805-2.044,4.307c-0.763,2.095-1.699,4.162-1.699,6.452
		c0,1.649,0.469,3.127,1.257,4.58c0.615,1.108,1.403,2.485,2.61,3.003c0.812,0.369,2.535,0.764,3.424,0.764
		c0.17,0,0.342,0,0.515-0.074c0.517-0.173,1.06-1.379,1.304-1.873c0.789-1.401,1.553-2.83,2.365-4.208
		c0.394-0.642,1.132-1.429,1.132-2.191c0-1.502-4.456-3.694-4.456-5.022c0-0.666,0.617-1.527,0.959-2.12
		c0.536-0.965,1.1-1.865,1.7-2.71 M-0.864-6.523c0.845-0.601,1.746-1.164,2.711-1.699C2.438-8.568,3.3-9.184,3.963-9.184
		c1.332,0,3.522,4.456,5.023,4.456c0.764,0,1.552-0.74,2.193-1.132c1.379-0.813,2.806-1.578,4.209-2.363
		c0.492-0.246,1.699-0.789,1.871-1.307c0.074-0.171,0.074-0.344,0.074-0.516c0-0.887-0.394-2.611-0.764-3.424
		c-0.518-1.207-1.895-1.993-3.003-2.608c-1.453-0.788-2.929-1.257-4.581-1.257c-2.289,0-4.356,0.937-6.449,1.699
		c-1.503,0.541-2.955,1.207-4.309,2.043C-2.912-12.887-4.117-12-5.317-10.998"/>
	
		<line fill="none" stroke="#231F20" stroke-width="2" stroke-linecap="round" stroke-linejoin="round" stroke-miterlimit="10" x1="17.334" y1="17.334" x2="-17.334" y2="-17.334"/>
</symbol>
<symbol  id="Opened_Mail" viewBox="-24 -24 48 48">
	<polygon fill="none" points="24,-24 -24,-24 -24,24 24,24 	"/>
	
		<polygon fill="none" stroke="#231F20" stroke-width="2" stroke-linecap="round" stroke-linejoin="round" stroke-miterlimit="10" points="
		17.333,-17.334 -17.333,-17.334 -17.333,4.334 0,17.334 17.333,4.334 	"/>
	
		<polyline fill="none" stroke="#231F20" stroke-width="2" stroke-linecap="round" stroke-linejoin="round" stroke-miterlimit="10" points="
		17.333,4.334 0,-8.666 -17.333,4.334 	"/>
</symbol>
<symbol  id="Outgoing_Call" viewBox="-24 -24 48 48">
	<polygon fill="none" points="24,-24 -24,-24 -24,24 24,24 	"/>
	<path fill="none" stroke="#231F20" stroke-width="2" stroke-linecap="round" stroke-linejoin="round" stroke-miterlimit="10" d="
		M16.57-13.469c-0.517-1.207-1.895-1.993-3.002-2.608c-1.453-0.788-2.929-1.257-4.581-1.257c-2.29,0-4.357,0.937-6.449,1.699
		c-1.503,0.541-2.955,1.207-4.31,2.043c-4.185,2.586-9.232,7.633-11.819,11.82c-0.837,1.354-1.5,2.805-2.044,4.307
		c-0.763,2.095-1.699,4.162-1.699,6.452c0,1.649,0.468,3.127,1.256,4.58c0.615,1.108,1.403,2.485,2.611,3.003
		c0.812,0.369,2.535,0.764,3.423,0.764c0.171,0,0.342,0,0.515-0.074c0.517-0.173,1.059-1.379,1.304-1.873
		c0.789-1.401,1.552-2.83,2.365-4.208c0.394-0.642,1.132-1.429,1.132-2.191c0-1.502-4.456-3.694-4.456-5.022
		c0-0.666,0.616-1.527,0.959-2.12C-5.736-2.635-2.635-5.738,1.847-8.223C2.438-8.568,3.3-9.184,3.963-9.184
		c1.331,0,3.522,4.456,5.023,4.456c0.763,0,1.551-0.74,2.193-1.132c1.378-0.813,2.806-1.578,4.209-2.363
		c0.492-0.246,1.699-0.789,1.872-1.307c0.073-0.171,0.073-0.344,0.073-0.516C17.333-10.932,16.94-12.656,16.57-13.469z"/>
	
		<line fill="none" stroke="#231F20" stroke-width="2" stroke-linecap="round" stroke-linejoin="round" stroke-miterlimit="40" x1="4.365" y1="4.334" x2="17.366" y2="17.334"/>
	
		<polyline fill="none" stroke="#231F20" stroke-width="2" stroke-linecap="round" stroke-linejoin="round" stroke-miterlimit="40" points="
		10.85,17.334 17.366,17.333 17.366,10.817 	"/>
</symbol>
<symbol  id="Phone" viewBox="-24 -24 48 48">
	<polygon fill="none" points="24,-24 -24,-24 -24,24 24,24 	"/>
	<path fill="none" stroke="#231F20" stroke-width="2" stroke-linecap="round" stroke-linejoin="round" stroke-miterlimit="10" d="
		M16.57-13.469c-0.518-1.207-1.895-1.993-3.003-2.608c-1.453-0.788-2.929-1.257-4.581-1.257c-2.289,0-4.356,0.937-6.449,1.699
		c-1.503,0.541-2.955,1.207-4.309,2.043c-4.186,2.586-9.232,7.633-11.819,11.82c-0.837,1.354-1.501,2.805-2.044,4.307
		c-0.763,2.095-1.699,4.162-1.699,6.452c0,1.649,0.469,3.127,1.257,4.58c0.615,1.108,1.403,2.485,2.61,3.003
		c0.812,0.369,2.535,0.764,3.424,0.764c0.17,0,0.342,0,0.515-0.074c0.517-0.173,1.06-1.379,1.304-1.873
		c0.789-1.401,1.553-2.83,2.365-4.208c0.394-0.642,1.132-1.429,1.132-2.191c0-1.502-4.456-3.694-4.456-5.022
		c0-0.666,0.617-1.527,0.959-2.12c2.488-4.479,5.59-7.583,10.071-10.067C2.438-8.568,3.3-9.184,3.963-9.184
		c1.332,0,3.522,4.456,5.023,4.456c0.764,0,1.552-0.74,2.193-1.132c1.379-0.813,2.806-1.578,4.209-2.363
		c0.492-0.246,1.699-0.789,1.871-1.307c0.074-0.171,0.074-0.344,0.074-0.516C17.334-10.932,16.94-12.656,16.57-13.469z"/>
</symbol>
<symbol  id="Phone_Chat" viewBox="-24 -24 48 48">
	<polygon fill="none" points="-24,24 24,24 24,-24 -24,-24 	"/>
	<path fill="none" stroke="#231F20" stroke-width="2" stroke-linecap="round" stroke-linejoin="round" stroke-miterlimit="10" d="
		M3.857-14.919c-0.324-0.754-1.185-1.245-1.878-1.63c-0.908-0.492-1.83-0.785-2.863-0.785c-1.431,0-2.724,0.585-4.03,1.062
		c-0.939,0.337-1.848,0.754-2.693,1.276c-2.615,1.616-5.77,4.771-7.387,7.389c-0.523,0.845-0.938,1.753-1.277,2.691
		c-0.478,1.31-1.062,2.601-1.062,4.032c0,1.031,0.293,1.954,0.785,2.862c0.385,0.693,0.877,1.554,1.632,1.878
		c0.508,0.229,1.585,0.477,2.14,0.477c0.107,0,0.215,0,0.322-0.047c0.322-0.107,0.662-0.861,0.814-1.17
		c0.493-0.877,0.971-1.77,1.479-2.63c0.246-0.401,0.707-0.894,0.707-1.37c0-0.938-2.785-2.309-2.785-3.139
		c0-0.417,0.386-0.955,0.6-1.325c1.555-2.8,3.494-4.74,6.295-6.293c0.369-0.216,0.908-0.601,1.322-0.601
		c0.833,0,2.201,2.785,3.14,2.785c0.478,0,0.97-0.462,1.372-0.707c0.861-0.509,1.752-0.986,2.63-1.478
		c0.308-0.153,1.062-0.493,1.169-0.816c0.047-0.106,0.047-0.215,0.047-0.322C4.334-13.332,4.088-14.41,3.857-14.919z"/>
	<path fill="none" stroke="#231F20" stroke-width="2" stroke-linecap="round" stroke-linejoin="round" stroke-miterlimit="10" d="
		M-0.002,0.002v-4.334l4.334,4.334h10.834c1.195,0,2.166,0.97,2.166,2.167v12.998c0,1.196-0.969,2.167-2.166,2.167H-2.168
		c-1.195,0-2.166-0.97-2.166-2.167V2.169c0-1.196,0.969-2.167,2.166-2.167H-0.002z"/>
	
		<line fill="none" stroke="#231F20" stroke-width="2" stroke-linecap="round" stroke-linejoin="round" stroke-miterlimit="40" x1="0" y1="13" x2="13" y2="13"/>
	
		<line fill="none" stroke="#231F20" stroke-width="2" stroke-linecap="round" stroke-linejoin="round" stroke-miterlimit="40" x1="0" y1="8.666" x2="10.833" y2="8.666"/>
	
		<line fill="none" stroke="#231F20" stroke-width="2" stroke-linecap="round" stroke-linejoin="round" stroke-miterlimit="40" x1="0" y1="4.334" x2="13" y2="4.334"/>
</symbol>
<symbol  id="Phone_Conversation" viewBox="-24 -24 48 48">
	<polygon fill="none" points="-24,24 24,24 24,-24 -24,-24 	"/>
	<path fill="none" stroke="#231F20" stroke-width="2" stroke-linecap="round" stroke-linejoin="round" stroke-miterlimit="10" d="
		M3.857-14.919c-0.324-0.754-1.185-1.245-1.878-1.63c-0.908-0.492-1.83-0.785-2.863-0.785c-1.43,0-2.723,0.585-4.03,1.062
		c-0.94,0.337-1.847,0.754-2.693,1.276c-2.616,1.616-5.77,4.771-7.387,7.389c-0.523,0.845-0.938,1.753-1.277,2.691
		c-0.477,1.31-1.062,2.601-1.062,4.032c0,1.031,0.293,1.954,0.785,2.862c0.385,0.693,0.877,1.554,1.632,1.878
		c0.508,0.229,1.585,0.477,2.14,0.477c0.106,0,0.214,0,0.321-0.047c0.323-0.107,0.662-0.861,0.815-1.17
		c0.493-0.877,0.97-1.77,1.478-2.63c0.246-0.401,0.708-0.894,0.708-1.37c0-0.938-2.786-2.309-2.786-3.139
		c0-0.417,0.386-0.955,0.6-1.325c1.555-2.8,3.493-4.74,6.294-6.293c0.37-0.216,0.908-0.601,1.323-0.601
		c0.833,0,2.201,2.785,3.139,2.785c0.478,0,0.97-0.462,1.372-0.707c0.862-0.509,1.753-0.986,2.63-1.478
		c0.308-0.153,1.062-0.493,1.169-0.816c0.047-0.106,0.047-0.215,0.047-0.322C4.334-13.332,4.088-14.41,3.857-14.919z"/>
	<path fill="none" stroke="#231F20" stroke-width="2" stroke-linecap="round" stroke-linejoin="round" stroke-miterlimit="10" d="
		M-0.002,0.002v-4.334l4.334,4.334h10.834c1.195,0,2.166,0.97,2.166,2.167v12.998c0,1.196-0.969,2.167-2.166,2.167H-2.168
		c-1.195,0-2.166-0.97-2.166-2.167V2.169c0-1.196,0.969-2.167,2.166-2.167H-0.002z"/>
</symbol>
<symbol  id="Phone_Love" viewBox="-24 -24 48 48">
	<polygon fill="none" points="-24,24 24,24 24,-24 -24,-24 	"/>
	<path fill="none" stroke="#231F20" stroke-width="2" stroke-linecap="round" stroke-linejoin="round" stroke-miterlimit="10" d="
		M3.857-14.919c-0.324-0.754-1.185-1.245-1.878-1.63c-0.908-0.492-1.83-0.785-2.863-0.785c-1.431,0-2.724,0.585-4.03,1.062
		c-0.939,0.337-1.848,0.754-2.693,1.276c-2.615,1.616-5.77,4.771-7.387,7.389c-0.523,0.845-0.938,1.753-1.277,2.691
		c-0.478,1.31-1.062,2.601-1.062,4.032c0,1.031,0.293,1.954,0.785,2.862c0.385,0.693,0.877,1.554,1.632,1.878
		c0.508,0.229,1.585,0.477,2.14,0.477c0.107,0,0.215,0,0.322-0.047c0.322-0.107,0.662-0.861,0.814-1.17
		c0.493-0.877,0.971-1.77,1.479-2.63c0.246-0.401,0.707-0.894,0.707-1.37c0-0.938-2.785-2.309-2.785-3.139
		c0-0.417,0.386-0.955,0.6-1.325c1.555-2.8,3.494-4.74,6.295-6.293c0.369-0.216,0.908-0.601,1.322-0.601
		c0.833,0,2.201,2.785,3.14,2.785c0.478,0,0.97-0.462,1.372-0.707c0.861-0.509,1.752-0.986,2.63-1.478
		c0.308-0.153,1.062-0.493,1.169-0.816c0.047-0.106,0.047-0.215,0.047-0.322C4.334-13.332,4.088-14.41,3.857-14.919z"/>
	<path fill="none" stroke="#231F20" stroke-width="2" stroke-linecap="round" stroke-linejoin="round" stroke-miterlimit="10" d="
		M-0.002,0.002v-4.334l4.334,4.334h10.834c1.195,0,2.166,0.97,2.166,2.167v12.998c0,1.196-0.969,2.167-2.166,2.167H-2.168
		c-1.195,0-2.166-0.97-2.166-2.167V2.169c0-1.196,0.969-2.167,2.166-2.167H-0.002z"/>
	<path fill="none" stroke="#231F20" stroke-width="2" stroke-linecap="round" stroke-linejoin="round" stroke-miterlimit="10" d="
		M10.425,12.187c-1.084,1.085-2.842,1.085-3.926,0c-1.084,1.085-2.842,1.085-3.926,0c-1.085-1.084-1.085-2.842,0-3.926l3.926-3.927
		l3.926,3.927C11.51,9.345,11.51,11.103,10.425,12.187z"/>
</symbol>
<symbol  id="Phone_Message" viewBox="-24 -24 48 48">
	<polygon fill="none" points="-24,24 24,24 24,-24 -24,-24 	"/>
	<path fill="none" stroke="#231F20" stroke-width="2" stroke-linecap="round" stroke-linejoin="round" stroke-miterlimit="10" d="
		M3.857-14.919c-0.324-0.754-1.185-1.245-1.878-1.63c-0.908-0.492-1.83-0.785-2.863-0.785c-1.43,0-2.723,0.585-4.03,1.062
		c-0.94,0.337-1.847,0.754-2.693,1.276c-2.616,1.616-5.77,4.771-7.387,7.389c-0.523,0.845-0.938,1.753-1.277,2.691
		c-0.477,1.31-1.062,2.601-1.062,4.032c0,1.031,0.293,1.954,0.785,2.862c0.385,0.693,0.877,1.554,1.632,1.878
		c0.508,0.229,1.585,0.477,2.14,0.477c0.106,0,0.214,0,0.321-0.047c0.323-0.107,0.662-0.861,0.815-1.17
		c0.493-0.877,0.97-1.77,1.478-2.63c0.246-0.401,0.708-0.894,0.708-1.37c0-0.938-2.786-2.309-2.786-3.139
		c0-0.417,0.386-0.955,0.6-1.325c1.555-2.8,3.493-4.74,6.294-6.293c0.37-0.216,0.908-0.601,1.323-0.601
		c0.833,0,2.201,2.785,3.139,2.785c0.478,0,0.97-0.462,1.372-0.707c0.862-0.509,1.753-0.986,2.63-1.478
		c0.308-0.153,1.062-0.493,1.169-0.816c0.047-0.106,0.047-0.215,0.047-0.322C4.334-13.332,4.088-14.41,3.857-14.919z"/>
	<g id="Voicemail_2_">
		<g>
			<path fill="none" stroke="#231F20" stroke-width="2" stroke-linecap="round" stroke-linejoin="round" stroke-miterlimit="40" d="
				M4.875,8.666c0-1.346-1.091-2.438-2.438-2.438C1.092,6.229,0,7.32,0,8.666s1.091,2.438,2.437,2.438
				C3.784,11.104,4.875,10.012,4.875,8.666z"/>
			<path fill="none" stroke="#231F20" stroke-width="2" stroke-linecap="round" stroke-linejoin="round" stroke-miterlimit="40" d="
				M13,8.666c0-1.346-1.092-2.438-2.438-2.438S8.125,7.32,8.125,8.666s1.092,2.438,2.438,2.438S13,10.012,13,8.666z"/>
			
				<line fill="none" stroke="#231F20" stroke-width="2" stroke-linecap="round" stroke-linejoin="round" stroke-miterlimit="40" x1="10.562" y1="6.229" x2="2.438" y2="6.229"/>
		</g>
	</g>
	<path fill="none" stroke="#231F20" stroke-width="2" stroke-linecap="round" stroke-linejoin="round" stroke-miterlimit="10" d="
		M-0.002,0.002v-4.334l4.334,4.334h10.834c1.195,0,2.166,0.97,2.166,2.167v12.998c0,1.196-0.969,2.167-2.166,2.167H-2.168
		c-1.195,0-2.166-0.97-2.166-2.167V2.169c0-1.196,0.969-2.167,2.166-2.167H-0.002z"/>
</symbol>
<symbol  id="Phone_More" viewBox="-24 -24 48 48">
	<polygon fill="none" points="-24,24 24,24 24,-24 -24,-24 	"/>
	<path fill="none" stroke="#231F20" stroke-width="2" stroke-linecap="round" stroke-linejoin="round" stroke-miterlimit="10" d="
		M3.857-14.919c-0.324-0.754-1.185-1.245-1.878-1.63c-0.908-0.492-1.83-0.785-2.863-0.785c-1.43,0-2.723,0.585-4.03,1.062
		c-0.94,0.337-1.847,0.754-2.693,1.276c-2.616,1.616-5.77,4.771-7.387,7.389c-0.523,0.845-0.938,1.753-1.277,2.691
		c-0.477,1.31-1.062,2.601-1.062,4.032c0,1.031,0.293,1.954,0.785,2.862c0.385,0.693,0.877,1.554,1.632,1.878
		c0.508,0.229,1.585,0.477,2.14,0.477c0.106,0,0.214,0,0.321-0.047c0.323-0.107,0.662-0.861,0.815-1.17
		c0.493-0.877,0.97-1.77,1.478-2.63c0.246-0.401,0.708-0.894,0.708-1.37c0-0.938-2.786-2.309-2.786-3.139
		c0-0.417,0.386-0.955,0.6-1.325c1.555-2.8,3.493-4.74,6.294-6.293c0.37-0.216,0.908-0.601,1.323-0.601
		c0.833,0,2.201,2.785,3.139,2.785c0.478,0,0.97-0.462,1.372-0.707c0.862-0.509,1.753-0.986,2.63-1.478
		c0.308-0.153,1.062-0.493,1.169-0.816c0.047-0.106,0.047-0.215,0.047-0.322C4.334-13.332,4.088-14.41,3.857-14.919z"/>
	<path fill="#231F20" d="M7.191,8.666c0,0.553-0.447,1-1,1s-1-0.447-1-1s0.447-1,1-1S7.191,8.113,7.191,8.666z"/>
	<path fill="#231F20" d="M11.191,8.666c0,0.553-0.447,1-1,1s-1-0.447-1-1s0.447-1,1-1S11.191,8.113,11.191,8.666z"/>
	<path fill="#231F20" d="M3.191,8.666c0,0.553-0.447,1-1,1s-1-0.447-1-1s0.447-1,1-1S3.191,8.113,3.191,8.666z"/>
	<path fill="none" stroke="#231F20" stroke-width="2" stroke-linecap="round" stroke-linejoin="round" stroke-miterlimit="10" d="
		M-0.002,0.002v-4.334l4.334,4.334h10.834c1.195,0,2.166,0.97,2.166,2.167v12.998c0,1.196-0.969,2.167-2.166,2.167H-2.168
		c-1.195,0-2.166-0.97-2.166-2.167V2.169c0-1.196,0.969-2.167,2.166-2.167H-0.002z"/>
</symbol>
<symbol  id="Phone_Question" viewBox="-24 -24 48 48">
	<polygon fill="none" points="-24,24 24,24 24,-24 -24,-24 	"/>
	<path fill="none" stroke="#231F20" stroke-width="2" stroke-linecap="round" stroke-linejoin="round" stroke-miterlimit="10" d="
		M3.857-14.919c-0.324-0.754-1.185-1.245-1.878-1.63c-0.908-0.492-1.83-0.785-2.863-0.785c-1.43,0-2.723,0.585-4.03,1.062
		c-0.94,0.337-1.847,0.754-2.693,1.276c-2.616,1.616-5.77,4.771-7.387,7.389c-0.523,0.845-0.938,1.753-1.277,2.691
		c-0.477,1.31-1.062,2.601-1.062,4.032c0,1.031,0.293,1.954,0.785,2.862c0.385,0.693,0.877,1.554,1.632,1.878
		c0.508,0.229,1.585,0.477,2.14,0.477c0.106,0,0.214,0,0.321-0.047c0.323-0.107,0.662-0.861,0.815-1.17
		c0.493-0.877,0.97-1.77,1.478-2.63c0.246-0.401,0.708-0.894,0.708-1.37c0-0.938-2.786-2.309-2.786-3.139
		c0-0.417,0.386-0.955,0.6-1.325c1.555-2.8,3.493-4.74,6.294-6.293c0.37-0.216,0.908-0.601,1.323-0.601
		c0.833,0,2.201,2.785,3.139,2.785c0.478,0,0.97-0.462,1.372-0.707c0.862-0.509,1.753-0.986,2.63-1.478
		c0.308-0.153,1.062-0.493,1.169-0.816c0.047-0.106,0.047-0.215,0.047-0.322C4.334-13.332,4.088-14.41,3.857-14.919z"/>
	<g>
		<path fill="none" stroke="#231F20" stroke-width="2" stroke-linecap="round" stroke-linejoin="round" stroke-miterlimit="10" d="
			M8.357,11.752c0,1.196-0.97,2.166-2.166,2.166s-2.166-0.97-2.166-2.166"/>
		<path fill="none" stroke="#231F20" stroke-width="2" stroke-linecap="round" stroke-linejoin="round" stroke-miterlimit="10" d="
			M8.357,11.752c0-2.166-2.166-2.166-2.166-4.333"/>
		<path fill="#231F20" d="M7.191,3.419c0,0.553-0.448,1-1,1s-1-0.447-1-1s0.448-1,1-1S7.191,2.866,7.191,3.419z"/>
	</g>
	<path fill="none" stroke="#231F20" stroke-width="2" stroke-linecap="round" stroke-linejoin="round" stroke-miterlimit="10" d="
		M-0.002,0.002v-4.334l4.334,4.334h10.834c1.195,0,2.166,0.97,2.166,2.167v12.998c0,1.196-0.969,2.167-2.166,2.167H-2.168
		c-1.195,0-2.166-0.97-2.166-2.167V2.169c0-1.196,0.969-2.167,2.166-2.167H-0.002z"/>
</symbol>
<symbol  id="Phone_Statement" viewBox="-24 -24 48 48">
	<polygon fill="none" points="-24,24 24,24 24,-24 -24,-24 	"/>
	<path fill="none" stroke="#231F20" stroke-width="2" stroke-linecap="round" stroke-linejoin="round" stroke-miterlimit="10" d="
		M3.857-14.919c-0.324-0.754-1.185-1.245-1.878-1.63c-0.908-0.492-1.83-0.785-2.863-0.785c-1.43,0-2.723,0.585-4.03,1.062
		c-0.94,0.337-1.847,0.754-2.693,1.276c-2.616,1.616-5.77,4.771-7.387,7.389c-0.523,0.845-0.938,1.753-1.277,2.691
		c-0.477,1.31-1.062,2.601-1.062,4.032c0,1.031,0.293,1.954,0.785,2.862c0.385,0.693,0.877,1.554,1.632,1.878
		c0.508,0.229,1.585,0.477,2.14,0.477c0.106,0,0.214,0,0.321-0.047c0.323-0.107,0.662-0.861,0.815-1.17
		c0.493-0.877,0.97-1.77,1.478-2.63c0.246-0.401,0.708-0.894,0.708-1.37c0-0.938-2.786-2.309-2.786-3.139
		c0-0.417,0.386-0.955,0.6-1.325c1.555-2.8,3.493-4.74,6.294-6.293c0.37-0.216,0.908-0.601,1.323-0.601
		c0.833,0,2.201,2.785,3.139,2.785c0.478,0,0.97-0.462,1.372-0.707c0.862-0.509,1.753-0.986,2.63-1.478
		c0.308-0.153,1.062-0.493,1.169-0.816c0.047-0.106,0.047-0.215,0.047-0.322C4.334-13.332,4.088-14.41,3.857-14.919z"/>
	<g>
		
			<line fill="none" stroke="#231F20" stroke-width="2" stroke-linecap="round" stroke-linejoin="round" stroke-miterlimit="10" x1="6.191" y1="7.419" x2="6.191" y2="13.918"/>
		<path fill="#231F20" d="M7.191,3.419c0,0.553-0.448,1-1,1s-1-0.447-1-1s0.448-1,1-1S7.191,2.866,7.191,3.419z"/>
	</g>
	<path fill="none" stroke="#231F20" stroke-width="2" stroke-linecap="round" stroke-linejoin="round" stroke-miterlimit="10" d="
		M-0.002,0.002v-4.334l4.334,4.334h10.834c1.195,0,2.166,0.97,2.166,2.167v12.998c0,1.196-0.969,2.167-2.166,2.167H-2.168
		c-1.195,0-2.166-0.97-2.166-2.167V2.169c0-1.196,0.969-2.167,2.166-2.167H-0.002z"/>
</symbol>
<symbol  id="Phone_System" viewBox="-24 -24 48 48">
	
		<polygon fill="none" stroke="#231F20" stroke-width="2" stroke-linecap="round" stroke-linejoin="round" stroke-miterlimit="10" points="
		-17.334,17.334 17.334,17.334 17.334,-17.334 -17.334,-17.334 	"/>
	<polygon fill="none" points="-24,24 24,24 24,-24 -24,-24 	"/>
	<path fill="none" stroke="#231F20" stroke-width="2" stroke-linecap="round" stroke-linejoin="round" stroke-miterlimit="10" d="
		M12.427-10.101c-0.388-0.905-1.42-1.496-2.252-1.957C9.085-12.648,7.979-13,6.739-13c-1.716,0-3.268,0.702-4.836,1.274
		c-1.127,0.406-2.216,0.905-3.231,1.531c-3.139,1.94-6.925,5.726-8.865,8.865c-0.627,1.016-1.125,2.104-1.533,3.23
		C-12.298,3.473-13,5.022-13,6.74c0,1.237,0.352,2.345,0.942,3.436c0.461,0.83,1.053,1.863,1.958,2.251
		C-9.491,12.704-8.198,13-7.532,13c0.127,0,0.256,0,0.386-0.056c0.388-0.129,0.795-1.033,0.978-1.405
		c0.592-1.05,1.165-2.122,1.774-3.155C-4.1,7.902-3.545,7.312-3.545,6.74c0-1.126-3.342-2.771-3.342-3.768
		c0-0.498,0.462-1.145,0.719-1.59c1.867-3.359,4.192-5.686,7.553-7.55c0.443-0.259,1.09-0.721,1.587-0.721
		c0.999,0,2.642,3.343,3.767,3.343c0.573,0,1.164-0.557,1.645-0.85c1.034-0.61,2.104-1.184,3.157-1.772
		c0.369-0.185,1.274-0.592,1.403-0.98C13-7.275,13-7.404,13-7.533C13-8.198,12.705-9.491,12.427-10.101z"/>
</symbol>
<symbol  id="Phone_Tree" viewBox="-24 -24 48 48">
	<polygon fill="none" points="24,-24 -24,-24 -24,24 24,24 	"/>
	<path fill="none" stroke="#231F20" stroke-width="2" stroke-linecap="round" stroke-linejoin="round" stroke-miterlimit="10" d="
		M3.857-14.919c-0.324-0.754-1.185-1.245-1.878-1.63c-0.908-0.492-1.83-0.785-2.863-0.785c-1.431,0-2.724,0.585-4.03,1.062
		c-0.939,0.337-1.848,0.754-2.693,1.276c-2.615,1.616-5.77,4.771-7.387,7.389c-0.523,0.845-0.938,1.753-1.277,2.691
		c-0.478,1.31-1.062,2.601-1.062,4.032c0,1.031,0.293,1.954,0.785,2.862c0.385,0.693,0.877,1.554,1.632,1.878
		c0.508,0.229,1.585,0.477,2.14,0.477c0.107,0,0.215,0,0.322-0.047c0.322-0.107,0.662-0.861,0.814-1.17
		c0.493-0.877,0.971-1.77,1.479-2.63c0.246-0.401,0.707-0.894,0.707-1.37c0-0.938-2.785-2.309-2.785-3.139
		c0-0.417,0.386-0.955,0.6-1.325c1.555-2.8,3.494-4.74,6.295-6.293c0.369-0.216,0.908-0.601,1.322-0.601
		c0.833,0,2.201,2.785,3.14,2.785c0.478,0,0.97-0.462,1.372-0.707c0.861-0.509,1.752-0.986,2.63-1.478
		c0.308-0.153,1.062-0.493,1.169-0.816c0.047-0.106,0.047-0.215,0.047-0.322C4.334-13.332,4.088-14.41,3.857-14.919z"/>
	<path fill="none" stroke="#231F20" stroke-width="2" stroke-linecap="round" stroke-linejoin="round" stroke-miterlimit="10" d="
		M-0.002,0.002v-4.334l4.334,4.334h10.834c1.195,0,2.166,0.97,2.166,2.167v12.998c0,1.196-0.969,2.167-2.166,2.167H-2.168
		c-1.195,0-2.166-0.97-2.166-2.167V2.169c0-1.196,0.969-2.167,2.166-2.167H-0.002z"/>
	
		<line fill="none" stroke="#231F20" stroke-width="2" stroke-linecap="round" stroke-linejoin="round" stroke-miterlimit="40" x1="4" y1="13" x2="13" y2="13"/>
	
		<line fill="none" stroke="#231F20" stroke-width="2" stroke-linecap="round" stroke-linejoin="round" stroke-miterlimit="40" x1="4" y1="8.666" x2="10.833" y2="8.666"/>
	
		<line fill="none" stroke="#231F20" stroke-width="2" stroke-linecap="round" stroke-linejoin="round" stroke-miterlimit="40" x1="4" y1="4.334" x2="13" y2="4.334"/>
	<path fill="#231F20" d="M1,13c0,0.552-0.448,1-1,1s-1-0.448-1-1s0.448-1,1-1S1,12.448,1,13z"/>
	<path fill="#231F20" d="M1,8.666c0,0.552-0.448,1-1,1s-1-0.448-1-1s0.448-1,1-1S1,8.114,1,8.666z"/>
	<path fill="#231F20" d="M1,4.334c0,0.552-0.448,1-1,1s-1-0.448-1-1s0.448-1,1-1S1,3.782,1,4.334z"/>
</symbol>
<symbol  id="SMS" viewBox="-24 -24 48 48">
	<path fill="none" stroke="#231F20" stroke-width="2" stroke-linecap="round" stroke-linejoin="round" stroke-miterlimit="10" d="
		M-10.402-10.399v-6.935l6.936,6.935h17.335c1.913,0,3.466,1.552,3.466,3.468v20.799c0,1.914-1.55,3.467-3.466,3.467h-27.736
		c-1.913,0-3.466-1.552-3.466-3.467V-6.932c0-1.915,1.55-3.468,3.466-3.468H-10.402z"/>
	<path fill="none" stroke="#231F20" stroke-width="2" stroke-linecap="round" stroke-linejoin="round" stroke-miterlimit="10" d="
		M2.167,3.468c0-1.196-0.97-2.167-2.167-2.167s-2.167,0.971-2.167,2.167S-1.197,5.635,0,5.635S2.167,4.664,2.167,3.468z"/>
	<path fill="none" stroke="#231F20" stroke-width="2" stroke-linecap="round" stroke-linejoin="round" stroke-miterlimit="10" d="
		M-6.499,3.468c0-1.196-0.97-2.167-2.167-2.167s-2.167,0.971-2.167,2.167s0.97,2.167,2.167,2.167S-6.499,4.664-6.499,3.468z"/>
	<path fill="none" stroke="#231F20" stroke-width="2" stroke-linecap="round" stroke-linejoin="round" stroke-miterlimit="10" d="
		M10.833,3.468c0-1.196-0.97-2.167-2.167-2.167S6.499,2.271,6.499,3.468s0.97,2.167,2.167,2.167S10.833,4.664,10.833,3.468z"/>
	<polygon fill="none" points="24,-24 -24,-24 -24,24 24,24 	"/>
</symbol>
<symbol  id="Voicemail" viewBox="-24 -24 48 48">
	<polygon fill="none" points="24,-24 -24,-24 -24,24 24,24 	"/>
	<path fill="none" stroke="#231F20" stroke-width="2" stroke-linecap="round" stroke-linejoin="round" stroke-miterlimit="40" d="
		M-4.333,0c0-3.59-2.91-6.5-6.5-6.5s-6.5,2.91-6.5,6.5s2.91,6.5,6.5,6.5S-4.333,3.59-4.333,0z"/>
	<path fill="none" stroke="#231F20" stroke-width="2" stroke-linecap="round" stroke-linejoin="round" stroke-miterlimit="40" d="
		M17.333,0c0-3.59-2.91-6.5-6.5-6.5s-6.5,2.91-6.5,6.5s2.91,6.5,6.5,6.5S17.333,3.59,17.333,0z"/>
	
		<line fill="none" stroke="#231F20" stroke-width="2" stroke-linecap="round" stroke-linejoin="round" stroke-miterlimit="40" x1="10.833" y1="-6.5" x2="-10.833" y2="-6.5"/>
</symbol>
<symbol  id="Voicemail_2" viewBox="-24 -24 48 48">
	<polygon fill="none" points="24,-24 -24,-24 -24,24 24,24 	"/>
	<path fill="none" stroke="#231F20" stroke-width="2" stroke-linecap="round" stroke-linejoin="round" stroke-miterlimit="40" d="
		M-4.334,0c0-2.393-1.939-4.333-4.332-4.333C-11.06-4.333-13-2.393-13,0s1.94,4.333,4.334,4.333C-6.273,4.333-4.334,2.393-4.334,0z"
		/>
	<path fill="none" stroke="#231F20" stroke-width="2" stroke-linecap="round" stroke-linejoin="round" stroke-miterlimit="40" d="
		M13,0c0-2.393-1.939-4.333-4.333-4.333c-2.393,0-4.333,1.94-4.333,4.333s1.94,4.333,4.333,4.333C11.061,4.333,13,2.393,13,0z"/>
	
		<line fill="none" stroke="#231F20" stroke-width="2" stroke-linecap="round" stroke-linejoin="round" stroke-miterlimit="40" x1="8.666" y1="-4.333" x2="-8.666" y2="-4.333"/>
	
		<polygon fill="none" stroke="#231F20" stroke-width="2" stroke-linecap="round" stroke-linejoin="round" stroke-miterlimit="40" points="
		17.334,-17.334 -17.334,-17.334 -17.334,17.334 17.334,17.334 	"/>
</symbol>
<g id="Background">
</g>
<g id="Layer_1">
</g>
<g id="Model">
	<g id="Woman">
	</g>
	<g id="Threshold">
	</g>
	<g id="Man_with_Tie">
	</g>
	<g id="Building_5">
	</g>
</g>
<g id="Icons">
	<g id="Random_Forest">
	</g>
	<g>
		<g>
			
				<use xlink:href="#Outgoing_Call"  width="48" height="48" id="XMLID_375_" x="-24" y="-24" transform="matrix(1.875 0 0 -1.875 935 235)" overflow="visible"/>
			
				<use xlink:href="#Phone"  width="48" height="48" id="XMLID_373_" x="-24" y="-24" transform="matrix(1.875 0 0 -1.875 515 235)" overflow="visible"/>
			
				<use xlink:href="#Incomming_Call"  width="48" height="48" id="XMLID_326_" x="-24" y="-24" transform="matrix(1.875 0 0 -1.875 795 235)" overflow="visible"/>
			
				<use xlink:href="#Voicemail"  width="48" height="48" id="XMLID_325_" x="-24" y="-24" transform="matrix(1.875 0 0 -1.875 95 235)" overflow="visible"/>
			
				<use xlink:href="#Voicemail_2"  width="48" height="48" id="XMLID_324_" x="-24" y="-24" transform="matrix(1.875 0 0 -1.875 235 235)" overflow="visible"/>
			
				<use xlink:href="#No_Phone"  width="48" height="48" id="XMLID_323_" x="-24" y="-24" transform="matrix(1.875 0 0 -1.875 655 235)" overflow="visible"/>
			
				<use xlink:href="#Phone_System"  width="48" height="48" x="-24" y="-24" transform="matrix(1.875 0 0 -1.875 375 235)" overflow="visible"/>
			
				<use xlink:href="#Call_Transfer"  width="48" height="48" x="-24" y="-24" transform="matrix(1.875 0 0 -1.875 1075 235)" overflow="visible"/>
		</g>
		<g>
			
				<use xlink:href="#Phone_Tree"  width="48" height="48" x="-24" y="-24" transform="matrix(1.875 0 0 -1.875 1075 375)" overflow="visible"/>
			
				<use xlink:href="#Phone_More"  width="48" height="48" x="-24" y="-24" transform="matrix(1.875 0 0 -1.875 515 375)" overflow="visible"/>
			
				<use xlink:href="#Phone_Conversation"  width="48" height="48" x="-24" y="-24" transform="matrix(1.875 0 0 -1.875 95 375)" overflow="visible"/>
			
				<use xlink:href="#Phone_Statement"  width="48" height="48" x="-24" y="-24" transform="matrix(1.875 0 0 -1.875 375 375)" overflow="visible"/>
			
				<use xlink:href="#Phone_Question"  width="48" height="48" x="-24" y="-24" transform="matrix(1.875 0 0 -1.875 235 375)" overflow="visible"/>
			
				<use xlink:href="#Phone_Message"  width="48" height="48" x="-24" y="-24" transform="matrix(1.875 0 0 -1.875 795 375)" overflow="visible"/>
			
				<use xlink:href="#Phone_Chat"  width="48" height="48" x="-24" y="-24" transform="matrix(1.875 0 0 -1.875 935 375)" overflow="visible"/>
			
				<use xlink:href="#Phone_Love"  width="48" height="48" x="-24" y="-24" transform="matrix(1.875 0 0 -1.875 655 375)" overflow="visible"/>
		</g>
		<g>
			
				<use xlink:href="#Correspondence"  width="48" height="48" id="XMLID_322_" x="-24" y="-24" transform="matrix(1.875 0 0 -1.875 935 95)" overflow="visible"/>
			
				<use xlink:href="#Correspondence_2"  width="48" height="48" id="XMLID_321_" x="-24" y="-24" transform="matrix(1.875 0 0 -1.875 1075 95)" overflow="visible"/>
			
				<use xlink:href="#Envelope"  width="48" height="48" id="XMLID_187_" x="-24" y="-24" transform="matrix(1.875 0 0 -1.875 655 95)" overflow="visible"/>
			
				<use xlink:href="#Opened_Mail"  width="48" height="48" id="XMLID_164_" x="-24" y="-24" transform="matrix(1.875 0 0 -1.875 795 95)" overflow="visible"/>
			
				<use xlink:href="#Chat_1_"  width="48" height="48" id="XMLID_162_" x="-24" y="-24" transform="matrix(1.875 0 0 -1.875 515 95)" overflow="visible"/>
			
				<use xlink:href="#Comment"  width="48" height="48" id="XMLID_159_" x="-24" y="-24" transform="matrix(1.875 0 0 -1.875 95 95)" overflow="visible"/>
			
				<use xlink:href="#Comment_2"  width="48" height="48" id="XMLID_154_" x="-24" y="-24" transform="matrix(1.875 0 0 -1.875 375 95)" overflow="visible"/>
			
				<use xlink:href="#SMS"  width="48" height="48" x="-24" y="-24" transform="matrix(1.875 0 0 -1.875 235 95)" overflow="visible"/>
		</g>
	</g>
	<g id="Database">
	</g>
	<g id="Random_Forest_1_">
	</g>
	<g id="University">
	</g>
	<g id="Group">
	</g>
	<g id="Group_1_">
	</g>
	<g id="Scatterplott">
	</g>
	<g id="Long_Paper_2_">
	</g>
	<g id="Spread">
	</g>
	<g id="Isometric_Box">
	</g>
	<g id="Magnifying_Glass">
	</g>
	<g id="Code_2">
	</g>
</g>
<g id="Figures">
	<g id="Models">
	</g>
	<g id="Justice">
	</g>
	<g id="Sensor">
	</g>
	<g id="Widget">
	</g>
	<g id="Drop_1_">
	</g>
	<g id="Algorithm_1_">
	</g>
	<g id="On-body_sensor_1_">
	</g>
	<g id="Insulin_Pump_1_">
	</g>
	<g id="Drop">
	</g>
	<g id="Algorithm">
	</g>
	<g id="On-body_sensor">
	</g>
	<g id="Insulin_Pump">
	</g>
</g>
<g id="Meta__x2B__Title">
</g>
<g id="Isolation_Mode">
</g>
<g id="Long_Paper">
	<g id="Long_Paper_1_">
	</g>
	<g id="IV">
	</g>
	<g id="Air_Purifier">
	</g>
	<g id="Alarm">
	</g>
	<g id="Chat">
	</g>
	<g id="Presentation">
	</g>
	<g id="Dog_2">
	</g>
	<g id="Delivery">
	</g>
	<g id="Meat_2">
	</g>
</g>
</svg>
