<?xml version="1.0" encoding="utf-8"?>
<!-- Generator: Adobe Illustrator 16.0.0, SVG Export Plug-In . SVG Version: 6.00 Build 0)  -->
<!DOCTYPE svg PUBLIC "-//W3C//DTD SVG 1.1//EN" "http://www.w3.org/Graphics/SVG/1.1/DTD/svg11.dtd">
<svg version="1.1" xmlns="http://www.w3.org/2000/svg" xmlns:xlink="http://www.w3.org/1999/xlink" x="0px" y="0px" width="1170px"
	 height="470px" viewBox="0 0 1170 470" enable-background="new 0 0 1170 470" xml:space="preserve">
<symbol  id="Bird" viewBox="-24 -24 48 48">
	<polygon fill="none" points="24,24 -24,24 -24,-24 24,-24 	"/>
	<path opacity="0.4" fill="#231F20" d="M8.667-4.334c4.786,0,8.667,3.881,8.667,8.668H0C0-0.453,3.88-4.334,8.667-4.334z"/>
	<path fill="none" stroke="#231F20" stroke-width="2" stroke-linecap="round" stroke-miterlimit="10" d="M17.334,4.333
		c0-8.377-6.791-15.168-15.168-15.168S-13-4.044-13,4.333v4.333c0,3.591,2.908,6.502,6.499,6.502S0,12.257,0,8.666V4.333
		c0-4.787,3.879-8.668,8.666-8.668S17.334-0.454,17.334,4.333H0"/>
	<g>
		<polygon opacity="0.4" fill="#231F20" points="-13,3.664 -17.334,6.165 -13,8.666 		"/>
		
			<polygon fill="none" stroke="#231F20" stroke-width="2" stroke-linecap="round" stroke-linejoin="round" stroke-miterlimit="10" points="
			-13,3.664 -17.334,6.165 -13,8.666 		"/>
	</g>
	<path fill="#231F20" d="M-7.666,8.666c0,0.553-0.447,1-1,1s-1-0.447-1-1c0-0.552,0.447-1,1-1S-7.666,8.114-7.666,8.666z"/>
	
		<line fill="none" stroke="#231F20" stroke-width="2" stroke-linecap="round" stroke-linejoin="round" stroke-miterlimit="10" x1="0" y1="-10.849" x2="0" y2="-15.251"/>
	
		<line fill="none" stroke="#231F20" stroke-width="2" stroke-linecap="round" stroke-linejoin="round" stroke-miterlimit="10" x1="4.334" y1="-10.849" x2="4.334" y2="-15.251"/>
</symbol>
<symbol  id="Bird_2" viewBox="-24 -24 48 48">
	<polygon fill="none" points="24,-24 -24,-24 -24,24 24,24 	"/>
	<path fill="#231F20" d="M3.406,6.5c0-0.686-0.555-1.24-1.24-1.24s-1.24,0.555-1.24,1.24s0.555,1.242,1.24,1.242
		S3.406,7.186,3.406,6.5z"/>
	<polygon fill="#231F20" points="8.666,6.836 12.999,4.333 8.666,1.831 	"/>
	
		<line fill="none" stroke="#231F20" stroke-width="2" stroke-linecap="round" stroke-linejoin="round" stroke-miterlimit="10" x1="-2.167" y1="-13" x2="-2.167" y2="-8.389"/>
	<path fill="none" stroke="#231F20" stroke-width="2" stroke-linecap="round" stroke-linejoin="round" stroke-miterlimit="10" d="
		M8.665,4.061C4.928,3.098,2.166-0.295,2.166-4.334V-13"/>
	<path fill="none" stroke="#231F20" stroke-width="2" stroke-linecap="round" stroke-linejoin="round" stroke-miterlimit="10" d="
		M2.166,13c-3.59,0-6.5-2.91-6.5-6.5V4.333C-4.334,1.94-6.272,0-8.666,0l0,0c0-4.786,3.88-8.666,8.666-8.666S8.666-4.786,8.666,0
		v6.5C8.666,10.09,5.756,13,2.166,13z"/>
</symbol>
<symbol  id="Bird_Cage" viewBox="-24 -24 48 48">
	<polygon fill="none" points="24,-24 -24,-24 -24,24 24,24 	"/>
	<path fill="none" stroke="#231F20" stroke-width="2" stroke-linecap="round" stroke-miterlimit="10" d="M13,0C13,7.18,7.18,13,0,13
		S-13,7.18-13,0"/>
	<path fill="none" stroke="#231F20" stroke-width="2" stroke-linecap="round" stroke-miterlimit="10" d="M6.5,0
		c0,7.18-2.911,13-6.5,13S-6.5,7.18-6.5,0"/>
	
		<line fill="none" stroke="#231F20" stroke-width="2" stroke-linecap="round" stroke-miterlimit="10" x1="0" y1="13" x2="0" y2="-17.333"/>
	<path fill="none" stroke="#231F20" stroke-width="2" stroke-linecap="round" stroke-miterlimit="10" d="M2.167,15.166
		c0,1.197-0.971,2.167-2.167,2.167s-2.167-0.97-2.167-2.167C-2.167,13.97-1.196,13,0,13S2.167,13.97,2.167,15.166z"/>
	
		<line fill="none" stroke="#231F20" stroke-width="2" stroke-linecap="round" stroke-miterlimit="10" x1="-17.333" y1="-17.333" x2="17.333" y2="-17.333"/>
	
		<line fill="none" stroke="#231F20" stroke-width="2" stroke-linecap="round" stroke-miterlimit="10" x1="-6.5" y1="0" x2="-6.5" y2="-17.333"/>
	
		<line fill="none" stroke="#231F20" stroke-width="2" stroke-linecap="round" stroke-miterlimit="10" x1="-13" y1="0" x2="-13" y2="-17.333"/>
	
		<line fill="none" stroke="#231F20" stroke-width="2" stroke-linecap="round" stroke-miterlimit="10" x1="6.5" y1="0" x2="6.5" y2="-17.333"/>
	
		<line fill="none" stroke="#231F20" stroke-width="2" stroke-linecap="round" stroke-miterlimit="10" x1="13" y1="0" x2="13" y2="-17.333"/>
	
		<line fill="none" stroke="#231F20" stroke-width="2" stroke-linecap="round" stroke-miterlimit="10" x1="13" y1="0" x2="-13" y2="0"/>
	
		<line fill="none" stroke="#231F20" stroke-width="2" stroke-linecap="round" stroke-miterlimit="10" x1="-13" y1="-8.667" x2="13" y2="-8.667"/>
</symbol>
<symbol  id="Bone" viewBox="-24 -24 48 48">
	<polygon fill="none" points="24,-24 -24,-24 -24,24 24,24 	"/>
	<path fill="none" stroke="#231F20" stroke-width="2" stroke-linecap="round" stroke-miterlimit="10" d="M13,13
		c0,2.394-1.939,4.333-4.333,4.333c-2.393,0-4.333-1.939-4.333-4.333c0-1.197,0.484-2.279,1.269-3.063L-9.937-5.603
		C-10.72-4.818-11.803-4.334-13-4.334c-2.393,0-4.333-1.939-4.333-4.333S-15.393-13-13-13c0-2.394,1.939-4.333,4.333-4.333
		c2.393,0,4.333,1.939,4.333,4.333c0,1.197-0.485,2.279-1.269,3.063L9.937,5.603C10.72,4.818,11.803,4.334,13,4.334
		c2.393,0,4.333,1.939,4.333,4.333S15.393,13,13,13z"/>
</symbol>
<symbol  id="Bones" viewBox="-24 -24 48 48">
	<polygon fill="none" points="24,-24 -24,-24 -24,24 24,24 	"/>
	<path fill="none" stroke="#231F20" stroke-width="2" stroke-linecap="round" stroke-linejoin="round" stroke-miterlimit="10" d="
		M13,13c0,2.394-1.94,4.333-4.333,4.333S4.333,15.394,4.333,13c0-1.197,0.485-2.279,1.27-3.063L-9.937-5.603
		C-10.72-4.818-11.804-4.334-13-4.334c-2.394,0-4.333-1.939-4.333-4.333S-15.394-13-13-13c0-2.394,1.939-4.333,4.333-4.333
		c2.394,0,4.333,1.939,4.333,4.333c0,1.197-0.485,2.279-1.269,3.063L9.937,5.603C10.719,4.818,11.803,4.334,13,4.334
		c2.393,0,4.333,1.939,4.333,4.333S15.393,13,13,13z"/>
	<g>
		<path fill="none" stroke="#231F20" stroke-width="2" stroke-linecap="round" stroke-linejoin="round" stroke-miterlimit="10" d="
			M-2.829,7.162l-2.774,2.774c0.784,0.784,1.269,1.866,1.269,3.063c0,2.394-1.939,4.333-4.333,4.333C-11.06,17.333-13,15.394-13,13
			c-2.394,0-4.333-1.939-4.333-4.333S-15.394,4.334-13,4.334c1.195,0,2.279,0.484,3.063,1.269l2.774-2.774"/>
	</g>
	<g>
		<path fill="none" stroke="#231F20" stroke-width="2" stroke-linecap="round" stroke-linejoin="round" stroke-miterlimit="10" d="
			M2.83-7.162l2.774-2.774C4.82-10.721,4.334-11.803,4.334-13c0-2.394,1.939-4.333,4.333-4.333C11.061-17.333,13-15.394,13-13
			c2.394,0,4.333,1.939,4.333,4.333S15.395-4.334,13-4.334c-1.195,0-2.279-0.484-3.063-1.269L7.163-2.828"/>
	</g>
</symbol>
<symbol  id="Cat" viewBox="-24 -24 48 48">
	<polygon fill="none" points="24,-24 -24,-24 -24,24 24,24 	"/>
	<g>
		<path fill="#231F20" d="M-4.333,1.042c0-1.196-0.97-2.167-2.167-2.167c-1.196,0-2.167,0.971-2.167,2.167s0.97,2.167,2.167,2.167
			C-5.304,3.209-4.333,2.238-4.333,1.042z"/>
		<path fill="#231F20" d="M8.666,1.042c0-1.196-0.97-2.167-2.167-2.167c-1.196,0-2.167,0.971-2.167,2.167s0.97,2.167,2.167,2.167
			C7.696,3.209,8.666,2.238,8.666,1.042z"/>
		<g>
			<path fill="none" stroke="#231F20" stroke-width="2" stroke-linecap="round" stroke-linejoin="round" stroke-miterlimit="10" d="
				M-6.667-7.666C-6.667-9.508-5.175-11-3.333-11C-1.493-11,0-9.508,0-7.666"/>
			<path fill="none" stroke="#231F20" stroke-width="2" stroke-linecap="round" stroke-linejoin="round" stroke-miterlimit="10" d="
				M0-7.666C0-9.508,1.492-11,3.333-11c1.842,0,3.334,1.492,3.334,3.334"/>
			
				<polygon fill="#231F20" stroke="#231F20" stroke-width="2" stroke-linecap="round" stroke-linejoin="round" stroke-miterlimit="10" points="
				0,-7.666 -1.924,-4.334 1.924,-4.334 			"/>
		</g>
		<path fill="none" stroke="#231F20" stroke-width="2" stroke-linecap="round" stroke-linejoin="round" stroke-miterlimit="10" d="
			M-4.333,9.127c0,0-5.417,7.207-6.5,7.207s-4.333-11.001-4.333-19.667c0-7.18,6.791-13.001,15.167-13.001
			c8.375,0,15.167,5.821,15.167,13.001c0,8.666-3.251,19.667-4.333,19.667c-1.083,0-6.5-7.207-6.5-7.207"/>
		<path fill="none" stroke="#231F20" stroke-width="2" stroke-linecap="round" stroke-linejoin="round" stroke-miterlimit="10" d="
			M6.501,8.413C4.53,9.216,2.326,9.667,0,9.667c-2.327,0-4.53-0.451-6.5-1.254"/>
		
			<line fill="none" stroke="#231F20" stroke-width="2" stroke-linecap="round" stroke-linejoin="round" stroke-miterlimit="10" x1="-13.001" y1="-3.333" x2="-17.334" y2="-3.333"/>
		
			<line fill="none" stroke="#231F20" stroke-width="2" stroke-linecap="round" stroke-linejoin="round" stroke-miterlimit="10" x1="17.332" y1="-3.333" x2="13" y2="-3.333"/>
		
			<line fill="none" stroke="#231F20" stroke-width="2" stroke-linecap="round" stroke-linejoin="round" stroke-miterlimit="10" x1="17.203" y1="-8.407" x2="13.13" y2="-6.926"/>
		
			<line fill="none" stroke="#231F20" stroke-width="2" stroke-linecap="round" stroke-linejoin="round" stroke-miterlimit="10" x1="-13.131" y1="0.259" x2="-17.203" y2="1.741"/>
		
			<line fill="none" stroke="#231F20" stroke-width="2" stroke-linecap="round" stroke-linejoin="round" stroke-miterlimit="10" x1="-13.132" y1="-6.926" x2="-17.203" y2="-8.407"/>
		
			<line fill="none" stroke="#231F20" stroke-width="2" stroke-linecap="round" stroke-linejoin="round" stroke-miterlimit="10" x1="17.202" y1="1.741" x2="13.13" y2="0.259"/>
	</g>
</symbol>
<symbol  id="Cat_-_Full_Body" viewBox="-24 -24 48 48">
	<polygon fill="none" points="24,-24 -24,-24 -24,24 24,24 	"/>
	<path fill="none" stroke="#231F20" stroke-width="2" stroke-linecap="round" stroke-miterlimit="10" d="M-6.5-13
		c-1.197,0-2.167-0.97-2.167-2.167v-2.167h4.333v2.167C-4.333-13.97-5.303-13-6.5-13z"/>
	<path fill="none" stroke="#231F20" stroke-width="2" stroke-linecap="round" stroke-miterlimit="10" d="M6.5-13
		c-1.197,0-2.167-0.97-2.167-2.167v-2.167h4.333v2.167C8.667-13.97,7.697-13,6.5-13z"/>
	
		<line fill="none" stroke="#231F20" stroke-width="2" stroke-linecap="round" stroke-miterlimit="10" x1="4.333" y1="-17.333" x2="-4.333" y2="-17.333"/>
	
		<line fill="none" stroke="#231F20" stroke-width="2" stroke-linecap="round" stroke-miterlimit="10" x1="-4.333" y1="-17.333" x2="-4.333" y2="-6.5"/>
	
		<line fill="none" stroke="#231F20" stroke-width="2" stroke-linecap="round" stroke-miterlimit="10" x1="4.333" y1="-17.333" x2="4.333" y2="-6.5"/>
	<path fill="none" stroke="#231F20" stroke-width="2" stroke-linecap="round" stroke-miterlimit="10" d="M5.721,2.178
		c1.806-1.589,2.946-3.917,2.946-6.511v-13"/>
	<path fill="none" stroke="#231F20" stroke-width="2" stroke-linecap="round" stroke-miterlimit="10" d="M-5.721,2.178
		c-1.806-1.589-2.946-3.917-2.946-6.511v-13"/>
	<path fill="none" stroke="#231F20" stroke-width="2" stroke-linecap="round" stroke-miterlimit="10" d="M12.301-7.578
		c-0.746-2.089-2.008-3.932-3.634-5.375"/>
	<path fill="#231F20" d="M-2.275,9.302c0-0.628-0.51-1.138-1.138-1.138c-0.629,0-1.138,0.51-1.138,1.138
		c0,0.629,0.509,1.138,1.138,1.138C-2.785,10.44-2.275,9.931-2.275,9.302z"/>
	<path fill="#231F20" d="M4.552,9.302c0-0.628-0.509-1.138-1.138-1.138c-0.628,0-1.138,0.51-1.138,1.138
		c0,0.629,0.51,1.138,1.138,1.138C4.043,10.44,4.552,9.931,4.552,9.302z"/>
	<g>
		<path fill="none" stroke="#231F20" stroke-width="2" stroke-linecap="round" stroke-miterlimit="10" d="M-3.501,5.118
			c0-0.968,0.784-1.751,1.75-1.751S0,4.15,0,5.118"/>
		<path fill="none" stroke="#231F20" stroke-width="2" stroke-linecap="round" stroke-miterlimit="10" d="M0,5.118
			C0,4.15,0.784,3.367,1.751,3.367c0.967,0,1.75,0.784,1.75,1.751"/>
		<polygon fill="#231F20" stroke="#231F20" stroke-width="2" stroke-linejoin="round" stroke-miterlimit="10" points="0,5.118 
			-1.01,6.868 1.011,6.868 		"/>
	</g>
	<path fill="none" stroke="#231F20" stroke-width="2" stroke-linecap="round" stroke-miterlimit="10" d="M-2.275,13.548
		c0,0-2.845,3.786-3.414,3.786s-2.276-5.777-2.276-10.33c0-3.771,3.566-6.828,7.966-6.828c4.399,0,7.965,3.058,7.965,6.828
		c0,4.552-1.708,10.33-2.276,10.33c-0.569,0-3.414-3.786-3.414-3.786"/>
	<path fill="none" stroke="#231F20" stroke-width="2" stroke-linecap="round" stroke-miterlimit="10" d="M3.415,13.173
		C2.38,13.595,1.222,13.832,0,13.832c-1.222,0-2.379-0.237-3.414-0.659"/>
	
		<line fill="none" stroke="#231F20" stroke-width="2" stroke-linecap="round" stroke-miterlimit="10" x1="-6.828" y1="7.004" x2="-9.104" y2="7.004"/>
	
		<line fill="none" stroke="#231F20" stroke-width="2" stroke-linecap="round" stroke-miterlimit="10" x1="9.104" y1="7.004" x2="6.828" y2="7.004"/>
	
		<line fill="none" stroke="#231F20" stroke-width="2" stroke-linecap="round" stroke-miterlimit="10" x1="9.036" y1="4.339" x2="6.897" y2="5.118"/>
	
		<line fill="none" stroke="#231F20" stroke-width="2" stroke-linecap="round" stroke-miterlimit="10" x1="-6.896" y1="8.891" x2="-9.035" y2="9.669"/>
	
		<line fill="none" stroke="#231F20" stroke-width="2" stroke-linecap="round" stroke-miterlimit="10" x1="-6.897" y1="5.118" x2="-9.035" y2="4.339"/>
	
		<line fill="none" stroke="#231F20" stroke-width="2" stroke-linecap="round" stroke-miterlimit="10" x1="9.035" y1="9.669" x2="6.897" y2="8.891"/>
</symbol>
<symbol  id="Dog" viewBox="-24 -24 48 48">
	<polygon fill="none" points="24,-24 -24,-24 -24,24 24,24 	"/>
	<g>
		<path fill="#231F20" d="M-2.167,2.208c0-1.196-0.97-2.166-2.167-2.166c-1.197,0-2.167,0.97-2.167,2.166
			c0,1.197,0.97,2.167,2.167,2.167C-3.137,4.375-2.167,3.405-2.167,2.208z"/>
		<path fill="#231F20" d="M6.499,2.208c0-1.196-0.969-2.166-2.167-2.166c-1.197,0-2.166,0.97-2.166,2.166
			c0,1.197,0.969,2.167,2.166,2.167C5.53,4.375,6.499,3.405,6.499,2.208z"/>
		<path fill="none" stroke="#231F20" stroke-width="2" stroke-linecap="round" stroke-miterlimit="10" d="M0,15.166
			c-3,0-10.834-0.666-10.834-8.666c0-3.167,0.833-6.505,0.833-8.667s-0.833-2.352-0.833-4.333c0-1.982,1.278-8.666,3.5-8.666
			c1.166,0,2.394,0.874,3.667,0.874c1.353,0,1.667-0.874,3.666-0.874L0-10.833"/>
		<path fill="none" stroke="#231F20" stroke-width="2" stroke-linecap="round" stroke-miterlimit="10" d="M-7.454,13.309
			c-1.213,1.246-2.817,1.857-4.045,1.857c-2,0-5.833-4.333-5.833-8.666s0.61-14.556,1.889-14.556c1.277,0,4.61,1.556,4.61,1.556"/>
		<path fill="none" stroke="#231F20" stroke-width="2" stroke-linecap="round" stroke-miterlimit="10" d="M0,15.166
			c3,0,10.834-0.666,10.834-8.666c0-3.167-0.833-6.505-0.833-8.667s0.833-2.352,0.833-4.333c0-1.982-1.278-8.666-3.499-8.666
			c-1.167,0-2.396,0.874-3.668,0.874c-1.353,0-1.667-0.874-3.666-0.874L0-10.833"/>
		<path fill="none" stroke="#231F20" stroke-width="2" stroke-linecap="round" stroke-miterlimit="10" d="M7.454,13.309
			c1.213,1.246,2.818,1.857,4.045,1.857c2,0,5.835-4.333,5.835-8.666s-0.612-14.556-1.89-14.556c-1.277,0-4.61,1.556-4.61,1.556"/>
		<polygon fill="#231F20" stroke="#231F20" stroke-width="2" stroke-linejoin="round" stroke-miterlimit="10" points="0,-10.833 
			-1.924,-7.5 1.925,-7.5 		"/>
	</g>
</symbol>
<symbol  id="Dog_" viewBox="-24 -24 48 48">
	<polygon fill="none" points="24,-24 -24,-24 -24,24 24,24 	"/>
	<path fill="#231F20" d="M-1.241,9.952c0-0.686-0.555-1.241-1.241-1.241c-0.686,0-1.241,0.555-1.241,1.241s0.555,1.241,1.241,1.241
		C-1.796,11.193-1.241,10.638-1.241,9.952z"/>
	<path fill="#231F20" d="M3.723,9.952c0-0.686-0.555-1.241-1.241-1.241c-0.686,0-1.24,0.555-1.24,1.241s0.555,1.241,1.24,1.241
		C3.168,11.193,3.723,10.638,3.723,9.952z"/>
	<path fill="none" stroke="#231F20" stroke-width="2" stroke-linecap="round" stroke-linejoin="round" stroke-miterlimit="10" d="
		M0,17.375c-1.719,0-6.206-0.381-6.206-4.964c0-1.814,0.477-3.727,0.477-4.965c0-1.238-0.477-1.346-0.477-2.481
		C-6.206,3.829-5.473,0-4.2,0c0.668,0,1.371,0.5,2.1,0.5C-1.325,0.5-1.146,0,0,0l0,2.482"/>
	<path fill="none" stroke="#231F20" stroke-width="2" stroke-linecap="round" stroke-miterlimit="10" d="M-4.27,16.311
		c-0.695,0.714-1.614,1.064-2.317,1.064c-1.146,0-3.341-2.482-3.341-4.964c0-2.482,0.349-8.338,1.082-8.338
		c0.731,0,2.641,0.891,2.641,0.891"/>
	<path fill="none" stroke="#231F20" stroke-width="2" stroke-linecap="round" stroke-linejoin="round" stroke-miterlimit="10" d="
		M0,17.375c1.718,0,6.206-0.381,6.206-4.964c0-1.814-0.478-3.727-0.478-4.965c0-1.238,0.478-1.346,0.478-2.481
		C6.206,3.829,5.474,0,4.202,0C3.533,0,2.83,0.5,2.101,0.5C1.326,0.5,1.146,0,0.001,0l0,2.482"/>
	<path fill="none" stroke="#231F20" stroke-width="2" stroke-linecap="round" stroke-miterlimit="10" d="M4.271,16.311
		c0.694,0.714,1.614,1.064,2.317,1.064c1.146,0,3.342-2.482,3.342-4.964c0-2.482-0.351-8.338-1.083-8.338S6.206,4.964,6.206,4.964"
		/>
	<polygon fill="#231F20" stroke="#231F20" stroke-width="2" stroke-linejoin="round" stroke-miterlimit="10" points="0,2.482 
		-1.102,4.391 1.103,4.391 	"/>
	<path fill="none" stroke="#231F20" stroke-width="2" stroke-linecap="round" stroke-miterlimit="10" d="M-6.5-13
		c-1.197,0-2.167-0.97-2.167-2.167v-2.167h4.333v2.167C-4.333-13.97-5.303-13-6.5-13z"/>
	<path fill="none" stroke="#231F20" stroke-width="2" stroke-linecap="round" stroke-miterlimit="10" d="M6.5-13
		c-1.197,0-2.167-0.97-2.167-2.167v-2.167h4.333v2.167C8.667-13.97,7.697-13,6.5-13z"/>
	
		<line fill="none" stroke="#231F20" stroke-width="2" stroke-linecap="round" stroke-miterlimit="10" x1="4.333" y1="-17.333" x2="-4.333" y2="-17.333"/>
	
		<line fill="none" stroke="#231F20" stroke-width="2" stroke-linecap="round" stroke-miterlimit="10" x1="-4.333" y1="-17.333" x2="-4.333" y2="-6.5"/>
	
		<line fill="none" stroke="#231F20" stroke-width="2" stroke-linecap="round" stroke-miterlimit="10" x1="4.333" y1="-17.333" x2="4.333" y2="-6.5"/>
	<path fill="none" stroke="#231F20" stroke-width="2" stroke-linecap="round" stroke-miterlimit="10" d="M5.721,2.178
		c1.806-1.589,2.946-3.917,2.946-6.511v-13"/>
	<path fill="none" stroke="#231F20" stroke-width="2" stroke-linecap="round" stroke-miterlimit="10" d="M-5.721,2.178
		c-1.806-1.589-2.946-3.917-2.946-6.511v-13"/>
	<path fill="none" stroke="#231F20" stroke-width="2" stroke-linecap="round" stroke-miterlimit="10" d="M12.301-7.578
		c-0.746-2.089-2.008-3.932-3.634-5.375"/>
</symbol>
<symbol  id="Dog_2_1_" viewBox="-24 -24 48 48">
	<polygon fill="none" points="24,-24 -24,-24 -24,24 24,24 	"/>
	<g>
		<path opacity="0.4" fill="#231F20" d="M-3.25-4.541c0-1.795,1.454-3.25,3.25-3.25c1.794,0,3.25,1.455,3.25,3.25L0-3.25
			L-3.25-4.541z"/>
		<path fill="#231F20" d="M-4.333,3.25c0-1.197-0.969-2.167-2.167-2.167c-1.196,0-2.166,0.97-2.166,2.167
			c0,1.196,0.969,2.166,2.166,2.166C-5.303,5.416-4.333,4.446-4.333,3.25z"/>
		<path fill="#231F20" d="M8.666,3.25c0-1.197-0.969-2.167-2.166-2.167c-1.198,0-2.167,0.97-2.167,2.167
			c0,1.196,0.969,2.166,2.167,2.166C7.697,5.416,8.666,4.446,8.666,3.25z"/>
		<path fill="none" stroke="#231F20" stroke-width="2" stroke-linecap="round" stroke-miterlimit="10" d="M13.002-2.167
			c0,7.181-5.821,17.333-13.002,17.333c-7.183,0-13.002-10.152-13.002-17.333c0-7.18,5.819-12.999,13.002-12.999
			C7.181-15.166,13.002-9.347,13.002-2.167z"/>
		<path fill="none" stroke="#231F20" stroke-width="2" stroke-linecap="round" stroke-miterlimit="10" d="M8.666-11.917
			C8.666-7.13,4.787-3.25,0-3.25s-8.666-3.88-8.666-8.667"/>
		<path fill="none" stroke="#231F20" stroke-width="2" stroke-linecap="round" stroke-miterlimit="10" d="M-3.25-4.541
			c0-1.795,1.454-3.25,3.25-3.25c1.794,0,3.25,1.455,3.25,3.25"/>
		<path fill="none" stroke="#231F20" stroke-width="2" stroke-linecap="round" stroke-miterlimit="10" d="M-3.063-10.865
			c1.692-1.692,4.436-1.692,6.128,0"/>
		
			<line fill="none" stroke="#231F20" stroke-width="2" stroke-linecap="round" stroke-miterlimit="10" x1="0.001" y1="-11.5" x2="0.001" y2="-7.791"/>
		<g>
			<path fill="none" stroke="#231F20" stroke-width="2" stroke-linecap="round" stroke-miterlimit="10" d="M17.333,6.5
				c0,2.394-1.94,4.333-4.333,4.333H7.94"/>
			<path fill="none" stroke="#231F20" stroke-width="2" stroke-linecap="round" stroke-miterlimit="10" d="M13-6.5
				c2.393,0,4.333,1.94,4.333,4.333"/>
			
				<line fill="none" stroke="#231F20" stroke-width="2" stroke-linecap="round" stroke-miterlimit="10" x1="17.333" y1="6.5" x2="17.333" y2="-2.167"/>
		</g>
		<g>
			<path fill="none" stroke="#231F20" stroke-width="2" stroke-linecap="round" stroke-miterlimit="10" d="M-17.333,6.5
				c0,2.394,1.94,4.333,4.333,4.333h5.059"/>
			<path fill="none" stroke="#231F20" stroke-width="2" stroke-linecap="round" stroke-miterlimit="10" d="M-13-6.5
				c-2.393,0-4.333,1.94-4.333,4.333"/>
			
				<line fill="none" stroke="#231F20" stroke-width="2" stroke-linecap="round" stroke-miterlimit="10" x1="-17.333" y1="6.5" x2="-17.333" y2="-2.167"/>
		</g>
		<path fill="none" stroke="#231F20" stroke-width="2" stroke-linecap="round" stroke-miterlimit="10" d="M-12.826-4.305
			C-5.667-3.832,0,2.345,0,9.896c0,1.839-0.336,3.595-0.948,5.208"/>
	</g>
</symbol>
<symbol  id="Dog_3" viewBox="-24 -24 48 48">
	<polygon fill="none" points="-24,24 24,24 24,-24 -24,-24 	"/>
	<path opacity="0.4" fill="#231F20" d="M-6.5-13c-1.197,0-2.167-0.97-2.167-2.167v-2.167h4.333v2.167C-4.333-13.97-5.303-13-6.5-13z
		"/>
	<path opacity="0.4" fill="#231F20" d="M6.5-13c-1.197,0-2.167-0.97-2.167-2.167v-2.167h4.333v2.167C8.667-13.97,7.697-13,6.5-13z"
		/>
	<path opacity="0.4" fill="#231F20" d="M10.833-13c-1.197,0-2.167-0.97-2.167-2.167v-2.167H13v2.167C13-13.97,12.03-13,10.833-13z"
		/>
	<path opacity="0.4" fill="#231F20" d="M-10.833-13C-12.03-13-13-13.97-13-15.167v-2.167h4.333v2.167
		C-8.667-13.97-9.637-13-10.833-13z"/>
	<path fill="#231F20" d="M-1.241,9.952c0-0.686-0.555-1.241-1.241-1.241c-0.686,0-1.241,0.555-1.241,1.241s0.555,1.241,1.241,1.241
		C-1.796,11.193-1.241,10.638-1.241,9.952z"/>
	<path fill="#231F20" d="M3.723,9.952c0-0.686-0.555-1.241-1.241-1.241c-0.686,0-1.24,0.555-1.24,1.241s0.555,1.241,1.24,1.241
		C3.168,11.193,3.723,10.638,3.723,9.952z"/>
	<path fill="none" stroke="#231F20" stroke-width="2" stroke-linecap="round" stroke-linejoin="round" stroke-miterlimit="10" d="
		M0,17.375c-1.719,0-6.206-0.381-6.206-4.964c0-1.814,0.477-3.727,0.477-4.965c0-1.238-0.477-1.346-0.477-2.481
		C-6.206,3.829-5.473,0-4.2,0c0.668,0,1.371,0.5,2.1,0.5C-1.325,0.5-1.146,0,0,0l0,2.482"/>
	<path fill="none" stroke="#231F20" stroke-width="2" stroke-linecap="round" stroke-miterlimit="10" d="M-4.27,16.311
		c-0.695,0.714-1.614,1.064-2.317,1.064c-1.146,0-3.341-2.482-3.341-4.964c0-2.482,0.349-8.338,1.082-8.338
		c0.731,0,2.641,0.891,2.641,0.891"/>
	<path fill="none" stroke="#231F20" stroke-width="2" stroke-linecap="round" stroke-linejoin="round" stroke-miterlimit="10" d="
		M0,17.375c1.718,0,6.206-0.381,6.206-4.964c0-1.814-0.478-3.727-0.478-4.965c0-1.238,0.478-1.346,0.478-2.481
		C6.206,3.829,5.474,0,4.202,0C3.533,0,2.83,0.5,2.101,0.5C1.326,0.5,1.146,0,0.001,0l0,2.482"/>
	<path fill="none" stroke="#231F20" stroke-width="2" stroke-linecap="round" stroke-miterlimit="10" d="M4.271,16.311
		c0.694,0.714,1.614,1.064,2.317,1.064c1.146,0,3.342-2.482,3.342-4.964c0-2.482-0.351-8.338-1.083-8.338S6.206,4.964,6.206,4.964"
		/>
	<polygon fill="#231F20" stroke="#231F20" stroke-width="2" stroke-linejoin="round" stroke-miterlimit="10" points="0,2.482 
		-1.102,4.391 1.103,4.391 	"/>
	<path fill="none" stroke="#231F20" stroke-width="2" stroke-linecap="round" stroke-miterlimit="10" d="M-6.5-13
		c-1.197,0-2.167-0.97-2.167-2.167v-2.167h4.333v2.167C-4.333-13.97-5.303-13-6.5-13z"/>
	<path fill="none" stroke="#231F20" stroke-width="2" stroke-linecap="round" stroke-miterlimit="10" d="M6.5-13
		c-1.197,0-2.167-0.97-2.167-2.167v-2.167h4.333v2.167C8.667-13.97,7.697-13,6.5-13z"/>
	<path fill="none" stroke="#231F20" stroke-width="2" stroke-linecap="round" stroke-miterlimit="10" d="M10.833-13
		c-1.197,0-2.167-0.97-2.167-2.167v-2.167H13v2.167C13-13.97,12.03-13,10.833-13z"/>
	<path fill="none" stroke="#231F20" stroke-width="2" stroke-linecap="round" stroke-miterlimit="10" d="M-10.833-13
		C-12.03-13-13-13.97-13-15.167v-2.167h4.333v2.167C-8.667-13.97-9.637-13-10.833-13z"/>
	<path fill="none" stroke="#231F20" stroke-width="2" stroke-linecap="round" stroke-miterlimit="10" d="M-10.833-6.5
		C-12.03-6.5-13-7.47-13-8.667v-8.667h4.333v8.667C-8.667-7.47-9.637-6.5-10.833-6.5z"/>
	<path fill="none" stroke="#231F20" stroke-width="2" stroke-linecap="round" stroke-miterlimit="10" d="M10.833-6.5
		c-1.197,0-2.167-0.97-2.167-2.167v-8.667H13v8.667C13-7.47,12.03-6.5,10.833-6.5z"/>
	
		<line fill="none" stroke="#231F20" stroke-width="2" stroke-linecap="round" stroke-miterlimit="10" x1="4.333" y1="-17.333" x2="-4.333" y2="-17.333"/>
	
		<line opacity="0.4" fill="none" stroke="#231F20" stroke-width="2" stroke-linecap="round" stroke-miterlimit="10" x1="-4.333" y1="-17.333" x2="-4.333" y2="-6.5"/>
	
		<line opacity="0.4" fill="none" stroke="#231F20" stroke-width="2" stroke-linecap="round" stroke-miterlimit="10" x1="4.333" y1="-17.333" x2="4.333" y2="-6.5"/>
	<path fill="none" stroke="#231F20" stroke-width="2" stroke-linecap="round" stroke-miterlimit="10" d="M5.721,2.178
		c1.806-1.589,2.946-3.917,2.946-6.511v-4.333"/>
	<path fill="none" stroke="#231F20" stroke-width="2" stroke-linecap="round" stroke-miterlimit="10" d="M-5.721,2.178
		c-1.806-1.589-2.946-3.917-2.946-6.511v-4.333"/>
	<path opacity="0.4" fill="none" stroke="#231F20" stroke-width="2" stroke-linecap="round" stroke-miterlimit="10" d="M12.301,0
		c-0.746-2.089-2.008-3.932-3.634-5.375"/>
</symbol>
<symbol  id="Dog_House" viewBox="-24 -24 48 48">
	<polygon fill="none" points="24,-24 -24,-24 -24,24 24,24 	"/>
	<path opacity="0.4" fill="#231F20" d="M4.333-17.333v8.666c0,2.394-1.939,4.333-4.333,4.333c-2.394,0-4.333-1.939-4.333-4.333
		v-8.666"/>
	
		<polygon fill="none" stroke="#231F20" stroke-width="2" stroke-linecap="round" stroke-linejoin="round" stroke-miterlimit="10" points="
		0,17.333 -17.333,4.334 -17.333,-4.334 0,8.667 17.333,-4.334 17.333,4.334 	"/>
	
		<polyline fill="none" stroke="#231F20" stroke-width="2" stroke-linecap="round" stroke-linejoin="round" stroke-miterlimit="10" points="
		13,-1.056 8.666,-17.333 -8.667,-17.333 -13,-1.056 	"/>
	<path fill="none" stroke="#231F20" stroke-width="2" stroke-linecap="round" stroke-linejoin="round" stroke-miterlimit="10" d="
		M4.333-17.333v8.666c0,2.394-1.939,4.333-4.333,4.333c-2.394,0-4.333-1.939-4.333-4.333v-8.666"/>
</symbol>
<symbol  id="Dog_House_2" viewBox="-24 -24 48 48">
	<polygon fill="none" points="24,-24 -24,-24 -24,24 24,24 	"/>
	<path opacity="0.4" fill="#231F20" d="M4.333-13v8.666C4.333-1.94,2.393,0,0,0c-2.394,0-4.333-1.94-4.333-4.334V-13"/>
	
		<polyline fill="none" stroke="#231F20" stroke-width="2" stroke-linecap="round" stroke-linejoin="round" stroke-miterlimit="10" points="
		17.333,4.334 0,17.333 -17.333,4.334 	"/>
	
		<line fill="none" stroke="#231F20" stroke-width="2" stroke-linecap="round" stroke-linejoin="round" stroke-miterlimit="10" x1="-8.667" y1="-14.098" x2="-13" y2="7.499"/>
	
		<line fill="none" stroke="#231F20" stroke-width="2" stroke-linecap="round" stroke-linejoin="round" stroke-miterlimit="10" x1="13" y1="7.499" x2="8.666" y2="-14.098"/>
	<path fill="none" stroke="#231F20" stroke-width="2" stroke-linecap="round" stroke-linejoin="round" stroke-miterlimit="10" d="
		M4.333-13v8.666C4.333-1.94,2.393,0,0,0c-2.394,0-4.333-1.94-4.333-4.334V-13"/>
	<path fill="none" stroke="#231F20" stroke-width="2" stroke-linecap="round" stroke-linejoin="round" stroke-miterlimit="10" d="
		M17.333-17.312C17.333-17.312,9.574-13,0-13s-17.333-4.312-17.333-4.312"/>
</symbol>
<symbol  id="Dog_House_3" viewBox="-24 -24 48 48">
	<polygon fill="none" points="24,-24 -24,-24 -24,24 24,24 	"/>
	<g>
		<path opacity="0.4" fill="#231F20" d="M4.333-15.166V-6.5c0,2.394-1.94,4.333-4.333,4.333S-4.333-4.106-4.333-6.5v-8.666"/>
		
			<polyline fill="none" stroke="#231F20" stroke-width="2" stroke-linecap="round" stroke-linejoin="round" stroke-miterlimit="10" points="
			17.333,2.167 0,15.166 -17.333,2.167 		"/>
		
			<polyline fill="none" stroke="#231F20" stroke-width="2" stroke-linecap="round" stroke-linejoin="round" stroke-miterlimit="10" points="
			13,5.332 8.667,-15.166 -8.667,-15.166 -13.001,5.332 		"/>
		<path fill="none" stroke="#231F20" stroke-width="2" stroke-linecap="round" stroke-linejoin="round" stroke-miterlimit="10" d="
			M4.333-15.166V-6.5c0,2.394-1.94,4.333-4.333,4.333S-4.333-4.106-4.333-6.5v-8.666"/>
		
			<line fill="none" stroke="#231F20" stroke-width="2" stroke-linecap="round" stroke-linejoin="round" stroke-miterlimit="10" x1="13" y1="-15.166" x2="-13.001" y2="-15.166"/>
	</g>
</symbol>
<symbol  id="Egg" viewBox="-24 -24 48 48">
	<polygon fill="none" points="24,24 -24,24 -24,-24 24,-24 	"/>
	<path fill="none" stroke="#231F20" stroke-width="2" stroke-linecap="round" stroke-linejoin="round" stroke-miterlimit="10" d="
		M13.866-3.467c0,7.658-6.208,20.799-13.866,20.799S-13.866,4.191-13.866-3.467S-7.658-17.334,0-17.334S13.866-11.125,13.866-3.467z
		"/>
	
		<path opacity="0.5" fill="none" stroke="#231F20" stroke-width="2" stroke-linecap="round" stroke-linejoin="round" stroke-miterlimit="10" d="
		M-2.979,11.914c-2.289-1.946-4.648-5.668-5.925-9.688"/>
</symbol>
<symbol  id="Food_Bowl" viewBox="-24 -24 48 48">
	<polygon fill="none" points="24,-24 -24,-24 -24,24 24,24 	"/>
	<path fill="none" stroke="#231F20" stroke-width="2" stroke-linecap="round" stroke-miterlimit="10" d="M13,4.334
		c0,2.393-5.821,4.333-13,4.333c-7.18,0-13.001-1.94-13.001-4.333C-13.001,1.94-7.18,0,0,0C7.179,0,13,1.94,13,4.334z"/>
	<path fill="none" stroke="#231F20" stroke-width="2" stroke-linecap="round" stroke-miterlimit="10" d="M0-8.667
		c-9.574,0-17.334,2.587-17.334,5.778l4.61,8.114"/>
	<path fill="none" stroke="#231F20" stroke-width="2" stroke-linecap="round" stroke-miterlimit="10" d="M0-8.667
		c9.572,0,17.332,2.587,17.332,5.778l-4.61,8.114"/>
</symbol>
<symbol  id="Paw" viewBox="-24 -24 48 48">
	<polygon fill="none" points="24,-24 -24,-24 -24,24 24,24 	"/>
	<g>
		<path fill="none" stroke="#231F20" stroke-width="2" stroke-linecap="round" stroke-miterlimit="10" d="M0.012,2.393
			c-4.954,0-9.906-7.428-9.906-12.133c0-2.871,1.663-5.2,3.715-5.2c1.867,0,3.745,2.477,6.191,2.477c2.444,0,4.35-2.477,6.223-2.477
			c2.051,0,3.712,2.329,3.712,5.2C9.947-5.035,4.964,2.393,0.012,2.393z"/>
		<path fill="none" stroke="#231F20" stroke-width="2" stroke-linecap="round" stroke-miterlimit="10" d="M8.664,9.828
			c-0.62-2.311-2.526-3.809-4.26-3.344c-1.734,0.464-2.638,2.715-2.019,5.027c0.62,2.312,2.528,3.809,4.262,3.344
			C8.38,14.391,9.284,12.141,8.664,9.828z"/>
		<path fill="none" stroke="#231F20" stroke-width="2" stroke-linecap="round" stroke-miterlimit="10" d="M17.138,1.552
			c-0.62-2.312-2.527-3.809-4.261-3.345c-1.734,0.465-2.637,2.715-2.018,5.027c0.619,2.312,2.527,3.809,4.261,3.345
			S17.756,3.865,17.138,1.552z"/>
		<path fill="none" stroke="#231F20" stroke-width="2" stroke-linecap="round" stroke-miterlimit="10" d="M-8.638,9.828
			c0.619-2.312,2.526-3.809,4.26-3.344c1.734,0.464,2.638,2.714,2.018,5.027c-0.619,2.311-2.526,3.809-4.261,3.344
			S-9.258,12.141-8.638,9.828z"/>
		<path fill="none" stroke="#231F20" stroke-width="2" stroke-linecap="round" stroke-miterlimit="10" d="M-17.139,1.918
			c0.619-2.312,2.526-3.81,4.26-3.346c1.734,0.466,2.638,2.716,2.019,5.027c-0.62,2.312-2.528,3.809-4.262,3.345
			C-16.856,6.479-17.759,4.229-17.139,1.918z"/>
	</g>
</symbol>
<symbol  id="Turtle" viewBox="-24 -24 48 48">
	<polygon fill="none" points="24,-24 -24,-24 -24,24 24,24 	"/>
	<path fill="none" stroke="#231F20" stroke-width="2" stroke-linecap="round" stroke-miterlimit="10" d="M10.342,3.524l2.023,2.024
		c0.847,0.846,0.847,2.218,0,3.064s-2.218,0.846-3.064,0L7.585,6.896"/>
	<path fill="none" stroke="#231F20" stroke-width="2" stroke-linecap="round" stroke-miterlimit="10" d="M6.356-10l1.53-1.531
		c0.847-0.847,2.218-0.847,3.064,0s0.847,2.218,0,3.064L8.937-6.452"/>
	<path fill="none" stroke="#231F20" stroke-width="2" stroke-linecap="round" stroke-miterlimit="10" d="M-8.939-6.455l-2.012-2.012
		c-0.847-0.847-0.847-2.218,0-3.064s2.218-0.847,3.064,0L-6.355-10"/>
	<path fill="none" stroke="#231F20" stroke-width="2" stroke-linecap="round" stroke-miterlimit="10" d="M-7.585,6.897L-9.3,8.612
		c-0.847,0.847-2.218,0.847-3.064,0s-0.847-2.218,0-3.064l2.023-2.024"/>
	<path fill="none" stroke="#231F20" stroke-width="2" stroke-linecap="round" stroke-miterlimit="10" d="M4.334,8.211V13
		c0,2.393-1.94,4.333-4.334,4.333c-2.393,0-4.333-1.94-4.333-4.333V8.211"/>
	<path fill="none" stroke="#231F20" stroke-width="2" stroke-linecap="round" stroke-miterlimit="10" d="M10.833,0.542
		c0,5.983-4.85,8.125-10.833,8.125c-5.983,0-10.833-2.142-10.833-8.125S-5.983-13,0-13C5.983-13,10.833-5.441,10.833,0.542z"/>
	<path fill="#FFFFFF" stroke="#231F20" stroke-width="2" stroke-linecap="round" stroke-miterlimit="10" d="M2.167-17.334
		C0.97-17.334,0-16.364,0-15.167V-13"/>
</symbol>
<symbol  id="Turtle_2" viewBox="-24 -24 48 48">
	<polygon fill="none" points="24,-24 -24,-24 -24,24 24,24 	"/>
	<path fill="none" stroke="#231F20" stroke-width="2" stroke-linecap="round" stroke-miterlimit="10" d="M17.333-4.333
		c0,7.18-5.82,13-13,13s-13-5.82-13-13H17.333z"/>
	<path fill="none" stroke="#231F20" stroke-width="2" stroke-linecap="round" stroke-miterlimit="10" d="M-13,4.333
		c-2.394,0-4.333-1.94-4.333-4.333s1.94-4.333,4.333-4.333h4.333V0C-8.667,2.394-10.606,4.333-13,4.333z"/>
	<path fill="none" stroke="#231F20" stroke-width="2" stroke-linecap="round" stroke-miterlimit="10" d="M0-4.333V-6.5
		c0-1.197-0.97-2.167-2.167-2.167c-1.196,0-2.167,0.97-2.167,2.167v2.166"/>
	<path fill="none" stroke="#231F20" stroke-width="2" stroke-linecap="round" stroke-miterlimit="10" d="M13-4.333V-6.5
		c0-1.197-0.97-2.167-2.167-2.167c-1.196,0-2.167,0.97-2.167,2.167v2.166"/>
</symbol>
<symbol  id="Turtle_3" viewBox="-24 -24 48 48">
	<polygon fill="none" points="24,-24 -24,-24 -24,24 24,24 	"/>
	<path fill="none" stroke="#231F20" stroke-width="2" stroke-linecap="round" stroke-miterlimit="10" d="M0,4.334
		c-2.394,0-4.333-1.94-4.333-4.333v-4.333h8.667V0C4.334,2.394,2.394,4.334,0,4.334z"/>
	<path fill="none" stroke="#231F20" stroke-width="2" stroke-linecap="round" stroke-miterlimit="10" d="M4.334,0h4.332
		c0,4.786-3.88,8.667-8.666,8.667S-8.667,4.786-8.667,0h4.333"/>
	<path fill="none" stroke="#231F20" stroke-width="2" stroke-linecap="round" stroke-miterlimit="10" d="M4.332-4.333V-6.5
		c0-1.196,0.971-2.167,2.167-2.167S8.666-7.696,8.666-6.5v2.167H4.332z"/>
	<path fill="none" stroke="#231F20" stroke-width="2" stroke-linecap="round" stroke-miterlimit="10" d="M-8.667-4.333V-6.5
		c0-1.196,0.97-2.167,2.167-2.167s2.167,0.97,2.167,2.167v2.167H-8.667z"/>
	<path fill="#231F20" fill-opacity="0.4" stroke="#231F20" stroke-width="2" stroke-linecap="round" stroke-miterlimit="10" d="
		M-4.333,0h-4.333c-1.196,0-2.167-0.97-2.167-2.167s0.97-2.167,2.167-2.167H8.666c1.195,0,2.166,0.97,2.166,2.167S9.861,0,8.666,0
		H4.334L4.332-4.333h-8.666L-4.333,0z"/>
	<path fill="#231F20" d="M-0.445,0c0-0.552-0.447-1-1-1c-0.552,0-1,0.448-1,1c0,0.553,0.448,1,1,1C-0.892,1-0.445,0.553-0.445,0z"/>
	<path fill="#231F20" d="M2.444,0c0-0.552-0.447-1-1-1c-0.552,0-1,0.448-1,1c0,0.553,0.448,1,1,1C1.997,1,2.444,0.553,2.444,0z"/>
	<path opacity="0.4" fill="#231F20" d="M-4.403,7.455C-5.66,6.711-6.711,5.66-7.456,4.402C-7.06,3.974-6.499,3.702-5.87,3.702
		c1.197,0,2.168,0.97,2.168,2.167C-3.702,6.498-3.974,7.06-4.403,7.455z"/>
	<path opacity="0.4" fill="#231F20" d="M5.869,3.702c0.629,0,1.19,0.272,1.586,0.701C6.711,5.66,5.66,6.711,4.402,7.456
		C3.974,7.06,3.701,6.498,3.701,5.869C3.701,4.672,4.672,3.702,5.869,3.702z"/>
	<path opacity="0.4" fill="#231F20" d="M0,4.334c0.76,0,1.464-0.213,2.085-0.557C2.133,3.956,2.166,4.14,2.166,4.333
		C2.166,5.53,1.196,6.5,0,6.5c-1.197,0-2.168-0.97-2.168-2.167c0-0.194,0.034-0.378,0.081-0.557C-1.465,4.121-0.761,4.334,0,4.334z"
		/>
</symbol>
<g id="Background">
</g>
<g id="Layer_1">
</g>
<g id="Model">
	<g id="Woman">
	</g>
	<g id="Threshold">
	</g>
	<g id="Man_with_Tie">
	</g>
	<g id="Building_5">
	</g>
</g>
<g id="Icons">
	<g id="Random_Forest">
	</g>
	<g>
		<g>
			
				<use xlink:href="#Dog_House_3"  width="48" height="48" id="XMLID_286_" x="-24" y="-24" transform="matrix(1.875 0 0 -1.875 375 375)" overflow="visible"/>
			
				<use xlink:href="#Dog_House"  width="48" height="48" id="XMLID_285_" x="-24" y="-24" transform="matrix(1.875 0 0 -1.875 95 375)" overflow="visible"/>
			
				<use xlink:href="#Bird_Cage"  width="48" height="48" x="-24" y="-24" transform="matrix(1.875 0 0 -1.875 515 375)" overflow="visible"/>
			
				<use xlink:href="#Dog_House_2"  width="48" height="48" id="XMLID_284_" x="-24" y="-24" transform="matrix(1.875 0 0 -1.875 235 375)" overflow="visible"/>
		</g>
		<g>
			
				<use xlink:href="#Bird_2"  width="48" height="48" id="XMLID_283_" x="-24" y="-24" transform="matrix(1.875 0 0 -1.875 1075 95)" overflow="visible"/>
			
				<use xlink:href="#Dog_2_1_"  width="48" height="48" id="XMLID_75_" x="-24" y="-24" transform="matrix(1.875 0 0 -1.875 235 95)" overflow="visible"/>
			
				<use xlink:href="#Dog"  width="48" height="48" x="-24" y="-24" transform="matrix(1.875 0 0 -1.875 95 95)" overflow="visible"/>
			
				<use xlink:href="#Cat"  width="48" height="48" id="XMLID_23_" x="-24" y="-24" transform="matrix(1.875 0 0 -1.875 375 95)" overflow="visible"/>
			
				<use xlink:href="#Bird"  width="48" height="48" id="XMLID_22_" x="-24" y="-24" transform="matrix(1.875 0 0 -1.875 935 95)" overflow="visible"/>
			
				<use xlink:href="#Dog_"  width="48" height="48" x="-24" y="-24" transform="matrix(1.875 0 0 -1.875 515 95)" overflow="visible"/>
			
				<use xlink:href="#Dog_3"  width="48" height="48" x="-24" y="-24" transform="matrix(1.875 0 0 -1.875 655 95)" overflow="visible"/>
			
				<use xlink:href="#Cat_-_Full_Body"  width="48" height="48" x="-24" y="-24" transform="matrix(1.875 0 0 -1.875 795 95)" overflow="visible"/>
		</g>
		<g>
			
				<use xlink:href="#Food_Bowl"  width="48" height="48" x="-24" y="-24" transform="matrix(1.875 0 0 -1.875 795 235)" overflow="visible"/>
			
				<use xlink:href="#Bone"  width="48" height="48" x="-24" y="-24" transform="matrix(1.875 0 0 -1.875 515 235)" overflow="visible"/>
			
				<use xlink:href="#Bones"  width="48" height="48" x="-24" y="-24" transform="matrix(1.875 0 0 -1.875 655 235)" overflow="visible"/>
			
				<use xlink:href="#Paw"  width="48" height="48" x="-24" y="-24" transform="matrix(1.875 0 0 -1.875 935 235)" overflow="visible"/>
			
				<use xlink:href="#Turtle"  width="48" height="48" x="-24" y="-24" transform="matrix(1.875 0 0 -1.875 235 235)" overflow="visible"/>
			
				<use xlink:href="#Turtle_2"  width="48" height="48" x="-24" y="-24" transform="matrix(1.875 0 0 -1.875 95 235)" overflow="visible"/>
			
				<use xlink:href="#Egg"  width="48" height="48" id="XMLID_21_" x="-24" y="-24" transform="matrix(1.875 0 0 -1.875 1075 235)" overflow="visible"/>
			
				<use xlink:href="#Turtle_3"  width="48" height="48" x="-24" y="-24" transform="matrix(1.875 0 0 -1.875 375 235)" overflow="visible"/>
		</g>
	</g>
	<g id="Database">
	</g>
	<g id="Random_Forest_1_">
	</g>
	<g id="University">
	</g>
	<g id="Group">
	</g>
	<g id="Group_1_">
	</g>
	<g id="Scatterplott">
	</g>
	<g id="Long_Paper_2_">
	</g>
	<g id="Spread">
	</g>
	<g id="Isometric_Box">
	</g>
	<g id="Magnifying_Glass">
	</g>
	<g id="Code_2">
	</g>
</g>
<g id="Figures">
	<g id="Models">
	</g>
	<g id="Justice">
	</g>
	<g id="Sensor">
	</g>
	<g id="Widget">
	</g>
	<g id="Drop_1_">
	</g>
	<g id="Algorithm_1_">
	</g>
	<g id="On-body_sensor_1_">
	</g>
	<g id="Insulin_Pump_1_">
	</g>
	<g id="Drop">
	</g>
	<g id="Algorithm">
	</g>
	<g id="On-body_sensor">
	</g>
	<g id="Insulin_Pump">
	</g>
</g>
<g id="Meta__x2B__Title">
</g>
<g id="Isolation_Mode">
</g>
<g id="Long_Paper">
	<g id="Long_Paper_1_">
	</g>
	<g id="IV">
	</g>
	<g id="Air_Purifier">
	</g>
	<g id="Alarm">
	</g>
	<g id="Chat">
	</g>
	<g id="Presentation">
	</g>
	<g id="Dog_2">
	</g>
	<g id="Delivery">
	</g>
	<g id="Meat_2">
	</g>
</g>
</svg>
