<?xml version="1.0" encoding="utf-8"?>
<!-- Generator: Adobe Illustrator 16.0.0, SVG Export Plug-In . SVG Version: 6.00 Build 0)  -->
<!DOCTYPE svg PUBLIC "-//W3C//DTD SVG 1.1//EN" "http://www.w3.org/Graphics/SVG/1.1/DTD/svg11.dtd">
<svg version="1.1" xmlns="http://www.w3.org/2000/svg" xmlns:xlink="http://www.w3.org/1999/xlink" x="0px" y="0px" width="1170px"
	 height="655px" viewBox="0 0 1170 655" enable-background="new 0 0 1170 655" xml:space="preserve">
<g id="Background">
	<rect fill="#1266B2" width="1170" height="654"/>
</g>
<g id="Layer_1">
</g>
<g id="Model">
	<g id="Woman">
	</g>
	<g id="Threshold">
	</g>
	<g id="Man_with_Tie">
	</g>
	<g id="Building_5">
	</g>
</g>
<g id="Icons">
	<g id="Random_Forest">
	</g>
	<g id="Database">
	</g>
	<g id="Random_Forest_1_">
	</g>
	<g id="University">
	</g>
	<g id="Group">
	</g>
	<g id="Group_1_">
	</g>
	<g id="Scatterplott">
	</g>
	<g id="Long_Paper_2_">
	</g>
	<g id="Spread">
	</g>
	<g id="Isometric_Box">
	</g>
	<g id="Magnifying_Glass">
	</g>
	<g id="Code_2">
	</g>
</g>
<g id="Figures">
	<g id="Models">
	</g>
	<g id="Justice">
	</g>
	<g id="Sensor">
	</g>
	<g id="Widget">
	</g>
	<g id="Drop_1_">
		<g>
			
				<path fill="none" stroke="#FFFFFF" stroke-width="3.75" stroke-linecap="round" stroke-linejoin="round" stroke-miterlimit="10" d="
				M565.961,519.615c10.516,10.516,27.562,10.514,38.078,0c10.514-10.516,10.514-27.563,0.001-38.079l-19.039-19.038l-19.039,19.038
				C555.447,492.052,555.448,509.099,565.961,519.615z"/>
			
				<path opacity="0.7" fill="none" stroke="#FFFFFF" stroke-width="3.75" stroke-linecap="round" stroke-linejoin="round" stroke-miterlimit="10" d="
				M597.478,513.052c6.892-6.89,6.892-18.063,0-24.955"/>
		</g>
	</g>
	<g id="Algorithm_1_">
		
			<polyline fill="none" stroke="#FFFFFF" stroke-width="3.75" stroke-linecap="round" stroke-linejoin="round" stroke-miterlimit="10" points="
			593.126,159.375 617.499,159.375 617.499,135 601.249,135 		"/>
		
			<polyline fill="none" stroke="#FFFFFF" stroke-width="3.75" stroke-linecap="round" stroke-linejoin="round" stroke-miterlimit="10" points="
			606.995,140.746 601.249,135 606.995,129.254 		"/>
		
			<polyline fill="none" stroke="#FFFFFF" stroke-width="3.75" stroke-linecap="round" stroke-linejoin="round" stroke-miterlimit="10" points="
			576.872,110.625 552.499,110.625 552.499,159.375 568.75,159.375 		"/>
		
			<polyline fill="none" stroke="#FFFFFF" stroke-width="3.75" stroke-linecap="round" stroke-linejoin="round" stroke-miterlimit="10" points="
			563.004,153.629 568.75,159.375 563.004,165.121 		"/>
		
			<rect x="576.874" y="102.499" fill="none" stroke="#FFFFFF" stroke-width="3.75" stroke-linecap="round" stroke-linejoin="round" stroke-miterlimit="10" width="16.252" height="16.252"/>
		
			<rect x="576.874" y="126.874" fill="none" stroke="#FFFFFF" stroke-width="3.75" stroke-linecap="round" stroke-linejoin="round" stroke-miterlimit="10" width="16.252" height="16.252"/>
		
			<rect x="576.874" y="151.249" fill="none" stroke="#FFFFFF" stroke-width="3.75" stroke-linecap="round" stroke-linejoin="round" stroke-miterlimit="10" width="16.252" height="16.252"/>
	</g>
	<g id="On-body_sensor_1_">
		<path opacity="0.3" fill="#FFFFFF" d="M429.375,292.5c0-2.243,1.819-4.063,4.063-4.063h3.724
			c-1.111-6.722-5.043-12.186-11.771-12.186c-3.984,0-6.173,4.062-12.265,4.062v24.375c6.091,0,8.28,4.062,12.265,4.062
			c6.729,0,10.66-5.464,11.771-12.186h-3.724C431.194,296.563,429.375,294.743,429.375,292.5z"/>
		
			<path fill="none" stroke="#FFFFFF" stroke-width="3.75" stroke-linecap="round" stroke-linejoin="round" stroke-miterlimit="10" d="
			M429.375,292.5c0-2.243,1.819-4.063,4.063-4.063h3.724c-1.111-6.722-5.043-12.186-11.771-12.186
			c-3.984,0-6.173,4.062-12.265,4.062c-8.983,0-8.126-12.188-16.252-12.188c-13.462,0-24.375,10.913-24.375,24.375
			s10.913,24.375,24.375,24.375c8.126,0,7.269-12.188,16.252-12.188c6.091,0,8.28,4.062,12.265,4.062
			c6.729,0,10.66-5.464,11.771-12.186h-3.724C431.194,296.563,429.375,294.743,429.375,292.5z"/>
		
			<line fill="none" stroke="#FFFFFF" stroke-width="3.75" stroke-linecap="round" stroke-linejoin="round" stroke-miterlimit="10" x1="413.126" y1="280.312" x2="413.126" y2="304.688"/>
	</g>
	<g id="Insulin_Pump_1_">
		
			<path fill="none" stroke="#FFFFFF" stroke-width="3.75" stroke-linecap="round" stroke-linejoin="round" stroke-miterlimit="10" d="
			M779.218,268.125c2.245,0,4.063,1.82,4.063,4.063v48.75c0,2.243-1.818,4.063-4.063,4.063h-28.435
			c-2.243,0-4.063-1.818-4.063-4.063c0,0,0-49.142,0-50.938c0-1.875,1.875-1.875,1.875-3.75c0-0.938,0-6.251,0-6.251h12.341v4.063
			c0,2.245,1.82,4.063,4.063,4.063C772.11,268.125,772.11,268.125,779.218,268.125z"/>
		
			<rect x="754.843" y="276.251" fill="#FFFFFF" fill-opacity="0.3" stroke="#FFFFFF" stroke-width="3.75" stroke-linecap="round" stroke-linejoin="round" stroke-miterlimit="10" width="20.315" height="16.249"/>
		
			<rect x="759.255" y="303.006" transform="matrix(0.7071 -0.7071 0.7071 0.7071 5.7437 631.3676)" fill="none" stroke="#FFFFFF" stroke-width="3.75" stroke-linecap="round" stroke-linejoin="round" stroke-miterlimit="10" width="11.49" height="11.49"/>
	</g>
	<g>
		<path fill="#FFFFFF" d="M526.352,554.771h4.455c0.518,0,1.038,0.036,1.561,0.109c0.523,0.073,0.993,0.22,1.409,0.438
			c0.416,0.22,0.754,0.526,1.013,0.92s0.389,0.917,0.389,1.569c0,0.675-0.188,1.235-0.565,1.68s-0.875,0.762-1.494,0.953v0.033
			c0.395,0.057,0.751,0.166,1.072,0.329c0.32,0.163,0.596,0.372,0.826,0.625s0.408,0.548,0.532,0.886
			c0.123,0.338,0.186,0.697,0.186,1.08c0,0.63-0.135,1.156-0.405,1.578c-0.27,0.422-0.619,0.762-1.046,1.021
			c-0.428,0.259-0.909,0.444-1.443,0.557s-1.065,0.169-1.595,0.169h-4.894V554.771z M528.984,559.547h1.906
			c0.203,0,0.402-0.022,0.6-0.067c0.196-0.045,0.374-0.118,0.531-0.22c0.157-0.101,0.284-0.236,0.38-0.404
			c0.096-0.169,0.144-0.372,0.144-0.608c0-0.247-0.054-0.452-0.16-0.615c-0.107-0.163-0.245-0.29-0.414-0.38
			c-0.168-0.09-0.359-0.154-0.573-0.194c-0.214-0.039-0.422-0.059-0.624-0.059h-1.789V559.547z M528.984,564.491h2.362
			c0.202,0,0.407-0.022,0.616-0.067c0.208-0.045,0.396-0.124,0.565-0.236c0.168-0.112,0.306-0.259,0.413-0.438
			c0.106-0.18,0.16-0.399,0.16-0.658c0-0.281-0.07-0.509-0.211-0.684s-0.317-0.307-0.531-0.396s-0.444-0.152-0.692-0.186
			c-0.247-0.034-0.478-0.051-0.691-0.051h-1.991V564.491z"/>
		<path fill="#FFFFFF" d="M537.421,553.961h2.531v12.758h-2.531V553.961z"/>
		<path fill="#FFFFFF" d="M541.894,562.618c0-0.652,0.118-1.243,0.354-1.771c0.236-0.529,0.56-0.981,0.97-1.358
			c0.411-0.377,0.895-0.667,1.451-0.869c0.558-0.203,1.15-0.304,1.78-0.304s1.224,0.101,1.78,0.304
			c0.558,0.202,1.041,0.492,1.452,0.869c0.41,0.377,0.733,0.829,0.97,1.358c0.236,0.528,0.354,1.119,0.354,1.771
			s-0.118,1.243-0.354,1.771c-0.236,0.529-0.56,0.982-0.97,1.358c-0.411,0.377-0.895,0.667-1.452,0.869
			c-0.557,0.203-1.15,0.304-1.78,0.304s-1.223-0.101-1.78-0.304c-0.557-0.202-1.04-0.492-1.451-0.869
			c-0.41-0.376-0.733-0.829-0.97-1.358C542.012,563.861,541.894,563.271,541.894,562.618z M544.425,562.618
			c0,0.619,0.177,1.119,0.531,1.502s0.853,0.573,1.493,0.573c0.642,0,1.14-0.19,1.494-0.573s0.531-0.883,0.531-1.502
			c0-0.618-0.177-1.119-0.531-1.502c-0.354-0.382-0.853-0.573-1.494-0.573c-0.641,0-1.139,0.191-1.493,0.573
			C544.602,561.499,544.425,562,544.425,562.618z"/>
		<path fill="#FFFFFF" d="M552.609,562.618c0-0.652,0.118-1.243,0.354-1.771c0.236-0.529,0.56-0.981,0.97-1.358
			c0.411-0.377,0.895-0.667,1.451-0.869c0.558-0.203,1.15-0.304,1.78-0.304s1.224,0.101,1.78,0.304
			c0.558,0.202,1.041,0.492,1.452,0.869c0.41,0.377,0.733,0.829,0.97,1.358c0.236,0.528,0.354,1.119,0.354,1.771
			s-0.118,1.243-0.354,1.771c-0.236,0.529-0.56,0.982-0.97,1.358c-0.411,0.377-0.895,0.667-1.452,0.869
			c-0.557,0.203-1.15,0.304-1.78,0.304s-1.223-0.101-1.78-0.304c-0.557-0.202-1.04-0.492-1.451-0.869
			c-0.41-0.376-0.733-0.829-0.97-1.358C552.728,563.861,552.609,563.271,552.609,562.618z M555.141,562.618
			c0,0.619,0.177,1.119,0.531,1.502s0.853,0.573,1.493,0.573c0.642,0,1.14-0.19,1.494-0.573s0.531-0.883,0.531-1.502
			c0-0.618-0.177-1.119-0.531-1.502c-0.354-0.382-0.853-0.573-1.494-0.573c-0.641,0-1.139,0.191-1.493,0.573
			C555.317,561.499,555.141,562,555.141,562.618z"/>
		<path fill="#FFFFFF" d="M572.234,566.719h-2.329v-1.08h-0.034c-0.101,0.146-0.233,0.295-0.396,0.447s-0.354,0.29-0.573,0.413
			c-0.22,0.124-0.462,0.226-0.726,0.304c-0.265,0.079-0.537,0.118-0.818,0.118c-0.607,0-1.159-0.104-1.654-0.312
			s-0.919-0.501-1.273-0.878s-0.628-0.824-0.818-1.342c-0.191-0.517-0.287-1.085-0.287-1.704c0-0.573,0.087-1.122,0.262-1.646
			c0.174-0.522,0.422-0.987,0.742-1.392c0.32-0.405,0.711-0.729,1.173-0.971c0.461-0.242,0.984-0.362,1.569-0.362
			c0.528,0,1.021,0.081,1.477,0.244s0.829,0.441,1.122,0.835h0.034v-5.434h2.531V566.719z M569.905,562.618
			c0-0.618-0.177-1.119-0.531-1.502c-0.354-0.382-0.853-0.573-1.494-0.573c-0.641,0-1.139,0.191-1.493,0.573
			c-0.354,0.383-0.531,0.884-0.531,1.502c0,0.619,0.177,1.119,0.531,1.502s0.853,0.573,1.493,0.573c0.642,0,1.14-0.19,1.494-0.573
			S569.905,563.237,569.905,562.618z"/>
		<path fill="#FFFFFF" d="M591.235,565.875c-0.776,0.405-1.587,0.697-2.431,0.878c-0.844,0.18-1.704,0.27-2.582,0.27
			c-0.934,0-1.794-0.146-2.581-0.438c-0.788-0.293-1.469-0.712-2.042-1.258c-0.574-0.545-1.021-1.206-1.342-1.982
			s-0.48-1.643-0.48-2.599s0.16-1.822,0.48-2.599s0.768-1.438,1.342-1.983c0.573-0.545,1.254-0.964,2.042-1.257
			c0.787-0.292,1.647-0.438,2.581-0.438c0.957,0,1.837,0.115,2.642,0.346c0.804,0.23,1.51,0.627,2.117,1.189l-1.855,2.025
			c-0.36-0.371-0.766-0.652-1.216-0.844c-0.449-0.191-1.012-0.287-1.688-0.287c-0.562,0-1.071,0.096-1.526,0.287
			c-0.456,0.191-0.847,0.458-1.173,0.802c-0.327,0.343-0.577,0.751-0.751,1.223c-0.175,0.473-0.262,0.985-0.262,1.536
			c0,0.562,0.087,1.077,0.262,1.544c0.174,0.467,0.424,0.872,0.751,1.215c0.326,0.344,0.717,0.61,1.173,0.802
			c0.455,0.191,0.964,0.287,1.526,0.287c0.574,0,1.069-0.064,1.485-0.194c0.416-0.129,0.748-0.262,0.996-0.396v-1.94h-2.144v-2.431
			h4.675V565.875z"/>
		<path fill="#FFFFFF" d="M593.682,553.961h2.531v12.758h-2.531V553.961z"/>
		<path fill="#FFFFFF" d="M606.355,566.719h-2.43v-1.113h-0.034c-0.09,0.157-0.205,0.314-0.346,0.472
			c-0.141,0.158-0.312,0.299-0.515,0.422c-0.203,0.124-0.434,0.226-0.692,0.304c-0.259,0.079-0.54,0.118-0.844,0.118
			c-0.641,0-1.161-0.099-1.561-0.295s-0.709-0.47-0.929-0.818c-0.219-0.349-0.365-0.76-0.438-1.232
			c-0.073-0.472-0.109-0.983-0.109-1.535v-4.522h2.531v4.017c0,0.235,0.008,0.48,0.025,0.733c0.017,0.253,0.067,0.487,0.151,0.7
			c0.085,0.214,0.214,0.389,0.389,0.523c0.174,0.135,0.424,0.202,0.751,0.202c0.326,0,0.59-0.059,0.793-0.177
			c0.202-0.118,0.356-0.275,0.464-0.473c0.106-0.196,0.177-0.419,0.211-0.666c0.034-0.248,0.051-0.507,0.051-0.776v-4.084h2.531
			V566.719z"/>
		<path fill="#FFFFFF" d="M614.117,561.167c-0.124-0.18-0.298-0.329-0.523-0.447c-0.225-0.118-0.467-0.177-0.726-0.177
			c-0.641,0-1.139,0.191-1.493,0.573c-0.354,0.383-0.531,0.884-0.531,1.502c0,0.619,0.177,1.119,0.531,1.502
			s0.853,0.573,1.493,0.573c0.281,0,0.523-0.062,0.726-0.186c0.203-0.123,0.377-0.27,0.523-0.438l1.671,1.755
			c-0.395,0.405-0.858,0.689-1.393,0.853s-1.044,0.244-1.527,0.244c-0.63,0-1.224-0.101-1.78-0.304
			c-0.557-0.202-1.04-0.492-1.451-0.869c-0.411-0.376-0.734-0.829-0.97-1.358c-0.236-0.528-0.354-1.119-0.354-1.771
			s0.118-1.243,0.354-1.771c0.235-0.529,0.559-0.981,0.97-1.358s0.895-0.667,1.451-0.869c0.557-0.203,1.15-0.304,1.78-0.304
			c0.483,0,0.993,0.081,1.527,0.244s0.998,0.447,1.393,0.853L614.117,561.167z"/>
		<path fill="#FFFFFF" d="M616.817,562.618c0-0.652,0.118-1.243,0.354-1.771c0.236-0.529,0.56-0.981,0.97-1.358
			c0.411-0.377,0.895-0.667,1.451-0.869c0.558-0.203,1.15-0.304,1.78-0.304s1.224,0.101,1.78,0.304
			c0.558,0.202,1.041,0.492,1.452,0.869c0.41,0.377,0.733,0.829,0.97,1.358c0.236,0.528,0.354,1.119,0.354,1.771
			s-0.118,1.243-0.354,1.771c-0.236,0.529-0.56,0.982-0.97,1.358c-0.411,0.377-0.895,0.667-1.452,0.869
			c-0.557,0.203-1.15,0.304-1.78,0.304s-1.223-0.101-1.78-0.304c-0.557-0.202-1.04-0.492-1.451-0.869
			c-0.41-0.376-0.733-0.829-0.97-1.358C616.936,563.861,616.817,563.271,616.817,562.618z M619.349,562.618
			c0,0.619,0.177,1.119,0.531,1.502s0.853,0.573,1.493,0.573c0.642,0,1.14-0.19,1.494-0.573s0.531-0.883,0.531-1.502
			c0-0.618-0.177-1.119-0.531-1.502c-0.354-0.382-0.853-0.573-1.494-0.573c-0.641,0-1.139,0.191-1.493,0.573
			C619.525,561.499,619.349,562,619.349,562.618z"/>
		<path fill="#FFFFFF" d="M632.478,560.931c-0.371-0.461-0.86-0.692-1.469-0.692c-0.213,0-0.422,0.051-0.624,0.152
			s-0.304,0.275-0.304,0.523c0,0.202,0.104,0.352,0.312,0.447c0.208,0.096,0.473,0.18,0.793,0.253s0.664,0.151,1.029,0.236
			c0.365,0.084,0.709,0.217,1.029,0.396s0.585,0.425,0.793,0.733c0.208,0.31,0.312,0.724,0.312,1.241
			c0,0.528-0.115,0.964-0.346,1.308c-0.231,0.343-0.526,0.618-0.887,0.826c-0.359,0.209-0.765,0.354-1.215,0.439
			c-0.45,0.084-0.895,0.126-1.333,0.126c-0.573,0-1.153-0.081-1.738-0.244s-1.08-0.453-1.484-0.869l1.535-1.704
			c0.236,0.292,0.498,0.515,0.785,0.666c0.286,0.152,0.621,0.228,1.004,0.228c0.292,0,0.557-0.042,0.793-0.126
			c0.236-0.085,0.354-0.239,0.354-0.464c0-0.214-0.104-0.374-0.312-0.481c-0.208-0.106-0.473-0.196-0.793-0.27
			s-0.664-0.152-1.029-0.236c-0.365-0.085-0.709-0.211-1.029-0.38s-0.585-0.407-0.793-0.717c-0.209-0.31-0.312-0.724-0.312-1.241
			c0-0.483,0.099-0.899,0.295-1.248c0.197-0.349,0.456-0.636,0.776-0.861c0.321-0.225,0.689-0.391,1.105-0.497
			c0.416-0.107,0.838-0.16,1.266-0.16c0.54,0,1.086,0.078,1.637,0.235c0.552,0.158,1.019,0.439,1.401,0.844L632.478,560.931z"/>
		<path fill="#FFFFFF" d="M643.834,565.301c-0.405,0.518-0.917,0.918-1.536,1.198c-0.619,0.281-1.26,0.422-1.924,0.422
			c-0.63,0-1.224-0.101-1.78-0.304c-0.557-0.202-1.04-0.492-1.451-0.869c-0.411-0.376-0.734-0.829-0.97-1.358
			c-0.236-0.528-0.354-1.119-0.354-1.771s0.118-1.243,0.354-1.771c0.235-0.529,0.559-0.981,0.97-1.358s0.895-0.667,1.451-0.869
			c0.557-0.203,1.15-0.304,1.78-0.304c0.585,0,1.116,0.101,1.595,0.304c0.479,0.202,0.883,0.492,1.215,0.869
			s0.588,0.829,0.769,1.358c0.18,0.528,0.27,1.119,0.27,1.771v0.793h-5.872c0.101,0.484,0.32,0.869,0.658,1.156
			c0.337,0.287,0.753,0.43,1.248,0.43c0.416,0,0.769-0.093,1.055-0.278c0.287-0.186,0.537-0.424,0.751-0.717L643.834,565.301z
			 M641.69,561.69c0.011-0.428-0.129-0.794-0.422-1.098s-0.669-0.455-1.131-0.455c-0.281,0-0.528,0.045-0.742,0.135
			s-0.396,0.205-0.549,0.346c-0.151,0.141-0.27,0.304-0.354,0.489c-0.085,0.186-0.133,0.38-0.144,0.583H641.69z"/>
	</g>
	<g>
		<path fill="#FFFFFF" d="M296.928,355.376c-0.259-0.314-0.577-0.557-0.954-0.726s-0.812-0.253-1.308-0.253
			s-0.953,0.096-1.375,0.287s-0.788,0.458-1.097,0.802c-0.31,0.343-0.552,0.751-0.726,1.223c-0.175,0.473-0.262,0.985-0.262,1.536
			c0,0.562,0.087,1.077,0.262,1.544c0.174,0.467,0.413,0.872,0.717,1.215c0.304,0.344,0.661,0.61,1.071,0.802
			c0.411,0.191,0.853,0.287,1.325,0.287c0.54,0,1.018-0.112,1.435-0.338c0.416-0.225,0.759-0.54,1.029-0.945l2.193,1.638
			c-0.506,0.708-1.147,1.231-1.924,1.569c-0.776,0.337-1.575,0.506-2.396,0.506c-0.934,0-1.794-0.146-2.581-0.438
			c-0.788-0.293-1.469-0.712-2.042-1.258c-0.574-0.545-1.021-1.206-1.342-1.982s-0.48-1.643-0.48-2.599s0.16-1.822,0.48-2.599
			s0.768-1.438,1.342-1.983c0.573-0.545,1.254-0.964,2.042-1.257c0.787-0.292,1.647-0.438,2.581-0.438
			c0.338,0,0.689,0.031,1.055,0.093c0.366,0.062,0.727,0.16,1.08,0.295c0.354,0.135,0.695,0.315,1.021,0.54
			c0.326,0.226,0.618,0.501,0.877,0.827L296.928,355.376z"/>
		<path fill="#FFFFFF" d="M300.472,360.118c0-0.652,0.118-1.243,0.354-1.771c0.236-0.529,0.56-0.981,0.97-1.358
			c0.411-0.377,0.895-0.667,1.451-0.869c0.558-0.203,1.15-0.304,1.78-0.304s1.224,0.101,1.78,0.304
			c0.558,0.202,1.041,0.492,1.452,0.869c0.41,0.377,0.733,0.829,0.97,1.358c0.236,0.528,0.354,1.119,0.354,1.771
			s-0.118,1.243-0.354,1.771c-0.236,0.529-0.56,0.982-0.97,1.358c-0.411,0.377-0.895,0.667-1.452,0.869
			c-0.557,0.203-1.15,0.304-1.78,0.304s-1.223-0.101-1.78-0.304c-0.557-0.202-1.04-0.492-1.451-0.869
			c-0.41-0.376-0.733-0.829-0.97-1.358C300.59,361.361,300.472,360.771,300.472,360.118z M303.003,360.118
			c0,0.619,0.177,1.119,0.531,1.502s0.853,0.573,1.493,0.573c0.642,0,1.14-0.19,1.494-0.573s0.531-0.883,0.531-1.502
			c0-0.618-0.177-1.119-0.531-1.502c-0.354-0.382-0.853-0.573-1.494-0.573c-0.641,0-1.139,0.191-1.493,0.573
			C303.18,358.999,303.003,359.5,303.003,360.118z"/>
		<path fill="#FFFFFF" d="M311.49,356.018h2.43v1.113h0.034c0.078-0.157,0.19-0.314,0.337-0.472
			c0.146-0.158,0.321-0.299,0.523-0.422c0.202-0.124,0.433-0.226,0.691-0.304c0.259-0.079,0.54-0.118,0.844-0.118
			c0.642,0,1.159,0.099,1.553,0.295c0.394,0.197,0.7,0.47,0.92,0.818s0.368,0.76,0.447,1.231c0.078,0.473,0.118,0.985,0.118,1.536
			v4.522h-2.531v-4.017c0-0.236-0.009-0.48-0.025-0.733c-0.017-0.254-0.067-0.486-0.152-0.7c-0.084-0.214-0.214-0.389-0.388-0.523
			c-0.175-0.135-0.425-0.202-0.751-0.202s-0.591,0.059-0.793,0.177s-0.357,0.275-0.464,0.473c-0.107,0.196-0.178,0.419-0.211,0.666
			c-0.034,0.248-0.051,0.507-0.051,0.776v4.084h-2.531V356.018z"/>
		<path fill="#FFFFFF" d="M327.185,358.043h-2.228v2.733c0,0.225,0.011,0.431,0.033,0.616s0.073,0.346,0.152,0.48
			c0.078,0.135,0.199,0.239,0.362,0.312s0.38,0.109,0.649,0.109c0.136,0,0.312-0.014,0.532-0.042
			c0.219-0.028,0.385-0.093,0.498-0.194v2.109c-0.282,0.102-0.574,0.169-0.878,0.203c-0.304,0.033-0.602,0.05-0.895,0.05
			c-0.428,0-0.821-0.045-1.181-0.135c-0.36-0.09-0.676-0.233-0.945-0.431c-0.271-0.196-0.481-0.452-0.633-0.768
			c-0.152-0.314-0.228-0.697-0.228-1.147v-3.897h-1.62v-2.025h1.62v-2.43h2.531v2.43h2.228V358.043z"/>
		<path fill="#FFFFFF" d="M328.72,353.436c0-0.405,0.144-0.751,0.431-1.038c0.286-0.286,0.633-0.43,1.037-0.43
			c0.405,0,0.751,0.144,1.038,0.43c0.287,0.287,0.431,0.633,0.431,1.038s-0.144,0.751-0.431,1.038s-0.633,0.43-1.038,0.43
			c-0.404,0-0.751-0.143-1.037-0.43C328.863,354.187,328.72,353.841,328.72,353.436z M328.922,356.018h2.531v8.201h-2.531V356.018z"
			/>
		<path fill="#FFFFFF" d="M333.697,356.018h2.43v1.113h0.034c0.078-0.157,0.19-0.314,0.337-0.472
			c0.146-0.158,0.321-0.299,0.523-0.422c0.202-0.124,0.433-0.226,0.691-0.304c0.259-0.079,0.54-0.118,0.844-0.118
			c0.642,0,1.159,0.099,1.553,0.295c0.394,0.197,0.7,0.47,0.92,0.818s0.368,0.76,0.447,1.231c0.078,0.473,0.118,0.985,0.118,1.536
			v4.522h-2.531v-4.017c0-0.236-0.009-0.48-0.025-0.733c-0.017-0.254-0.067-0.486-0.152-0.7c-0.084-0.214-0.214-0.389-0.388-0.523
			c-0.175-0.135-0.425-0.202-0.751-0.202s-0.591,0.059-0.793,0.177s-0.357,0.275-0.464,0.473c-0.107,0.196-0.178,0.419-0.211,0.666
			c-0.034,0.248-0.051,0.507-0.051,0.776v4.084h-2.531V356.018z"/>
		<path fill="#FFFFFF" d="M351.703,364.219h-2.43v-1.113h-0.034c-0.09,0.157-0.205,0.314-0.346,0.472
			c-0.141,0.158-0.312,0.299-0.515,0.422c-0.203,0.124-0.434,0.226-0.692,0.304c-0.259,0.079-0.54,0.118-0.844,0.118
			c-0.641,0-1.161-0.099-1.561-0.295s-0.709-0.47-0.929-0.818c-0.219-0.349-0.365-0.76-0.438-1.232
			c-0.073-0.472-0.109-0.983-0.109-1.535v-4.522h2.531v4.017c0,0.235,0.008,0.48,0.025,0.733c0.017,0.253,0.067,0.487,0.151,0.7
			c0.085,0.214,0.214,0.389,0.389,0.523c0.174,0.135,0.424,0.202,0.751,0.202c0.326,0,0.59-0.059,0.793-0.177
			c0.202-0.118,0.356-0.275,0.464-0.473c0.106-0.196,0.177-0.419,0.211-0.666c0.034-0.248,0.051-0.507,0.051-0.776v-4.084h2.531
			V364.219z"/>
		<path fill="#FFFFFF" d="M353.61,360.118c0-0.652,0.118-1.243,0.354-1.771c0.236-0.529,0.56-0.981,0.97-1.358
			c0.411-0.377,0.895-0.667,1.451-0.869c0.558-0.203,1.15-0.304,1.78-0.304s1.224,0.101,1.78,0.304
			c0.558,0.202,1.041,0.492,1.452,0.869c0.41,0.377,0.733,0.829,0.97,1.358c0.236,0.528,0.354,1.119,0.354,1.771
			s-0.118,1.243-0.354,1.771c-0.236,0.529-0.56,0.982-0.97,1.358c-0.411,0.377-0.895,0.667-1.452,0.869
			c-0.557,0.203-1.15,0.304-1.78,0.304s-1.223-0.101-1.78-0.304c-0.557-0.202-1.04-0.492-1.451-0.869
			c-0.41-0.376-0.733-0.829-0.97-1.358C353.729,361.361,353.61,360.771,353.61,360.118z M356.142,360.118
			c0,0.619,0.177,1.119,0.531,1.502s0.853,0.573,1.493,0.573c0.642,0,1.14-0.19,1.494-0.573s0.531-0.883,0.531-1.502
			c0-0.618-0.177-1.119-0.531-1.502c-0.354-0.382-0.853-0.573-1.494-0.573c-0.641,0-1.139,0.191-1.493,0.573
			C356.318,358.999,356.142,359.5,356.142,360.118z"/>
		<path fill="#FFFFFF" d="M372.526,364.219h-2.43v-1.113h-0.034c-0.09,0.157-0.205,0.314-0.346,0.472
			c-0.141,0.158-0.312,0.299-0.515,0.422c-0.203,0.124-0.434,0.226-0.692,0.304c-0.259,0.079-0.54,0.118-0.844,0.118
			c-0.641,0-1.161-0.099-1.561-0.295s-0.709-0.47-0.929-0.818c-0.219-0.349-0.365-0.76-0.438-1.232
			c-0.073-0.472-0.109-0.983-0.109-1.535v-4.522h2.531v4.017c0,0.235,0.008,0.48,0.025,0.733c0.017,0.253,0.067,0.487,0.151,0.7
			c0.085,0.214,0.214,0.389,0.389,0.523c0.174,0.135,0.424,0.202,0.751,0.202c0.326,0,0.59-0.059,0.793-0.177
			c0.202-0.118,0.356-0.275,0.464-0.473c0.106-0.196,0.177-0.419,0.211-0.666c0.034-0.248,0.051-0.507,0.051-0.776v-4.084h2.531
			V364.219z"/>
		<path fill="#FFFFFF" d="M379.378,358.431c-0.371-0.461-0.86-0.692-1.469-0.692c-0.213,0-0.422,0.051-0.624,0.152
			s-0.304,0.275-0.304,0.523c0,0.202,0.104,0.352,0.312,0.447c0.208,0.096,0.473,0.18,0.793,0.253s0.664,0.151,1.029,0.236
			c0.365,0.084,0.709,0.217,1.029,0.396s0.585,0.425,0.793,0.733c0.208,0.31,0.312,0.724,0.312,1.241
			c0,0.528-0.115,0.964-0.346,1.308c-0.231,0.343-0.526,0.618-0.887,0.826c-0.359,0.209-0.765,0.354-1.215,0.439
			c-0.45,0.084-0.895,0.126-1.333,0.126c-0.573,0-1.153-0.081-1.738-0.244s-1.08-0.453-1.484-0.869l1.535-1.704
			c0.236,0.292,0.498,0.515,0.785,0.666c0.286,0.152,0.621,0.228,1.004,0.228c0.292,0,0.557-0.042,0.793-0.126
			c0.236-0.085,0.354-0.239,0.354-0.464c0-0.214-0.104-0.374-0.312-0.481c-0.208-0.106-0.473-0.196-0.793-0.27
			s-0.664-0.152-1.029-0.236c-0.365-0.085-0.709-0.211-1.029-0.38s-0.585-0.407-0.793-0.717c-0.209-0.31-0.312-0.724-0.312-1.241
			c0-0.483,0.099-0.899,0.295-1.248c0.197-0.349,0.456-0.636,0.776-0.861c0.321-0.225,0.689-0.391,1.105-0.497
			c0.416-0.107,0.838-0.16,1.266-0.16c0.54,0,1.086,0.078,1.637,0.235c0.552,0.158,1.019,0.439,1.401,0.844L379.378,358.431z"/>
		<path fill="#FFFFFF" d="M399.526,363.375c-0.776,0.405-1.587,0.697-2.431,0.878c-0.844,0.18-1.704,0.27-2.582,0.27
			c-0.934,0-1.794-0.146-2.581-0.438c-0.788-0.293-1.469-0.712-2.042-1.258c-0.574-0.545-1.021-1.206-1.342-1.982
			s-0.48-1.643-0.48-2.599s0.16-1.822,0.48-2.599s0.768-1.438,1.342-1.983c0.573-0.545,1.254-0.964,2.042-1.257
			c0.787-0.292,1.647-0.438,2.581-0.438c0.957,0,1.837,0.115,2.642,0.346c0.804,0.23,1.51,0.627,2.117,1.189l-1.855,2.025
			c-0.36-0.371-0.766-0.652-1.216-0.844c-0.449-0.191-1.012-0.287-1.688-0.287c-0.562,0-1.071,0.096-1.526,0.287
			c-0.456,0.191-0.847,0.458-1.173,0.802c-0.327,0.343-0.577,0.751-0.751,1.223c-0.175,0.473-0.262,0.985-0.262,1.536
			c0,0.562,0.087,1.077,0.262,1.544c0.174,0.467,0.424,0.872,0.751,1.215c0.326,0.344,0.717,0.61,1.173,0.802
			c0.455,0.191,0.964,0.287,1.526,0.287c0.574,0,1.069-0.064,1.485-0.194c0.416-0.129,0.748-0.262,0.996-0.396v-1.94h-2.144v-2.431
			h4.675V363.375z"/>
		<path fill="#FFFFFF" d="M401.973,351.461h2.531v12.758h-2.531V351.461z"/>
		<path fill="#FFFFFF" d="M414.646,364.219h-2.43v-1.113h-0.034c-0.09,0.157-0.205,0.314-0.346,0.472
			c-0.141,0.158-0.312,0.299-0.515,0.422c-0.203,0.124-0.434,0.226-0.692,0.304c-0.259,0.079-0.54,0.118-0.844,0.118
			c-0.641,0-1.161-0.099-1.561-0.295s-0.709-0.47-0.929-0.818c-0.219-0.349-0.365-0.76-0.438-1.232
			c-0.073-0.472-0.109-0.983-0.109-1.535v-4.522h2.531v4.017c0,0.235,0.008,0.48,0.025,0.733c0.017,0.253,0.067,0.487,0.151,0.7
			c0.085,0.214,0.214,0.389,0.389,0.523c0.174,0.135,0.424,0.202,0.751,0.202c0.326,0,0.59-0.059,0.793-0.177
			c0.202-0.118,0.356-0.275,0.464-0.473c0.106-0.196,0.177-0.419,0.211-0.666c0.034-0.248,0.051-0.507,0.051-0.776v-4.084h2.531
			V364.219z"/>
		<path fill="#FFFFFF" d="M422.408,358.667c-0.124-0.18-0.298-0.329-0.523-0.447c-0.225-0.118-0.467-0.177-0.726-0.177
			c-0.641,0-1.139,0.191-1.493,0.573c-0.354,0.383-0.531,0.884-0.531,1.502c0,0.619,0.177,1.119,0.531,1.502
			s0.853,0.573,1.493,0.573c0.281,0,0.523-0.062,0.726-0.186c0.203-0.123,0.377-0.27,0.523-0.438l1.671,1.755
			c-0.395,0.405-0.858,0.689-1.393,0.853s-1.044,0.244-1.527,0.244c-0.63,0-1.224-0.101-1.78-0.304
			c-0.557-0.202-1.04-0.492-1.451-0.869c-0.411-0.376-0.734-0.829-0.97-1.358c-0.236-0.528-0.354-1.119-0.354-1.771
			s0.118-1.243,0.354-1.771c0.235-0.529,0.559-0.981,0.97-1.358s0.895-0.667,1.451-0.869c0.557-0.203,1.15-0.304,1.78-0.304
			c0.483,0,0.993,0.081,1.527,0.244s0.998,0.447,1.393,0.853L422.408,358.667z"/>
		<path fill="#FFFFFF" d="M425.108,360.118c0-0.652,0.118-1.243,0.354-1.771c0.236-0.529,0.56-0.981,0.97-1.358
			c0.411-0.377,0.895-0.667,1.451-0.869c0.558-0.203,1.15-0.304,1.78-0.304s1.224,0.101,1.78,0.304
			c0.558,0.202,1.041,0.492,1.452,0.869c0.41,0.377,0.733,0.829,0.97,1.358c0.236,0.528,0.354,1.119,0.354,1.771
			s-0.118,1.243-0.354,1.771c-0.236,0.529-0.56,0.982-0.97,1.358c-0.411,0.377-0.895,0.667-1.452,0.869
			c-0.557,0.203-1.15,0.304-1.78,0.304s-1.223-0.101-1.78-0.304c-0.557-0.202-1.04-0.492-1.451-0.869
			c-0.41-0.376-0.733-0.829-0.97-1.358C425.227,361.361,425.108,360.771,425.108,360.118z M427.64,360.118
			c0,0.619,0.177,1.119,0.531,1.502s0.853,0.573,1.493,0.573c0.642,0,1.14-0.19,1.494-0.573s0.531-0.883,0.531-1.502
			c0-0.618-0.177-1.119-0.531-1.502c-0.354-0.382-0.853-0.573-1.494-0.573c-0.641,0-1.139,0.191-1.493,0.573
			C427.816,358.999,427.64,359.5,427.64,360.118z"/>
		<path fill="#FFFFFF" d="M440.768,358.431c-0.371-0.461-0.86-0.692-1.469-0.692c-0.213,0-0.422,0.051-0.624,0.152
			s-0.304,0.275-0.304,0.523c0,0.202,0.104,0.352,0.312,0.447c0.208,0.096,0.473,0.18,0.793,0.253s0.664,0.151,1.029,0.236
			c0.365,0.084,0.709,0.217,1.029,0.396s0.585,0.425,0.793,0.733c0.208,0.31,0.312,0.724,0.312,1.241
			c0,0.528-0.115,0.964-0.346,1.308c-0.231,0.343-0.526,0.618-0.887,0.826c-0.359,0.209-0.765,0.354-1.215,0.439
			c-0.45,0.084-0.895,0.126-1.333,0.126c-0.573,0-1.153-0.081-1.738-0.244s-1.08-0.453-1.484-0.869l1.535-1.704
			c0.236,0.292,0.498,0.515,0.785,0.666c0.286,0.152,0.621,0.228,1.004,0.228c0.292,0,0.557-0.042,0.793-0.126
			c0.236-0.085,0.354-0.239,0.354-0.464c0-0.214-0.104-0.374-0.312-0.481c-0.208-0.106-0.473-0.196-0.793-0.27
			s-0.664-0.152-1.029-0.236c-0.365-0.085-0.709-0.211-1.029-0.38s-0.585-0.407-0.793-0.717c-0.209-0.31-0.312-0.724-0.312-1.241
			c0-0.483,0.099-0.899,0.295-1.248c0.197-0.349,0.456-0.636,0.776-0.861c0.321-0.225,0.689-0.391,1.105-0.497
			c0.416-0.107,0.838-0.16,1.266-0.16c0.54,0,1.086,0.078,1.637,0.235c0.552,0.158,1.019,0.439,1.401,0.844L440.768,358.431z"/>
		<path fill="#FFFFFF" d="M452.125,362.801c-0.405,0.518-0.917,0.918-1.536,1.198c-0.619,0.281-1.26,0.422-1.924,0.422
			c-0.63,0-1.224-0.101-1.78-0.304c-0.557-0.202-1.04-0.492-1.451-0.869c-0.411-0.376-0.734-0.829-0.97-1.358
			c-0.236-0.528-0.354-1.119-0.354-1.771s0.118-1.243,0.354-1.771c0.235-0.529,0.559-0.981,0.97-1.358s0.895-0.667,1.451-0.869
			c0.557-0.203,1.15-0.304,1.78-0.304c0.585,0,1.116,0.101,1.595,0.304c0.479,0.202,0.883,0.492,1.215,0.869
			s0.588,0.829,0.769,1.358c0.18,0.528,0.27,1.119,0.27,1.771v0.793h-5.872c0.101,0.484,0.32,0.869,0.658,1.156
			c0.337,0.287,0.753,0.43,1.248,0.43c0.416,0,0.769-0.093,1.055-0.278c0.287-0.186,0.537-0.424,0.751-0.717L452.125,362.801z
			 M449.981,359.19c0.011-0.428-0.129-0.794-0.422-1.098s-0.669-0.455-1.131-0.455c-0.281,0-0.528,0.045-0.742,0.135
			s-0.396,0.205-0.549,0.346c-0.151,0.141-0.27,0.304-0.354,0.489c-0.085,0.186-0.133,0.38-0.144,0.583H449.981z"/>
		<path fill="#FFFFFF" d="M460.207,352.271h3.982l2.751,7.796h0.033l2.768-7.796h3.966v11.947h-2.633v-9.163h-0.033l-3.139,9.163
			h-2.008l-3.021-9.163h-0.033v9.163h-2.633V352.271z"/>
		<path fill="#FFFFFF" d="M475.935,360.118c0-0.652,0.118-1.243,0.354-1.771c0.236-0.529,0.56-0.981,0.97-1.358
			c0.411-0.377,0.895-0.667,1.451-0.869c0.558-0.203,1.15-0.304,1.78-0.304s1.224,0.101,1.78,0.304
			c0.558,0.202,1.041,0.492,1.452,0.869c0.41,0.377,0.733,0.829,0.97,1.358c0.236,0.528,0.354,1.119,0.354,1.771
			s-0.118,1.243-0.354,1.771c-0.236,0.529-0.56,0.982-0.97,1.358c-0.411,0.377-0.895,0.667-1.452,0.869
			c-0.557,0.203-1.15,0.304-1.78,0.304s-1.223-0.101-1.78-0.304c-0.557-0.202-1.04-0.492-1.451-0.869
			c-0.41-0.376-0.733-0.829-0.97-1.358C476.053,361.361,475.935,360.771,475.935,360.118z M478.466,360.118
			c0,0.619,0.177,1.119,0.531,1.502s0.853,0.573,1.493,0.573c0.642,0,1.14-0.19,1.494-0.573s0.531-0.883,0.531-1.502
			c0-0.618-0.177-1.119-0.531-1.502c-0.354-0.382-0.853-0.573-1.494-0.573c-0.641,0-1.139,0.191-1.493,0.573
			C478.643,358.999,478.466,359.5,478.466,360.118z"/>
		<path fill="#FFFFFF" d="M486.954,356.018h2.43v1.113h0.034c0.078-0.157,0.19-0.314,0.337-0.472
			c0.146-0.158,0.321-0.299,0.523-0.422c0.202-0.124,0.433-0.226,0.691-0.304c0.259-0.079,0.54-0.118,0.844-0.118
			c0.642,0,1.159,0.099,1.553,0.295c0.394,0.197,0.7,0.47,0.92,0.818s0.368,0.76,0.447,1.231c0.078,0.473,0.118,0.985,0.118,1.536
			v4.522h-2.531v-4.017c0-0.236-0.009-0.48-0.025-0.733c-0.017-0.254-0.067-0.486-0.152-0.7c-0.084-0.214-0.214-0.389-0.388-0.523
			c-0.175-0.135-0.425-0.202-0.751-0.202s-0.591,0.059-0.793,0.177s-0.357,0.275-0.464,0.473c-0.107,0.196-0.178,0.419-0.211,0.666
			c-0.034,0.248-0.051,0.507-0.051,0.776v4.084h-2.531V356.018z"/>
		<path fill="#FFFFFF" d="M496.893,353.436c0-0.405,0.144-0.751,0.431-1.038c0.286-0.286,0.633-0.43,1.037-0.43
			c0.405,0,0.751,0.144,1.038,0.43c0.287,0.287,0.431,0.633,0.431,1.038s-0.144,0.751-0.431,1.038s-0.633,0.43-1.038,0.43
			c-0.404,0-0.751-0.143-1.037-0.43C497.036,354.187,496.893,353.841,496.893,353.436z M497.095,356.018h2.531v8.201h-2.531V356.018
			z"/>
		<path fill="#FFFFFF" d="M507.457,358.043h-2.228v2.733c0,0.225,0.011,0.431,0.033,0.616s0.073,0.346,0.152,0.48
			c0.078,0.135,0.199,0.239,0.362,0.312s0.38,0.109,0.649,0.109c0.136,0,0.312-0.014,0.532-0.042
			c0.219-0.028,0.385-0.093,0.498-0.194v2.109c-0.282,0.102-0.574,0.169-0.878,0.203c-0.304,0.033-0.602,0.05-0.895,0.05
			c-0.428,0-0.821-0.045-1.181-0.135c-0.36-0.09-0.676-0.233-0.945-0.431c-0.271-0.196-0.481-0.452-0.633-0.768
			c-0.152-0.314-0.228-0.697-0.228-1.147v-3.897h-1.62v-2.025h1.62v-2.43h2.531v2.43h2.228V358.043z"/>
		<path fill="#FFFFFF" d="M508.857,360.118c0-0.652,0.118-1.243,0.354-1.771c0.236-0.529,0.56-0.981,0.97-1.358
			c0.411-0.377,0.895-0.667,1.451-0.869c0.558-0.203,1.15-0.304,1.78-0.304s1.224,0.101,1.78,0.304
			c0.558,0.202,1.041,0.492,1.452,0.869c0.41,0.377,0.733,0.829,0.97,1.358c0.236,0.528,0.354,1.119,0.354,1.771
			s-0.118,1.243-0.354,1.771c-0.236,0.529-0.56,0.982-0.97,1.358c-0.411,0.377-0.895,0.667-1.452,0.869
			c-0.557,0.203-1.15,0.304-1.78,0.304s-1.223-0.101-1.78-0.304c-0.557-0.202-1.04-0.492-1.451-0.869
			c-0.41-0.376-0.733-0.829-0.97-1.358C508.976,361.361,508.857,360.771,508.857,360.118z M511.389,360.118
			c0,0.619,0.177,1.119,0.531,1.502s0.853,0.573,1.493,0.573c0.642,0,1.14-0.19,1.494-0.573s0.531-0.883,0.531-1.502
			c0-0.618-0.177-1.119-0.531-1.502c-0.354-0.382-0.853-0.573-1.494-0.573c-0.641,0-1.139,0.191-1.493,0.573
			C511.565,358.999,511.389,359.5,511.389,360.118z"/>
		<path fill="#FFFFFF" d="M519.876,356.018h2.531v1.316h0.033c0.271-0.507,0.591-0.886,0.962-1.14
			c0.372-0.253,0.838-0.379,1.401-0.379c0.146,0,0.292,0.005,0.438,0.017c0.146,0.011,0.281,0.033,0.405,0.067v2.312
			c-0.181-0.056-0.357-0.098-0.532-0.126c-0.174-0.028-0.357-0.042-0.548-0.042c-0.484,0-0.867,0.067-1.147,0.202
			c-0.281,0.135-0.498,0.323-0.65,0.565c-0.151,0.242-0.25,0.531-0.295,0.869c-0.045,0.337-0.067,0.708-0.067,1.113v3.426h-2.531
			V356.018z"/>
	</g>
	<g opacity="0.7">
		<path fill="#FFFFFF" d="M428.715,466.356c0-0.292-0.008-0.585-0.025-0.877c-0.017-0.293-0.036-0.585-0.059-0.878h1.198v1.198
			h0.033c0.271-0.461,0.645-0.811,1.122-1.047c0.479-0.235,0.954-0.354,1.426-0.354c0.214,0,0.441,0.022,0.684,0.067
			s0.476,0.126,0.7,0.244c0.226,0.118,0.437,0.284,0.633,0.498c0.197,0.214,0.363,0.489,0.498,0.827
			c0.226-0.507,0.582-0.905,1.071-1.198c0.49-0.293,0.999-0.438,1.527-0.438c1.013,0,1.761,0.267,2.245,0.801
			c0.483,0.535,0.726,1.297,0.726,2.287v5.012h-1.114v-4.606c0-0.799-0.141-1.412-0.422-1.84s-0.805-0.642-1.569-0.642
			c-0.416,0-0.765,0.082-1.046,0.245s-0.51,0.38-0.684,0.649c-0.175,0.271-0.301,0.577-0.38,0.92
			c-0.079,0.344-0.118,0.7-0.118,1.071v4.202h-1.113v-4.606c0-0.799-0.142-1.412-0.422-1.84c-0.281-0.428-0.805-0.642-1.569-0.642
			c-0.068,0-0.223,0.023-0.465,0.068c-0.241,0.045-0.492,0.168-0.751,0.371c-0.259,0.202-0.492,0.506-0.7,0.911
			s-0.312,0.968-0.312,1.688v4.05h-1.114V466.356z"/>
		<path fill="#FFFFFF" d="M444.29,468.854c0.034,0.394,0.129,0.765,0.287,1.113c0.157,0.349,0.365,0.649,0.624,0.902
			c0.259,0.254,0.557,0.453,0.895,0.6s0.703,0.22,1.097,0.22c0.597,0,1.111-0.138,1.544-0.414c0.434-0.275,0.763-0.593,0.987-0.953
			l0.86,0.709c-0.472,0.596-0.992,1.023-1.561,1.282s-1.179,0.388-1.831,0.388c-0.585,0-1.128-0.104-1.628-0.312
			c-0.501-0.208-0.932-0.498-1.291-0.869c-0.36-0.371-0.645-0.811-0.853-1.316s-0.312-1.058-0.312-1.654
			c0-0.596,0.102-1.147,0.304-1.653c0.203-0.506,0.484-0.945,0.844-1.316c0.36-0.371,0.782-0.66,1.266-0.869
			c0.484-0.208,1.007-0.312,1.57-0.312c0.596,0,1.13,0.106,1.603,0.32s0.869,0.498,1.189,0.853c0.321,0.354,0.565,0.771,0.734,1.248
			c0.169,0.479,0.253,0.987,0.253,1.527v0.507H444.29z M449.656,467.942c0-0.753-0.225-1.363-0.675-1.83s-1.08-0.701-1.89-0.701
			c-0.36,0-0.709,0.07-1.047,0.211c-0.337,0.142-0.633,0.329-0.886,0.565s-0.456,0.507-0.607,0.811
			c-0.152,0.304-0.228,0.618-0.228,0.944H449.656z"/>
		<path fill="#FFFFFF" d="M458.381,467.656v-0.203c0-1.36-0.675-2.042-2.024-2.042c-0.923,0-1.728,0.31-2.413,0.929l-0.676-0.793
			c0.743-0.766,1.856-1.147,3.342-1.147c0.382,0,0.751,0.056,1.105,0.168c0.354,0.113,0.66,0.284,0.919,0.515
			c0.259,0.231,0.467,0.521,0.625,0.869c0.157,0.35,0.236,0.766,0.236,1.249v3.527c0,0.304,0.014,0.621,0.042,0.953
			c0.027,0.332,0.059,0.604,0.093,0.818h-1.08c-0.034-0.191-0.06-0.399-0.076-0.624c-0.017-0.226-0.025-0.444-0.025-0.658h-0.033
			c-0.327,0.528-0.712,0.908-1.156,1.139s-0.987,0.346-1.628,0.346c-0.35,0-0.687-0.048-1.013-0.144
			c-0.327-0.095-0.616-0.241-0.869-0.438c-0.253-0.196-0.456-0.438-0.607-0.726c-0.152-0.287-0.229-0.621-0.229-1.004
			c0-0.642,0.166-1.145,0.498-1.511c0.332-0.365,0.748-0.638,1.249-0.818c0.5-0.18,1.035-0.292,1.604-0.337
			c0.567-0.045,1.088-0.067,1.561-0.067H458.381z M457.808,468.567c-0.281,0-0.633,0.014-1.055,0.042s-0.827,0.096-1.216,0.202
			c-0.388,0.107-0.72,0.273-0.995,0.498c-0.275,0.226-0.413,0.534-0.413,0.928c0,0.26,0.053,0.481,0.16,0.667
			c0.106,0.186,0.25,0.338,0.43,0.456c0.181,0.118,0.38,0.202,0.6,0.253c0.219,0.051,0.441,0.076,0.666,0.076
			c0.405,0,0.757-0.068,1.055-0.203c0.299-0.135,0.549-0.317,0.751-0.548c0.203-0.23,0.352-0.501,0.447-0.811
			s0.144-0.639,0.144-0.987v-0.573H457.808z"/>
		<path fill="#FFFFFF" d="M466.684,466.475c-0.169-0.326-0.395-0.585-0.676-0.776s-0.624-0.287-1.029-0.287
			c-0.191,0-0.385,0.023-0.582,0.068s-0.374,0.115-0.531,0.211c-0.158,0.096-0.284,0.216-0.38,0.362s-0.144,0.326-0.144,0.54
			c0,0.371,0.129,0.642,0.389,0.81c0.258,0.169,0.646,0.315,1.164,0.439l1.131,0.27c0.551,0.124,1.01,0.374,1.375,0.751
			s0.549,0.847,0.549,1.409c0,0.428-0.088,0.796-0.262,1.105c-0.175,0.31-0.405,0.562-0.692,0.759
			c-0.286,0.197-0.615,0.341-0.987,0.431c-0.371,0.09-0.748,0.135-1.13,0.135c-0.607,0-1.173-0.115-1.696-0.346
			s-0.971-0.627-1.342-1.189l0.962-0.658c0.226,0.36,0.509,0.647,0.853,0.86c0.343,0.214,0.751,0.321,1.224,0.321
			c0.225,0,0.449-0.025,0.675-0.076c0.225-0.051,0.425-0.13,0.599-0.236c0.175-0.106,0.315-0.245,0.422-0.413
			c0.107-0.169,0.16-0.366,0.16-0.591c0-0.394-0.146-0.678-0.438-0.853c-0.293-0.174-0.646-0.312-1.062-0.413l-1.08-0.253
			c-0.136-0.034-0.318-0.091-0.549-0.169c-0.23-0.079-0.456-0.197-0.675-0.354c-0.22-0.157-0.408-0.363-0.565-0.616
			c-0.158-0.253-0.236-0.565-0.236-0.937c0-0.405,0.081-0.76,0.245-1.063c0.162-0.304,0.382-0.551,0.657-0.742
			c0.276-0.191,0.588-0.335,0.938-0.431c0.348-0.095,0.708-0.143,1.079-0.143c0.552,0,1.063,0.106,1.536,0.32
			s0.838,0.579,1.097,1.097L466.684,466.475z"/>
		<path fill="#FFFFFF" d="M475.813,472.499c-0.022-0.214-0.037-0.425-0.042-0.633c-0.006-0.208-0.009-0.419-0.009-0.633h-0.034
			c-0.123,0.214-0.281,0.411-0.472,0.591c-0.191,0.18-0.405,0.335-0.642,0.464c-0.236,0.13-0.486,0.23-0.751,0.304
			s-0.526,0.109-0.785,0.109c-1.012,0-1.761-0.267-2.244-0.801s-0.726-1.297-0.726-2.287v-5.012h1.114v4.37
			c0,0.439,0.033,0.827,0.101,1.165c0.067,0.337,0.183,0.621,0.347,0.852c0.162,0.231,0.382,0.405,0.657,0.523
			c0.276,0.118,0.622,0.178,1.038,0.178c0.057,0,0.214-0.022,0.473-0.068c0.259-0.044,0.531-0.168,0.818-0.371
			c0.287-0.202,0.543-0.506,0.768-0.911c0.226-0.405,0.338-0.967,0.338-1.688v-4.05h1.113v6.159c0,0.214,0.009,0.484,0.025,0.811
			c0.018,0.326,0.037,0.636,0.06,0.928H475.813z"/>
		<path fill="#FFFFFF" d="M480.031,467.065c0-0.349-0.009-0.703-0.025-1.063c-0.017-0.359-0.031-0.827-0.042-1.4h1.097v1.468h0.034
			c0.078-0.213,0.191-0.419,0.337-0.615c0.146-0.197,0.323-0.374,0.532-0.532c0.208-0.157,0.449-0.284,0.726-0.38
			c0.275-0.095,0.588-0.143,0.937-0.143c0.314,0,0.591,0.033,0.826,0.101l-0.219,1.097c-0.146-0.056-0.36-0.084-0.642-0.084
			c-0.428,0-0.793,0.082-1.097,0.245s-0.557,0.371-0.76,0.624c-0.202,0.253-0.352,0.526-0.447,0.818
			c-0.096,0.293-0.143,0.574-0.143,0.844v4.455h-1.114V467.065z"/>
		<path fill="#FFFFFF" d="M486.41,468.854c0.034,0.394,0.129,0.765,0.287,1.113c0.157,0.349,0.365,0.649,0.624,0.902
			c0.259,0.254,0.557,0.453,0.895,0.6s0.703,0.22,1.097,0.22c0.597,0,1.111-0.138,1.544-0.414c0.434-0.275,0.763-0.593,0.987-0.953
			l0.86,0.709c-0.472,0.596-0.992,1.023-1.561,1.282s-1.179,0.388-1.831,0.388c-0.585,0-1.128-0.104-1.628-0.312
			c-0.501-0.208-0.932-0.498-1.291-0.869c-0.36-0.371-0.645-0.811-0.853-1.316s-0.312-1.058-0.312-1.654
			c0-0.596,0.102-1.147,0.304-1.653c0.203-0.506,0.484-0.945,0.844-1.316c0.36-0.371,0.782-0.66,1.266-0.869
			c0.484-0.208,1.007-0.312,1.57-0.312c0.596,0,1.13,0.106,1.603,0.32s0.869,0.498,1.189,0.853c0.321,0.354,0.565,0.771,0.734,1.248
			c0.169,0.479,0.253,0.987,0.253,1.527v0.507H486.41z M491.776,467.942c0-0.753-0.225-1.363-0.675-1.83s-1.08-0.701-1.89-0.701
			c-0.36,0-0.709,0.07-1.047,0.211c-0.337,0.142-0.633,0.329-0.886,0.565s-0.456,0.507-0.607,0.811
			c-0.152,0.304-0.228,0.618-0.228,0.944H491.776z"/>
		<path fill="#FFFFFF" d="M503.319,472.499h-1.114v-1.316h-0.033c-0.181,0.271-0.394,0.501-0.642,0.692
			c-0.247,0.191-0.506,0.349-0.776,0.472c-0.27,0.124-0.548,0.214-0.835,0.271c-0.287,0.056-0.56,0.084-0.818,0.084
			c-0.619,0-1.185-0.104-1.696-0.312s-0.953-0.498-1.324-0.869s-0.661-0.811-0.869-1.316s-0.312-1.058-0.312-1.654
			c0-0.596,0.104-1.147,0.312-1.653s0.498-0.945,0.869-1.316s0.812-0.66,1.324-0.869c0.512-0.208,1.077-0.312,1.696-0.312
			c0.259,0,0.531,0.027,0.818,0.084s0.565,0.146,0.835,0.27c0.271,0.124,0.529,0.282,0.776,0.473
			c0.248,0.191,0.461,0.422,0.642,0.692h0.033v-6.177h1.114V472.499z M496.113,468.55c0,0.439,0.07,0.85,0.211,1.232
			s0.341,0.715,0.6,0.995c0.259,0.282,0.57,0.504,0.937,0.667c0.365,0.163,0.778,0.245,1.24,0.245c0.45,0,0.869-0.082,1.257-0.245
			c0.389-0.163,0.723-0.385,1.004-0.667c0.281-0.28,0.501-0.612,0.658-0.995c0.158-0.383,0.236-0.793,0.236-1.232
			c0-0.438-0.078-0.849-0.236-1.231c-0.157-0.382-0.377-0.714-0.658-0.995s-0.615-0.504-1.004-0.667
			c-0.388-0.163-0.807-0.245-1.257-0.245c-0.462,0-0.875,0.082-1.24,0.245c-0.366,0.163-0.678,0.386-0.937,0.667
			s-0.459,0.613-0.6,0.995C496.184,467.701,496.113,468.111,496.113,468.55z"/>
		<path fill="#FFFFFF" d="M511.283,459.741h1.114v6.177h0.033c0.18-0.271,0.394-0.501,0.642-0.692
			c0.247-0.19,0.506-0.349,0.776-0.473c0.27-0.123,0.548-0.213,0.835-0.27s0.56-0.084,0.818-0.084c0.619,0,1.184,0.104,1.696,0.312
			c0.512,0.209,0.953,0.498,1.324,0.869s0.661,0.811,0.869,1.316s0.312,1.058,0.312,1.653c0,0.597-0.104,1.148-0.312,1.654
			s-0.498,0.945-0.869,1.316s-0.812,0.661-1.324,0.869c-0.513,0.208-1.077,0.312-1.696,0.312c-0.259,0-0.531-0.028-0.818-0.084
			c-0.287-0.057-0.565-0.146-0.835-0.271c-0.271-0.123-0.529-0.28-0.776-0.472c-0.248-0.191-0.462-0.422-0.642-0.692h-0.033v1.316
			h-1.114V459.741z M518.489,468.55c0-0.438-0.07-0.849-0.211-1.231c-0.141-0.382-0.341-0.714-0.6-0.995s-0.571-0.504-0.937-0.667
			s-0.779-0.245-1.24-0.245s-0.883,0.082-1.266,0.245s-0.715,0.386-0.995,0.667c-0.281,0.281-0.501,0.613-0.658,0.995
			c-0.158,0.383-0.236,0.793-0.236,1.231c0,0.439,0.078,0.85,0.236,1.232c0.157,0.383,0.377,0.715,0.658,0.995
			c0.28,0.282,0.612,0.504,0.995,0.667s0.805,0.245,1.266,0.245s0.875-0.082,1.24-0.245s0.678-0.385,0.937-0.667
			c0.259-0.28,0.459-0.612,0.6-0.995S518.489,468.989,518.489,468.55z"/>
		<path fill="#FFFFFF" d="M524.952,471.132l2.413-6.53h1.35l-3.948,9.956c-0.236,0.607-0.537,1.091-0.903,1.451
			c-0.365,0.36-0.892,0.54-1.577,0.54c-0.169,0-0.341-0.006-0.515-0.017c-0.175-0.012-0.347-0.045-0.515-0.102l0.118-1.08
			c0.235,0.124,0.517,0.186,0.844,0.186c0.394,0,0.702-0.123,0.928-0.371c0.225-0.247,0.422-0.596,0.591-1.046l0.573-1.519
			l-3.24-7.999h1.401L524.952,471.132z"/>
	</g>
	<g opacity="0.7">
		<path fill="#FFFFFF" d="M430.335,158.564c0,0.235-0.084,0.43-0.253,0.582c-0.169,0.151-0.354,0.228-0.557,0.228
			c-0.203,0-0.389-0.076-0.558-0.228c-0.168-0.152-0.253-0.347-0.253-0.582c0-0.236,0.085-0.431,0.253-0.583
			c0.169-0.151,0.354-0.228,0.558-0.228c0.202,0,0.388,0.076,0.557,0.228C430.251,158.134,430.335,158.328,430.335,158.564z
			 M430.082,169.499h-1.114v-7.897h1.114V169.499z"/>
		<path fill="#FFFFFF" d="M434.25,161.602c0.022,0.214,0.036,0.425,0.042,0.633s0.009,0.419,0.009,0.633h0.033
			c0.124-0.214,0.281-0.41,0.473-0.591c0.191-0.18,0.405-0.334,0.642-0.464c0.236-0.129,0.486-0.23,0.751-0.304
			c0.264-0.073,0.525-0.109,0.784-0.109c1.013,0,1.761,0.267,2.244,0.801c0.484,0.535,0.726,1.297,0.726,2.287v5.012h-1.113v-4.371
			c0-0.877-0.152-1.549-0.456-2.016s-0.866-0.701-1.688-0.701c-0.056,0-0.214,0.023-0.472,0.068
			c-0.26,0.045-0.532,0.168-0.819,0.371c-0.286,0.202-0.542,0.506-0.768,0.911c-0.225,0.405-0.337,0.968-0.337,1.688v4.05h-1.114
			v-6.159c0-0.214-0.008-0.483-0.025-0.811c-0.017-0.326-0.036-0.635-0.059-0.928H434.25z"/>
		<path fill="#FFFFFF" d="M446.67,162.614h-1.873v6.885h-1.113v-6.885h-1.671v-1.013h1.671v-2.16c0-1.046,0.241-1.791,0.726-2.235
			c0.483-0.444,1.125-0.667,1.924-0.667c0.157,0,0.317,0.012,0.48,0.034s0.323,0.05,0.481,0.084l-0.203,1.013
			c-0.135-0.034-0.275-0.062-0.422-0.085c-0.146-0.022-0.292-0.033-0.438-0.033c-0.304,0-0.552,0.051-0.742,0.151
			c-0.191,0.102-0.338,0.245-0.439,0.431c-0.101,0.186-0.168,0.402-0.202,0.649c-0.034,0.248-0.051,0.513-0.051,0.793v2.025h1.873
			V162.614z"/>
		<path fill="#FFFFFF" d="M456.39,165.55c0,0.597-0.104,1.148-0.312,1.654s-0.498,0.945-0.869,1.316s-0.812,0.661-1.324,0.869
			c-0.513,0.208-1.078,0.312-1.696,0.312c-0.607,0-1.167-0.104-1.679-0.312c-0.513-0.208-0.954-0.498-1.325-0.869
			s-0.661-0.811-0.869-1.316s-0.312-1.058-0.312-1.654c0-0.596,0.104-1.147,0.312-1.653s0.498-0.945,0.869-1.316
			s0.812-0.66,1.325-0.869c0.512-0.208,1.071-0.312,1.679-0.312c0.618,0,1.184,0.104,1.696,0.312
			c0.512,0.209,0.953,0.498,1.324,0.869s0.661,0.811,0.869,1.316S456.39,164.954,456.39,165.55z M455.174,165.55
			c0-0.438-0.07-0.849-0.211-1.231c-0.141-0.382-0.34-0.714-0.599-0.995s-0.571-0.504-0.937-0.667
			c-0.366-0.163-0.779-0.245-1.24-0.245c-0.462,0-0.875,0.082-1.24,0.245c-0.366,0.163-0.675,0.386-0.929,0.667
			c-0.253,0.281-0.449,0.613-0.59,0.995c-0.142,0.383-0.211,0.793-0.211,1.231c0,0.439,0.069,0.85,0.211,1.232
			c0.141,0.383,0.337,0.715,0.59,0.995c0.254,0.282,0.562,0.504,0.929,0.667c0.365,0.163,0.778,0.245,1.24,0.245
			c0.461,0,0.874-0.082,1.24-0.245c0.365-0.163,0.678-0.385,0.937-0.667c0.259-0.28,0.458-0.612,0.599-0.995
			S455.174,165.989,455.174,165.55z"/>
		<path fill="#FFFFFF" d="M458.954,164.065c0-0.349-0.009-0.703-0.025-1.063c-0.017-0.359-0.031-0.827-0.042-1.4h1.097v1.468h0.034
			c0.078-0.213,0.191-0.419,0.337-0.615c0.146-0.197,0.323-0.374,0.532-0.532c0.208-0.157,0.449-0.284,0.726-0.38
			c0.275-0.095,0.588-0.143,0.937-0.143c0.314,0,0.591,0.033,0.826,0.101l-0.219,1.097c-0.146-0.056-0.36-0.084-0.642-0.084
			c-0.428,0-0.793,0.082-1.097,0.245s-0.557,0.371-0.76,0.624c-0.202,0.253-0.352,0.526-0.447,0.818
			c-0.096,0.293-0.143,0.574-0.143,0.844v4.455h-1.114V164.065z"/>
		<path fill="#FFFFFF" d="M465.164,163.356c0-0.292-0.008-0.585-0.025-0.877c-0.017-0.293-0.036-0.585-0.059-0.878h1.198v1.198
			h0.033c0.271-0.461,0.645-0.811,1.122-1.047c0.479-0.235,0.954-0.354,1.426-0.354c0.214,0,0.441,0.022,0.684,0.067
			s0.476,0.126,0.7,0.244c0.226,0.118,0.437,0.284,0.633,0.498c0.197,0.214,0.363,0.489,0.498,0.827
			c0.226-0.507,0.582-0.905,1.071-1.198c0.49-0.293,0.999-0.438,1.527-0.438c1.013,0,1.761,0.267,2.245,0.801
			c0.483,0.535,0.726,1.297,0.726,2.287v5.012h-1.114v-4.606c0-0.799-0.141-1.412-0.422-1.84s-0.805-0.642-1.569-0.642
			c-0.416,0-0.765,0.082-1.046,0.245s-0.51,0.38-0.684,0.649c-0.175,0.271-0.301,0.577-0.38,0.92
			c-0.079,0.344-0.118,0.7-0.118,1.071v4.202h-1.113v-4.606c0-0.799-0.142-1.412-0.422-1.84c-0.281-0.428-0.805-0.642-1.569-0.642
			c-0.068,0-0.223,0.023-0.465,0.068c-0.241,0.045-0.492,0.168-0.751,0.371c-0.259,0.202-0.492,0.506-0.7,0.911
			s-0.312,0.968-0.312,1.688v4.05h-1.114V163.356z"/>
		<path fill="#FFFFFF" d="M484.148,163.475c-0.169-0.326-0.395-0.585-0.676-0.776s-0.624-0.287-1.029-0.287
			c-0.191,0-0.385,0.023-0.582,0.068s-0.374,0.115-0.531,0.211c-0.158,0.096-0.284,0.216-0.38,0.362s-0.144,0.326-0.144,0.54
			c0,0.371,0.129,0.642,0.389,0.81c0.258,0.169,0.646,0.315,1.164,0.439l1.131,0.27c0.551,0.124,1.01,0.374,1.375,0.751
			s0.549,0.847,0.549,1.409c0,0.428-0.088,0.796-0.262,1.105c-0.175,0.31-0.405,0.562-0.692,0.759
			c-0.286,0.197-0.615,0.341-0.987,0.431c-0.371,0.09-0.748,0.135-1.13,0.135c-0.607,0-1.173-0.115-1.696-0.346
			s-0.971-0.627-1.342-1.189l0.962-0.658c0.226,0.36,0.509,0.647,0.853,0.86c0.343,0.214,0.751,0.321,1.224,0.321
			c0.225,0,0.449-0.025,0.675-0.076c0.225-0.051,0.425-0.13,0.599-0.236c0.175-0.106,0.315-0.245,0.422-0.413
			c0.107-0.169,0.16-0.366,0.16-0.591c0-0.394-0.146-0.678-0.438-0.853c-0.293-0.174-0.646-0.312-1.062-0.413l-1.08-0.253
			c-0.136-0.034-0.318-0.091-0.549-0.169c-0.23-0.079-0.456-0.197-0.675-0.354c-0.22-0.157-0.408-0.363-0.565-0.616
			c-0.158-0.253-0.236-0.565-0.236-0.937c0-0.405,0.081-0.76,0.245-1.063c0.162-0.304,0.382-0.551,0.657-0.742
			c0.276-0.191,0.588-0.335,0.938-0.431c0.348-0.095,0.708-0.143,1.079-0.143c0.552,0,1.063,0.106,1.536,0.32
			s0.838,0.579,1.097,1.097L484.148,163.475z"/>
	</g>
	<g opacity="0.7">
		<path fill="#FFFFFF" d="M704.819,169.499h-1.114v-1.316h-0.033c-0.181,0.271-0.394,0.501-0.642,0.692
			c-0.247,0.191-0.506,0.349-0.776,0.472c-0.27,0.124-0.548,0.214-0.835,0.271c-0.287,0.056-0.56,0.084-0.818,0.084
			c-0.619,0-1.185-0.104-1.696-0.312s-0.953-0.498-1.324-0.869s-0.661-0.811-0.869-1.316s-0.312-1.058-0.312-1.654
			c0-0.596,0.104-1.147,0.312-1.653s0.498-0.945,0.869-1.316s0.812-0.66,1.324-0.869c0.512-0.208,1.077-0.312,1.696-0.312
			c0.259,0,0.531,0.027,0.818,0.084s0.565,0.146,0.835,0.27c0.271,0.124,0.529,0.282,0.776,0.473
			c0.248,0.191,0.461,0.422,0.642,0.692h0.033v-6.177h1.114V169.499z M697.613,165.55c0,0.439,0.07,0.85,0.211,1.232
			s0.341,0.715,0.6,0.995c0.259,0.282,0.57,0.504,0.937,0.667c0.365,0.163,0.778,0.245,1.24,0.245c0.45,0,0.869-0.082,1.257-0.245
			c0.389-0.163,0.723-0.385,1.004-0.667c0.281-0.28,0.501-0.612,0.658-0.995c0.158-0.383,0.236-0.793,0.236-1.232
			c0-0.438-0.078-0.849-0.236-1.231c-0.157-0.382-0.377-0.714-0.658-0.995s-0.615-0.504-1.004-0.667
			c-0.388-0.163-0.807-0.245-1.257-0.245c-0.462,0-0.875,0.082-1.24,0.245c-0.366,0.163-0.678,0.386-0.937,0.667
			s-0.459,0.613-0.6,0.995C697.684,164.701,697.613,165.111,697.613,165.55z"/>
		<path fill="#FFFFFF" d="M707.789,164.065c0-0.349-0.009-0.703-0.025-1.063c-0.017-0.359-0.031-0.827-0.042-1.4h1.097v1.468h0.034
			c0.078-0.213,0.191-0.419,0.337-0.615c0.146-0.197,0.323-0.374,0.532-0.532c0.208-0.157,0.449-0.284,0.726-0.38
			c0.275-0.095,0.588-0.143,0.937-0.143c0.314,0,0.591,0.033,0.826,0.101l-0.219,1.097c-0.146-0.056-0.36-0.084-0.642-0.084
			c-0.428,0-0.793,0.082-1.097,0.245s-0.557,0.371-0.76,0.624c-0.202,0.253-0.352,0.526-0.447,0.818
			c-0.096,0.293-0.143,0.574-0.143,0.844v4.455h-1.114V164.065z"/>
		<path fill="#FFFFFF" d="M715.315,158.564c0,0.235-0.084,0.43-0.253,0.582c-0.169,0.151-0.354,0.228-0.557,0.228
			c-0.203,0-0.389-0.076-0.558-0.228c-0.168-0.152-0.253-0.347-0.253-0.582c0-0.236,0.085-0.431,0.253-0.583
			c0.169-0.151,0.354-0.228,0.558-0.228c0.202,0,0.388,0.076,0.557,0.228C715.231,158.134,715.315,158.328,715.315,158.564z
			 M715.062,169.499h-1.114v-7.897h1.114V169.499z"/>
		<path fill="#FFFFFF" d="M721.644,169.499h-1.249l-3.206-7.897h1.316l2.531,6.648h0.033l2.515-6.648h1.266L721.644,169.499z"/>
		<path fill="#FFFFFF" d="M727.499,165.854c0.034,0.394,0.129,0.765,0.287,1.113c0.157,0.349,0.365,0.649,0.624,0.902
			c0.259,0.254,0.557,0.453,0.895,0.6s0.703,0.22,1.097,0.22c0.597,0,1.111-0.138,1.544-0.414c0.434-0.275,0.763-0.593,0.987-0.953
			l0.86,0.709c-0.472,0.596-0.992,1.023-1.561,1.282s-1.179,0.388-1.831,0.388c-0.585,0-1.128-0.104-1.628-0.312
			c-0.501-0.208-0.932-0.498-1.291-0.869c-0.36-0.371-0.645-0.811-0.853-1.316s-0.312-1.058-0.312-1.654
			c0-0.596,0.102-1.147,0.304-1.653c0.203-0.506,0.484-0.945,0.844-1.316c0.36-0.371,0.782-0.66,1.266-0.869
			c0.484-0.208,1.007-0.312,1.57-0.312c0.596,0,1.13,0.106,1.603,0.32s0.869,0.498,1.189,0.853c0.321,0.354,0.565,0.771,0.734,1.248
			c0.169,0.479,0.253,0.987,0.253,1.527v0.507H727.499z M732.865,164.942c0-0.753-0.225-1.363-0.675-1.83s-1.08-0.701-1.89-0.701
			c-0.36,0-0.709,0.07-1.047,0.211c-0.337,0.142-0.633,0.329-0.886,0.565s-0.456,0.507-0.607,0.811
			c-0.152,0.304-0.228,0.618-0.228,0.944H732.865z"/>
		<path fill="#FFFFFF" d="M740.712,163.475c-0.169-0.326-0.395-0.585-0.676-0.776s-0.624-0.287-1.029-0.287
			c-0.191,0-0.385,0.023-0.582,0.068s-0.374,0.115-0.531,0.211c-0.158,0.096-0.284,0.216-0.38,0.362s-0.144,0.326-0.144,0.54
			c0,0.371,0.129,0.642,0.389,0.81c0.258,0.169,0.646,0.315,1.164,0.439l1.131,0.27c0.551,0.124,1.01,0.374,1.375,0.751
			s0.549,0.847,0.549,1.409c0,0.428-0.088,0.796-0.262,1.105c-0.175,0.31-0.405,0.562-0.692,0.759
			c-0.286,0.197-0.615,0.341-0.987,0.431c-0.371,0.09-0.748,0.135-1.13,0.135c-0.607,0-1.173-0.115-1.696-0.346
			s-0.971-0.627-1.342-1.189l0.962-0.658c0.226,0.36,0.509,0.647,0.853,0.86c0.343,0.214,0.751,0.321,1.224,0.321
			c0.225,0,0.449-0.025,0.675-0.076c0.225-0.051,0.425-0.13,0.599-0.236c0.175-0.106,0.315-0.245,0.422-0.413
			c0.107-0.169,0.16-0.366,0.16-0.591c0-0.394-0.146-0.678-0.438-0.853c-0.293-0.174-0.646-0.312-1.062-0.413l-1.08-0.253
			c-0.136-0.034-0.318-0.091-0.549-0.169c-0.23-0.079-0.456-0.197-0.675-0.354c-0.22-0.157-0.408-0.363-0.565-0.616
			c-0.158-0.253-0.236-0.565-0.236-0.937c0-0.405,0.081-0.76,0.245-1.063c0.162-0.304,0.382-0.551,0.657-0.742
			c0.276-0.191,0.588-0.335,0.938-0.431c0.348-0.095,0.708-0.143,1.079-0.143c0.552,0,1.063,0.106,1.536,0.32
			s0.838,0.579,1.097,1.097L740.712,163.475z"/>
	</g>
	<g opacity="0.7">
		<path fill="#FFFFFF" d="M697.495,467.656v-0.203c0-1.36-0.675-2.042-2.024-2.042c-0.923,0-1.728,0.31-2.413,0.929l-0.676-0.793
			c0.743-0.766,1.856-1.147,3.342-1.147c0.382,0,0.751,0.056,1.105,0.168c0.354,0.113,0.66,0.284,0.919,0.515
			c0.259,0.231,0.467,0.521,0.625,0.869c0.157,0.35,0.236,0.766,0.236,1.249v3.527c0,0.304,0.014,0.621,0.042,0.953
			c0.027,0.332,0.059,0.604,0.093,0.818h-1.08c-0.034-0.191-0.06-0.399-0.076-0.624c-0.017-0.226-0.025-0.444-0.025-0.658h-0.033
			c-0.327,0.528-0.712,0.908-1.156,1.139s-0.987,0.346-1.628,0.346c-0.35,0-0.687-0.048-1.013-0.144
			c-0.327-0.095-0.616-0.241-0.869-0.438c-0.253-0.196-0.456-0.438-0.607-0.726c-0.152-0.287-0.229-0.621-0.229-1.004
			c0-0.642,0.166-1.145,0.498-1.511c0.332-0.365,0.748-0.638,1.249-0.818c0.5-0.18,1.035-0.292,1.604-0.337
			c0.567-0.045,1.088-0.067,1.561-0.067H697.495z M696.922,468.567c-0.281,0-0.633,0.014-1.055,0.042s-0.827,0.096-1.216,0.202
			c-0.388,0.107-0.72,0.273-0.995,0.498c-0.275,0.226-0.413,0.534-0.413,0.928c0,0.26,0.053,0.481,0.16,0.667
			c0.106,0.186,0.25,0.338,0.43,0.456c0.181,0.118,0.38,0.202,0.6,0.253c0.219,0.051,0.441,0.076,0.666,0.076
			c0.405,0,0.757-0.068,1.055-0.203c0.299-0.135,0.549-0.317,0.751-0.548c0.203-0.23,0.352-0.501,0.447-0.811
			s0.144-0.639,0.144-0.987v-0.573H696.922z"/>
		<path fill="#FFFFFF" d="M705.291,465.614h-1.873v6.885h-1.113v-6.885h-1.671v-1.013h1.671v-2.16c0-1.046,0.241-1.791,0.726-2.235
			c0.483-0.444,1.125-0.667,1.924-0.667c0.157,0,0.317,0.012,0.48,0.034s0.323,0.05,0.481,0.084l-0.203,1.013
			c-0.135-0.034-0.275-0.062-0.422-0.085c-0.146-0.022-0.292-0.033-0.438-0.033c-0.304,0-0.552,0.051-0.742,0.151
			c-0.191,0.102-0.338,0.245-0.439,0.431c-0.101,0.186-0.168,0.402-0.202,0.649c-0.034,0.248-0.051,0.513-0.051,0.793v2.025h1.873
			V465.614z"/>
		<path fill="#FFFFFF" d="M710.404,465.614h-1.873v6.885h-1.113v-6.885h-1.671v-1.013h1.671v-2.16c0-1.046,0.241-1.791,0.726-2.235
			c0.483-0.444,1.125-0.667,1.924-0.667c0.157,0,0.317,0.012,0.48,0.034s0.323,0.05,0.481,0.084l-0.203,1.013
			c-0.135-0.034-0.275-0.062-0.422-0.085c-0.146-0.022-0.292-0.033-0.438-0.033c-0.304,0-0.552,0.051-0.742,0.151
			c-0.191,0.102-0.338,0.245-0.439,0.431c-0.101,0.186-0.168,0.402-0.202,0.649c-0.034,0.248-0.051,0.513-0.051,0.793v2.025h1.873
			V465.614z"/>
		<path fill="#FFFFFF" d="M712.919,468.854c0.034,0.394,0.129,0.765,0.287,1.113c0.157,0.349,0.365,0.649,0.624,0.902
			c0.259,0.254,0.557,0.453,0.895,0.6s0.703,0.22,1.097,0.22c0.597,0,1.111-0.138,1.544-0.414c0.434-0.275,0.763-0.593,0.987-0.953
			l0.86,0.709c-0.472,0.596-0.992,1.023-1.561,1.282s-1.179,0.388-1.831,0.388c-0.585,0-1.128-0.104-1.628-0.312
			c-0.501-0.208-0.932-0.498-1.291-0.869c-0.36-0.371-0.645-0.811-0.853-1.316s-0.312-1.058-0.312-1.654
			c0-0.596,0.102-1.147,0.304-1.653c0.203-0.506,0.484-0.945,0.844-1.316c0.36-0.371,0.782-0.66,1.266-0.869
			c0.484-0.208,1.007-0.312,1.57-0.312c0.596,0,1.13,0.106,1.603,0.32s0.869,0.498,1.189,0.853c0.321,0.354,0.565,0.771,0.734,1.248
			c0.169,0.479,0.253,0.987,0.253,1.527v0.507H712.919z M718.285,467.942c0-0.753-0.225-1.363-0.675-1.83s-1.08-0.701-1.89-0.701
			c-0.36,0-0.709,0.07-1.047,0.211c-0.337,0.142-0.633,0.329-0.886,0.565s-0.456,0.507-0.607,0.811
			c-0.152,0.304-0.228,0.618-0.228,0.944H718.285z"/>
		<path fill="#FFFFFF" d="M727.701,466.458c-0.191-0.293-0.459-0.54-0.802-0.743c-0.344-0.202-0.734-0.304-1.173-0.304
			c-0.462-0.011-0.875,0.062-1.24,0.22c-0.366,0.157-0.678,0.377-0.937,0.658s-0.456,0.616-0.591,1.004
			c-0.135,0.389-0.202,0.808-0.202,1.257c0,0.45,0.067,0.869,0.202,1.258c0.135,0.388,0.332,0.723,0.591,1.004
			s0.57,0.501,0.937,0.658c0.365,0.157,0.778,0.23,1.24,0.22c0.438,0,0.829-0.102,1.173-0.304c0.343-0.203,0.61-0.45,0.802-0.743
			l0.911,0.692c-0.395,0.461-0.839,0.801-1.333,1.021c-0.495,0.22-1.013,0.335-1.553,0.346c-0.642,0.012-1.221-0.087-1.738-0.295
			s-0.959-0.498-1.324-0.869c-0.366-0.371-0.645-0.812-0.836-1.324c-0.191-0.513-0.287-1.066-0.287-1.663
			c0-0.596,0.096-1.149,0.287-1.662c0.191-0.512,0.47-0.953,0.836-1.324c0.365-0.371,0.807-0.661,1.324-0.869
			s1.097-0.307,1.738-0.295c0.54,0.011,1.058,0.126,1.553,0.346c0.494,0.219,0.938,0.56,1.333,1.021L727.701,466.458z"/>
		<path fill="#FFFFFF" d="M734.586,465.614h-2.278v4.657c0,0.293,0.028,0.531,0.085,0.717c0.056,0.187,0.135,0.329,0.235,0.431
			c0.102,0.102,0.223,0.172,0.363,0.211c0.141,0.04,0.295,0.06,0.464,0.06c0.191,0,0.389-0.028,0.591-0.085
			c0.202-0.056,0.388-0.129,0.557-0.219l0.051,1.029c-0.416,0.19-0.917,0.286-1.502,0.286c-0.214,0-0.436-0.028-0.666-0.084
			c-0.231-0.057-0.442-0.163-0.633-0.32c-0.191-0.158-0.35-0.372-0.473-0.642c-0.124-0.27-0.186-0.624-0.186-1.063v-4.978h-1.671
			v-1.013h1.671v-2.228h1.113v2.228h2.278V465.614z"/>
		<path fill="#FFFFFF" d="M740.712,466.475c-0.169-0.326-0.395-0.585-0.676-0.776s-0.624-0.287-1.029-0.287
			c-0.191,0-0.385,0.023-0.582,0.068s-0.374,0.115-0.531,0.211c-0.158,0.096-0.284,0.216-0.38,0.362s-0.144,0.326-0.144,0.54
			c0,0.371,0.129,0.642,0.389,0.81c0.258,0.169,0.646,0.315,1.164,0.439l1.131,0.27c0.551,0.124,1.01,0.374,1.375,0.751
			s0.549,0.847,0.549,1.409c0,0.428-0.088,0.796-0.262,1.105c-0.175,0.31-0.405,0.562-0.692,0.759
			c-0.286,0.197-0.615,0.341-0.987,0.431c-0.371,0.09-0.748,0.135-1.13,0.135c-0.607,0-1.173-0.115-1.696-0.346
			s-0.971-0.627-1.342-1.189l0.962-0.658c0.226,0.36,0.509,0.647,0.853,0.86c0.343,0.214,0.751,0.321,1.224,0.321
			c0.225,0,0.449-0.025,0.675-0.076c0.225-0.051,0.425-0.13,0.599-0.236c0.175-0.106,0.315-0.245,0.422-0.413
			c0.107-0.169,0.16-0.366,0.16-0.591c0-0.394-0.146-0.678-0.438-0.853c-0.293-0.174-0.646-0.312-1.062-0.413l-1.08-0.253
			c-0.136-0.034-0.318-0.091-0.549-0.169c-0.23-0.079-0.456-0.197-0.675-0.354c-0.22-0.157-0.408-0.363-0.565-0.616
			c-0.158-0.253-0.236-0.565-0.236-0.937c0-0.405,0.081-0.76,0.245-1.063c0.162-0.304,0.382-0.551,0.657-0.742
			c0.276-0.191,0.588-0.335,0.938-0.431c0.348-0.095,0.708-0.143,1.079-0.143c0.552,0,1.063,0.106,1.536,0.32
			s0.838,0.579,1.097,1.097L740.712,466.475z"/>
	</g>
	<g>
		<path fill="#FFFFFF" d="M518.176,197.876c-0.259-0.314-0.577-0.557-0.954-0.726s-0.812-0.253-1.308-0.253
			s-0.953,0.096-1.375,0.287s-0.788,0.458-1.097,0.802c-0.31,0.343-0.552,0.751-0.726,1.223c-0.175,0.473-0.262,0.985-0.262,1.536
			c0,0.562,0.087,1.077,0.262,1.544c0.174,0.467,0.413,0.872,0.717,1.215c0.304,0.344,0.661,0.61,1.071,0.802
			c0.411,0.191,0.853,0.287,1.325,0.287c0.54,0,1.018-0.112,1.435-0.338c0.416-0.225,0.759-0.54,1.029-0.945l2.193,1.638
			c-0.506,0.708-1.147,1.231-1.924,1.569c-0.776,0.337-1.575,0.506-2.396,0.506c-0.934,0-1.794-0.146-2.581-0.438
			c-0.788-0.293-1.469-0.712-2.042-1.258c-0.574-0.545-1.021-1.206-1.342-1.982s-0.48-1.643-0.48-2.599s0.16-1.822,0.48-2.599
			s0.768-1.438,1.342-1.983c0.573-0.545,1.254-0.964,2.042-1.257c0.787-0.292,1.647-0.438,2.581-0.438
			c0.338,0,0.689,0.031,1.055,0.093c0.366,0.062,0.727,0.16,1.08,0.295c0.354,0.135,0.695,0.315,1.021,0.54
			c0.326,0.226,0.618,0.501,0.877,0.827L518.176,197.876z"/>
		<path fill="#FFFFFF" d="M521.72,202.618c0-0.652,0.118-1.243,0.354-1.771c0.236-0.529,0.56-0.981,0.97-1.358
			c0.411-0.377,0.895-0.667,1.451-0.869c0.558-0.203,1.15-0.304,1.78-0.304s1.224,0.101,1.78,0.304
			c0.558,0.202,1.041,0.492,1.452,0.869c0.41,0.377,0.733,0.829,0.97,1.358c0.236,0.528,0.354,1.119,0.354,1.771
			s-0.118,1.243-0.354,1.771c-0.236,0.529-0.56,0.982-0.97,1.358c-0.411,0.377-0.895,0.667-1.452,0.869
			c-0.557,0.203-1.15,0.304-1.78,0.304s-1.223-0.101-1.78-0.304c-0.557-0.202-1.04-0.492-1.451-0.869
			c-0.41-0.376-0.733-0.829-0.97-1.358C521.838,203.861,521.72,203.271,521.72,202.618z M524.251,202.618
			c0,0.619,0.177,1.119,0.531,1.502s0.853,0.573,1.493,0.573c0.642,0,1.14-0.19,1.494-0.573s0.531-0.883,0.531-1.502
			c0-0.618-0.177-1.119-0.531-1.502c-0.354-0.382-0.853-0.573-1.494-0.573c-0.641,0-1.139,0.191-1.493,0.573
			C524.428,201.499,524.251,202,524.251,202.618z"/>
		<path fill="#FFFFFF" d="M532.738,198.518h2.43v1.113h0.034c0.078-0.157,0.19-0.314,0.337-0.472
			c0.146-0.158,0.321-0.299,0.523-0.422c0.202-0.124,0.433-0.226,0.691-0.304c0.259-0.079,0.54-0.118,0.844-0.118
			c0.642,0,1.159,0.099,1.553,0.295c0.394,0.197,0.7,0.47,0.92,0.818s0.368,0.76,0.447,1.231c0.078,0.473,0.118,0.985,0.118,1.536
			v4.522h-2.531v-4.017c0-0.236-0.009-0.48-0.025-0.733c-0.017-0.254-0.067-0.486-0.152-0.7c-0.084-0.214-0.214-0.389-0.388-0.523
			c-0.175-0.135-0.425-0.202-0.751-0.202s-0.591,0.059-0.793,0.177s-0.357,0.275-0.464,0.473c-0.107,0.196-0.178,0.419-0.211,0.666
			c-0.034,0.248-0.051,0.507-0.051,0.776v4.084h-2.531V198.518z"/>
		<path fill="#FFFFFF" d="M548.433,200.543h-2.228v2.733c0,0.225,0.011,0.431,0.033,0.616s0.073,0.346,0.152,0.48
			c0.078,0.135,0.199,0.239,0.362,0.312s0.38,0.109,0.649,0.109c0.136,0,0.312-0.014,0.532-0.042
			c0.219-0.028,0.385-0.093,0.498-0.194v2.109c-0.282,0.102-0.574,0.169-0.878,0.203c-0.304,0.033-0.602,0.05-0.895,0.05
			c-0.428,0-0.821-0.045-1.181-0.135c-0.36-0.09-0.676-0.233-0.945-0.431c-0.271-0.196-0.481-0.452-0.633-0.768
			c-0.152-0.314-0.228-0.697-0.228-1.147v-3.897h-1.62v-2.025h1.62v-2.43h2.531v2.43h2.228V200.543z"/>
		<path fill="#FFFFFF" d="M550.137,198.518h2.531v1.316h0.033c0.271-0.507,0.591-0.886,0.962-1.14
			c0.372-0.253,0.838-0.379,1.401-0.379c0.146,0,0.292,0.005,0.438,0.017c0.146,0.011,0.281,0.033,0.405,0.067v2.312
			c-0.181-0.056-0.357-0.098-0.532-0.126c-0.174-0.028-0.357-0.042-0.548-0.042c-0.484,0-0.867,0.067-1.147,0.202
			c-0.281,0.135-0.498,0.323-0.65,0.565c-0.151,0.242-0.25,0.531-0.295,0.869c-0.045,0.337-0.067,0.708-0.067,1.113v3.426h-2.531
			V198.518z"/>
		<path fill="#FFFFFF" d="M556.819,202.618c0-0.652,0.118-1.243,0.354-1.771c0.236-0.529,0.56-0.981,0.97-1.358
			c0.411-0.377,0.895-0.667,1.451-0.869c0.558-0.203,1.15-0.304,1.78-0.304s1.224,0.101,1.78,0.304
			c0.558,0.202,1.041,0.492,1.452,0.869c0.41,0.377,0.733,0.829,0.97,1.358c0.236,0.528,0.354,1.119,0.354,1.771
			s-0.118,1.243-0.354,1.771c-0.236,0.529-0.56,0.982-0.97,1.358c-0.411,0.377-0.895,0.667-1.452,0.869
			c-0.557,0.203-1.15,0.304-1.78,0.304s-1.223-0.101-1.78-0.304c-0.557-0.202-1.04-0.492-1.451-0.869
			c-0.41-0.376-0.733-0.829-0.97-1.358C556.938,203.861,556.819,203.271,556.819,202.618z M559.351,202.618
			c0,0.619,0.177,1.119,0.531,1.502s0.853,0.573,1.493,0.573c0.642,0,1.14-0.19,1.494-0.573s0.531-0.883,0.531-1.502
			c0-0.618-0.177-1.119-0.531-1.502c-0.354-0.382-0.853-0.573-1.494-0.573c-0.641,0-1.139,0.191-1.493,0.573
			C559.527,201.499,559.351,202,559.351,202.618z"/>
		<path fill="#FFFFFF" d="M567.871,193.961h2.531v12.758h-2.531V193.961z"/>
		<path fill="#FFFFFF" d="M582.316,194.771h2.178l5.197,11.947h-2.971l-1.029-2.531h-4.641l-0.995,2.531h-2.902L582.316,194.771z
			 M583.329,198.247l-1.451,3.713h2.92L583.329,198.247z"/>
		<path fill="#FFFFFF" d="M591.023,193.961h2.531v12.758h-2.531V193.961z"/>
		<path fill="#FFFFFF" d="M604.406,206.027c0,1.552-0.392,2.73-1.173,3.535c-0.782,0.804-1.972,1.206-3.569,1.206
			c-0.731,0-1.451-0.081-2.16-0.244s-1.361-0.481-1.957-0.954l1.4-2.092c0.394,0.326,0.807,0.584,1.24,0.775
			c0.433,0.191,0.908,0.287,1.426,0.287c0.776,0,1.348-0.188,1.713-0.565s0.549-0.857,0.549-1.442v-0.793h-0.034
			c-0.293,0.394-0.655,0.672-1.088,0.835c-0.434,0.163-0.842,0.245-1.224,0.245c-0.607,0-1.159-0.104-1.654-0.312
			s-0.919-0.5-1.273-0.878c-0.354-0.376-0.628-0.823-0.818-1.341c-0.191-0.518-0.287-1.086-0.287-1.705
			c0-0.54,0.087-1.068,0.262-1.586c0.174-0.518,0.422-0.973,0.742-1.367c0.32-0.394,0.711-0.711,1.173-0.953
			c0.461-0.242,0.984-0.362,1.569-0.362c0.36,0,0.688,0.039,0.987,0.118c0.298,0.078,0.565,0.18,0.802,0.304
			c0.236,0.123,0.438,0.261,0.607,0.413c0.169,0.151,0.304,0.301,0.404,0.447h0.034v-1.08h2.329V206.027z M598.027,202.567
			c0,0.271,0.051,0.526,0.151,0.768c0.102,0.242,0.245,0.456,0.431,0.642s0.399,0.335,0.642,0.447
			c0.241,0.112,0.509,0.169,0.801,0.169c0.281,0,0.546-0.057,0.794-0.169c0.247-0.112,0.464-0.262,0.649-0.447
			s0.329-0.399,0.43-0.642c0.102-0.241,0.152-0.497,0.152-0.768c0-0.27-0.051-0.525-0.152-0.768
			c-0.101-0.242-0.244-0.456-0.43-0.642s-0.402-0.334-0.649-0.447c-0.248-0.112-0.513-0.168-0.794-0.168
			c-0.292,0-0.56,0.056-0.801,0.168c-0.242,0.113-0.456,0.262-0.642,0.447s-0.329,0.399-0.431,0.642
			C598.078,202.042,598.027,202.298,598.027,202.567z"/>
		<path fill="#FFFFFF" d="M606.549,202.618c0-0.652,0.118-1.243,0.354-1.771c0.236-0.529,0.56-0.981,0.97-1.358
			c0.411-0.377,0.895-0.667,1.451-0.869c0.558-0.203,1.15-0.304,1.78-0.304s1.224,0.101,1.78,0.304
			c0.558,0.202,1.041,0.492,1.452,0.869c0.41,0.377,0.733,0.829,0.97,1.358c0.236,0.528,0.354,1.119,0.354,1.771
			s-0.118,1.243-0.354,1.771c-0.236,0.529-0.56,0.982-0.97,1.358c-0.411,0.377-0.895,0.667-1.452,0.869
			c-0.557,0.203-1.15,0.304-1.78,0.304s-1.223-0.101-1.78-0.304c-0.557-0.202-1.04-0.492-1.451-0.869
			c-0.41-0.376-0.733-0.829-0.97-1.358C606.667,203.861,606.549,203.271,606.549,202.618z M609.08,202.618
			c0,0.619,0.177,1.119,0.531,1.502s0.853,0.573,1.493,0.573c0.642,0,1.14-0.19,1.494-0.573s0.531-0.883,0.531-1.502
			c0-0.618-0.177-1.119-0.531-1.502c-0.354-0.382-0.853-0.573-1.494-0.573c-0.641,0-1.139,0.191-1.493,0.573
			C609.257,201.499,609.08,202,609.08,202.618z"/>
		<path fill="#FFFFFF" d="M617.568,198.518h2.531v1.316h0.033c0.271-0.507,0.591-0.886,0.962-1.14
			c0.372-0.253,0.838-0.379,1.401-0.379c0.146,0,0.292,0.005,0.438,0.017c0.146,0.011,0.281,0.033,0.405,0.067v2.312
			c-0.181-0.056-0.357-0.098-0.532-0.126c-0.174-0.028-0.357-0.042-0.548-0.042c-0.484,0-0.867,0.067-1.147,0.202
			c-0.281,0.135-0.498,0.323-0.65,0.565c-0.151,0.242-0.25,0.531-0.295,0.869c-0.045,0.337-0.067,0.708-0.067,1.113v3.426h-2.531
			V198.518z"/>
		<path fill="#FFFFFF" d="M624.689,195.936c0-0.405,0.144-0.751,0.431-1.038c0.286-0.286,0.633-0.43,1.037-0.43
			c0.405,0,0.751,0.144,1.038,0.43c0.287,0.287,0.431,0.633,0.431,1.038s-0.144,0.751-0.431,1.038s-0.633,0.43-1.038,0.43
			c-0.404,0-0.751-0.143-1.037-0.43C624.833,196.687,624.689,196.341,624.689,195.936z M624.892,198.518h2.531v8.201h-2.531V198.518
			z"/>
		<path fill="#FFFFFF" d="M635.253,200.543h-2.228v2.733c0,0.225,0.011,0.431,0.033,0.616s0.073,0.346,0.152,0.48
			c0.078,0.135,0.199,0.239,0.362,0.312s0.38,0.109,0.649,0.109c0.136,0,0.312-0.014,0.532-0.042
			c0.219-0.028,0.385-0.093,0.498-0.194v2.109c-0.282,0.102-0.574,0.169-0.878,0.203c-0.304,0.033-0.602,0.05-0.895,0.05
			c-0.428,0-0.821-0.045-1.181-0.135c-0.36-0.09-0.676-0.233-0.945-0.431c-0.271-0.196-0.481-0.452-0.633-0.768
			c-0.152-0.314-0.228-0.697-0.228-1.147v-3.897h-1.62v-2.025h1.62v-2.43h2.531v2.43h2.228V200.543z"/>
		<path fill="#FFFFFF" d="M639.488,193.961v5.67h0.033c0.057-0.157,0.152-0.314,0.287-0.472c0.135-0.158,0.298-0.299,0.489-0.422
			c0.191-0.124,0.416-0.226,0.675-0.304c0.259-0.079,0.54-0.118,0.844-0.118c0.642,0,1.159,0.099,1.553,0.295
			c0.394,0.197,0.7,0.47,0.92,0.818s0.368,0.76,0.447,1.231c0.078,0.473,0.118,0.985,0.118,1.536v4.522h-2.531v-4.017
			c0-0.236-0.009-0.48-0.025-0.733c-0.017-0.254-0.067-0.486-0.152-0.7c-0.084-0.214-0.214-0.389-0.388-0.523
			c-0.175-0.135-0.425-0.202-0.751-0.202s-0.591,0.059-0.793,0.177s-0.357,0.275-0.464,0.473c-0.107,0.196-0.178,0.419-0.211,0.666
			c-0.034,0.248-0.051,0.507-0.051,0.776v4.084h-2.531v-12.758H639.488z"/>
		<path fill="#FFFFFF" d="M647.065,198.518h2.43v1.113h0.034c0.078-0.157,0.19-0.314,0.337-0.472
			c0.146-0.158,0.321-0.299,0.523-0.422c0.202-0.124,0.433-0.226,0.691-0.304c0.259-0.079,0.54-0.118,0.844-0.118
			c0.574,0,1.083,0.118,1.527,0.354c0.444,0.236,0.779,0.608,1.004,1.114c0.293-0.528,0.647-0.905,1.063-1.131
			c0.416-0.225,0.929-0.337,1.536-0.337c0.551,0,1.015,0.093,1.392,0.278s0.675,0.438,0.895,0.759
			c0.22,0.321,0.377,0.698,0.473,1.131c0.096,0.434,0.144,0.897,0.144,1.393v4.843h-2.531v-4.775c0-0.383-0.082-0.712-0.245-0.987
			s-0.453-0.413-0.869-0.413c-0.292,0-0.537,0.048-0.733,0.143c-0.197,0.096-0.354,0.229-0.473,0.396
			c-0.118,0.169-0.203,0.366-0.253,0.591c-0.051,0.226-0.076,0.462-0.076,0.709v4.337h-2.531v-4.337c0-0.146-0.006-0.326-0.017-0.54
			c-0.012-0.214-0.051-0.416-0.118-0.607c-0.068-0.191-0.178-0.354-0.329-0.489c-0.152-0.135-0.375-0.202-0.667-0.202
			c-0.326,0-0.591,0.059-0.793,0.177s-0.357,0.275-0.464,0.473c-0.107,0.196-0.178,0.419-0.211,0.666
			c-0.034,0.248-0.051,0.507-0.051,0.776v4.084h-2.531V198.518z"/>
	</g>
	<g>
		<path fill="#FFFFFF" d="M701.905,352.271h2.632v11.947h-2.632V352.271z"/>
		<path fill="#FFFFFF" d="M707.035,356.018h2.43v1.113h0.034c0.078-0.157,0.19-0.314,0.337-0.472
			c0.146-0.158,0.321-0.299,0.523-0.422c0.202-0.124,0.433-0.226,0.691-0.304c0.259-0.079,0.54-0.118,0.844-0.118
			c0.642,0,1.159,0.099,1.553,0.295c0.394,0.197,0.7,0.47,0.92,0.818s0.368,0.76,0.447,1.231c0.078,0.473,0.118,0.985,0.118,1.536
			v4.522h-2.531v-4.017c0-0.236-0.009-0.48-0.025-0.733c-0.017-0.254-0.067-0.486-0.152-0.7c-0.084-0.214-0.214-0.389-0.388-0.523
			c-0.175-0.135-0.425-0.202-0.751-0.202s-0.591,0.059-0.793,0.177s-0.357,0.275-0.464,0.473c-0.107,0.196-0.178,0.419-0.211,0.666
			c-0.034,0.248-0.051,0.507-0.051,0.776v4.084h-2.531V356.018z"/>
		<path fill="#FFFFFF" d="M721.783,358.431c-0.371-0.461-0.86-0.692-1.469-0.692c-0.213,0-0.422,0.051-0.624,0.152
			s-0.304,0.275-0.304,0.523c0,0.202,0.104,0.352,0.312,0.447c0.208,0.096,0.473,0.18,0.793,0.253s0.664,0.151,1.029,0.236
			c0.365,0.084,0.709,0.217,1.029,0.396s0.585,0.425,0.793,0.733c0.208,0.31,0.312,0.724,0.312,1.241
			c0,0.528-0.115,0.964-0.346,1.308c-0.231,0.343-0.526,0.618-0.887,0.826c-0.359,0.209-0.765,0.354-1.215,0.439
			c-0.45,0.084-0.895,0.126-1.333,0.126c-0.573,0-1.153-0.081-1.738-0.244s-1.08-0.453-1.484-0.869l1.535-1.704
			c0.236,0.292,0.498,0.515,0.785,0.666c0.286,0.152,0.621,0.228,1.004,0.228c0.292,0,0.557-0.042,0.793-0.126
			c0.236-0.085,0.354-0.239,0.354-0.464c0-0.214-0.104-0.374-0.312-0.481c-0.208-0.106-0.473-0.196-0.793-0.27
			s-0.664-0.152-1.029-0.236c-0.365-0.085-0.709-0.211-1.029-0.38s-0.585-0.407-0.793-0.717c-0.209-0.31-0.312-0.724-0.312-1.241
			c0-0.483,0.099-0.899,0.295-1.248c0.197-0.349,0.456-0.636,0.776-0.861c0.321-0.225,0.689-0.391,1.105-0.497
			c0.416-0.107,0.838-0.16,1.266-0.16c0.54,0,1.086,0.078,1.637,0.235c0.552,0.158,1.019,0.439,1.401,0.844L721.783,358.431z"/>
		<path fill="#FFFFFF" d="M733.275,364.219h-2.43v-1.113h-0.034c-0.09,0.157-0.205,0.314-0.346,0.472
			c-0.141,0.158-0.312,0.299-0.515,0.422c-0.203,0.124-0.434,0.226-0.692,0.304c-0.259,0.079-0.54,0.118-0.844,0.118
			c-0.641,0-1.161-0.099-1.561-0.295s-0.709-0.47-0.929-0.818c-0.219-0.349-0.365-0.76-0.438-1.232
			c-0.073-0.472-0.109-0.983-0.109-1.535v-4.522h2.531v4.017c0,0.235,0.008,0.48,0.025,0.733c0.017,0.253,0.067,0.487,0.151,0.7
			c0.085,0.214,0.214,0.389,0.389,0.523c0.174,0.135,0.424,0.202,0.751,0.202c0.326,0,0.59-0.059,0.793-0.177
			c0.202-0.118,0.356-0.275,0.464-0.473c0.106-0.196,0.177-0.419,0.211-0.666c0.034-0.248,0.051-0.507,0.051-0.776v-4.084h2.531
			V364.219z"/>
		<path fill="#FFFFFF" d="M735.519,351.461h2.531v12.758h-2.531V351.461z"/>
		<path fill="#FFFFFF" d="M740.126,353.436c0-0.405,0.144-0.751,0.431-1.038c0.286-0.286,0.633-0.43,1.037-0.43
			c0.405,0,0.751,0.144,1.038,0.43c0.287,0.287,0.431,0.633,0.431,1.038s-0.144,0.751-0.431,1.038s-0.633,0.43-1.038,0.43
			c-0.404,0-0.751-0.143-1.037-0.43C740.27,354.187,740.126,353.841,740.126,353.436z M740.328,356.018h2.531v8.201h-2.531V356.018z
			"/>
		<path fill="#FFFFFF" d="M745.104,356.018h2.43v1.113h0.034c0.078-0.157,0.19-0.314,0.337-0.472
			c0.146-0.158,0.321-0.299,0.523-0.422c0.202-0.124,0.433-0.226,0.691-0.304c0.259-0.079,0.54-0.118,0.844-0.118
			c0.642,0,1.159,0.099,1.553,0.295c0.394,0.197,0.7,0.47,0.92,0.818s0.368,0.76,0.447,1.231c0.078,0.473,0.118,0.985,0.118,1.536
			v4.522h-2.531v-4.017c0-0.236-0.009-0.48-0.025-0.733c-0.017-0.254-0.067-0.486-0.152-0.7c-0.084-0.214-0.214-0.389-0.388-0.523
			c-0.175-0.135-0.425-0.202-0.751-0.202s-0.591,0.059-0.793,0.177s-0.357,0.275-0.464,0.473c-0.107,0.196-0.178,0.419-0.211,0.666
			c-0.034,0.248-0.051,0.507-0.051,0.776v4.084h-2.531V356.018z"/>
		<path fill="#FFFFFF" d="M760.949,352.271h3.949c0.956,0,1.864,0.106,2.725,0.32c0.861,0.214,1.612,0.56,2.253,1.038
			c0.642,0.479,1.15,1.1,1.527,1.864c0.377,0.766,0.565,1.693,0.565,2.784c0,0.968-0.183,1.82-0.549,2.557
			c-0.365,0.737-0.857,1.356-1.477,1.856c-0.618,0.501-1.333,0.881-2.143,1.14c-0.811,0.259-1.66,0.388-2.548,0.388h-4.304V352.271z
			 M763.582,361.789h1.367c0.607,0,1.172-0.062,1.695-0.186c0.523-0.124,0.976-0.329,1.358-0.616s0.684-0.664,0.903-1.131
			c0.219-0.467,0.329-1.038,0.329-1.713c0-0.585-0.11-1.094-0.329-1.527c-0.22-0.433-0.515-0.79-0.887-1.071
			c-0.371-0.281-0.807-0.492-1.308-0.633c-0.5-0.141-1.026-0.211-1.577-0.211h-1.553V361.789z"/>
		<path fill="#FFFFFF" d="M781.621,362.801c-0.405,0.518-0.917,0.918-1.536,1.198c-0.619,0.281-1.26,0.422-1.924,0.422
			c-0.63,0-1.224-0.101-1.78-0.304c-0.557-0.202-1.04-0.492-1.451-0.869c-0.411-0.376-0.734-0.829-0.97-1.358
			c-0.236-0.528-0.354-1.119-0.354-1.771s0.118-1.243,0.354-1.771c0.235-0.529,0.559-0.981,0.97-1.358s0.895-0.667,1.451-0.869
			c0.557-0.203,1.15-0.304,1.78-0.304c0.585,0,1.116,0.101,1.595,0.304c0.479,0.202,0.883,0.492,1.215,0.869
			s0.588,0.829,0.769,1.358c0.18,0.528,0.27,1.119,0.27,1.771v0.793h-5.872c0.101,0.484,0.32,0.869,0.658,1.156
			c0.337,0.287,0.753,0.43,1.248,0.43c0.416,0,0.769-0.093,1.055-0.278c0.287-0.186,0.537-0.424,0.751-0.717L781.621,362.801z
			 M779.478,359.19c0.011-0.428-0.129-0.794-0.422-1.098s-0.669-0.455-1.131-0.455c-0.281,0-0.528,0.045-0.742,0.135
			s-0.396,0.205-0.549,0.346c-0.151,0.141-0.27,0.304-0.354,0.489c-0.085,0.186-0.133,0.38-0.144,0.583H779.478z"/>
		<path fill="#FFFFFF" d="M784,351.461h2.531v12.758H784V351.461z"/>
		<path fill="#FFFFFF" d="M788.607,353.436c0-0.405,0.144-0.751,0.431-1.038c0.286-0.286,0.633-0.43,1.037-0.43
			c0.405,0,0.751,0.144,1.038,0.43c0.287,0.287,0.431,0.633,0.431,1.038s-0.144,0.751-0.431,1.038s-0.633,0.43-1.038,0.43
			c-0.404,0-0.751-0.143-1.037-0.43C788.751,354.187,788.607,353.841,788.607,353.436z M788.81,356.018h2.531v8.201h-2.531V356.018z
			"/>
		<path fill="#FFFFFF" d="M792.725,356.018h2.733l2.075,5.568h0.034l1.924-5.568h2.548l-3.24,8.201h-2.683L792.725,356.018z"/>
		<path fill="#FFFFFF" d="M811.152,362.801c-0.405,0.518-0.917,0.918-1.536,1.198c-0.619,0.281-1.26,0.422-1.924,0.422
			c-0.63,0-1.224-0.101-1.78-0.304c-0.557-0.202-1.04-0.492-1.451-0.869c-0.411-0.376-0.734-0.829-0.97-1.358
			c-0.236-0.528-0.354-1.119-0.354-1.771s0.118-1.243,0.354-1.771c0.235-0.529,0.559-0.981,0.97-1.358s0.895-0.667,1.451-0.869
			c0.557-0.203,1.15-0.304,1.78-0.304c0.585,0,1.116,0.101,1.595,0.304c0.479,0.202,0.883,0.492,1.215,0.869
			s0.588,0.829,0.769,1.358c0.18,0.528,0.27,1.119,0.27,1.771v0.793h-5.872c0.101,0.484,0.32,0.869,0.658,1.156
			c0.337,0.287,0.753,0.43,1.248,0.43c0.416,0,0.769-0.093,1.055-0.278c0.287-0.186,0.537-0.424,0.751-0.717L811.152,362.801z
			 M809.009,359.19c0.011-0.428-0.129-0.794-0.422-1.098s-0.669-0.455-1.131-0.455c-0.281,0-0.528,0.045-0.742,0.135
			s-0.396,0.205-0.549,0.346c-0.151,0.141-0.27,0.304-0.354,0.489c-0.085,0.186-0.133,0.38-0.144,0.583H809.009z"/>
		<path fill="#FFFFFF" d="M813.497,356.018h2.531v1.316h0.033c0.271-0.507,0.591-0.886,0.962-1.14
			c0.372-0.253,0.838-0.379,1.401-0.379c0.146,0,0.292,0.005,0.438,0.017c0.146,0.011,0.281,0.033,0.405,0.067v2.312
			c-0.181-0.056-0.357-0.098-0.532-0.126c-0.174-0.028-0.357-0.042-0.548-0.042c-0.484,0-0.867,0.067-1.147,0.202
			c-0.281,0.135-0.498,0.323-0.65,0.565c-0.151,0.242-0.25,0.531-0.295,0.869c-0.045,0.337-0.067,0.708-0.067,1.113v3.426h-2.531
			V356.018z"/>
		<path fill="#FFFFFF" d="M825.512,365.552c-0.169,0.438-0.332,0.827-0.489,1.164c-0.157,0.338-0.357,0.622-0.599,0.853
			c-0.242,0.23-0.549,0.405-0.92,0.523s-0.86,0.177-1.468,0.177c-0.653,0-1.283-0.101-1.891-0.304l0.338-2.075
			c0.382,0.169,0.776,0.253,1.181,0.253c0.281,0,0.512-0.031,0.692-0.093c0.18-0.062,0.329-0.152,0.447-0.271
			s0.216-0.261,0.295-0.43s0.163-0.366,0.253-0.591l0.186-0.473l-3.594-8.269h2.733l2.109,5.417h0.034l1.806-5.417h2.599
			L825.512,365.552z"/>
	</g>
	<g opacity="0.7">
		<g>
			<path fill="none" stroke="#FFFFFF" stroke-width="3.75" stroke-linecap="round" stroke-linejoin="round" d="M630,135h123.75
				c6.188,0,11.25,5.062,11.25,11.25v91.391"/>
			<g>
				<polygon fill="#FFFFFF" points="776.389,236.113 753.611,236.113 765,247.5 				"/>
			</g>
		</g>
	</g>
	<g opacity="0.7">
		<g>
			<path fill="none" stroke="#FFFFFF" stroke-width="3.75" stroke-linecap="round" stroke-linejoin="round" d="M405,247.5V146.25
				c0-6.188,5.062-11.25,11.25-11.25h113.891"/>
			<g>
				<polygon fill="#FFFFFF" points="528.614,123.611 528.614,146.389 540,135 				"/>
			</g>
		</g>
	</g>
	<g opacity="0.7">
		<g>
			<path fill="none" stroke="#FFFFFF" stroke-width="3.75" stroke-linecap="round" stroke-linejoin="round" d="M765,382.5v101.25
				c0,6.188-5.062,11.25-11.25,11.25H639.859"/>
			<g>
				<polygon fill="#FFFFFF" points="641.386,506.389 641.386,483.611 630,495 				"/>
			</g>
		</g>
	</g>
	<g opacity="0.7">
		<g>
			<path fill="none" stroke="#FFFFFF" stroke-width="3.75" stroke-linecap="round" stroke-linejoin="round" d="M540,495H416.25
				c-6.188,0-11.25-5.062-11.25-11.25v-91.391"/>
			<g>
				<polygon fill="#FFFFFF" points="393.611,393.887 416.389,393.887 405,382.5 				"/>
			</g>
		</g>
	</g>
	<g id="Drop">
	</g>
	<g id="Algorithm">
	</g>
	<g id="On-body_sensor">
	</g>
	<g id="Insulin_Pump">
	</g>
</g>
<g id="Meta__x2B__Title">
</g>
<g id="Isolation_Mode">
</g>
<g id="Long_Paper">
	<g id="Long_Paper_1_">
	</g>
	<g id="IV">
	</g>
	<g id="Air_Purifier">
	</g>
	<g id="Alarm">
	</g>
	<g id="Chat">
	</g>
	<g id="Presentation">
	</g>
	<g id="Dog_2">
	</g>
	<g id="Delivery">
	</g>
	<g id="Meat_2">
	</g>
</g>
</svg>
