<?xml version="1.0" encoding="utf-8"?>
<!-- Generator: Adobe Illustrator 16.0.0, SVG Export Plug-In . SVG Version: 6.00 Build 0)  -->
<!DOCTYPE svg PUBLIC "-//W3C//DTD SVG 1.1//EN" "http://www.w3.org/Graphics/SVG/1.1/DTD/svg11.dtd">
<svg version="1.1" xmlns="http://www.w3.org/2000/svg" xmlns:xlink="http://www.w3.org/1999/xlink" x="0px" y="0px" width="1170px"
	 height="330px" viewBox="0 0 1170 330" enable-background="new 0 0 1170 330" xml:space="preserve">
<symbol  id="Box_Office" viewBox="-24 -24 48 48">
	<polygon fill="none" points="24,-24 -24,-24 -24,24 24,24 	"/>
	<path opacity="0.2" fill="#231F20" d="M8.668-6.5v2.167H-8.666V-6.5C-7.469-6.5-6.5-7.47-6.5-8.666
		c0-1.197-0.969-2.167-2.166-2.167V-13H8.668v2.167c-1.197,0-2.167,0.97-2.167,2.167C6.501-7.47,7.471-6.5,8.668-6.5z"/>
	<path fill="none" stroke="#231F20" stroke-width="2" stroke-linecap="round" stroke-linejoin="round" stroke-miterlimit="10" d="
		M4.334,13c0-2.394-1.939-4.333-4.333-4.333S-4.333,10.606-4.333,13c0,2.395,1.94,4.334,4.334,4.334S4.334,15.395,4.334,13z"/>
	<g>
		
			<line fill="none" stroke="#231F20" stroke-width="2" stroke-linecap="round" stroke-linejoin="round" stroke-miterlimit="10" x1="4.901" y1="0" x2="4.335" y2="2.166"/>
	</g>
	<g>
		<path fill="none" stroke="#231F20" stroke-width="2" stroke-linecap="round" stroke-linejoin="round" stroke-miterlimit="10" d="
			M0,6.499h4.334c1.191,0,2.476-0.925,2.853-2.056L8.669,0"/>
	</g>
	<g>
		
			<line fill="none" stroke="#231F20" stroke-width="2" stroke-linecap="round" stroke-linejoin="round" stroke-miterlimit="10" x1="-4.901" y1="0" x2="-4.335" y2="2.166"/>
	</g>
	<g>
		<path fill="none" stroke="#231F20" stroke-width="2" stroke-linecap="round" stroke-linejoin="round" stroke-miterlimit="10" d="
			M0,6.499h-4.335c-1.192,0-2.476-0.925-2.853-2.056L-8.668,0"/>
	</g>
	<path fill="none" stroke="#231F20" stroke-width="2" stroke-linecap="round" stroke-linejoin="round" stroke-miterlimit="10" d="
		M8.668-6.5v2.167H-8.666V-6.5C-7.469-6.5-6.5-7.47-6.5-8.666c0-1.197-0.969-2.167-2.166-2.167V-13H8.668v2.167
		c-1.197,0-2.167,0.97-2.167,2.167C6.501-7.47,7.471-6.5,8.668-6.5z"/>
	
		<polygon fill="none" stroke="#231F20" stroke-width="2" stroke-linecap="round" stroke-linejoin="round" stroke-miterlimit="10" points="
		-17.334,-17.334 17.334,-17.334 17.334,0 -17.334,0 	"/>
</symbol>
<symbol  id="Credit_Card" viewBox="-24 -24 48 48">
	<polygon fill="none" points="24,-24 -24,-24 -24,24 24,24 	"/>
	<g>
		<polygon opacity="0.5" fill="#231F20" points="17.334,-6.5 -17.333,-6.5 -17.333,-2.167 17.334,-2.167 		"/>
		
			<polygon fill="none" stroke="#231F20" stroke-width="2" stroke-linecap="round" stroke-linejoin="round" stroke-miterlimit="40" points="
			17.334,-10.833 -17.333,-10.833 -17.333,10.833 17.334,10.833 		"/>
		
			<line fill="none" stroke="#231F20" stroke-width="2" stroke-linecap="round" stroke-linejoin="round" stroke-miterlimit="40" x1="-13" y1="6.5" x2="0" y2="6.5"/>
		
			<line fill="none" stroke="#231F20" stroke-width="2" stroke-linecap="round" stroke-linejoin="round" stroke-miterlimit="40" x1="-13" y1="2.166" x2="8.666" y2="2.166"/>
	</g>
</symbol>
<symbol  id="Edit_Voucher" viewBox="-24 -24 48 48">
	<g id="Paper__x26__Pencil_3_1_">
		<polygon fill="none" points="24,-24 -24,-24 -24,24 24,24 		"/>
		
			<polygon fill="none" stroke="#231F20" stroke-width="2" stroke-linecap="round" stroke-linejoin="round" stroke-miterlimit="10" points="
			3.064,-5.604 0,-8.666 -3.064,-5.604 -3.062,17.334 3.062,17.334 		"/>
		
			<line fill="none" stroke="#231F20" stroke-width="2" stroke-linecap="round" stroke-linejoin="round" stroke-miterlimit="10" x1="3.064" y1="11.207" x2="-3.064" y2="11.207"/>
		<g>
			<defs>
				<path id="SVGID_7_" d="M-24,24v-48h48v48H-24z M6.064-2.167H-6.062v4.542H6.064V-2.167z"/>
			</defs>
			<clipPath id="SVGID_2_">
				<use xlink:href="#SVGID_7_"  overflow="visible"/>
			</clipPath>
			<g clip-path="url(#SVGID_2_)">
				
					<path fill="none" stroke="#231F20" stroke-width="2" stroke-linecap="round" stroke-linejoin="round" stroke-miterlimit="10" d="
					M17.334-4.333V0h-34.668v-4.333c2.395,0,4.334-1.94,4.334-4.333C-13-11.061-14.939-13-17.334-13v-4.333h34.668V-13
					C14.939-13,13-11.061,13-8.666C13-6.273,14.939-4.333,17.334-4.333z"/>
				<g>
					<g>
						
							<line fill="none" stroke="#231F20" stroke-width="2" stroke-linecap="round" stroke-linejoin="round" x1="-8.666" y1="0" x2="-8.666" y2="-3"/>
						
							<line fill="none" stroke="#231F20" stroke-width="2" stroke-linecap="round" stroke-linejoin="round" stroke-dasharray="4.857,3.238" x1="-8.666" y1="-6.238" x2="-8.666" y2="-12.714"/>
						
							<line fill="none" stroke="#231F20" stroke-width="2" stroke-linecap="round" stroke-linejoin="round" x1="-8.666" y1="-14.333" x2="-8.666" y2="-17.333"/>
					</g>
				</g>
			</g>
		</g>
	</g>
</symbol>
<symbol  id="Money" viewBox="-24 -24 48 48">
	<polygon fill="none" points="24,-24 -24,-24 -24,24 24,24 	"/>
	<polygon fill="none" points="24,-24 -24,-24 -24,24 24,24 	"/>
	
		<polygon fill="none" stroke="#231F20" stroke-width="2" stroke-linecap="round" stroke-linejoin="round" stroke-miterlimit="10" points="
		17.334,-8.666 -17.334,-8.666 -17.334,8.666 17.334,8.666 	"/>
	<text transform="matrix(1 0 0 -1 -2.96 -3.333)" font-family="'Avenir-Black'" font-size="10">$</text>
	<path fill="none" stroke="#231F20" stroke-width="2" stroke-linecap="round" stroke-linejoin="round" stroke-miterlimit="10" d="
		M-8.667,0c0,4.786,3.88,8.666,8.667,8.666S8.667,4.786,8.667,0S4.786-8.666,0-8.666S-8.667-4.786-8.667,0z"/>
	<path fill="none" stroke="#231F20" stroke-width="2" stroke-linecap="round" stroke-linejoin="round" stroke-miterlimit="10" d="
		M17.334,4.333c-2.393,0-4.333,1.94-4.333,4.333"/>
	<path fill="none" stroke="#231F20" stroke-width="2" stroke-linecap="round" stroke-linejoin="round" stroke-miterlimit="10" d="
		M13.001-8.666c0,2.393,1.939,4.333,4.333,4.333"/>
	<path fill="none" stroke="#231F20" stroke-width="2" stroke-linecap="round" stroke-linejoin="round" stroke-miterlimit="10" d="
		M-17.334-4.332c2.393,0,4.333-1.94,4.333-4.334"/>
	<path fill="none" stroke="#231F20" stroke-width="2" stroke-linecap="round" stroke-linejoin="round" stroke-miterlimit="10" d="
		M-13.001,8.666c0-2.393-1.939-4.332-4.333-4.332"/>
</symbol>
<symbol  id="Money_Bag" viewBox="-24 -24 48 48">
	<polygon fill="none" points="24,-24 -24,-24 -24,24 24,24 	"/>
	<path fill="none" stroke="#231F20" stroke-width="2" stroke-linecap="round" stroke-linejoin="round" stroke-miterlimit="10" d="
		M13-8.667C13-3.881,7.18,8.666,0,8.666S-13-3.881-13-8.667s5.82-8.667,13-8.667S13-13.453,13-8.667z"/>
	<path fill="none" stroke="#231F20" stroke-width="2" stroke-linecap="round" stroke-linejoin="round" stroke-miterlimit="10" d="
		M0,17.334c-1.066,0-2.362-0.74-3.25-0.74s-2.375,0.74-3.25,0.74c0,0,0-8.668,6.5-8.668s6.5,8.668,6.5,8.668
		c-0.875,0-2.362-0.74-3.25-0.74S1.066,17.334,0,17.334z"/>
	<text transform="matrix(1 0 0 -1 -2.96 -7.667)" font-family="'Avenir-Black'" font-size="10">$</text>
</symbol>
<symbol  id="Money_Stack" viewBox="-24 -24 48 48">
	<polygon fill="none" points="24,-24 -24,-24 -24,24 24,24 	"/>
	<g>
		
			<polygon fill="none" stroke="#231F20" stroke-width="2" stroke-linecap="round" stroke-linejoin="round" stroke-miterlimit="10" points="
			17.334,-2.159 -8.668,-2.159 -8.668,10.84 17.334,10.84 		"/>
		<text transform="matrix(1 0 0 -1 2.1123 1.8408)" font-family="'Avenir-Black'" font-size="7.5">$</text>
		<path fill="none" stroke="#231F20" stroke-width="2" stroke-linecap="round" stroke-linejoin="round" stroke-miterlimit="10" d="
			M-2.167,4.34c0,3.59,2.911,6.5,6.5,6.5s6.5-2.91,6.5-6.5c0-3.589-2.911-6.499-6.5-6.499S-2.167,0.751-2.167,4.34z"/>
		<path fill="none" stroke="#231F20" stroke-width="2" stroke-linecap="round" stroke-linejoin="round" stroke-miterlimit="10" d="
			M17.334,7.59c-1.795,0-3.25,1.455-3.25,3.25"/>
		<path fill="none" stroke="#231F20" stroke-width="2" stroke-linecap="round" stroke-linejoin="round" stroke-miterlimit="10" d="
			M14.084-2.159c0,1.794,1.455,3.25,3.25,3.25"/>
		<path fill="none" stroke="#231F20" stroke-width="2" stroke-linecap="round" stroke-linejoin="round" stroke-miterlimit="10" d="
			M-8.668,1.091c1.795,0,3.25-1.454,3.25-3.25"/>
		<path fill="none" stroke="#231F20" stroke-width="2" stroke-linecap="round" stroke-linejoin="round" stroke-miterlimit="10" d="
			M-5.418,10.84c0-1.794-1.455-3.249-3.25-3.249"/>
		
			<polyline fill="none" stroke="#231F20" stroke-width="2" stroke-linecap="round" stroke-linejoin="round" stroke-miterlimit="10" points="
			-17.334,2.188 -17.334,-10.812 8.666,-10.84 		"/>
		
			<polyline fill="none" stroke="#231F20" stroke-width="2" stroke-linecap="round" stroke-linejoin="round" stroke-miterlimit="10" points="
			-13,6.521 -13,-6.479 13,-6.479 		"/>
	</g>
</symbol>
<symbol  id="Not_Paid" viewBox="-24 -24 48 48">
	
		<line fill="none" stroke="#231F20" stroke-width="2" stroke-linecap="round" stroke-linejoin="round" stroke-miterlimit="10" x1="17.334" y1="17.334" x2="-17.334" y2="-17.334"/>
	<g>
		<defs>
			<path id="SVGID_9_" d="M-24,24v-48h48v48H-24z M-15.213-19.455l-4.242,4.242l34.668,34.668l4.242-4.242L-15.213-19.455z"/>
		</defs>
		<clipPath id="SVGID_4_">
			<use xlink:href="#SVGID_9_"  overflow="visible"/>
		</clipPath>
		<g clip-path="url(#SVGID_4_)">
			
				<polygon fill="none" stroke="#231F20" stroke-width="2" stroke-linecap="round" stroke-linejoin="round" stroke-miterlimit="10" points="
				17.334,-8.666 -17.334,-8.666 -17.334,8.666 17.334,8.666 			"/>
			<text transform="matrix(1 0 0 -1 -2.96 -3.333)" font-family="'Avenir-Black'" font-size="10">$</text>
			<path fill="none" stroke="#231F20" stroke-width="2" stroke-linecap="round" stroke-linejoin="round" stroke-miterlimit="10" d="
				M-8.666,0c0,4.786,3.88,8.666,8.666,8.666S8.666,4.786,8.666,0S4.786-8.666,0-8.666S-8.666-4.786-8.666,0z"/>
			<path fill="none" stroke="#231F20" stroke-width="2" stroke-linecap="round" stroke-linejoin="round" stroke-miterlimit="10" d="
				M17.334,4.333c-2.393,0-4.333,1.94-4.333,4.333"/>
			<path fill="none" stroke="#231F20" stroke-width="2" stroke-linecap="round" stroke-linejoin="round" stroke-miterlimit="10" d="
				M13.001-8.666c0,2.393,1.939,4.333,4.333,4.333"/>
			<path fill="none" stroke="#231F20" stroke-width="2" stroke-linecap="round" stroke-linejoin="round" stroke-miterlimit="10" d="
				M-17.334-4.332c2.393,0,4.333-1.94,4.333-4.334"/>
			<path fill="none" stroke="#231F20" stroke-width="2" stroke-linecap="round" stroke-linejoin="round" stroke-miterlimit="10" d="
				M-13.001,8.666c0-2.393-1.939-4.332-4.333-4.332"/>
		</g>
	</g>
</symbol>
<symbol  id="Partial_Payment" viewBox="-24 -24 48 48">
	<g id="Money_1_">
		<polygon fill="none" points="24,-24 -24,-24 -24,24 24,24 		"/>
		
			<polygon fill="none" stroke="#231F20" stroke-width="2" stroke-linecap="round" stroke-linejoin="round" stroke-miterlimit="10" points="
			17.334,-8.666 -17.334,-8.666 -15.167,-4.334 -17.334,0 -15.167,4.334 -17.334,8.666 17.334,8.666 		"/>
		<text transform="matrix(1 0 0 -1 -2.96 -3.333)" font-family="'Avenir-Black'" font-size="10">$</text>
		<path fill="none" stroke="#231F20" stroke-width="2" stroke-linecap="round" stroke-linejoin="round" stroke-miterlimit="10" d="
			M-8.666,0c0,4.786,3.88,8.666,8.666,8.666S8.666,4.786,8.666,0S4.786-8.666,0-8.666S-8.666-4.786-8.666,0z"/>
		<path fill="none" stroke="#231F20" stroke-width="2" stroke-linecap="round" stroke-linejoin="round" stroke-miterlimit="10" d="
			M17.334,4.333c-2.393,0-4.333,1.94-4.333,4.333"/>
		<path fill="none" stroke="#231F20" stroke-width="2" stroke-linecap="round" stroke-linejoin="round" stroke-miterlimit="10" d="
			M13.001-8.666c0,2.393,1.939,4.333,4.333,4.333"/>
	</g>
</symbol>
<symbol  id="Ticket" viewBox="-24 -24 48 48">
	<polygon fill="none" points="24,-24 -24,-24 -24,24 24,24 	"/>
	<polygon fill="none" points="24,-24 -24,-24 -24,24 24,24 	"/>
	<path fill="none" stroke="#231F20" stroke-width="2" stroke-linecap="round" stroke-linejoin="round" stroke-miterlimit="10" d="
		M17.334,4.334v4.332h-34.668V4.334C-14.939,4.334-13,2.394-13,0s-1.939-4.334-4.334-4.334v-4.332h34.668v4.332
		C14.939-4.334,13-2.394,13,0S14.939,4.334,17.334,4.334z"/>
	<g>
		<g>
			
				<line fill="none" stroke="#231F20" stroke-width="2" stroke-linecap="round" stroke-linejoin="round" x1="0" y1="8.666" x2="0" y2="5.666"/>
			
				<line fill="none" stroke="#231F20" stroke-width="2" stroke-linecap="round" stroke-linejoin="round" stroke-dasharray="4.8566,3.2377" x1="0" y1="2.428" x2="0" y2="-4.047"/>
			
				<line fill="none" stroke="#231F20" stroke-width="2" stroke-linecap="round" stroke-linejoin="round" x1="0" y1="-5.666" x2="0" y2="-8.666"/>
		</g>
	</g>
</symbol>
<symbol  id="Ticket_2" viewBox="-24 -24 48 48">
	<polygon fill="none" points="24,-24 -24,-24 -24,24 24,24 	"/>
	<polygon fill="none" points="24,-24 -24,-24 -24,24 24,24 	"/>
	<path fill="none" stroke="#231F20" stroke-width="2" stroke-linecap="round" stroke-linejoin="round" stroke-miterlimit="10" d="
		M17.334,4.334v4.332h-34.668V4.334C-14.939,4.334-13,2.394-13,0s-1.939-4.334-4.334-4.334v-4.332h34.668v4.332
		C14.939-4.334,13-2.394,13,0S14.939,4.334,17.334,4.334z"/>
	<g>
		<g>
			
				<line fill="none" stroke="#231F20" stroke-width="2" stroke-linecap="round" stroke-linejoin="round" x1="-8.666" y1="8.666" x2="-8.666" y2="5.666"/>
			
				<line fill="none" stroke="#231F20" stroke-width="2" stroke-linecap="round" stroke-linejoin="round" stroke-dasharray="4.8566,3.2377" x1="-8.666" y1="2.428" x2="-8.666" y2="-4.047"/>
			
				<line fill="none" stroke="#231F20" stroke-width="2" stroke-linecap="round" stroke-linejoin="round" x1="-8.666" y1="-5.666" x2="-8.666" y2="-8.666"/>
		</g>
	</g>
	
		<polygon fill="none" stroke="#231F20" stroke-width="2" stroke-linecap="round" stroke-linejoin="round" stroke-miterlimit="10" points="
		8.666,-4.334 -4.334,-4.334 -4.334,4.334 8.666,4.334 	"/>
</symbol>
<symbol  id="Ticket_3" viewBox="-24 -24 48 48">
	<polygon fill="none" points="24,-24 -24,-24 -24,24 24,24 	"/>
	<polygon fill="none" points="24,-24 -24,-24 -24,24 24,24 	"/>
	<path fill="none" stroke="#231F20" stroke-width="2" stroke-linecap="round" stroke-linejoin="round" stroke-miterlimit="10" d="
		M17.334,4.334v4.332h-34.668V4.334C-14.939,4.334-13,2.394-13,0s-1.939-4.334-4.334-4.334v-4.332h34.668v4.332
		C14.939-4.334,13-2.394,13,0S14.939,4.334,17.334,4.334z"/>
	<g>
		<g>
			
				<line fill="none" stroke="#231F20" stroke-width="2" stroke-linecap="round" stroke-linejoin="round" x1="-8.666" y1="8.666" x2="-8.666" y2="5.666"/>
			
				<line fill="none" stroke="#231F20" stroke-width="2" stroke-linecap="round" stroke-linejoin="round" stroke-dasharray="4.8566,3.2377" x1="-8.666" y1="2.428" x2="-8.666" y2="-4.047"/>
			
				<line fill="none" stroke="#231F20" stroke-width="2" stroke-linecap="round" stroke-linejoin="round" x1="-8.666" y1="-5.666" x2="-8.666" y2="-8.666"/>
		</g>
	</g>
</symbol>
<symbol  id="Ticket_4" viewBox="-24 -24 48 48">
	<polygon fill="none" points="24,-24 -24,-24 -24,24 24,24 	"/>
	<polygon fill="none" points="24,-24 -24,-24 -24,24 24,24 	"/>
	<path fill="none" stroke="#231F20" stroke-width="2" stroke-linecap="round" stroke-linejoin="round" stroke-miterlimit="10" d="
		M17.334,4.334v4.332h-34.668V4.334C-14.939,4.334-13,2.394-13,0s-1.939-4.334-4.334-4.334v-4.332h34.668v4.332
		C14.939-4.334,13-2.394,13,0S14.939,4.334,17.334,4.334z"/>
	<g>
		<g>
			
				<line fill="none" stroke="#231F20" stroke-width="2" stroke-linecap="round" stroke-linejoin="round" x1="-8.666" y1="8.666" x2="-8.666" y2="5.666"/>
			
				<line fill="none" stroke="#231F20" stroke-width="2" stroke-linecap="round" stroke-linejoin="round" stroke-dasharray="4.8566,3.2377" x1="-8.666" y1="2.428" x2="-8.666" y2="-4.047"/>
			
				<line fill="none" stroke="#231F20" stroke-width="2" stroke-linecap="round" stroke-linejoin="round" x1="-8.666" y1="-5.666" x2="-8.666" y2="-8.666"/>
		</g>
	</g>
	
		<line fill="none" stroke="#231F20" stroke-width="2" stroke-linecap="round" stroke-linejoin="round" stroke-miterlimit="10" x1="-4.334" y1="4.334" x2="8.666" y2="4.334"/>
	
		<line fill="none" stroke="#231F20" stroke-width="2" stroke-linecap="round" stroke-linejoin="round" stroke-miterlimit="10" x1="-4.334" y1="0" x2="4.334" y2="0"/>
	
		<line fill="none" stroke="#231F20" stroke-width="2" stroke-linecap="round" stroke-linejoin="round" stroke-miterlimit="10" x1="-4.334" y1="-4.334" x2="8.666" y2="-4.334"/>
</symbol>
<symbol  id="Ticket_Printer" viewBox="-24 -24 48 48">
	<polygon fill="none" points="24,-24 -24,-24 -24,24 24,24 	"/>
	<polygon opacity="0.2" fill="#231F20" points="-8.667,-4.334 -13,-4.334 -13,17.334 13,17.334 13,-4.334 8.667,-4.334 8.667,4.334 
		-8.667,4.334 	"/>
	<g>
		<g>
			
				<line fill="none" stroke="#231F20" stroke-width="2" stroke-linecap="round" stroke-linejoin="round" x1="-8.667" y1="-8.666" x2="-5.667" y2="-8.666"/>
			
				<line fill="none" stroke="#231F20" stroke-width="2" stroke-linecap="round" stroke-linejoin="round" stroke-dasharray="4.8574,3.2383" x1="-2.429" y1="-8.666" x2="4.048" y2="-8.666"/>
			
				<line fill="none" stroke="#231F20" stroke-width="2" stroke-linecap="round" stroke-linejoin="round" x1="5.667" y1="-8.666" x2="8.667" y2="-8.666"/>
		</g>
	</g>
	<path fill="none" stroke="#231F20" stroke-width="2" stroke-linecap="round" stroke-linejoin="round" stroke-miterlimit="10" d="
		M-8.667,4.334v-21.668h4.334C-4.333-14.939-2.393-13,0-13c2.395,0,4.334-1.939,4.334-4.334h4.333V4.334H-8.667z"/>
	
		<polygon fill="none" stroke="#231F20" stroke-width="2" stroke-linecap="round" stroke-linejoin="round" stroke-miterlimit="10" points="
		-8.667,-4.334 -13,-4.334 -13,17.334 13,17.334 13,-4.334 8.667,-4.334 8.667,4.334 -8.667,4.334 	"/>
	<path fill="#231F20" d="M9.667,13c0-0.553-0.447-1-1-1s-1,0.447-1,1s0.447,1,1,1S9.667,13.553,9.667,13z"/>
	
		<line fill="none" stroke="#231F20" stroke-width="2" stroke-linecap="round" stroke-linejoin="round" stroke-miterlimit="10" x1="-8.667" y1="13" x2="0" y2="13"/>
	
		<line fill="none" stroke="#231F20" stroke-width="2" stroke-linecap="round" stroke-linejoin="round" stroke-miterlimit="10" x1="-4.334" y1="-4.333" x2="-4.334" y2="4.334"/>
	
		<line fill="none" stroke="#231F20" stroke-width="2" stroke-linecap="round" stroke-linejoin="round" stroke-miterlimit="10" x1="0" y1="-4.333" x2="0" y2="4.334"/>
	
		<line fill="none" stroke="#231F20" stroke-width="2" stroke-linecap="round" stroke-linejoin="round" stroke-miterlimit="10" x1="4.334" y1="-4.333" x2="4.334" y2="4.334"/>
	
		<line fill="none" stroke="#231F20" stroke-width="2" stroke-linecap="round" stroke-linejoin="round" stroke-miterlimit="10" x1="-13" y1="-4.334" x2="-17.334" y2="-4.334"/>
	
		<line fill="none" stroke="#231F20" stroke-width="2" stroke-linecap="round" stroke-linejoin="round" stroke-miterlimit="10" x1="13" y1="-4.334" x2="17.334" y2="-4.334"/>
</symbol>
<symbol  id="Tickets" viewBox="-24 -24 48 48">
	<polygon fill="none" points="24,-24 -24,-24 -24,24 24,24 	"/>
	<g>
		<path fill="none" stroke="#231F20" stroke-width="2" stroke-linecap="round" stroke-linejoin="round" stroke-miterlimit="10" d="
			M17.334,7.597v3.25h-26v-3.25c1.796,0,3.25-1.454,3.25-3.25s-1.454-3.25-3.25-3.25v-3.25h26v3.25c-1.796,0-3.25,1.454-3.25,3.25
			S15.538,7.597,17.334,7.597z"/>
		<g>
			<g>
				
					<line fill="none" stroke="#231F20" stroke-width="2" stroke-linecap="round" stroke-linejoin="round" x1="-2.165" y1="10.847" x2="-2.165" y2="8.847"/>
				
					<line fill="none" stroke="#231F20" stroke-width="2" stroke-linecap="round" stroke-linejoin="round" stroke-dasharray="3,3" x1="-2.165" y1="5.847" x2="-2.165" y2="1.347"/>
				
					<line fill="none" stroke="#231F20" stroke-width="2" stroke-linecap="round" stroke-linejoin="round" x1="-2.165" y1="-0.153" x2="-2.165" y2="-2.153"/>
			</g>
		</g>
		
			<line fill="none" stroke="#231F20" stroke-width="2" stroke-linecap="round" stroke-linejoin="round" stroke-miterlimit="10" x1="1.084" y1="7.597" x2="10.833" y2="7.597"/>
		
			<line fill="none" stroke="#231F20" stroke-width="2" stroke-linecap="round" stroke-linejoin="round" stroke-miterlimit="10" x1="1.084" y1="4.347" x2="7.584" y2="4.347"/>
		
			<line fill="none" stroke="#231F20" stroke-width="2" stroke-linecap="round" stroke-linejoin="round" stroke-miterlimit="10" x1="1.084" y1="1.097" x2="10.833" y2="1.097"/>
		
			<polyline fill="none" stroke="#231F20" stroke-width="2" stroke-linecap="round" stroke-linejoin="round" stroke-miterlimit="10" points="
			-17.334,2.18 -17.334,-10.82 8.666,-10.847 		"/>
		
			<polyline fill="none" stroke="#231F20" stroke-width="2" stroke-linecap="round" stroke-linejoin="round" stroke-miterlimit="10" points="
			-13,6.514 -13,-6.486 13,-6.486 		"/>
	</g>
</symbol>
<symbol  id="Tickets_2" viewBox="-24 -24 48 48">
	<polygon fill="none" points="24,-24 -24,-24 -24,24 24,24 	"/>
	<path fill="none" stroke="#231F20" stroke-width="2" stroke-linecap="round" stroke-linejoin="round" stroke-miterlimit="10" d="
		M17.334,0v4.333h-34.668V0C-14.939,0-13-1.939-13-4.334c0-2.393-1.939-4.333-4.334-4.333V-13h34.668v4.333
		C14.939-8.667,13-6.727,13-4.334C13-1.939,14.939,0,17.334,0z"/>
	<g>
		<g>
			
				<line fill="none" stroke="#231F20" stroke-width="2" stroke-linecap="round" stroke-linejoin="round" x1="-8.666" y1="4.333" x2="-8.666" y2="1.333"/>
			
				<line fill="none" stroke="#231F20" stroke-width="2" stroke-linecap="round" stroke-linejoin="round" stroke-dasharray="4.857,3.238" x1="-8.666" y1="-1.904" x2="-8.666" y2="-8.381"/>
			
				<line fill="none" stroke="#231F20" stroke-width="2" stroke-linecap="round" stroke-linejoin="round" x1="-8.666" y1="-10" x2="-8.666" y2="-13"/>
		</g>
	</g>
	
		<line fill="none" stroke="#231F20" stroke-width="2" stroke-linecap="round" stroke-linejoin="round" stroke-miterlimit="10" x1="-4.334" y1="0" x2="8.666" y2="0"/>
	
		<line fill="none" stroke="#231F20" stroke-width="2" stroke-linecap="round" stroke-linejoin="round" stroke-miterlimit="10" x1="-4.334" y1="-4.334" x2="4.334" y2="-4.334"/>
	
		<line fill="none" stroke="#231F20" stroke-width="2" stroke-linecap="round" stroke-linejoin="round" stroke-miterlimit="10" x1="-4.334" y1="-8.667" x2="8.666" y2="-8.667"/>
	
		<line fill="none" stroke="#231F20" stroke-width="2" stroke-linecap="round" stroke-linejoin="round" stroke-miterlimit="10" x1="-13" y1="8.666" x2="13" y2="8.666"/>
	
		<line fill="none" stroke="#231F20" stroke-width="2" stroke-linecap="round" stroke-linejoin="round" stroke-miterlimit="10" x1="8.666" y1="13" x2="-8.666" y2="13"/>
</symbol>
<symbol  id="Voucher_Stack" viewBox="-24 -24 48 48">
	<polygon fill="none" points="24,-24 -24,-24 -24,24 24,24 	"/>
	<path fill="none" stroke="#231F20" stroke-width="2" stroke-linecap="round" stroke-linejoin="round" stroke-miterlimit="10" d="
		M17.333,7.598v3.25h-26v-3.25c1.796,0,3.25-1.455,3.25-3.25c0-1.796-1.454-3.25-3.25-3.25v-3.25h26v3.25
		c-1.796,0-3.25,1.454-3.25,3.25C14.083,6.143,15.537,7.598,17.333,7.598z"/>
	<g>
		<g>
			
				<line fill="none" stroke="#231F20" stroke-width="2" stroke-linecap="round" stroke-linejoin="round" x1="-2.166" y1="10.848" x2="-2.166" y2="8.848"/>
			
				<line fill="none" stroke="#231F20" stroke-width="2" stroke-linecap="round" stroke-linejoin="round" stroke-dasharray="3,3" x1="-2.166" y1="5.848" x2="-2.166" y2="1.348"/>
			
				<line fill="none" stroke="#231F20" stroke-width="2" stroke-linecap="round" stroke-linejoin="round" x1="-2.166" y1="-0.152" x2="-2.166" y2="-2.152"/>
		</g>
	</g>
	
		<polyline fill="none" stroke="#231F20" stroke-width="2" stroke-linecap="round" stroke-linejoin="round" stroke-miterlimit="10" points="
		-17.335,2.181 -17.335,-10.819 8.665,-10.846 	"/>
	
		<polyline fill="none" stroke="#231F20" stroke-width="2" stroke-linecap="round" stroke-linejoin="round" stroke-miterlimit="10" points="
		-13.001,6.514 -13.001,-6.486 12.999,-6.486 	"/>
</symbol>
<g id="Background">
</g>
<g id="Layer_1">
</g>
<g id="Model">
	<g id="Woman">
	</g>
	<g id="Threshold">
	</g>
	<g id="Man_with_Tie">
	</g>
	<g id="Building_5">
	</g>
</g>
<g id="Icons">
	<g id="Random_Forest">
	</g>
	<g>
		<g>
			
				<use xlink:href="#Ticket_3"  width="48" height="48" id="XMLID_303_" x="-24" y="-24" transform="matrix(1.875 0 0 -1.875 1075 235)" overflow="visible"/>
			
				<use xlink:href="#Ticket"  width="48" height="48" id="XMLID_302_" x="-24" y="-24" transform="matrix(1.875 0 0 -1.875 935 235)" overflow="visible"/>
			
				<use xlink:href="#Ticket_2"  width="48" height="48" id="XMLID_301_" x="-24" y="-24" transform="matrix(1.875 0 0 -1.875 655 235)" overflow="visible"/>
			
				<use xlink:href="#Ticket_4"  width="48" height="48" id="XMLID_300_" x="-24" y="-24" transform="matrix(1.875 0 0 -1.875 515 235)" overflow="visible"/>
			
				<use xlink:href="#Tickets"  width="48" height="48" id="XMLID_299_" x="-24" y="-24" transform="matrix(1.875 0 0 -1.875 95 235)" overflow="visible"/>
			
				<use xlink:href="#Voucher_Stack"  width="48" height="48" id="XMLID_298_" x="-24" y="-24" transform="matrix(1.875 0 0 -1.875 235 235)" overflow="visible"/>
			
				<use xlink:href="#Tickets_2"  width="48" height="48" id="XMLID_274_" x="-24" y="-24" transform="matrix(1.875 0 0 -1.875 375 235)" overflow="visible"/>
			
				<use xlink:href="#Edit_Voucher"  width="48" height="48" id="XMLID_188_" x="-24" y="-24" transform="matrix(1.875 0 0 -1.875 795 235)" overflow="visible"/>
		</g>
		<g>
			
				<use xlink:href="#Money_Stack"  width="48" height="48" id="XMLID_186_" x="-24" y="-24" transform="matrix(1.875 0 0 -1.875 235 95)" overflow="visible"/>
			
				<use xlink:href="#Money"  width="48" height="48" id="XMLID_184_" x="-24" y="-24" transform="matrix(1.875 0 0 -1.875 95 95)" overflow="visible"/>
			
				<use xlink:href="#Credit_Card"  width="48" height="48" id="XMLID_183_" x="-24" y="-24" transform="matrix(1.875 0 0 -1.875 795 95)" overflow="visible"/>
			
				<use xlink:href="#Not_Paid"  width="48" height="48" id="XMLID_182_" x="-24" y="-24" transform="matrix(1.875 0 0 -1.875 515 95)" overflow="visible"/>
			
				<use xlink:href="#Partial_Payment"  width="48" height="48" id="XMLID_169_" x="-24" y="-24" transform="matrix(1.875 0 0 -1.875 375 95)" overflow="visible"/>
			
				<use xlink:href="#Money_Bag"  width="48" height="48" id="XMLID_168_" x="-24" y="-24" transform="matrix(1.875 0 0 -1.875 655 95)" overflow="visible"/>
			
				<use xlink:href="#Box_Office"  width="48" height="48" id="XMLID_167_" x="-24" y="-24" transform="matrix(1.875 0 0 -1.875 935 95)" overflow="visible"/>
			
				<use xlink:href="#Ticket_Printer"  width="48" height="48" id="XMLID_166_" x="-24" y="-24" transform="matrix(1.875 0 0 -1.875 1075 95)" overflow="visible"/>
		</g>
	</g>
	<g id="Database">
	</g>
	<g id="Random_Forest_1_">
	</g>
	<g id="University">
	</g>
	<g id="Group">
	</g>
	<g id="Group_1_">
	</g>
	<g id="Scatterplott">
	</g>
	<g id="Long_Paper_2_">
	</g>
	<g id="Spread">
	</g>
	<g id="Isometric_Box">
	</g>
	<g id="Magnifying_Glass">
	</g>
	<g id="Code_2">
	</g>
</g>
<g id="Figures">
	<g id="Models">
	</g>
	<g id="Justice">
	</g>
	<g id="Sensor">
	</g>
	<g id="Widget">
	</g>
	<g id="Drop_1_">
	</g>
	<g id="Algorithm_1_">
	</g>
	<g id="On-body_sensor_1_">
	</g>
	<g id="Insulin_Pump_1_">
	</g>
	<g id="Drop">
	</g>
	<g id="Algorithm">
	</g>
	<g id="On-body_sensor">
	</g>
	<g id="Insulin_Pump">
	</g>
</g>
<g id="Meta__x2B__Title">
</g>
<g id="Isolation_Mode">
</g>
<g id="Long_Paper">
	<g id="Long_Paper_1_">
	</g>
	<g id="IV">
	</g>
	<g id="Air_Purifier">
	</g>
	<g id="Alarm">
	</g>
	<g id="Chat">
	</g>
	<g id="Presentation">
	</g>
	<g id="Dog_2">
	</g>
	<g id="Delivery">
	</g>
	<g id="Meat_2">
	</g>
</g>
</svg>
