<?xml version="1.0" encoding="utf-8"?>
<!-- Generator: Adobe Illustrator 16.0.0, SVG Export Plug-In . SVG Version: 6.00 Build 0)  -->
<!DOCTYPE svg PUBLIC "-//W3C//DTD SVG 1.1//EN" "http://www.w3.org/Graphics/SVG/1.1/DTD/svg11.dtd">
<svg version="1.1" xmlns="http://www.w3.org/2000/svg" xmlns:xlink="http://www.w3.org/1999/xlink" x="0px" y="0px" width="1170px"
	 height="380px" viewBox="0 0 1170 380" enable-background="new 0 0 1170 380" xml:space="preserve">
<symbol  id="Algorithm" viewBox="-24 -24 48 48">
	<polygon fill="none" points="24,-24 -24,-24 -24,24 24,24 	"/>
	
		<polyline fill="none" stroke="#231F20" stroke-width="2" stroke-linecap="round" stroke-linejoin="round" stroke-miterlimit="10" points="
		4.334,-13 17.333,-13 17.333,0 8.666,0 	"/>
	
		<polyline fill="none" stroke="#231F20" stroke-width="2" stroke-linecap="round" stroke-linejoin="round" stroke-miterlimit="10" points="
		11.7305,-3.0645 8.666,0 11.7305,3.0645 	"/>
	
		<polyline fill="none" stroke="#231F20" stroke-width="2" stroke-linecap="round" stroke-linejoin="round" stroke-miterlimit="10" points="
		-4.335,13 -17.334,13 -17.334,-13 -8.667,-13 	"/>
	
		<polyline fill="none" stroke="#231F20" stroke-width="2" stroke-linecap="round" stroke-linejoin="round" stroke-miterlimit="10" points="
		-11.7314,-9.9355 -8.667,-13 -11.7314,-16.0645 	"/>
	
		<polygon fill="none" stroke="#231F20" stroke-width="2" stroke-linecap="round" stroke-linejoin="round" stroke-miterlimit="10" points="
		4.334,8.666 -4.334,8.666 -4.334,17.334 4.334,17.334 	"/>
	
		<polygon fill="none" stroke="#231F20" stroke-width="2" stroke-linecap="round" stroke-linejoin="round" stroke-miterlimit="10" points="
		4.334,-4.334 -4.334,-4.334 -4.334,4.334 4.334,4.334 	"/>
	
		<polygon fill="none" stroke="#231F20" stroke-width="2" stroke-linecap="round" stroke-linejoin="round" stroke-miterlimit="10" points="
		4.334,-17.334 -4.334,-17.334 -4.334,-8.666 4.334,-8.666 	"/>
</symbol>
<symbol  id="Drop" viewBox="-24 -24 48 48">
	<polygon fill="none" points="24,-24 -24,-24 -24,24 24,24 	"/>
	<g>
		<path fill="none" stroke="#231F20" stroke-width="2" stroke-linecap="round" stroke-linejoin="round" stroke-miterlimit="10" d="
			M-10.1543-13.1279c5.6084-5.6084,14.7002-5.6074,20.3086,0c5.6074,5.6084,5.6074,14.7002,0.0005,20.3086L0.0005,17.334
			L-10.1538,7.1807C-15.7617,1.5723-15.7612-7.5195-10.1543-13.1279z"/>
		
			<path opacity="0.5" fill="none" stroke="#231F20" stroke-width="2" stroke-linecap="round" stroke-linejoin="round" stroke-miterlimit="10" d="
			M6.6548-9.6279c3.6753,3.6748,3.6753,9.6338,0,13.3096"/>
	</g>
</symbol>
<symbol  id="Insulin_Pump" viewBox="-24 -24 48 48">
	<polygon fill="none" points="24,-24 -24,-24 -24,24 24,24 	"/>
	<path fill="none" stroke="#231F20" stroke-width="2" stroke-linecap="round" stroke-linejoin="round" stroke-miterlimit="10" d="
		M7.583,13c1.1973,0,2.167-0.9707,2.167-2.167v-26c0-1.1963-0.9697-2.167-2.167-2.167H-7.582c-1.1963,0-2.167,0.9697-2.167,2.167
		c0,0,0,26.209,0,27.167c0,1,1,1,1,2c0,0.5,0,3.334,0,3.334h6.582v-2.167C-2.167,13.9697-1.1963,13,0,13C3.792,13,3.792,13,7.583,13
		z"/>
	
		<polygon fill="#231F20" fill-opacity="0.5" stroke="#231F20" stroke-width="2" stroke-linecap="round" stroke-linejoin="round" stroke-miterlimit="10" points="
		5.418,0 -5.417,0 -5.417,8.666 5.418,8.666 	"/>
	
		<polygon fill="none" stroke="#231F20" stroke-width="2" stroke-linecap="round" stroke-linejoin="round" stroke-miterlimit="10" points="
		4.333,-8.667 0,-13 -4.333,-8.667 0,-4.334 	"/>
</symbol>
<symbol  id="On-body_sensor" viewBox="-24 -24 48 48">
	<polygon fill="none" points="24,-24 -24,-24 -24,24 24,24 	"/>
	<path opacity="0.5" fill="#231F20" d="M13,0c0,1.1963,0.9702,2.167,2.167,2.167h1.9863c-0.5928,3.585-2.6899,6.499-6.2783,6.499
		C8.75,8.666,7.5825,6.5,4.334,6.5v-13c3.2485,0,4.416-2.166,6.541-2.166c3.5884,0,5.6855,2.9141,6.2783,6.499H15.167
		C13.9702-2.167,13-1.1963,13,0z"/>
	<path fill="none" stroke="#231F20" stroke-width="2" stroke-linecap="round" stroke-linejoin="round" stroke-miterlimit="10" d="
		M13,0c0,1.1963,0.9702,2.167,2.167,2.167h1.9863c-0.5928,3.585-2.6899,6.499-6.2783,6.499C8.75,8.666,7.5825,6.5,4.334,6.5
		C-0.457,6.5,0,13-4.334,13c-7.1797,0-13-5.8203-13-13s5.8203-13,13-13C0-13-0.457-6.5,4.334-6.5c3.2485,0,4.416-2.166,6.541-2.166
		c3.5884,0,5.6855,2.9141,6.2783,6.499H15.167C13.9702-2.167,13-1.1963,13,0z"/>
	
		<line fill="none" stroke="#231F20" stroke-width="2" stroke-linecap="round" stroke-linejoin="round" stroke-miterlimit="10" x1="4.334" y1="6.5" x2="4.334" y2="-6.5"/>
</symbol>
<g id="Layer_1">
	<g>
		<use xlink:href="#Drop"  width="48" height="48" x="-24" y="-24" transform="matrix(1.5 0 0 -1.5 585 319)" overflow="visible"/>
		
			<use xlink:href="#Algorithm"  width="48" height="48" x="-24" y="-24" transform="matrix(1.5 0 0 -1.5 585 31)" overflow="visible"/>
		
			<use xlink:href="#On-body_sensor"  width="48" height="48" x="-24" y="-24" transform="matrix(1.5 0 0 -1.5 441 157)" overflow="visible"/>
		
			<use xlink:href="#Insulin_Pump"  width="48" height="48" x="-24" y="-24" transform="matrix(1.5 0 0 -1.5 729 157)" overflow="visible"/>
		<g>
			<path fill="#231F20" d="M540.1064,366.8184h3.564c0.4136,0,0.8301,0.0293,1.2485,0.0869
				c0.4185,0.0596,0.7944,0.1758,1.1274,0.3516c0.3325,0.1758,0.6025,0.4209,0.8101,0.7354
				c0.2065,0.3154,0.3105,0.7344,0.3105,1.2559c0,0.54-0.1509,0.9873-0.4526,1.3428c-0.3013,0.3564-0.6997,0.6104-1.1943,0.7627
				v0.0273c0.3145,0.0449,0.6006,0.1328,0.8569,0.2637c0.2563,0.1299,0.4771,0.2969,0.6616,0.499
				c0.1841,0.2031,0.3262,0.4385,0.4253,0.709c0.0986,0.2695,0.1484,0.5576,0.1484,0.8643c0,0.5039-0.1079,0.9248-0.3242,1.2617
				c-0.2158,0.3379-0.4951,0.6104-0.8369,0.8174s-0.7266,0.3555-1.1543,0.4453c-0.4272,0.0898-0.8525,0.1348-1.2754,0.1348h-3.915
				V366.8184z M542.2124,370.6387h1.5254c0.1621,0,0.3218-0.0186,0.479-0.0537c0.1577-0.0361,0.2993-0.0947,0.4253-0.1758
				s0.2275-0.1895,0.3037-0.3242c0.0767-0.1348,0.1147-0.2969,0.1147-0.4863c0-0.1973-0.0425-0.3623-0.1279-0.4922
				c-0.0859-0.1309-0.1958-0.2314-0.3311-0.3037c-0.1348-0.0723-0.2881-0.124-0.459-0.1553s-0.3374-0.0479-0.4995-0.0479h-1.4307
				V370.6387z M542.2124,374.5938h1.8896c0.1621,0,0.3262-0.0176,0.4932-0.0537c0.166-0.0361,0.3169-0.0986,0.4521-0.1895
				c0.1348-0.0898,0.2451-0.2061,0.3306-0.3506c0.0854-0.1436,0.1284-0.3193,0.1284-0.5264c0-0.2246-0.0562-0.4072-0.1689-0.5469
				c-0.1123-0.1396-0.2544-0.2451-0.4253-0.3174s-0.3555-0.1211-0.5532-0.1484c-0.1982-0.0273-0.3828-0.04-0.5537-0.04h-1.5928
				V374.5938z"/>
			<path fill="#231F20" d="M548.625,366.1699h2.0249v10.2061h-2.0249V366.1699z"/>
			<path fill="#231F20" d="M551.8647,373.0957c0-0.5225,0.0942-0.9941,0.2832-1.418c0.189-0.4229,0.4478-0.7852,0.7759-1.0869
				c0.3281-0.3008,0.7168-0.5332,1.1621-0.6953c0.4453-0.1611,0.9199-0.2422,1.4238-0.2422s0.9785,0.0811,1.4238,0.2422
				c0.4453,0.1621,0.832,0.3945,1.1621,0.6953c0.3281,0.3018,0.5859,0.6641,0.7754,1.0869c0.1895,0.4238,0.2832,0.8955,0.2832,1.418
				c0,0.5215-0.0938,0.9941-0.2832,1.417c-0.1895,0.4238-0.4473,0.7852-0.7754,1.0869c-0.3301,0.3018-0.7168,0.5332-1.1621,0.6953
				s-0.9199,0.2432-1.4238,0.2432s-0.9785-0.0811-1.4238-0.2432s-0.834-0.3936-1.1621-0.6953s-0.5869-0.6631-0.7759-1.0869
				C551.959,374.0898,551.8647,373.6172,551.8647,373.0957z M553.8887,373.0957c0,0.4951,0.1426,0.8955,0.4258,1.2012
				c0.2832,0.3066,0.6816,0.459,1.1953,0.459s0.9102-0.1523,1.1953-0.459c0.2832-0.3057,0.4238-0.7061,0.4238-1.2012
				s-0.1406-0.8955-0.4238-1.2021c-0.2852-0.3057-0.6816-0.459-1.1953-0.459s-0.9121,0.1533-1.1953,0.459
				C554.0312,372.2002,553.8887,372.6006,553.8887,373.0957z"/>
			<path fill="#231F20" d="M560.0996,373.0957c0-0.5225,0.0947-0.9941,0.2832-1.418c0.1895-0.4229,0.4473-0.7852,0.7764-1.0869
				c0.3281-0.3008,0.7158-0.5332,1.1611-0.6953c0.4453-0.1611,0.9199-0.2422,1.4238-0.2422s0.9795,0.0811,1.4248,0.2422
				c0.4453,0.1621,0.832,0.3945,1.1611,0.6953c0.3281,0.3018,0.5869,0.6641,0.7754,1.0869c0.1895,0.4238,0.2842,0.8955,0.2842,1.418
				c0,0.5215-0.0947,0.9941-0.2842,1.417c-0.1885,0.4238-0.4473,0.7852-0.7754,1.0869c-0.3291,0.3018-0.7158,0.5332-1.1611,0.6953
				s-0.9209,0.2432-1.4248,0.2432s-0.9785-0.0811-1.4238-0.2432s-0.833-0.3936-1.1611-0.6953
				c-0.3291-0.3018-0.5869-0.6631-0.7764-1.0869C560.1943,374.0898,560.0996,373.6172,560.0996,373.0957z M562.124,373.0957
				c0,0.4951,0.1426,0.8955,0.4258,1.2012c0.2832,0.3066,0.6816,0.459,1.1943,0.459c0.5137,0,0.9111-0.1523,1.1953-0.459
				c0.2832-0.3057,0.4248-0.7061,0.4248-1.2012s-0.1416-0.8955-0.4248-1.2021c-0.2842-0.3057-0.6816-0.459-1.1953-0.459
				c-0.5127,0-0.9111,0.1533-1.1943,0.459C562.2666,372.2002,562.124,372.6006,562.124,373.0957z"/>
			<path fill="#231F20" d="M575.4619,376.376h-1.8633v-0.8643h-0.0264c-0.0811,0.1172-0.1875,0.2363-0.3174,0.3584
				c-0.1309,0.1211-0.2842,0.2314-0.459,0.3301c-0.1758,0.0996-0.3691,0.1807-0.5811,0.2432
				c-0.2109,0.0625-0.4297,0.0947-0.6543,0.0947c-0.4863,0-0.9277-0.083-1.3232-0.25c-0.3965-0.166-0.7354-0.4004-1.0195-0.7021
				c-0.2832-0.3008-0.502-0.6592-0.6543-1.0732c-0.1533-0.4141-0.2295-0.8682-0.2295-1.3633c0-0.459,0.0693-0.8975,0.209-1.3164
				c0.1396-0.418,0.3379-0.7891,0.5938-1.1133c0.2568-0.3242,0.5693-0.583,0.9385-0.7764s0.7871-0.29,1.2559-0.29
				c0.4229,0,0.8164,0.0654,1.1807,0.1953c0.3652,0.1309,0.6641,0.3535,0.8984,0.668h0.0264v-4.3467h2.0254V376.376z
				 M573.5986,373.0957c0-0.4951-0.1416-0.8955-0.4248-1.2021c-0.2842-0.3057-0.6816-0.459-1.1953-0.459
				c-0.5127,0-0.9111,0.1533-1.1943,0.459c-0.2832,0.3066-0.4258,0.707-0.4258,1.2021s0.1426,0.8955,0.4258,1.2012
				c0.2832,0.3066,0.6816,0.459,1.1943,0.459c0.5137,0,0.9111-0.1523,1.1953-0.459
				C573.457,373.9912,573.5986,373.5908,573.5986,373.0957z"/>
			<path fill="#231F20" d="M589.9883,375.7012c-0.6211,0.3242-1.2695,0.5576-1.9443,0.7021
				c-0.6748,0.1436-1.3633,0.2158-2.0654,0.2158c-0.7471,0-1.4355-0.1172-2.0654-0.3516c-0.6299-0.2334-1.1748-0.5684-1.6338-1.0049
				s-0.8164-0.9658-1.0732-1.5869s-0.3848-1.3135-0.3848-2.0791c0-0.7646,0.1279-1.458,0.3848-2.0791
				c0.2568-0.6201,0.6143-1.1494,1.0732-1.5859s1.0039-0.7715,1.6338-1.0059c0.6299-0.2334,1.3184-0.3506,2.0654-0.3506
				c0.7646,0,1.4688,0.0918,2.1123,0.2764s1.208,0.502,1.6943,0.9521l-1.4844,1.6201c-0.2891-0.2969-0.6123-0.5225-0.9727-0.6758
				c-0.3604-0.1523-0.8096-0.2295-1.3496-0.2295c-0.4502,0-0.8574,0.0771-1.2217,0.2295c-0.3652,0.1533-0.6777,0.3672-0.9385,0.6416
				s-0.4609,0.6006-0.6006,0.9785s-0.209,0.7881-0.209,1.2285c0,0.4502,0.0693,0.8623,0.209,1.2354
				c0.1396,0.374,0.3398,0.6982,0.6006,0.9727s0.5732,0.4883,0.9385,0.6406c0.3643,0.1533,0.7715,0.2295,1.2217,0.2295
				c0.459,0,0.8545-0.0518,1.1875-0.1553s0.5986-0.209,0.7969-0.3174v-1.5518h-1.7148v-1.9443h3.7402V375.7012z"/>
			<path fill="#231F20" d="M591.6074,366.1699h2.0254v10.2061h-2.0254V366.1699z"/>
			<path fill="#231F20" d="M601.4082,376.376h-1.9434v-0.8906h-0.0273c-0.0723,0.126-0.1641,0.252-0.2764,0.3779
				c-0.1133,0.126-0.25,0.2383-0.4121,0.3369c-0.1621,0.0996-0.3467,0.1807-0.5537,0.2432s-0.4316,0.0947-0.6748,0.0947
				c-0.5127,0-0.9297-0.0791-1.249-0.2363s-0.5664-0.376-0.7422-0.6543c-0.1758-0.2793-0.293-0.6084-0.3506-0.9863
				c-0.0596-0.3779-0.0879-0.7871-0.0879-1.2285v-3.6172h2.0244v3.2129c0,0.1885,0.0068,0.3848,0.0205,0.5869
				s0.0537,0.3896,0.1211,0.5605c0.0684,0.1709,0.1709,0.3105,0.3105,0.418c0.1396,0.1084,0.3398,0.1621,0.6016,0.1621
				c0.2607,0,0.4717-0.0469,0.6338-0.1416s0.2861-0.2207,0.3711-0.3779c0.0859-0.1572,0.1426-0.335,0.1689-0.5332
				c0.0273-0.1982,0.041-0.4053,0.041-0.6211v-3.2666h2.0244V376.376z"/>
			<path fill="#231F20" d="M607.2812,371.9346c-0.0996-0.1436-0.2393-0.2637-0.4189-0.3574
				c-0.1797-0.0947-0.373-0.1426-0.5801-0.1426c-0.5137,0-0.9111,0.1533-1.1953,0.459c-0.2832,0.3066-0.4248,0.707-0.4248,1.2021
				s0.1416,0.8955,0.4248,1.2012c0.2842,0.3066,0.6816,0.459,1.1953,0.459c0.2246,0,0.418-0.0488,0.5801-0.1484
				c0.1621-0.0986,0.3018-0.2158,0.4189-0.3506l1.3359,1.4033c-0.3145,0.3242-0.6865,0.5518-1.1133,0.6816
				c-0.4277,0.1309-0.835,0.1963-1.2217,0.1963c-0.5039,0-0.9785-0.0811-1.4248-0.2432c-0.4453-0.1621-0.832-0.3936-1.1611-0.6953
				c-0.3281-0.3018-0.5869-0.6631-0.7754-1.0869c-0.1895-0.4229-0.2842-0.8955-0.2842-1.417c0-0.5225,0.0947-0.9941,0.2842-1.418
				c0.1885-0.4229,0.4473-0.7852,0.7754-1.0869c0.3291-0.3008,0.7158-0.5332,1.1611-0.6953
				c0.4463-0.1611,0.9209-0.2422,1.4248-0.2422c0.3867,0,0.7939,0.0654,1.2217,0.1953c0.4268,0.1309,0.7988,0.3574,1.1133,0.6816
				L607.2812,371.9346z"/>
			<path fill="#231F20" d="M609.1035,373.0957c0-0.5225,0.0947-0.9941,0.2832-1.418c0.1895-0.4229,0.4473-0.7852,0.7764-1.0869
				c0.3281-0.3008,0.7158-0.5332,1.1611-0.6953c0.4453-0.1611,0.9199-0.2422,1.4238-0.2422s0.9795,0.0811,1.4248,0.2422
				c0.4453,0.1621,0.832,0.3945,1.1611,0.6953c0.3281,0.3018,0.5869,0.6641,0.7754,1.0869c0.1895,0.4238,0.2842,0.8955,0.2842,1.418
				c0,0.5215-0.0947,0.9941-0.2842,1.417c-0.1885,0.4238-0.4473,0.7852-0.7754,1.0869c-0.3291,0.3018-0.7158,0.5332-1.1611,0.6953
				s-0.9209,0.2432-1.4248,0.2432s-0.9785-0.0811-1.4238-0.2432s-0.833-0.3936-1.1611-0.6953
				c-0.3291-0.3018-0.5869-0.6631-0.7764-1.0869C609.1982,374.0898,609.1035,373.6172,609.1035,373.0957z M611.1279,373.0957
				c0,0.4951,0.1426,0.8955,0.4258,1.2012c0.2832,0.3066,0.6816,0.459,1.1943,0.459c0.5137,0,0.9111-0.1523,1.1953-0.459
				c0.2832-0.3057,0.4248-0.7061,0.4248-1.2012s-0.1416-0.8955-0.4248-1.2021c-0.2842-0.3057-0.6816-0.459-1.1953-0.459
				c-0.5127,0-0.9111,0.1533-1.1943,0.459C611.2705,372.2002,611.1279,372.6006,611.1279,373.0957z"/>
			<path fill="#231F20" d="M621.2939,371.7451c-0.2969-0.3682-0.6885-0.5527-1.1738-0.5527c-0.1719,0-0.3379,0.04-0.5,0.1211
				s-0.2432,0.2207-0.2432,0.4189c0,0.1611,0.083,0.2812,0.25,0.3574c0.166,0.0762,0.3779,0.1436,0.6348,0.2021
				c0.2559,0.0586,0.5303,0.1221,0.8232,0.1895c0.292,0.0674,0.5674,0.1729,0.8232,0.3174
				c0.2568,0.1436,0.4678,0.3398,0.6348,0.5869c0.166,0.248,0.25,0.5781,0.25,0.9922c0,0.4229-0.0928,0.7715-0.2773,1.0459
				c-0.1846,0.2754-0.4209,0.4951-0.708,0.6621c-0.2881,0.166-0.6123,0.2832-0.9727,0.3506
				c-0.3594,0.0674-0.7148,0.1016-1.0664,0.1016c-0.459,0-0.9229-0.0654-1.3906-0.1963c-0.4678-0.1299-0.8633-0.3613-1.1875-0.6943
				l1.2285-1.3643c0.1885,0.2344,0.3984,0.4121,0.6279,0.5332c0.2295,0.1221,0.4971,0.1826,0.8027,0.1826
				c0.2344,0,0.4453-0.0342,0.6348-0.1016c0.1885-0.0674,0.2832-0.1904,0.2832-0.3711c0-0.1709-0.083-0.2988-0.25-0.3848
				c-0.166-0.085-0.3779-0.1572-0.6338-0.2158c-0.2568-0.0586-0.5312-0.1211-0.8242-0.1895
				c-0.292-0.0674-0.5664-0.168-0.8232-0.3037c-0.2568-0.1348-0.4678-0.3262-0.6348-0.5732c-0.166-0.248-0.249-0.5781-0.249-0.9922
				c0-0.3867,0.0781-0.7197,0.2363-0.999c0.1572-0.2793,0.3643-0.5088,0.6201-0.6885c0.2568-0.1797,0.5518-0.3125,0.8848-0.3984
				s0.6699-0.1279,1.0127-0.1279c0.4316,0,0.8682,0.0625,1.3096,0.1885c0.4404,0.126,0.8145,0.3516,1.1201,0.6748L621.2939,371.7451
				z"/>
			<path fill="#231F20" d="M630.042,375.2422c-0.3242,0.4141-0.7344,0.7334-1.2285,0.958
				c-0.4951,0.2256-1.0088,0.3379-1.5391,0.3379c-0.5039,0-0.9785-0.0811-1.4248-0.2432c-0.4453-0.1621-0.832-0.3936-1.1611-0.6953
				c-0.3281-0.3018-0.5869-0.6631-0.7754-1.0869c-0.1895-0.4229-0.2842-0.8955-0.2842-1.417c0-0.5225,0.0947-0.9941,0.2842-1.418
				c0.1885-0.4229,0.4473-0.7852,0.7754-1.0869c0.3291-0.3008,0.7158-0.5332,1.1611-0.6953
				c0.4463-0.1611,0.9209-0.2422,1.4248-0.2422c0.4678,0,0.8926,0.0811,1.2754,0.2422c0.3828,0.1621,0.707,0.3945,0.9717,0.6953
				c0.2656,0.3018,0.4707,0.6641,0.6143,1.0869c0.1445,0.4238,0.2168,0.8955,0.2168,1.418v0.6338h-4.6982
				c0.0811,0.3877,0.2568,0.6953,0.5264,0.9248c0.2705,0.2295,0.6025,0.3447,0.999,0.3447c0.333,0,0.6143-0.0742,0.8438-0.2227
				s0.4297-0.3398,0.6006-0.5742L630.042,375.2422z M628.3271,372.3525c0.0088-0.3418-0.1035-0.6338-0.3379-0.877
				c-0.2334-0.2432-0.5352-0.3643-0.9043-0.3643c-0.2246,0-0.4229,0.0361-0.5938,0.1074c-0.1709,0.0723-0.3174,0.1641-0.4385,0.2773
				c-0.1221,0.1123-0.2158,0.2422-0.2842,0.3916c-0.0674,0.1484-0.1055,0.3037-0.1143,0.4648H628.3271z"/>
		</g>
		<g>
			<path fill="#231F20" d="M358.7612,207.3018c-0.2075-0.252-0.4614-0.4453-0.7627-0.5801
				c-0.3018-0.1348-0.6504-0.2031-1.0464-0.2031s-0.7627,0.0771-1.1001,0.2295c-0.3379,0.1533-0.6304,0.3672-0.8779,0.6416
				s-0.4409,0.6006-0.5801,0.9785c-0.1396,0.3779-0.2095,0.7881-0.2095,1.2285c0,0.4502,0.0698,0.8623,0.2095,1.2354
				c0.1392,0.374,0.3306,0.6982,0.5737,0.9727c0.2427,0.2744,0.5283,0.4883,0.8569,0.6406
				c0.3286,0.1533,0.6816,0.2295,1.0601,0.2295c0.4316,0,0.8145-0.0898,1.1475-0.2695c0.3325-0.1807,0.6074-0.4326,0.8232-0.7559
				l1.7549,1.3086c-0.4048,0.5674-0.918,0.9863-1.5386,1.2559c-0.6211,0.2705-1.2603,0.4053-1.917,0.4053
				c-0.7476,0-1.436-0.1172-2.0659-0.3516c-0.6299-0.2334-1.1743-0.5684-1.6333-1.0049s-0.8169-0.9658-1.0732-1.5869
				s-0.3848-1.3135-0.3848-2.0791c0-0.7646,0.1284-1.458,0.3848-2.0791c0.2563-0.6201,0.6143-1.1494,1.0732-1.5859
				s1.0034-0.7715,1.6333-1.0059c0.6299-0.2334,1.3184-0.3506,2.0659-0.3506c0.27,0,0.5508,0.0244,0.8438,0.0742
				c0.292,0.0498,0.5801,0.1279,0.8638,0.2363c0.2837,0.1074,0.5557,0.252,0.8169,0.4316c0.2607,0.1807,0.4946,0.4004,0.7017,0.6611
				L358.7612,207.3018z"/>
			<path fill="#231F20" d="M361.2588,211.0957c0-0.5225,0.0942-0.9941,0.2832-1.418c0.189-0.4229,0.4478-0.7852,0.7764-1.0869
				c0.3286-0.3008,0.7153-0.5332,1.1611-0.6953c0.4453-0.1611,0.9199-0.2422,1.4243-0.2422c0.5039,0,0.9785,0.0811,1.4243,0.2422
				c0.4453,0.1621,0.832,0.3945,1.1606,0.6953c0.3286,0.3018,0.5874,0.6641,0.7764,1.0869c0.189,0.4238,0.2837,0.8955,0.2837,1.418
				c0,0.5215-0.0947,0.9941-0.2837,1.417c-0.189,0.4238-0.4478,0.7852-0.7764,1.0869s-0.7153,0.5332-1.1606,0.6953
				c-0.4458,0.1621-0.9204,0.2432-1.4243,0.2432c-0.5044,0-0.979-0.0811-1.4243-0.2432c-0.4458-0.1621-0.8325-0.3936-1.1611-0.6953
				s-0.5874-0.6631-0.7764-1.0869C361.353,212.0898,361.2588,211.6172,361.2588,211.0957z M363.2837,211.0957
				c0,0.4951,0.1416,0.8955,0.4253,1.2012c0.2832,0.3066,0.6816,0.459,1.1948,0.459c0.5127,0,0.9111-0.1523,1.1943-0.459
				c0.2837-0.3057,0.4253-0.7061,0.4253-1.2012s-0.1416-0.8955-0.4253-1.2021c-0.2832-0.3057-0.6816-0.459-1.1943-0.459
				c-0.5132,0-0.9116,0.1533-1.1948,0.459C363.4253,210.2002,363.2837,210.6006,363.2837,211.0957z"/>
			<path fill="#231F20" d="M369.7363,207.8154h1.9443v0.8906h0.0269c0.063-0.126,0.1528-0.252,0.27-0.3779
				c0.1167-0.126,0.2563-0.2383,0.4185-0.3379c0.1621-0.0986,0.3462-0.1797,0.5537-0.2432
				c0.2065-0.0625,0.4316-0.0938,0.6748-0.0938c0.5132,0,0.9268,0.0781,1.2422,0.2363c0.3149,0.1572,0.5601,0.375,0.7354,0.6543
				c0.1758,0.2793,0.2949,0.6074,0.3579,0.9854s0.0947,0.7881,0.0947,1.2285v3.6182h-2.0254v-3.2129
				c0-0.1895-0.0063-0.3848-0.02-0.5869c-0.0137-0.2031-0.0542-0.3896-0.1216-0.5605s-0.1709-0.3105-0.3105-0.4189
				c-0.1396-0.1074-0.3398-0.1621-0.6006-0.1621c-0.2612,0-0.4727,0.0479-0.6348,0.1426c-0.1616,0.0938-0.2856,0.2207-0.3711,0.3779
				s-0.1416,0.335-0.1689,0.5332c-0.0269,0.1982-0.04,0.4043-0.04,0.6211v3.2666h-2.0254V207.8154z"/>
			<path fill="#231F20" d="M381.9536,209.4346h-1.7822v2.1875c0,0.1797,0.0088,0.3438,0.0273,0.4922
				c0.0176,0.1494,0.0581,0.2773,0.1211,0.3848c0.063,0.1084,0.1597,0.1914,0.2905,0.25c0.1304,0.0586,0.3037,0.0879,0.5195,0.0879
				c0.1079,0,0.25-0.0107,0.4253-0.0332c0.1758-0.0225,0.3081-0.0752,0.3984-0.1553v1.6875
				c-0.2251,0.0801-0.459,0.1348-0.7021,0.1611c-0.2432,0.0273-0.4814,0.041-0.7153,0.041c-0.3423,0-0.6572-0.0361-0.9453-0.1084
				c-0.2881-0.0713-0.5396-0.1865-0.7559-0.3438c-0.2158-0.1572-0.3848-0.3623-0.5063-0.6143
				c-0.1211-0.252-0.1821-0.5586-0.1821-0.918v-3.1191h-1.2959v-1.6191h1.2959v-1.9443h2.0249v1.9443h1.7822V209.4346z"/>
			<path fill="#231F20" d="M382.8447,205.749c0-0.3232,0.1147-0.6006,0.3442-0.8301s0.5063-0.3438,0.8301-0.3438
				c0.3242,0,0.6011,0.1143,0.8306,0.3438s0.3442,0.5068,0.3442,0.8301c0,0.3242-0.1147,0.6016-0.3442,0.8311
				s-0.5063,0.3438-0.8306,0.3438c-0.3237,0-0.6006-0.1143-0.8301-0.3438S382.8447,206.0732,382.8447,205.749z M383.0068,207.8154
				h2.0249v6.5605h-2.0249V207.8154z"/>
			<path fill="#231F20" d="M386.4893,207.8154h1.9443v0.8906h0.0269c0.063-0.126,0.1528-0.252,0.27-0.3779
				c0.1167-0.126,0.2563-0.2383,0.4185-0.3379c0.1621-0.0986,0.3462-0.1797,0.5537-0.2432
				c0.2065-0.0625,0.4316-0.0938,0.6748-0.0938c0.5132,0,0.9268,0.0781,1.2422,0.2363c0.3149,0.1572,0.5601,0.375,0.7354,0.6543
				c0.1758,0.2793,0.2949,0.6074,0.3579,0.9854s0.0947,0.7881,0.0947,1.2285v3.6182h-2.0254v-3.2129
				c0-0.1895-0.0063-0.3848-0.02-0.5869c-0.0137-0.2031-0.0542-0.3896-0.1216-0.5605s-0.1709-0.3105-0.3105-0.4189
				c-0.1396-0.1074-0.3398-0.1621-0.6006-0.1621c-0.2612,0-0.4727,0.0479-0.6348,0.1426c-0.1616,0.0938-0.2856,0.2207-0.3711,0.3779
				s-0.1416,0.335-0.1689,0.5332c-0.0269,0.1982-0.04,0.4043-0.04,0.6211v3.2666h-2.0254V207.8154z"/>
			<path fill="#231F20" d="M400.5566,214.376h-1.9443v-0.8906h-0.0269c-0.0723,0.126-0.1646,0.252-0.2769,0.3779
				s-0.2495,0.2383-0.4116,0.3369c-0.1621,0.0996-0.3467,0.1807-0.5537,0.2432s-0.4316,0.0947-0.6748,0.0947
				c-0.5132,0-0.9292-0.0791-1.2485-0.2363c-0.3198-0.1572-0.5674-0.376-0.7427-0.6543c-0.1758-0.2793-0.2925-0.6084-0.3511-0.9863
				s-0.0879-0.7871-0.0879-1.2285v-3.6172h2.0254v3.2129c0,0.1885,0.0063,0.3848,0.02,0.5869s0.0542,0.3896,0.1216,0.5605
				s0.1709,0.3105,0.3105,0.418c0.1392,0.1084,0.3394,0.1621,0.6006,0.1621c0.2607,0,0.4727-0.0469,0.6348-0.1416
				c0.1616-0.0947,0.2852-0.2207,0.3711-0.3779c0.0854-0.1572,0.1416-0.335,0.1685-0.5332
				c0.0273-0.1982,0.0405-0.4053,0.0405-0.6211v-3.2666h2.0254V214.376z"/>
			<path fill="#231F20" d="M401.7446,211.0957c0-0.5225,0.0942-0.9941,0.2832-1.418c0.189-0.4229,0.4478-0.7852,0.7764-1.0869
				c0.3286-0.3008,0.7153-0.5332,1.1611-0.6953c0.4453-0.1611,0.9199-0.2422,1.4243-0.2422c0.5039,0,0.9785,0.0811,1.4243,0.2422
				c0.4453,0.1621,0.832,0.3945,1.1606,0.6953c0.3286,0.3018,0.5874,0.6641,0.7764,1.0869c0.189,0.4238,0.2837,0.8955,0.2837,1.418
				c0,0.5215-0.0947,0.9941-0.2837,1.417c-0.189,0.4238-0.4478,0.7852-0.7764,1.0869s-0.7153,0.5332-1.1606,0.6953
				c-0.4458,0.1621-0.9204,0.2432-1.4243,0.2432c-0.5044,0-0.979-0.0811-1.4243-0.2432c-0.4458-0.1621-0.8325-0.3936-1.1611-0.6953
				s-0.5874-0.6631-0.7764-1.0869C401.8389,212.0898,401.7446,211.6172,401.7446,211.0957z M403.7695,211.0957
				c0,0.4951,0.1416,0.8955,0.4253,1.2012c0.2832,0.3066,0.6816,0.459,1.1948,0.459c0.5127,0,0.9111-0.1523,1.1943-0.459
				c0.2837-0.3057,0.4253-0.7061,0.4253-1.2012s-0.1416-0.8955-0.4253-1.2021c-0.2832-0.3057-0.6816-0.459-1.1943-0.459
				c-0.5132,0-0.9116,0.1533-1.1948,0.459C403.9111,210.2002,403.7695,210.6006,403.7695,211.0957z"/>
			<path fill="#231F20" d="M416.5405,214.376h-1.9443v-0.8906h-0.0269c-0.0723,0.126-0.1646,0.252-0.2769,0.3779
				s-0.2495,0.2383-0.4116,0.3369c-0.1621,0.0996-0.3467,0.1807-0.5537,0.2432s-0.4316,0.0947-0.6748,0.0947
				c-0.5132,0-0.9292-0.0791-1.2485-0.2363c-0.3198-0.1572-0.5674-0.376-0.7427-0.6543c-0.1758-0.2793-0.2925-0.6084-0.3511-0.9863
				s-0.0879-0.7871-0.0879-1.2285v-3.6172h2.0254v3.2129c0,0.1885,0.0063,0.3848,0.02,0.5869s0.0542,0.3896,0.1216,0.5605
				s0.1709,0.3105,0.3105,0.418c0.1392,0.1084,0.3394,0.1621,0.6006,0.1621c0.2607,0,0.4727-0.0469,0.6348-0.1416
				c0.1616-0.0947,0.2852-0.2207,0.3711-0.3779c0.0854-0.1572,0.1416-0.335,0.1685-0.5332
				c0.0273-0.1982,0.0405-0.4053,0.0405-0.6211v-3.2666h2.0254V214.376z"/>
			<path fill="#231F20" d="M421.6836,209.7451c-0.2974-0.3682-0.689-0.5527-1.1748-0.5527c-0.1709,0-0.3374,0.04-0.4995,0.1211
				s-0.2427,0.2207-0.2427,0.4189c0,0.1611,0.083,0.2812,0.2495,0.3574s0.3779,0.1436,0.6343,0.2021
				c0.2568,0.0586,0.5312,0.1221,0.8237,0.1895s0.5669,0.1729,0.8237,0.3174c0.2563,0.1436,0.4678,0.3398,0.6343,0.5869
				c0.1665,0.248,0.2495,0.5781,0.2495,0.9922c0,0.4229-0.0923,0.7715-0.2764,1.0459c-0.1846,0.2754-0.4209,0.4951-0.709,0.6621
				c-0.2881,0.166-0.6118,0.2832-0.9717,0.3506c-0.3604,0.0674-0.7158,0.1016-1.0669,0.1016c-0.459,0-0.9224-0.0654-1.3901-0.1963
				c-0.4683-0.1299-0.8643-0.3613-1.188-0.6943l1.2285-1.3643c0.189,0.2344,0.3979,0.4121,0.6274,0.5332
				c0.2295,0.1221,0.4971,0.1826,0.8032,0.1826c0.2339,0,0.4458-0.0342,0.6348-0.1016s0.2832-0.1904,0.2832-0.3711
				c0-0.1709-0.083-0.2988-0.2495-0.3848c-0.1665-0.085-0.3779-0.1572-0.6348-0.2158c-0.2563-0.0586-0.5308-0.1211-0.8232-0.1895
				c-0.2925-0.0674-0.5669-0.168-0.8237-0.3037c-0.2563-0.1348-0.4678-0.3262-0.6343-0.5732c-0.1665-0.248-0.25-0.5781-0.25-0.9922
				c0-0.3867,0.0786-0.7197,0.2363-0.999c0.1572-0.2793,0.3647-0.5088,0.6211-0.6885s0.5513-0.3125,0.8843-0.3984
				s0.6704-0.1279,1.0127-0.1279c0.4316,0,0.8682,0.0625,1.3091,0.1885s0.8145,0.3516,1.1206,0.6748L421.6836,209.7451z"/>
			<path fill="#231F20" d="M437.1274,213.7012c-0.6211,0.3242-1.269,0.5576-1.9438,0.7021
				c-0.6753,0.1436-1.3638,0.2158-2.0654,0.2158c-0.7476,0-1.436-0.1172-2.0659-0.3516c-0.6299-0.2334-1.1743-0.5684-1.6333-1.0049
				s-0.8169-0.9658-1.0732-1.5869s-0.3848-1.3135-0.3848-2.0791c0-0.7646,0.1284-1.458,0.3848-2.0791
				c0.2563-0.6201,0.6143-1.1494,1.0732-1.5859s1.0034-0.7715,1.6333-1.0059c0.6299-0.2334,1.3184-0.3506,2.0659-0.3506
				c0.7646,0,1.4688,0.0918,2.1123,0.2764s1.2085,0.502,1.6943,0.9521l-1.4849,1.6201c-0.2881-0.2969-0.6123-0.5225-0.9722-0.6758
				c-0.3599-0.1523-0.8101-0.2295-1.3496-0.2295c-0.4502,0-0.8574,0.0771-1.2222,0.2295c-0.3643,0.1533-0.6772,0.3672-0.938,0.6416
				c-0.2612,0.2744-0.4614,0.6006-0.6006,0.9785c-0.1396,0.3779-0.2095,0.7881-0.2095,1.2285c0,0.4502,0.0698,0.8623,0.2095,1.2354
				c0.1392,0.374,0.3394,0.6982,0.6006,0.9727c0.2607,0.2744,0.5737,0.4883,0.938,0.6406c0.3647,0.1533,0.772,0.2295,1.2222,0.2295
				c0.459,0,0.8545-0.0518,1.188-0.1553c0.3325-0.1035,0.5981-0.209,0.7964-0.3174v-1.5518h-1.7144v-1.9443h3.7393V213.7012z"/>
			<path fill="#231F20" d="M438.7476,204.1699h2.0249v10.2061h-2.0249V204.1699z"/>
			<path fill="#231F20" d="M448.5483,214.376h-1.9443v-0.8906h-0.0269c-0.0723,0.126-0.1646,0.252-0.2769,0.3779
				s-0.2495,0.2383-0.4116,0.3369c-0.1621,0.0996-0.3467,0.1807-0.5537,0.2432s-0.4316,0.0947-0.6748,0.0947
				c-0.5132,0-0.9292-0.0791-1.2485-0.2363c-0.3198-0.1572-0.5674-0.376-0.7427-0.6543c-0.1758-0.2793-0.2925-0.6084-0.3511-0.9863
				s-0.0879-0.7871-0.0879-1.2285v-3.6172h2.0254v3.2129c0,0.1885,0.0063,0.3848,0.02,0.5869s0.0542,0.3896,0.1216,0.5605
				s0.1709,0.3105,0.3105,0.418c0.1392,0.1084,0.3394,0.1621,0.6006,0.1621c0.2607,0,0.4727-0.0469,0.6348-0.1416
				c0.1616-0.0947,0.2852-0.2207,0.3711-0.3779c0.0854-0.1572,0.1416-0.335,0.1685-0.5332
				c0.0273-0.1982,0.0405-0.4053,0.0405-0.6211v-3.2666h2.0254V214.376z"/>
			<path fill="#231F20" d="M454.4209,209.9346c-0.0991-0.1436-0.2388-0.2637-0.4189-0.3574
				c-0.1797-0.0947-0.3735-0.1426-0.5801-0.1426c-0.5132,0-0.9116,0.1533-1.1948,0.459c-0.2837,0.3066-0.4253,0.707-0.4253,1.2021
				s0.1416,0.8955,0.4253,1.2012c0.2832,0.3066,0.6816,0.459,1.1948,0.459c0.2246,0,0.4185-0.0488,0.5801-0.1484
				c0.1621-0.0986,0.3018-0.2158,0.4189-0.3506l1.3364,1.4033c-0.3154,0.3242-0.6865,0.5518-1.1138,0.6816
				c-0.4277,0.1309-0.835,0.1963-1.2217,0.1963c-0.5044,0-0.979-0.0811-1.4243-0.2432c-0.4458-0.1621-0.8325-0.3936-1.1611-0.6953
				s-0.5874-0.6631-0.7764-1.0869c-0.189-0.4229-0.2832-0.8955-0.2832-1.417c0-0.5225,0.0942-0.9941,0.2832-1.418
				c0.189-0.4229,0.4478-0.7852,0.7764-1.0869c0.3286-0.3008,0.7153-0.5332,1.1611-0.6953
				c0.4453-0.1611,0.9199-0.2422,1.4243-0.2422c0.3867,0,0.7939,0.0654,1.2217,0.1953c0.4272,0.1309,0.7983,0.3574,1.1138,0.6816
				L454.4209,209.9346z"/>
			<path fill="#231F20" d="M456.2432,211.0957c0-0.5225,0.0942-0.9941,0.2832-1.418c0.189-0.4229,0.4478-0.7852,0.7764-1.0869
				c0.3286-0.3008,0.7153-0.5332,1.1611-0.6953c0.4453-0.1611,0.9199-0.2422,1.4243-0.2422c0.5039,0,0.9785,0.0811,1.4243,0.2422
				c0.4453,0.1621,0.832,0.3945,1.1606,0.6953c0.3286,0.3018,0.5874,0.6641,0.7764,1.0869c0.189,0.4238,0.2837,0.8955,0.2837,1.418
				c0,0.5215-0.0947,0.9941-0.2837,1.417c-0.189,0.4238-0.4478,0.7852-0.7764,1.0869s-0.7153,0.5332-1.1606,0.6953
				c-0.4458,0.1621-0.9204,0.2432-1.4243,0.2432c-0.5044,0-0.979-0.0811-1.4243-0.2432c-0.4458-0.1621-0.8325-0.3936-1.1611-0.6953
				s-0.5874-0.6631-0.7764-1.0869C456.3374,212.0898,456.2432,211.6172,456.2432,211.0957z M458.2681,211.0957
				c0,0.4951,0.1416,0.8955,0.4253,1.2012c0.2832,0.3066,0.6816,0.459,1.1948,0.459c0.5127,0,0.9111-0.1523,1.1943-0.459
				c0.2837-0.3057,0.4253-0.7061,0.4253-1.2012s-0.1416-0.8955-0.4253-1.2021c-0.2832-0.3057-0.6816-0.459-1.1943-0.459
				c-0.5132,0-0.9116,0.1533-1.1948,0.459C458.4097,210.2002,458.2681,210.6006,458.2681,211.0957z"/>
			<path fill="#231F20" d="M468.4336,209.7451c-0.2974-0.3682-0.689-0.5527-1.1748-0.5527c-0.1709,0-0.3374,0.04-0.4995,0.1211
				s-0.2427,0.2207-0.2427,0.4189c0,0.1611,0.083,0.2812,0.2495,0.3574s0.3779,0.1436,0.6343,0.2021
				c0.2568,0.0586,0.5312,0.1221,0.8237,0.1895s0.5669,0.1729,0.8237,0.3174c0.2563,0.1436,0.4678,0.3398,0.6343,0.5869
				c0.1665,0.248,0.2495,0.5781,0.2495,0.9922c0,0.4229-0.0923,0.7715-0.2764,1.0459c-0.1846,0.2754-0.4209,0.4951-0.709,0.6621
				c-0.2881,0.166-0.6118,0.2832-0.9717,0.3506c-0.3604,0.0674-0.7158,0.1016-1.0669,0.1016c-0.459,0-0.9224-0.0654-1.3901-0.1963
				c-0.4683-0.1299-0.8643-0.3613-1.188-0.6943l1.2285-1.3643c0.189,0.2344,0.3979,0.4121,0.6274,0.5332
				c0.2295,0.1221,0.4971,0.1826,0.8032,0.1826c0.2339,0,0.4458-0.0342,0.6348-0.1016s0.2832-0.1904,0.2832-0.3711
				c0-0.1709-0.083-0.2988-0.2495-0.3848c-0.1665-0.085-0.3779-0.1572-0.6348-0.2158c-0.2563-0.0586-0.5308-0.1211-0.8232-0.1895
				c-0.2925-0.0674-0.5669-0.168-0.8237-0.3037c-0.2563-0.1348-0.4678-0.3262-0.6343-0.5732c-0.1665-0.248-0.25-0.5781-0.25-0.9922
				c0-0.3867,0.0786-0.7197,0.2363-0.999c0.1572-0.2793,0.3647-0.5088,0.6211-0.6885s0.5513-0.3125,0.8843-0.3984
				s0.6704-0.1279,1.0127-0.1279c0.4316,0,0.8682,0.0625,1.3091,0.1885s0.8145,0.3516,1.1206,0.6748L468.4336,209.7451z"/>
			<path fill="#231F20" d="M477.1812,213.2422c-0.3237,0.4141-0.7334,0.7334-1.2285,0.958
				c-0.4946,0.2256-1.0078,0.3379-1.5386,0.3379c-0.5044,0-0.979-0.0811-1.4243-0.2432c-0.4458-0.1621-0.8325-0.3936-1.1611-0.6953
				s-0.5874-0.6631-0.7764-1.0869c-0.189-0.4229-0.2832-0.8955-0.2832-1.417c0-0.5225,0.0942-0.9941,0.2832-1.418
				c0.189-0.4229,0.4478-0.7852,0.7764-1.0869c0.3286-0.3008,0.7153-0.5332,1.1611-0.6953
				c0.4453-0.1611,0.9199-0.2422,1.4243-0.2422c0.4678,0,0.8931,0.0811,1.2754,0.2422c0.3828,0.1621,0.7065,0.3945,0.9722,0.6953
				c0.2651,0.3018,0.4702,0.6641,0.6143,1.0869c0.144,0.4238,0.2158,0.8955,0.2158,1.418v0.6338h-4.6978
				c0.0811,0.3877,0.2563,0.6953,0.5264,0.9248s0.603,0.3447,0.999,0.3447c0.333,0,0.6143-0.0742,0.8438-0.2227
				s0.4297-0.3398,0.6006-0.5742L477.1812,213.2422z M475.4668,210.3525c0.0088-0.3418-0.1035-0.6338-0.3374-0.877
				c-0.2344-0.2432-0.5356-0.3643-0.9043-0.3643c-0.2251,0-0.4233,0.0361-0.5942,0.1074c-0.1709,0.0723-0.3174,0.1641-0.439,0.2773
				c-0.1211,0.1123-0.2158,0.2422-0.2832,0.3916c-0.0674,0.1484-0.106,0.3037-0.1147,0.4648H475.4668z"/>
			<path fill="#231F20" d="M482.9727,204.8184h3.186l2.2002,6.2363h0.0273l2.2139-6.2363h3.1724v9.5576h-2.106v-7.3301h-0.0269
				l-2.5112,7.3301h-1.6064l-2.4165-7.3301h-0.0269v7.3301h-2.106V204.8184z"/>
			<path fill="#231F20" d="M495.2168,211.0957c0-0.5225,0.0942-0.9941,0.2832-1.418c0.189-0.4229,0.4478-0.7852,0.7764-1.0869
				c0.3286-0.3008,0.7153-0.5332,1.1611-0.6953c0.4453-0.1611,0.9199-0.2422,1.4243-0.2422c0.5039,0,0.9785,0.0811,1.4243,0.2422
				c0.4453,0.1621,0.832,0.3945,1.1606,0.6953c0.3286,0.3018,0.5874,0.6641,0.7764,1.0869c0.189,0.4238,0.2837,0.8955,0.2837,1.418
				c0,0.5215-0.0947,0.9941-0.2837,1.417c-0.189,0.4238-0.4478,0.7852-0.7764,1.0869s-0.7153,0.5332-1.1606,0.6953
				c-0.4458,0.1621-0.9204,0.2432-1.4243,0.2432c-0.5044,0-0.979-0.0811-1.4243-0.2432c-0.4458-0.1621-0.8325-0.3936-1.1611-0.6953
				s-0.5874-0.6631-0.7764-1.0869C495.311,212.0898,495.2168,211.6172,495.2168,211.0957z M497.2417,211.0957
				c0,0.4951,0.1416,0.8955,0.4253,1.2012c0.2832,0.3066,0.6816,0.459,1.1948,0.459c0.5127,0,0.9111-0.1523,1.1943-0.459
				c0.2837-0.3057,0.4253-0.7061,0.4253-1.2012s-0.1416-0.8955-0.4253-1.2021c-0.2832-0.3057-0.6816-0.459-1.1943-0.459
				c-0.5132,0-0.9116,0.1533-1.1948,0.459C497.3833,210.2002,497.2417,210.6006,497.2417,211.0957z"/>
			<path fill="#231F20" d="M503.6943,207.8154h1.9443v0.8906h0.0269c0.063-0.126,0.1528-0.252,0.27-0.3779
				c0.1167-0.126,0.2563-0.2383,0.4185-0.3379c0.1621-0.0986,0.3462-0.1797,0.5537-0.2432
				c0.2065-0.0625,0.4316-0.0938,0.6748-0.0938c0.5132,0,0.9268,0.0781,1.2422,0.2363c0.3149,0.1572,0.5601,0.375,0.7354,0.6543
				c0.1758,0.2793,0.2949,0.6074,0.3579,0.9854s0.0947,0.7881,0.0947,1.2285v3.6182h-2.0254v-3.2129
				c0-0.1895-0.0063-0.3848-0.02-0.5869c-0.0137-0.2031-0.0542-0.3896-0.1216-0.5605s-0.1709-0.3105-0.3105-0.4189
				c-0.1396-0.1074-0.3398-0.1621-0.6006-0.1621c-0.2612,0-0.4727,0.0479-0.6348,0.1426c-0.1616,0.0938-0.2856,0.2207-0.3711,0.3779
				s-0.1416,0.335-0.1689,0.5332c-0.0269,0.1982-0.04,0.4043-0.04,0.6211v3.2666h-2.0254V207.8154z"/>
			<path fill="#231F20" d="M511.3086,205.749c0-0.3232,0.1147-0.6006,0.3442-0.8301s0.5063-0.3438,0.8301-0.3438
				c0.3242,0,0.6011,0.1143,0.8306,0.3438s0.3442,0.5068,0.3442,0.8301c0,0.3242-0.1147,0.6016-0.3442,0.8311
				s-0.5063,0.3438-0.8306,0.3438c-0.3237,0-0.6006-0.1143-0.8301-0.3438S511.3086,206.0732,511.3086,205.749z M511.4707,207.8154
				h2.0249v6.5605h-2.0249V207.8154z"/>
			<path fill="#231F20" d="M519.4219,209.4346h-1.7822v2.1875c0,0.1797,0.0088,0.3438,0.0273,0.4922
				c0.0176,0.1494,0.0581,0.2773,0.1211,0.3848c0.063,0.1084,0.1597,0.1914,0.2905,0.25c0.1304,0.0586,0.3037,0.0879,0.5195,0.0879
				c0.1079,0,0.25-0.0107,0.4253-0.0332c0.1758-0.0225,0.3081-0.0752,0.3984-0.1553v1.6875
				c-0.2251,0.0801-0.459,0.1348-0.7021,0.1611c-0.2432,0.0273-0.4814,0.041-0.7153,0.041c-0.3423,0-0.6572-0.0361-0.9453-0.1084
				c-0.2881-0.0713-0.5396-0.1865-0.7559-0.3438c-0.2158-0.1572-0.3848-0.3623-0.5063-0.6143
				c-0.1211-0.252-0.1821-0.5586-0.1821-0.918v-3.1191h-1.2959v-1.6191h1.2959v-1.9443h2.0249v1.9443h1.7822V209.4346z"/>
			<path fill="#231F20" d="M520.2051,211.0957c0-0.5225,0.0942-0.9941,0.2832-1.418c0.189-0.4229,0.4478-0.7852,0.7764-1.0869
				c0.3286-0.3008,0.7153-0.5332,1.1611-0.6953c0.4453-0.1611,0.9199-0.2422,1.4243-0.2422c0.5039,0,0.9785,0.0811,1.4243,0.2422
				c0.4453,0.1621,0.832,0.3945,1.1606,0.6953c0.3286,0.3018,0.5874,0.6641,0.7764,1.0869c0.189,0.4238,0.2837,0.8955,0.2837,1.418
				c0,0.5215-0.0947,0.9941-0.2837,1.417c-0.189,0.4238-0.4478,0.7852-0.7764,1.0869s-0.7153,0.5332-1.1606,0.6953
				c-0.4458,0.1621-0.9204,0.2432-1.4243,0.2432c-0.5044,0-0.979-0.0811-1.4243-0.2432c-0.4458-0.1621-0.8325-0.3936-1.1611-0.6953
				s-0.5874-0.6631-0.7764-1.0869C520.2993,212.0898,520.2051,211.6172,520.2051,211.0957z M522.23,211.0957
				c0,0.4951,0.1416,0.8955,0.4253,1.2012c0.2832,0.3066,0.6816,0.459,1.1948,0.459c0.5127,0,0.9111-0.1523,1.1943-0.459
				c0.2837-0.3057,0.4253-0.7061,0.4253-1.2012s-0.1416-0.8955-0.4253-1.2021c-0.2832-0.3057-0.6816-0.459-1.1943-0.459
				c-0.5132,0-0.9116,0.1533-1.1948,0.459C522.3716,210.2002,522.23,210.6006,522.23,211.0957z"/>
			<path fill="#231F20" d="M528.6826,207.8154h2.0254v1.0527h0.0269c0.2158-0.4053,0.4727-0.709,0.7695-0.9111
				c0.2969-0.2031,0.6704-0.3037,1.1206-0.3037c0.1167,0,0.2339,0.0039,0.3506,0.0127c0.1172,0.0098,0.2251,0.0273,0.3242,0.0547
				v1.8496c-0.144-0.0449-0.2856-0.0791-0.4253-0.1016s-0.2856-0.0342-0.439-0.0342c-0.3867,0-0.6929,0.0547-0.918,0.1621
				c-0.2251,0.1084-0.3979,0.2588-0.5195,0.4521c-0.1216,0.1943-0.2002,0.4258-0.2363,0.6953
				c-0.0361,0.2705-0.0537,0.5674-0.0537,0.8916v2.7402h-2.0254V207.8154z"/>
		</g>
		<g>
			<path fill="#00ADEF" d="M459.9722,296.0859c0-0.2334-0.0068-0.4678-0.0205-0.7021c-0.0132-0.2334-0.0293-0.4678-0.0474-0.7021
				h0.9585v0.959h0.0273c0.2158-0.3691,0.5151-0.6484,0.8975-0.8369c0.3828-0.1895,0.7627-0.2842,1.1411-0.2842
				c0.1704,0,0.353,0.0186,0.5464,0.0547s0.3804,0.1006,0.5605,0.1953c0.1797,0.0947,0.3486,0.2275,0.5063,0.3984
				c0.1572,0.1709,0.29,0.3916,0.3979,0.6611c0.1802-0.4043,0.4658-0.7236,0.8574-0.958s0.7983-0.3516,1.2217-0.3516
				c0.8101,0,1.4082,0.2148,1.7954,0.6416c0.3867,0.4277,0.5806,1.0371,0.5806,1.8291V301h-0.8911v-3.6855
				c0-0.6387-0.1123-1.1289-0.3374-1.4717c-0.2251-0.3418-0.6436-0.5127-1.2554-0.5127c-0.333,0-0.6123,0.0654-0.8369,0.1953
				c-0.2251,0.1309-0.4077,0.3037-0.5469,0.5205c-0.1396,0.2158-0.2412,0.4609-0.3037,0.7354
				c-0.063,0.2744-0.0947,0.5605-0.0947,0.8574V301h-0.8911v-3.6855c0-0.6387-0.1123-1.1289-0.3374-1.4717
				c-0.2251-0.3418-0.6436-0.5127-1.2554-0.5127c-0.0542,0-0.1777,0.0176-0.3711,0.0537c-0.1938,0.0361-0.394,0.1348-0.6011,0.2969
				s-0.3936,0.4053-0.5601,0.7295s-0.25,0.7744-0.25,1.3496V301h-0.8906V296.0859z"/>
			<path fill="#00ADEF" d="M472.0947,298.084c0.0273,0.3154,0.1035,0.6123,0.2295,0.8906c0.126,0.2793,0.2925,0.5205,0.4995,0.7227
				s0.4458,0.3623,0.7158,0.4795s0.5625,0.1748,0.8774,0.1748c0.4771,0,0.8887-0.1094,1.2354-0.3301
				c0.3462-0.2207,0.6094-0.4746,0.7896-0.7627l0.6885,0.5664c-0.3779,0.4775-0.7944,0.8193-1.2485,1.0264
				c-0.4546,0.207-0.9429,0.3105-1.4648,0.3105c-0.4683,0-0.9023-0.083-1.3027-0.25c-0.4004-0.166-0.7451-0.3984-1.0327-0.6953
				c-0.2881-0.2969-0.5156-0.6475-0.6816-1.0527c-0.167-0.4053-0.25-0.8457-0.25-1.3232c0-0.4766,0.0811-0.918,0.2432-1.3232
				c0.1621-0.4043,0.3867-0.7559,0.6748-1.0527s0.6255-0.5283,1.0127-0.6953c0.3867-0.166,0.8052-0.25,1.2554-0.25
				c0.4771,0,0.9043,0.0859,1.2827,0.2568c0.3779,0.1709,0.6948,0.3984,0.9517,0.6816c0.2563,0.2842,0.4521,0.6172,0.5869,0.999
				c0.1353,0.3828,0.2026,0.79,0.2026,1.2217v0.4053H472.0947z M476.3882,297.3555c0-0.6035-0.1802-1.0918-0.54-1.4648
				c-0.3604-0.374-0.8643-0.5605-1.5122-0.5605c-0.2881,0-0.5669,0.0566-0.8369,0.1689s-0.5063,0.2627-0.709,0.4521
				c-0.2021,0.1885-0.3643,0.4053-0.4858,0.6475c-0.1216,0.2432-0.1821,0.4951-0.1821,0.7568H476.3882z"/>
			<path fill="#00ADEF" d="M483.0298,297.126v-0.1621c0-1.0889-0.54-1.6338-1.6201-1.6338c-0.7378,0-1.3813,0.248-1.9302,0.7422
				l-0.54-0.6338c0.5938-0.6123,1.4849-0.9189,2.6729-0.9189c0.3057,0,0.6006,0.0459,0.8843,0.1357s0.5288,0.2275,0.7358,0.4111
				c0.207,0.1846,0.373,0.417,0.4995,0.6953c0.126,0.2793,0.189,0.6123,0.189,0.999v2.8213c0,0.2432,0.0112,0.498,0.0337,0.7637
				c0.0225,0.2646,0.0474,0.4834,0.0742,0.6543h-0.8638c-0.0273-0.1533-0.0474-0.3193-0.061-0.499
				c-0.0137-0.1807-0.02-0.3555-0.02-0.5273h-0.0273c-0.2607,0.4238-0.5693,0.7275-0.9248,0.9111
				c-0.3555,0.1846-0.7896,0.2773-1.3027,0.2773c-0.2788,0-0.5488-0.0381-0.8096-0.1152c-0.2612-0.0762-0.4932-0.1934-0.6953-0.3506
				c-0.2026-0.1572-0.3647-0.3506-0.4863-0.5801c-0.1211-0.2295-0.1821-0.498-0.1821-0.8037c0-0.5127,0.1328-0.916,0.3984-1.208
				c0.2651-0.293,0.5981-0.5107,0.999-0.6553c0.4004-0.1436,0.8276-0.2334,1.2822-0.2695s0.8711-0.0537,1.249-0.0537H483.0298z
				 M482.5708,297.8545c-0.2251,0-0.5063,0.0117-0.8438,0.0342s-0.6616,0.0762-0.9722,0.1611
				c-0.3105,0.0859-0.5757,0.2188-0.7964,0.3984c-0.2207,0.1807-0.3306,0.4277-0.3306,0.7432c0,0.207,0.0425,0.3848,0.1279,0.5332
				s0.2002,0.2695,0.3442,0.3643s0.3042,0.1621,0.4795,0.2021c0.1753,0.041,0.353,0.0605,0.5332,0.0605
				c0.3242,0,0.605-0.0537,0.8438-0.1611c0.2383-0.1084,0.439-0.2549,0.6006-0.4395c0.1621-0.1846,0.2812-0.4004,0.3579-0.6475
				c0.0762-0.248,0.1147-0.5107,0.1147-0.79v-0.459H482.5708z"/>
			<path fill="#00ADEF" d="M489.334,296.1807c-0.1348-0.2607-0.3149-0.4678-0.54-0.6211s-0.4995-0.2295-0.8232-0.2295
				c-0.1533,0-0.3086,0.0176-0.4658,0.0537c-0.1577,0.0361-0.2993,0.0928-0.4253,0.1689s-0.2275,0.1738-0.3037,0.29
				c-0.0767,0.1172-0.1147,0.2617-0.1147,0.4326c0,0.2969,0.1035,0.5127,0.3105,0.6475s0.5176,0.252,0.9316,0.3516l0.9043,0.2158
				c0.4409,0.0986,0.8076,0.2988,1.1001,0.6006s0.439,0.6777,0.439,1.127c0,0.3428-0.0698,0.6367-0.2095,0.8848
				c-0.1396,0.2471-0.3237,0.4502-0.5532,0.6074s-0.4927,0.2725-0.79,0.3438c-0.2969,0.0723-0.5986,0.1084-0.9043,0.1084
				c-0.4858,0-0.9385-0.0928-1.3569-0.2773c-0.4185-0.1836-0.7759-0.501-1.0732-0.9512l0.7695-0.5264
				c0.1802,0.2881,0.4072,0.5176,0.6821,0.6885c0.2744,0.1709,0.6006,0.2559,0.9785,0.2559c0.1802,0,0.3599-0.0195,0.54-0.0605
				c0.1797-0.04,0.3394-0.1035,0.479-0.1885c0.1396-0.0859,0.252-0.1963,0.3379-0.3311c0.0854-0.1348,0.1279-0.292,0.1279-0.4727
				c0-0.3145-0.1167-0.542-0.3511-0.6816c-0.2339-0.1396-0.5176-0.25-0.8501-0.3311l-0.8643-0.2021
				c-0.1079-0.0273-0.2544-0.0723-0.4385-0.1348c-0.1846-0.0635-0.3647-0.1572-0.54-0.2842c-0.1758-0.125-0.3267-0.29-0.4526-0.4922
				s-0.189-0.4521-0.189-0.749c0-0.3242,0.0654-0.6074,0.1958-0.8506s0.3062-0.4414,0.5269-0.5947
				c0.2202-0.1523,0.4697-0.2676,0.749-0.3438c0.2788-0.0762,0.5669-0.1152,0.8643-0.1152c0.4404,0,0.8501,0.0859,1.228,0.2568
				c0.3784,0.1709,0.6704,0.4639,0.8779,0.8779L489.334,296.1807z"/>
			<path fill="#00ADEF" d="M496.3003,301c-0.0181-0.1709-0.0293-0.3398-0.0337-0.5059c-0.0049-0.167-0.0068-0.3359-0.0068-0.5068
				h-0.0273c-0.0991,0.1709-0.2246,0.3291-0.3779,0.4727c-0.1528,0.1445-0.3237,0.2676-0.5127,0.3711s-0.3896,0.1846-0.6011,0.2432
				s-0.4209,0.0879-0.6274,0.0879c-0.8101,0-1.4087-0.2139-1.7954-0.6416c-0.3872-0.4268-0.5806-1.0371-0.5806-1.8291v-4.0098
				h0.8906v3.4971c0,0.3506,0.0273,0.6611,0.0811,0.9316c0.0542,0.2695,0.1465,0.4971,0.2769,0.6816s0.3057,0.3242,0.5264,0.418
				c0.2207,0.0947,0.4976,0.1416,0.8306,0.1416c0.0449,0,0.1709-0.0176,0.3779-0.0537s0.4253-0.1348,0.6548-0.2969
				s0.4341-0.4053,0.6143-0.7285c0.1797-0.3242,0.27-0.7744,0.27-1.3506v-3.2402h0.8911v4.9277c0,0.1709,0.0063,0.3867,0.02,0.6484
				c0.0137,0.2607,0.0293,0.5078,0.0474,0.7422H496.3003z"/>
			<path fill="#00ADEF" d="M499.3379,296.6533c0-0.2793-0.0068-0.5625-0.02-0.8506c-0.0137-0.2881-0.0249-0.6621-0.0337-1.1211
				h0.8774v1.1748h0.0269c0.063-0.1709,0.1528-0.335,0.27-0.4932c0.1167-0.1572,0.2588-0.2988,0.4253-0.4248
				s0.3599-0.2275,0.5806-0.3037c0.2202-0.0762,0.4702-0.1152,0.749-0.1152c0.252,0,0.4727,0.0273,0.6616,0.0811l-0.1753,0.8779
				c-0.1172-0.0449-0.2886-0.0674-0.5132-0.0674c-0.3423,0-0.6348,0.0654-0.8774,0.1953c-0.2432,0.1309-0.4458,0.2969-0.6074,0.5
				c-0.1621,0.2021-0.2817,0.4209-0.3579,0.6543c-0.0767,0.2344-0.1147,0.459-0.1147,0.6748V301h-0.8911V296.6533z"/>
			<path fill="#00ADEF" d="M504.103,298.084c0.0273,0.3154,0.1035,0.6123,0.2295,0.8906c0.126,0.2793,0.2925,0.5205,0.4995,0.7227
				s0.4458,0.3623,0.7158,0.4795s0.5625,0.1748,0.8774,0.1748c0.4771,0,0.8887-0.1094,1.2354-0.3301
				c0.3462-0.2207,0.6094-0.4746,0.7896-0.7627l0.6885,0.5664c-0.3779,0.4775-0.7944,0.8193-1.2485,1.0264
				c-0.4546,0.207-0.9429,0.3105-1.4648,0.3105c-0.4683,0-0.9023-0.083-1.3027-0.25c-0.4004-0.166-0.7451-0.3984-1.0327-0.6953
				c-0.2881-0.2969-0.5156-0.6475-0.6816-1.0527c-0.167-0.4053-0.25-0.8457-0.25-1.3232c0-0.4766,0.0811-0.918,0.2432-1.3232
				c0.1621-0.4043,0.3867-0.7559,0.6748-1.0527s0.6255-0.5283,1.0127-0.6953c0.3867-0.166,0.8052-0.25,1.2554-0.25
				c0.4771,0,0.9043,0.0859,1.2827,0.2568c0.3779,0.1709,0.6948,0.3984,0.9517,0.6816c0.2563,0.2842,0.4521,0.6172,0.5869,0.999
				c0.1353,0.3828,0.2026,0.79,0.2026,1.2217v0.4053H504.103z M508.3965,297.3555c0-0.6035-0.1802-1.0918-0.54-1.4648
				c-0.3604-0.374-0.8643-0.5605-1.5122-0.5605c-0.2881,0-0.5669,0.0566-0.8369,0.1689s-0.5063,0.2627-0.709,0.4521
				c-0.2021,0.1885-0.3643,0.4053-0.4858,0.6475c-0.1216,0.2432-0.1821,0.4951-0.1821,0.7568H508.3965z"/>
			<path fill="#00ADEF" d="M517.2925,301h-0.8906v-1.0527h-0.0273c-0.144,0.2158-0.3149,0.4004-0.5127,0.5537
				c-0.1982,0.1523-0.4053,0.2783-0.6211,0.3779c-0.2163,0.0986-0.439,0.1709-0.6685,0.2158s-0.4478,0.0674-0.6548,0.0674
				c-0.4951,0-0.9473-0.083-1.3564-0.25c-0.4097-0.166-0.7627-0.3984-1.0601-0.6953c-0.2969-0.2969-0.5288-0.6475-0.6953-1.0527
				s-0.2495-0.8457-0.2495-1.3232c0-0.4766,0.083-0.918,0.2495-1.3232c0.1665-0.4043,0.3984-0.7559,0.6953-1.0527
				c0.2974-0.2969,0.6504-0.5283,1.0601-0.6953c0.4092-0.166,0.8613-0.25,1.3564-0.25c0.207,0,0.4253,0.0234,0.6548,0.0684
				s0.4521,0.1162,0.6685,0.2158c0.2158,0.0986,0.4229,0.2246,0.6211,0.3779c0.1978,0.1533,0.3687,0.3369,0.5127,0.5537h0.0273
				v-4.9414h0.8906V301z M511.5283,297.8408c0,0.3516,0.0557,0.6797,0.1685,0.9854c0.1123,0.3066,0.272,0.5723,0.4795,0.7969
				c0.2065,0.2246,0.4565,0.4033,0.749,0.5332c0.2925,0.1309,0.623,0.1953,0.9922,0.1953c0.3599,0,0.6953-0.0645,1.0059-0.1953
				c0.3105-0.1299,0.5781-0.3086,0.8032-0.5332s0.4004-0.4902,0.5264-0.7969c0.126-0.3057,0.189-0.6338,0.189-0.9854
				c0-0.3506-0.063-0.6797-0.189-0.9854s-0.3013-0.5713-0.5264-0.7969c-0.2251-0.2246-0.4927-0.4023-0.8032-0.5332
				c-0.3105-0.1299-0.646-0.1953-1.0059-0.1953c-0.3691,0-0.6997,0.0654-0.9922,0.1953c-0.2925,0.1309-0.5425,0.3086-0.749,0.5332
				c-0.2075,0.2256-0.3672,0.4912-0.4795,0.7969C511.584,297.1611,511.5283,297.4902,511.5283,297.8408z"/>
			<path fill="#00ADEF" d="M522.9897,290.7939h0.8906v4.9414h0.0273c0.1436-0.2168,0.3149-0.4004,0.5127-0.5537
				c0.1982-0.1533,0.4053-0.2793,0.6211-0.3779c0.2163-0.0996,0.439-0.1709,0.6685-0.2158s0.4473-0.0684,0.6548-0.0684
				c0.4946,0,0.9468,0.084,1.3564,0.25c0.4097,0.167,0.7627,0.3984,1.0601,0.6953c0.2969,0.2969,0.5283,0.6484,0.6953,1.0527
				c0.166,0.4053,0.2495,0.8467,0.2495,1.3232c0,0.4775-0.0835,0.918-0.2495,1.3232c-0.167,0.4053-0.3984,0.7559-0.6953,1.0527
				c-0.2974,0.2969-0.6504,0.5293-1.0601,0.6953c-0.4097,0.167-0.8618,0.25-1.3564,0.25c-0.2075,0-0.4253-0.0225-0.6548-0.0674
				s-0.4521-0.1172-0.6685-0.2158c-0.2158-0.0996-0.4229-0.2256-0.6211-0.3779c-0.1978-0.1533-0.3691-0.3379-0.5127-0.5537h-0.0273
				V301h-0.8906V290.7939z M528.7539,297.8408c0-0.3506-0.0562-0.6797-0.1685-0.9854c-0.1128-0.3057-0.2725-0.5713-0.4795-0.7969
				c-0.207-0.2246-0.4565-0.4023-0.749-0.5332c-0.2925-0.1299-0.6235-0.1953-0.9922-0.1953c-0.3691,0-0.707,0.0654-1.0127,0.1953
				c-0.3062,0.1309-0.5718,0.3086-0.7964,0.5332c-0.2251,0.2256-0.4009,0.4912-0.5264,0.7969
				c-0.1265,0.3057-0.1895,0.6348-0.1895,0.9854c0,0.3516,0.063,0.6797,0.1895,0.9854c0.1255,0.3066,0.3013,0.5723,0.5264,0.7969
				c0.2246,0.2246,0.4902,0.4033,0.7964,0.5332c0.3057,0.1309,0.6436,0.1953,1.0127,0.1953c0.3687,0,0.6997-0.0645,0.9922-0.1953
				c0.2925-0.1299,0.542-0.3086,0.749-0.5332s0.3667-0.4902,0.4795-0.7969C528.6978,298.5205,528.7539,298.1924,528.7539,297.8408z"
				/>
			<path fill="#00ADEF" d="M533.5869,299.9062l1.9307-5.2246h1.0801l-3.1592,7.9658c-0.189,0.4854-0.4297,0.8721-0.7222,1.1602
				s-0.7134,0.4326-1.2622,0.4326c-0.1348,0-0.2725-0.0049-0.4116-0.0137c-0.1396-0.0088-0.2769-0.0361-0.4121-0.0811l0.0947-0.8643
				c0.189,0.0996,0.4141,0.1484,0.6748,0.1484c0.3149,0,0.5625-0.0986,0.7427-0.2969s0.3374-0.4766,0.4727-0.8369l0.459-1.2148
				l-2.5923-6.3994h1.1206L533.5869,299.9062z"/>
		</g>
		<g>
			<path fill="#00ADEF" d="M461.2681,49.8516c0,0.1895-0.0674,0.3447-0.2026,0.4658c-0.1348,0.1211-0.2832,0.1826-0.4453,0.1826
				s-0.3105-0.0615-0.4458-0.1826c-0.1348-0.1211-0.2021-0.2764-0.2021-0.4658c0-0.1885,0.0674-0.3438,0.2021-0.4658
				c0.1353-0.1211,0.2837-0.1826,0.4458-0.1826s0.3105,0.0615,0.4453,0.1826C461.2007,49.5078,461.2681,49.6631,461.2681,49.8516z
				 M461.0654,58.5996h-0.8911v-6.3184h0.8911V58.5996z"/>
			<path fill="#00ADEF" d="M464.062,52.2812c0.0181,0.1719,0.0293,0.3398,0.0342,0.5068c0.0044,0.166,0.0063,0.335,0.0063,0.5059
				h0.0273c0.0986-0.1709,0.2246-0.3281,0.3779-0.4727c0.1528-0.1436,0.3237-0.2676,0.5127-0.3711
				c0.1895-0.1035,0.3896-0.1846,0.6011-0.2432c0.2114-0.0576,0.4204-0.0879,0.6274-0.0879c0.8101,0,1.4087,0.2148,1.7959,0.6416
				c0.3867,0.4277,0.5806,1.0371,0.5806,1.8291v4.0098h-0.8911v-3.4961c0-0.7021-0.1216-1.2402-0.3647-1.6133
				c-0.2427-0.374-0.6929-0.5605-1.3501-0.5605c-0.0449,0-0.1709,0.0176-0.3779,0.0537s-0.4253,0.1348-0.6548,0.2969
				s-0.4341,0.4053-0.6143,0.7295s-0.27,0.7744-0.27,1.3496v3.2402h-0.8906v-4.9277c0-0.1709-0.0068-0.3867-0.0205-0.6475
				c-0.0132-0.2617-0.0293-0.5088-0.0474-0.7432H464.062z"/>
			<path fill="#00ADEF" d="M473.6611,53.0918h-1.4985v5.5078h-0.8911v-5.5078h-1.3364v-0.8105h1.3364v-1.7275
				c0-0.8369,0.1934-1.4336,0.5806-1.7891c0.3867-0.3555,0.8999-0.5332,1.5391-0.5332c0.126,0,0.2544,0.0088,0.3848,0.0273
				c0.1304,0.0176,0.2588,0.04,0.3848,0.0674l-0.1621,0.8096c-0.1079-0.0264-0.2207-0.0488-0.3374-0.0674
				c-0.1172-0.0176-0.2344-0.0264-0.3511-0.0264c-0.2432,0-0.4409,0.04-0.5938,0.1211c-0.1533,0.0811-0.27,0.1953-0.3511,0.3447
				c-0.0811,0.1484-0.1353,0.3213-0.1621,0.5195s-0.0405,0.4092-0.0405,0.6338v1.6201h1.4985V53.0918z"/>
			<path fill="#00ADEF" d="M481.0991,55.4404c0,0.4775-0.083,0.918-0.2495,1.3232c-0.167,0.4053-0.3984,0.7559-0.6953,1.0527
				s-0.6504,0.5293-1.0601,0.6953c-0.4097,0.167-0.8618,0.25-1.3564,0.25c-0.4863,0-0.9341-0.083-1.3433-0.25
				c-0.4097-0.166-0.7627-0.3984-1.0601-0.6953c-0.2969-0.2969-0.5288-0.6475-0.6948-1.0527c-0.167-0.4053-0.25-0.8457-0.25-1.3232
				c0-0.4766,0.083-0.918,0.25-1.3232c0.166-0.4043,0.3979-0.7559,0.6948-1.0527c0.2974-0.2969,0.6504-0.5283,1.0601-0.6953
				c0.4092-0.166,0.8569-0.25,1.3433-0.25c0.4946,0,0.9468,0.084,1.3564,0.25c0.4097,0.167,0.7632,0.3984,1.0601,0.6953
				s0.5283,0.6484,0.6953,1.0527C481.0161,54.5225,481.0991,54.9639,481.0991,55.4404z M480.1274,55.4404
				c0-0.3506-0.0566-0.6797-0.1689-0.9854c-0.1128-0.3057-0.2725-0.5713-0.4795-0.7969c-0.207-0.2246-0.4565-0.4023-0.749-0.5332
				c-0.2925-0.1299-0.6235-0.1953-0.9922-0.1953c-0.3691,0-0.7002,0.0654-0.9922,0.1953c-0.293,0.1309-0.54,0.3086-0.7427,0.5332
				c-0.2026,0.2256-0.3599,0.4912-0.4727,0.7969c-0.1123,0.3057-0.1685,0.6348-0.1685,0.9854c0,0.3516,0.0562,0.6797,0.1685,0.9854
				c0.1128,0.3066,0.27,0.5723,0.4727,0.7969s0.4497,0.4033,0.7427,0.5332c0.292,0.1309,0.623,0.1953,0.9922,0.1953
				c0.3687,0,0.6997-0.0645,0.9922-0.1953c0.2925-0.1299,0.542-0.3086,0.749-0.5332s0.3667-0.4902,0.4795-0.7969
				C480.0708,56.1201,480.1274,55.792,480.1274,55.4404z"/>
			<path fill="#00ADEF" d="M482.8135,54.2529c0-0.2793-0.0068-0.5625-0.02-0.8506c-0.0137-0.2881-0.0249-0.6621-0.0337-1.1211
				h0.8774v1.1748h0.0269c0.063-0.1709,0.1528-0.335,0.27-0.4932c0.1167-0.1572,0.2588-0.2988,0.4253-0.4248
				s0.3599-0.2275,0.5806-0.3037c0.2202-0.0762,0.4702-0.1152,0.749-0.1152c0.252,0,0.4727,0.0273,0.6616,0.0811l-0.1753,0.8779
				c-0.1172-0.0449-0.2886-0.0674-0.5132-0.0674c-0.3423,0-0.6348,0.0654-0.8774,0.1953c-0.2432,0.1309-0.4458,0.2969-0.6074,0.5
				c-0.1621,0.2021-0.2817,0.4209-0.3579,0.6543c-0.0767,0.2344-0.1147,0.459-0.1147,0.6748v3.5645h-0.8911V54.2529z"/>
			<path fill="#00ADEF" d="M487.4438,53.6855c0-0.2334-0.0068-0.4678-0.0205-0.7021c-0.0132-0.2334-0.0293-0.4678-0.0474-0.7021
				h0.9585v0.959h0.0273c0.2158-0.3691,0.5151-0.6484,0.8975-0.8369c0.3828-0.1895,0.7627-0.2842,1.1411-0.2842
				c0.1704,0,0.353,0.0186,0.5464,0.0547s0.3804,0.1006,0.5605,0.1953c0.1797,0.0947,0.3486,0.2275,0.5063,0.3984
				c0.1572,0.1709,0.29,0.3916,0.3979,0.6611c0.1802-0.4043,0.4658-0.7236,0.8574-0.958s0.7983-0.3516,1.2217-0.3516
				c0.8101,0,1.4082,0.2148,1.7954,0.6416c0.3867,0.4277,0.5806,1.0371,0.5806,1.8291v4.0098h-0.8911v-3.6855
				c0-0.6387-0.1123-1.1289-0.3374-1.4717c-0.2251-0.3418-0.6436-0.5127-1.2554-0.5127c-0.333,0-0.6123,0.0654-0.8369,0.1953
				c-0.2251,0.1309-0.4077,0.3037-0.5469,0.5205c-0.1396,0.2158-0.2412,0.4609-0.3037,0.7354
				c-0.063,0.2744-0.0947,0.5605-0.0947,0.8574v3.3613h-0.8911v-3.6855c0-0.6387-0.1123-1.1289-0.3374-1.4717
				c-0.2251-0.3418-0.6436-0.5127-1.2554-0.5127c-0.0542,0-0.1777,0.0176-0.3711,0.0537c-0.1938,0.0361-0.394,0.1348-0.6011,0.2969
				s-0.3936,0.4053-0.5601,0.7295s-0.25,0.7744-0.25,1.3496v3.2402h-0.8906V53.6855z"/>
			<path fill="#00ADEF" d="M502.2935,53.7803c-0.1348-0.2607-0.3149-0.4678-0.54-0.6211s-0.4995-0.2295-0.8232-0.2295
				c-0.1533,0-0.3086,0.0176-0.4658,0.0537c-0.1577,0.0361-0.2993,0.0928-0.4253,0.1689s-0.2275,0.1738-0.3037,0.29
				c-0.0767,0.1172-0.1147,0.2617-0.1147,0.4326c0,0.2969,0.1035,0.5127,0.3105,0.6475s0.5176,0.252,0.9316,0.3516l0.9043,0.2158
				c0.4409,0.0986,0.8076,0.2988,1.1001,0.6006s0.439,0.6777,0.439,1.127c0,0.3428-0.0698,0.6367-0.2095,0.8848
				c-0.1396,0.2471-0.3237,0.4502-0.5532,0.6074s-0.4927,0.2725-0.79,0.3438c-0.2969,0.0723-0.5986,0.1084-0.9043,0.1084
				c-0.4858,0-0.9385-0.0928-1.3569-0.2773c-0.4185-0.1836-0.7759-0.501-1.0732-0.9512l0.7695-0.5264
				c0.1802,0.2881,0.4072,0.5176,0.6821,0.6885c0.2744,0.1709,0.6006,0.2559,0.9785,0.2559c0.1802,0,0.3599-0.0195,0.54-0.0605
				c0.1797-0.04,0.3394-0.1035,0.479-0.1885c0.1396-0.0859,0.252-0.1963,0.3379-0.3311c0.0854-0.1348,0.1279-0.292,0.1279-0.4727
				c0-0.3145-0.1167-0.542-0.3511-0.6816c-0.2339-0.1396-0.5176-0.25-0.8501-0.3311l-0.8643-0.2021
				c-0.1079-0.0273-0.2544-0.0723-0.4385-0.1348c-0.1846-0.0635-0.3647-0.1572-0.54-0.2842c-0.1758-0.125-0.3267-0.29-0.4526-0.4922
				s-0.189-0.4521-0.189-0.749c0-0.3242,0.0654-0.6074,0.1958-0.8506s0.3062-0.4414,0.5269-0.5947
				c0.2202-0.1523,0.4697-0.2676,0.749-0.3438c0.2788-0.0762,0.5669-0.1152,0.8643-0.1152c0.4404,0,0.8501,0.0859,1.228,0.2568
				c0.3784,0.1709,0.6704,0.4639,0.8779,0.8779L502.2935,53.7803z"/>
		</g>
		<g>
			<path fill="#00ADEF" d="M682.542,58.5996h-0.8906v-1.0527h-0.0273c-0.1436,0.2158-0.3154,0.4004-0.5127,0.5537
				c-0.1982,0.1523-0.4053,0.2783-0.6211,0.3779c-0.2158,0.0986-0.4385,0.1709-0.668,0.2158s-0.4482,0.0674-0.6553,0.0674
				c-0.4951,0-0.9473-0.083-1.3564-0.25c-0.4102-0.166-0.7627-0.3984-1.0596-0.6953s-0.5293-0.6475-0.6953-1.0527
				c-0.167-0.4053-0.25-0.8457-0.25-1.3232c0-0.4766,0.083-0.918,0.25-1.3232c0.166-0.4043,0.3984-0.7559,0.6953-1.0527
				s0.6494-0.5283,1.0596-0.6953c0.4092-0.166,0.8613-0.25,1.3564-0.25c0.207,0,0.4258,0.0234,0.6553,0.0684
				s0.4521,0.1162,0.668,0.2158c0.2158,0.0986,0.4229,0.2246,0.6211,0.3779c0.1973,0.1533,0.3691,0.3369,0.5127,0.5537h0.0273
				v-4.9414h0.8906V58.5996z M676.7773,55.4404c0,0.3516,0.0566,0.6797,0.1689,0.9854c0.1123,0.3066,0.2725,0.5723,0.4795,0.7969
				s0.4561,0.4033,0.749,0.5332c0.292,0.1309,0.623,0.1953,0.9922,0.1953c0.3604,0,0.6953-0.0645,1.0059-0.1953
				c0.3105-0.1299,0.5781-0.3086,0.8037-0.5332c0.2246-0.2246,0.4004-0.4902,0.5264-0.7969
				c0.126-0.3057,0.1885-0.6338,0.1885-0.9854c0-0.3506-0.0625-0.6797-0.1885-0.9854s-0.3018-0.5713-0.5264-0.7969
				c-0.2256-0.2246-0.4932-0.4023-0.8037-0.5332c-0.3105-0.1299-0.6455-0.1953-1.0059-0.1953c-0.3691,0-0.7002,0.0654-0.9922,0.1953
				c-0.293,0.1309-0.542,0.3086-0.749,0.5332c-0.207,0.2256-0.3672,0.4912-0.4795,0.7969S676.7773,55.0898,676.7773,55.4404z"/>
			<path fill="#00ADEF" d="M684.5801,54.2529c0-0.2793-0.0068-0.5625-0.0205-0.8506c-0.0127-0.2881-0.0244-0.6621-0.0332-1.1211
				h0.877v1.1748h0.0273c0.0625-0.1709,0.1533-0.335,0.2695-0.4932c0.1172-0.1572,0.2588-0.2988,0.4258-0.4248
				c0.166-0.126,0.3594-0.2275,0.5801-0.3037s0.4707-0.1152,0.75-0.1152c0.252,0,0.4717,0.0273,0.6611,0.0811l-0.1758,0.8779
				c-0.1172-0.0449-0.2881-0.0674-0.5127-0.0674c-0.3418,0-0.6348,0.0654-0.8779,0.1953c-0.2422,0.1309-0.4453,0.2969-0.6074,0.5
				c-0.1621,0.2021-0.2812,0.4209-0.3574,0.6543c-0.0762,0.2344-0.1152,0.459-0.1152,0.6748v3.5645h-0.8906V54.2529z"/>
			<path fill="#00ADEF" d="M690.2637,49.8516c0,0.1895-0.0674,0.3447-0.2021,0.4658S689.7783,50.5,689.6162,50.5
				s-0.3105-0.0615-0.4453-0.1826c-0.1357-0.1211-0.2031-0.2764-0.2031-0.4658c0-0.1885,0.0674-0.3438,0.2031-0.4658
				c0.1348-0.1211,0.2832-0.1826,0.4453-0.1826s0.3105,0.0615,0.4453,0.1826C690.1963,49.5078,690.2637,49.6631,690.2637,49.8516z
				 M690.0615,58.5996h-0.8906v-6.3184h0.8906V58.5996z"/>
			<path fill="#00ADEF" d="M694.9883,58.5996h-0.999l-2.5645-6.3184h1.0527l2.0244,5.3193h0.0273l2.0117-5.3193h1.0127
				L694.9883,58.5996z"/>
			<path fill="#00ADEF" d="M699.335,55.6836c0.0273,0.3154,0.1035,0.6123,0.2295,0.8906c0.126,0.2793,0.293,0.5205,0.5,0.7227
				s0.4453,0.3623,0.7148,0.4795c0.2705,0.1172,0.5625,0.1748,0.8779,0.1748c0.4766,0,0.8887-0.1094,1.2354-0.3301
				s0.6094-0.4746,0.79-0.7627l0.6885,0.5664c-0.3779,0.4775-0.7949,0.8193-1.249,1.0264c-0.4551,0.207-0.9434,0.3105-1.4648,0.3105
				c-0.4678,0-0.9023-0.083-1.3027-0.25c-0.4004-0.166-0.7451-0.3984-1.0332-0.6953s-0.5146-0.6475-0.6816-1.0527
				c-0.166-0.4053-0.249-0.8457-0.249-1.3232c0-0.4766,0.0801-0.918,0.2422-1.3232c0.1621-0.4043,0.3877-0.7559,0.6758-1.0527
				c0.2871-0.2969,0.625-0.5283,1.0117-0.6953c0.3877-0.166,0.8057-0.25,1.2559-0.25c0.4766,0,0.9043,0.0859,1.2822,0.2568
				s0.6953,0.3984,0.9521,0.6816c0.2568,0.2842,0.4521,0.6172,0.5869,0.999c0.1348,0.3828,0.2031,0.79,0.2031,1.2217v0.4053H699.335
				z M703.6279,54.9551c0-0.6035-0.1797-1.0918-0.54-1.4648c-0.3594-0.374-0.8633-0.5605-1.5117-0.5605
				c-0.2881,0-0.5674,0.0566-0.8369,0.1689c-0.2705,0.1123-0.5059,0.2627-0.709,0.4521c-0.2021,0.1885-0.3643,0.4053-0.4854,0.6475
				c-0.1221,0.2432-0.1826,0.4951-0.1826,0.7568H703.6279z"/>
			<path fill="#00ADEF" d="M709.5693,53.7803c-0.1357-0.2607-0.3154-0.4678-0.54-0.6211c-0.2256-0.1533-0.5-0.2295-0.8242-0.2295
				c-0.1523,0-0.3076,0.0176-0.4648,0.0537c-0.1582,0.0361-0.2998,0.0928-0.4258,0.1689s-0.2275,0.1738-0.3037,0.29
				c-0.0762,0.1172-0.1143,0.2617-0.1143,0.4326c0,0.2969,0.1025,0.5127,0.3096,0.6475s0.5176,0.252,0.9316,0.3516l0.9053,0.2158
				c0.4404,0.0986,0.8076,0.2988,1.0996,0.6006c0.293,0.3018,0.4385,0.6777,0.4385,1.127c0,0.3428-0.0693,0.6367-0.209,0.8848
				c-0.1396,0.2471-0.3242,0.4502-0.5537,0.6074s-0.4922,0.2725-0.7891,0.3438c-0.2969,0.0723-0.5986,0.1084-0.9043,0.1084
				c-0.4863,0-0.9385-0.0928-1.3574-0.2773c-0.418-0.1836-0.7764-0.501-1.0732-0.9512l0.7695-0.5264
				c0.1797,0.2881,0.4072,0.5176,0.6816,0.6885s0.6006,0.2559,0.9795,0.2559c0.1797,0,0.3594-0.0195,0.5391-0.0605
				c0.1807-0.04,0.3398-0.1035,0.4795-0.1885c0.1396-0.0859,0.252-0.1963,0.3379-0.3311c0.085-0.1348,0.1279-0.292,0.1279-0.4727
				c0-0.3145-0.1172-0.542-0.3506-0.6816c-0.2344-0.1396-0.5176-0.25-0.8506-0.3311l-0.8643-0.2021
				c-0.1084-0.0273-0.2539-0.0723-0.4385-0.1348c-0.1846-0.0635-0.3643-0.1572-0.54-0.2842c-0.1758-0.125-0.3262-0.29-0.4521-0.4922
				s-0.1895-0.4521-0.1895-0.749c0-0.3242,0.0654-0.6074,0.1963-0.8506c0.1299-0.2432,0.3057-0.4414,0.5264-0.5947
				c0.2207-0.1523,0.4697-0.2676,0.749-0.3438s0.5674-0.1152,0.8643-0.1152c0.4404,0,0.8506,0.0859,1.2285,0.2568
				s0.6699,0.4639,0.877,0.8779L709.5693,53.7803z"/>
		</g>
		<g>
			<path fill="#00ADEF" d="M677.0215,297.126v-0.1621c0-1.0889-0.54-1.6338-1.6201-1.6338c-0.7383,0-1.3818,0.248-1.9307,0.7422
				l-0.54-0.6338c0.5938-0.6123,1.4844-0.9189,2.6729-0.9189c0.3057,0,0.6006,0.0459,0.8838,0.1357
				c0.2842,0.0898,0.5293,0.2275,0.7363,0.4111c0.207,0.1846,0.373,0.417,0.499,0.6953c0.126,0.2793,0.1895,0.6123,0.1895,0.999
				v2.8213c0,0.2432,0.0107,0.498,0.0332,0.7637c0.0225,0.2646,0.0479,0.4834,0.0752,0.6543h-0.8643
				c-0.0273-0.1533-0.0479-0.3193-0.0605-0.499c-0.0137-0.1807-0.0205-0.3555-0.0205-0.5273h-0.0273
				c-0.2607,0.4238-0.5693,0.7275-0.9248,0.9111c-0.3555,0.1846-0.7891,0.2773-1.3027,0.2773c-0.2793,0-0.5488-0.0381-0.8096-0.1152
				c-0.2617-0.0762-0.4932-0.1934-0.6953-0.3506c-0.2031-0.1572-0.3643-0.3506-0.4863-0.5801
				c-0.1211-0.2295-0.1816-0.498-0.1816-0.8037c0-0.5127,0.1318-0.916,0.3975-1.208c0.2656-0.293,0.5986-0.5107,0.999-0.6553
				c0.4004-0.1436,0.8281-0.2334,1.2832-0.2695c0.4541-0.0361,0.8701-0.0537,1.248-0.0537H677.0215z M676.5625,297.8545
				c-0.2256,0-0.5068,0.0117-0.8438,0.0342c-0.3379,0.0225-0.6621,0.0762-0.9727,0.1611c-0.3105,0.0859-0.5762,0.2188-0.7959,0.3984
				c-0.2207,0.1807-0.3311,0.4277-0.3311,0.7432c0,0.207,0.043,0.3848,0.1279,0.5332c0.0859,0.1484,0.2002,0.2695,0.3447,0.3643
				c0.1436,0.0947,0.3037,0.1621,0.4785,0.2021c0.1758,0.041,0.3535,0.0605,0.5342,0.0605c0.3232,0,0.6045-0.0537,0.8438-0.1611
				c0.2383-0.1084,0.4385-0.2549,0.6006-0.4395s0.2812-0.4004,0.3574-0.6475c0.0762-0.248,0.1152-0.5107,0.1152-0.79v-0.459
				H676.5625z"/>
			<path fill="#00ADEF" d="M682.9209,295.4922h-1.499V301h-0.8906v-5.5078h-1.3359v-0.8105h1.3359v-1.7275
				c0-0.8369,0.1934-1.4336,0.5811-1.7891c0.3867-0.3555,0.8994-0.5332,1.5381-0.5332c0.126,0,0.2549,0.0088,0.3848,0.0273
				c0.1309,0.0176,0.2588,0.04,0.3848,0.0674l-0.1611,0.8096c-0.1084-0.0264-0.2207-0.0488-0.3379-0.0674
				c-0.1172-0.0176-0.2344-0.0264-0.3506-0.0264c-0.2432,0-0.4414,0.04-0.5947,0.1211s-0.2695,0.1953-0.3506,0.3447
				c-0.0811,0.1484-0.1348,0.3213-0.1621,0.5195s-0.041,0.4092-0.041,0.6338v1.6201h1.499V295.4922z"/>
			<path fill="#00ADEF" d="M686.6738,295.4922h-1.499V301h-0.8906v-5.5078h-1.3359v-0.8105h1.3359v-1.7275
				c0-0.8369,0.1934-1.4336,0.5811-1.7891c0.3867-0.3555,0.8994-0.5332,1.5381-0.5332c0.126,0,0.2549,0.0088,0.3848,0.0273
				c0.1309,0.0176,0.2588,0.04,0.3848,0.0674l-0.1611,0.8096c-0.1084-0.0264-0.2207-0.0488-0.3379-0.0674
				c-0.1172-0.0176-0.2344-0.0264-0.3506-0.0264c-0.2432,0-0.4414,0.04-0.5947,0.1211s-0.2695,0.1953-0.3506,0.3447
				c-0.0811,0.1484-0.1348,0.3213-0.1621,0.5195s-0.041,0.4092-0.041,0.6338v1.6201h1.499V295.4922z"/>
			<path fill="#00ADEF" d="M688.3467,298.084c0.0273,0.3154,0.1035,0.6123,0.2295,0.8906c0.126,0.2793,0.293,0.5205,0.5,0.7227
				s0.4453,0.3623,0.7148,0.4795c0.2705,0.1172,0.5625,0.1748,0.8779,0.1748c0.4766,0,0.8887-0.1094,1.2354-0.3301
				s0.6094-0.4746,0.79-0.7627l0.6885,0.5664c-0.3779,0.4775-0.7949,0.8193-1.249,1.0264c-0.4551,0.207-0.9434,0.3105-1.4648,0.3105
				c-0.4678,0-0.9023-0.083-1.3027-0.25c-0.4004-0.166-0.7451-0.3984-1.0332-0.6953s-0.5146-0.6475-0.6816-1.0527
				c-0.166-0.4053-0.249-0.8457-0.249-1.3232c0-0.4766,0.0801-0.918,0.2422-1.3232c0.1621-0.4043,0.3877-0.7559,0.6758-1.0527
				c0.2871-0.2969,0.625-0.5283,1.0117-0.6953c0.3877-0.166,0.8057-0.25,1.2559-0.25c0.4766,0,0.9043,0.0859,1.2822,0.2568
				s0.6953,0.3984,0.9521,0.6816c0.2568,0.2842,0.4521,0.6172,0.5869,0.999c0.1348,0.3828,0.2031,0.79,0.2031,1.2217v0.4053
				H688.3467z M692.6396,297.3555c0-0.6035-0.1797-1.0918-0.54-1.4648c-0.3594-0.374-0.8633-0.5605-1.5117-0.5605
				c-0.2881,0-0.5674,0.0566-0.8369,0.1689c-0.2705,0.1123-0.5059,0.2627-0.709,0.4521c-0.2021,0.1885-0.3643,0.4053-0.4854,0.6475
				c-0.1221,0.2432-0.1826,0.4951-0.1826,0.7568H692.6396z"/>
			<path fill="#00ADEF" d="M699.8359,296.167c-0.1533-0.2344-0.3662-0.4316-0.6406-0.5938
				c-0.2754-0.1621-0.5879-0.2432-0.9385-0.2432c-0.3691-0.0088-0.7002,0.0498-0.9922,0.1758
				c-0.293,0.126-0.542,0.3018-0.749,0.5264c-0.208,0.2246-0.3652,0.4922-0.4727,0.8027c-0.1084,0.3105-0.1621,0.6465-0.1621,1.0059
				c0,0.3604,0.0537,0.6953,0.1621,1.0059c0.1074,0.3105,0.2646,0.5781,0.4727,0.8037c0.207,0.2246,0.4561,0.4004,0.749,0.5264
				c0.292,0.126,0.623,0.1846,0.9922,0.1748c0.3506,0,0.6631-0.0801,0.9385-0.2422c0.2744-0.1621,0.4873-0.3604,0.6406-0.5947
				l0.7295,0.5537c-0.3154,0.3691-0.6709,0.6416-1.0664,0.8164c-0.3965,0.1758-0.8105,0.2686-1.2422,0.2773
				c-0.5127,0.0088-0.9766-0.0703-1.3906-0.2363s-0.7676-0.3984-1.0596-0.6953c-0.293-0.2969-0.5156-0.6504-0.668-1.0596
				c-0.1533-0.4092-0.2295-0.8525-0.2295-1.3301c0-0.4766,0.0762-0.9199,0.2295-1.3291c0.1523-0.4102,0.375-0.7637,0.668-1.0605
				c0.292-0.2969,0.6455-0.5283,1.0596-0.6953c0.4141-0.166,0.8779-0.2451,1.3906-0.2363c0.4316,0.0098,0.8457,0.1016,1.2422,0.2773
				c0.3955,0.1758,0.751,0.4473,1.0664,0.8164L699.8359,296.167z"/>
			<path fill="#00ADEF" d="M705.0068,295.4922h-1.8232v3.7256c0,0.2344,0.0225,0.4258,0.0684,0.5742
				c0.0449,0.1484,0.1074,0.2627,0.1885,0.3438s0.1777,0.1377,0.29,0.1689s0.2363,0.0469,0.3721,0.0469
				c0.1523,0,0.3096-0.0215,0.4717-0.0674c0.1621-0.0449,0.3105-0.1035,0.4463-0.1748l0.04,0.8232
				c-0.333,0.1523-0.7334,0.2295-1.2012,0.2295c-0.1709,0-0.3496-0.0225-0.5332-0.0674c-0.1846-0.0449-0.3535-0.1309-0.5068-0.2568
				s-0.2793-0.2969-0.3779-0.5127s-0.1484-0.5-0.1484-0.8506v-3.9824h-1.3359v-0.8105h1.3359v-1.7812h0.8906v1.7812h1.8232V295.4922
				z"/>
			<path fill="#00ADEF" d="M709.5693,296.1807c-0.1357-0.2607-0.3154-0.4678-0.54-0.6211c-0.2256-0.1533-0.5-0.2295-0.8242-0.2295
				c-0.1523,0-0.3076,0.0176-0.4648,0.0537c-0.1582,0.0361-0.2998,0.0928-0.4258,0.1689s-0.2275,0.1738-0.3037,0.29
				c-0.0762,0.1172-0.1143,0.2617-0.1143,0.4326c0,0.2969,0.1025,0.5127,0.3096,0.6475s0.5176,0.252,0.9316,0.3516l0.9053,0.2158
				c0.4404,0.0986,0.8076,0.2988,1.0996,0.6006c0.293,0.3018,0.4385,0.6777,0.4385,1.127c0,0.3428-0.0693,0.6367-0.209,0.8848
				c-0.1396,0.2471-0.3242,0.4502-0.5537,0.6074s-0.4922,0.2725-0.7891,0.3438c-0.2969,0.0723-0.5986,0.1084-0.9043,0.1084
				c-0.4863,0-0.9385-0.0928-1.3574-0.2773c-0.418-0.1836-0.7764-0.501-1.0732-0.9512l0.7695-0.5264
				c0.1797,0.2881,0.4072,0.5176,0.6816,0.6885s0.6006,0.2559,0.9795,0.2559c0.1797,0,0.3594-0.0195,0.5391-0.0605
				c0.1807-0.04,0.3398-0.1035,0.4795-0.1885c0.1396-0.0859,0.252-0.1963,0.3379-0.3311c0.085-0.1348,0.1279-0.292,0.1279-0.4727
				c0-0.3145-0.1172-0.542-0.3506-0.6816c-0.2344-0.1396-0.5176-0.25-0.8506-0.3311l-0.8643-0.2021
				c-0.1084-0.0273-0.2539-0.0723-0.4385-0.1348c-0.1846-0.0635-0.3643-0.1572-0.54-0.2842c-0.1758-0.125-0.3262-0.29-0.4521-0.4922
				s-0.1895-0.4521-0.1895-0.749c0-0.3242,0.0654-0.6074,0.1963-0.8506c0.1299-0.2432,0.3057-0.4414,0.5264-0.5947
				c0.2207-0.1523,0.4697-0.2676,0.749-0.3438s0.5674-0.1152,0.8643-0.1152c0.4404,0,0.8506,0.0859,1.2285,0.2568
				s0.6699,0.4639,0.877,0.8779L709.5693,296.1807z"/>
		</g>
		<g>
			<path fill="#231F20" d="M534.2407,81.3018c-0.2075-0.252-0.4614-0.4453-0.7627-0.5801
				c-0.3018-0.1348-0.6504-0.2031-1.0464-0.2031s-0.7627,0.0771-1.1001,0.2295c-0.3379,0.1533-0.6304,0.3672-0.8779,0.6416
				s-0.4409,0.6006-0.5801,0.9785c-0.1396,0.3779-0.2095,0.7881-0.2095,1.2285c0,0.4502,0.0698,0.8623,0.2095,1.2354
				c0.1392,0.374,0.3306,0.6982,0.5737,0.9727c0.2427,0.2744,0.5283,0.4883,0.8569,0.6406
				c0.3286,0.1533,0.6816,0.2295,1.0601,0.2295c0.4316,0,0.8145-0.0898,1.1475-0.2695c0.3325-0.1807,0.6074-0.4326,0.8232-0.7559
				l1.7549,1.3086c-0.4048,0.5674-0.918,0.9863-1.5386,1.2559c-0.6211,0.2705-1.2603,0.4053-1.917,0.4053
				c-0.7476,0-1.436-0.1172-2.0659-0.3516c-0.6299-0.2334-1.1743-0.5684-1.6333-1.0049s-0.8169-0.9658-1.0732-1.5869
				s-0.3848-1.3135-0.3848-2.0791c0-0.7646,0.1284-1.458,0.3848-2.0791c0.2563-0.6201,0.6143-1.1494,1.0732-1.5859
				s1.0034-0.7715,1.6333-1.0059c0.6299-0.2334,1.3184-0.3506,2.0659-0.3506c0.27,0,0.5508,0.0244,0.8438,0.0742
				c0.292,0.0498,0.5801,0.1279,0.8638,0.2363c0.2837,0.1074,0.5557,0.252,0.8169,0.4316c0.2607,0.1807,0.4946,0.4004,0.7017,0.6611
				L534.2407,81.3018z"/>
			<path fill="#231F20" d="M536.7383,85.0957c0-0.5225,0.0942-0.9941,0.2832-1.418c0.189-0.4229,0.4478-0.7852,0.7764-1.0869
				c0.3286-0.3008,0.7153-0.5332,1.1611-0.6953c0.4453-0.1611,0.9199-0.2422,1.4243-0.2422c0.5039,0,0.9785,0.0811,1.4243,0.2422
				c0.4453,0.1621,0.832,0.3945,1.1606,0.6953c0.3286,0.3018,0.5874,0.6641,0.7764,1.0869c0.189,0.4238,0.2837,0.8955,0.2837,1.418
				c0,0.5215-0.0947,0.9941-0.2837,1.417c-0.189,0.4238-0.4478,0.7852-0.7764,1.0869s-0.7153,0.5332-1.1606,0.6953
				c-0.4458,0.1621-0.9204,0.2432-1.4243,0.2432c-0.5044,0-0.979-0.0811-1.4243-0.2432c-0.4458-0.1621-0.8325-0.3936-1.1611-0.6953
				s-0.5874-0.6631-0.7764-1.0869C536.8325,86.0898,536.7383,85.6172,536.7383,85.0957z M538.7632,85.0957
				c0,0.4951,0.1416,0.8955,0.4253,1.2012c0.2832,0.3066,0.6816,0.459,1.1948,0.459c0.5127,0,0.9111-0.1523,1.1943-0.459
				c0.2837-0.3057,0.4253-0.7061,0.4253-1.2012s-0.1416-0.8955-0.4253-1.2021c-0.2832-0.3057-0.6816-0.459-1.1943-0.459
				c-0.5132,0-0.9116,0.1533-1.1948,0.459C538.9048,84.2002,538.7632,84.6006,538.7632,85.0957z"/>
			<path fill="#231F20" d="M545.2158,81.8154h1.9443v0.8906h0.0269c0.063-0.126,0.1528-0.252,0.27-0.3779
				c0.1167-0.126,0.2563-0.2383,0.4185-0.3379c0.1621-0.0986,0.3462-0.1797,0.5537-0.2432
				c0.2065-0.0625,0.4316-0.0938,0.6748-0.0938c0.5132,0,0.9268,0.0781,1.2422,0.2363c0.3149,0.1572,0.5601,0.375,0.7354,0.6543
				c0.1758,0.2793,0.2949,0.6074,0.3579,0.9854s0.0947,0.7881,0.0947,1.2285v3.6182h-2.0254v-3.2129
				c0-0.1895-0.0063-0.3848-0.02-0.5869c-0.0137-0.2031-0.0542-0.3896-0.1216-0.5605s-0.1709-0.3105-0.3105-0.4189
				c-0.1396-0.1074-0.3398-0.1621-0.6006-0.1621c-0.2612,0-0.4727,0.0479-0.6348,0.1426c-0.1616,0.0938-0.2856,0.2207-0.3711,0.3779
				s-0.1416,0.335-0.1689,0.5332c-0.0269,0.1982-0.04,0.4043-0.04,0.6211v3.2666h-2.0254V81.8154z"/>
			<path fill="#231F20" d="M557.4326,83.4346h-1.7812v2.1875c0,0.1797,0.0088,0.3438,0.0264,0.4922
				c0.0186,0.1494,0.0586,0.2773,0.1221,0.3848c0.0625,0.1084,0.1592,0.1914,0.29,0.25c0.1299,0.0586,0.3037,0.0879,0.5195,0.0879
				c0.1084,0,0.25-0.0107,0.4258-0.0332c0.1748-0.0225,0.3076-0.0752,0.3975-0.1553v1.6875
				c-0.2246,0.0801-0.459,0.1348-0.7012,0.1611c-0.2432,0.0273-0.4824,0.041-0.7158,0.041c-0.3418,0-0.6572-0.0361-0.9453-0.1084
				c-0.2881-0.0713-0.54-0.1865-0.7559-0.3438s-0.3848-0.3623-0.5059-0.6143c-0.1221-0.252-0.1826-0.5586-0.1826-0.918v-3.1191
				h-1.2959v-1.6191h1.2959v-1.9443h2.0254v1.9443h1.7812V83.4346z"/>
			<path fill="#231F20" d="M558.46,81.8154h2.0244v1.0527h0.0273c0.2158-0.4053,0.4727-0.709,0.7695-0.9111
				c0.2969-0.2031,0.6699-0.3037,1.1201-0.3037c0.1172,0,0.2344,0.0039,0.3516,0.0127c0.1162,0.0098,0.2246,0.0273,0.3232,0.0547
				v1.8496c-0.1436-0.0449-0.2852-0.0791-0.4248-0.1016s-0.2861-0.0342-0.4385-0.0342c-0.3877,0-0.6934,0.0547-0.918,0.1621
				c-0.2256,0.1084-0.3984,0.2588-0.5205,0.4521c-0.1211,0.1943-0.2002,0.4258-0.2354,0.6953
				c-0.0361,0.2705-0.0547,0.5674-0.0547,0.8916v2.7402H558.46V81.8154z"/>
			<path fill="#231F20" d="M563.4678,85.0957c0-0.5225,0.0947-0.9941,0.2832-1.418c0.1895-0.4229,0.4473-0.7852,0.7764-1.0869
				c0.3281-0.3008,0.7158-0.5332,1.1611-0.6953c0.4453-0.1611,0.9199-0.2422,1.4238-0.2422s0.9795,0.0811,1.4248,0.2422
				c0.4453,0.1621,0.832,0.3945,1.1611,0.6953c0.3281,0.3018,0.5869,0.6641,0.7754,1.0869c0.1895,0.4238,0.2842,0.8955,0.2842,1.418
				c0,0.5215-0.0947,0.9941-0.2842,1.417c-0.1885,0.4238-0.4473,0.7852-0.7754,1.0869c-0.3291,0.3018-0.7158,0.5332-1.1611,0.6953
				s-0.9209,0.2432-1.4248,0.2432s-0.9785-0.0811-1.4238-0.2432s-0.833-0.3936-1.1611-0.6953
				c-0.3291-0.3018-0.5869-0.6631-0.7764-1.0869C563.5625,86.0898,563.4678,85.6172,563.4678,85.0957z M565.4922,85.0957
				c0,0.4951,0.1426,0.8955,0.4258,1.2012c0.2832,0.3066,0.6816,0.459,1.1943,0.459c0.5137,0,0.9111-0.1523,1.1953-0.459
				c0.2832-0.3057,0.4248-0.7061,0.4248-1.2012s-0.1416-0.8955-0.4248-1.2021c-0.2842-0.3057-0.6816-0.459-1.1953-0.459
				c-0.5127,0-0.9111,0.1533-1.1943,0.459C565.6348,84.2002,565.4922,84.6006,565.4922,85.0957z"/>
			<path fill="#231F20" d="M571.9727,78.1699h2.0254V88.376h-2.0254V78.1699z"/>
			<path fill="#231F20" d="M582.8535,78.8184h1.7422l4.1572,9.5576h-2.376l-0.8232-2.0254h-3.7119l-0.7969,2.0254h-2.3223
				L582.8535,78.8184z M583.6641,81.5986l-1.1611,2.9707h2.335L583.6641,81.5986z"/>
			<path fill="#231F20" d="M589.4814,78.1699h2.0254V88.376h-2.0254V78.1699z"/>
			<path fill="#231F20" d="M599.8496,87.8223c0,1.2422-0.3125,2.1846-0.9385,2.8281s-1.5771,0.9658-2.8555,0.9658
				c-0.585,0-1.1602-0.0654-1.7275-0.1963c-0.5674-0.1299-1.0889-0.3848-1.5664-0.7627l1.1211-1.6738
				c0.3145,0.2607,0.6455,0.4678,0.9922,0.6211c0.3457,0.1533,0.7266,0.2295,1.1406,0.2295c0.6211,0,1.0771-0.1504,1.3701-0.4521
				c0.292-0.3018,0.4385-0.6865,0.4385-1.1543v-0.6348h-0.0264c-0.2344,0.3154-0.5244,0.5381-0.8711,0.668
				c-0.3467,0.1309-0.6729,0.1963-0.9785,0.1963c-0.4863,0-0.9277-0.083-1.3232-0.25c-0.3965-0.166-0.7354-0.4004-1.0195-0.7021
				c-0.2832-0.3008-0.502-0.6592-0.6543-1.0732c-0.1533-0.4131-0.2295-0.8682-0.2295-1.3633c0-0.4316,0.0693-0.8545,0.209-1.2686
				s0.3379-0.7783,0.5938-1.0938c0.2568-0.3154,0.5693-0.5693,0.9385-0.7627s0.7871-0.29,1.2559-0.29
				c0.2881,0,0.5508,0.0312,0.7891,0.0938c0.2393,0.0635,0.4531,0.1445,0.6416,0.2432c0.1895,0.0996,0.3516,0.21,0.4863,0.3311
				s0.2432,0.2412,0.3242,0.3574h0.0264v-0.8633h1.8633V87.8223z M594.7461,85.0547c0,0.2158,0.041,0.4209,0.1221,0.6143
				c0.0811,0.1943,0.1953,0.3652,0.3438,0.5137s0.3193,0.2676,0.5137,0.3574c0.1934,0.0898,0.4072,0.1348,0.6406,0.1348
				c0.2256,0,0.4365-0.0449,0.6348-0.1348s0.3711-0.209,0.5195-0.3574s0.2637-0.3193,0.3447-0.5137
				c0.0811-0.1934,0.1211-0.3984,0.1211-0.6143s-0.04-0.4199-0.1211-0.6143c-0.0811-0.1934-0.1963-0.3643-0.3447-0.5127
				s-0.3213-0.2676-0.5195-0.3574s-0.4092-0.1357-0.6348-0.1357c-0.2334,0-0.4473,0.0459-0.6406,0.1357
				c-0.1943,0.0898-0.3652,0.209-0.5137,0.3574s-0.2627,0.3193-0.3438,0.5127C594.7871,84.6348,594.7461,84.8389,594.7461,85.0547z"
				/>
			<path fill="#231F20" d="M601.2266,85.0957c0-0.5225,0.0947-0.9941,0.2832-1.418c0.1895-0.4229,0.4473-0.7852,0.7764-1.0869
				c0.3281-0.3008,0.7158-0.5332,1.1611-0.6953c0.4453-0.1611,0.9199-0.2422,1.4238-0.2422s0.9795,0.0811,1.4248,0.2422
				c0.4453,0.1621,0.832,0.3945,1.1611,0.6953c0.3281,0.3018,0.5869,0.6641,0.7754,1.0869c0.1895,0.4238,0.2842,0.8955,0.2842,1.418
				c0,0.5215-0.0947,0.9941-0.2842,1.417c-0.1885,0.4238-0.4473,0.7852-0.7754,1.0869c-0.3291,0.3018-0.7158,0.5332-1.1611,0.6953
				s-0.9209,0.2432-1.4248,0.2432s-0.9785-0.0811-1.4238-0.2432s-0.833-0.3936-1.1611-0.6953
				c-0.3291-0.3018-0.5869-0.6631-0.7764-1.0869C601.3213,86.0898,601.2266,85.6172,601.2266,85.0957z M603.251,85.0957
				c0,0.4951,0.1426,0.8955,0.4258,1.2012c0.2832,0.3066,0.6816,0.459,1.1943,0.459c0.5137,0,0.9111-0.1523,1.1953-0.459
				c0.2832-0.3057,0.4248-0.7061,0.4248-1.2012s-0.1416-0.8955-0.4248-1.2021c-0.2842-0.3057-0.6816-0.459-1.1953-0.459
				c-0.5127,0-0.9111,0.1533-1.1943,0.459C603.3936,84.2002,603.251,84.6006,603.251,85.0957z"/>
			<path fill="#231F20" d="M609.7051,81.8154h2.0244v1.0527h0.0273c0.2158-0.4053,0.4727-0.709,0.7695-0.9111
				c0.2969-0.2031,0.6699-0.3037,1.1201-0.3037c0.1172,0,0.2344,0.0039,0.3516,0.0127c0.1162,0.0098,0.2246,0.0273,0.3232,0.0547
				v1.8496c-0.1436-0.0449-0.2852-0.0791-0.4248-0.1016s-0.2861-0.0342-0.4385-0.0342c-0.3877,0-0.6934,0.0547-0.918,0.1621
				c-0.2256,0.1084-0.3984,0.2588-0.5205,0.4521c-0.1211,0.1943-0.2002,0.4258-0.2354,0.6953
				c-0.0361,0.2705-0.0547,0.5674-0.0547,0.8916v2.7402h-2.0244V81.8154z"/>
			<path fill="#231F20" d="M615.0635,79.749c0-0.3232,0.1152-0.6006,0.3447-0.8301s0.5059-0.3438,0.8301-0.3438
				s0.6006,0.1143,0.8301,0.3438s0.3447,0.5068,0.3447,0.8301c0,0.3242-0.1152,0.6016-0.3447,0.8311s-0.5059,0.3438-0.8301,0.3438
				s-0.6006-0.1143-0.8301-0.3438S615.0635,80.0732,615.0635,79.749z M615.2256,81.8154h2.0254v6.5605h-2.0254V81.8154z"/>
			<path fill="#231F20" d="M623.1768,83.4346h-1.7812v2.1875c0,0.1797,0.0088,0.3438,0.0264,0.4922
				c0.0186,0.1494,0.0586,0.2773,0.1221,0.3848c0.0625,0.1084,0.1592,0.1914,0.29,0.25c0.1299,0.0586,0.3037,0.0879,0.5195,0.0879
				c0.1084,0,0.25-0.0107,0.4258-0.0332c0.1748-0.0225,0.3076-0.0752,0.3975-0.1553v1.6875
				c-0.2246,0.0801-0.459,0.1348-0.7012,0.1611c-0.2432,0.0273-0.4824,0.041-0.7158,0.041c-0.3418,0-0.6572-0.0361-0.9453-0.1084
				c-0.2881-0.0713-0.54-0.1865-0.7559-0.3438s-0.3848-0.3623-0.5059-0.6143c-0.1221-0.252-0.1826-0.5586-0.1826-0.918v-3.1191
				h-1.2959v-1.6191h1.2959v-1.9443h2.0254v1.9443h1.7812V83.4346z"/>
			<path fill="#231F20" d="M626.2275,78.1699v4.5361h0.0273c0.0449-0.126,0.1211-0.252,0.2295-0.3779s0.2383-0.2383,0.3916-0.3379
				c0.1523-0.0986,0.333-0.1797,0.54-0.2432c0.207-0.0625,0.4316-0.0938,0.6748-0.0938c0.5127,0,0.9268,0.0781,1.2422,0.2363
				c0.3145,0.1572,0.5596,0.375,0.7354,0.6543s0.2949,0.6074,0.3584,0.9854c0.0625,0.3779,0.0938,0.7881,0.0938,1.2285v3.6182
				h-2.0244v-3.2129c0-0.1895-0.0068-0.3848-0.0205-0.5869c-0.0137-0.2031-0.0537-0.3896-0.1211-0.5605
				c-0.0684-0.1709-0.1719-0.3105-0.3105-0.4189c-0.1396-0.1074-0.3398-0.1621-0.6016-0.1621c-0.2607,0-0.4717,0.0479-0.6338,0.1426
				c-0.1621,0.0938-0.2861,0.2207-0.3711,0.3779c-0.0859,0.1572-0.1426,0.335-0.1689,0.5332
				c-0.0273,0.1982-0.041,0.4043-0.041,0.6211v3.2666h-2.0244V78.1699H626.2275z"/>
			<path fill="#231F20" d="M631.9521,81.8154h1.9434v0.8906h0.0273c0.0625-0.126,0.1533-0.252,0.2695-0.3779
				c0.1172-0.126,0.2568-0.2383,0.4189-0.3379c0.1621-0.0986,0.3467-0.1797,0.5537-0.2432c0.207-0.0625,0.4316-0.0938,0.6748-0.0938
				c0.459,0,0.8662,0.0938,1.2217,0.2832c0.3555,0.1885,0.623,0.4863,0.8037,0.8906c0.2334-0.4229,0.5166-0.7236,0.8496-0.9043
				c0.333-0.1797,0.7432-0.2695,1.2285-0.2695c0.4414,0,0.8125,0.0742,1.1143,0.2227s0.54,0.3506,0.7158,0.6074
				c0.1748,0.2559,0.3008,0.5576,0.3779,0.9043c0.0762,0.3467,0.1143,0.7178,0.1143,1.1143v3.874h-2.0244v-3.8203
				c0-0.3057-0.0654-0.5693-0.1963-0.79s-0.3623-0.3311-0.6953-0.3311c-0.2344,0-0.4297,0.0391-0.5869,0.1152
				s-0.2832,0.1826-0.3779,0.3174s-0.1621,0.292-0.2031,0.4727c-0.04,0.1797-0.0605,0.3691-0.0605,0.5664v3.4697h-2.0244v-3.4697
				c0-0.1162-0.0049-0.2607-0.0137-0.4316s-0.041-0.333-0.0947-0.4863c-0.0537-0.1523-0.1416-0.2832-0.2637-0.3916
				c-0.1211-0.1074-0.2988-0.1621-0.5332-0.1621c-0.2607,0-0.4717,0.0479-0.6338,0.1426c-0.1621,0.0938-0.2861,0.2207-0.3711,0.3779
				c-0.0859,0.1572-0.1426,0.335-0.1689,0.5332c-0.0273,0.1982-0.041,0.4043-0.041,0.6211v3.2666h-2.0244V81.8154z"/>
		</g>
		<g>
			<path fill="#231F20" d="M681.0557,204.8184h2.1055v9.5576h-2.1055V204.8184z"/>
			<path fill="#231F20" d="M684.8223,207.8154h1.9434v0.8906h0.0273c0.0625-0.126,0.1533-0.252,0.2695-0.3779
				c0.1172-0.126,0.2568-0.2383,0.4189-0.3379c0.1621-0.0986,0.3467-0.1797,0.5537-0.2432c0.207-0.0625,0.4316-0.0938,0.6748-0.0938
				c0.5127,0,0.9268,0.0781,1.2422,0.2363c0.3145,0.1572,0.5596,0.375,0.7354,0.6543s0.2949,0.6074,0.3584,0.9854
				c0.0625,0.3779,0.0938,0.7881,0.0938,1.2285v3.6182h-2.0244v-3.2129c0-0.1895-0.0068-0.3848-0.0205-0.5869
				c-0.0137-0.2031-0.0537-0.3896-0.1211-0.5605c-0.0684-0.1709-0.1719-0.3105-0.3105-0.4189
				c-0.1396-0.1074-0.3398-0.1621-0.6016-0.1621c-0.2607,0-0.4717,0.0479-0.6338,0.1426c-0.1621,0.0938-0.2861,0.2207-0.3711,0.3779
				c-0.0859,0.1572-0.1426,0.335-0.1689,0.5332c-0.0273,0.1982-0.041,0.4043-0.041,0.6211v3.2666h-2.0244V207.8154z"/>
			<path fill="#231F20" d="M696.2832,209.7451c-0.2969-0.3682-0.6885-0.5527-1.1738-0.5527c-0.1719,0-0.3379,0.04-0.5,0.1211
				s-0.2432,0.2207-0.2432,0.4189c0,0.1611,0.083,0.2812,0.25,0.3574c0.166,0.0762,0.3779,0.1436,0.6348,0.2021
				c0.2559,0.0586,0.5303,0.1221,0.8232,0.1895c0.292,0.0674,0.5674,0.1729,0.8232,0.3174
				c0.2568,0.1436,0.4678,0.3398,0.6348,0.5869c0.166,0.248,0.25,0.5781,0.25,0.9922c0,0.4229-0.0928,0.7715-0.2773,1.0459
				c-0.1846,0.2754-0.4209,0.4951-0.708,0.6621c-0.2881,0.166-0.6123,0.2832-0.9727,0.3506
				c-0.3594,0.0674-0.7148,0.1016-1.0664,0.1016c-0.459,0-0.9229-0.0654-1.3906-0.1963c-0.4678-0.1299-0.8633-0.3613-1.1875-0.6943
				l1.2285-1.3643c0.1885,0.2344,0.3984,0.4121,0.6279,0.5332c0.2295,0.1221,0.4971,0.1826,0.8027,0.1826
				c0.2344,0,0.4453-0.0342,0.6348-0.1016c0.1885-0.0674,0.2832-0.1904,0.2832-0.3711c0-0.1709-0.083-0.2988-0.25-0.3848
				c-0.166-0.085-0.3779-0.1572-0.6338-0.2158c-0.2568-0.0586-0.5312-0.1211-0.8242-0.1895
				c-0.292-0.0674-0.5664-0.168-0.8232-0.3037c-0.2568-0.1348-0.4678-0.3262-0.6348-0.5732c-0.166-0.248-0.249-0.5781-0.249-0.9922
				c0-0.3867,0.0781-0.7197,0.2363-0.999c0.1572-0.2793,0.3643-0.5088,0.6201-0.6885c0.2568-0.1797,0.5518-0.3125,0.8848-0.3984
				s0.6699-0.1279,1.0127-0.1279c0.4316,0,0.8682,0.0625,1.3096,0.1885c0.4404,0.126,0.8145,0.3516,1.1201,0.6748L696.2832,209.7451
				z"/>
			<path fill="#231F20" d="M705.1387,214.376h-1.9434v-0.8906h-0.0273c-0.0723,0.126-0.1641,0.252-0.2764,0.3779
				c-0.1133,0.126-0.25,0.2383-0.4121,0.3369c-0.1621,0.0996-0.3467,0.1807-0.5537,0.2432s-0.4316,0.0947-0.6748,0.0947
				c-0.5127,0-0.9297-0.0791-1.249-0.2363s-0.5664-0.376-0.7422-0.6543c-0.1758-0.2793-0.293-0.6084-0.3506-0.9863
				c-0.0596-0.3779-0.0879-0.7871-0.0879-1.2285v-3.6172h2.0244v3.2129c0,0.1885,0.0068,0.3848,0.0205,0.5869
				s0.0537,0.3896,0.1211,0.5605c0.0684,0.1709,0.1709,0.3105,0.3105,0.418c0.1396,0.1084,0.3398,0.1621,0.6016,0.1621
				c0.2607,0,0.4717-0.0469,0.6338-0.1416s0.2861-0.2207,0.3711-0.3779c0.0859-0.1572,0.1426-0.335,0.1689-0.5332
				c0.0273-0.1982,0.041-0.4053,0.041-0.6211v-3.2666h2.0244V214.376z"/>
			<path fill="#231F20" d="M706.5967,204.1699h2.0254v10.2061h-2.0254V204.1699z"/>
			<path fill="#231F20" d="M709.9443,205.749c0-0.3232,0.1152-0.6006,0.3447-0.8301s0.5059-0.3438,0.8301-0.3438
				s0.6006,0.1143,0.8301,0.3438s0.3447,0.5068,0.3447,0.8301c0,0.3242-0.1152,0.6016-0.3447,0.8311s-0.5059,0.3438-0.8301,0.3438
				s-0.6006-0.1143-0.8301-0.3438S709.9443,206.0732,709.9443,205.749z M710.1064,207.8154h2.0254v6.5605h-2.0254V207.8154z"/>
			<path fill="#231F20" d="M713.5898,207.8154h1.9434v0.8906h0.0273c0.0625-0.126,0.1533-0.252,0.2695-0.3779
				c0.1172-0.126,0.2568-0.2383,0.4189-0.3379c0.1621-0.0986,0.3467-0.1797,0.5537-0.2432c0.207-0.0625,0.4316-0.0938,0.6748-0.0938
				c0.5127,0,0.9268,0.0781,1.2422,0.2363c0.3145,0.1572,0.5596,0.375,0.7354,0.6543s0.2949,0.6074,0.3584,0.9854
				c0.0625,0.3779,0.0938,0.7881,0.0938,1.2285v3.6182h-2.0244v-3.2129c0-0.1895-0.0068-0.3848-0.0205-0.5869
				c-0.0137-0.2031-0.0537-0.3896-0.1211-0.5605c-0.0684-0.1709-0.1719-0.3105-0.3105-0.4189
				c-0.1396-0.1074-0.3398-0.1621-0.6016-0.1621c-0.2607,0-0.4717,0.0479-0.6338,0.1426c-0.1621,0.0938-0.2861,0.2207-0.3711,0.3779
				c-0.0859,0.1572-0.1426,0.335-0.1689,0.5332c-0.0273,0.1982-0.041,0.4043-0.041,0.6211v3.2666h-2.0244V207.8154z"/>
			<path fill="#231F20" d="M725.5908,204.8184h3.1592c0.7646,0,1.4922,0.085,2.1807,0.2559s1.2891,0.4482,1.8018,0.8301
				c0.5137,0.3828,0.9199,0.8799,1.2217,1.4922s0.4521,1.3545,0.4521,2.2275c0,0.7744-0.1455,1.4561-0.4385,2.0449
				c-0.292,0.5898-0.6865,1.085-1.1807,1.4854c-0.4951,0.4004-1.0674,0.7041-1.7148,0.9111
				c-0.6484,0.207-1.3281,0.3105-2.0391,0.3105h-3.4424V204.8184z M727.6973,212.4316h1.0938c0.4854,0,0.9375-0.0488,1.3564-0.1484
				c0.418-0.0986,0.7803-0.2627,1.0869-0.4922c0.3057-0.2295,0.5469-0.5312,0.7217-0.9053c0.1758-0.373,0.2637-0.8301,0.2637-1.3701
				c0-0.4678-0.0879-0.875-0.2637-1.2217c-0.1748-0.3457-0.4111-0.6318-0.708-0.8574c-0.2979-0.2246-0.6465-0.3936-1.0469-0.5059
				s-0.8213-0.1689-1.2617-0.1689h-1.2422V212.4316z"/>
			<path fill="#231F20" d="M741.791,213.2422c-0.3242,0.4141-0.7344,0.7334-1.2285,0.958
				c-0.4951,0.2256-1.0088,0.3379-1.5391,0.3379c-0.5039,0-0.9785-0.0811-1.4248-0.2432c-0.4453-0.1621-0.832-0.3936-1.1611-0.6953
				c-0.3281-0.3018-0.5869-0.6631-0.7754-1.0869c-0.1895-0.4229-0.2842-0.8955-0.2842-1.417c0-0.5225,0.0947-0.9941,0.2842-1.418
				c0.1885-0.4229,0.4473-0.7852,0.7754-1.0869c0.3291-0.3008,0.7158-0.5332,1.1611-0.6953
				c0.4463-0.1611,0.9209-0.2422,1.4248-0.2422c0.4678,0,0.8926,0.0811,1.2754,0.2422c0.3828,0.1621,0.707,0.3945,0.9717,0.6953
				c0.2656,0.3018,0.4707,0.6641,0.6143,1.0869c0.1445,0.4238,0.2168,0.8955,0.2168,1.418v0.6338h-4.6982
				c0.0811,0.3877,0.2568,0.6953,0.5264,0.9248c0.2705,0.2295,0.6025,0.3447,0.999,0.3447c0.333,0,0.6143-0.0742,0.8438-0.2227
				s0.4297-0.3398,0.6006-0.5742L741.791,213.2422z M740.0762,210.3525c0.0088-0.3418-0.1035-0.6338-0.3379-0.877
				c-0.2334-0.2432-0.5352-0.3643-0.9043-0.3643c-0.2246,0-0.4229,0.0361-0.5938,0.1074c-0.1709,0.0723-0.3174,0.1641-0.4385,0.2773
				c-0.1221,0.1123-0.2158,0.2422-0.2842,0.3916c-0.0674,0.1484-0.1055,0.3037-0.1143,0.4648H740.0762z"/>
			<path fill="#231F20" d="M743.3564,204.1699h2.0254v10.2061h-2.0254V204.1699z"/>
			<path fill="#231F20" d="M746.7041,205.749c0-0.3232,0.1152-0.6006,0.3447-0.8301s0.5059-0.3438,0.8301-0.3438
				s0.6006,0.1143,0.8301,0.3438s0.3447,0.5068,0.3447,0.8301c0,0.3242-0.1152,0.6016-0.3447,0.8311s-0.5059,0.3438-0.8301,0.3438
				s-0.6006-0.1143-0.8301-0.3438S746.7041,206.0732,746.7041,205.749z M746.8662,207.8154h2.0254v6.5605h-2.0254V207.8154z"/>
			<path fill="#231F20" d="M749.6611,207.8154h2.1865l1.6602,4.4541h0.0273l1.5391-4.4541h2.0381l-2.5918,6.5605h-2.1465
				L749.6611,207.8154z"/>
			<path fill="#231F20" d="M764.0654,213.2422c-0.3242,0.4141-0.7344,0.7334-1.2285,0.958
				c-0.4951,0.2256-1.0088,0.3379-1.5391,0.3379c-0.5039,0-0.9785-0.0811-1.4248-0.2432c-0.4453-0.1621-0.832-0.3936-1.1611-0.6953
				c-0.3281-0.3018-0.5869-0.6631-0.7754-1.0869c-0.1895-0.4229-0.2842-0.8955-0.2842-1.417c0-0.5225,0.0947-0.9941,0.2842-1.418
				c0.1885-0.4229,0.4473-0.7852,0.7754-1.0869c0.3291-0.3008,0.7158-0.5332,1.1611-0.6953
				c0.4463-0.1611,0.9209-0.2422,1.4248-0.2422c0.4678,0,0.8926,0.0811,1.2754,0.2422c0.3828,0.1621,0.707,0.3945,0.9717,0.6953
				c0.2656,0.3018,0.4707,0.6641,0.6143,1.0869c0.1445,0.4238,0.2168,0.8955,0.2168,1.418v0.6338h-4.6982
				c0.0811,0.3877,0.2568,0.6953,0.5264,0.9248c0.2705,0.2295,0.6025,0.3447,0.999,0.3447c0.333,0,0.6143-0.0742,0.8438-0.2227
				s0.4297-0.3398,0.6006-0.5742L764.0654,213.2422z M762.3506,210.3525c0.0088-0.3418-0.1035-0.6338-0.3379-0.877
				c-0.2334-0.2432-0.5352-0.3643-0.9043-0.3643c-0.2246,0-0.4229,0.0361-0.5938,0.1074c-0.1709,0.0723-0.3174,0.1641-0.4385,0.2773
				c-0.1221,0.1123-0.2158,0.2422-0.2842,0.3916c-0.0674,0.1484-0.1055,0.3037-0.1143,0.4648H762.3506z"/>
			<path fill="#231F20" d="M765.6045,207.8154h2.0244v1.0527h0.0273c0.2158-0.4053,0.4727-0.709,0.7695-0.9111
				c0.2969-0.2031,0.6699-0.3037,1.1201-0.3037c0.1172,0,0.2344,0.0039,0.3516,0.0127c0.1162,0.0098,0.2246,0.0273,0.3232,0.0547
				v1.8496c-0.1436-0.0449-0.2852-0.0791-0.4248-0.1016s-0.2861-0.0342-0.4385-0.0342c-0.3877,0-0.6934,0.0547-0.918,0.1621
				c-0.2256,0.1084-0.3984,0.2588-0.5205,0.4521c-0.1211,0.1943-0.2002,0.4258-0.2354,0.6953
				c-0.0361,0.2705-0.0547,0.5674-0.0547,0.8916v2.7402h-2.0244V207.8154z"/>
			<path fill="#231F20" d="M774.8779,215.4424c-0.1348,0.3516-0.2656,0.6611-0.3916,0.9316
				c-0.126,0.2695-0.2852,0.4971-0.4785,0.6816c-0.1943,0.1846-0.4395,0.3242-0.7363,0.4189
				c-0.2969,0.0938-0.6885,0.1416-1.1738,0.1416c-0.5225,0-1.0264-0.0811-1.5127-0.2432l0.2705-1.6602
				c0.3057,0.1348,0.6211,0.2021,0.9453,0.2021c0.2246,0,0.4092-0.0254,0.5527-0.0742c0.1445-0.0498,0.2637-0.1221,0.3584-0.2158
				c0.0938-0.0947,0.1729-0.21,0.2363-0.3447c0.0625-0.1348,0.1299-0.292,0.2021-0.4727l0.1484-0.3779l-2.876-6.6143h2.1875
				l1.6875,4.333h0.0273l1.4443-4.333h2.0791L774.8779,215.4424z"/>
		</g>
		<g>
			<g>
				<path fill="none" stroke="#00ADEF" stroke-width="3" stroke-linecap="round" stroke-linejoin="round" d="M621,31h99
					c4.9502,0,9,4.0498,9,9v73.1123"/>
				<g>
					<polygon fill="#00ADEF" points="738.1113,111.8906 719.8887,111.8906 729,121 					"/>
				</g>
			</g>
		</g>
		<g>
			<g>
				<path fill="none" stroke="#00ADEF" stroke-width="3" stroke-linecap="round" stroke-linejoin="round" d="M441,121V40
					c0-4.9502,4.0498-9,9-9h91.1123"/>
				<g>
					<polygon fill="#00ADEF" points="539.8906,21.8887 539.8906,40.1113 549,31 					"/>
				</g>
			</g>
		</g>
		<g>
			<g>
				<path fill="none" stroke="#00ADEF" stroke-width="3" stroke-linecap="round" stroke-linejoin="round" d="M729,229v81
					c0,4.9502-4.0498,9-9,9h-91.1123"/>
				<g>
					<polygon fill="#00ADEF" points="630.1094,328.1113 630.1094,309.8887 621,319 					"/>
				</g>
			</g>
		</g>
		<g>
			<g>
				<path fill="none" stroke="#00ADEF" stroke-width="3" stroke-linecap="round" stroke-linejoin="round" d="M549,319h-99
					c-4.9502,0-9-4.0498-9-9v-73.1123"/>
				<g>
					<polygon fill="#00ADEF" points="431.8887,238.1094 450.1113,238.1094 441,229 					"/>
				</g>
			</g>
		</g>
	</g>
</g>
<g id="Figures">
</g>
</svg>
