<?xml version="1.0" encoding="utf-8"?>
<!-- Generator: Adobe Illustrator 16.0.0, SVG Export Plug-In . SVG Version: 6.00 Build 0)  -->
<!DOCTYPE svg PUBLIC "-//W3C//DTD SVG 1.1//EN" "http://www.w3.org/Graphics/SVG/1.1/DTD/svg11.dtd">
<svg version="1.1" id="Layer_1" xmlns="http://www.w3.org/2000/svg" xmlns:xlink="http://www.w3.org/1999/xlink" x="0px" y="0px"
	 width="1170px" height="130px" viewBox="0 0 1170 130" enable-background="new 0 0 1170 130" xml:space="preserve">
<rect x="365" opacity="0.1" fill="#00ADEF" width="440" height="110"/>
<g>
	<g>
		<line fill="none" stroke="#00ADEF" stroke-width="1.23" stroke-linejoin="round" x1="898.666" y1="55" x2="835" y2="55"/>
		<g>
			<polygon fill="#00ADEF" points="894.5908,49.9697 893.752,50.8706 898.1943,54.999 893.752,59.1284 894.5908,60.0293 900,54.999 
							"/>
		</g>
	</g>
</g>
<g>
	<g>
		<path fill="#00ADEF" d="M377.2798,96.7749v0.3154c0,1.4697,0.9302,1.9346,1.8149,1.9346c1.0952,0,1.9351-0.4648,1.9351-1.7549
			c0-2.3999-4.8599-2.1299-4.8599-5.3848c0-1.9199,1.3647-2.9399,3.1797-2.9399c1.98,0,3.0898,0.96,3,3.165h-1.4399
			c0.0151-1.1851-0.3599-1.9648-1.665-1.9648c-0.8247,0-1.6646,0.4199-1.6646,1.5898c0,2.3848,4.8594,2.04,4.8594,5.4746
			c0,2.2803-1.5747,3.0151-3.3594,3.0151c-3.1953,0.0298-3.1953-2.415-3.165-3.4502H377.2798z"/>
		<path fill="#00ADEF" d="M386.6997,98.5898h0.0298l1.8149-6.1646h1.335l-3.4346,10.4395h-1.2749l0.855-2.8647l-2.5649-7.5747
			h1.4248L386.6997,98.5898z"/>
		<path fill="#00ADEF" d="M393.3149,100.1499c-1.6353,0-2.6548-0.7197-2.6099-2.46h1.395c0,0.4351,0.0146,1.4551,1.2598,1.4551
			c0.7349,0,1.3052-0.375,1.3052-1.1548c0-1.3501-3.7803-1.3799-3.7803-3.645c0-0.7949,0.48-2.0698,2.6099-2.0698
			c1.3501,0,2.5054,0.645,2.3999,2.145h-1.3647c0.0151-0.7949-0.4048-1.2153-1.1851-1.2153c-0.6597,0-1.1699,0.3604-1.1699,1.02
			c0,1.335,3.7798,1.3052,3.7798,3.6147C395.9546,99.5049,394.8149,100.1499,393.3149,100.1499z"/>
		<path fill="#00ADEF" d="M397.8745,92.4253v-1.4551l1.23-0.5547v2.0098h1.6499v0.9302h-1.6499v4.6348c0,0.48,0,1.0947,1.125,1.0947
			c0.0898,0,0.2852-0.0298,0.5552-0.0601v0.9453c-0.4053,0.0298-0.8101,0.1196-1.2153,0.1196c-1.1699,0-1.6948-0.48-1.6948-1.3496
			v-5.3848h-1.2446v-0.9302H397.8745z"/>
		<path fill="#00ADEF" d="M403.1094,96.6104c0,2.1147,0.5703,2.5347,1.5303,2.5347c0.8398,0,1.2749-0.6748,1.3198-1.4399h1.3501
			c-0.0151,1.6802-1.0503,2.4448-2.6401,2.4448c-1.605,0-2.8799-0.48-2.8799-3.8247c0-2.2197,0.2549-4.0498,2.8799-4.0498
			c2.1597,0,2.6997,1.1851,2.6997,3.6899v0.645H403.1094z M406.0645,95.6802c0-2.2051-0.6152-2.4751-1.5151-2.4751
			c-0.7798,0-1.4248,0.375-1.4399,2.4751H406.0645z"/>
		<path fill="#00ADEF" d="M413.1294,100v-5.25c0-0.7646-0.21-1.4697-1.1997-1.4697c-0.375,0-0.8853,0.2251-1.0654,0.5098
			c-0.2246,0.375-0.2847,0.8252-0.2847,1.1104V100h-1.23v-6c0-0.5249-0.0303-1.0498-0.0752-1.5747h1.3052v0.9448h0.0298
			c0.3604-0.8096,1.0049-1.0947,1.8901-1.0947c0.6899,0,1.4849,0.2852,1.77,0.9751c0.4199-0.8101,1.1099-0.9751,1.7998-0.9751
			c0.7949,0,2.0698,0.1797,2.0698,1.9648V100h-1.23v-5.25c0-0.7646-0.21-1.4697-1.1997-1.4697
			c-0.4653,0-0.6001,0.0151-0.9302,0.2852c-0.3599,0.2998-0.4199,1.0498-0.4199,1.335V100H413.1294z"/>
	</g>
</g>
<g>
	<g>
		<path fill="#231F20" d="M561.3828,48.2705h4.0801c2.0698,0,2.8799,1.2598,2.8799,3.2397c0,1.23-0.3604,3.1802-3.0151,3.1802
			h-1.6797v4.4097h-2.2651V48.2705z M563.6479,53.0254h1.2598c0.6748,0,1.1401-0.7349,1.1401-1.4551
			c0-0.8848-0.2402-1.6348-1.2603-1.6348h-1.1396V53.0254z"/>
		<path fill="#231F20" d="M571.6128,51.5254v0.9751h0.0298c0.3901-0.8701,1.1099-1.125,1.9648-1.125v1.8896
			c-1.8599-0.1196-1.8896,0.96-1.8896,1.71v4.125h-2.1152v-7.5747H571.6128z"/>
		<path fill="#231F20" d="M574.418,55.2153c0-2.0698,0.2998-3.8398,3.0898-3.8398c2.7896,0,3.0898,1.77,3.0898,3.8398
			c0,2.3696-0.3604,4.0347-3.0898,4.0347C574.7778,59.25,574.418,57.585,574.418,55.2153z M578.4824,55.0952
			c0-1.5747-0.0747-2.3696-0.9746-2.3696s-0.9751,0.7949-0.9751,2.3696c0,2.3101,0.1948,2.8052,0.9751,2.8052
			C578.2876,57.9004,578.4824,57.4053,578.4824,55.0952z"/>
		<path fill="#231F20" d="M585.9526,54.2251c0-1.1245-0.2852-1.4995-0.9448-1.4995c-0.8999,0-0.9751,0.7949-0.9751,2.3696
			c0,2.3101,0.1948,2.8052,0.9751,2.8052c0.6597,0,0.9746-0.6001,0.9746-1.5903h2.1152c0,2.0552-1.1094,2.9399-3.0898,2.9399
			c-2.73,0-3.0898-1.665-3.0898-4.0347c0-2.0698,0.2998-3.8398,3.0898-3.8398c1.9492,0,3.0596,0.8701,3.0596,2.8496H585.9526z"/>
		<path fill="#231F20" d="M591.5479,55.6504c0,0.8999,0.0303,2.25,0.96,2.25c0.75,0,0.9004-0.7202,0.9004-1.3501h2.1445
			c-0.0303,0.8247-0.3008,1.5-0.8105,1.9648c-0.4941,0.4648-1.2441,0.7349-2.2344,0.7349c-2.7305,0-3.0898-1.665-3.0898-4.0347
			c0-2.0698,0.2998-3.8398,3.0898-3.8398c2.8496,0,3.1641,1.8447,3.0898,4.2749H591.5479z M593.4824,54.4653
			c0-0.7349,0.0303-1.7852-0.9746-1.7852c-0.9746,0-0.96,1.1401-0.96,1.7852H593.4824z"/>
		<path fill="#231F20" d="M598.7627,56.6704c-0.0146,0.3447,0,0.6748,0.1045,0.9146c0.1211,0.2402,0.3457,0.3604,0.7656,0.3604
			s0.7793-0.27,0.7793-0.7803c0-1.605-3.7188-1.2446-3.7188-3.6597c0-1.6348,1.6191-2.1299,2.9844-2.1299
			c1.4395,0,2.7441,0.6899,2.625,2.3247h-2.0703c0-0.5249-0.0596-0.8398-0.21-0.9746c-0.1348-0.1353-0.3154-0.165-0.54-0.165
			c-0.4648,0-0.7197,0.2998-0.7197,0.8096c0,1.2002,3.7197,1.1401,3.7197,3.5703c0,1.3198-1.0801,2.3096-2.835,2.3096
			c-1.8447,0-3.0752-0.4648-2.9541-2.5796H598.7627z"/>
		<path fill="#231F20" d="M605.4219,56.6704c-0.0146,0.3447,0,0.6748,0.1055,0.9146c0.1201,0.2402,0.3457,0.3604,0.7656,0.3604
			s0.7793-0.27,0.7793-0.7803c0-1.605-3.7197-1.2446-3.7197-3.6597c0-1.6348,1.6201-2.1299,2.9854-2.1299
			c1.4395,0,2.7441,0.6899,2.625,2.3247h-2.0703c0-0.5249-0.0605-0.8398-0.2109-0.9746c-0.1348-0.1353-0.3145-0.165-0.5391-0.165
			c-0.4648,0-0.7207,0.2998-0.7207,0.8096c0,1.2002,3.7207,1.1401,3.7207,3.5703c0,1.3198-1.0801,2.3096-2.8359,2.3096
			c-1.8438,0-3.0742-0.4648-2.9541-2.5796H605.4219z"/>
	</g>
</g>
<g>
	<g>
		<path fill="#231F20" d="M350.5249,59.1001V48.2705h2.2651v10.8296H350.5249z"/>
		<path fill="#231F20" d="M356.7051,52.2905h0.0298c0.21-0.3452,0.4648-0.5703,0.75-0.7051c0.2998-0.1499,0.645-0.21,1.0352-0.21
			c1.0049,0,1.8896,0.6001,1.8896,1.6499v6.0747h-2.1147v-5.2197c0-0.6748-0.1201-1.2002-0.7949-1.2002
			c-0.6753,0-0.7949,0.5254-0.7949,1.2002v5.2197h-2.1152v-7.5747h2.1152V52.2905z"/>
		<path fill="#231F20" d="M364.1001,51.5254v0.8398h0.0298c0.3901-0.7349,0.9751-0.9897,1.7852-0.9897
			c2.1895,0,2.1147,2.4297,2.1147,3.9897c0,1.5298,0.0601,3.8848-2.0698,3.8848c-0.7651,0-1.29-0.2251-1.7251-0.8701h-0.0298v3.9751
			h-2.1152V51.5254H364.1001z M365.96,55.2451c0-1.5146,0.0146-2.5649-0.8999-2.5649c-0.8701,0-0.855,1.0503-0.855,2.5649
			c0,1.9053,0.1348,2.7002,0.855,2.7002C365.8247,57.9453,365.96,57.1504,365.96,55.2451z"/>
		<path fill="#231F20" d="M373.2949,58.335h-0.0303c-0.21,0.3301-0.4497,0.5703-0.75,0.7051c-0.2998,0.1499-0.6299,0.21-1.0347,0.21
			c-1.0049,0-1.8901-0.6001-1.8901-1.6499v-6.0747h2.1152v5.25c0,0.6748,0.1196,1.1699,0.7949,1.1699
			c0.6748,0,0.7949-0.4951,0.7949-1.1699v-5.25h2.1147v6.0747c0,0.4951,0.0303,1.0049,0.0752,1.5h-2.1899V58.335z"/>
		<path fill="#231F20" d="M376.2349,51.5254h0.855v-1.1997l2.1152-0.9453v2.145h1.0947v1.3052h-1.0947v4.0498
			c0,0.5698-0.0151,0.9448,0.6748,0.9448c0.1348,0,0.27,0,0.375-0.0303v1.3052c-0.2852,0.0298-0.585,0.0752-1.0952,0.0752
			c-1.8296,0-2.0698-1.2153-2.0698-1.6802v-4.6646h-0.855V51.5254z"/>
	</g>
</g>
<g>
	<g>
		<path fill="#231F20" d="M785.8379,53.6855c0-2.8652,0-5.5952,3.7344-5.5952s3.7344,2.73,3.7344,5.5952
			c0,2.8345,0,5.5947-3.7344,5.5947S785.8379,56.52,785.8379,53.6855z M791.0117,53.6855c0-2.7749-0.1641-3.9751-1.4395-3.9751
			s-1.4395,1.2002-1.4395,3.9751c0,2.7744,0.1641,3.9746,1.4395,3.9746S791.0117,56.46,791.0117,53.6855z"/>
		<path fill="#231F20" d="M798.707,58.335h-0.0293c-0.2109,0.3301-0.4502,0.5703-0.75,0.7051
			c-0.3008,0.1499-0.6309,0.21-1.0352,0.21c-1.0049,0-1.8906-0.6001-1.8906-1.6499v-6.0747h2.1152v5.25
			c0,0.6748,0.1201,1.1699,0.7949,1.1699c0.6758,0,0.7949-0.4951,0.7949-1.1699v-5.25h2.1152v6.0747
			c0,0.4951,0.0303,1.0049,0.0752,1.5h-2.1904V58.335z"/>
		<path fill="#231F20" d="M801.6475,51.5254h0.8545v-1.1997l2.1152-0.9453v2.145h1.0957v1.3052h-1.0957v4.0498
			c0,0.5698-0.0146,0.9448,0.6758,0.9448c0.1348,0,0.2695,0,0.375-0.0303v1.3052c-0.2852,0.0298-0.5859,0.0752-1.0957,0.0752
			c-1.8301,0-2.0703-1.2153-2.0703-1.6802v-4.6646h-0.8545V51.5254z"/>
		<path fill="#231F20" d="M808.6826,51.5254v0.8398h0.0303c0.3896-0.7349,0.9746-0.9897,1.7852-0.9897
			c2.1895,0,2.1143,2.4297,2.1143,3.9897c0,1.5298,0.0596,3.8848-2.0693,3.8848c-0.7656,0-1.291-0.2251-1.7256-0.8701h-0.0303
			v3.9751h-2.1152V51.5254H808.6826z M810.543,55.2451c0-1.5146,0.0137-2.5649-0.9004-2.5649c-0.8701,0-0.8555,1.0503-0.8555,2.5649
			c0,1.9053,0.1348,2.7002,0.8555,2.7002C810.4072,57.9453,810.543,57.1504,810.543,55.2451z"/>
		<path fill="#231F20" d="M817.877,58.335h-0.0293c-0.2109,0.3301-0.4502,0.5703-0.75,0.7051
			c-0.3008,0.1499-0.6309,0.21-1.0352,0.21c-1.0049,0-1.8906-0.6001-1.8906-1.6499v-6.0747h2.1152v5.25
			c0,0.6748,0.1201,1.1699,0.7949,1.1699c0.6758,0,0.7949-0.4951,0.7949-1.1699v-5.25h2.1152v6.0747
			c0,0.4951,0.0303,1.0049,0.0752,1.5h-2.1904V58.335z"/>
		<path fill="#231F20" d="M820.8174,51.5254h0.8545v-1.1997l2.1152-0.9453v2.145h1.0957v1.3052h-1.0957v4.0498
			c0,0.5698-0.0146,0.9448,0.6758,0.9448c0.1348,0,0.2695,0,0.375-0.0303v1.3052c-0.2852,0.0298-0.5859,0.0752-1.0957,0.0752
			c-1.8301,0-2.0703-1.2153-2.0703-1.6802v-4.6646h-0.8545V51.5254z"/>
	</g>
</g>
<g>
	<g>
		<path fill="#231F20" d="M376.2148,127.5v-10.8296h5.5801v1.2002h-4.2002v3.4795h3.8999v1.2002h-3.8999v3.7495h4.29V127.5H376.2148
			z"/>
		<path fill="#231F20" d="M387.6899,127.5v-5.25c0-0.8096-0.2852-1.4697-1.335-1.4697c-1.3501,0-1.5449,1.2002-1.5449,2.2349V127.5
			h-1.23v-6c0-0.5249-0.0303-1.0498-0.0752-1.5747h1.3052v0.9751h0.0601c0.48-0.855,1.0498-1.125,2.0249-1.125
			c1.6196,0,2.0249,0.9751,2.0249,2.4746v5.25H387.6899z"/>
		<path fill="#231F20" d="M390.21,119.9253h1.3799l1.6948,6.4199h0.0303l1.8301-6.4199h1.2896l-2.3696,7.5747h-1.605
			L390.21,119.9253z"/>
		<path fill="#231F20" d="M397.6348,116.6704h1.3799v1.3198h-1.3799V116.6704z M398.9395,127.5h-1.23v-7.5747h1.23V127.5z"/>
		<path fill="#231F20" d="M402.3447,121.0654h0.0298c0.5103-1.1553,1.1401-1.29,2.3398-1.29v1.2749
			c-0.105-0.0151-0.2246-0.0298-0.3296-0.0449s-0.21-0.0303-0.3301-0.0303c-1.3652,0-1.71,1.0352-1.71,2.0552V127.5h-1.23v-7.5747
			h1.23V121.0654z"/>
		<path fill="#231F20" d="M405.8545,123.8252c0-2.2197,0.2549-4.0498,2.8799-4.0498c2.6245,0,2.8799,1.8301,2.8799,4.0498
			c0,3.3447-1.2749,3.8247-2.8799,3.8247S405.8545,127.1699,405.8545,123.8252z M410.3242,123.3003c0-2.0698-0.645-2.52-1.5898-2.52
			c-0.9453,0-1.5898,0.4502-1.5898,2.52c0,2.46,0.3149,3.3447,1.5898,3.3447S410.3242,125.7603,410.3242,123.3003z"/>
		<path fill="#231F20" d="M417.6743,127.5v-5.25c0-0.8096-0.2852-1.4697-1.335-1.4697c-1.3501,0-1.5449,1.2002-1.5449,2.2349V127.5
			h-1.23v-6c0-0.5249-0.0303-1.0498-0.0752-1.5747h1.3052v0.9751h0.0601c0.48-0.855,1.0498-1.125,2.0249-1.125
			c1.6196,0,2.0249,0.9751,2.0249,2.4746v5.25H417.6743z"/>
		<path fill="#231F20" d="M424.7842,127.5v-5.25c0-0.7646-0.21-1.4697-1.2002-1.4697c-0.3745,0-0.8848,0.2251-1.0649,0.5098
			c-0.2246,0.375-0.2847,0.8252-0.2847,1.1104V127.5h-1.23v-6c0-0.5249-0.0303-1.0498-0.0752-1.5747h1.3052v0.9448h0.0298
			c0.3599-0.8096,1.0049-1.0947,1.8901-1.0947c0.6899,0,1.4849,0.2852,1.77,0.9751c0.4199-0.8101,1.1099-0.9751,1.7998-0.9751
			c0.7949,0,2.0698,0.1797,2.0698,1.9648V127.5h-1.23v-5.25c0-0.7646-0.21-1.4697-1.1997-1.4697
			c-0.4653,0-0.6001,0.0151-0.9302,0.2852c-0.3599,0.2998-0.4199,1.0498-0.4199,1.335V127.5H424.7842z"/>
		<path fill="#231F20" d="M433.0942,124.1104c0,2.1147,0.5703,2.5347,1.5303,2.5347c0.8398,0,1.2749-0.6748,1.3198-1.4399h1.3496
			c-0.0146,1.6802-1.0498,2.4448-2.6396,2.4448c-1.605,0-2.8799-0.48-2.8799-3.8247c0-2.2197,0.2549-4.0498,2.8799-4.0498
			c2.1602,0,2.6997,1.1851,2.6997,3.6899v0.645H433.0942z M436.0493,123.1802c0-2.2051-0.6152-2.4751-1.5151-2.4751
			c-0.7798,0-1.4248,0.375-1.4399,2.4751H436.0493z"/>
		<path fill="#231F20" d="M443.5039,127.5v-5.25c0-0.8096-0.2842-1.4697-1.335-1.4697c-1.3496,0-1.5449,1.2002-1.5449,2.2349V127.5
			h-1.2295v-6c0-0.5249-0.0303-1.0498-0.0752-1.5747h1.3047v0.9751h0.0605c0.4795-0.855,1.0498-1.125,2.0244-1.125
			c1.6201,0,2.0254,0.9751,2.0254,2.4746v5.25H443.5039z"/>
		<path fill="#231F20" d="M447.0293,119.9253v-1.4551l1.2305-0.5547v2.0098h1.6494v0.9302h-1.6494v4.6348
			c0,0.48,0,1.0947,1.125,1.0947c0.0898,0,0.2842-0.0298,0.5547-0.0601v0.9453c-0.4053,0.0298-0.8105,0.1196-1.2148,0.1196
			c-1.1699,0-1.6953-0.48-1.6953-1.3496v-5.3848h-1.2451v-0.9302H447.0293z"/>
	</g>
</g>
<g>
	<g>
		<line fill="none" stroke="#00ADEF" stroke-width="1.23" stroke-linejoin="round" x1="390" y1="55" x2="548.666" y2="55"/>
		<g>
			<polygon fill="#00ADEF" points="544.5903,60.0303 543.7515,59.1294 548.1938,55.001 543.7515,50.8716 544.5903,49.9707 
				550,55.001 			"/>
		</g>
	</g>
</g>
<g>
	<g>
		<line fill="none" stroke="#00ADEF" stroke-width="1.23" stroke-linejoin="round" x1="270" y1="55" x2="338.666" y2="55"/>
		<g>
			<polygon fill="#00ADEF" points="334.5903,60.0303 333.7515,59.1294 338.1938,55.001 333.7515,50.8716 334.5903,49.9707 
				340,55.001 			"/>
		</g>
	</g>
</g>
<g>
	<g>
		<line fill="none" stroke="#00ADEF" stroke-width="1.23" stroke-linejoin="round" x1="620" y1="55" x2="773.666" y2="55"/>
		<g>
			<polygon fill="#00ADEF" points="769.5908,60.0303 768.752,59.1294 773.1943,55.001 768.752,50.8716 769.5908,49.9707 775,55.001 
							"/>
		</g>
	</g>
</g>
</svg>
