<svg width="128" height="128" viewBox="0 0 128 128" fill="none" xmlns="http://www.w3.org/2000/svg">
<rect width="128" height="128" fill="white"/>
<path d="M48 8H40V16H48V8Z" fill="#EB5757"/>
<path d="M56 8H48V16H56V8Z" fill="#EB5757"/>
<path d="M64 8H56V16H64V8Z" fill="#EB5757"/>
<path d="M72 8H64V16H72V8Z" fill="#EB5757"/>
<path d="M80 8H72V16H80V8Z" fill="#EB5757"/>
<path d="M40 16H32V24H40V16Z" fill="#EB5757"/>
<path d="M48 16H40V24H48V16Z" fill="#EB5757"/>
<path d="M56 16H48V24H56V16Z" fill="#EB5757"/>
<path d="M80 16H72V24H80V16Z" fill="#EB5757"/>
<path d="M88 16H80V24H88V16Z" fill="#EB5757"/>
<path d="M32 24H24V32H32V24Z" fill="#EB5757"/>
<path d="M40 24H32V32H40V24Z" fill="#EB5757"/>
<path d="M48 24H40V32H48V24Z" fill="#EB5757"/>
<path d="M56 24H48V32H56V24Z" fill="#EB5757"/>
<path d="M64 24H56V32H64V24Z" fill="#EB5757"/>
<path d="M88 24H80V32H88V24Z" fill="#EB5757"/>
<path d="M96 24H88V32H96V24Z" fill="#EB5757"/>
<path d="M32 32H24V40H32V32Z" fill="#EB5757"/>
<path d="M40 32H32V40H40V32Z" fill="#EB5757"/>
<path d="M48 32H40V40H48V32Z" fill="#EB5757"/>
<path d="M56 32H48V40H56V32Z" fill="#EB5757"/>
<path d="M64 32H56V40H64V32Z" fill="#EB5757"/>
<path d="M72 32H64V40H72V32Z" fill="#EB5757"/>
<path d="M88 32H80V40H88V32Z" fill="#EB5757"/>
<path d="M96 32H88V40H96V32Z" fill="#EB5757"/>
<path d="M32 40H24V48H32V40Z" fill="#EB5757"/>
<path d="M40 40H32V48H40V40Z" fill="#EB5757"/>
<path d="M48 40H40V48H48V40Z" fill="#EB5757"/>
<path d="M56 40H48V48H56V40Z" fill="#EB5757"/>
<path d="M64 40H56V48H64V40Z" fill="#EB5757"/>
<path d="M72 40H64V48H72V40Z" fill="#EB5757"/>
<path d="M80 40H72V48H80V40Z" fill="#EB5757"/>
<path d="M88 40H80V48H88V40Z" fill="#EB5757"/>
<path d="M96 40H88V48H96V40Z" fill="#EB5757"/>
<path d="M32 48H24V56H32V48Z" fill="#EB5757"/>
<path d="M40 48H32V56H40V48Z" fill="#EB5757"/>
<path d="M48 48H40V56H48V48Z" fill="#EB5757"/>
<path d="M56 48H48V56H56V48Z" fill="#EB5757"/>
<path d="M64 48H56V56H64V48Z" fill="#EB5757"/>
<path d="M72 48H64V56H72V48Z" fill="#EB5757"/>
<path d="M80 48H72V56H80V48Z" fill="#EB5757"/>
<path d="M96 48H88V56H96V48Z" fill="#EB5757"/>
<path d="M40 56H32V64H40V56Z" fill="#EB5757"/>
<path d="M48 56H40V64H48V56Z" fill="#EB5757"/>
<path d="M56 56H48V64H56V56Z" fill="#EB5757"/>
<path d="M64 56H56V64H64V56Z" fill="#EB5757"/>
<path d="M72 56H64V64H72V56Z" fill="#EB5757"/>
<path d="M80 56H72V64H80V56Z" fill="#EB5757"/>
<path d="M88 56H80V64H88V56Z" fill="#EB5757"/>
<path d="M48 64H40V72H48V64Z" fill="#EB5757"/>
<path d="M56 64H48V72H56V64Z" fill="#EB5757"/>
<path d="M64 64H56V72H64V64Z" fill="#EB5757"/>
<path d="M72 64H64V72H72V64Z" fill="#EB5757"/>
<path d="M80 64H72V72H80V64Z" fill="#EB5757"/>
<path d="M64 72H56V80H64V72Z" fill="#EB5757"/>
<path d="M56 80H48V88H56V80Z" fill="#EB5757"/>
<path d="M64 80H56V88H64V80Z" fill="#EB5757"/>
<path d="M72 80H64V88H72V80Z" fill="#EB5757"/>
<path d="M64 88H56V96H64V88Z" fill="black"/>
<path d="M72 96H64V104H72V96Z" fill="black"/>
<path d="M64 104H56V112H64V104Z" fill="black"/>
<path d="M56 112H48V120H56V112Z" fill="black"/>
<path d="M64 120H56V128H64V120Z" fill="black"/>
</svg>
