<svg width="128" height="128" viewBox="0 0 128 128" fill="none" xmlns="http://www.w3.org/2000/svg">
<rect width="128" height="128" fill="white"/>
<rect x="64" y="112" width="8" height="8" fill="black"/>
<rect x="64" y="8" width="8" height="8" fill="black"/>
<rect x="32" y="96" width="8" height="8" fill="#EB5757"/>
<rect x="32" y="16" width="8" height="8" fill="black"/>
<rect x="32" y="104" width="8" height="8" fill="black"/>
<rect x="32" y="24" width="8" height="8" fill="#EB5757"/>
<rect x="96" y="96" width="8" height="8" fill="black"/>
<rect x="96" y="24" width="8" height="8" fill="black"/>
<rect x="16" y="32" width="8" height="8" fill="black"/>
<rect x="16" y="80" width="8" height="8" fill="black"/>
<rect x="16" y="40" width="8" height="8" fill="black"/>
<rect x="16" y="88" width="8" height="8" fill="black"/>
<rect x="80" y="32" width="8" height="8" fill="#EB5757"/>
<rect x="80" y="16" width="8" height="8" fill="black"/>
<rect x="80" y="80" width="8" height="8" fill="#EB5757"/>
<rect x="80" y="40" width="8" height="8" fill="#EB5757"/>
<rect x="80" y="104" width="8" height="8" fill="black"/>
<rect x="80" y="88" width="8" height="8" fill="#EB5757"/>
<rect x="48" y="64" width="8" height="8" fill="#EB5757"/>
<rect x="48" y="48" width="8" height="8" fill="#EB5757"/>
<rect x="48" y="112" width="8" height="8" fill="black"/>
<rect x="48" y="8" width="8" height="8" fill="black"/>
<rect x="48" y="72" width="8" height="8" fill="#EB5757"/>
<rect x="48" y="56" width="8" height="8" fill="#EB5757"/>
<rect x="112" y="64" width="8" height="8" fill="black"/>
<rect x="112" y="48" width="8" height="8" fill="black"/>
<rect x="112" y="72" width="8" height="8" fill="black"/>
<rect x="112" y="56" width="8" height="8" fill="black"/>
<rect x="8" y="64" width="8" height="8" fill="black"/>
<rect x="8" y="48" width="8" height="8" fill="black"/>
<rect x="8" y="72" width="8" height="8" fill="black"/>
<rect x="8" y="56" width="8" height="8" fill="black"/>
<rect x="72" y="64" width="8" height="8" fill="#EB5757"/>
<rect x="72" y="48" width="8" height="8" fill="#EB5757"/>
<rect x="72" y="112" width="8" height="8" fill="black"/>
<rect x="72" y="8" width="8" height="8" fill="black"/>
<rect x="72" y="72" width="8" height="8" fill="#EB5757"/>
<rect x="72" y="56" width="8" height="8" fill="#EB5757"/>
<rect x="40" y="32" width="8" height="8" fill="#EB5757"/>
<rect x="40" y="16" width="8" height="8" fill="black"/>
<rect x="40" y="80" width="8" height="8" fill="#EB5757"/>
<rect x="40" y="40" width="8" height="8" fill="#EB5757"/>
<rect x="40" y="104" width="8" height="8" fill="black"/>
<rect x="40" y="88" width="8" height="8" fill="#EB5757"/>
<rect x="104" y="32" width="8" height="8" fill="black"/>
<rect x="104" y="80" width="8" height="8" fill="black"/>
<rect x="104" y="40" width="8" height="8" fill="black"/>
<rect x="104" y="88" width="8" height="8" fill="black"/>
<rect x="24" y="96" width="8" height="8" fill="black"/>
<rect x="24" y="24" width="8" height="8" fill="black"/>
<rect x="88" y="96" width="8" height="8" fill="#EB5757"/>
<rect x="88" y="16" width="8" height="8" fill="black"/>
<rect x="88" y="104" width="8" height="8" fill="black"/>
<rect x="88" y="24" width="8" height="8" fill="#EB5757"/>
<rect x="56" y="112" width="8" height="8" fill="black"/>
<rect x="56" y="8" width="8" height="8" fill="black"/>
</svg>
