<svg width="128" height="128" viewBox="0 0 128 128" fill="none" xmlns="http://www.w3.org/2000/svg">
<rect width="128" height="128" fill="white"/>
<path d="M64 16H56V24H64V16Z" fill="#F2994A"/>
<path d="M64 24H56V32H64V24Z" fill="#F2994A"/>
<path d="M72 24H64V32H72V24Z" fill="#F2994A"/>
<path d="M64 32H56V40H64V32Z" fill="black"/>
<path d="M72 32H64V40H72V32Z" fill="#F2994A"/>
<path d="M80 32H72V40H80V32Z" fill="#F2994A"/>
<path d="M64 40H56V48H64V40Z" fill="black"/>
<path d="M80 40H72V48H80V40Z" fill="#F2994A"/>
<path d="M88 40H80V48H88V40Z" fill="#F2994A"/>
<path d="M112 40H104V48H112V40Z" fill="black"/>
<path d="M64 48H56V56H64V48Z" fill="black"/>
<path d="M88 48H80V56H88V48Z" fill="#F2994A"/>
<path d="M112 48H104V56H112V48Z" fill="black"/>
<path d="M64 56H56V64H64V56Z" fill="black"/>
<path d="M88 56H80V64H88V56Z" fill="#F2994A"/>
<path d="M104 56H96V64H104V56Z" fill="black"/>
<path d="M112 56H104V64H112V56Z" fill="#EB5757"/>
<path d="M120 56H112V64H120V56Z" fill="black"/>
<path d="M64 64H56V72H64V64Z" fill="black"/>
<path d="M88 64H80V72H88V64Z" fill="#F2994A"/>
<path d="M112 64H104V72H112V64Z" fill="#EB5757"/>
<path d="M64 72H56V80H64V72Z" fill="black"/>
<path d="M88 72H80V80H88V72Z" fill="#F2994A"/>
<path d="M112 72H104V80H112V72Z" fill="#EB5757"/>
<path d="M64 80H56V88H64V80Z" fill="black"/>
<path d="M88 80H80V88H88V80Z" fill="#F2994A"/>
<path d="M104 80H96V88H104V80Z" fill="#EB5757"/>
<path d="M64 88H56V96H64V88Z" fill="black"/>
<path d="M80 88H72V96H80V88Z" fill="#F2994A"/>
<path d="M88 88H80V96H88V88Z" fill="#F2994A"/>
<path d="M104 88H96V96H104V88Z" fill="#EB5757"/>
<path d="M64 96H56V104H64V96Z" fill="black"/>
<path d="M72 96H64V104H72V96Z" fill="#F2994A"/>
<path d="M80 96H72V104H80V96Z" fill="#F2994A"/>
<path d="M96 96H88V104H96V96Z" fill="#EB5757"/>
<path d="M64 104H56V112H64V104Z" fill="#F2994A"/>
<path d="M72 104H64V112H72V104Z" fill="#F2994A"/>
<path d="M96 104H88V112H96V104Z" fill="#EB5757"/>
</svg>
