<svg width="128" height="128" viewBox="0 0 128 128" fill="none" xmlns="http://www.w3.org/2000/svg">
<rect width="128" height="128" fill="white"/>
<path d="M64 0H56V8H64V0Z" fill="black"/>
<path d="M64 8H56V16H64V8Z" fill="black"/>
<path d="M64 16H56V24H64V16Z" fill="black"/>
<path d="M64 24H56V32H64V24Z" fill="black"/>
<path d="M64 32H56V40H64V32Z" fill="black"/>
<path d="M64 40H56V48H64V40Z" fill="black"/>
<path d="M64 48H56V56H64V48Z" fill="black"/>
<path d="M64 56H56V64H64V56Z" fill="black"/>
<path d="M64 64H56V72H64V64Z" fill="black"/>
<path d="M48 72H40V80H48V72Z" fill="#F2C94C"/>
<path d="M56 72H48V80H56V72Z" fill="black"/>
<path d="M64 72H56V80H64V72Z" fill="#F2C94C"/>
<path d="M72 72H64V80H72V72Z" fill="black"/>
<path d="M80 72H72V80H80V72Z" fill="#F2C94C"/>
<path d="M48 80H40V88H48V80Z" fill="#F2C94C"/>
<path d="M56 80H48V88H56V80Z" fill="black"/>
<path d="M64 80H56V88H64V80Z" fill="#F2C94C"/>
<path d="M72 80H64V88H72V80Z" fill="black"/>
<path d="M80 80H72V88H80V80Z" fill="#F2C94C"/>
<path d="M48 88H40V96H48V88Z" fill="#F2C94C"/>
<path d="M56 88H48V96H56V88Z" fill="black"/>
<path d="M64 88H56V96H64V88Z" fill="#F2C94C"/>
<path d="M72 88H64V96H72V88Z" fill="black"/>
<path d="M80 88H72V96H80V88Z" fill="#F2C94C"/>
<path d="M40 96H32V104H40V96Z" fill="#F2C94C"/>
<path d="M48 96H40V104H48V96Z" fill="#F2C94C"/>
<path d="M56 96H48V104H56V96Z" fill="black"/>
<path d="M64 96H56V104H64V96Z" fill="#F2C94C"/>
<path d="M72 96H64V104H72V96Z" fill="black"/>
<path d="M80 96H72V104H80V96Z" fill="#F2C94C"/>
<path d="M88 96H80V104H88V96Z" fill="#F2C94C"/>
<path d="M40 104H32V112H40V104Z" fill="#F2C94C"/>
<path d="M48 104H40V112H48V104Z" fill="#F2C94C"/>
<path d="M56 104H48V112H56V104Z" fill="black"/>
<path d="M64 104H56V112H64V104Z" fill="#F2C94C"/>
<path d="M72 104H64V112H72V104Z" fill="black"/>
<path d="M80 104H72V112H80V104Z" fill="#F2C94C"/>
<path d="M88 104H80V112H88V104Z" fill="#F2C94C"/>
<path d="M40 112H32V120H40V112Z" fill="#F2C94C"/>
<path d="M48 112H40V120H48V112Z" fill="#F2C94C"/>
<path d="M56 112H48V120H56V112Z" fill="black"/>
<path d="M64 112H56V120H64V112Z" fill="#F2C94C"/>
<path d="M72 112H64V120H72V112Z" fill="black"/>
<path d="M80 112H72V120H80V112Z" fill="#F2C94C"/>
<path d="M88 112H80V120H88V112Z" fill="#F2C94C"/>
</svg>
