<svg width="128" height="128" viewBox="0 0 128 128" fill="none" xmlns="http://www.w3.org/2000/svg">
<rect width="128" height="128" fill="white"/>
<rect x="64" y="64" width="8" height="8" fill="#EB5757"/>
<rect x="64" y="96" width="8" height="8" fill="#EB5757"/>
<rect x="64" y="80" width="8" height="8" fill="#EB5757"/>
<rect x="64" y="48" width="8" height="8" fill="black"/>
<rect x="64" y="40" width="8" height="8" fill="#EB5757"/>
<rect x="64" y="24" width="8" height="8" fill="#EB5757"/>
<rect x="64" y="56" width="8" height="8" fill="black"/>
<rect x="32" y="32" width="8" height="8" fill="#EB5757"/>
<rect x="32" y="80" width="8" height="8" fill="#EB5757"/>
<rect x="32" y="48" width="8" height="8" fill="#EB5757"/>
<rect x="32" y="72" width="8" height="8" fill="#EB5757"/>
<rect x="32" y="40" width="8" height="8" fill="#EB5757"/>
<rect x="32" y="88" width="8" height="8" fill="#EB5757"/>
<rect x="96" width="8" height="8" fill="#2F80ED"/>
<rect x="96" y="64" width="8" height="8" fill="#EB5757"/>
<rect x="96" y="32" width="8" height="8" fill="black"/>
<rect x="96" y="16" width="8" height="8" fill="black"/>
<rect x="96" y="48" width="8" height="8" fill="#EB5757"/>
<rect x="96" y="8" width="8" height="8" fill="#2F80ED"/>
<rect x="96" y="72" width="8" height="8" fill="#EB5757"/>
<rect x="96" y="24" width="8" height="8" fill="black"/>
<rect x="96" y="56" width="8" height="8" fill="#EB5757"/>
<rect x="80" y="64" width="8" height="8" fill="#EB5757"/>
<rect x="80" y="32" width="8" height="8" fill="black"/>
<rect x="80" y="48" width="8" height="8" fill="black"/>
<rect x="80" y="40" width="8" height="8" fill="black"/>
<rect x="80" y="88" width="8" height="8" fill="#EB5757"/>
<rect x="80" y="56" width="8" height="8" fill="#EB5757"/>
<rect x="48" y="32" width="8" height="8" fill="#EB5757"/>
<rect x="48" y="96" width="8" height="8" fill="#EB5757"/>
<rect x="48" y="48" width="8" height="8" fill="#EB5757"/>
<rect x="48" y="72" width="8" height="8" fill="#EB5757"/>
<rect x="48" y="24" width="8" height="8" fill="#EB5757"/>
<rect x="48" y="88" width="8" height="8" fill="#EB5757"/>
<rect x="112" width="8" height="8" fill="#2F80ED"/>
<rect x="112" y="16" width="8" height="8" fill="black"/>
<rect x="112" y="8" width="8" height="8" fill="black"/>
<rect x="112" y="24" width="8" height="8" fill="#2F80ED"/>
<rect x="72" y="32" width="8" height="8" fill="#EB5757"/>
<rect x="72" y="96" width="8" height="8" fill="#EB5757"/>
<rect x="72" y="48" width="8" height="8" fill="black"/>
<rect x="72" y="72" width="8" height="8" fill="#EB5757"/>
<rect x="72" y="40" width="8" height="8" fill="black"/>
<rect x="72" y="24" width="8" height="8" fill="#EB5757"/>
<rect x="72" y="88" width="8" height="8" fill="#EB5757"/>
<rect x="72" y="56" width="8" height="8" fill="black"/>
<rect x="40" y="64" width="8" height="8" fill="#EB5757"/>
<rect x="40" y="32" width="8" height="8" fill="#EB5757"/>
<rect x="40" y="88" width="8" height="8" fill="#EB5757"/>
<rect x="40" y="56" width="8" height="8" fill="#EB5757"/>
<rect x="104" y="16" width="8" height="8" fill="black"/>
<rect x="104" y="8" width="8" height="8" fill="black"/>
<rect x="104" y="24" width="8" height="8" fill="black"/>
<rect x="24" y="64" width="8" height="8" fill="#EB5757"/>
<rect x="24" y="48" width="8" height="8" fill="#EB5757"/>
<rect x="24" y="72" width="8" height="8" fill="#EB5757"/>
<rect x="24" y="56" width="8" height="8" fill="#EB5757"/>
<rect x="88" y="32" width="8" height="8" fill="black"/>
<rect x="88" y="80" width="8" height="8" fill="#EB5757"/>
<rect x="88" y="48" width="8" height="8" fill="#EB5757"/>
<rect x="88" y="72" width="8" height="8" fill="#EB5757"/>
<rect x="88" y="40" width="8" height="8" fill="black"/>
<rect x="88" y="24" width="8" height="8" fill="black"/>
<rect x="88" y="88" width="8" height="8" fill="#EB5757"/>
<rect x="56" y="64" width="8" height="8" fill="#EB5757"/>
<rect x="56" y="96" width="8" height="8" fill="#EB5757"/>
<rect x="56" y="80" width="8" height="8" fill="#EB5757"/>
<rect x="56" y="40" width="8" height="8" fill="#EB5757"/>
<rect x="56" y="24" width="8" height="8" fill="#EB5757"/>
<rect x="56" y="56" width="8" height="8" fill="#EB5757"/>
<rect x="120" y="8" width="8" height="8" fill="#2F80ED"/>
<rect x="120" y="24" width="8" height="8" fill="#2F80ED"/>
</svg>
