<svg width="128" height="128" viewBox="0 0 128 128" fill="none" xmlns="http://www.w3.org/2000/svg">
<rect width="128" height="128" fill="white"/>
<path d="M48 24H40V32H48V24Z" fill="black"/>
<path d="M88 24H80V32H88V24Z" fill="black"/>
<path d="M24 32H16V40H24V32Z" fill="#EB5757"/>
<path d="M56 32H48V40H56V32Z" fill="black"/>
<path d="M80 32H72V40H80V32Z" fill="black"/>
<path d="M104 32H96V40H104V32Z" fill="#EB5757"/>
<path d="M112 32H104V40H112V32Z" fill="#EB5757"/>
<path d="M24 40H16V48H24V40Z" fill="#EB5757"/>
<path d="M32 40H24V48H32V40Z" fill="#EB5757"/>
<path d="M40 40H32V48H40V40Z" fill="#EB5757"/>
<path d="M48 40H40V48H48V40Z" fill="#EB5757"/>
<path d="M64 40H56V48H64V40Z" fill="black"/>
<path d="M72 40H64V48H72V40Z" fill="black"/>
<path d="M88 40H80V48H88V40Z" fill="#EB5757"/>
<path d="M96 40H88V48H96V40Z" fill="#9B51E0"/>
<path d="M24 48H16V56H24V48Z" fill="#EB5757"/>
<path d="M40 48H32V56H40V48Z" fill="#9B51E0"/>
<path d="M56 48H48V56H56V48Z" fill="#EB5757"/>
<path d="M64 48H56V56H64V48Z" fill="black"/>
<path d="M72 48H64V56H72V48Z" fill="black"/>
<path d="M80 48H72V56H80V48Z" fill="#EB5757"/>
<path d="M88 48H80V56H88V48Z" fill="#9B51E0"/>
<path d="M112 48H104V56H112V48Z" fill="#EB5757"/>
<path d="M16 56H8V64H16V56Z" fill="#EB5757"/>
<path d="M24 56H16V64H24V56Z" fill="#9B51E0"/>
<path d="M32 56H24V64H32V56Z" fill="#2F80ED"/>
<path d="M40 56H32V64H40V56Z" fill="#2F80ED"/>
<path d="M56 56H48V64H56V56Z" fill="#9B51E0"/>
<path d="M64 56H56V64H64V56Z" fill="black"/>
<path d="M72 56H64V64H72V56Z" fill="black"/>
<path d="M96 56H88V64H96V56Z" fill="#2F80ED"/>
<path d="M104 56H96V64H104V56Z" fill="#2F80ED"/>
<path d="M16 64H8V72H16V64Z" fill="#EB5757"/>
<path d="M32 64H24V72H32V64Z" fill="#2F80ED"/>
<path d="M40 64H32V72H40V64Z" fill="#2F80ED"/>
<path d="M56 64H48V72H56V64Z" fill="#9B51E0"/>
<path d="M64 64H56V72H64V64Z" fill="black"/>
<path d="M72 64H64V72H72V64Z" fill="black"/>
<path d="M88 64H80V72H88V64Z" fill="#9B51E0"/>
<path d="M96 64H88V72H96V64Z" fill="#2F80ED"/>
<path d="M104 64H96V72H104V64Z" fill="#2F80ED"/>
<path d="M112 64H104V72H112V64Z" fill="#9B51E0"/>
<path d="M120 64H112V72H120V64Z" fill="#EB5757"/>
<path d="M24 72H16V80H24V72Z" fill="#EB5757"/>
<path d="M32 72H24V80H32V72Z" fill="#9B51E0"/>
<path d="M56 72H48V80H56V72Z" fill="#9B51E0"/>
<path d="M64 72H56V80H64V72Z" fill="black"/>
<path d="M72 72H64V80H72V72Z" fill="black"/>
<path d="M104 72H96V80H104V72Z" fill="#9B51E0"/>
<path d="M112 72H104V80H112V72Z" fill="#9B51E0"/>
<path d="M120 72H112V80H120V72Z" fill="#EB5757"/>
<path d="M24 80H16V88H24V80Z" fill="#EB5757"/>
<path d="M40 80H32V88H40V80Z" fill="#9B51E0"/>
<path d="M48 80H40V88H48V80Z" fill="#EB5757"/>
<path d="M56 80H48V88H56V80Z" fill="#EB5757"/>
<path d="M64 80H56V88H64V80Z" fill="black"/>
<path d="M72 80H64V88H72V80Z" fill="black"/>
<path d="M88 80H80V88H88V80Z" fill="#EB5757"/>
<path d="M96 80H88V88H96V80Z" fill="#EB5757"/>
<path d="M104 80H96V88H104V80Z" fill="#EB5757"/>
<path d="M120 80H112V88H120V80Z" fill="#EB5757"/>
<path d="M24 88H16V96H24V88Z" fill="#EB5757"/>
<path d="M32 88H24V96H32V88Z" fill="#EB5757"/>
<path d="M64 88H56V96H64V88Z" fill="black"/>
<path d="M72 88H64V96H72V88Z" fill="black"/>
<path d="M88 88H80V96H88V88Z" fill="#EB5757"/>
<path d="M96 88H88V96H96V88Z" fill="#9B51E0"/>
<path d="M112 88H104V96H112V88Z" fill="#9B51E0"/>
<path d="M120 88H112V96H120V88Z" fill="#EB5757"/>
<path d="M16 96H8V104H16V96Z" fill="#EB5757"/>
<path d="M32 96H24V104H32V96Z" fill="#9B51E0"/>
<path d="M48 96H40V104H48V96Z" fill="#9B51E0"/>
<path d="M64 96H56V104H64V96Z" fill="black"/>
<path d="M72 96H64V104H72V96Z" fill="black"/>
<path d="M80 96H72V104H80V96Z" fill="#27AE60"/>
<path d="M96 96H88V104H96V96Z" fill="#2F80ED"/>
<path d="M104 96H96V104H104V96Z" fill="#2F80ED"/>
<path d="M112 96H104V104H112V96Z" fill="#9B51E0"/>
<path d="M120 96H112V104H120V96Z" fill="#EB5757"/>
<path d="M16 104H8V112H16V104Z" fill="#EB5757"/>
<path d="M24 104H16V112H24V104Z" fill="#9B51E0"/>
<path d="M32 104H24V112H32V104Z" fill="#2F80ED"/>
<path d="M40 104H32V112H40V104Z" fill="#2F80ED"/>
<path d="M48 104H40V112H48V104Z" fill="#9B51E0"/>
<path d="M56 104H48V112H56V104Z" fill="#EB5757"/>
<path d="M72 104H64V112H72V104Z" fill="#EB5757"/>
<path d="M80 104H72V112H80V104Z" fill="#EB5757"/>
<path d="M96 104H88V112H96V104Z" fill="#2F80ED"/>
<path d="M104 104H96V112H104V104Z" fill="#2F80ED"/>
<path d="M120 104H112V112H120V104Z" fill="#EB5757"/>
<path d="M16 112H8V120H16V112Z" fill="#EB5757"/>
<path d="M24 112H16V120H24V112Z" fill="#9B51E0"/>
<path d="M32 112H24V120H32V112Z" fill="#2F80ED"/>
<path d="M40 112H32V120H40V112Z" fill="#2F80ED"/>
<path d="M48 112H40V120H48V112Z" fill="#9B51E0"/>
<path d="M88 112H80V120H88V112Z" fill="#EB5757"/>
<path d="M96 112H88V120H96V112Z" fill="#9B51E0"/>
<path d="M104 112H96V120H104V112Z" fill="#9B51E0"/>
<path d="M112 112H104V120H112V112Z" fill="#9B51E0"/>
<path d="M24 120H16V128H24V120Z" fill="#EB5757"/>
<path d="M32 120H24V128H32V120Z" fill="#EB5757"/>
<path d="M48 120H40V128H48V120Z" fill="#EB5757"/>
<path d="M88 120H80V128H88V120Z" fill="#EB5757"/>
<path d="M96 120H88V128H96V120Z" fill="#EB5757"/>
<path d="M112 120H104V128H112V120Z" fill="#EB5757"/>
</svg>
