<svg width="128" height="128" viewBox="0 0 128 128" fill="none" xmlns="http://www.w3.org/2000/svg">
<rect width="128" height="128" fill="white"/>
<path d="M72 48H64V56H72V48Z" fill="black"/>
<path d="M48 56H40V64H48V56Z" fill="black"/>
<path d="M56 56H48V64H56V56Z" fill="black"/>
<path d="M72 56H64V64H72V56Z" fill="black"/>
<path d="M88 56H80V64H88V56Z" fill="#2F80ED"/>
<path d="M32 64H24V72H32V64Z" fill="#2F80ED"/>
<path d="M64 64H56V72H64V64Z" fill="black"/>
<path d="M80 64H72V72H80V64Z" fill="#2F80ED"/>
<path d="M88 64H80V72H88V64Z" fill="#F2C94C"/>
<path d="M96 64H88V72H96V64Z" fill="#2F80ED"/>
<path d="M32 72H24V80H32V72Z" fill="#2F80ED"/>
<path d="M40 72H32V80H40V72Z" fill="#2F80ED"/>
<path d="M48 72H40V80H48V72Z" fill="#2F80ED"/>
<path d="M64 72H56V80H64V72Z" fill="black"/>
<path d="M72 72H64V80H72V72Z" fill="#2F80ED"/>
<path d="M80 72H72V80H80V72Z" fill="#2F80ED"/>
<path d="M88 72H80V80H88V72Z" fill="#2F80ED"/>
<path d="M96 72H88V80H96V72Z" fill="#2F80ED"/>
<path d="M32 80H24V88H32V80Z" fill="#2F80ED"/>
<path d="M40 80H32V88H40V80Z" fill="#F2C94C"/>
<path d="M48 80H40V88H48V80Z" fill="#2F80ED"/>
<path d="M56 80H48V88H56V80Z" fill="#2F80ED"/>
<path d="M64 80H56V88H64V80Z" fill="black"/>
<path d="M72 80H64V88H72V80Z" fill="#2F80ED"/>
<path d="M80 80H72V88H80V80Z" fill="#2F80ED"/>
<path d="M40 88H32V96H40V88Z" fill="#2F80ED"/>
<path d="M56 88H48V96H56V88Z" fill="#2F80ED"/>
<path d="M64 88H56V96H64V88Z" fill="black"/>
<path d="M72 88H64V96H72V88Z" fill="#2F80ED"/>
<path d="M80 88H72V96H80V88Z" fill="#2F80ED"/>
<path d="M88 88H80V96H88V88Z" fill="#2F80ED"/>
<path d="M56 96H48V104H56V96Z" fill="#2F80ED"/>
<path d="M64 96H56V104H64V96Z" fill="black"/>
<path d="M72 96H64V104H72V96Z" fill="#2F80ED"/>
<path d="M80 96H72V104H80V96Z" fill="#2F80ED"/>
<path d="M88 96H80V104H88V96Z" fill="#2F80ED"/>
<path d="M48 104H40V112H48V104Z" fill="#2F80ED"/>
<path d="M56 104H48V112H56V104Z" fill="#2F80ED"/>
<path d="M80 104H72V112H80V104Z" fill="#2F80ED"/>
<path d="M56 112H48V120H56V112Z" fill="#2F80ED"/>
</svg>
