<svg width="128" height="128" viewBox="0 0 128 128" fill="none" xmlns="http://www.w3.org/2000/svg">
<rect width="128" height="128" fill="white"/>
<path d="M72 16H64V24H72V16Z" fill="black"/>
<path d="M64 24H56V32H64V24Z" fill="black"/>
<path d="M72 24H64V32H72V24Z" fill="black"/>
<path d="M80 24H72V32H80V24Z" fill="black"/>
<path d="M64 32H56V40H64V32Z" fill="black"/>
<path d="M80 32H72V40H80V32Z" fill="black"/>
<path d="M64 40H56V48H64V40Z" fill="black"/>
<path d="M80 40H72V48H80V40Z" fill="black"/>
<path d="M64 48H56V56H64V48Z" fill="black"/>
<path d="M80 48H72V56H80V48Z" fill="black"/>
<path d="M64 56H56V64H64V56Z" fill="black"/>
<path d="M80 56H72V64H80V56Z" fill="black"/>
<path d="M88 56H80V64H88V56Z" fill="black"/>
<path d="M64 64H56V72H64V64Z" fill="black"/>
<path d="M96 64H88V72H96V64Z" fill="black"/>
<path d="M64 72H56V80H64V72Z" fill="black"/>
<path d="M72 72H64V80H72V72Z" fill="black"/>
<path d="M88 72H80V80H88V72Z" fill="black"/>
<path d="M96 72H88V80H96V72Z" fill="black"/>
<path d="M64 80H56V88H64V80Z" fill="black"/>
<path d="M80 80H72V88H80V80Z" fill="black"/>
<path d="M96 80H88V88H96V80Z" fill="black"/>
<path d="M64 88H56V96H64V88Z" fill="black"/>
<path d="M80 88H72V96H80V88Z" fill="black"/>
<path d="M96 88H88V96H96V88Z" fill="black"/>
<path d="M64 96H56V104H64V96Z" fill="black"/>
<path d="M80 96H72V104H80V96Z" fill="black"/>
</svg>
