<svg width="128" height="128" viewBox="0 0 128 128" fill="none" xmlns="http://www.w3.org/2000/svg">
<rect width="128" height="128" fill="white"/>
<path d="M64 16H56V24H64V16Z" fill="#F2994A"/>
<path d="M56 24H48V32H56V24Z" fill="#F2994A"/>
<path d="M64 24H56V32H64V24Z" fill="#F2994A"/>
<path d="M72 24H64V32H72V24Z" fill="#F2994A"/>
<path d="M56 32H48V40H56V32Z" fill="#F2994A"/>
<path d="M64 32H56V40H64V32Z" fill="#F2994A"/>
<path d="M72 32H64V40H72V32Z" fill="#F2994A"/>
<path d="M48 40H40V48H48V40Z" fill="#F2994A"/>
<path d="M56 40H48V48H56V40Z" fill="#F2994A"/>
<path d="M64 40H56V48H64V40Z" fill="#F2994A"/>
<path d="M72 40H64V48H72V40Z" fill="#F2994A"/>
<path d="M80 40H72V48H80V40Z" fill="#F2994A"/>
<path d="M56 48H48V56H56V48Z" fill="black"/>
<path d="M64 48H56V56H64V48Z" fill="black"/>
<path d="M72 48H64V56H72V48Z" fill="black"/>
<path d="M56 56H48V64H56V56Z" fill="black"/>
<path d="M64 56H56V64H64V56Z" fill="black"/>
<path d="M72 56H64V64H72V56Z" fill="black"/>
<path d="M48 64H40V72H48V64Z" fill="black"/>
<path d="M64 64H56V72H64V64Z" fill="black"/>
<path d="M56 72H48V80H56V72Z" fill="black"/>
<path d="M64 72H56V80H64V72Z" fill="black"/>
<path d="M72 72H64V80H72V72Z" fill="black"/>
<path d="M80 72H72V80H80V72Z" fill="black"/>
<path d="M96 72H88V80H96V72Z" fill="black"/>
<path d="M104 72H96V80H104V72Z" fill="black"/>
<path d="M64 80H56V88H64V80Z" fill="black"/>
<path d="M88 80H80V88H88V80Z" fill="black"/>
<path d="M96 80H88V88H96V80Z" fill="black"/>
<path d="M104 80H96V88H104V80Z" fill="black"/>
<path d="M112 80H104V88H112V80Z" fill="black"/>
<path d="M48 88H40V96H48V88Z" fill="black"/>
<path d="M56 88H48V96H56V88Z" fill="black"/>
<path d="M64 88H56V96H64V88Z" fill="black"/>
<path d="M72 88H64V96H72V88Z" fill="black"/>
<path d="M80 88H72V96H80V88Z" fill="black"/>
<path d="M88 88H80V96H88V88Z" fill="black"/>
<path d="M96 88H88V96H96V88Z" fill="black"/>
<path d="M104 88H96V96H104V88Z" fill="black"/>
<path d="M48 96H40V104H48V96Z" fill="black"/>
<path d="M56 96H48V104H56V96Z" fill="black"/>
<path d="M64 96H56V104H64V96Z" fill="black"/>
<path d="M72 96H64V104H72V96Z" fill="black"/>
<path d="M80 96H72V104H80V96Z" fill="black"/>
<path d="M88 96H80V104H88V96Z" fill="black"/>
<path d="M96 96H88V104H96V96Z" fill="black"/>
<path d="M48 104H40V112H48V104Z" fill="black"/>
<path d="M96 104H88V112H96V104Z" fill="black"/>
</svg>
