<svg width="128" height="128" viewBox="0 0 128 128" fill="none" xmlns="http://www.w3.org/2000/svg">
<rect width="128" height="128" fill="white"/>
<path d="M56 40H48V48H56V40Z" fill="black"/>
<path d="M80 40H72V48H80V40Z" fill="black"/>
<path d="M16 48H8V56H16V48Z" fill="#EB5757"/>
<path d="M32 48H24V56H32V48Z" fill="#EB5757"/>
<path d="M56 48H48V56H56V48Z" fill="#EB5757"/>
<path d="M80 48H72V56H80V48Z" fill="#EB5757"/>
<path d="M104 48H96V56H104V48Z" fill="#EB5757"/>
<path d="M120 48H112V56H120V48Z" fill="#EB5757"/>
<path d="M24 56H16V64H24V56Z" fill="#EB5757"/>
<path d="M56 56H48V64H56V56Z" fill="#EB5757"/>
<path d="M80 56H72V64H80V56Z" fill="#EB5757"/>
<path d="M112 56H104V64H112V56Z" fill="#EB5757"/>
<path d="M24 64H16V72H24V64Z" fill="#EB5757"/>
<path d="M48 64H40V72H48V64Z" fill="#EB5757"/>
<path d="M56 64H48V72H56V64Z" fill="#EB5757"/>
<path d="M64 64H56V72H64V64Z" fill="#EB5757"/>
<path d="M72 64H64V72H72V64Z" fill="#EB5757"/>
<path d="M80 64H72V72H80V64Z" fill="#EB5757"/>
<path d="M88 64H80V72H88V64Z" fill="#EB5757"/>
<path d="M112 64H104V72H112V64Z" fill="#EB5757"/>
<path d="M32 72H24V80H32V72Z" fill="#EB5757"/>
<path d="M40 72H32V80H40V72Z" fill="#EB5757"/>
<path d="M48 72H40V80H48V72Z" fill="#EB5757"/>
<path d="M56 72H48V80H56V72Z" fill="#EB5757"/>
<path d="M64 72H56V80H64V72Z" fill="#EB5757"/>
<path d="M72 72H64V80H72V72Z" fill="#EB5757"/>
<path d="M80 72H72V80H80V72Z" fill="#EB5757"/>
<path d="M88 72H80V80H88V72Z" fill="#EB5757"/>
<path d="M96 72H88V80H96V72Z" fill="#EB5757"/>
<path d="M104 72H96V80H104V72Z" fill="#EB5757"/>
<path d="M48 80H40V88H48V80Z" fill="#EB5757"/>
<path d="M56 80H48V88H56V80Z" fill="#EB5757"/>
<path d="M64 80H56V88H64V80Z" fill="#EB5757"/>
<path d="M72 80H64V88H72V80Z" fill="#EB5757"/>
<path d="M80 80H72V88H80V80Z" fill="#EB5757"/>
<path d="M88 80H80V88H88V80Z" fill="#EB5757"/>
<path d="M56 88H48V96H56V88Z" fill="#EB5757"/>
<path d="M72 88H64V96H72V88Z" fill="#EB5757"/>
<path d="M88 88H80V96H88V88Z" fill="#EB5757"/>
<path d="M48 96H40V104H48V96Z" fill="#EB5757"/>
<path d="M80 96H72V104H80V96Z" fill="#EB5757"/>
<path d="M96 96H88V104H96V96Z" fill="#EB5757"/>
</svg>
