<svg width="128" height="128" viewBox="0 0 128 128" fill="none" xmlns="http://www.w3.org/2000/svg">
<rect width="128" height="128" fill="white"/>
<path d="M32 48H24V56H32V48Z" fill="#F2994A"/>
<path d="M112 48H104V56H112V48Z" fill="#F2994A"/>
<path d="M32 56H24V64H32V56Z" fill="#F2994A"/>
<path d="M40 56H32V64H40V56Z" fill="#F2994A"/>
<path d="M72 56H64V64H72V56Z" fill="#F2994A"/>
<path d="M104 56H96V64H104V56Z" fill="#F2994A"/>
<path d="M112 56H104V64H112V56Z" fill="#F2994A"/>
<path d="M32 64H24V72H32V64Z" fill="#F2994A"/>
<path d="M40 64H32V72H40V64Z" fill="#F2994A"/>
<path d="M48 64H40V72H48V64Z" fill="#F2994A"/>
<path d="M64 64H56V72H64V64Z" fill="#F2994A"/>
<path d="M72 64H64V72H72V64Z" fill="#F2994A"/>
<path d="M80 64H72V72H80V64Z" fill="#F2994A"/>
<path d="M96 64H88V72H96V64Z" fill="#F2994A"/>
<path d="M104 64H96V72H104V64Z" fill="#F2994A"/>
<path d="M112 64H104V72H112V64Z" fill="#F2994A"/>
<path d="M32 72H24V80H32V72Z" fill="#F2994A"/>
<path d="M40 72H32V80H40V72Z" fill="#27AE60"/>
<path d="M48 72H40V80H48V72Z" fill="#F2994A"/>
<path d="M56 72H48V80H56V72Z" fill="#F2994A"/>
<path d="M64 72H56V80H64V72Z" fill="#F2994A"/>
<path d="M72 72H64V80H72V72Z" fill="#9B51E0"/>
<path d="M80 72H72V80H80V72Z" fill="#F2994A"/>
<path d="M88 72H80V80H88V72Z" fill="#F2994A"/>
<path d="M96 72H88V80H96V72Z" fill="#F2994A"/>
<path d="M104 72H96V80H104V72Z" fill="#27AE60"/>
<path d="M112 72H104V80H112V72Z" fill="#F2994A"/>
<path d="M32 80H24V88H32V80Z" fill="#F2994A"/>
<path d="M40 80H32V88H40V80Z" fill="#27AE60"/>
<path d="M48 80H40V88H48V80Z" fill="#F2C94C"/>
<path d="M56 80H48V88H56V80Z" fill="#9B51E0"/>
<path d="M64 80H56V88H64V80Z" fill="#9B51E0"/>
<path d="M72 80H64V88H72V80Z" fill="#9B51E0"/>
<path d="M80 80H72V88H80V80Z" fill="#9B51E0"/>
<path d="M88 80H80V88H88V80Z" fill="#9B51E0"/>
<path d="M96 80H88V88H96V80Z" fill="#F2C94C"/>
<path d="M104 80H96V88H104V80Z" fill="#27AE60"/>
<path d="M112 80H104V88H112V80Z" fill="#F2994A"/>
<path d="M32 88H24V96H32V88Z" fill="#F2994A"/>
<path d="M40 88H32V96H40V88Z" fill="#F2994A"/>
<path d="M48 88H40V96H48V88Z" fill="#F2994A"/>
<path d="M56 88H48V96H56V88Z" fill="#F2994A"/>
<path d="M64 88H56V96H64V88Z" fill="#9B51E0"/>
<path d="M72 88H64V96H72V88Z" fill="#9B51E0"/>
<path d="M80 88H72V96H80V88Z" fill="#9B51E0"/>
<path d="M88 88H80V96H88V88Z" fill="#F2994A"/>
<path d="M96 88H88V96H96V88Z" fill="#F2994A"/>
<path d="M104 88H96V96H104V88Z" fill="#F2994A"/>
<path d="M112 88H104V96H112V88Z" fill="#F2994A"/>
<path d="M32 96H24V104H32V96Z" fill="#F2994A"/>
<path d="M40 96H32V104H40V96Z" fill="#F2994A"/>
<path d="M48 96H40V104H48V96Z" fill="#F2994A"/>
<path d="M56 96H48V104H56V96Z" fill="#F2994A"/>
<path d="M64 96H56V104H64V96Z" fill="#F2994A"/>
<path d="M72 96H64V104H72V96Z" fill="#F2994A"/>
<path d="M80 96H72V104H80V96Z" fill="#F2994A"/>
<path d="M88 96H80V104H88V96Z" fill="#F2994A"/>
<path d="M96 96H88V104H96V96Z" fill="#F2994A"/>
<path d="M104 96H96V104H104V96Z" fill="#F2994A"/>
<path d="M112 96H104V104H112V96Z" fill="#F2994A"/>
</svg>
