<svg width="128" height="128" viewBox="0 0 128 128" fill="none" xmlns="http://www.w3.org/2000/svg">
<g clip-path="url(#clip0_6350_48877)">
<rect width="128" height="128" fill="white"/>
<path d="M80 0H72V8H80V0Z" fill="#EB5757"/>
<path d="M64 8H56V16H64V8Z" fill="#EB5757"/>
<path d="M72 8H64V16H72V8Z" fill="#EB5757"/>
<path d="M32 16H24V24H32V16Z" fill="#27AE60"/>
<path d="M48 16H40V24H48V16Z" fill="#27AE60"/>
<path d="M56 16H48V24H56V16Z" fill="#27AE60"/>
<path d="M64 16H56V24H64V16Z" fill="#27AE60"/>
<path d="M88 16H80V24H88V16Z" fill="#EB5757"/>
<path d="M32 24H24V32H32V24Z" fill="#27AE60"/>
<path d="M40 24H32V32H40V24Z" fill="#27AE60"/>
<path d="M48 24H40V32H48V24Z" fill="#27AE60"/>
<path d="M56 24H48V32H56V24Z" fill="black"/>
<path d="M64 24H56V32H64V24Z" fill="#27AE60"/>
<path d="M72 24H64V32H72V24Z" fill="#EB5757"/>
<path d="M80 24H72V32H80V24Z" fill="#EB5757"/>
<path d="M8 32H0V40H8V32Z" fill="#F2C94C"/>
<path d="M16 32H8V40H16V32Z" fill="#EB5757"/>
<path d="M56 32H48V40H56V32Z" fill="#27AE60"/>
<path d="M64 32H56V40H64V32Z" fill="#27AE60"/>
<path d="M72 32H64V40H72V32Z" fill="#27AE60"/>
<path d="M96 32H88V40H96V32Z" fill="#EB5757"/>
<path d="M8 40H0V48H8V40Z" fill="#F2994A"/>
<path d="M16 40H8V48H16V40Z" fill="#F2C94C"/>
<path d="M24 40H16V48H24V40Z" fill="#F2994A"/>
<path d="M32 40H24V48H32V40Z" fill="#EB5757"/>
<path d="M48 40H40V48H48V40Z" fill="#27AE60"/>
<path d="M64 40H56V48H64V40Z" fill="#27AE60"/>
<path d="M72 40H64V48H72V40Z" fill="#27AE60"/>
<path d="M80 40H72V48H80V40Z" fill="#27AE60"/>
<path d="M88 40H80V48H88V40Z" fill="#EB5757"/>
<path d="M8 48H0V56H8V48Z" fill="#F2C94C"/>
<path d="M16 48H8V56H16V48Z" fill="#EB5757"/>
<path d="M40 48H32V56H40V48Z" fill="#27AE60"/>
<path d="M72 48H64V56H72V48Z" fill="#27AE60"/>
<path d="M80 48H72V56H80V48Z" fill="#27AE60"/>
<path d="M112 48H104V56H112V48Z" fill="#EB5757"/>
<path d="M120 48H112V56H120V48Z" fill="#27AE60"/>
<path d="M72 56H64V64H72V56Z" fill="#27AE60"/>
<path d="M80 56H72V64H80V56Z" fill="#27AE60"/>
<path d="M88 56H80V64H88V56Z" fill="#EB5757"/>
<path d="M96 56H88V64H96V56Z" fill="#EB5757"/>
<path d="M112 56H104V64H112V56Z" fill="#27AE60"/>
<path d="M128 56H120V64H128V56Z" fill="#27AE60"/>
<path d="M64 64H56V72H64V64Z" fill="#27AE60"/>
<path d="M72 64H64V72H72V64Z" fill="#27AE60"/>
<path d="M80 64H72V72H80V64Z" fill="#27AE60"/>
<path d="M112 64H104V72H112V64Z" fill="#27AE60"/>
<path d="M56 72H48V80H56V72Z" fill="#27AE60"/>
<path d="M64 72H56V80H64V72Z" fill="#27AE60"/>
<path d="M72 72H64V80H72V72Z" fill="#27AE60"/>
<path d="M80 72H72V80H80V72Z" fill="#EB5757"/>
<path d="M88 72H80V80H88V72Z" fill="#EB5757"/>
<path d="M104 72H96V80H104V72Z" fill="#EB5757"/>
<path d="M112 72H104V80H112V72Z" fill="#27AE60"/>
<path d="M48 80H40V88H48V80Z" fill="#27AE60"/>
<path d="M56 80H48V88H56V80Z" fill="#27AE60"/>
<path d="M64 80H56V88H64V80Z" fill="#27AE60"/>
<path d="M96 80H88V88H96V80Z" fill="#EB5757"/>
<path d="M104 80H96V88H104V80Z" fill="#27AE60"/>
<path d="M112 80H104V88H112V80Z" fill="#27AE60"/>
<path d="M48 88H40V96H48V88Z" fill="#27AE60"/>
<path d="M56 88H48V96H56V88Z" fill="#27AE60"/>
<path d="M64 88H56V96H64V88Z" fill="#27AE60"/>
<path d="M72 88H64V96H72V88Z" fill="#EB5757"/>
<path d="M88 88H80V96H88V88Z" fill="#EB5757"/>
<path d="M96 88H88V96H96V88Z" fill="#27AE60"/>
<path d="M104 88H96V96H104V88Z" fill="#27AE60"/>
<path d="M48 96H40V104H48V96Z" fill="#27AE60"/>
<path d="M56 96H48V104H56V96Z" fill="#27AE60"/>
<path d="M64 96H56V104H64V96Z" fill="#27AE60"/>
<path d="M80 96H72V104H80V96Z" fill="#EB5757"/>
<path d="M88 96H80V104H88V96Z" fill="#27AE60"/>
<path d="M96 96H88V104H96V96Z" fill="#27AE60"/>
<path d="M104 96H96V104H104V96Z" fill="#27AE60"/>
<path d="M56 104H48V112H56V104Z" fill="#27AE60"/>
<path d="M64 104H56V112H64V104Z" fill="#27AE60"/>
<path d="M72 104H64V112H72V104Z" fill="#27AE60"/>
<path d="M80 104H72V112H80V104Z" fill="#27AE60"/>
<path d="M88 104H80V112H88V104Z" fill="#27AE60"/>
<path d="M96 104H88V112H96V104Z" fill="#27AE60"/>
<path d="M64 112H56V120H64V112Z" fill="#27AE60"/>
<path d="M72 112H64V120H72V112Z" fill="#27AE60"/>
<path d="M80 112H72V120H80V112Z" fill="#27AE60"/>
<path d="M88 112H80V120H88V112Z" fill="#27AE60"/>
<path d="M40 120H32V128H40V120Z" fill="#F2994A"/>
<path d="M48 120H40V128H48V120Z" fill="#27AE60"/>
<path d="M56 120H48V128H56V120Z" fill="#27AE60"/>
<path d="M64 120H56V128H64V120Z" fill="#27AE60"/>
<path d="M72 120H64V128H72V120Z" fill="#2F80ED"/>
<path d="M80 120H72V128H80V120Z" fill="#2F80ED"/>
</g>
<defs>
<clipPath id="clip0_6350_48877">
<rect width="128" height="128" fill="white"/>
</clipPath>
</defs>
</svg>
