<svg width="128" height="128" viewBox="0 0 128 128" fill="none" xmlns="http://www.w3.org/2000/svg">
<rect width="128" height="128" fill="white"/>
<path d="M48 24H40V32H48V24Z" fill="#F2C94C"/>
<path d="M80 24H72V32H80V24Z" fill="#27AE60"/>
<path d="M88 24H80V32H88V24Z" fill="#27AE60"/>
<path d="M96 24H88V32H96V24Z" fill="#27AE60"/>
<path d="M104 24H96V32H104V24Z" fill="#27AE60"/>
<path d="M8 32H0V40H8V32Z" fill="#EB5757"/>
<path d="M40 32H32V40H40V32Z" fill="#27AE60"/>
<path d="M48 32H40V40H48V32Z" fill="#27AE60"/>
<path d="M80 32H72V40H80V32Z" fill="#27AE60"/>
<path d="M88 32H80V40H88V32Z" fill="#9B51E0"/>
<path d="M96 32H88V40H96V32Z" fill="#9B51E0"/>
<path d="M8 40H0V48H8V40Z" fill="#F2994A"/>
<path d="M16 40H8V48H16V40Z" fill="#EB5757"/>
<path d="M32 40H24V48H32V40Z" fill="#27AE60"/>
<path d="M40 40H32V48H40V40Z" fill="#27AE60"/>
<path d="M48 40H40V48H48V40Z" fill="#27AE60"/>
<path d="M72 40H64V48H72V40Z" fill="#27AE60"/>
<path d="M80 40H72V48H80V40Z" fill="#9B51E0"/>
<path d="M88 40H80V48H88V40Z" fill="#9B51E0"/>
<path d="M8 48H0V56H8V48Z" fill="#EB5757"/>
<path d="M48 48H40V56H48V48Z" fill="#27AE60"/>
<path d="M64 48H56V56H64V48Z" fill="#27AE60"/>
<path d="M72 48H64V56H72V48Z" fill="#9B51E0"/>
<path d="M80 48H72V56H80V48Z" fill="#9B51E0"/>
<path d="M48 56H40V64H48V56Z" fill="#27AE60"/>
<path d="M56 56H48V64H56V56Z" fill="#27AE60"/>
<path d="M64 56H56V64H64V56Z" fill="#27AE60"/>
<path d="M56 64H48V72H56V64Z" fill="#27AE60"/>
<path d="M64 64H56V72H64V64Z" fill="#27AE60"/>
<path d="M72 64H64V72H72V64Z" fill="#27AE60"/>
<path d="M80 64H72V72H80V64Z" fill="#27AE60"/>
<path d="M88 64H80V72H88V64Z" fill="#27AE60"/>
<path d="M48 72H40V80H48V72Z" fill="#27AE60"/>
<path d="M64 72H56V80H64V72Z" fill="#27AE60"/>
<path d="M72 72H64V80H72V72Z" fill="#27AE60"/>
<path d="M80 72H72V80H80V72Z" fill="#27AE60"/>
<path d="M88 72H80V80H88V72Z" fill="#27AE60"/>
<path d="M96 72H88V80H96V72Z" fill="#27AE60"/>
<path d="M48 80H40V88H48V80Z" fill="#27AE60"/>
<path d="M64 80H56V88H64V80Z" fill="#27AE60"/>
<path d="M72 80H64V88H72V80Z" fill="#27AE60"/>
<path d="M80 80H72V88H80V80Z" fill="#27AE60"/>
<path d="M88 80H80V88H88V80Z" fill="#27AE60"/>
<path d="M96 80H88V88H96V80Z" fill="#27AE60"/>
<path d="M104 80H96V88H104V80Z" fill="#27AE60"/>
<path d="M128 80H120V88H128V80Z" fill="#27AE60"/>
<path d="M88 88H80V96H88V88Z" fill="#27AE60"/>
<path d="M104 88H96V96H104V88Z" fill="#27AE60"/>
<path d="M112 88H104V96H112V88Z" fill="#27AE60"/>
<path d="M120 88H112V96H120V88Z" fill="#27AE60"/>
<path d="M88 96H80V104H88V96Z" fill="#27AE60"/>
</svg>
