<svg width="128" height="128" viewBox="0 0 128 128" fill="none" xmlns="http://www.w3.org/2000/svg">
<rect width="128" height="128" fill="white"/>
<path d="M104 16H96V24H104V16Z" fill="#EB5757"/>
<path d="M112 16H104V24H112V16Z" fill="#EB5757"/>
<path d="M96 24H88V32H96V24Z" fill="#F2C94C"/>
<path d="M104 24H96V32H104V24Z" fill="#EB5757"/>
<path d="M112 24H104V32H112V24Z" fill="#EB5757"/>
<path d="M120 24H112V32H120V24Z" fill="#EB5757"/>
<path d="M88 32H80V40H88V32Z" fill="#F2C94C"/>
<path d="M96 32H88V40H96V32Z" fill="#F2C94C"/>
<path d="M104 32H96V40H104V32Z" fill="#F2C94C"/>
<path d="M112 32H104V40H112V32Z" fill="#EB5757"/>
<path d="M120 32H112V40H120V32Z" fill="#EB5757"/>
<path d="M80 40H72V48H80V40Z" fill="#F2C94C"/>
<path d="M88 40H80V48H88V40Z" fill="#F2C94C"/>
<path d="M96 40H88V48H96V40Z" fill="#F2C94C"/>
<path d="M104 40H96V48H104V40Z" fill="#F2C94C"/>
<path d="M112 40H104V48H112V40Z" fill="#F2C94C"/>
<path d="M72 48H64V56H72V48Z" fill="#F2C94C"/>
<path d="M80 48H72V56H80V48Z" fill="#F2C94C"/>
<path d="M88 48H80V56H88V48Z" fill="#F2C94C"/>
<path d="M96 48H88V56H96V48Z" fill="#F2C94C"/>
<path d="M104 48H96V56H104V48Z" fill="#F2C94C"/>
<path d="M64 56H56V64H64V56Z" fill="#F2C94C"/>
<path d="M72 56H64V64H72V56Z" fill="#F2C94C"/>
<path d="M80 56H72V64H80V56Z" fill="#F2C94C"/>
<path d="M88 56H80V64H88V56Z" fill="#F2C94C"/>
<path d="M96 56H88V64H96V56Z" fill="#F2C94C"/>
<path d="M56 64H48V72H56V64Z" fill="#F2994A"/>
<path d="M64 64H56V72H64V64Z" fill="#F2C94C"/>
<path d="M72 64H64V72H72V64Z" fill="#F2C94C"/>
<path d="M80 64H72V72H80V64Z" fill="#F2C94C"/>
<path d="M88 64H80V72H88V64Z" fill="#F2C94C"/>
<path d="M96 64H88V72H96V64Z" fill="#F2C94C"/>
<path d="M56 72H48V80H56V72Z" fill="#F2994A"/>
<path d="M64 72H56V80H64V72Z" fill="#F2C94C"/>
<path d="M72 72H64V80H72V72Z" fill="#F2C94C"/>
<path d="M80 72H72V80H80V72Z" fill="#F2C94C"/>
<path d="M48 80H40V88H48V80Z" fill="#F2994A"/>
<path d="M56 80H48V88H56V80Z" fill="#F2994A"/>
<path d="M64 80H56V88H64V80Z" fill="#F2994A"/>
<path d="M72 80H64V88H72V80Z" fill="#F2C94C"/>
<path d="M80 80H72V88H80V80Z" fill="#F2C94C"/>
<path d="M48 88H40V96H48V88Z" fill="#F2994A"/>
<path d="M56 88H48V96H56V88Z" fill="#F2994A"/>
<path d="M64 88H56V96H64V88Z" fill="#F2994A"/>
<path d="M72 88H64V96H72V88Z" fill="#F2994A"/>
<path d="M48 96H40V104H48V96Z" fill="black"/>
<path d="M56 96H48V104H56V96Z" fill="#F2994A"/>
<path d="M64 96H56V104H64V96Z" fill="#F2994A"/>
<path d="M40 112H32V120H40V112Z" fill="black"/>
<path d="M48 112H40V120H48V112Z" fill="black"/>
<path d="M56 112H48V120H56V112Z" fill="black"/>
<path d="M64 112H56V120H64V112Z" fill="black"/>
<path d="M72 112H64V120H72V112Z" fill="black"/>
<path d="M80 112H72V120H80V112Z" fill="black"/>
<path d="M88 112H80V120H88V112Z" fill="black"/>
<path d="M96 112H88V120H96V112Z" fill="black"/>
<path d="M104 112H96V120H104V112Z" fill="black"/>
<path d="M112 112H104V120H112V112Z" fill="black"/>
</svg>
