<svg width="128" height="128" viewBox="0 0 128 128" fill="none" xmlns="http://www.w3.org/2000/svg">
<rect width="128" height="128" fill="white"/>
<path d="M120 0H112V8H120V0Z" fill="black"/>
<path d="M88 8H80V16H88V8Z" fill="black"/>
<path d="M112 8H104V16H112V8Z" fill="black"/>
<path d="M16 16H8V24H16V16Z" fill="black"/>
<path d="M88 16H80V24H88V16Z" fill="black"/>
<path d="M104 16H96V24H104V16Z" fill="black"/>
<path d="M24 24H16V32H24V24Z" fill="black"/>
<path d="M32 24H24V32H32V24Z" fill="black"/>
<path d="M88 24H80V32H88V24Z" fill="black"/>
<path d="M96 24H88V32H96V24Z" fill="black"/>
<path d="M24 32H16V40H24V32Z" fill="black"/>
<path d="M32 32H24V40H32V32Z" fill="black"/>
<path d="M88 32H80V40H88V32Z" fill="black"/>
<path d="M96 32H88V40H96V32Z" fill="black"/>
<path d="M104 32H96V40H104V32Z" fill="black"/>
<path d="M112 32H104V40H112V32Z" fill="black"/>
<path d="M40 48H32V56H40V48Z" fill="black"/>
<path d="M48 48H40V56H48V48Z" fill="black"/>
<path d="M56 48H48V56H56V48Z" fill="black"/>
<path d="M64 48H56V56H64V48Z" fill="black"/>
<path d="M72 48H64V56H72V48Z" fill="black"/>
<path d="M80 48H72V56H80V48Z" fill="black"/>
<path d="M32 56H24V64H32V56Z" fill="black"/>
<path d="M88 56H80V64H88V56Z" fill="black"/>
<path d="M24 64H16V72H24V64Z" fill="black"/>
<path d="M96 64H88V72H96V64Z" fill="black"/>
<path d="M104 64H96V72H104V64Z" fill="black"/>
<path d="M56 72H48V80H56V72Z" fill="black"/>
<path d="M64 72H56V80H64V72Z" fill="black"/>
<path d="M72 72H64V80H72V72Z" fill="black"/>
<path d="M80 72H72V80H80V72Z" fill="black"/>
<path d="M112 72H104V80H112V72Z" fill="black"/>
<path d="M48 80H40V88H48V80Z" fill="black"/>
<path d="M56 80H48V88H56V80Z" fill="#2F80ED"/>
<path d="M64 80H56V88H64V80Z" fill="#2F80ED"/>
<path d="M72 80H64V88H72V80Z" fill="#2F80ED"/>
<path d="M80 80H72V88H80V80Z" fill="#2F80ED"/>
<path d="M88 80H80V88H88V80Z" fill="black"/>
<path d="M40 88H32V96H40V88Z" fill="black"/>
<path d="M56 88H48V96H56V88Z" fill="#2F80ED"/>
<path d="M64 88H56V96H64V88Z" fill="black"/>
<path d="M72 88H64V96H72V88Z" fill="black"/>
<path d="M80 88H72V96H80V88Z" fill="#2F80ED"/>
<path d="M96 88H88V96H96V88Z" fill="black"/>
<path d="M40 96H32V104H40V96Z" fill="black"/>
<path d="M56 96H48V104H56V96Z" fill="#2F80ED"/>
<path d="M64 96H56V104H64V96Z" fill="black"/>
<path d="M72 96H64V104H72V96Z" fill="black"/>
<path d="M80 96H72V104H80V96Z" fill="#2F80ED"/>
<path d="M104 96H96V104H104V96Z" fill="black"/>
<path d="M48 104H40V112H48V104Z" fill="black"/>
<path d="M56 104H48V112H56V104Z" fill="#2F80ED"/>
<path d="M64 104H56V112H64V104Z" fill="#2F80ED"/>
<path d="M72 104H64V112H72V104Z" fill="#2F80ED"/>
<path d="M80 104H72V112H80V104Z" fill="#2F80ED"/>
<path d="M88 104H80V112H88V104Z" fill="black"/>
<path d="M96 104H88V112H96V104Z" fill="black"/>
<path d="M56 112H48V120H56V112Z" fill="black"/>
<path d="M64 112H56V120H64V112Z" fill="black"/>
<path d="M72 112H64V120H72V112Z" fill="black"/>
<path d="M80 112H72V120H80V112Z" fill="black"/>
</svg>
