<svg width="128" height="128" viewBox="0 0 128 128" fill="none" xmlns="http://www.w3.org/2000/svg">
<rect width="128" height="128" fill="white"/>
<path d="M40 16H32V24H40V16Z" fill="#EB5757"/>
<path d="M48 16H40V24H48V16Z" fill="#EB5757"/>
<path d="M32 24H24V32H32V24Z" fill="black"/>
<path d="M40 24H32V32H40V24Z" fill="#EB5757"/>
<path d="M48 24H40V32H48V24Z" fill="#EB5757"/>
<path d="M48 32H40V40H48V32Z" fill="#EB5757"/>
<path d="M48 40H40V48H48V40Z" fill="#EB5757"/>
<path d="M48 48H40V56H48V48Z" fill="#EB5757"/>
<path d="M64 48H56V56H64V48Z" fill="#EB5757"/>
<path d="M72 48H64V56H72V48Z" fill="#EB5757"/>
<path d="M80 48H72V56H80V48Z" fill="#EB5757"/>
<path d="M88 48H80V56H88V48Z" fill="#EB5757"/>
<path d="M96 48H88V56H96V48Z" fill="#EB5757"/>
<path d="M104 48H96V56H104V48Z" fill="#EB5757"/>
<path d="M48 56H40V64H48V56Z" fill="#EB5757"/>
<path d="M56 56H48V64H56V56Z" fill="#EB5757"/>
<path d="M64 56H56V64H64V56Z" fill="#EB5757"/>
<path d="M72 56H64V64H72V56Z" fill="#EB5757"/>
<path d="M80 56H72V64H80V56Z" fill="#EB5757"/>
<path d="M88 56H80V64H88V56Z" fill="#EB5757"/>
<path d="M96 56H88V64H96V56Z" fill="#EB5757"/>
<path d="M104 56H96V64H104V56Z" fill="#EB5757"/>
<path d="M56 64H48V72H56V64Z" fill="#EB5757"/>
<path d="M64 64H56V72H64V64Z" fill="#EB5757"/>
<path d="M72 64H64V72H72V64Z" fill="#EB5757"/>
<path d="M80 64H72V72H80V64Z" fill="#EB5757"/>
<path d="M88 64H80V72H88V64Z" fill="#EB5757"/>
<path d="M96 64H88V72H96V64Z" fill="#EB5757"/>
<path d="M64 72H56V80H64V72Z" fill="#EB5757"/>
<path d="M72 72H64V80H72V72Z" fill="#EB5757"/>
<path d="M80 72H72V80H80V72Z" fill="#EB5757"/>
<path d="M88 72H80V80H88V72Z" fill="#EB5757"/>
<path d="M72 80H64V88H72V80Z" fill="#F2994A"/>
<path d="M88 80H80V88H88V80Z" fill="#F2994A"/>
<path d="M72 88H64V96H72V88Z" fill="#F2994A"/>
<path d="M80 88H72V96H80V88Z" fill="#F2994A"/>
<path d="M72 96H64V104H72V96Z" fill="#F2994A"/>
<path d="M88 96H80V104H88V96Z" fill="#F2994A"/>
<path d="M72 104H64V112H72V104Z" fill="#F2994A"/>
<path d="M96 104H88V112H96V104Z" fill="#F2994A"/>
<path d="M64 112H56V120H64V112Z" fill="#F2994A"/>
<path d="M72 112H64V120H72V112Z" fill="#F2994A"/>
<path d="M96 112H88V120H96V112Z" fill="#F2994A"/>
<path d="M56 120H48V128H56V120Z" fill="#F2994A"/>
</svg>
