<svg width="128" height="128" viewBox="0 0 128 128" fill="none" xmlns="http://www.w3.org/2000/svg">
<rect width="128" height="128" fill="white"/>
<path d="M56 40H48V48H56V40Z" fill="black"/>
<path d="M64 40H56V48H64V40Z" fill="black"/>
<path d="M72 40H64V48H72V40Z" fill="black"/>
<path d="M80 40H72V48H80V40Z" fill="black"/>
<path d="M48 48H40V56H48V48Z" fill="black"/>
<path d="M56 48H48V56H56V48Z" fill="#F2994A"/>
<path d="M64 48H56V56H64V48Z" fill="#F2994A"/>
<path d="M72 48H64V56H72V48Z" fill="#F2994A"/>
<path d="M80 48H72V56H80V48Z" fill="#F2994A"/>
<path d="M88 48H80V56H88V48Z" fill="black"/>
<path d="M40 56H32V64H40V56Z" fill="black"/>
<path d="M48 56H40V64H48V56Z" fill="#F2994A"/>
<path d="M56 56H48V64H56V56Z" fill="#F2994A"/>
<path d="M64 56H56V64H64V56Z" fill="#F2994A"/>
<path d="M72 56H64V64H72V56Z" fill="#F2994A"/>
<path d="M80 56H72V64H80V56Z" fill="#F2994A"/>
<path d="M88 56H80V64H88V56Z" fill="#F2994A"/>
<path d="M96 56H88V64H96V56Z" fill="black"/>
<path d="M32 64H24V72H32V64Z" fill="black"/>
<path d="M40 64H32V72H40V64Z" fill="black"/>
<path d="M48 64H40V72H48V64Z" fill="#F2994A"/>
<path d="M56 64H48V72H56V64Z" fill="black"/>
<path d="M64 64H56V72H64V64Z" fill="#F2994A"/>
<path d="M72 64H64V72H72V64Z" fill="#F2994A"/>
<path d="M80 64H72V72H80V64Z" fill="black"/>
<path d="M88 64H80V72H88V64Z" fill="#F2994A"/>
<path d="M96 64H88V72H96V64Z" fill="black"/>
<path d="M104 64H96V72H104V64Z" fill="black"/>
<path d="M32 72H24V80H32V72Z" fill="black"/>
<path d="M40 72H32V80H40V72Z" fill="black"/>
<path d="M48 72H40V80H48V72Z" fill="#F2994A"/>
<path d="M56 72H48V80H56V72Z" fill="#F2994A"/>
<path d="M64 72H56V80H64V72Z" fill="#F2994A"/>
<path d="M72 72H64V80H72V72Z" fill="#F2994A"/>
<path d="M80 72H72V80H80V72Z" fill="#F2994A"/>
<path d="M88 72H80V80H88V72Z" fill="#F2994A"/>
<path d="M96 72H88V80H96V72Z" fill="black"/>
<path d="M104 72H96V80H104V72Z" fill="black"/>
<path d="M32 80H24V88H32V80Z" fill="black"/>
<path d="M40 80H32V88H40V80Z" fill="black"/>
<path d="M48 80H40V88H48V80Z" fill="#F2994A"/>
<path d="M56 80H48V88H56V80Z" fill="black"/>
<path d="M64 80H56V88H64V80Z" fill="black"/>
<path d="M72 80H64V88H72V80Z" fill="black"/>
<path d="M80 80H72V88H80V80Z" fill="black"/>
<path d="M88 80H80V88H88V80Z" fill="#F2994A"/>
<path d="M96 80H88V88H96V80Z" fill="black"/>
<path d="M104 80H96V88H104V80Z" fill="black"/>
<path d="M40 88H32V96H40V88Z" fill="black"/>
<path d="M56 88H48V96H56V88Z" fill="#F2994A"/>
<path d="M64 88H56V96H64V88Z" fill="#F2994A"/>
<path d="M72 88H64V96H72V88Z" fill="#F2994A"/>
<path d="M80 88H72V96H80V88Z" fill="#F2994A"/>
<path d="M96 88H88V96H96V88Z" fill="black"/>
<path d="M64 96H56V104H64V96Z" fill="#F2994A"/>
<path d="M72 96H64V104H72V96Z" fill="#F2994A"/>
</svg>
