<svg width="128" height="128" viewBox="0 0 128 128" fill="none" xmlns="http://www.w3.org/2000/svg">
<rect width="128" height="128" fill="white"/>
<path d="M48 48H40V56H48V48Z" fill="#27AE60"/>
<path d="M104 48H96V56H104V48Z" fill="#27AE60"/>
<path d="M32 56H24V64H32V56Z" fill="#27AE60"/>
<path d="M40 56H32V64H40V56Z" fill="#27AE60"/>
<path d="M72 56H64V64H72V56Z" fill="#27AE60"/>
<path d="M96 56H88V64H96V56Z" fill="#27AE60"/>
<path d="M104 56H96V64H104V56Z" fill="#EB5757"/>
<path d="M112 56H104V64H112V56Z" fill="#27AE60"/>
<path d="M24 64H16V72H24V64Z" fill="#27AE60"/>
<path d="M32 64H24V72H32V64Z" fill="#EB5757"/>
<path d="M40 64H32V72H40V64Z" fill="#27AE60"/>
<path d="M64 64H56V72H64V64Z" fill="#27AE60"/>
<path d="M72 64H64V72H72V64Z" fill="#EB5757"/>
<path d="M80 64H72V72H80V64Z" fill="#27AE60"/>
<path d="M104 64H96V72H104V64Z" fill="#EB5757"/>
<path d="M24 72H16V80H24V72Z" fill="#27AE60"/>
<path d="M40 72H32V80H40V72Z" fill="#EB5757"/>
<path d="M72 72H64V80H72V72Z" fill="#EB5757"/>
<path d="M96 72H88V80H96V72Z" fill="#EB5757"/>
<path d="M48 80H40V88H48V80Z" fill="#EB5757"/>
<path d="M72 80H64V88H72V80Z" fill="#EB5757"/>
<path d="M80 80H72V88H80V80Z" fill="#27AE60"/>
<path d="M88 80H80V88H88V80Z" fill="#27AE60"/>
<path d="M96 80H88V88H96V80Z" fill="#27AE60"/>
<path d="M40 88H32V96H40V88Z" fill="#27AE60"/>
<path d="M48 88H40V96H48V88Z" fill="#27AE60"/>
<path d="M56 88H48V96H56V88Z" fill="#27AE60"/>
<path d="M64 88H56V96H64V88Z" fill="#27AE60"/>
<path d="M72 88H64V96H72V88Z" fill="#27AE60"/>
<path d="M80 88H72V96H80V88Z" fill="#27AE60"/>
<path d="M88 88H80V96H88V88Z" fill="#F2994A"/>
<path d="M96 88H88V96H96V88Z" fill="#F2994A"/>
<path d="M104 88H96V96H104V88Z" fill="#27AE60"/>
<path d="M32 96H24V104H32V96Z" fill="#F2C94C"/>
<path d="M40 96H32V104H40V96Z" fill="#F2994A"/>
<path d="M48 96H40V104H48V96Z" fill="#F2994A"/>
<path d="M56 96H48V104H56V96Z" fill="#F2994A"/>
<path d="M64 96H56V104H64V96Z" fill="#F2C94C"/>
<path d="M72 96H64V104H72V96Z" fill="#27AE60"/>
<path d="M80 96H72V104H80V96Z" fill="#F2994A"/>
<path d="M88 96H80V104H88V96Z" fill="#F2C94C"/>
<path d="M96 96H88V104H96V96Z" fill="#F2994A"/>
<path d="M104 96H96V104H104V96Z" fill="#F2994A"/>
<path d="M8 104H0V112H8V104Z" fill="#2F80ED"/>
<path d="M16 104H8V112H16V104Z" fill="#2F80ED"/>
<path d="M24 104H16V112H24V104Z" fill="#2F80ED"/>
<path d="M32 104H24V112H32V104Z" fill="#2F80ED"/>
<path d="M40 104H32V112H40V104Z" fill="#2F80ED"/>
<path d="M48 104H40V112H48V104Z" fill="#2F80ED"/>
<path d="M56 104H48V112H56V104Z" fill="#2F80ED"/>
<path d="M64 104H56V112H64V104Z" fill="#2F80ED"/>
<path d="M72 104H64V112H72V104Z" fill="#2F80ED"/>
<path d="M80 104H72V112H80V104Z" fill="#2F80ED"/>
<path d="M88 104H80V112H88V104Z" fill="#2F80ED"/>
<path d="M96 104H88V112H96V104Z" fill="#2F80ED"/>
<path d="M104 104H96V112H104V104Z" fill="#2F80ED"/>
<path d="M112 104H104V112H112V104Z" fill="#2F80ED"/>
<path d="M120 104H112V112H120V104Z" fill="#2F80ED"/>
<path d="M128 104H120V112H128V104Z" fill="#2F80ED"/>
<path d="M16 112H8V120H16V112Z" fill="#2F80ED"/>
<path d="M32 112H24V120H32V112Z" fill="#2F80ED"/>
<path d="M48 112H40V120H48V112Z" fill="#2F80ED"/>
<path d="M64 112H56V120H64V112Z" fill="#2F80ED"/>
<path d="M80 112H72V120H80V112Z" fill="#2F80ED"/>
<path d="M96 112H88V120H96V112Z" fill="#2F80ED"/>
<path d="M112 112H104V120H112V112Z" fill="#2F80ED"/>
<path d="M128 112H120V120H128V112Z" fill="#2F80ED"/>
<path d="M8 120H0V128H8V120Z" fill="#2F80ED"/>
<path d="M24 120H16V128H24V120Z" fill="#2F80ED"/>
<path d="M40 120H32V128H40V120Z" fill="#2F80ED"/>
<path d="M56 120H48V128H56V120Z" fill="#2F80ED"/>
<path d="M72 120H64V128H72V120Z" fill="#2F80ED"/>
<path d="M88 120H80V128H88V120Z" fill="#2F80ED"/>
<path d="M104 120H96V128H104V120Z" fill="#2F80ED"/>
<path d="M120 120H112V128H120V120Z" fill="#2F80ED"/>
</svg>
