<svg width="128" height="128" viewBox="0 0 128 128" fill="none" xmlns="http://www.w3.org/2000/svg">
<rect width="128" height="128" fill="white"/>
<path d="M8 16H0V24H8V16Z" fill="black"/>
<path d="M24 16H16V24H24V16Z" fill="black"/>
<path d="M48 16H40V24H48V16Z" fill="black"/>
<path d="M8 24H0V32H8V24Z" fill="black"/>
<path d="M24 24H16V32H24V24Z" fill="black"/>
<path d="M40 24H32V32H40V24Z" fill="black"/>
<path d="M72 24H64V32H72V24Z" fill="#F2C94C"/>
<path d="M80 24H72V32H80V24Z" fill="#F2C94C"/>
<path d="M88 24H80V32H88V24Z" fill="black"/>
<path d="M96 24H88V32H96V24Z" fill="black"/>
<path d="M8 32H0V40H8V32Z" fill="black"/>
<path d="M24 32H16V40H24V32Z" fill="black"/>
<path d="M40 32H32V40H40V32Z" fill="black"/>
<path d="M64 32H56V40H64V32Z" fill="#F2C94C"/>
<path d="M72 32H64V40H72V32Z" fill="#F2C94C"/>
<path d="M56 40H48V48H56V40Z" fill="#F2C94C"/>
<path d="M64 40H56V48H64V40Z" fill="#F2C94C"/>
<path d="M72 40H64V48H72V40Z" fill="#F2C94C"/>
<path d="M8 48H0V56H8V48Z" fill="#F2C94C"/>
<path d="M16 48H8V56H16V48Z" fill="#F2C94C"/>
<path d="M24 48H16V56H24V48Z" fill="#F2C94C"/>
<path d="M32 48H24V56H32V48Z" fill="#F2C94C"/>
<path d="M56 48H48V56H56V48Z" fill="#F2C94C"/>
<path d="M64 48H56V56H64V48Z" fill="#F2C94C"/>
<path d="M8 56H0V64H8V56Z" fill="#F2C94C"/>
<path d="M16 56H8V64H16V56Z" fill="#F2C94C"/>
<path d="M24 56H16V64H24V56Z" fill="#F2C94C"/>
<path d="M32 56H24V64H32V56Z" fill="#F2C94C"/>
<path d="M48 56H40V64H48V56Z" fill="#F2C94C"/>
<path d="M56 56H48V64H56V56Z" fill="#F2C94C"/>
<path d="M64 56H56V64H64V56Z" fill="#F2C94C"/>
<path d="M8 64H0V72H8V64Z" fill="#F2C94C"/>
<path d="M16 64H8V72H16V64Z" fill="#F2C94C"/>
<path d="M24 64H16V72H24V64Z" fill="#F2C94C"/>
<path d="M32 64H24V72H32V64Z" fill="#F2C94C"/>
<path d="M48 64H40V72H48V64Z" fill="#F2C94C"/>
<path d="M56 64H48V72H56V64Z" fill="#F2C94C"/>
<path d="M64 64H56V72H64V64Z" fill="#F2C94C"/>
<path d="M8 72H0V80H8V72Z" fill="#F2C94C"/>
<path d="M16 72H8V80H16V72Z" fill="#F2C94C"/>
<path d="M24 72H16V80H24V72Z" fill="#F2C94C"/>
<path d="M32 72H24V80H32V72Z" fill="#F2C94C"/>
<path d="M40 72H32V80H40V72Z" fill="#F2C94C"/>
<path d="M48 72H40V80H48V72Z" fill="#F2C94C"/>
<path d="M56 72H48V80H56V72Z" fill="#F2C94C"/>
<path d="M64 72H56V80H64V72Z" fill="#F2C94C"/>
<path d="M16 80H8V88H16V80Z" fill="#F2C94C"/>
<path d="M24 80H16V88H24V80Z" fill="#F2C94C"/>
<path d="M32 80H24V88H32V80Z" fill="#F2C94C"/>
<path d="M40 80H32V88H40V80Z" fill="#F2C94C"/>
<path d="M48 80H40V88H48V80Z" fill="#F2C94C"/>
<path d="M56 80H48V88H56V80Z" fill="#F2C94C"/>
<path d="M80 80H72V88H80V80Z" fill="black"/>
<path d="M88 80H80V88H88V80Z" fill="black"/>
<path d="M96 80H88V88H96V80Z" fill="black"/>
<path d="M16 88H8V96H16V88Z" fill="#F2C94C"/>
<path d="M24 88H16V96H24V88Z" fill="#F2C94C"/>
<path d="M32 88H24V96H32V88Z" fill="#F2C94C"/>
<path d="M40 88H32V96H40V88Z" fill="#F2C94C"/>
<path d="M48 88H40V96H48V88Z" fill="#F2C94C"/>
<path d="M56 88H48V96H56V88Z" fill="#F2C94C"/>
<path d="M80 88H72V96H80V88Z" fill="black"/>
<path d="M32 96H24V104H32V96Z" fill="#F2C94C"/>
<path d="M40 96H32V104H40V96Z" fill="#F2C94C"/>
<path d="M80 96H72V104H80V96Z" fill="black"/>
<path d="M72 104H64V112H72V104Z" fill="black"/>
<path d="M80 104H72V112H80V104Z" fill="black"/>
<path d="M88 104H80V112H88V104Z" fill="black"/>
<path d="M72 112H64V120H72V112Z" fill="black"/>
<path d="M80 112H72V120H80V112Z" fill="black"/>
<path d="M88 112H80V120H88V112Z" fill="black"/>
</svg>
