<svg width="128" height="128" viewBox="0 0 128 128" fill="none" xmlns="http://www.w3.org/2000/svg">
<rect width="128" height="128" fill="white"/>
<path d="M24 32H16V40H24V32Z" fill="#EB5757"/>
<path d="M40 32H32V40H40V32Z" fill="#EB5757"/>
<path d="M56 32H48V40H56V32Z" fill="black"/>
<path d="M80 32H72V40H80V32Z" fill="black"/>
<path d="M96 32H88V40H96V32Z" fill="#EB5757"/>
<path d="M112 32H104V40H112V32Z" fill="#EB5757"/>
<path d="M24 40H16V48H24V40Z" fill="#EB5757"/>
<path d="M32 40H24V48H32V40Z" fill="#EB5757"/>
<path d="M40 40H32V48H40V40Z" fill="#EB5757"/>
<path d="M56 40H48V48H56V40Z" fill="#F2C94C"/>
<path d="M64 40H56V48H64V40Z" fill="#EB5757"/>
<path d="M72 40H64V48H72V40Z" fill="#EB5757"/>
<path d="M80 40H72V48H80V40Z" fill="#F2C94C"/>
<path d="M96 40H88V48H96V40Z" fill="#EB5757"/>
<path d="M104 40H96V48H104V40Z" fill="#EB5757"/>
<path d="M112 40H104V48H112V40Z" fill="#EB5757"/>
<path d="M32 48H24V56H32V48Z" fill="#EB5757"/>
<path d="M40 48H32V56H40V48Z" fill="#EB5757"/>
<path d="M64 48H56V56H64V48Z" fill="#EB5757"/>
<path d="M72 48H64V56H72V48Z" fill="#EB5757"/>
<path d="M96 48H88V56H96V48Z" fill="#EB5757"/>
<path d="M104 48H96V56H104V48Z" fill="#EB5757"/>
<path d="M48 56H40V64H48V56Z" fill="#EB5757"/>
<path d="M56 56H48V64H56V56Z" fill="#EB5757"/>
<path d="M64 56H56V64H64V56Z" fill="#EB5757"/>
<path d="M72 56H64V64H72V56Z" fill="#EB5757"/>
<path d="M80 56H72V64H80V56Z" fill="#EB5757"/>
<path d="M88 56H80V64H88V56Z" fill="#EB5757"/>
<path d="M96 56H88V64H96V56Z" fill="#EB5757"/>
<path d="M48 64H40V72H48V64Z" fill="#EB5757"/>
<path d="M56 64H48V72H56V64Z" fill="#EB5757"/>
<path d="M64 64H56V72H64V64Z" fill="#EB5757"/>
<path d="M72 64H64V72H72V64Z" fill="#EB5757"/>
<path d="M80 64H72V72H80V64Z" fill="#EB5757"/>
<path d="M40 72H32V80H40V72Z" fill="#EB5757"/>
<path d="M56 72H48V80H56V72Z" fill="#EB5757"/>
<path d="M64 72H56V80H64V72Z" fill="#EB5757"/>
<path d="M72 72H64V80H72V72Z" fill="#EB5757"/>
<path d="M80 72H72V80H80V72Z" fill="#EB5757"/>
<path d="M96 72H88V80H96V72Z" fill="#EB5757"/>
<path d="M48 80H40V88H48V80Z" fill="#EB5757"/>
<path d="M56 80H48V88H56V80Z" fill="#EB5757"/>
<path d="M64 80H56V88H64V80Z" fill="#EB5757"/>
<path d="M72 80H64V88H72V80Z" fill="#EB5757"/>
<path d="M80 80H72V88H80V80Z" fill="#EB5757"/>
<path d="M88 80H80V88H88V80Z" fill="#EB5757"/>
<path d="M40 88H32V96H40V88Z" fill="#EB5757"/>
<path d="M56 88H48V96H56V88Z" fill="#EB5757"/>
<path d="M64 88H56V96H64V88Z" fill="#EB5757"/>
<path d="M72 88H64V96H72V88Z" fill="#EB5757"/>
<path d="M80 88H72V96H80V88Z" fill="#EB5757"/>
<path d="M96 88H88V96H96V88Z" fill="#EB5757"/>
<path d="M64 96H56V104H64V96Z" fill="#EB5757"/>
<path d="M72 96H64V104H72V96Z" fill="#EB5757"/>
<path d="M64 104H56V112H64V104Z" fill="#EB5757"/>
<path d="M72 104H64V112H72V104Z" fill="#EB5757"/>
<path d="M56 112H48V120H56V112Z" fill="#EB5757"/>
<path d="M64 112H56V120H64V112Z" fill="#EB5757"/>
<path d="M80 112H72V120H80V112Z" fill="#EB5757"/>
</svg>
