<svg width="128" height="128" viewBox="0 0 128 128" fill="none" xmlns="http://www.w3.org/2000/svg">
<rect width="128" height="128" fill="white"/>
<path d="M32 16H24V24H32V16Z" fill="#EB5757"/>
<path d="M40 16H32V24H40V16Z" fill="#EB5757"/>
<path d="M48 16H40V24H48V16Z" fill="#EB5757"/>
<path d="M80 16H72V24H80V16Z" fill="#EB5757"/>
<path d="M88 16H80V24H88V16Z" fill="#EB5757"/>
<path d="M96 16H88V24H96V16Z" fill="#EB5757"/>
<path d="M32 24H24V32H32V24Z" fill="#EB5757"/>
<path d="M40 24H32V32H40V24Z" fill="#EB5757"/>
<path d="M88 24H80V32H88V24Z" fill="#EB5757"/>
<path d="M96 24H88V32H96V24Z" fill="#EB5757"/>
<path d="M32 32H24V40H32V32Z" fill="#EB5757"/>
<path d="M40 32H32V40H40V32Z" fill="#EB5757"/>
<path d="M48 32H40V40H48V32Z" fill="#EB5757"/>
<path d="M80 32H72V40H80V32Z" fill="#EB5757"/>
<path d="M88 32H80V40H88V32Z" fill="#EB5757"/>
<path d="M96 32H88V40H96V32Z" fill="#EB5757"/>
<path d="M32 40H24V48H32V40Z" fill="#EB5757"/>
<path d="M96 40H88V48H96V40Z" fill="#EB5757"/>
<path d="M32 48H24V56H32V48Z" fill="#EB5757"/>
<path d="M56 48H48V56H56V48Z" fill="#EB5757"/>
<path d="M72 48H64V56H72V48Z" fill="#EB5757"/>
<path d="M96 48H88V56H96V48Z" fill="#EB5757"/>
<path d="M32 56H24V64H32V56Z" fill="#EB5757"/>
<path d="M56 56H48V64H56V56Z" fill="black"/>
<path d="M72 56H64V64H72V56Z" fill="black"/>
<path d="M96 56H88V64H96V56Z" fill="#EB5757"/>
<path d="M32 64H24V72H32V64Z" fill="#EB5757"/>
<path d="M40 64H32V72H40V64Z" fill="#EB5757"/>
<path d="M48 64H40V72H48V64Z" fill="#EB5757"/>
<path d="M56 64H48V72H56V64Z" fill="#EB5757"/>
<path d="M64 64H56V72H64V64Z" fill="#EB5757"/>
<path d="M72 64H64V72H72V64Z" fill="#EB5757"/>
<path d="M80 64H72V72H80V64Z" fill="#EB5757"/>
<path d="M88 64H80V72H88V64Z" fill="#EB5757"/>
<path d="M96 64H88V72H96V64Z" fill="#EB5757"/>
<path d="M56 72H48V80H56V72Z" fill="#EB5757"/>
<path d="M64 72H56V80H64V72Z" fill="#EB5757"/>
<path d="M72 72H64V80H72V72Z" fill="#EB5757"/>
<path d="M40 80H32V88H40V80Z" fill="#EB5757"/>
<path d="M48 80H40V88H48V80Z" fill="#EB5757"/>
<path d="M56 80H48V88H56V80Z" fill="#EB5757"/>
<path d="M64 80H56V88H64V80Z" fill="#EB5757"/>
<path d="M72 80H64V88H72V80Z" fill="#EB5757"/>
<path d="M80 80H72V88H80V80Z" fill="#EB5757"/>
<path d="M88 80H80V88H88V80Z" fill="#EB5757"/>
<path d="M56 88H48V96H56V88Z" fill="#EB5757"/>
<path d="M64 88H56V96H64V88Z" fill="#EB5757"/>
<path d="M72 88H64V96H72V88Z" fill="#EB5757"/>
<path d="M40 96H32V104H40V96Z" fill="#EB5757"/>
<path d="M48 96H40V104H48V96Z" fill="#EB5757"/>
<path d="M64 96H56V104H64V96Z" fill="#EB5757"/>
<path d="M80 96H72V104H80V96Z" fill="#EB5757"/>
<path d="M88 96H80V104H88V96Z" fill="#EB5757"/>
<path d="M56 104H48V112H56V104Z" fill="#EB5757"/>
<path d="M64 104H56V112H64V104Z" fill="#EB5757"/>
<path d="M72 104H64V112H72V104Z" fill="#EB5757"/>
<path d="M48 112H40V120H48V112Z" fill="#EB5757"/>
<path d="M56 112H48V120H56V112Z" fill="#EB5757"/>
<path d="M64 112H56V120H64V112Z" fill="#EB5757"/>
<path d="M72 112H64V120H72V112Z" fill="#EB5757"/>
<path d="M80 112H72V120H80V112Z" fill="#EB5757"/>
</svg>
