<svg width="128" height="128" viewBox="0 0 128 128" fill="none" xmlns="http://www.w3.org/2000/svg">
<rect width="128" height="128" fill="white"/>
<path d="M40 16H32V24H40V16Z" fill="#EB5757"/>
<path d="M48 16H40V24H48V16Z" fill="#EB5757"/>
<path d="M56 16H48V24H56V16Z" fill="#EB5757"/>
<path d="M64 16H56V24H64V16Z" fill="#EB5757"/>
<path d="M40 24H32V32H40V24Z" fill="black"/>
<path d="M48 24H40V32H48V24Z" fill="black"/>
<path d="M56 24H48V32H56V24Z" fill="black"/>
<path d="M64 24H56V32H64V24Z" fill="#EB5757"/>
<path d="M72 24H64V32H72V24Z" fill="#EB5757"/>
<path d="M40 32H32V40H40V32Z" fill="black"/>
<path d="M64 32H56V40H64V32Z" fill="#EB5757"/>
<path d="M72 32H64V40H72V32Z" fill="#EB5757"/>
<path d="M40 40H32V48H40V40Z" fill="black"/>
<path d="M64 40H56V48H64V40Z" fill="black"/>
<path d="M72 40H64V48H72V40Z" fill="#EB5757"/>
<path d="M80 40H72V48H80V40Z" fill="#EB5757"/>
<path d="M88 40H80V48H88V40Z" fill="#EB5757"/>
<path d="M40 48H32V56H40V48Z" fill="black"/>
<path d="M48 48H40V56H48V48Z" fill="black"/>
<path d="M56 48H48V56H56V48Z" fill="black"/>
<path d="M64 48H56V56H64V48Z" fill="black"/>
<path d="M80 48H72V56H80V48Z" fill="#EB5757"/>
<path d="M88 48H80V56H88V48Z" fill="#EB5757"/>
<path d="M56 56H48V64H56V56Z" fill="black"/>
<path d="M80 56H72V64H80V56Z" fill="#EB5757"/>
<path d="M88 56H80V64H88V56Z" fill="#EB5757"/>
<path d="M56 64H48V72H56V64Z" fill="black"/>
<path d="M80 64H72V72H80V64Z" fill="#EB5757"/>
<path d="M88 64H80V72H88V64Z" fill="#EB5757"/>
<path d="M48 72H40V80H48V72Z" fill="#9B51E0"/>
<path d="M56 72H48V80H56V72Z" fill="black"/>
<path d="M64 72H56V80H64V72Z" fill="#9B51E0"/>
<path d="M88 72H80V80H88V72Z" fill="#EB5757"/>
<path d="M96 72H88V80H96V72Z" fill="#EB5757"/>
<path d="M56 80H48V88H56V80Z" fill="black"/>
<path d="M48 88H40V96H48V88Z" fill="#27AE60"/>
<path d="M56 88H48V96H56V88Z" fill="#27AE60"/>
<path d="M64 88H56V96H64V88Z" fill="#27AE60"/>
<path d="M72 88H64V96H72V88Z" fill="#27AE60"/>
<path d="M48 96H40V104H48V96Z" fill="#27AE60"/>
<path d="M56 96H48V104H56V96Z" fill="#27AE60"/>
<path d="M64 96H56V104H64V96Z" fill="#27AE60"/>
<path d="M48 104H40V112H48V104Z" fill="#27AE60"/>
<path d="M56 104H48V112H56V104Z" fill="#27AE60"/>
<path d="M64 104H56V112H64V104Z" fill="#27AE60"/>
<path d="M56 112H48V120H56V112Z" fill="#27AE60"/>
<path d="M64 112H56V120H64V112Z" fill="#27AE60"/>
<path d="M72 112H64V120H72V112Z" fill="#27AE60"/>
<path d="M80 112H72V120H80V112Z" fill="#27AE60"/>
<path d="M72 120H64V128H72V120Z" fill="#27AE60"/>
</svg>
