<svg width="128" height="128" viewBox="0 0 128 128" fill="none" xmlns="http://www.w3.org/2000/svg">
<rect width="128" height="128" fill="white"/>
<path d="M40 32H32V40H40V32Z" fill="#F2994A"/>
<path d="M48 32H40V40H48V32Z" fill="#F2994A"/>
<path d="M56 32H48V40H56V32Z" fill="#F2994A"/>
<path d="M64 32H56V40H64V32Z" fill="#F2994A"/>
<path d="M72 32H64V40H72V32Z" fill="#F2994A"/>
<path d="M80 32H72V40H80V32Z" fill="#F2994A"/>
<path d="M88 32H80V40H88V32Z" fill="#F2994A"/>
<path d="M32 40H24V48H32V40Z" fill="#F2994A"/>
<path d="M96 40H88V48H96V40Z" fill="#F2994A"/>
<path d="M24 48H16V56H24V48Z" fill="#F2994A"/>
<path d="M104 48H96V56H104V48Z" fill="#F2994A"/>
<path d="M24 56H16V64H24V56Z" fill="#F2994A"/>
<path d="M40 56H32V64H40V56Z" fill="#2F80ED"/>
<path d="M88 56H80V64H88V56Z" fill="#2F80ED"/>
<path d="M104 56H96V64H104V56Z" fill="#F2994A"/>
<path d="M16 64H8V72H16V64Z" fill="#F2994A"/>
<path d="M40 64H32V72H40V64Z" fill="black"/>
<path d="M56 64H48V72H56V64Z" fill="black"/>
<path d="M64 64H56V72H64V64Z" fill="black"/>
<path d="M72 64H64V72H72V64Z" fill="black"/>
<path d="M88 64H80V72H88V64Z" fill="black"/>
<path d="M112 64H104V72H112V64Z" fill="#F2994A"/>
<path d="M8 72H0V80H8V72Z" fill="#F2994A"/>
<path d="M64 72H56V80H64V72Z" fill="black"/>
<path d="M120 72H112V80H120V72Z" fill="#F2994A"/>
<path d="M32 80H24V88H32V80Z" fill="#F2994A"/>
<path d="M64 80H56V88H64V80Z" fill="#F2994A"/>
<path d="M96 80H88V88H96V80Z" fill="#F2994A"/>
<path d="M128 80H120V88H128V80Z" fill="#F2994A"/>
<path d="M16 88H8V96H16V88Z" fill="#F2994A"/>
<path d="M40 88H32V96H40V88Z" fill="#F2994A"/>
<path d="M48 88H40V96H48V88Z" fill="#F2994A"/>
<path d="M56 88H48V96H56V88Z" fill="#F2994A"/>
<path d="M72 88H64V96H72V88Z" fill="#F2994A"/>
<path d="M80 88H72V96H80V88Z" fill="#F2994A"/>
<path d="M88 88H80V96H88V88Z" fill="#F2994A"/>
<path d="M128 88H120V96H128V88Z" fill="#F2994A"/>
<path d="M16 96H8V104H16V96Z" fill="#F2994A"/>
<path d="M104 96H96V104H104V96Z" fill="#F2994A"/>
<path d="M112 96H104V104H112V96Z" fill="#F2994A"/>
<path d="M8 104H0V112H8V104Z" fill="#F2994A"/>
<path d="M24 104H16V112H24V104Z" fill="#F2994A"/>
<path d="M32 104H24V112H32V104Z" fill="#F2994A"/>
<path d="M40 104H32V112H40V104Z" fill="#F2994A"/>
<path d="M48 104H40V112H48V104Z" fill="#F2994A"/>
<path d="M56 104H48V112H56V104Z" fill="#F2994A"/>
<path d="M64 104H56V112H64V104Z" fill="#F2994A"/>
<path d="M72 104H64V112H72V104Z" fill="#F2994A"/>
<path d="M80 104H72V112H80V104Z" fill="#F2994A"/>
<path d="M88 104H80V112H88V104Z" fill="#F2994A"/>
<path d="M96 104H88V112H96V104Z" fill="#F2994A"/>
<path d="M112 104H104V112H112V104Z" fill="#F2994A"/>
<path d="M128 104H120V112H128V104Z" fill="#F2994A"/>
<path d="M24 112H16V120H24V112Z" fill="#EB5757"/>
<path d="M32 112H24V120H32V112Z" fill="#EB5757"/>
<path d="M40 112H32V120H40V112Z" fill="#EB5757"/>
<path d="M48 112H40V120H48V112Z" fill="#EB5757"/>
<path d="M56 112H48V120H56V112Z" fill="#2F80ED"/>
<path d="M64 112H56V120H64V112Z" fill="#27AE60"/>
<path d="M72 112H64V120H72V112Z" fill="#2F80ED"/>
<path d="M80 112H72V120H80V112Z" fill="#EB5757"/>
<path d="M88 112H80V120H88V112Z" fill="#EB5757"/>
<path d="M96 112H88V120H96V112Z" fill="#EB5757"/>
<path d="M120 112H112V120H120V112Z" fill="#F2994A"/>
<path d="M24 120H16V128H24V120Z" fill="#EB5757"/>
<path d="M32 120H24V128H32V120Z" fill="#EB5757"/>
<path d="M40 120H32V128H40V120Z" fill="#EB5757"/>
<path d="M48 120H40V128H48V120Z" fill="#EB5757"/>
<path d="M56 120H48V128H56V120Z" fill="#27AE60"/>
<path d="M64 120H56V128H64V120Z" fill="#2F80ED"/>
<path d="M72 120H64V128H72V120Z" fill="#2F80ED"/>
<path d="M80 120H72V128H80V120Z" fill="#EB5757"/>
<path d="M88 120H80V128H88V120Z" fill="#EB5757"/>
<path d="M96 120H88V128H96V120Z" fill="#EB5757"/>
</svg>
