<svg width="128" height="128" viewBox="0 0 128 128" fill="none" xmlns="http://www.w3.org/2000/svg">
<rect width="128" height="128" fill="white"/>
<path d="M48 0H40V8H48V0Z" fill="black"/>
<path d="M40 8H32V16H40V8Z" fill="black"/>
<path d="M80 8H72V16H80V8Z" fill="black"/>
<path d="M104 8H96V16H104V8Z" fill="black"/>
<path d="M48 16H40V24H48V16Z" fill="black"/>
<path d="M112 16H104V24H112V16Z" fill="black"/>
<path d="M80 24H72V32H80V24Z" fill="black"/>
<path d="M104 24H96V32H104V24Z" fill="black"/>
<path d="M80 32H72V40H80V32Z" fill="black"/>
<path d="M48 40H40V48H48V40Z" fill="black"/>
<path d="M56 40H48V48H56V40Z" fill="black"/>
<path d="M64 40H56V48H64V40Z" fill="black"/>
<path d="M72 40H64V48H72V40Z" fill="black"/>
<path d="M80 40H72V48H80V40Z" fill="black"/>
<path d="M48 48H40V56H48V48Z" fill="black"/>
<path d="M80 48H72V56H80V48Z" fill="black"/>
<path d="M48 56H40V64H48V56Z" fill="black"/>
<path d="M80 56H72V64H80V56Z" fill="black"/>
<path d="M48 64H40V72H48V64Z" fill="black"/>
<path d="M80 64H72V72H80V64Z" fill="black"/>
<path d="M48 72H40V80H48V72Z" fill="black"/>
<path d="M80 72H72V80H80V72Z" fill="black"/>
<path d="M48 80H40V88H48V80Z" fill="black"/>
<path d="M80 80H72V88H80V80Z" fill="black"/>
<path d="M48 88H40V96H48V88Z" fill="black"/>
<path d="M56 88H48V96H56V88Z" fill="black"/>
<path d="M64 88H56V96H64V88Z" fill="black"/>
<path d="M72 88H64V96H72V88Z" fill="black"/>
<path d="M80 88H72V96H80V88Z" fill="black"/>
<path d="M48 96H40V104H48V96Z" fill="black"/>
<path d="M64 96H56V104H64V96Z" fill="black"/>
<path d="M80 96H72V104H80V96Z" fill="black"/>
<path d="M48 104H40V112H48V104Z" fill="black"/>
<path d="M56 104H48V112H56V104Z" fill="black"/>
<path d="M72 104H64V112H72V104Z" fill="black"/>
<path d="M80 104H72V112H80V104Z" fill="black"/>
<path d="M48 112H40V120H48V112Z" fill="black"/>
<path d="M56 112H48V120H56V112Z" fill="black"/>
<path d="M64 112H56V120H64V112Z" fill="black"/>
<path d="M72 112H64V120H72V112Z" fill="black"/>
<path d="M80 112H72V120H80V112Z" fill="black"/>
</svg>
