<svg width="128" height="128" viewBox="0 0 128 128" fill="none" xmlns="http://www.w3.org/2000/svg">
<rect width="128" height="128" fill="white"/>
<path d="M32 24H24V32H32V24Z" fill="#EB5757"/>
<path d="M40 24H32V32H40V24Z" fill="#EB5757"/>
<path d="M88 24H80V32H88V24Z" fill="#EB5757"/>
<path d="M96 24H88V32H96V24Z" fill="#EB5757"/>
<path d="M24 32H16V40H24V32Z" fill="#EB5757"/>
<path d="M32 32H24V40H32V32Z" fill="#EB5757"/>
<path d="M40 32H32V40H40V32Z" fill="#EB5757"/>
<path d="M48 32H40V40H48V32Z" fill="#EB5757"/>
<path d="M56 32H48V40H56V32Z" fill="#EB5757"/>
<path d="M64 32H56V40H64V32Z" fill="#EB5757"/>
<path d="M72 32H64V40H72V32Z" fill="#EB5757"/>
<path d="M80 32H72V40H80V32Z" fill="#EB5757"/>
<path d="M88 32H80V40H88V32Z" fill="#EB5757"/>
<path d="M96 32H88V40H96V32Z" fill="#EB5757"/>
<path d="M104 32H96V40H104V32Z" fill="#EB5757"/>
<path d="M40 40H32V48H40V40Z" fill="#EB5757"/>
<path d="M48 40H40V48H48V40Z" fill="#EB5757"/>
<path d="M56 40H48V48H56V40Z" fill="#EB5757"/>
<path d="M64 40H56V48H64V40Z" fill="#EB5757"/>
<path d="M72 40H64V48H72V40Z" fill="#EB5757"/>
<path d="M80 40H72V48H80V40Z" fill="#EB5757"/>
<path d="M88 40H80V48H88V40Z" fill="#EB5757"/>
<path d="M40 48H32V56H40V48Z" fill="#EB5757"/>
<path d="M56 48H48V56H56V48Z" fill="black"/>
<path d="M64 48H56V56H64V48Z" fill="#EB5757"/>
<path d="M80 48H72V56H80V48Z" fill="black"/>
<path d="M88 48H80V56H88V48Z" fill="#EB5757"/>
<path d="M40 56H32V64H40V56Z" fill="#EB5757"/>
<path d="M48 56H40V64H48V56Z" fill="#EB5757"/>
<path d="M56 56H48V64H56V56Z" fill="#EB5757"/>
<path d="M64 56H56V64H64V56Z" fill="#EB5757"/>
<path d="M72 56H64V64H72V56Z" fill="#EB5757"/>
<path d="M80 56H72V64H80V56Z" fill="#EB5757"/>
<path d="M88 56H80V64H88V56Z" fill="#EB5757"/>
<path d="M120 56H112V64H120V56Z" fill="#EB5757"/>
<path d="M40 64H32V72H40V64Z" fill="#EB5757"/>
<path d="M48 64H40V72H48V64Z" fill="#EB5757"/>
<path d="M56 64H48V72H56V64Z" fill="black"/>
<path d="M64 64H56V72H64V64Z" fill="#F2994A"/>
<path d="M72 64H64V72H72V64Z" fill="black"/>
<path d="M80 64H72V72H80V64Z" fill="#EB5757"/>
<path d="M88 64H80V72H88V64Z" fill="#EB5757"/>
<path d="M112 64H104V72H112V64Z" fill="#EB5757"/>
<path d="M40 72H32V80H40V72Z" fill="#EB5757"/>
<path d="M48 72H40V80H48V72Z" fill="#EB5757"/>
<path d="M56 72H48V80H56V72Z" fill="#EB5757"/>
<path d="M64 72H56V80H64V72Z" fill="#EB5757"/>
<path d="M72 72H64V80H72V72Z" fill="#EB5757"/>
<path d="M80 72H72V80H80V72Z" fill="#EB5757"/>
<path d="M88 72H80V80H88V72Z" fill="#EB5757"/>
<path d="M96 72H88V80H96V72Z" fill="#EB5757"/>
<path d="M104 72H96V80H104V72Z" fill="#EB5757"/>
<path d="M56 80H48V88H56V80Z" fill="#EB5757"/>
<path d="M64 80H56V88H64V80Z" fill="#EB5757"/>
<path d="M72 80H64V88H72V80Z" fill="#EB5757"/>
<path d="M80 80H72V88H80V80Z" fill="#EB5757"/>
<path d="M88 80H80V88H88V80Z" fill="#EB5757"/>
<path d="M96 80H88V88H96V80Z" fill="#EB5757"/>
<path d="M104 80H96V88H104V80Z" fill="#EB5757"/>
<path d="M56 88H48V96H56V88Z" fill="#EB5757"/>
<path d="M64 88H56V96H64V88Z" fill="#EB5757"/>
<path d="M72 88H64V96H72V88Z" fill="#EB5757"/>
<path d="M80 88H72V96H80V88Z" fill="#EB5757"/>
<path d="M88 88H80V96H88V88Z" fill="#EB5757"/>
<path d="M96 88H88V96H96V88Z" fill="#EB5757"/>
<path d="M104 88H96V96H104V88Z" fill="#EB5757"/>
<path d="M56 96H48V104H56V96Z" fill="#EB5757"/>
<path d="M64 96H56V104H64V96Z" fill="#EB5757"/>
<path d="M72 96H64V104H72V96Z" fill="#EB5757"/>
<path d="M80 96H72V104H80V96Z" fill="#EB5757"/>
<path d="M88 96H80V104H88V96Z" fill="#EB5757"/>
<path d="M96 96H88V104H96V96Z" fill="#EB5757"/>
<path d="M104 96H96V104H104V96Z" fill="#EB5757"/>
</svg>
