<svg width="128" height="128" viewBox="0 0 128 128" fill="none" xmlns="http://www.w3.org/2000/svg">
<g clip-path="url(#clip0_6348_45006)">
<rect width="128" height="128" fill="white"/>
<path d="M8 0H0V8H8V0Z" fill="#2F80ED"/>
<path d="M16 0H8V8H16V0Z" fill="#2F80ED"/>
<path d="M24 0H16V8H24V0Z" fill="#2F80ED"/>
<path d="M32 0H24V8H32V0Z" fill="#EB5757"/>
<path d="M40 0H32V8H40V0Z" fill="#EB5757"/>
<path d="M48 0H40V8H48V0Z" fill="#F2C94C"/>
<path d="M88 0H80V8H88V0Z" fill="#F2C94C"/>
<path d="M96 0H88V8H96V0Z" fill="#F2C94C"/>
<path d="M104 0H96V8H104V0Z" fill="#EB5757"/>
<path d="M112 0H104V8H112V0Z" fill="#EB5757"/>
<path d="M120 0H112V8H120V0Z" fill="#2F80ED"/>
<path d="M128 0H120V8H128V0Z" fill="#2F80ED"/>
<path d="M8 8H0V16H8V8Z" fill="#2F80ED"/>
<path d="M16 8H8V16H16V8Z" fill="#2F80ED"/>
<path d="M24 8H16V16H24V8Z" fill="#EB5757"/>
<path d="M32 8H24V16H32V8Z" fill="#F2C94C"/>
<path d="M40 8H32V16H40V8Z" fill="#F2C94C"/>
<path d="M104 8H96V16H104V8Z" fill="#F2C94C"/>
<path d="M112 8H104V16H112V8Z" fill="#F2C94C"/>
<path d="M120 8H112V16H120V8Z" fill="#EB5757"/>
<path d="M128 8H120V16H128V8Z" fill="#2F80ED"/>
<path d="M8 16H0V24H8V16Z" fill="#2F80ED"/>
<path d="M16 16H8V24H16V16Z" fill="#EB5757"/>
<path d="M24 16H16V24H24V16Z" fill="#F2C94C"/>
<path d="M48 16H40V24H48V16Z" fill="#EB5757"/>
<path d="M96 16H88V24H96V16Z" fill="#EB5757"/>
<path d="M120 16H112V24H120V16Z" fill="#F2C94C"/>
<path d="M128 16H120V24H128V16Z" fill="#EB5757"/>
<path d="M8 24H0V32H8V24Z" fill="#EB5757"/>
<path d="M16 24H8V32H16V24Z" fill="#F2C94C"/>
<path d="M32 24H24V32H32V24Z" fill="#EB5757"/>
<path d="M40 24H32V32H40V24Z" fill="#EB5757"/>
<path d="M104 24H96V32H104V24Z" fill="#EB5757"/>
<path d="M112 24H104V32H112V24Z" fill="#EB5757"/>
<path d="M128 24H120V32H128V24Z" fill="black"/>
<path d="M8 32H0V40H8V32Z" fill="black"/>
<path d="M16 32H8V40H16V32Z" fill="#F2C94C"/>
<path d="M72 32H64V40H72V32Z" fill="#EB5757"/>
<path d="M128 32H120V40H128V32Z" fill="#F2C94C"/>
<path d="M8 40H0V48H8V40Z" fill="#F2C94C"/>
<path d="M32 40H24V48H32V40Z" fill="#27AE60"/>
<path d="M40 40H32V48H40V40Z" fill="black"/>
<path d="M56 40H48V48H56V40Z" fill="#EB5757"/>
<path d="M64 40H56V48H64V40Z" fill="#EB5757"/>
<path d="M72 40H64V48H72V40Z" fill="#F2C94C"/>
<path d="M80 40H72V48H80V40Z" fill="#EB5757"/>
<path d="M88 40H80V48H88V40Z" fill="#EB5757"/>
<path d="M104 40H96V48H104V40Z" fill="#27AE60"/>
<path d="M112 40H104V48H112V40Z" fill="black"/>
<path d="M32 48H24V56H32V48Z" fill="black"/>
<path d="M40 48H32V56H40V48Z" fill="#2F80ED"/>
<path d="M48 48H40V56H48V48Z" fill="#EB5757"/>
<path d="M56 48H48V56H56V48Z" fill="#F2C94C"/>
<path d="M64 48H56V56H64V48Z" fill="#F2C94C"/>
<path d="M80 48H72V56H80V48Z" fill="#F2C94C"/>
<path d="M88 48H80V56H88V48Z" fill="#F2C94C"/>
<path d="M96 48H88V56H96V48Z" fill="#EB5757"/>
<path d="M104 48H96V56H104V48Z" fill="black"/>
<path d="M112 48H104V56H112V48Z" fill="#2F80ED"/>
<path d="M40 56H32V64H40V56Z" fill="#EB5757"/>
<path d="M48 56H40V64H48V56Z" fill="#F2C94C"/>
<path d="M96 56H88V64H96V56Z" fill="#F2C94C"/>
<path d="M104 56H96V64H104V56Z" fill="#EB5757"/>
<path d="M32 64H24V72H32V64Z" fill="#EB5757"/>
<path d="M40 64H32V72H40V64Z" fill="#F2C94C"/>
<path d="M56 64H48V72H56V64Z" fill="#EB5757"/>
<path d="M88 64H80V72H88V64Z" fill="#EB5757"/>
<path d="M104 64H96V72H104V64Z" fill="#F2C94C"/>
<path d="M112 64H104V72H112V64Z" fill="#EB5757"/>
<path d="M16 72H8V80H16V72Z" fill="#EB5757"/>
<path d="M24 72H16V80H24V72Z" fill="#EB5757"/>
<path d="M32 72H24V80H32V72Z" fill="#EB5757"/>
<path d="M48 72H40V80H48V72Z" fill="#EB5757"/>
<path d="M56 72H48V80H56V72Z" fill="black"/>
<path d="M88 72H80V80H88V72Z" fill="black"/>
<path d="M96 72H88V80H96V72Z" fill="#EB5757"/>
<path d="M112 72H104V80H112V72Z" fill="#EB5757"/>
<path d="M120 72H112V80H120V72Z" fill="#EB5757"/>
<path d="M8 80H0V88H8V80Z" fill="#EB5757"/>
<path d="M16 80H8V88H16V80Z" fill="#F2C94C"/>
<path d="M24 80H16V88H24V80Z" fill="#F2C94C"/>
<path d="M32 80H24V88H32V80Z" fill="black"/>
<path d="M48 80H40V88H48V80Z" fill="#EB5757"/>
<path d="M56 80H48V88H56V80Z" fill="black"/>
<path d="M88 80H80V88H88V80Z" fill="black"/>
<path d="M96 80H88V88H96V80Z" fill="#EB5757"/>
<path d="M112 80H104V88H112V80Z" fill="black"/>
<path d="M120 80H112V88H120V80Z" fill="#F2C94C"/>
<path d="M128 80H120V88H128V80Z" fill="#EB5757"/>
<path d="M8 88H0V96H8V88Z" fill="#F2C94C"/>
<path d="M16 88H8V96H16V88Z" fill="#F2C94C"/>
<path d="M32 88H24V96H32V88Z" fill="black"/>
<path d="M40 88H32V96H40V88Z" fill="#EB5757"/>
<path d="M104 88H96V96H104V88Z" fill="#EB5757"/>
<path d="M112 88H104V96H112V88Z" fill="black"/>
<path d="M128 88H120V96H128V88Z" fill="#F2C94C"/>
<path d="M8 96H0V104H8V96Z" fill="#EB5757"/>
<path d="M16 96H8V104H16V96Z" fill="#F2C94C"/>
<path d="M24 96H16V104H24V96Z" fill="#EB5757"/>
<path d="M32 96H24V104H32V96Z" fill="#F2C94C"/>
<path d="M40 96H32V104H40V96Z" fill="black"/>
<path d="M48 96H40V104H48V96Z" fill="#EB5757"/>
<path d="M56 96H48V104H56V96Z" fill="#EB5757"/>
<path d="M64 96H56V104H64V96Z" fill="black"/>
<path d="M72 96H64V104H72V96Z" fill="black"/>
<path d="M80 96H72V104H80V96Z" fill="black"/>
<path d="M88 96H80V104H88V96Z" fill="#EB5757"/>
<path d="M96 96H88V104H96V96Z" fill="#EB5757"/>
<path d="M104 96H96V104H104V96Z" fill="black"/>
<path d="M112 96H104V104H112V96Z" fill="#F2C94C"/>
<path d="M128 96H120V104H128V96Z" fill="#F2C94C"/>
<path d="M8 104H0V112H8V104Z" fill="#F2C94C"/>
<path d="M16 104H8V112H16V104Z" fill="#EB5757"/>
<path d="M24 104H16V112H24V104Z" fill="#F2C94C"/>
<path d="M32 104H24V112H32V104Z" fill="#EB5757"/>
<path d="M40 104H32V112H40V104Z" fill="#F2C94C"/>
<path d="M48 104H40V112H48V104Z" fill="black"/>
<path d="M56 104H48V112H56V104Z" fill="black"/>
<path d="M64 104H56V112H64V104Z" fill="#F2994A"/>
<path d="M72 104H64V112H72V104Z" fill="#F2994A"/>
<path d="M80 104H72V112H80V104Z" fill="#F2994A"/>
<path d="M88 104H80V112H88V104Z" fill="black"/>
<path d="M96 104H88V112H96V104Z" fill="black"/>
<path d="M104 104H96V112H104V104Z" fill="#F2C94C"/>
<path d="M112 104H104V112H112V104Z" fill="#EB5757"/>
<path d="M120 104H112V112H120V104Z" fill="#F2C94C"/>
<path d="M128 104H120V112H128V104Z" fill="#EB5757"/>
<path d="M8 112H0V120H8V112Z" fill="#EB5757"/>
<path d="M16 112H8V120H16V112Z" fill="#F2C94C"/>
<path d="M24 112H16V120H24V112Z" fill="#EB5757"/>
<path d="M32 112H24V120H32V112Z" fill="#F2C94C"/>
<path d="M40 112H32V120H40V112Z" fill="#EB5757"/>
<path d="M48 112H40V120H48V112Z" fill="#F2C94C"/>
<path d="M56 112H48V120H56V112Z" fill="black"/>
<path d="M64 112H56V120H64V112Z" fill="#EB5757"/>
<path d="M72 112H64V120H72V112Z" fill="#EB5757"/>
<path d="M80 112H72V120H80V112Z" fill="#EB5757"/>
<path d="M88 112H80V120H88V112Z" fill="black"/>
<path d="M96 112H88V120H96V112Z" fill="#F2C94C"/>
<path d="M104 112H96V120H104V112Z" fill="#EB5757"/>
<path d="M112 112H104V120H112V112Z" fill="#F2C94C"/>
<path d="M120 112H112V120H120V112Z" fill="#EB5757"/>
<path d="M128 112H120V120H128V112Z" fill="#F2C94C"/>
<path d="M8 120H0V128H8V120Z" fill="#F2C94C"/>
<path d="M16 120H8V128H16V120Z" fill="#EB5757"/>
<path d="M24 120H16V128H24V120Z" fill="#F2C94C"/>
<path d="M32 120H24V128H32V120Z" fill="#EB5757"/>
<path d="M40 120H32V128H40V120Z" fill="#F2C94C"/>
<path d="M48 120H40V128H48V120Z" fill="#EB5757"/>
<path d="M56 120H48V128H56V120Z" fill="#F2C94C"/>
<path d="M64 120H56V128H64V120Z" fill="black"/>
<path d="M72 120H64V128H72V120Z" fill="black"/>
<path d="M80 120H72V128H80V120Z" fill="black"/>
<path d="M88 120H80V128H88V120Z" fill="#F2C94C"/>
<path d="M96 120H88V128H96V120Z" fill="black"/>
<path d="M104 120H96V128H104V120Z" fill="#F2C94C"/>
<path d="M112 120H104V128H112V120Z" fill="#EB5757"/>
<path d="M120 120H112V128H120V120Z" fill="#F2C94C"/>
<path d="M128 120H120V128H128V120Z" fill="#EB5757"/>
</g>
<defs>
<clipPath id="clip0_6348_45006">
<rect width="128" height="128" fill="white"/>
</clipPath>
</defs>
</svg>
