<svg width="128" height="128" viewBox="0 0 128 128" fill="none" xmlns="http://www.w3.org/2000/svg">
<rect width="128" height="128" fill="white"/>
<path d="M64 0H56V8H64V0Z" fill="#27AE60"/>
<path d="M48 8H40V16H48V8Z" fill="#27AE60"/>
<path d="M64 8H56V16H64V8Z" fill="#27AE60"/>
<path d="M88 8H80V16H88V8Z" fill="#27AE60"/>
<path d="M48 16H40V24H48V16Z" fill="#27AE60"/>
<path d="M64 16H56V24H64V16Z" fill="#27AE60"/>
<path d="M72 16H64V24H72V16Z" fill="#27AE60"/>
<path d="M88 16H80V24H88V16Z" fill="#27AE60"/>
<path d="M48 24H40V32H48V24Z" fill="#27AE60"/>
<path d="M64 24H56V32H64V24Z" fill="#27AE60"/>
<path d="M72 24H64V32H72V24Z" fill="#27AE60"/>
<path d="M80 24H72V32H80V24Z" fill="#27AE60"/>
<path d="M88 24H80V32H88V24Z" fill="#27AE60"/>
<path d="M56 32H48V40H56V32Z" fill="#27AE60"/>
<path d="M64 32H56V40H64V32Z" fill="#27AE60"/>
<path d="M72 32H64V40H72V32Z" fill="#27AE60"/>
<path d="M80 32H72V40H80V32Z" fill="#27AE60"/>
<path d="M48 40H40V48H48V40Z" fill="#27AE60"/>
<path d="M56 40H48V48H56V40Z" fill="#27AE60"/>
<path d="M64 40H56V48H64V40Z" fill="#27AE60"/>
<path d="M72 40H64V48H72V40Z" fill="#27AE60"/>
<path d="M80 40H72V48H80V40Z" fill="#27AE60"/>
<path d="M88 40H80V48H88V40Z" fill="#27AE60"/>
<path d="M56 48H48V56H56V48Z" fill="#F2994A"/>
<path d="M64 48H56V56H64V48Z" fill="#F2994A"/>
<path d="M72 48H64V56H72V48Z" fill="#F2994A"/>
<path d="M80 48H72V56H80V48Z" fill="#F2994A"/>
<path d="M48 56H40V64H48V56Z" fill="#F2994A"/>
<path d="M56 56H48V64H56V56Z" fill="#F2994A"/>
<path d="M64 56H56V64H64V56Z" fill="#F2994A"/>
<path d="M72 56H64V64H72V56Z" fill="#F2994A"/>
<path d="M80 56H72V64H80V56Z" fill="#F2994A"/>
<path d="M88 56H80V64H88V56Z" fill="#F2994A"/>
<path d="M48 64H40V72H48V64Z" fill="#F2994A"/>
<path d="M56 64H48V72H56V64Z" fill="#F2994A"/>
<path d="M64 64H56V72H64V64Z" fill="#F2994A"/>
<path d="M72 64H64V72H72V64Z" fill="#F2994A"/>
<path d="M80 64H72V72H80V64Z" fill="#F2C94C"/>
<path d="M88 64H80V72H88V64Z" fill="#F2994A"/>
<path d="M48 72H40V80H48V72Z" fill="#F2994A"/>
<path d="M56 72H48V80H56V72Z" fill="#F2994A"/>
<path d="M64 72H56V80H64V72Z" fill="#F2994A"/>
<path d="M72 72H64V80H72V72Z" fill="#F2994A"/>
<path d="M80 72H72V80H80V72Z" fill="#F2994A"/>
<path d="M88 72H80V80H88V72Z" fill="#F2994A"/>
<path d="M48 80H40V88H48V80Z" fill="#F2994A"/>
<path d="M56 80H48V88H56V80Z" fill="#F2994A"/>
<path d="M64 80H56V88H64V80Z" fill="#F2994A"/>
<path d="M72 80H64V88H72V80Z" fill="#F2994A"/>
<path d="M80 80H72V88H80V80Z" fill="#F2994A"/>
<path d="M88 80H80V88H88V80Z" fill="#F2994A"/>
<path d="M48 88H40V96H48V88Z" fill="#F2994A"/>
<path d="M56 88H48V96H56V88Z" fill="#F2C94C"/>
<path d="M64 88H56V96H64V88Z" fill="#F2994A"/>
<path d="M72 88H64V96H72V88Z" fill="#F2C94C"/>
<path d="M80 88H72V96H80V88Z" fill="#F2994A"/>
<path d="M88 88H80V96H88V88Z" fill="#F2994A"/>
<path d="M48 96H40V104H48V96Z" fill="#F2994A"/>
<path d="M56 96H48V104H56V96Z" fill="#F2994A"/>
<path d="M64 96H56V104H64V96Z" fill="#F2994A"/>
<path d="M72 96H64V104H72V96Z" fill="#F2994A"/>
<path d="M80 96H72V104H80V96Z" fill="#F2994A"/>
<path d="M88 96H80V104H88V96Z" fill="#F2994A"/>
<path d="M56 104H48V112H56V104Z" fill="#F2994A"/>
<path d="M64 104H56V112H64V104Z" fill="#F2994A"/>
<path d="M72 104H64V112H72V104Z" fill="#F2994A"/>
<path d="M80 104H72V112H80V104Z" fill="#F2994A"/>
</svg>
