<svg width="128" height="128" viewBox="0 0 128 128" fill="none" xmlns="http://www.w3.org/2000/svg">
<rect width="128" height="128" fill="white"/>
<path d="M64 16H56V24H64V16Z" fill="black"/>
<path d="M72 16H64V24H72V16Z" fill="black"/>
<path d="M80 16H72V24H80V16Z" fill="black"/>
<path d="M88 16H80V24H88V16Z" fill="black"/>
<path d="M96 16H88V24H96V16Z" fill="black"/>
<path d="M64 24H56V32H64V24Z" fill="#9B51E0"/>
<path d="M72 24H64V32H72V24Z" fill="#9B51E0"/>
<path d="M80 24H72V32H80V24Z" fill="#9B51E0"/>
<path d="M88 24H80V32H88V24Z" fill="#9B51E0"/>
<path d="M96 24H88V32H96V24Z" fill="#9B51E0"/>
<path d="M48 32H40V40H48V32Z" fill="black"/>
<path d="M56 32H48V40H56V32Z" fill="black"/>
<path d="M64 32H56V40H64V32Z" fill="black"/>
<path d="M72 32H64V40H72V32Z" fill="black"/>
<path d="M80 32H72V40H80V32Z" fill="black"/>
<path d="M88 32H80V40H88V32Z" fill="black"/>
<path d="M96 32H88V40H96V32Z" fill="black"/>
<path d="M104 32H96V40H104V32Z" fill="black"/>
<path d="M56 40H48V48H56V40Z" fill="#27AE60"/>
<path d="M64 40H56V48H64V40Z" fill="#27AE60"/>
<path d="M72 40H64V48H72V40Z" fill="#27AE60"/>
<path d="M80 40H72V48H80V40Z" fill="#27AE60"/>
<path d="M88 40H80V48H88V40Z" fill="#27AE60"/>
<path d="M96 40H88V48H96V40Z" fill="#27AE60"/>
<path d="M48 48H40V56H48V48Z" fill="black"/>
<path d="M56 48H48V56H56V48Z" fill="#F2C94C"/>
<path d="M64 48H56V56H64V48Z" fill="#27AE60"/>
<path d="M72 48H64V56H72V48Z" fill="black"/>
<path d="M80 48H72V56H80V48Z" fill="#F2C94C"/>
<path d="M88 48H80V56H88V48Z" fill="#27AE60"/>
<path d="M96 48H88V56H96V48Z" fill="#27AE60"/>
<path d="M40 56H32V64H40V56Z" fill="#F2994A"/>
<path d="M48 56H40V64H48V56Z" fill="#F2994A"/>
<path d="M56 56H48V64H56V56Z" fill="#F2994A"/>
<path d="M64 56H56V64H64V56Z" fill="#F2994A"/>
<path d="M72 56H64V64H72V56Z" fill="#F2994A"/>
<path d="M80 56H72V64H80V56Z" fill="#27AE60"/>
<path d="M88 56H80V64H88V56Z" fill="#27AE60"/>
<path d="M96 56H88V64H96V56Z" fill="#27AE60"/>
<path d="M48 64H40V72H48V64Z" fill="#F2994A"/>
<path d="M56 64H48V72H56V64Z" fill="#F2994A"/>
<path d="M64 64H56V72H64V64Z" fill="#F2994A"/>
<path d="M72 64H64V72H72V64Z" fill="#F2994A"/>
<path d="M80 64H72V72H80V64Z" fill="#27AE60"/>
<path d="M88 64H80V72H88V64Z" fill="#27AE60"/>
<path d="M96 64H88V72H96V64Z" fill="#27AE60"/>
<path d="M56 72H48V80H56V72Z" fill="#27AE60"/>
<path d="M64 72H56V80H64V72Z" fill="#27AE60"/>
<path d="M72 72H64V80H72V72Z" fill="#27AE60"/>
<path d="M80 72H72V80H80V72Z" fill="#27AE60"/>
<path d="M88 72H80V80H88V72Z" fill="#27AE60"/>
<path d="M8 80H0V88H8V80Z" fill="black"/>
<path d="M16 80H8V88H16V80Z" fill="black"/>
<path d="M24 80H16V88H24V80Z" fill="black"/>
<path d="M32 80H24V88H32V80Z" fill="black"/>
<path d="M64 80H56V88H64V80Z" fill="#27AE60"/>
<path d="M72 80H64V88H72V80Z" fill="#27AE60"/>
<path d="M80 80H72V88H80V80Z" fill="#27AE60"/>
<path d="M88 80H80V88H88V80Z" fill="#27AE60"/>
<path d="M32 88H24V96H32V88Z" fill="black"/>
<path d="M40 88H32V96H40V88Z" fill="#27AE60"/>
<path d="M48 88H40V96H48V88Z" fill="#27AE60"/>
<path d="M56 88H48V96H56V88Z" fill="#27AE60"/>
<path d="M64 88H56V96H64V88Z" fill="#27AE60"/>
<path d="M72 88H64V96H72V88Z" fill="#27AE60"/>
<path d="M80 88H72V96H80V88Z" fill="#27AE60"/>
<path d="M88 88H80V96H88V88Z" fill="#27AE60"/>
<path d="M96 88H88V96H96V88Z" fill="#27AE60"/>
<path d="M64 96H56V104H64V96Z" fill="#27AE60"/>
<path d="M72 96H64V104H72V96Z" fill="#27AE60"/>
<path d="M80 96H72V104H80V96Z" fill="#27AE60"/>
<path d="M88 96H80V104H88V96Z" fill="#27AE60"/>
<path d="M96 96H88V104H96V96Z" fill="#27AE60"/>
<path d="M72 104H64V112H72V104Z" fill="#27AE60"/>
<path d="M80 104H72V112H80V104Z" fill="#27AE60"/>
<path d="M88 104H80V112H88V104Z" fill="#27AE60"/>
<path d="M96 104H88V112H96V104Z" fill="#27AE60"/>
<path d="M104 104H96V112H104V104Z" fill="#EB5757"/>
<path d="M112 104H104V112H112V104Z" fill="#EB5757"/>
<path d="M120 104H112V112H120V104Z" fill="#EB5757"/>
<path d="M64 112H56V120H64V112Z" fill="#27AE60"/>
<path d="M88 112H80V120H88V112Z" fill="#27AE60"/>
<path d="M96 112H88V120H96V112Z" fill="#EB5757"/>
<path d="M104 112H96V120H104V112Z" fill="#EB5757"/>
<path d="M112 112H104V120H112V112Z" fill="#EB5757"/>
<path d="M56 120H48V128H56V120Z" fill="#F2994A"/>
<path d="M64 120H56V128H64V120Z" fill="#F2994A"/>
<path d="M80 120H72V128H80V120Z" fill="#F2994A"/>
<path d="M88 120H80V128H88V120Z" fill="#F2994A"/>
</svg>
