<svg width="128" height="128" viewBox="0 0 128 128" fill="none" xmlns="http://www.w3.org/2000/svg">
<rect width="128" height="128" fill="white"/>
<path d="M16 16H8V24H16V16Z" fill="black"/>
<path d="M24 16H16V24H24V16Z" fill="black"/>
<path d="M32 16H24V24H32V16Z" fill="black"/>
<path d="M8 24H0V32H8V24Z" fill="black"/>
<path d="M16 24H8V32H16V24Z" fill="black"/>
<path d="M24 24H16V32H24V24Z" fill="black"/>
<path d="M32 24H24V32H32V24Z" fill="black"/>
<path d="M40 24H32V32H40V24Z" fill="black"/>
<path d="M48 24H40V32H48V24Z" fill="black"/>
<path d="M56 24H48V32H56V24Z" fill="black"/>
<path d="M64 24H56V32H64V24Z" fill="black"/>
<path d="M72 24H64V32H72V24Z" fill="black"/>
<path d="M80 24H72V32H80V24Z" fill="black"/>
<path d="M88 24H80V32H88V24Z" fill="black"/>
<path d="M96 24H88V32H96V24Z" fill="black"/>
<path d="M8 32H0V40H8V32Z" fill="black"/>
<path d="M24 32H16V40H24V32Z" fill="black"/>
<path d="M40 32H32V40H40V32Z" fill="black"/>
<path d="M48 32H40V40H48V32Z" fill="black"/>
<path d="M96 32H88V40H96V32Z" fill="black"/>
<path d="M8 40H0V48H8V40Z" fill="black"/>
<path d="M16 40H8V48H16V40Z" fill="black"/>
<path d="M24 40H16V48H24V40Z" fill="black"/>
<path d="M32 40H24V48H32V40Z" fill="black"/>
<path d="M40 40H32V48H40V40Z" fill="black"/>
<path d="M56 40H48V48H56V40Z" fill="black"/>
<path d="M88 40H80V48H88V40Z" fill="black"/>
<path d="M16 48H8V56H16V48Z" fill="black"/>
<path d="M24 48H16V56H24V48Z" fill="black"/>
<path d="M32 48H24V56H32V48Z" fill="black"/>
<path d="M56 48H48V56H56V48Z" fill="black"/>
<path d="M88 48H80V56H88V48Z" fill="black"/>
<path d="M16 56H8V64H16V56Z" fill="black"/>
<path d="M32 56H24V64H32V56Z" fill="black"/>
<path d="M56 56H48V64H56V56Z" fill="black"/>
<path d="M88 56H80V64H88V56Z" fill="black"/>
<path d="M48 64H40V72H48V64Z" fill="black"/>
<path d="M96 64H88V72H96V64Z" fill="black"/>
<path d="M40 72H32V80H40V72Z" fill="black"/>
<path d="M104 72H96V80H104V72Z" fill="black"/>
<path d="M40 80H32V88H40V80Z" fill="black"/>
<path d="M48 80H40V88H48V80Z" fill="#27AE60"/>
<path d="M56 80H48V88H56V80Z" fill="#27AE60"/>
<path d="M64 80H56V88H64V80Z" fill="#27AE60"/>
<path d="M72 80H64V88H72V80Z" fill="#27AE60"/>
<path d="M80 80H72V88H80V80Z" fill="#27AE60"/>
<path d="M88 80H80V88H88V80Z" fill="#27AE60"/>
<path d="M96 80H88V88H96V80Z" fill="#27AE60"/>
<path d="M104 80H96V88H104V80Z" fill="black"/>
<path d="M40 88H32V96H40V88Z" fill="black"/>
<path d="M48 88H40V96H48V88Z" fill="#27AE60"/>
<path d="M56 88H48V96H56V88Z" fill="#27AE60"/>
<path d="M64 88H56V96H64V88Z" fill="#27AE60"/>
<path d="M72 88H64V96H72V88Z" fill="#27AE60"/>
<path d="M80 88H72V96H80V88Z" fill="#27AE60"/>
<path d="M88 88H80V96H88V88Z" fill="#27AE60"/>
<path d="M96 88H88V96H96V88Z" fill="#27AE60"/>
<path d="M104 88H96V96H104V88Z" fill="black"/>
<path d="M48 96H40V104H48V96Z" fill="black"/>
<path d="M56 96H48V104H56V96Z" fill="black"/>
<path d="M64 96H56V104H64V96Z" fill="black"/>
<path d="M72 96H64V104H72V96Z" fill="black"/>
<path d="M80 96H72V104H80V96Z" fill="black"/>
<path d="M88 96H80V104H88V96Z" fill="black"/>
<path d="M96 96H88V104H96V96Z" fill="black"/>
</svg>
