<svg width="128" height="128" viewBox="0 0 128 128" fill="none" xmlns="http://www.w3.org/2000/svg">
<rect width="128" height="128" fill="white"/>
<path d="M24 56H16V64H24V56Z" fill="#EB5757"/>
<path d="M32 56H24V64H32V56Z" fill="black"/>
<path d="M40 56H32V64H40V56Z" fill="black"/>
<path d="M48 56H40V64H48V56Z" fill="black"/>
<path d="M56 56H48V64H56V56Z" fill="#EB5757"/>
<path d="M40 64H32V72H40V64Z" fill="black"/>
<path d="M40 72H32V80H40V72Z" fill="black"/>
<path d="M40 80H32V88H40V80Z" fill="black"/>
<path d="M40 88H32V96H40V88Z" fill="black"/>
<path d="M40 96H32V104H40V96Z" fill="black"/>
<path d="M40 104H32V112H40V104Z" fill="black"/>
<path d="M48 104H40V112H48V104Z" fill="#2F80ED"/>
<path d="M56 104H48V112H56V104Z" fill="black"/>
<path d="M64 104H56V112H64V104Z" fill="black"/>
<path d="M72 104H64V112H72V104Z" fill="black"/>
<path d="M80 104H72V112H80V104Z" fill="#2F80ED"/>
<path d="M88 104H80V112H88V104Z" fill="black"/>
<path d="M40 112H32V120H40V112Z" fill="#2F80ED"/>
<path d="M48 112H40V120H48V112Z" fill="black"/>
<path d="M56 112H48V120H56V112Z" fill="#2F80ED"/>
<path d="M72 112H64V120H72V112Z" fill="#2F80ED"/>
<path d="M80 112H72V120H80V112Z" fill="black"/>
<path d="M88 112H80V120H88V112Z" fill="#2F80ED"/>
<path d="M48 120H40V128H48V120Z" fill="#2F80ED"/>
<path d="M80 120H72V128H80V120Z" fill="#2F80ED"/>
</svg>
