<svg width="128" height="128" viewBox="0 0 128 128" fill="none" xmlns="http://www.w3.org/2000/svg">
<rect width="128" height="128" fill="white"/>
<rect x="64" width="8" height="8" fill="#F2C94C"/>
<rect x="64" y="64" width="8" height="8" fill="#F2C94C"/>
<rect x="64" y="32" width="8" height="8" fill="#F2C94C"/>
<rect x="64" y="16" width="8" height="8" fill="#F2C94C"/>
<rect x="64" y="80" width="8" height="8" fill="#F2C94C"/>
<rect x="64" y="48" width="8" height="8" fill="#F2C94C"/>
<rect x="64" y="8" width="8" height="8" fill="#F2C94C"/>
<rect x="64" y="72" width="8" height="8" fill="#F2C94C"/>
<rect x="64" y="40" width="8" height="8" fill="#F2C94C"/>
<rect x="64" y="24" width="8" height="8" fill="#F2C94C"/>
<rect x="64" y="88" width="8" height="8" fill="#F2C94C"/>
<rect x="64" y="56" width="8" height="8" fill="#F2C94C"/>
<rect x="32" y="64" width="8" height="8" fill="#F2C94C"/>
<rect x="32" y="96" width="8" height="8" fill="#F2C94C"/>
<rect x="32" y="80" width="8" height="8" fill="#F2C94C"/>
<rect x="32" y="48" width="8" height="8" fill="#F2C94C"/>
<rect x="32" y="72" width="8" height="8" fill="#F2C94C"/>
<rect x="32" y="40" width="8" height="8" fill="#F2C94C"/>
<rect x="32" y="104" width="8" height="8" fill="#F2C94C"/>
<rect x="32" y="88" width="8" height="8" fill="#F2C94C"/>
<rect x="32" y="56" width="8" height="8" fill="#F2C94C"/>
<rect x="96" y="96" width="8" height="8" fill="#F2C94C"/>
<rect x="96" y="80" width="8" height="8" fill="#F2C94C"/>
<rect x="96" y="48" width="8" height="8" fill="#F2C94C"/>
<rect x="96" y="112" width="8" height="8" fill="#F2C94C"/>
<rect x="96" y="40" width="8" height="8" fill="#F2C94C"/>
<rect x="96" y="104" width="8" height="8" fill="#F2C94C"/>
<rect x="96" y="88" width="8" height="8" fill="#F2C94C"/>
<rect x="96" y="56" width="8" height="8" fill="#F2C94C"/>
<rect x="16" y="48" width="8" height="8" fill="#F2C94C"/>
<rect x="16" y="112" width="8" height="8" fill="#F2C94C"/>
<rect x="16" y="40" width="8" height="8" fill="#F2C94C"/>
<rect x="16" y="104" width="8" height="8" fill="#F2C94C"/>
<rect x="80" y="64" width="8" height="8" fill="#F2C94C"/>
<rect x="80" y="32" width="8" height="8" fill="#F2C94C"/>
<rect x="80" y="96" width="8" height="8" fill="#F2C94C"/>
<rect x="80" y="80" width="8" height="8" fill="#F2C94C"/>
<rect x="80" y="48" width="8" height="8" fill="#F2C94C"/>
<rect x="80" y="72" width="8" height="8" fill="#F2C94C"/>
<rect x="80" y="40" width="8" height="8" fill="#F2C94C"/>
<rect x="80" y="88" width="8" height="8" fill="#F2C94C"/>
<rect x="80" y="56" width="8" height="8" fill="#F2C94C"/>
<rect x="48" y="64" width="8" height="8" fill="#F2C94C"/>
<rect x="48" y="32" width="8" height="8" fill="#F2C94C"/>
<rect x="48" y="96" width="8" height="8" fill="#F2C94C"/>
<rect x="48" y="16" width="8" height="8" fill="#F2C94C"/>
<rect x="48" y="80" width="8" height="8" fill="#F2C94C"/>
<rect x="48" y="48" width="8" height="8" fill="#F2C94C"/>
<rect x="48" y="72" width="8" height="8" fill="#F2C94C"/>
<rect x="48" y="40" width="8" height="8" fill="#F2C94C"/>
<rect x="48" y="24" width="8" height="8" fill="#F2C94C"/>
<rect x="48" y="88" width="8" height="8" fill="#F2C94C"/>
<rect x="48" y="56" width="8" height="8" fill="#F2C94C"/>
<rect x="112" y="40" width="8" height="8" fill="#F2C94C"/>
<rect x="8" y="40" width="8" height="8" fill="#F2C94C"/>
<rect x="72" y="64" width="8" height="8" fill="#F2C94C"/>
<rect x="72" y="32" width="8" height="8" fill="#F2C94C"/>
<rect x="72" y="96" width="8" height="8" fill="#F2C94C"/>
<rect x="72" y="16" width="8" height="8" fill="#F2C94C"/>
<rect x="72" y="80" width="8" height="8" fill="#F2C94C"/>
<rect x="72" y="48" width="8" height="8" fill="#F2C94C"/>
<rect x="72" y="72" width="8" height="8" fill="#F2C94C"/>
<rect x="72" y="40" width="8" height="8" fill="#F2C94C"/>
<rect x="72" y="24" width="8" height="8" fill="#F2C94C"/>
<rect x="72" y="88" width="8" height="8" fill="#F2C94C"/>
<rect x="72" y="56" width="8" height="8" fill="#F2C94C"/>
<rect x="40" y="64" width="8" height="8" fill="#F2C94C"/>
<rect x="40" y="32" width="8" height="8" fill="#F2C94C"/>
<rect x="40" y="96" width="8" height="8" fill="#F2C94C"/>
<rect x="40" y="80" width="8" height="8" fill="#F2C94C"/>
<rect x="40" y="48" width="8" height="8" fill="#F2C94C"/>
<rect x="40" y="72" width="8" height="8" fill="#F2C94C"/>
<rect x="40" y="40" width="8" height="8" fill="#F2C94C"/>
<rect x="40" y="88" width="8" height="8" fill="#F2C94C"/>
<rect x="40" y="56" width="8" height="8" fill="#F2C94C"/>
<rect x="104" y="48" width="8" height="8" fill="#F2C94C"/>
<rect x="104" y="112" width="8" height="8" fill="#F2C94C"/>
<rect x="104" y="40" width="8" height="8" fill="#F2C94C"/>
<rect x="104" y="104" width="8" height="8" fill="#F2C94C"/>
<rect x="24" y="96" width="8" height="8" fill="#F2C94C"/>
<rect x="24" y="80" width="8" height="8" fill="#F2C94C"/>
<rect x="24" y="48" width="8" height="8" fill="#F2C94C"/>
<rect x="24" y="112" width="8" height="8" fill="#F2C94C"/>
<rect x="24" y="40" width="8" height="8" fill="#F2C94C"/>
<rect x="24" y="104" width="8" height="8" fill="#F2C94C"/>
<rect x="24" y="88" width="8" height="8" fill="#F2C94C"/>
<rect x="24" y="56" width="8" height="8" fill="#F2C94C"/>
<rect x="88" y="64" width="8" height="8" fill="#F2C94C"/>
<rect x="88" y="96" width="8" height="8" fill="#F2C94C"/>
<rect x="88" y="80" width="8" height="8" fill="#F2C94C"/>
<rect x="88" y="48" width="8" height="8" fill="#F2C94C"/>
<rect x="88" y="72" width="8" height="8" fill="#F2C94C"/>
<rect x="88" y="40" width="8" height="8" fill="#F2C94C"/>
<rect x="88" y="104" width="8" height="8" fill="#F2C94C"/>
<rect x="88" y="88" width="8" height="8" fill="#F2C94C"/>
<rect x="88" y="56" width="8" height="8" fill="#F2C94C"/>
<rect x="56" width="8" height="8" fill="#F2C94C"/>
<rect x="56" y="64" width="8" height="8" fill="#F2C94C"/>
<rect x="56" y="32" width="8" height="8" fill="#F2C94C"/>
<rect x="56" y="16" width="8" height="8" fill="#F2C94C"/>
<rect x="56" y="80" width="8" height="8" fill="#F2C94C"/>
<rect x="56" y="48" width="8" height="8" fill="#F2C94C"/>
<rect x="56" y="8" width="8" height="8" fill="#F2C94C"/>
<rect x="56" y="72" width="8" height="8" fill="#F2C94C"/>
<rect x="56" y="40" width="8" height="8" fill="#F2C94C"/>
<rect x="56" y="24" width="8" height="8" fill="#F2C94C"/>
<rect x="56" y="88" width="8" height="8" fill="#F2C94C"/>
<rect x="56" y="56" width="8" height="8" fill="#F2C94C"/>
</svg>
