<svg width="128" height="128" viewBox="0 0 128 128" fill="none" xmlns="http://www.w3.org/2000/svg">
<rect width="128" height="128" fill="white"/>
<path d="M80 0H72V8H80V0Z" fill="black"/>
<path d="M64 8H56V16H64V8Z" fill="black"/>
<path d="M72 8H64V16H72V8Z" fill="black"/>
<path d="M56 16H48V24H56V16Z" fill="black"/>
<path d="M64 16H56V24H64V16Z" fill="black"/>
<path d="M72 16H64V24H72V16Z" fill="#F2994A"/>
<path d="M56 24H48V32H56V24Z" fill="black"/>
<path d="M64 24H56V32H64V24Z" fill="#F2994A"/>
<path d="M72 24H64V32H72V24Z" fill="#F2994A"/>
<path d="M80 24H72V32H80V24Z" fill="#F2994A"/>
<path d="M64 32H56V40H64V32Z" fill="#F2994A"/>
<path d="M72 32H64V40H72V32Z" fill="#F2994A"/>
<path d="M48 40H40V48H48V40Z" fill="#2F80ED"/>
<path d="M56 40H48V48H56V40Z" fill="#2F80ED"/>
<path d="M64 40H56V48H64V40Z" fill="#2F80ED"/>
<path d="M72 40H64V48H72V40Z" fill="#2F80ED"/>
<path d="M80 40H72V48H80V40Z" fill="#2F80ED"/>
<path d="M88 40H80V48H88V40Z" fill="#2F80ED"/>
<path d="M96 40H88V48H96V40Z" fill="#2F80ED"/>
<path d="M104 40H96V48H104V40Z" fill="#2F80ED"/>
<path d="M112 40H104V48H112V40Z" fill="#2F80ED"/>
<path d="M120 40H112V48H120V40Z" fill="#EB5757"/>
<path d="M40 48H32V56H40V48Z" fill="#2F80ED"/>
<path d="M48 48H40V56H48V48Z" fill="#2F80ED"/>
<path d="M56 48H48V56H56V48Z" fill="#EB5757"/>
<path d="M64 48H56V56H64V48Z" fill="#EB5757"/>
<path d="M72 48H64V56H72V48Z" fill="#F2C94C"/>
<path d="M80 48H72V56H80V48Z" fill="#EB5757"/>
<path d="M88 48H80V56H88V48Z" fill="#2F80ED"/>
<path d="M96 48H88V56H96V48Z" fill="#2F80ED"/>
<path d="M104 48H96V56H104V48Z" fill="#2F80ED"/>
<path d="M32 56H24V64H32V56Z" fill="#2F80ED"/>
<path d="M40 56H32V64H40V56Z" fill="#2F80ED"/>
<path d="M48 56H40V64H48V56Z" fill="#2F80ED"/>
<path d="M56 56H48V64H56V56Z" fill="#2F80ED"/>
<path d="M64 56H56V64H64V56Z" fill="#EB5757"/>
<path d="M72 56H64V64H72V56Z" fill="#EB5757"/>
<path d="M80 56H72V64H80V56Z" fill="#2F80ED"/>
<path d="M88 56H80V64H88V56Z" fill="#2F80ED"/>
<path d="M96 56H88V64H96V56Z" fill="#2F80ED"/>
<path d="M32 64H24V72H32V64Z" fill="#2F80ED"/>
<path d="M40 64H32V72H40V64Z" fill="#2F80ED"/>
<path d="M56 64H48V72H56V64Z" fill="#2F80ED"/>
<path d="M64 64H56V72H64V64Z" fill="#2F80ED"/>
<path d="M72 64H64V72H72V64Z" fill="#2F80ED"/>
<path d="M80 64H72V72H80V64Z" fill="#2F80ED"/>
<path d="M32 72H24V80H32V72Z" fill="#2F80ED"/>
<path d="M40 72H32V80H40V72Z" fill="#EB5757"/>
<path d="M56 72H48V80H56V72Z" fill="#F2C94C"/>
<path d="M64 72H56V80H64V72Z" fill="#EB5757"/>
<path d="M72 72H64V80H72V72Z" fill="#F2C94C"/>
<path d="M80 72H72V80H80V72Z" fill="#EB5757"/>
<path d="M56 80H48V88H56V80Z" fill="#2F80ED"/>
<path d="M64 80H56V88H64V80Z" fill="#2F80ED"/>
<path d="M72 80H64V88H72V80Z" fill="#2F80ED"/>
<path d="M80 80H72V88H80V80Z" fill="#2F80ED"/>
<path d="M56 88H48V96H56V88Z" fill="#EB5757"/>
<path d="M64 88H56V96H64V88Z" fill="#2F80ED"/>
<path d="M72 88H64V96H72V88Z" fill="#2F80ED"/>
<path d="M80 88H72V96H80V88Z" fill="#EB5757"/>
<path d="M88 88H80V96H88V88Z" fill="#EB5757"/>
<path d="M56 96H48V104H56V96Z" fill="#EB5757"/>
<path d="M64 96H56V104H64V96Z" fill="#EB5757"/>
<path d="M80 96H72V104H80V96Z" fill="#EB5757"/>
<path d="M88 96H80V104H88V96Z" fill="#EB5757"/>
<path d="M96 96H88V104H96V96Z" fill="#EB5757"/>
<path d="M56 104H48V112H56V104Z" fill="#EB5757"/>
<path d="M64 104H56V112H64V104Z" fill="#EB5757"/>
<path d="M88 104H80V112H88V104Z" fill="#EB5757"/>
<path d="M96 104H88V112H96V104Z" fill="#EB5757"/>
<path d="M104 104H96V112H104V104Z" fill="#EB5757"/>
<path d="M56 112H48V120H56V112Z" fill="#EB5757"/>
<path d="M64 112H56V120H64V112Z" fill="#2F80ED"/>
<path d="M96 112H88V120H96V112Z" fill="#2F80ED"/>
<path d="M104 112H96V120H104V112Z" fill="#2F80ED"/>
<path d="M56 120H48V128H56V120Z" fill="#2F80ED"/>
<path d="M64 120H56V128H64V120Z" fill="#2F80ED"/>
<path d="M96 120H88V128H96V120Z" fill="#2F80ED"/>
<path d="M104 120H96V128H104V120Z" fill="#2F80ED"/>
</svg>
