<svg width="128" height="128" viewBox="0 0 128 128" fill="none" xmlns="http://www.w3.org/2000/svg">
<rect width="128" height="128" fill="white"/>
<path d="M56 24H48V32H56V24Z" fill="#F2C94C"/>
<path d="M64 24H56V32H64V24Z" fill="#F2C94C"/>
<path d="M72 24H64V32H72V24Z" fill="#F2C94C"/>
<path d="M56 32H48V40H56V32Z" fill="black"/>
<path d="M64 32H56V40H64V32Z" fill="black"/>
<path d="M72 32H64V40H72V32Z" fill="black"/>
<path d="M56 40H48V48H56V40Z" fill="#F2C94C"/>
<path d="M64 40H56V48H64V40Z" fill="#F2C94C"/>
<path d="M72 40H64V48H72V40Z" fill="#F2C94C"/>
<path d="M48 48H40V56H48V48Z" fill="#2F80ED"/>
<path d="M56 48H48V56H56V48Z" fill="#2F80ED"/>
<path d="M64 48H56V56H64V48Z" fill="#2F80ED"/>
<path d="M72 48H64V56H72V48Z" fill="#2F80ED"/>
<path d="M80 48H72V56H80V48Z" fill="#2F80ED"/>
<path d="M40 56H32V64H40V56Z" fill="#2F80ED"/>
<path d="M56 56H48V64H56V56Z" fill="#2F80ED"/>
<path d="M64 56H56V64H64V56Z" fill="#EB5757"/>
<path d="M72 56H64V64H72V56Z" fill="#2F80ED"/>
<path d="M80 56H72V64H80V56Z" fill="#EB5757"/>
<path d="M88 56H80V64H88V56Z" fill="#2F80ED"/>
<path d="M48 64H40V72H48V64Z" fill="#2F80ED"/>
<path d="M56 64H48V72H56V64Z" fill="#2F80ED"/>
<path d="M64 64H56V72H64V64Z" fill="#EB5757"/>
<path d="M72 64H64V72H72V64Z" fill="#2F80ED"/>
<path d="M80 64H72V72H80V64Z" fill="#2F80ED"/>
<path d="M88 64H80V72H88V64Z" fill="#EB5757"/>
<path d="M96 64H88V72H96V64Z" fill="#EB5757"/>
<path d="M56 72H48V80H56V72Z" fill="#2F80ED"/>
<path d="M64 72H56V80H64V72Z" fill="#2F80ED"/>
<path d="M72 72H64V80H72V72Z" fill="#2F80ED"/>
<path d="M80 72H72V80H80V72Z" fill="#EB5757"/>
<path d="M88 72H80V80H88V72Z" fill="#EB5757"/>
<path d="M96 72H88V80H96V72Z" fill="#EB5757"/>
<path d="M104 72H96V80H104V72Z" fill="#EB5757"/>
<path d="M56 80H48V88H56V80Z" fill="black"/>
<path d="M64 80H56V88H64V80Z" fill="black"/>
<path d="M72 80H64V88H72V80Z" fill="black"/>
<path d="M80 80H72V88H80V80Z" fill="#EB5757"/>
<path d="M88 80H80V88H88V80Z" fill="#EB5757"/>
<path d="M96 80H88V88H96V80Z" fill="#EB5757"/>
<path d="M104 80H96V88H104V80Z" fill="#EB5757"/>
<path d="M56 88H48V96H56V88Z" fill="black"/>
<path d="M72 88H64V96H72V88Z" fill="black"/>
<path d="M88 88H80V96H88V88Z" fill="#EB5757"/>
<path d="M96 88H88V96H96V88Z" fill="#EB5757"/>
<path d="M104 88H96V96H104V88Z" fill="#EB5757"/>
<path d="M56 96H48V104H56V96Z" fill="black"/>
<path d="M72 96H64V104H72V96Z" fill="black"/>
<path d="M56 104H48V112H56V104Z" fill="black"/>
<path d="M72 104H64V112H72V104Z" fill="black"/>
</svg>
