<svg width="128" height="128" viewBox="0 0 128 128" fill="none" xmlns="http://www.w3.org/2000/svg">
<rect width="128" height="128" fill="white"/>
<path d="M80 0H72V8H80V0Z" fill="#EB5757"/>
<path d="M72 8H64V16H72V8Z" fill="#EB5757"/>
<path d="M80 8H72V16H80V8Z" fill="#EB5757"/>
<path d="M88 8H80V16H88V8Z" fill="#EB5757"/>
<path d="M64 16H56V24H64V16Z" fill="#EB5757"/>
<path d="M72 16H64V24H72V16Z" fill="#EB5757"/>
<path d="M88 16H80V24H88V16Z" fill="#EB5757"/>
<path d="M96 16H88V24H96V16Z" fill="#EB5757"/>
<path d="M56 24H48V32H56V24Z" fill="#EB5757"/>
<path d="M64 24H56V32H64V24Z" fill="#EB5757"/>
<path d="M96 24H88V32H96V24Z" fill="#EB5757"/>
<path d="M104 24H96V32H104V24Z" fill="#EB5757"/>
<path d="M48 32H40V40H48V32Z" fill="#EB5757"/>
<path d="M56 32H48V40H56V32Z" fill="#EB5757"/>
<path d="M104 32H96V40H104V32Z" fill="#EB5757"/>
<path d="M112 32H104V40H112V32Z" fill="#EB5757"/>
<path d="M56 40H48V48H56V40Z" fill="#EB5757"/>
<path d="M72 40H64V48H72V40Z" fill="#EB5757"/>
<path d="M80 40H72V48H80V40Z" fill="#EB5757"/>
<path d="M88 40H80V48H88V40Z" fill="#EB5757"/>
<path d="M104 40H96V48H104V40Z" fill="#EB5757"/>
<path d="M40 48H32V56H40V48Z" fill="#27AE60"/>
<path d="M48 48H40V56H48V48Z" fill="#27AE60"/>
<path d="M56 48H48V56H56V48Z" fill="#EB5757"/>
<path d="M72 48H64V56H72V48Z" fill="#EB5757"/>
<path d="M88 48H80V56H88V48Z" fill="#EB5757"/>
<path d="M104 48H96V56H104V48Z" fill="#EB5757"/>
<path d="M32 56H24V64H32V56Z" fill="#27AE60"/>
<path d="M48 56H40V64H48V56Z" fill="#27AE60"/>
<path d="M56 56H48V64H56V56Z" fill="#EB5757"/>
<path d="M72 56H64V64H72V56Z" fill="#EB5757"/>
<path d="M88 56H80V64H88V56Z" fill="#EB5757"/>
<path d="M104 56H96V64H104V56Z" fill="#EB5757"/>
<path d="M40 64H32V72H40V64Z" fill="#27AE60"/>
<path d="M48 64H40V72H48V64Z" fill="#27AE60"/>
<path d="M56 64H48V72H56V64Z" fill="#EB5757"/>
<path d="M64 64H56V72H64V64Z" fill="#EB5757"/>
<path d="M72 64H64V72H72V64Z" fill="#EB5757"/>
<path d="M80 64H72V72H80V64Z" fill="#EB5757"/>
<path d="M88 64H80V72H88V64Z" fill="#EB5757"/>
<path d="M96 64H88V72H96V64Z" fill="#EB5757"/>
<path d="M104 64H96V72H104V64Z" fill="#EB5757"/>
<path d="M32 72H24V80H32V72Z" fill="#27AE60"/>
<path d="M40 72H32V80H40V72Z" fill="#27AE60"/>
<path d="M48 72H40V80H48V72Z" fill="#27AE60"/>
<path d="M56 72H48V80H56V72Z" fill="#27AE60"/>
<path d="M80 72H72V80H80V72Z" fill="#EB5757"/>
<path d="M96 72H88V80H96V72Z" fill="#27AE60"/>
<path d="M104 72H96V80H104V72Z" fill="#27AE60"/>
<path d="M48 80H40V88H48V80Z" fill="#F2994A"/>
<path d="M72 80H64V88H72V80Z" fill="#EB5757"/>
<path d="M80 80H72V88H80V80Z" fill="#EB5757"/>
<path d="M88 80H80V88H88V80Z" fill="#EB5757"/>
<path d="M96 80H88V88H96V80Z" fill="#27AE60"/>
<path d="M104 80H96V88H104V80Z" fill="#27AE60"/>
<path d="M48 88H40V96H48V88Z" fill="#F2994A"/>
<path d="M56 88H48V96H56V88Z" fill="#F2994A"/>
<path d="M64 88H56V96H64V88Z" fill="#27AE60"/>
<path d="M72 88H64V96H72V88Z" fill="#27AE60"/>
<path d="M80 88H72V96H80V88Z" fill="#EB5757"/>
<path d="M88 88H80V96H88V88Z" fill="#27AE60"/>
<path d="M96 88H88V96H96V88Z" fill="#27AE60"/>
<path d="M56 96H48V104H56V96Z" fill="#F2994A"/>
<path d="M64 96H56V104H64V96Z" fill="#27AE60"/>
<path d="M72 96H64V104H72V96Z" fill="#EB5757"/>
<path d="M80 96H72V104H80V96Z" fill="#EB5757"/>
<path d="M88 96H80V104H88V96Z" fill="#EB5757"/>
<path d="M64 104H56V112H64V104Z" fill="#F2994A"/>
<path d="M72 104H64V112H72V104Z" fill="#F2994A"/>
<path d="M80 104H72V112H80V104Z" fill="#EB5757"/>
<path d="M56 112H48V120H56V112Z" fill="#F2994A"/>
<path d="M64 112H56V120H64V112Z" fill="#F2994A"/>
<path d="M72 112H64V120H72V112Z" fill="#EB5757"/>
<path d="M80 112H72V120H80V112Z" fill="#EB5757"/>
<path d="M88 112H80V120H88V112Z" fill="#EB5757"/>
<path d="M64 120H56V128H64V120Z" fill="#F2994A"/>
<path d="M72 120H64V128H72V120Z" fill="#F2994A"/>
</svg>
