<svg width="128" height="128" viewBox="0 0 128 128" fill="none" xmlns="http://www.w3.org/2000/svg">
<rect width="128" height="128" fill="white"/>
<path d="M48 32H40V40H48V32Z" fill="#EB5757"/>
<path d="M64 32H56V40H64V32Z" fill="#EB5757"/>
<path d="M80 32H72V40H80V32Z" fill="#EB5757"/>
<path d="M48 40H40V48H48V40Z" fill="#EB5757"/>
<path d="M56 40H48V48H56V40Z" fill="#EB5757"/>
<path d="M64 40H56V48H64V40Z" fill="#EB5757"/>
<path d="M72 40H64V48H72V40Z" fill="#EB5757"/>
<path d="M80 40H72V48H80V40Z" fill="#EB5757"/>
<path d="M48 48H40V56H48V48Z" fill="#EB5757"/>
<path d="M56 48H48V56H56V48Z" fill="#EB5757"/>
<path d="M64 48H56V56H64V48Z" fill="#EB5757"/>
<path d="M72 48H64V56H72V48Z" fill="#EB5757"/>
<path d="M80 48H72V56H80V48Z" fill="#EB5757"/>
<path d="M48 56H40V64H48V56Z" fill="#EB5757"/>
<path d="M56 56H48V64H56V56Z" fill="#EB5757"/>
<path d="M64 56H56V64H64V56Z" fill="#EB5757"/>
<path d="M72 56H64V64H72V56Z" fill="#EB5757"/>
<path d="M80 56H72V64H80V56Z" fill="#EB5757"/>
<path d="M56 64H48V72H56V64Z" fill="#EB5757"/>
<path d="M64 64H56V72H64V64Z" fill="#EB5757"/>
<path d="M72 64H64V72H72V64Z" fill="#EB5757"/>
<path d="M64 72H56V80H64V72Z" fill="#27AE60"/>
<path d="M64 80H56V88H64V80Z" fill="#27AE60"/>
<path d="M80 80H72V88H80V80Z" fill="#27AE60"/>
<path d="M64 88H56V96H64V88Z" fill="#27AE60"/>
<path d="M80 88H72V96H80V88Z" fill="#27AE60"/>
<path d="M64 96H56V104H64V96Z" fill="#27AE60"/>
<path d="M72 96H64V104H72V96Z" fill="#27AE60"/>
<path d="M64 104H56V112H64V104Z" fill="#27AE60"/>
<path d="M72 104H64V112H72V104Z" fill="#27AE60"/>
<path d="M64 112H56V120H64V112Z" fill="#27AE60"/>
<path d="M64 120H56V128H64V120Z" fill="#27AE60"/>
</svg>
