<svg width="128" height="128" viewBox="0 0 128 128" fill="none" xmlns="http://www.w3.org/2000/svg">
<g clip-path="url(#clip0_6350_46038)">
<rect width="128" height="128" fill="white"/>
<path d="M104 0H96V8H104V0Z" fill="#EB5757"/>
<path d="M32 8H24V16H32V8Z" fill="#EB5757"/>
<path d="M80 8H72V16H80V8Z" fill="#EB5757"/>
<path d="M88 8H80V16H88V8Z" fill="#EB5757"/>
<path d="M96 8H88V16H96V8Z" fill="#F2994A"/>
<path d="M128 8H120V16H128V8Z" fill="#F2994A"/>
<path d="M24 16H16V24H24V16Z" fill="#EB5757"/>
<path d="M32 16H24V24H32V16Z" fill="#EB5757"/>
<path d="M40 16H32V24H40V16Z" fill="#EB5757"/>
<path d="M48 16H40V24H48V16Z" fill="#EB5757"/>
<path d="M72 16H64V24H72V16Z" fill="#F2994A"/>
<path d="M80 16H72V24H80V16Z" fill="#EB5757"/>
<path d="M16 24H8V32H16V24Z" fill="#EB5757"/>
<path d="M32 24H24V32H32V24Z" fill="#F2994A"/>
<path d="M40 24H32V32H40V24Z" fill="#F2994A"/>
<path d="M64 24H56V32H64V24Z" fill="#F2994A"/>
<path d="M72 24H64V32H72V24Z" fill="#EB5757"/>
<path d="M80 24H72V32H80V24Z" fill="#F2994A"/>
<path d="M120 24H112V32H120V24Z" fill="#EB5757"/>
<path d="M48 32H40V40H48V32Z" fill="#F2994A"/>
<path d="M72 32H64V40H72V32Z" fill="#EB5757"/>
<path d="M96 32H88V40H96V32Z" fill="#F2994A"/>
<path d="M112 32H104V40H112V32Z" fill="#EB5757"/>
<path d="M128 32H120V40H128V32Z" fill="#EB5757"/>
<path d="M32 40H24V48H32V40Z" fill="#EB5757"/>
<path d="M48 40H40V48H48V40Z" fill="#EB5757"/>
<path d="M96 40H88V48H96V40Z" fill="#EB5757"/>
<path d="M112 40H104V48H112V40Z" fill="#F2994A"/>
<path d="M120 40H112V48H120V40Z" fill="#EB5757"/>
<path d="M128 40H120V48H128V40Z" fill="#EB5757"/>
<path d="M16 48H8V56H16V48Z" fill="#EB5757"/>
<path d="M24 48H16V56H24V48Z" fill="#F2994A"/>
<path d="M32 48H24V56H32V48Z" fill="#EB5757"/>
<path d="M48 48H40V56H48V48Z" fill="#EB5757"/>
<path d="M64 48H56V56H64V48Z" fill="#EB5757"/>
<path d="M72 48H64V56H72V48Z" fill="#EB5757"/>
<path d="M80 48H72V56H80V48Z" fill="#EB5757"/>
<path d="M88 48H80V56H88V48Z" fill="#EB5757"/>
<path d="M128 48H120V56H128V48Z" fill="#F2994A"/>
<path d="M8 56H0V64H8V56Z" fill="#EB5757"/>
<path d="M16 56H8V64H16V56Z" fill="#EB5757"/>
<path d="M32 56H24V64H32V56Z" fill="#EB5757"/>
<path d="M56 56H48V64H56V56Z" fill="black"/>
<path d="M64 56H56V64H64V56Z" fill="#EB5757"/>
<path d="M72 56H64V64H72V56Z" fill="#EB5757"/>
<path d="M80 56H72V64H80V56Z" fill="#EB5757"/>
<path d="M88 56H80V64H88V56Z" fill="black"/>
<path d="M8 64H0V72H8V64Z" fill="#F2994A"/>
<path d="M40 64H32V72H40V64Z" fill="black"/>
<path d="M48 64H40V72H48V64Z" fill="black"/>
<path d="M56 64H48V72H56V64Z" fill="#EB5757"/>
<path d="M64 64H56V72H64V64Z" fill="#F2994A"/>
<path d="M72 64H64V72H72V64Z" fill="#EB5757"/>
<path d="M80 64H72V72H80V64Z" fill="#F2994A"/>
<path d="M88 64H80V72H88V64Z" fill="black"/>
<path d="M104 64H96V72H104V64Z" fill="#EB5757"/>
<path d="M128 64H120V72H128V64Z" fill="#EB5757"/>
<path d="M8 72H0V80H8V72Z" fill="#EB5757"/>
<path d="M16 72H8V80H16V72Z" fill="#EB5757"/>
<path d="M32 72H24V80H32V72Z" fill="black"/>
<path d="M40 72H32V80H40V72Z" fill="black"/>
<path d="M48 72H40V80H48V72Z" fill="black"/>
<path d="M56 72H48V80H56V72Z" fill="#EB5757"/>
<path d="M64 72H56V80H64V72Z" fill="black"/>
<path d="M72 72H64V80H72V72Z" fill="black"/>
<path d="M80 72H72V80H80V72Z" fill="black"/>
<path d="M88 72H80V80H88V72Z" fill="black"/>
<path d="M96 72H88V80H96V72Z" fill="black"/>
<path d="M112 72H104V80H112V72Z" fill="#EB5757"/>
<path d="M128 72H120V80H128V72Z" fill="#F2994A"/>
<path d="M8 80H0V88H8V80Z" fill="#EB5757"/>
<path d="M32 80H24V88H32V80Z" fill="black"/>
<path d="M40 80H32V88H40V80Z" fill="black"/>
<path d="M48 80H40V88H48V80Z" fill="black"/>
<path d="M56 80H48V88H56V80Z" fill="black"/>
<path d="M64 80H56V88H64V80Z" fill="black"/>
<path d="M72 80H64V88H72V80Z" fill="black"/>
<path d="M80 80H72V88H80V80Z" fill="black"/>
<path d="M88 80H80V88H88V80Z" fill="black"/>
<path d="M96 80H88V88H96V80Z" fill="black"/>
<path d="M104 80H96V88H104V80Z" fill="black"/>
<path d="M120 80H112V88H120V80Z" fill="#EB5757"/>
<path d="M128 80H120V88H128V80Z" fill="#EB5757"/>
<path d="M24 88H16V96H24V88Z" fill="black"/>
<path d="M32 88H24V96H32V88Z" fill="black"/>
<path d="M48 88H40V96H48V88Z" fill="black"/>
<path d="M56 88H48V96H56V88Z" fill="black"/>
<path d="M72 88H64V96H72V88Z" fill="black"/>
<path d="M80 88H72V96H80V88Z" fill="black"/>
<path d="M88 88H80V96H88V88Z" fill="black"/>
<path d="M96 88H88V96H96V88Z" fill="black"/>
<path d="M104 88H96V96H104V88Z" fill="black"/>
<path d="M112 88H104V96H112V88Z" fill="black"/>
<path d="M16 96H8V104H16V96Z" fill="black"/>
<path d="M24 96H16V104H24V96Z" fill="black"/>
<path d="M32 96H24V104H32V96Z" fill="black"/>
<path d="M40 96H32V104H40V96Z" fill="black"/>
<path d="M48 96H40V104H48V96Z" fill="black"/>
<path d="M56 96H48V104H56V96Z" fill="black"/>
<path d="M64 96H56V104H64V96Z" fill="black"/>
<path d="M80 96H72V104H80V96Z" fill="black"/>
<path d="M88 96H80V104H88V96Z" fill="black"/>
<path d="M96 96H88V104H96V96Z" fill="black"/>
<path d="M104 96H96V104H104V96Z" fill="black"/>
<path d="M112 96H104V104H112V96Z" fill="black"/>
<path d="M120 96H112V104H120V96Z" fill="black"/>
<path d="M128 96H120V104H128V96Z" fill="#EB5757"/>
<path d="M16 104H8V112H16V104Z" fill="black"/>
<path d="M24 104H16V112H24V104Z" fill="black"/>
<path d="M32 104H24V112H32V104Z" fill="black"/>
<path d="M40 104H32V112H40V104Z" fill="black"/>
<path d="M48 104H40V112H48V104Z" fill="black"/>
<path d="M56 104H48V112H56V104Z" fill="black"/>
<path d="M72 104H64V112H72V104Z" fill="black"/>
<path d="M80 104H72V112H80V104Z" fill="black"/>
<path d="M88 104H80V112H88V104Z" fill="black"/>
<path d="M96 104H88V112H96V104Z" fill="black"/>
<path d="M104 104H96V112H104V104Z" fill="black"/>
<path d="M112 104H104V112H112V104Z" fill="black"/>
<path d="M120 104H112V112H120V104Z" fill="black"/>
<path d="M8 112H0V120H8V112Z" fill="black"/>
<path d="M16 112H8V120H16V112Z" fill="black"/>
<path d="M32 112H24V120H32V112Z" fill="black"/>
<path d="M40 112H32V120H40V112Z" fill="black"/>
<path d="M56 112H48V120H56V112Z" fill="black"/>
<path d="M64 112H56V120H64V112Z" fill="black"/>
<path d="M72 112H64V120H72V112Z" fill="black"/>
<path d="M88 112H80V120H88V112Z" fill="black"/>
<path d="M96 112H88V120H96V112Z" fill="black"/>
<path d="M104 112H96V120H104V112Z" fill="black"/>
<path d="M112 112H104V120H112V112Z" fill="black"/>
<path d="M120 112H112V120H120V112Z" fill="black"/>
<path d="M128 112H120V120H128V112Z" fill="black"/>
<path d="M8 120H0V128H8V120Z" fill="black"/>
<path d="M16 120H8V128H16V120Z" fill="black"/>
<path d="M24 120H16V128H24V120Z" fill="black"/>
<path d="M32 120H24V128H32V120Z" fill="black"/>
<path d="M40 120H32V128H40V120Z" fill="black"/>
<path d="M48 120H40V128H48V120Z" fill="black"/>
<path d="M56 120H48V128H56V120Z" fill="black"/>
<path d="M64 120H56V128H64V120Z" fill="black"/>
<path d="M72 120H64V128H72V120Z" fill="black"/>
<path d="M80 120H72V128H80V120Z" fill="black"/>
<path d="M88 120H80V128H88V120Z" fill="black"/>
<path d="M96 120H88V128H96V120Z" fill="black"/>
<path d="M104 120H96V128H104V120Z" fill="black"/>
<path d="M112 120H104V128H112V120Z" fill="black"/>
<path d="M120 120H112V128H120V120Z" fill="black"/>
<path d="M128 120H120V128H128V120Z" fill="black"/>
</g>
<defs>
<clipPath id="clip0_6350_46038">
<rect width="128" height="128" fill="white"/>
</clipPath>
</defs>
</svg>
