<svg width="128" height="128" viewBox="0 0 128 128" fill="none" xmlns="http://www.w3.org/2000/svg">
<rect width="128" height="128" fill="white"/>
<path d="M96 24H88V32H96V24Z" fill="#27AE60"/>
<path d="M88 32H80V40H88V32Z" fill="#EB5757"/>
<path d="M96 32H88V40H96V32Z" fill="#EB5757"/>
<path d="M104 32H96V40H104V32Z" fill="#27AE60"/>
<path d="M80 40H72V48H80V40Z" fill="#EB5757"/>
<path d="M88 40H80V48H88V40Z" fill="black"/>
<path d="M96 40H88V48H96V40Z" fill="#EB5757"/>
<path d="M104 40H96V48H104V40Z" fill="#27AE60"/>
<path d="M72 48H64V56H72V48Z" fill="#EB5757"/>
<path d="M80 48H72V56H80V48Z" fill="#EB5757"/>
<path d="M88 48H80V56H88V48Z" fill="#EB5757"/>
<path d="M96 48H88V56H96V48Z" fill="#EB5757"/>
<path d="M104 48H96V56H104V48Z" fill="#EB5757"/>
<path d="M112 48H104V56H112V48Z" fill="#27AE60"/>
<path d="M64 56H56V64H64V56Z" fill="#EB5757"/>
<path d="M72 56H64V64H72V56Z" fill="#EB5757"/>
<path d="M80 56H72V64H80V56Z" fill="#EB5757"/>
<path d="M88 56H80V64H88V56Z" fill="#EB5757"/>
<path d="M96 56H88V64H96V56Z" fill="black"/>
<path d="M104 56H96V64H104V56Z" fill="#EB5757"/>
<path d="M112 56H104V64H112V56Z" fill="#27AE60"/>
<path d="M56 64H48V72H56V64Z" fill="#EB5757"/>
<path d="M64 64H56V72H64V64Z" fill="#EB5757"/>
<path d="M72 64H64V72H72V64Z" fill="black"/>
<path d="M80 64H72V72H80V64Z" fill="#EB5757"/>
<path d="M88 64H80V72H88V64Z" fill="#EB5757"/>
<path d="M96 64H88V72H96V64Z" fill="#EB5757"/>
<path d="M104 64H96V72H104V64Z" fill="#EB5757"/>
<path d="M112 64H104V72H112V64Z" fill="#27AE60"/>
<path d="M48 72H40V80H48V72Z" fill="#EB5757"/>
<path d="M56 72H48V80H56V72Z" fill="black"/>
<path d="M64 72H56V80H64V72Z" fill="#EB5757"/>
<path d="M72 72H64V80H72V72Z" fill="#EB5757"/>
<path d="M80 72H72V80H80V72Z" fill="#EB5757"/>
<path d="M88 72H80V80H88V72Z" fill="black"/>
<path d="M96 72H88V80H96V72Z" fill="#EB5757"/>
<path d="M104 72H96V80H104V72Z" fill="#EB5757"/>
<path d="M112 72H104V80H112V72Z" fill="#27AE60"/>
<path d="M40 80H32V88H40V80Z" fill="#EB5757"/>
<path d="M48 80H40V88H48V80Z" fill="#EB5757"/>
<path d="M56 80H48V88H56V80Z" fill="#EB5757"/>
<path d="M64 80H56V88H64V80Z" fill="#EB5757"/>
<path d="M72 80H64V88H72V80Z" fill="#EB5757"/>
<path d="M80 80H72V88H80V80Z" fill="#EB5757"/>
<path d="M88 80H80V88H88V80Z" fill="#EB5757"/>
<path d="M96 80H88V88H96V80Z" fill="#EB5757"/>
<path d="M104 80H96V88H104V80Z" fill="#27AE60"/>
<path d="M32 88H24V96H32V88Z" fill="#EB5757"/>
<path d="M40 88H32V96H40V88Z" fill="#EB5757"/>
<path d="M48 88H40V96H48V88Z" fill="black"/>
<path d="M56 88H48V96H56V88Z" fill="#EB5757"/>
<path d="M64 88H56V96H64V88Z" fill="#EB5757"/>
<path d="M72 88H64V96H72V88Z" fill="#EB5757"/>
<path d="M80 88H72V96H80V88Z" fill="black"/>
<path d="M88 88H80V96H88V88Z" fill="#EB5757"/>
<path d="M96 88H88V96H96V88Z" fill="#EB5757"/>
<path d="M104 88H96V96H104V88Z" fill="#27AE60"/>
<path d="M24 96H16V104H24V96Z" fill="#27AE60"/>
<path d="M32 96H24V104H32V96Z" fill="#EB5757"/>
<path d="M40 96H32V104H40V96Z" fill="#EB5757"/>
<path d="M48 96H40V104H48V96Z" fill="#EB5757"/>
<path d="M56 96H48V104H56V96Z" fill="#EB5757"/>
<path d="M64 96H56V104H64V96Z" fill="black"/>
<path d="M72 96H64V104H72V96Z" fill="#EB5757"/>
<path d="M80 96H72V104H80V96Z" fill="#EB5757"/>
<path d="M88 96H80V104H88V96Z" fill="#EB5757"/>
<path d="M96 96H88V104H96V96Z" fill="#27AE60"/>
<path d="M32 104H24V112H32V104Z" fill="#27AE60"/>
<path d="M40 104H32V112H40V104Z" fill="#27AE60"/>
<path d="M48 104H40V112H48V104Z" fill="#EB5757"/>
<path d="M56 104H48V112H56V104Z" fill="#EB5757"/>
<path d="M64 104H56V112H64V104Z" fill="#EB5757"/>
<path d="M72 104H64V112H72V104Z" fill="#EB5757"/>
<path d="M80 104H72V112H80V104Z" fill="#27AE60"/>
<path d="M88 104H80V112H88V104Z" fill="#27AE60"/>
<path d="M48 112H40V120H48V112Z" fill="#27AE60"/>
<path d="M56 112H48V120H56V112Z" fill="#27AE60"/>
<path d="M64 112H56V120H64V112Z" fill="#27AE60"/>
<path d="M72 112H64V120H72V112Z" fill="#27AE60"/>
</svg>
