<svg width="128" height="128" viewBox="0 0 128 128" fill="none" xmlns="http://www.w3.org/2000/svg">
<rect width="128" height="128" fill="white"/>
<path d="M48 24H40V32H48V24Z" fill="#F2994A"/>
<path d="M56 24H48V32H56V24Z" fill="#F2994A"/>
<path d="M64 24H56V32H64V24Z" fill="#F2994A"/>
<path d="M72 24H64V32H72V24Z" fill="#F2994A"/>
<path d="M80 24H72V32H80V24Z" fill="#F2994A"/>
<path d="M24 32H16V40H24V32Z" fill="#F2994A"/>
<path d="M32 32H24V40H32V32Z" fill="#F2994A"/>
<path d="M40 32H32V40H40V32Z" fill="#F2994A"/>
<path d="M64 32H56V40H64V32Z" fill="#F2994A"/>
<path d="M88 32H80V40H88V32Z" fill="#F2994A"/>
<path d="M96 32H88V40H96V32Z" fill="#F2994A"/>
<path d="M24 40H16V48H24V40Z" fill="#F2994A"/>
<path d="M32 40H24V48H32V40Z" fill="#F2994A"/>
<path d="M40 40H32V48H40V40Z" fill="#F2994A"/>
<path d="M64 40H56V48H64V40Z" fill="#F2994A"/>
<path d="M96 40H88V48H96V40Z" fill="#F2994A"/>
<path d="M16 48H8V56H16V48Z" fill="#F2994A"/>
<path d="M24 48H16V56H24V48Z" fill="#F2994A"/>
<path d="M40 48H32V56H40V48Z" fill="#F2994A"/>
<path d="M64 48H56V56H64V48Z" fill="#F2994A"/>
<path d="M88 48H80V56H88V48Z" fill="#F2994A"/>
<path d="M96 48H88V56H96V48Z" fill="#F2994A"/>
<path d="M104 48H96V56H104V48Z" fill="#F2994A"/>
<path d="M16 56H8V64H16V56Z" fill="#F2994A"/>
<path d="M48 56H40V64H48V56Z" fill="#F2994A"/>
<path d="M64 56H56V64H64V56Z" fill="#F2994A"/>
<path d="M80 56H72V64H80V56Z" fill="#F2994A"/>
<path d="M104 56H96V64H104V56Z" fill="#F2994A"/>
<path d="M16 64H8V72H16V64Z" fill="#F2994A"/>
<path d="M56 64H48V72H56V64Z" fill="#F2994A"/>
<path d="M64 64H56V72H64V64Z" fill="#F2994A"/>
<path d="M72 64H64V72H72V64Z" fill="#F2994A"/>
<path d="M112 64H104V72H112V64Z" fill="#F2994A"/>
<path d="M16 72H8V80H16V72Z" fill="#F2994A"/>
<path d="M24 72H16V80H24V72Z" fill="#F2994A"/>
<path d="M32 72H24V80H32V72Z" fill="#F2994A"/>
<path d="M40 72H32V80H40V72Z" fill="#F2994A"/>
<path d="M48 72H40V80H48V72Z" fill="#F2994A"/>
<path d="M56 72H48V80H56V72Z" fill="#F2994A"/>
<path d="M64 72H56V80H64V72Z" fill="#F2994A"/>
<path d="M72 72H64V80H72V72Z" fill="#F2994A"/>
<path d="M80 72H72V80H80V72Z" fill="#F2994A"/>
<path d="M88 72H80V80H88V72Z" fill="#F2994A"/>
<path d="M96 72H88V80H96V72Z" fill="#F2994A"/>
<path d="M104 72H96V80H104V72Z" fill="#F2994A"/>
<path d="M112 72H104V80H112V72Z" fill="#F2994A"/>
<path d="M16 80H8V88H16V80Z" fill="#F2994A"/>
<path d="M56 80H48V88H56V80Z" fill="#F2994A"/>
<path d="M64 80H56V88H64V80Z" fill="#F2994A"/>
<path d="M72 80H64V88H72V80Z" fill="#F2994A"/>
<path d="M104 80H96V88H104V80Z" fill="#F2994A"/>
<path d="M112 80H104V88H112V80Z" fill="#F2994A"/>
<path d="M16 88H8V96H16V88Z" fill="#F2994A"/>
<path d="M48 88H40V96H48V88Z" fill="#F2994A"/>
<path d="M64 88H56V96H64V88Z" fill="#F2994A"/>
<path d="M72 88H64V96H72V88Z" fill="#F2994A"/>
<path d="M80 88H72V96H80V88Z" fill="#F2994A"/>
<path d="M112 88H104V96H112V88Z" fill="#F2994A"/>
<path d="M16 96H8V104H16V96Z" fill="#F2994A"/>
<path d="M40 96H32V104H40V96Z" fill="#F2994A"/>
<path d="M48 96H40V104H48V96Z" fill="#F2994A"/>
<path d="M64 96H56V104H64V96Z" fill="#F2994A"/>
<path d="M88 96H80V104H88V96Z" fill="#F2994A"/>
<path d="M104 96H96V104H104V96Z" fill="#F2994A"/>
<path d="M24 104H16V112H24V104Z" fill="#F2994A"/>
<path d="M32 104H24V112H32V104Z" fill="#F2994A"/>
<path d="M40 104H32V112H40V104Z" fill="#F2994A"/>
<path d="M64 104H56V112H64V104Z" fill="#F2994A"/>
<path d="M96 104H88V112H96V104Z" fill="#F2994A"/>
<path d="M32 112H24V120H32V112Z" fill="#F2994A"/>
<path d="M40 112H32V120H40V112Z" fill="#F2994A"/>
<path d="M48 112H40V120H48V112Z" fill="#F2994A"/>
<path d="M56 112H48V120H56V112Z" fill="#F2994A"/>
<path d="M64 112H56V120H64V112Z" fill="#F2994A"/>
<path d="M80 112H72V120H80V112Z" fill="#F2994A"/>
<path d="M88 112H80V120H88V112Z" fill="#F2994A"/>
<path d="M72 120H64V128H72V120Z" fill="#F2994A"/>
<path d="M80 120H72V128H80V120Z" fill="#F2994A"/>
</svg>
