<svg width="128" height="128" viewBox="0 0 128 128" fill="none" xmlns="http://www.w3.org/2000/svg">
<rect width="128" height="128" fill="white"/>
<path d="M48 8H40V16H48V8Z" fill="black"/>
<path d="M48 16H40V24H48V16Z" fill="black"/>
<path d="M56 16H48V24H56V16Z" fill="black"/>
<path d="M48 24H40V32H48V24Z" fill="black"/>
<path d="M56 24H48V32H56V24Z" fill="black"/>
<path d="M64 24H56V32H64V24Z" fill="black"/>
<path d="M40 32H32V40H40V32Z" fill="black"/>
<path d="M48 32H40V40H48V32Z" fill="black"/>
<path d="M56 32H48V40H56V32Z" fill="black"/>
<path d="M64 32H56V40H64V32Z" fill="black"/>
<path d="M72 32H64V40H72V32Z" fill="black"/>
<path d="M48 40H40V48H48V40Z" fill="#F2994A"/>
<path d="M56 40H48V48H56V40Z" fill="#F2994A"/>
<path d="M64 40H56V48H64V40Z" fill="#F2994A"/>
<path d="M48 48H40V56H48V48Z" fill="#F2994A"/>
<path d="M56 48H48V56H56V48Z" fill="#F2994A"/>
<path d="M64 48H56V56H64V48Z" fill="#F2994A"/>
<path d="M48 56H40V64H48V56Z" fill="black"/>
<path d="M56 56H48V64H56V56Z" fill="black"/>
<path d="M64 56H56V64H64V56Z" fill="black"/>
<path d="M48 64H40V72H48V64Z" fill="black"/>
<path d="M56 64H48V72H56V64Z" fill="black"/>
<path d="M64 64H56V72H64V64Z" fill="black"/>
<path d="M72 64H64V72H72V64Z" fill="black"/>
<path d="M88 64H80V72H88V64Z" fill="#2F80ED"/>
<path d="M48 72H40V80H48V72Z" fill="black"/>
<path d="M56 72H48V80H56V72Z" fill="black"/>
<path d="M64 72H56V80H64V72Z" fill="black"/>
<path d="M72 72H64V80H72V72Z" fill="#2F80ED"/>
<path d="M80 72H72V80H80V72Z" fill="#2F80ED"/>
<path d="M40 80H32V88H40V80Z" fill="black"/>
<path d="M48 80H40V88H48V80Z" fill="black"/>
<path d="M56 80H48V88H56V80Z" fill="#2F80ED"/>
<path d="M64 80H56V88H64V80Z" fill="#2F80ED"/>
<path d="M32 88H24V96H32V88Z" fill="#F2994A"/>
<path d="M40 88H32V96H40V88Z" fill="#2F80ED"/>
<path d="M48 88H40V96H48V88Z" fill="#2F80ED"/>
<path d="M56 88H48V96H56V88Z" fill="black"/>
<path d="M24 96H16V104H24V96Z" fill="#F2994A"/>
<path d="M32 96H24V104H32V96Z" fill="#2F80ED"/>
<path d="M24 104H16V112H24V104Z" fill="#F2994A"/>
<path d="M32 104H24V112H32V104Z" fill="#F2994A"/>
</svg>
