<svg width="128" height="128" viewBox="0 0 128 128" fill="none" xmlns="http://www.w3.org/2000/svg">
<rect width="128" height="128" fill="white"/>
<path d="M64 24H56V32H64V24Z" fill="#9B51E0"/>
<path d="M64 32H56V40H64V32Z" fill="#9B51E0"/>
<path d="M72 32H64V40H72V32Z" fill="#9B51E0"/>
<path d="M56 40H48V48H56V40Z" fill="#9B51E0"/>
<path d="M64 40H56V48H64V40Z" fill="#9B51E0"/>
<path d="M72 40H64V48H72V40Z" fill="#9B51E0"/>
<path d="M56 48H48V56H56V48Z" fill="black"/>
<path d="M64 48H56V56H64V48Z" fill="#F2C94C"/>
<path d="M72 48H64V56H72V48Z" fill="black"/>
<path d="M104 48H96V56H104V48Z" fill="#EB5757"/>
<path d="M112 48H104V56H112V48Z" fill="#EB5757"/>
<path d="M56 56H48V64H56V56Z" fill="#F2C94C"/>
<path d="M64 56H56V64H64V56Z" fill="#F2C94C"/>
<path d="M72 56H64V64H72V56Z" fill="#F2C94C"/>
<path d="M96 56H88V64H96V56Z" fill="#EB5757"/>
<path d="M112 56H104V64H112V56Z" fill="#EB5757"/>
<path d="M56 64H48V72H56V64Z" fill="black"/>
<path d="M64 64H56V72H64V64Z" fill="black"/>
<path d="M72 64H64V72H72V64Z" fill="black"/>
<path d="M112 64H104V72H112V64Z" fill="#EB5757"/>
<path d="M40 72H32V80H40V72Z" fill="#9B51E0"/>
<path d="M48 72H40V80H48V72Z" fill="#9B51E0"/>
<path d="M56 72H48V80H56V72Z" fill="#9B51E0"/>
<path d="M64 72H56V80H64V72Z" fill="black"/>
<path d="M72 72H64V80H72V72Z" fill="#9B51E0"/>
<path d="M80 72H72V80H80V72Z" fill="#9B51E0"/>
<path d="M112 72H104V80H112V72Z" fill="#EB5757"/>
<path d="M40 80H32V88H40V80Z" fill="#9B51E0"/>
<path d="M48 80H40V88H48V80Z" fill="#9B51E0"/>
<path d="M56 80H48V88H56V80Z" fill="#9B51E0"/>
<path d="M64 80H56V88H64V80Z" fill="black"/>
<path d="M72 80H64V88H72V80Z" fill="#9B51E0"/>
<path d="M80 80H72V88H80V80Z" fill="#9B51E0"/>
<path d="M88 80H80V88H88V80Z" fill="#9B51E0"/>
<path d="M96 80H88V88H96V80Z" fill="#9B51E0"/>
<path d="M104 80H96V88H104V80Z" fill="#9B51E0"/>
<path d="M112 80H104V88H112V80Z" fill="#EB5757"/>
<path d="M32 88H24V96H32V88Z" fill="#9B51E0"/>
<path d="M40 88H32V96H40V88Z" fill="#9B51E0"/>
<path d="M48 88H40V96H48V88Z" fill="#9B51E0"/>
<path d="M56 88H48V96H56V88Z" fill="#9B51E0"/>
<path d="M64 88H56V96H64V88Z" fill="#9B51E0"/>
<path d="M72 88H64V96H72V88Z" fill="#9B51E0"/>
<path d="M80 88H72V96H80V88Z" fill="#9B51E0"/>
<path d="M112 88H104V96H112V88Z" fill="#EB5757"/>
<path d="M32 96H24V104H32V96Z" fill="#9B51E0"/>
<path d="M48 96H40V104H48V96Z" fill="#9B51E0"/>
<path d="M64 96H56V104H64V96Z" fill="#9B51E0"/>
<path d="M72 96H64V104H72V96Z" fill="#9B51E0"/>
<path d="M80 96H72V104H80V96Z" fill="#9B51E0"/>
<path d="M112 96H104V104H112V96Z" fill="#EB5757"/>
<path d="M64 104H56V112H64V104Z" fill="#9B51E0"/>
<path d="M72 104H64V112H72V104Z" fill="#9B51E0"/>
<path d="M80 104H72V112H80V104Z" fill="#9B51E0"/>
<path d="M32 112H24V120H32V112Z" fill="#9B51E0"/>
<path d="M48 112H40V120H48V112Z" fill="#9B51E0"/>
<path d="M72 112H64V120H72V112Z" fill="#9B51E0"/>
<path d="M80 112H72V120H80V112Z" fill="#9B51E0"/>
<path d="M112 112H104V120H112V112Z" fill="#EB5757"/>
</svg>
