<svg width="1920" height="1080" viewBox="0 0 1920 1080" fill="none" xmlns="http://www.w3.org/2000/svg">
<rect width="1920" height="1080" fill="#FFD635"/>
<path d="M673.902 587V493.436H694.723V568.465H728.238V587H673.902ZM792.545 550.691C792.545 553.357 792.228 556.235 791.593 559.324H745.572C746.757 563.26 748.916 566.37 752.047 568.655C755.179 570.898 758.924 572.02 763.282 572.02C766.287 572.02 769.355 571.554 772.487 570.623C775.618 569.692 778.051 568.549 779.786 567.195L786.007 582.176C783.256 583.995 779.913 585.434 775.978 586.492C772.085 587.508 767.98 588.016 763.663 588.016C756.3 588.016 749.868 586.513 744.366 583.509C738.865 580.462 734.654 576.315 731.735 571.067C728.815 565.778 727.355 559.832 727.355 553.23C727.355 546.756 728.751 540.81 731.544 535.394C734.379 529.977 738.357 525.682 743.478 522.508C748.598 519.292 754.459 517.684 761.061 517.684C767.197 517.684 772.635 519.08 777.374 521.873C782.156 524.666 785.88 528.559 788.546 533.553C791.212 538.546 792.545 544.259 792.545 550.691ZM774.073 546.629C774.116 542.566 772.91 539.35 770.455 536.98C768.001 534.611 764.764 533.426 760.743 533.426C756.765 533.426 753.422 534.632 750.714 537.044C748.006 539.456 746.186 542.651 745.255 546.629H774.073ZM828.034 518.699H842.506V535.838H828.034V587H807.975V535.838H793.248V518.699H807.975V499.148H828.034V518.699ZM873.996 503.846C873.996 508.839 872.768 513.198 870.314 516.922C867.86 520.604 865.13 523.883 862.126 526.761L854.064 534.441L848.224 528.094L855.587 521.238C855.884 520.984 856.582 520.35 857.682 519.334C858.825 518.318 859.862 517.282 860.793 516.224C861.724 515.166 862.506 514.108 863.141 513.05C862.422 513.261 861.639 513.367 860.793 513.367C858.804 513.367 856.899 512.859 855.08 511.844C853.26 510.786 851.779 509.347 850.636 507.527C849.536 505.708 848.986 503.634 848.986 501.307C848.986 499.021 849.557 496.969 850.7 495.149C851.842 493.33 853.366 491.912 855.27 490.896C857.217 489.881 859.29 489.373 861.491 489.373C863.776 489.373 865.85 489.923 867.712 491.023C869.616 492.124 871.139 493.774 872.282 495.975C873.424 498.133 873.996 500.757 873.996 503.846ZM899.137 588.016C895.16 588.016 891.288 587.317 887.521 585.921C883.755 584.482 880.433 582.472 877.555 579.891C874.678 577.267 872.52 574.262 871.081 570.877L887.204 564.148C888.304 566.391 889.955 568.296 892.155 569.861C894.356 571.385 896.81 572.146 899.518 572.146C901.846 572.146 903.644 571.618 904.914 570.56C906.226 569.459 906.882 568.211 906.882 566.814C906.882 565.503 906.247 564.36 904.977 563.387C903.708 562.413 902.227 561.631 900.534 561.038C898.884 560.403 896.789 559.747 894.25 559.07C894.419 559.113 893.657 558.901 891.965 558.436C886.336 556.785 881.83 554.31 878.444 551.009C875.059 547.708 873.366 543.434 873.366 538.187C873.366 534.039 874.445 530.379 876.603 527.205C878.804 524.031 881.766 521.598 885.49 519.905C889.214 518.17 893.319 517.303 897.804 517.303C901.782 517.303 905.527 517.98 909.04 519.334C912.552 520.646 915.557 522.465 918.054 524.793C920.55 527.078 922.37 529.617 923.512 532.41L908.278 538.885C907.305 537.361 906.014 535.986 904.406 534.759C902.798 533.532 900.851 532.918 898.566 532.918C896.577 532.918 894.906 533.447 893.552 534.505C892.197 535.521 891.52 536.769 891.52 538.25C891.52 539.646 892.134 540.853 893.361 541.868C894.588 542.841 896.133 543.667 897.995 544.344C899.857 544.979 902.311 545.698 905.358 546.502C908.151 547.264 910.902 548.258 913.61 549.485C916.361 550.713 918.921 552.723 921.291 555.516C923.703 558.266 924.909 561.842 924.909 566.243C924.909 570.433 923.745 574.178 921.418 577.479C919.133 580.779 916.022 583.361 912.087 585.223C908.151 587.085 903.835 588.016 899.137 588.016ZM1030.16 552.913C1030.16 559.853 1028.75 565.989 1025.91 571.321C1023.12 576.611 1019.31 580.716 1014.48 583.636C1009.66 586.556 1004.35 588.016 998.552 588.016C994.532 588.016 990.829 587.296 987.444 585.857C984.058 584.419 981.096 582.345 978.557 579.637H978.366V614.041L958.308 613.787V518.699H977.351V526.697H977.478C980.017 523.735 983.021 521.471 986.491 519.905C989.961 518.34 993.812 517.557 998.044 517.557C1003.84 517.557 1009.19 519.017 1014.1 521.937C1019.01 524.814 1022.91 528.94 1025.78 534.314C1028.7 539.646 1030.16 545.846 1030.16 552.913ZM994.172 570.75C997.431 570.75 1000.31 569.946 1002.8 568.338C1005.34 566.73 1007.29 564.55 1008.64 561.8C1010.04 559.049 1010.74 556.023 1010.74 552.723C1010.74 549.38 1010.02 546.354 1008.58 543.646C1007.18 540.895 1005.22 538.737 1002.68 537.171C1000.18 535.605 997.346 534.822 994.172 534.822C991.125 534.822 988.332 535.584 985.793 537.107C983.296 538.589 981.329 540.704 979.89 543.455C978.451 546.163 977.732 549.316 977.732 552.913C977.732 556.51 978.451 559.663 979.89 562.371C981.371 565.037 983.36 567.111 985.857 568.592C988.353 570.031 991.125 570.75 994.172 570.75ZM1058.99 587H1038.93V489.246H1058.99V587ZM1119.55 518.572H1138.46V587H1119.55V578.748H1119.29C1116.71 581.71 1113.65 583.995 1110.09 585.604C1106.58 587.212 1102.71 588.016 1098.47 588.016C1092.63 588.016 1087.3 586.556 1082.48 583.636C1077.7 580.716 1073.89 576.59 1071.05 571.258C1068.26 565.926 1066.86 559.811 1066.86 552.913C1066.86 545.846 1068.3 539.646 1071.18 534.314C1074.1 528.94 1078.01 524.814 1082.92 521.937C1087.83 519.017 1093.21 517.557 1099.05 517.557C1103.19 517.557 1106.98 518.318 1110.41 519.842C1113.84 521.365 1116.8 523.566 1119.29 526.443H1119.55V518.572ZM1102.85 570.75C1105.9 570.75 1108.67 570.031 1111.17 568.592C1113.67 567.111 1115.63 565.037 1117.07 562.371C1118.55 559.663 1119.29 556.51 1119.29 552.913C1119.29 549.316 1118.58 546.163 1117.14 543.455C1115.7 540.704 1113.71 538.589 1111.17 537.107C1108.67 535.584 1105.9 534.822 1102.85 534.822C1099.68 534.822 1096.82 535.605 1094.28 537.171C1091.79 538.737 1089.82 540.895 1088.38 543.646C1086.98 546.354 1086.29 549.38 1086.29 552.723C1086.29 556.023 1086.96 559.049 1088.32 561.8C1089.71 564.55 1091.66 566.73 1094.16 568.338C1096.7 569.946 1099.6 570.75 1102.85 570.75ZM1197.12 518.699H1218.07L1189.25 594.744C1187.77 598.637 1186.23 601.917 1184.62 604.583C1183.05 607.249 1180.6 609.619 1177.25 611.692C1173.91 613.766 1169.51 614.803 1164.05 614.803C1161.47 614.803 1158.85 614.57 1156.18 614.104C1153.51 613.639 1151.25 613.068 1149.39 612.391L1156.24 596.395C1158.53 597.495 1160.73 598.045 1162.84 598.045C1167.67 598.045 1170.82 595.379 1172.3 590.047L1172.94 587.762L1144.69 518.699H1165.76L1178.59 556.658L1181.76 566.561H1182.14L1185.19 556.658L1197.12 518.699ZM1230.13 556.15L1227.34 493.436H1249.05L1246.38 556.15H1230.13ZM1238.26 588.016C1236.06 588.016 1234.03 587.487 1232.17 586.429C1230.35 585.371 1228.91 583.932 1227.85 582.112C1226.83 580.293 1226.33 578.283 1226.33 576.082C1226.33 573.882 1226.83 571.871 1227.85 570.052C1228.91 568.19 1230.35 566.73 1232.17 565.672C1234.03 564.572 1236.06 564.021 1238.26 564.021C1240.46 564.021 1242.47 564.572 1244.29 565.672C1246.11 566.73 1247.55 568.19 1248.61 570.052C1249.66 571.871 1250.19 573.882 1250.19 576.082C1250.19 578.325 1249.66 580.356 1248.61 582.176C1247.55 583.995 1246.11 585.434 1244.29 586.492C1242.47 587.508 1240.46 588.016 1238.26 588.016Z" fill="black"/>
</svg>
