<svg width="1280" height="640" viewBox="0 0 1280 640" fill="none" xmlns="http://www.w3.org/2000/svg">
<rect width="1280" height="640" fill="#FFD635"/>
<path d="M435.692 166.4H307.692C288.841 166.4 273.559 181.682 273.559 200.533V439.467C273.559 458.318 288.841 473.6 307.692 473.6H478.359C497.21 473.6 512.492 458.318 512.492 439.467V243.2L435.692 166.4Z" fill="#FFD635"/>
<path fill-rule="evenodd" clip-rule="evenodd" d="M433.244 160.487C435.635 159.497 438.388 160.044 440.218 161.875L517.018 238.675C518.849 240.505 519.396 243.258 518.406 245.649C517.415 248.041 515.082 249.6 512.493 249.6H469.826C447.44 249.6 429.293 231.453 429.293 209.067V166.4C429.293 163.812 430.852 161.478 433.244 160.487Z" fill="#FFD635"/>
<path fill-rule="evenodd" clip-rule="evenodd" d="M433.244 160.487C435.635 159.497 438.388 160.044 440.218 161.875L517.018 238.675C518.849 240.505 519.396 243.258 518.406 245.649C517.415 248.041 515.082 249.6 512.493 249.6H469.826C447.44 249.6 429.293 231.453 429.293 209.067V166.4C429.293 163.812 430.852 161.478 433.244 160.487Z" fill="black" fill-opacity="0.25"/>
<path fill-rule="evenodd" clip-rule="evenodd" d="M440.579 162.234C441.553 163.371 442.12 164.839 442.12 166.4V181.878L442.093 181.851V209.067C442.093 224.384 454.51 236.8 469.826 236.8L513 236.8V236.818C513.666 236.868 514.33 237.022 514.969 237.287C515.602 237.549 516.176 237.905 516.678 238.335L517.018 238.675C517.42 239.077 517.761 239.523 518.036 240C518.593 240.965 518.893 242.067 518.893 243.2V439.467C518.893 461.853 500.746 480 478.36 480H307.693C285.308 480 267.16 461.853 267.16 439.467V200.533C267.16 178.147 285.308 160 307.693 160H435.693C437.391 160 439.019 160.674 440.219 161.875L440.579 162.234ZM429.293 172.8H307.693C292.377 172.8 279.96 185.216 279.96 200.533V439.467C279.96 454.784 292.377 467.2 307.693 467.2H478.36C493.677 467.2 506.093 454.784 506.093 439.467V249.6H469.826C447.44 249.6 429.293 231.453 429.293 209.067V172.8Z" fill="black"/>
<path d="M490.411 304.225C493.859 286.187 483.421 269.035 467.098 265.915C450.775 262.796 434.748 274.89 431.301 292.928C427.853 310.966 438.291 328.118 454.614 331.238C470.937 334.357 486.964 322.263 490.411 304.225Z" fill="#51E9F4"/>
<path d="M439.854 322.113C440.628 321.919 442.272 323.182 444.915 324.541C448.089 326.228 451.539 327.325 455.101 327.779C459.13 328.278 463.22 327.755 466.996 326.258C470.047 325.066 472.822 323.259 475.151 320.947C478.178 317.694 480.531 313.869 482.075 309.695C483.619 305.521 484.322 301.08 484.144 296.631C484.083 292.451 483.034 288.346 481.084 284.653C479.134 280.96 476.338 277.786 472.927 275.391C470.216 273.64 467.141 272.537 463.939 272.167C460.737 271.796 457.493 272.168 454.457 273.254C448.286 275.545 443.154 280.01 440.016 285.817C436.873 291.434 435.407 297.841 435.793 304.273C435.99 307.269 436.564 310.228 437.501 313.08C438.464 315.742 439.73 318.285 441.273 320.656C437.988 319.763 434.982 318.047 432.537 315.67C429.588 312.771 427.31 309.255 425.865 305.373C423.18 298.826 423.077 291.499 425.575 284.878C429.116 277.388 434.706 271.065 441.692 266.649C448.017 262.618 455.463 260.734 462.934 261.274C469.767 261.89 476.227 264.681 481.372 269.239C486.105 273.444 489.632 278.843 491.591 284.878C493.436 290.497 494.03 296.455 493.331 302.33C492.636 307.891 490.779 313.242 487.884 318.033C485.142 322.614 481.379 326.493 476.892 329.366C472.654 332.064 467.811 333.656 462.805 333.996C460.205 334.191 457.591 333.951 455.069 333.284C452.398 332.552 449.862 331.393 447.558 329.852C444.481 327.84 441.857 325.204 439.854 322.113V322.113Z" fill="black"/>
<path d="M334.109 281.193C336.665 263.753 333.178 248.8 326.32 247.794C319.461 246.789 311.829 260.112 309.272 277.552C306.715 294.992 310.203 309.945 317.061 310.951C323.919 311.956 331.552 298.633 334.109 281.193Z" fill="#51E9F4"/>
<path d="M334.392 279.634C333.412 278.904 333.851 273.476 333.344 267.318C333.137 264.239 332.604 261.187 331.756 258.208C331.224 255.898 330.15 253.729 328.612 251.859C328.234 251.451 327.775 251.117 327.26 250.875C326.847 250.697 326.396 250.61 325.942 250.621C325.639 250.659 325.348 250.754 325.087 250.901C324.825 251.049 324.598 251.245 324.421 251.478C323.595 252.264 322.869 253.138 322.257 254.081C320.719 256.527 319.472 259.124 318.539 261.826C316.547 267.566 315.321 273.516 314.889 279.539C314.389 285.168 314.673 290.834 315.734 296.394C316.004 297.546 316.354 298.681 316.782 299.791C316.953 300.237 317.156 300.672 317.39 301.092C317.462 301.276 317.564 301.447 317.694 301.6C317.694 301.6 317.694 301.6 317.694 301.6C317.694 301.6 318.066 302.013 318.269 302.044C320.102 300.918 321.667 299.449 322.866 297.727C324.339 295.766 325.66 293.708 326.821 291.569C328.99 287.525 330.92 283.371 332.601 279.126C334.995 284.094 335.906 289.58 335.237 294.997C334.994 300.04 332.864 304.84 329.22 308.552C328.09 309.488 326.88 310.338 325.604 311.091C324.747 311.556 323.855 311.959 322.934 312.297C322.053 312.623 321.134 312.847 320.196 312.964C317.996 313.214 315.767 312.861 313.776 311.949C311.785 311.037 310.117 309.603 308.974 307.822C308.595 307.289 308.267 306.726 307.993 306.139C307.475 305.112 307.034 304.051 306.675 302.965C306.103 300.977 305.696 298.95 305.458 296.902C304.761 289.672 305.034 282.388 306.27 275.222C307.22 268.748 309.002 262.406 311.576 256.335C312.834 253.359 314.542 250.569 316.647 248.05C317.203 247.383 317.826 246.766 318.506 246.209C319.271 245.536 320.109 244.94 321.007 244.431C322.939 243.45 325.143 243.04 327.328 243.257C329.87 243.756 332.13 245.111 333.682 247.066C334.901 248.559 335.869 250.218 336.555 251.986C337.697 254.986 338.335 258.134 338.448 261.318C338.621 264.969 338.176 268.623 337.13 272.143C336.435 274.705 335.519 277.211 334.392 279.634V279.634Z" fill="black"/>
<path d="M417.25 428.715C435.014 418.287 452.06 401.812 467.872 387.645C469.127 386.775 470.18 385.636 470.958 384.31C471.736 382.983 472.22 381.5 472.378 379.963C472.158 378.31 471.511 376.747 470.502 375.433C469.494 374.119 468.16 373.102 466.638 372.485C461.53 369.564 456.078 367.986 450.941 365.27C442.676 360.918 437.712 352.739 431.685 345.173C424.413 335.702 415.396 327.764 405.14 321.805C384.449 310.325 361.233 311.727 340.801 323.324C333.167 327.647 326.222 333.547 318.732 338.25C299.591 350.402 252.528 348.386 239.614 369.914C234.994 377.509 243.689 386.477 250.892 390.099L293.938 411.744C313.624 421.617 333.512 431.548 354.489 436.222C375.467 440.896 398.081 440.019 417.25 428.715Z" fill="#FF4500"/>
<path d="M417.492 429.407C413.427 432.827 408.722 435.391 403.656 436.944C393.277 440.543 382.299 442.055 371.343 441.392C358.761 440.559 346.354 437.974 334.475 433.71C323.017 429.753 313.105 425.305 305.972 422.157C293.425 416.699 280.677 410.778 267.586 404.829L257.76 400.266L252.833 397.955L250.37 396.8L249.109 396.193L247.677 395.471C243.757 393.394 240.29 390.546 237.479 387.096C235.861 385.15 234.617 382.917 233.812 380.511C232.814 377.623 232.734 374.493 233.583 371.558C233.757 370.79 234.036 370.052 234.414 369.363C234.686 368.723 235.022 368.114 235.416 367.543C236.017 366.534 236.687 365.569 237.422 364.655C238.82 362.889 240.405 361.282 242.148 359.861C245.4 357.168 248.994 354.925 252.833 353.189C259.929 350.046 267.305 347.59 274.862 345.854L296.06 340.915C302.431 339.585 308.611 337.45 314.451 334.561C315.425 334.012 316.686 333.204 317.889 332.395L321.527 329.853L329.032 324.453C334.391 320.56 340.154 317.267 346.22 314.633C358.361 309.227 371.767 307.375 384.903 309.291C398.039 311.206 410.375 316.811 420.5 325.464C425.269 329.359 429.67 333.69 433.648 338.402C437.63 342.994 440.982 347.933 444.133 352.005C446.842 355.828 450.316 359.036 454.331 361.42C458.485 363.702 463.641 365.493 468.826 368.381C470.339 369.185 471.761 370.154 473.066 371.269L474.097 372.28C474.492 372.703 474.864 373.147 475.214 373.608C475.874 374.505 476.431 375.474 476.876 376.496C477.7 378.587 477.909 380.874 477.477 383.081C476.995 385.21 476.013 387.191 474.613 388.857C473.597 390.083 472.465 391.205 471.232 392.208L468.368 394.634L462.638 399.399C447.571 412.02 433.018 423.544 418.323 430.937C429.781 421.089 443.732 405.695 457.454 390.966L462.61 385.565C463.469 384.67 464.386 383.774 464.93 383.11C465.344 382.674 465.674 382.165 465.904 381.608C465.919 381.464 465.895 381.317 465.835 381.185C465.774 381.053 465.679 380.94 465.56 380.857V380.857C465.56 380.857 465.389 380.857 465.188 380.626C464.692 380.279 464.164 379.979 463.612 379.731C457.224 376.67 449.633 374.648 444.448 370.634C440.017 367.102 436.152 362.904 432.99 358.186C430.125 353.969 427.49 350.128 424.596 346.633C419.041 339.542 412.362 333.424 404.83 328.525C397.509 323.863 389.25 320.903 380.653 319.861C372.215 318.922 363.676 319.778 355.587 322.373C347.606 325.006 340.092 328.906 333.329 333.926C329.863 336.323 326.397 338.835 322.787 341.175C320.95 342.395 319.036 343.495 317.058 344.467C315.081 345.383 313.054 346.184 310.985 346.864C303.127 349.322 295.142 351.347 287.066 352.929C279.445 354.449 271.909 356.377 264.492 358.706C257.603 360.672 251.259 364.221 245.958 369.074C244.828 370.258 243.82 371.554 242.95 372.944C242.351 373.961 242.099 375.148 242.234 376.323C242.836 379.181 244.369 381.753 246.588 383.63C247.747 384.709 249.003 385.676 250.341 386.518C251.728 387.388 253.174 388.16 254.667 388.829L264.235 393.45L282.855 402.432C307.318 414.215 329.548 426.085 351.749 432.208C364.221 435.818 377.207 437.293 390.163 436.569C399.629 435.874 408.889 433.447 417.492 429.407V429.407Z" fill="black"/>
<path d="M280.877 367.78C281.288 364.855 297.21 362.105 302.615 359.005C312.251 353.623 322.768 348.68 330.17 342.011C333.372 339.233 336.398 335.957 340.07 332.535C343.848 328.818 348.153 325.674 352.849 323.204C360.985 318.927 370.491 318.033 379.288 320.718C376.115 324.345 372.59 327.855 369.858 330.751C367.126 333.646 364.952 335.752 363.219 335.957C356.315 336.659 350.176 341.251 344.477 345.843C339.085 350.338 333.349 354.406 327.321 358.01C317.638 364.114 306.764 368.102 295.418 369.71C290.498 369.863 285.585 369.211 280.877 367.78V367.78Z" fill="white" fill-opacity="0.5"/>
<path d="M456.418 382.335C456.418 383.622 450.712 389.897 442.353 395.743C440.327 397.271 438.102 398.665 435.905 400.033C433.708 401.401 431.397 402.714 429.2 403.894C427.003 405.074 424.835 406.093 422.895 407.058C420.955 408.024 419.158 408.801 417.645 409.499C412.174 412.008 406.436 413.967 400.527 415.344C394.279 416.735 387.889 417.49 381.469 417.597C368.532 417.777 355.691 415.487 343.723 410.866C333.738 407.166 324.808 402.607 316.134 399.148C307.78 395.762 299.094 393.149 290.2 391.345C274.891 388.369 259.182 387.654 243.639 389.227C250.093 384.458 257.598 381.105 265.607 379.412C272.527 377.623 279.772 377.239 286.862 378.286C295.06 380.171 303.091 382.645 310.885 385.687C317.993 388.518 324.945 391.687 331.712 395.179C337.866 398.352 344.2 401.208 350.685 403.733C353.766 404.94 356.933 405.745 360.014 406.629C363.078 407.364 366.183 407.937 369.315 408.346C380.855 409.826 392.594 409.115 403.837 406.254C413.616 403.741 423.04 400.141 431.911 395.528C435.819 393.463 441.411 390.862 446.176 388.154L449.628 386.25L452.481 384.48L456.418 382.335Z" fill="black"/>
<path d="M658.616 237.351C670.67 237.351 681.264 239.522 690.398 243.864C699.607 248.132 706.757 254.383 711.849 262.619C716.94 270.78 719.485 280.55 719.485 291.931C719.485 303.386 716.94 313.418 711.849 322.028C706.832 330.638 699.795 337.302 690.735 342.019C681.676 346.735 671.344 349.094 659.739 349.094H639.524V403H602.688V237.351H658.616ZM657.942 316.638C662.959 316.638 667.413 315.627 671.307 313.605C675.2 311.584 678.195 308.776 680.291 305.183C682.462 301.589 683.548 297.546 683.548 293.054C683.548 288.487 682.425 284.481 680.179 281.037C678.007 277.593 674.863 274.935 670.745 273.063C666.702 271.192 661.985 270.256 656.595 270.256H639.524V316.638H657.942ZM765.71 403H730.222V230.051H765.71V403ZM870.558 281.936H904.024V403H870.558V388.4H870.108C865.541 393.641 860.113 397.684 853.824 400.529C847.61 403.374 840.759 404.797 833.272 404.797C822.94 404.797 813.507 402.214 804.972 397.048C796.511 391.882 789.773 384.582 784.757 375.148C779.815 365.715 777.345 354.896 777.345 342.692C777.345 330.189 779.89 319.221 784.981 309.787C790.147 300.279 797.073 292.979 805.758 287.888C814.443 282.722 823.951 280.139 834.283 280.139C841.62 280.139 848.321 281.486 854.386 284.182C860.45 286.877 865.691 290.77 870.108 295.861H870.558V281.936ZM841.021 374.25C846.412 374.25 851.316 372.977 855.733 370.432C860.151 367.811 863.632 364.143 866.178 359.426C868.798 354.634 870.108 349.056 870.108 342.692C870.108 336.328 868.836 330.751 866.29 325.959C863.744 321.092 860.226 317.349 855.733 314.729C851.316 312.033 846.412 310.686 841.021 310.686C835.406 310.686 830.353 312.071 825.86 314.841C821.443 317.611 817.962 321.429 815.416 326.296C812.945 331.088 811.71 336.441 811.71 342.355C811.71 348.195 812.908 353.549 815.304 358.415C817.774 363.282 821.218 367.137 825.636 369.982C830.128 372.827 835.257 374.25 841.021 374.25ZM1005.5 282.16H1042.56L991.577 416.701C988.957 423.589 986.224 429.392 983.379 434.108C980.609 438.825 976.266 443.018 970.352 446.687C964.437 450.355 956.65 452.189 946.992 452.189C942.425 452.189 937.783 451.778 933.066 450.954C928.35 450.131 924.344 449.12 921.05 447.922L933.179 419.621C937.222 421.568 941.115 422.541 944.858 422.541C953.394 422.541 958.971 417.824 961.592 408.391L962.715 404.348L912.739 282.16H950.024L972.71 349.318L978.325 366.838H978.999L984.39 349.318L1005.5 282.16Z" fill="black"/>
</svg>
