<svg width="1920" height="1080" viewBox="0 0 1920 1080" fill="none" xmlns="http://www.w3.org/2000/svg">
<rect width="1920" height="1080" fill="#FFD635"/>
<path d="M206.859 489.246H226.918V587H207.748V579.129H207.494C204.955 581.964 201.951 584.165 198.48 585.73C195.01 587.254 191.202 588.016 187.055 588.016C181.257 588.016 175.946 586.556 171.122 583.636C166.298 580.716 162.468 576.611 159.633 571.321C156.84 565.989 155.443 559.853 155.443 552.913C155.443 545.846 156.882 539.646 159.76 534.314C162.68 528.94 166.594 524.814 171.503 521.937C176.412 519.017 181.765 517.557 187.562 517.557C191.371 517.557 194.862 518.191 198.036 519.461C201.21 520.73 204.003 522.55 206.415 524.92H206.859V489.246ZM191.435 570.75C194.481 570.75 197.253 570.031 199.75 568.592C202.247 567.111 204.215 565.037 205.653 562.371C207.134 559.663 207.875 556.51 207.875 552.913C207.875 549.316 207.156 546.163 205.717 543.455C204.278 540.704 202.289 538.589 199.75 537.107C197.253 535.584 194.481 534.822 191.435 534.822C188.261 534.822 185.404 535.605 182.865 537.171C180.368 538.737 178.401 540.895 176.962 543.646C175.565 546.354 174.867 549.38 174.867 552.723C174.867 556.023 175.544 559.049 176.898 561.8C178.295 564.55 180.242 566.73 182.738 568.338C185.277 569.946 188.176 570.75 191.435 570.75ZM299.223 550.691C299.223 553.357 298.905 556.235 298.271 559.324H252.25C253.435 563.26 255.593 566.37 258.725 568.655C261.856 570.898 265.601 572.02 269.96 572.02C272.965 572.02 276.033 571.554 279.164 570.623C282.296 569.692 284.729 568.549 286.464 567.195L292.685 582.176C289.934 583.995 286.591 585.434 282.655 586.492C278.762 587.508 274.657 588.016 270.341 588.016C262.978 588.016 256.545 586.513 251.044 583.509C245.543 580.462 241.332 576.315 238.412 571.067C235.492 565.778 234.032 559.832 234.032 553.23C234.032 546.756 235.429 540.81 238.222 535.394C241.057 529.977 245.035 525.682 250.155 522.508C255.276 519.292 261.137 517.684 267.738 517.684C273.875 517.684 279.312 519.08 284.052 521.873C288.834 524.666 292.558 528.559 295.224 533.553C297.89 538.546 299.223 544.259 299.223 550.691ZM280.751 546.629C280.793 542.566 279.587 539.35 277.133 536.98C274.679 534.611 271.441 533.426 267.421 533.426C263.443 533.426 260.1 534.632 257.392 537.044C254.683 539.456 252.864 542.651 251.933 546.629H280.751ZM323.666 587L297.387 518.699H318.715L328.11 548.533L332.807 565.799H333.442L338.139 548.533L347.788 518.699H368.862L342.582 587H323.666ZM431.264 550.691C431.264 553.357 430.947 556.235 430.312 559.324H384.292C385.476 563.26 387.635 566.37 390.766 568.655C393.898 570.898 397.643 572.02 402.002 572.02C405.006 572.02 408.074 571.554 411.206 570.623C414.337 569.692 416.77 568.549 418.505 567.195L424.726 582.176C421.976 583.995 418.632 585.434 414.697 586.492C410.804 587.508 406.699 588.016 402.382 588.016C395.019 588.016 388.587 586.513 383.086 583.509C377.584 580.462 373.374 576.315 370.454 571.067C367.534 565.778 366.074 559.832 366.074 553.23C366.074 546.756 367.47 540.81 370.263 535.394C373.099 529.977 377.076 525.682 382.197 522.508C387.317 519.292 393.178 517.684 399.78 517.684C405.916 517.684 411.354 519.08 416.093 521.873C420.875 524.666 424.599 528.559 427.265 533.553C429.931 538.546 431.264 544.259 431.264 550.691ZM412.793 546.629C412.835 542.566 411.629 539.35 409.174 536.98C406.72 534.611 403.483 533.426 399.462 533.426C395.485 533.426 392.142 534.632 389.433 537.044C386.725 539.456 384.905 542.651 383.974 546.629H412.793ZM460.151 587H440.093V489.246H460.151V587ZM503.447 588.016C496.846 588.016 490.794 586.45 485.293 583.318C479.792 580.187 475.433 575.934 472.217 570.56C469.001 565.143 467.393 559.197 467.393 552.723C467.393 546.29 469.001 540.387 472.217 535.013C475.433 529.638 479.792 525.385 485.293 522.254C490.794 519.122 496.846 517.557 503.447 517.557C510.007 517.557 516.037 519.122 521.538 522.254C527.039 525.385 531.398 529.638 534.614 535.013C537.873 540.387 539.502 546.29 539.502 552.723C539.502 559.197 537.873 565.143 534.614 570.56C531.398 575.934 527.039 580.187 521.538 583.318C516.037 586.45 510.007 588.016 503.447 588.016ZM503.384 570.75C506.558 570.75 509.435 569.946 512.017 568.338C514.598 566.688 516.629 564.487 518.11 561.736C519.591 558.943 520.332 555.896 520.332 552.596C520.332 549.253 519.57 546.227 518.047 543.519C516.566 540.81 514.535 538.694 511.953 537.171C509.372 535.605 506.536 534.822 503.447 534.822C500.4 534.822 497.565 535.626 494.941 537.234C492.36 538.8 490.286 540.958 488.721 543.709C487.197 546.417 486.436 549.422 486.436 552.723C486.436 555.939 487.176 558.922 488.657 561.673C490.138 564.424 492.17 566.624 494.751 568.274C497.332 569.925 500.21 570.75 503.384 570.75ZM618.599 552.913C618.599 559.853 617.181 565.989 614.346 571.321C611.553 576.611 607.744 580.716 602.92 583.636C598.096 586.556 592.785 588.016 586.987 588.016C582.967 588.016 579.265 587.296 575.879 585.857C572.494 584.419 569.531 582.345 566.992 579.637H566.802V614.041L546.743 613.787V518.699H565.786V526.697H565.913C568.452 523.735 571.457 521.471 574.927 519.905C578.397 518.34 582.248 517.557 586.48 517.557C592.277 517.557 597.63 519.017 602.539 521.937C607.448 524.814 611.341 528.94 614.219 534.314C617.139 539.646 618.599 545.846 618.599 552.913ZM582.608 570.75C585.866 570.75 588.744 569.946 591.24 568.338C593.779 566.73 595.726 564.55 597.08 561.8C598.477 559.049 599.175 556.023 599.175 552.723C599.175 549.38 598.456 546.354 597.017 543.646C595.62 540.895 593.653 538.737 591.113 537.171C588.617 535.605 585.781 534.822 582.608 534.822C579.561 534.822 576.768 535.584 574.229 537.107C571.732 538.589 569.764 540.704 568.325 543.455C566.887 546.163 566.167 549.316 566.167 552.913C566.167 556.51 566.887 559.663 568.325 562.371C569.806 565.037 571.795 567.111 574.292 568.592C576.789 570.031 579.561 570.75 582.608 570.75ZM688.746 550.691C688.746 553.357 688.428 556.235 687.793 559.324H641.773C642.958 563.26 645.116 566.37 648.247 568.655C651.379 570.898 655.124 572.02 659.483 572.02C662.487 572.02 665.555 571.554 668.687 570.623C671.818 569.692 674.252 568.549 675.987 567.195L682.207 582.176C679.457 583.995 676.114 585.434 672.178 586.492C668.285 587.508 664.18 588.016 659.864 588.016C652.5 588.016 646.068 586.513 640.567 583.509C635.066 580.462 630.855 576.315 627.935 571.067C625.015 565.778 623.555 559.832 623.555 553.23C623.555 546.756 624.952 540.81 627.745 535.394C630.58 529.977 634.558 525.682 639.678 522.508C644.799 519.292 650.66 517.684 657.261 517.684C663.397 517.684 668.835 519.08 673.575 521.873C678.357 524.666 682.08 528.559 684.746 533.553C687.413 538.546 688.746 544.259 688.746 550.691ZM670.274 546.629C670.316 542.566 669.11 539.35 666.656 536.98C664.201 534.611 660.964 533.426 656.944 533.426C652.966 533.426 649.623 534.632 646.914 537.044C644.206 539.456 642.386 542.651 641.455 546.629H670.274ZM736.485 517.557C737.966 517.557 739.468 517.705 740.992 518.001C742.515 518.255 743.7 518.572 744.547 518.953L736.422 538.25C735.914 537.954 735.152 537.7 734.136 537.488C733.163 537.234 732.063 537.107 730.836 537.107C728.17 537.107 725.736 537.721 723.536 538.948C721.335 540.133 719.579 541.847 718.267 544.09C716.998 546.29 716.363 548.872 716.363 551.834V587H696.304V518.699H715.728V528.221H716.109C718.436 525.047 721.42 522.487 725.059 520.54C728.741 518.551 732.549 517.557 736.485 517.557ZM770.577 588.016C766.599 588.016 762.727 587.317 758.961 585.921C755.194 584.482 751.873 582.472 748.995 579.891C746.117 577.267 743.959 574.262 742.52 570.877L758.643 564.148C759.744 566.391 761.394 568.296 763.595 569.861C765.795 571.385 768.249 572.146 770.958 572.146C773.285 572.146 775.084 571.618 776.353 570.56C777.665 569.459 778.321 568.211 778.321 566.814C778.321 565.503 777.686 564.36 776.417 563.387C775.147 562.413 773.666 561.631 771.973 561.038C770.323 560.403 768.228 559.747 765.689 559.07C765.859 559.113 765.097 558.901 763.404 558.436C757.776 556.785 753.269 554.31 749.884 551.009C746.498 547.708 744.805 543.434 744.805 538.187C744.805 534.039 745.885 530.379 748.043 527.205C750.243 524.031 753.206 521.598 756.93 519.905C760.653 518.17 764.758 517.303 769.244 517.303C773.222 517.303 776.967 517.98 780.479 519.334C783.992 520.646 786.996 522.465 789.493 524.793C791.99 527.078 793.809 529.617 794.952 532.41L779.718 538.885C778.744 537.361 777.454 535.986 775.846 534.759C774.237 533.532 772.291 532.918 770.006 532.918C768.017 532.918 766.345 533.447 764.991 534.505C763.637 535.521 762.96 536.769 762.96 538.25C762.96 539.646 763.573 540.853 764.801 541.868C766.028 542.841 767.572 543.667 769.434 544.344C771.296 544.979 773.751 545.698 776.798 546.502C779.591 547.264 782.341 548.258 785.05 549.485C787.8 550.713 790.36 552.723 792.73 555.516C795.142 558.266 796.348 561.842 796.348 566.243C796.348 570.433 795.185 574.178 792.857 577.479C790.572 580.779 787.462 583.361 783.526 585.223C779.591 587.085 775.274 588.016 770.577 588.016ZM813.873 588.016C811.673 588.016 809.641 587.487 807.779 586.429C805.96 585.371 804.521 583.932 803.463 582.112C802.447 580.293 801.939 578.283 801.939 576.082C801.939 573.882 802.447 571.871 803.463 570.052C804.521 568.19 805.96 566.73 807.779 565.672C809.641 564.572 811.673 564.021 813.873 564.021C816.074 564.021 818.084 564.572 819.903 565.672C821.723 566.73 823.162 568.19 824.22 570.052C825.278 571.871 825.807 573.882 825.807 576.082C825.807 578.325 825.278 580.356 824.22 582.176C823.162 583.995 821.723 585.434 819.903 586.492C818.084 587.508 816.074 588.016 813.873 588.016ZM875.768 517.557C877.249 517.557 878.751 517.705 880.275 518.001C881.798 518.255 882.983 518.572 883.829 518.953L875.704 538.25C875.196 537.954 874.435 537.7 873.419 537.488C872.446 537.234 871.346 537.107 870.118 537.107C867.452 537.107 865.019 537.721 862.819 538.948C860.618 540.133 858.862 541.847 857.55 544.09C856.28 546.29 855.646 548.872 855.646 551.834V587H835.587V518.699H855.011V528.221H855.392C857.719 525.047 860.703 522.487 864.342 520.54C868.024 518.551 871.832 517.557 875.768 517.557ZM944.074 550.691C944.074 553.357 943.756 556.235 943.121 559.324H897.101C898.286 563.26 900.444 566.37 903.576 568.655C906.707 570.898 910.452 572.02 914.811 572.02C917.815 572.02 920.884 571.554 924.015 570.623C927.147 569.692 929.58 568.549 931.315 567.195L937.536 582.176C934.785 583.995 931.442 585.434 927.506 586.492C923.613 587.508 919.508 588.016 915.192 588.016C907.828 588.016 901.396 586.513 895.895 583.509C890.394 580.462 886.183 576.315 883.263 571.067C880.343 565.778 878.883 559.832 878.883 553.23C878.883 546.756 880.28 540.81 883.073 535.394C885.908 529.977 889.886 525.682 895.006 522.508C900.127 519.292 905.988 517.684 912.589 517.684C918.725 517.684 924.163 519.08 928.903 521.873C933.685 524.666 937.409 528.559 940.075 533.553C942.741 538.546 944.074 544.259 944.074 550.691ZM925.602 546.629C925.644 542.566 924.438 539.35 921.984 536.98C919.529 534.611 916.292 533.426 912.272 533.426C908.294 533.426 904.951 534.632 902.243 537.044C899.534 539.456 897.715 542.651 896.784 546.629H925.602ZM1000.38 489.246H1020.44V587H1001.27V579.129H1001.02C998.478 581.964 995.474 584.165 992.004 585.73C988.533 587.254 984.725 588.016 980.578 588.016C974.78 588.016 969.469 586.556 964.645 583.636C959.821 580.716 955.991 576.611 953.156 571.321C950.363 565.989 948.966 559.853 948.966 552.913C948.966 545.846 950.405 539.646 953.283 534.314C956.203 528.94 960.117 524.814 965.026 521.937C969.935 519.017 975.288 517.557 981.086 517.557C984.894 517.557 988.385 518.191 991.559 519.461C994.733 520.73 997.526 522.55 999.938 524.92H1000.38V489.246ZM984.958 570.75C988.005 570.75 990.776 570.031 993.273 568.592C995.77 567.111 997.738 565.037 999.176 562.371C1000.66 559.663 1001.4 556.51 1001.4 552.913C1001.4 549.316 1000.68 546.163 999.24 543.455C997.801 540.704 995.812 538.589 993.273 537.107C990.776 535.584 988.005 534.822 984.958 534.822C981.784 534.822 978.927 535.605 976.388 537.171C973.892 538.737 971.924 540.895 970.485 543.646C969.089 546.354 968.39 549.38 968.39 552.723C968.39 556.023 969.067 559.049 970.422 561.8C971.818 564.55 973.765 566.73 976.261 568.338C978.8 569.946 981.699 570.75 984.958 570.75ZM1078.84 489.246H1098.9V587H1079.73V579.129H1079.48C1076.94 581.964 1073.94 584.165 1070.47 585.73C1067 587.254 1063.19 588.016 1059.04 588.016C1053.24 588.016 1047.93 586.556 1043.11 583.636C1038.28 580.716 1034.45 576.611 1031.62 571.321C1028.83 565.989 1027.43 559.853 1027.43 552.913C1027.43 545.846 1028.87 539.646 1031.74 534.314C1034.66 528.94 1038.58 524.814 1043.49 521.937C1048.4 519.017 1053.75 517.557 1059.55 517.557C1063.36 517.557 1066.85 518.191 1070.02 519.461C1073.2 520.73 1075.99 522.55 1078.4 524.92H1078.84V489.246ZM1063.42 570.75C1066.47 570.75 1069.24 570.031 1071.74 568.592C1074.23 567.111 1076.2 565.037 1077.64 562.371C1079.12 559.663 1079.86 556.51 1079.86 552.913C1079.86 549.316 1079.14 546.163 1077.7 543.455C1076.26 540.704 1074.27 538.589 1071.74 537.107C1069.24 535.584 1066.47 534.822 1063.42 534.822C1060.25 534.822 1057.39 535.605 1054.85 537.171C1052.35 538.737 1050.39 540.895 1048.95 543.646C1047.55 546.354 1046.85 549.38 1046.85 552.723C1046.85 556.023 1047.53 559.049 1048.88 561.8C1050.28 564.55 1052.23 566.73 1054.72 568.338C1057.26 569.946 1060.16 570.75 1063.42 570.75ZM1131.28 587H1111.1V518.699H1131.28V587ZM1121.25 510.828C1119.01 510.828 1116.96 510.299 1115.09 509.241C1113.23 508.141 1111.75 506.66 1110.65 504.798C1109.59 502.936 1109.06 500.883 1109.06 498.641C1109.06 496.398 1109.59 494.345 1110.65 492.483C1111.75 490.621 1113.23 489.161 1115.09 488.104C1116.96 487.003 1119.01 486.453 1121.25 486.453C1123.49 486.453 1125.55 487.003 1127.41 488.104C1129.27 489.161 1130.73 490.621 1131.79 492.483C1132.89 494.345 1133.44 496.398 1133.44 498.641C1133.44 500.883 1132.89 502.936 1131.79 504.798C1130.73 506.66 1129.27 508.141 1127.41 509.241C1125.55 510.299 1123.49 510.828 1121.25 510.828ZM1171.4 518.699H1185.88V535.838H1171.4V587H1151.34V535.838H1136.62V518.699H1151.34V499.148H1171.4V518.699ZM1202.26 588.016C1200.06 588.016 1198.03 587.487 1196.16 586.429C1194.34 585.371 1192.91 583.932 1191.85 582.112C1190.83 580.293 1190.32 578.283 1190.32 576.082C1190.32 573.882 1190.83 571.871 1191.85 570.052C1192.91 568.19 1194.34 566.73 1196.16 565.672C1198.03 564.572 1200.06 564.021 1202.26 564.021C1204.46 564.021 1206.47 564.572 1208.29 565.672C1210.11 566.73 1211.55 568.19 1212.6 570.052C1213.66 571.871 1214.19 573.882 1214.19 576.082C1214.19 578.325 1213.66 580.356 1212.6 582.176C1211.55 583.995 1210.11 585.434 1208.29 586.492C1206.47 587.508 1204.46 588.016 1202.26 588.016ZM1257.11 587.762C1250.38 587.762 1244.2 586.217 1238.57 583.128C1232.99 580.039 1228.54 575.807 1225.24 570.433C1221.94 565.058 1220.29 559.113 1220.29 552.596C1220.29 545.994 1221.94 540.027 1225.24 534.695C1228.58 529.321 1233.01 525.132 1238.51 522.127C1244.05 519.08 1249.96 517.557 1256.22 517.557C1260.07 517.557 1263.84 518.128 1267.52 519.271C1271.2 520.371 1274.54 521.915 1277.55 523.904L1270.06 540.027C1268.32 538.377 1266.29 537.107 1263.96 536.219C1261.64 535.288 1259.22 534.822 1256.73 534.822C1253.59 534.822 1250.7 535.563 1248.03 537.044C1245.41 538.525 1243.31 540.62 1241.75 543.328C1240.22 545.994 1239.46 549.062 1239.46 552.532C1239.46 555.875 1240.18 558.922 1241.62 561.673C1243.06 564.381 1245.09 566.539 1247.71 568.147C1250.34 569.713 1253.34 570.496 1256.73 570.496C1259.35 570.496 1261.89 570.073 1264.34 569.227C1266.8 568.338 1268.79 567.195 1270.31 565.799L1277.55 582.303C1274.92 583.911 1271.83 585.223 1268.28 586.238C1264.72 587.254 1261 587.762 1257.11 587.762ZM1313.23 588.016C1306.62 588.016 1300.57 586.45 1295.07 583.318C1289.57 580.187 1285.21 575.934 1281.99 570.56C1278.78 565.143 1277.17 559.197 1277.17 552.723C1277.17 546.29 1278.78 540.387 1281.99 535.013C1285.21 529.638 1289.57 525.385 1295.07 522.254C1300.57 519.122 1306.62 517.557 1313.23 517.557C1319.78 517.557 1325.81 519.122 1331.32 522.254C1336.82 525.385 1341.18 529.638 1344.39 535.013C1347.65 540.387 1349.28 546.29 1349.28 552.723C1349.28 559.197 1347.65 565.143 1344.39 570.56C1341.18 575.934 1336.82 580.187 1331.32 583.318C1325.81 586.45 1319.78 588.016 1313.23 588.016ZM1313.16 570.75C1316.34 570.75 1319.21 569.946 1321.79 568.338C1324.38 566.688 1326.41 564.487 1327.89 561.736C1329.37 558.943 1330.11 555.896 1330.11 552.596C1330.11 549.253 1329.35 546.227 1327.82 543.519C1326.34 540.81 1324.31 538.694 1321.73 537.171C1319.15 535.605 1316.31 534.822 1313.23 534.822C1310.18 534.822 1307.34 535.626 1304.72 537.234C1302.14 538.8 1300.06 540.958 1298.5 543.709C1296.98 546.417 1296.21 549.422 1296.21 552.723C1296.21 555.939 1296.95 558.922 1298.44 561.673C1299.92 564.424 1301.95 566.624 1304.53 568.274C1307.11 569.925 1309.99 570.75 1313.16 570.75ZM1432.5 517.557C1438 517.557 1442.41 518.847 1445.71 521.429C1449.05 524.01 1451.4 527.247 1452.75 531.141C1454.11 534.992 1454.78 539.096 1454.78 543.455V587H1434.72V545.994C1434.72 542.27 1433.94 539.393 1432.38 537.361C1430.81 535.33 1428.5 534.314 1425.46 534.314C1422.49 534.314 1420.1 535.33 1418.28 537.361C1416.46 539.393 1415.55 542.27 1415.55 545.994V587H1395.5V545.994C1395.5 542.27 1394.69 539.393 1393.08 537.361C1391.52 535.33 1389.23 534.314 1386.23 534.314C1383.14 534.314 1380.71 535.372 1378.93 537.488C1377.19 539.604 1376.33 542.482 1376.33 546.121V587H1356.27V518.699H1375.31V527.332H1375.75C1378 524.074 1380.75 521.64 1384.01 520.032C1387.27 518.382 1390.74 517.557 1394.42 517.557C1398.1 517.557 1401.36 518.403 1404.19 520.096C1407.03 521.746 1409.27 524.116 1410.92 527.205H1411.3C1413.63 524.158 1416.65 521.788 1420.38 520.096C1424.1 518.403 1428.14 517.557 1432.5 517.557ZM1504.05 481.502H1520.55L1468.88 606.043H1452.63L1504.05 481.502ZM1593.05 552.913C1593.05 559.853 1591.63 565.989 1588.79 571.321C1586 576.611 1582.19 580.716 1577.37 583.636C1572.54 586.556 1567.23 588.016 1561.43 588.016C1557.41 588.016 1553.71 587.296 1550.33 585.857C1546.94 584.419 1543.98 582.345 1541.44 579.637H1541.25V614.041L1521.19 613.787V518.699H1540.23V526.697H1540.36C1542.9 523.735 1545.9 521.471 1549.37 519.905C1552.84 518.34 1556.69 517.557 1560.93 517.557C1566.72 517.557 1572.08 519.017 1576.99 521.937C1581.89 524.814 1585.79 528.94 1588.67 534.314C1591.59 539.646 1593.05 545.846 1593.05 552.913ZM1557.05 570.75C1560.31 570.75 1563.19 569.946 1565.69 568.338C1568.23 566.73 1570.17 564.55 1571.53 561.8C1572.92 559.049 1573.62 556.023 1573.62 552.723C1573.62 549.38 1572.9 546.354 1571.46 543.646C1570.07 540.895 1568.1 538.737 1565.56 537.171C1563.06 535.605 1560.23 534.822 1557.05 534.822C1554.01 534.822 1551.21 535.584 1548.68 537.107C1546.18 538.589 1544.21 540.704 1542.77 543.455C1541.33 546.163 1540.61 549.316 1540.61 552.913C1540.61 556.51 1541.33 559.663 1542.77 562.371C1544.25 565.037 1546.24 567.111 1548.74 568.592C1551.24 570.031 1554.01 570.75 1557.05 570.75ZM1621.87 587H1601.81V489.246H1621.87V587ZM1682.43 518.572H1701.35V587H1682.43V578.748H1682.18C1679.6 581.71 1676.53 583.995 1672.97 585.604C1669.46 587.212 1665.59 588.016 1661.36 588.016C1655.52 588.016 1650.18 586.556 1645.36 583.636C1640.58 580.716 1636.77 576.59 1633.93 571.258C1631.14 565.926 1629.74 559.811 1629.74 552.913C1629.74 545.846 1631.18 539.646 1634.06 534.314C1636.98 528.94 1640.9 524.814 1645.8 521.937C1650.71 519.017 1656.09 517.557 1661.93 517.557C1666.07 517.557 1669.86 518.318 1673.29 519.842C1676.72 521.365 1679.68 523.566 1682.18 526.443H1682.43V518.572ZM1665.74 570.75C1668.78 570.75 1671.55 570.031 1674.05 568.592C1676.55 567.111 1678.52 565.037 1679.95 562.371C1681.44 559.663 1682.18 556.51 1682.18 552.913C1682.18 549.316 1681.46 546.163 1680.02 543.455C1678.58 540.704 1676.59 538.589 1674.05 537.107C1671.55 535.584 1668.78 534.822 1665.74 534.822C1662.56 534.822 1659.71 535.605 1657.17 537.171C1654.67 538.737 1652.7 540.895 1651.26 543.646C1649.87 546.354 1649.17 549.38 1649.17 552.723C1649.17 556.023 1649.85 559.049 1651.2 561.8C1652.6 564.55 1654.54 566.73 1657.04 568.338C1659.58 569.946 1662.48 570.75 1665.74 570.75ZM1760 518.699H1780.95L1752.13 594.744C1750.65 598.637 1749.11 601.917 1747.5 604.583C1745.93 607.249 1743.48 609.619 1740.14 611.692C1736.79 613.766 1732.39 614.803 1726.93 614.803C1724.35 614.803 1721.73 614.57 1719.06 614.104C1716.4 613.639 1714.13 613.068 1712.27 612.391L1719.12 596.395C1721.41 597.495 1723.61 598.045 1725.73 598.045C1730.55 598.045 1733.7 595.379 1735.18 590.047L1735.82 587.762L1707.57 518.699H1728.65L1741.47 556.658L1744.64 566.561H1745.02L1748.07 556.658L1760 518.699Z" fill="black"/>
</svg>
