<?xml version="1.0" encoding="utf-8"?>
<!-- Generator: Adobe Illustrator 16.0.0, SVG Export Plug-In . SVG Version: 6.00 Build 0)  -->
<!DOCTYPE svg PUBLIC "-//W3C//DTD SVG 1.1//EN" "http://www.w3.org/Graphics/SVG/1.1/DTD/svg11.dtd">
<svg version="1.1" xmlns="http://www.w3.org/2000/svg" xmlns:xlink="http://www.w3.org/1999/xlink" x="0px" y="0px" width="570px"
	 height="570px" viewBox="0 0 570 570" enable-background="new 0 0 570 570" xml:space="preserve">
<g id="Background">
	<rect fill="#FFFFFF" width="570" height="570"/>
</g>
<g id="Bird">
	<g>
		<path fill="#FFFFFF" d="M325.044,472c-4.056,0-7.355-3.299-7.355-7.354v-9.943c-2.019,1.964-3.221,4.691-3.221,7.571
			c0,4.057-3.3,7.357-7.356,7.357c-4.056,0-7.355-3.3-7.355-7.357c0-11.229,7.297-20.954,17.932-24.175v-31.688h-69.203v31.688
			c10.635,3.221,17.932,12.946,17.932,24.175c0,4.057-3.3,7.357-7.356,7.357c-4.056,0-7.355-3.3-7.355-7.357
			c0-2.88-1.202-5.607-3.221-7.571v9.943c0,4.055-3.3,7.354-7.356,7.354c-4.056,0-7.355-3.299-7.355-7.354v-9.943
			c-2.018,1.964-3.22,4.69-3.22,7.571c0,4.057-3.3,7.357-7.355,7.357c-4.056,0-7.356-3.3-7.356-7.357
			c0-11.229,7.296-20.954,17.931-24.175v-31.688h-62.813c-1.104,0-2-0.896-2-2v-42.158l-9.364,12.086
			c-2.271,2.932-4.292,3.547-5.587,3.547c-1.043,0-4.483-0.484-4.965-6.709l-0.028-0.376c-0.156-2.042-0.762-3.146-1.253-3.146
			c-0.468,0-1.437,0.49-2.63,1.871l-1.784,2.069c-1.865,2.158-3.734,3.252-5.558,3.252c-1.095,0-4.685-0.501-4.887-6.949
			l-0.157-4.924c-0.027-0.854-0.249-3.638-1.974-3.638c-0.469,0-1.476,0.179-2.96,1.379l-5.6,4.526
			c-2.742,2.213-4.056,2.497-4.895,2.497c-0.962,0-1.811-0.476-2.268-1.271c-0.767-1.332-0.349-3.18,1.395-6.179l52.516-90.374
			v-29.917l-10.144,10.144c-0.39,0.391-0.902,0.586-1.414,0.586s-1.023-0.195-1.414-0.586l-10.565-10.565
			c-0.375-0.375-0.586-0.884-0.586-1.414s0.211-1.039,0.586-1.414L283.586,98.586C283.976,98.195,284.488,98,285,98
			s1.023,0.195,1.414,0.586l138.161,138.161c0.781,0.781,0.781,2.047,0,2.828L414.01,250.14c-0.375,0.375-0.884,0.586-1.414,0.586
			s-1.039-0.211-1.414-0.586l-10.15-10.15v29.922l52.524,90.375c1.743,2.999,2.16,4.847,1.393,6.179
			c-0.458,0.796-1.307,1.272-2.271,1.272c-0.839,0-2.154-0.284-4.896-2.496l-5.598-4.527c-1.1-0.889-2.151-1.379-2.96-1.379
			c-1.726,0-1.947,2.784-1.974,3.637l-0.157,4.926c-0.204,6.447-3.793,6.948-4.889,6.948c-1.824,0-3.693-1.094-5.555-3.251
			l-1.786-2.072c-1.191-1.379-2.16-1.869-2.627-1.869c-0.491,0-1.099,1.104-1.257,3.15l-0.027,0.366
			c-0.481,6.23-3.921,6.714-4.964,6.714c-1.295,0-3.316-0.616-5.588-3.547l-9.368-12.088v42.16c0,1.104-0.896,2-2,2H332.4v31.688
			c10.635,3.221,17.932,12.946,17.932,24.175c0,4.057-3.3,7.357-7.356,7.357c-4.056,0-7.355-3.3-7.355-7.357
			c0-2.88-1.202-5.607-3.221-7.571v9.943C332.4,468.701,329.101,472,325.044,472z"/>
		<g>
			<path fill="#231F20" d="M285,100l10.565,10.565l127.595,127.595l-10.565,10.565l-13.564-13.564v35.29l52.795,90.841
				c1.687,2.903,1.899,4.446,0.852,4.446c-0.689,0-1.923-0.667-3.641-2.053l-5.596-4.526c-1.528-1.235-2.977-1.824-4.218-1.824
				c-2.277,0-3.86,1.979-3.973,5.574l-0.157,4.925c-0.104,3.281-1.233,5.011-2.89,5.011c-1.149,0-2.552-0.833-4.042-2.558
				l-1.785-2.07c-1.493-1.729-2.933-2.563-4.142-2.563c-1.737,0-2.998,1.724-3.251,4.996l-0.028,0.371
				c-0.247,3.196-1.392,4.864-2.97,4.864c-1.163,0-2.561-0.906-4.007-2.772l-12.105-15.62c-0.287-0.372-0.567-0.775-0.844-1.196
				v48.113H330.4v35.219c10.263,2.43,17.932,11.649,17.932,22.644c0,2.959-2.398,5.357-5.356,5.357s-5.355-2.398-5.355-5.357
				c0-5.018-2.96-9.347-7.221-11.364v13.736c0,2.957-2.398,5.354-5.356,5.354s-5.355-2.397-5.355-5.354V450.91
				c-4.26,2.017-7.221,6.346-7.221,11.364c0,2.959-2.398,5.357-5.356,5.357s-5.355-2.398-5.355-5.357
				c0-10.995,7.668-20.214,17.932-22.644v-35.219h-73.203v35.219c10.264,2.43,17.932,11.649,17.932,22.644
				c0,2.959-2.397,5.357-5.356,5.357c-2.958,0-5.355-2.398-5.355-5.357c0-5.018-2.96-9.347-7.221-11.364v13.736
				c0,2.957-2.397,5.354-5.356,5.354c-2.958,0-5.355-2.397-5.355-5.354V450.91c-4.259,2.017-7.22,6.346-7.22,11.364
				c0,2.959-2.397,5.357-5.355,5.357c-2.958,0-5.356-2.398-5.356-5.357c0-10.995,7.668-20.214,17.931-22.644v-35.219h-64.813V356.3
				c-0.276,0.418-0.556,0.824-0.842,1.193l-12.103,15.62c-1.447,1.867-2.844,2.772-4.006,2.772c-1.578,0-2.723-1.668-2.971-4.864
				l-0.028-0.371c-0.25-3.272-1.51-4.996-3.248-4.996c-1.209,0-2.65,0.835-4.144,2.563l-1.785,2.07
				c-1.491,1.726-2.894,2.558-4.043,2.558c-1.656,0-2.785-1.73-2.888-5.011l-0.157-4.925c-0.113-3.596-1.696-5.574-3.973-5.574
				c-1.242,0-2.69,0.588-4.218,1.824l-5.6,4.526c-1.717,1.386-2.949,2.053-3.637,2.053c-1.045,0-0.832-1.543,0.855-4.446
				l52.787-90.84v-35.285l-13.558,13.558l-10.565-10.565L285,100 M285,96c-1.023,0-2.047,0.391-2.829,1.171L144.009,235.332
				c-0.75,0.75-1.171,1.768-1.171,2.829s0.421,2.078,1.171,2.829l10.565,10.565c0.781,0.781,1.805,1.171,2.829,1.171
				s2.047-0.391,2.829-1.171l6.729-6.73v24.55l-52.245,89.908c-1.517,2.61-2.871,5.624-1.399,8.182
				c0.819,1.424,2.315,2.274,4.002,2.274c1.757,0,3.597-0.879,6.149-2.94l5.602-4.528c0.658-0.532,1.132-0.761,1.41-0.86
				c0.107,0.275,0.242,0.783,0.268,1.626l0.157,4.927c0.206,6.557,3.838,8.884,6.887,8.884c2.43,0,4.809-1.327,7.07-3.943
				l1.788-2.074c0.115-0.132,0.223-0.251,0.324-0.357c0.019,0.146,0.036,0.307,0.049,0.483l0.027,0.365
				c0.489,6.317,3.916,8.564,6.959,8.564c2.535,0,4.946-1.454,7.168-4.322l5.783-7.464v36.311c0,2.209,1.791,4,4,4h60.813v28.246
				c-10.702,3.883-17.931,14.004-17.931,25.617c0,5.16,4.197,9.357,9.356,9.357c3.898,0,7.247-2.396,8.651-5.793
				c0.587,4.597,4.525,8.163,9.28,8.163c4.756,0,8.695-3.566,9.281-8.165c1.403,3.398,4.753,5.795,8.651,5.795
				c5.159,0,9.356-4.197,9.356-9.357c0-11.613-7.229-21.735-17.932-25.618v-28.245h65.203v28.245
				c-10.703,3.883-17.932,14.004-17.932,25.618c0,5.16,4.197,9.357,9.355,9.357c3.899,0,7.248-2.397,8.652-5.795
				c0.586,4.599,4.524,8.165,9.28,8.165c4.756,0,8.695-3.566,9.281-8.165c1.403,3.398,4.753,5.795,8.651,5.795
				c5.159,0,9.356-4.197,9.356-9.357c0-11.613-7.23-21.734-17.932-25.618v-28.245h64.631c2.209,0,4-1.791,4-4v-36.314l5.788,7.468
				c2.223,2.868,4.634,4.322,7.169,4.322c3.044,0,6.471-2.248,6.958-8.556l0.028-0.379c0.014-0.174,0.03-0.333,0.049-0.478
				c0.103,0.106,0.212,0.226,0.328,0.36l1.782,2.068c2.262,2.619,4.64,3.946,7.071,3.946c3.048,0,6.681-2.327,6.888-8.885
				l0.157-4.924c0.026-0.844,0.161-1.353,0.268-1.627c0.279,0.099,0.752,0.328,1.411,0.86l5.594,4.525
				c2.558,2.063,4.398,2.943,6.156,2.943c1.688,0,3.184-0.851,4.004-2.274c1.472-2.558,0.12-5.571-1.397-8.181l-52.254-89.91
				v-24.555l6.736,6.736c0.75,0.75,1.768,1.171,2.828,1.171c1.061,0,2.078-0.421,2.829-1.171l10.565-10.565
				c1.562-1.562,1.562-4.095,0-5.657L298.394,107.737l-10.565-10.565C287.047,96.391,286.023,96,285,96L285,96z"/>
		</g>
	</g>
	<polygon fill="#FFFFFF" stroke="#231F20" stroke-width="2" stroke-linejoin="round" stroke-miterlimit="10" points="
		170.961,404.411 399.031,404.411 399.031,236.924 284.997,122.889 170.961,236.924 	"/>
	<path fill="#FFFFFF" stroke="#231F20" stroke-width="2" stroke-linejoin="round" stroke-miterlimit="10" d="M170.961,270.453
		l-52.787,90.84c-2.797,4.812-1.546,5.886,2.782,2.393l5.6-4.526c4.331-3.5,8.016-1.806,8.19,3.75l0.157,4.925
		c0.174,5.557,3.292,6.666,6.932,2.453l1.785-2.07c3.639-4.212,6.966-3.117,7.391,2.433l0.028,0.371
		c0.43,5.55,3.567,6.492,6.977,2.091l12.103-15.62c0.287-0.369,0.566-0.775,0.842-1.193V270.453z"/>
	<path fill="#FFFFFF" stroke="#231F20" stroke-width="2" stroke-linejoin="round" stroke-miterlimit="10" d="M268.795,275.877
		c0-28.597-12.385-51.771-27.665-51.771c-15.278,0-27.662,23.173-27.662,51.771c0,28.59,12.384,51.77,27.662,51.77
		C256.41,327.647,268.795,304.467,268.795,275.877z"/>
	<ellipse fill="#231F20" cx="241.131" cy="275.877" rx="9.484" ry="12.448"/>
	<path fill="#FFFFFF" stroke="#231F20" stroke-width="2" stroke-linejoin="round" stroke-miterlimit="10" d="M352.708,275.877
		c0-28.597-12.385-51.771-27.664-51.771c-15.278,0-27.663,23.173-27.663,51.771c0,28.59,12.385,51.77,27.663,51.77
		C340.324,327.647,352.708,304.467,352.708,275.877z"/>
	<ellipse fill="#231F20" cx="325.045" cy="275.877" rx="9.484" ry="12.448"/>
	<g>
		<path fill="#FFFFFF" d="M245.697,378.946c-3.633,0-4.815-1.508-5.196-2.408c-0.381-0.899-0.644-2.797,1.883-5.408l36.829-38.059
			c1.766-1.825,4.124-2.829,6.641-2.829s4.875,1.004,6.641,2.829l36.83,38.059c2.526,2.611,2.264,4.509,1.883,5.408
			c-0.381,0.899-1.563,2.408-5.196,2.408H245.697z"/>
		<g>
			<path fill="#231F20" d="M285.854,331.243c2.147,0,4.293,0.841,5.922,2.524l36.83,38.059c3.257,3.366,2.09,6.12-2.594,6.12
				h-80.315c-4.684,0-5.852-2.754-2.594-6.12l36.829-38.059C281.561,332.084,283.707,331.243,285.854,331.243 M285.854,329.243
				c-2.791,0-5.404,1.113-7.36,3.134l-36.829,38.059c-2.927,3.024-2.563,5.367-2.085,6.494c0.478,1.126,1.908,3.017,6.117,3.017
				h80.315c4.209,0,5.639-1.891,6.117-3.017c0.478-1.127,0.842-3.469-2.085-6.494l-36.83-38.059
				C291.258,330.356,288.645,329.243,285.854,329.243L285.854,329.243z"/>
		</g>
	</g>
	<path fill="#FFFFFF" stroke="#231F20" stroke-width="2" stroke-linejoin="round" stroke-miterlimit="10" d="M451.827,361.293
		l-52.795-90.841v85.846c0.276,0.42,0.557,0.824,0.844,1.196l12.105,15.62c3.411,4.401,6.549,3.458,6.977-2.091l0.028-0.371
		c0.429-5.55,3.755-6.645,7.393-2.433l1.785,2.07c3.637,4.213,6.756,3.104,6.932-2.453l0.157-4.925
		c0.174-5.557,3.86-7.251,8.191-3.75l5.596,4.526C453.368,367.179,454.623,366.104,451.827,361.293z"/>
	<path fill="#FFFFFF" stroke="#231F20" stroke-width="2" stroke-linejoin="round" stroke-miterlimit="10" d="M330.4,439.629v-35.219
		h-10.711v35.219c-10.264,2.43-17.932,11.649-17.932,22.644c0,2.959,2.397,5.357,5.355,5.357s5.356-2.398,5.356-5.357
		c0-5.018,2.96-9.347,7.221-11.364v13.736c0,2.957,2.397,5.354,5.355,5.354s5.356-2.397,5.356-5.354V450.91
		c4.26,2.017,7.221,6.346,7.221,11.364c0,2.959,2.397,5.357,5.355,5.357s5.356-2.398,5.356-5.357
		C348.333,451.279,340.664,442.06,330.4,439.629z"/>
	<path fill="#FFFFFF" stroke="#231F20" stroke-width="2" stroke-linejoin="round" stroke-miterlimit="10" d="M246.486,439.629
		v-35.219h-10.711v35.219c-10.263,2.43-17.931,11.649-17.931,22.644c0,2.959,2.397,5.357,5.356,5.357
		c2.958,0,5.355-2.398,5.355-5.357c0-5.018,2.96-9.347,7.22-11.364v13.736c0,2.957,2.397,5.354,5.355,5.354
		c2.958,0,5.356-2.397,5.356-5.354V450.91c4.26,2.017,7.221,6.346,7.221,11.364c0,2.959,2.397,5.357,5.355,5.357
		c2.958,0,5.356-2.398,5.356-5.357C264.418,451.279,256.75,442.06,246.486,439.629z"/>
</g>
</svg>
