<svg width="1300" height="570" viewBox="0 0 1300 570" fill="none" xmlns="http://www.w3.org/2000/svg">
<rect width="1300" height="570" fill="black"/>
<path d="M500 220L550 170L600 220L550 270L500 220Z" fill="white"/>
<path d="M543.645 249H542.29V238.431H543.71L547.973 246.334H548.083V238.431H549.438V249H548.032L543.754 241.075H543.645V249ZM555.136 249.154C552.983 249.154 551.613 247.777 551.613 245.616V244.408C551.613 242.24 552.983 240.87 555.136 240.87C557.29 240.87 558.659 242.24 558.659 244.408V245.616C558.659 247.777 557.29 249.154 555.136 249.154ZM555.136 242.115C553.862 242.115 553.063 243.031 553.063 244.51V245.514C553.063 246.993 553.862 247.909 555.136 247.909C556.411 247.909 557.209 246.993 557.209 245.514V244.51C557.209 243.031 556.411 242.115 555.136 242.115Z" fill="black"/>
<path d="M562.581 225H561.057V220.759L557.571 214.431H559.255L561.768 219.177H561.87L564.382 214.431H566.067L562.581 220.759V225ZM573.12 222.891H574.526C574.314 224.231 572.996 225.154 571.274 225.154C569.033 225.154 567.751 223.835 567.751 221.565V220.349C567.751 218.247 569.121 216.863 571.194 216.863C573.281 216.863 574.548 218.24 574.548 220.51V221.375H569.194V221.733C569.194 223.081 570.007 223.945 571.267 223.945C572.212 223.945 572.922 223.542 573.12 222.891ZM571.179 218.064C569.941 218.064 569.194 218.914 569.194 220.342H573.105C573.105 218.921 572.388 218.064 571.179 218.064ZM577.361 219.221C577.361 217.793 578.555 216.855 580.386 216.855C582.129 216.855 583.271 217.69 583.403 219.075H581.997C581.865 218.423 581.243 218.02 580.364 218.02C579.426 218.02 578.818 218.459 578.818 219.119C578.818 219.69 579.207 220.005 580.137 220.21L581.294 220.466C582.869 220.818 583.579 221.492 583.579 222.664C583.579 224.18 582.327 225.146 580.378 225.146C578.496 225.146 577.28 224.304 577.148 222.898H578.628C578.789 223.579 579.448 223.967 580.415 223.967C581.418 223.967 582.063 223.521 582.063 222.825C582.063 222.239 581.704 221.938 580.737 221.719L579.543 221.448C578.086 221.118 577.361 220.386 577.361 219.221Z" fill="black"/>
<path d="M520.33 135H514.763V133.85H516.902V125.581H514.763V124.431H520.33V125.581H518.191V133.85H520.33V135ZM523.926 129.199C523.926 127.822 525.098 126.899 526.848 126.899C528.503 126.899 529.624 127.727 529.771 129.053H528.569C528.423 128.357 527.756 127.932 526.826 127.932C525.815 127.932 525.164 128.401 525.164 129.126C525.164 129.734 525.574 130.078 526.57 130.298L527.69 130.554C529.236 130.906 529.939 131.58 529.939 132.729C529.939 134.194 528.716 135.146 526.833 135.146C525.032 135.146 523.838 134.304 523.699 132.942H524.966C525.149 133.674 525.852 134.099 526.877 134.099C527.961 134.099 528.65 133.608 528.65 132.847C528.65 132.217 528.262 131.88 527.251 131.653L526.072 131.382C524.636 131.052 523.926 130.327 523.926 129.199ZM545.503 125.105C544.917 125.105 544.47 124.666 544.47 124.08C544.47 123.501 544.917 123.062 545.503 123.062C546.089 123.062 546.536 123.501 546.536 124.08C546.536 124.666 546.089 125.105 545.503 125.105ZM548.835 135H542.251V133.967H544.976V128.086H542.273V127.053H546.206V133.967H548.835V135ZM553.281 124.922H554.512V127.075H557.734V128.137H554.526V132.62C554.526 133.484 555.134 133.953 556.255 133.953C556.702 133.953 557.5 133.931 557.712 133.909V134.963C557.515 135 556.548 135.037 556.167 135.037C554.197 135.037 553.281 134.29 553.281 132.634V128.137H551.165V127.075H553.281V124.922ZM572.375 135.139C570.859 135.139 569.849 134.187 569.849 132.744C569.849 131.338 570.859 130.503 572.668 130.408L574.851 130.298V129.58C574.851 128.584 574.243 128.035 573.137 128.035C572.222 128.035 571.577 128.423 571.372 129.104H570.149C570.295 127.83 571.526 126.958 573.152 126.958C575.02 126.958 576.089 127.91 576.089 129.565V135.007H574.902V133.813H574.778C574.397 134.663 573.533 135.139 572.375 135.139ZM572.734 134.048C573.936 134.048 574.851 133.25 574.851 132.188V131.25L572.808 131.345C571.694 131.396 571.108 131.873 571.108 132.7C571.108 133.535 571.731 134.048 572.734 134.048ZM579.202 135V127.053H580.396V128.452H580.498C580.923 127.463 581.831 126.907 583.04 126.907C584.768 126.907 585.706 127.939 585.706 129.844V135H584.46V130.159C584.46 128.723 583.875 128.049 582.637 128.049C581.326 128.049 580.447 128.965 580.447 130.32V135H579.202ZM491.875 152.949H493.083C492.842 154.26 491.582 155.146 489.912 155.146C487.729 155.146 486.462 153.835 486.462 151.572V150.378C486.462 148.284 487.803 146.907 489.824 146.907C491.89 146.907 493.105 148.276 493.105 150.576V151.353H487.693V151.675C487.693 153.132 488.557 154.07 489.912 154.07C490.916 154.07 491.655 153.645 491.875 152.949ZM489.817 147.976C488.491 147.976 487.693 148.884 487.693 150.408H491.875C491.875 148.892 491.099 147.976 489.817 147.976ZM499.031 151.938H498.936L496.929 155H495.552L498.276 151.023L495.53 147.053H497.002L498.979 150.063H499.082L501.052 147.053H502.451L499.734 150.972L502.473 155H501.03L499.031 151.938ZM506.919 144.922H508.149V147.075H511.372V148.137H508.164V152.62C508.164 153.484 508.772 153.953 509.893 153.953C510.339 153.953 511.138 153.931 511.35 153.909V154.963C511.152 155 510.186 155.037 509.805 155.037C507.834 155.037 506.919 154.29 506.919 152.634V148.137H504.802V147.075H506.919V144.922ZM519.692 152.949H520.901C520.659 154.26 519.399 155.146 517.729 155.146C515.547 155.146 514.28 153.835 514.28 151.572V150.378C514.28 148.284 515.62 146.907 517.642 146.907C519.707 146.907 520.923 148.276 520.923 150.576V151.353H515.51V151.675C515.51 153.132 516.375 154.07 517.729 154.07C518.733 154.07 519.473 153.645 519.692 152.949ZM517.634 147.976C516.309 147.976 515.51 148.884 515.51 150.408H519.692C519.692 148.892 518.916 147.976 517.634 147.976ZM526.504 151.44V154.004H528.965V155H523.684V154.004H525.288V148.049H523.523V147.053H526.489V149.082H526.65C526.943 147.61 527.932 146.848 529.463 146.848C529.917 146.848 530.349 146.914 530.613 147.024V148.423C530.247 148.291 529.734 148.203 529.302 148.203C527.544 148.203 526.504 149.419 526.504 151.44ZM532.839 155V147.053H534.033V148.452H534.136C534.561 147.463 535.469 146.907 536.677 146.907C538.406 146.907 539.343 147.939 539.343 149.844V155H538.098V150.159C538.098 148.723 537.512 148.049 536.274 148.049C534.963 148.049 534.084 148.965 534.084 150.32V155H532.839ZM544.558 155.139C543.042 155.139 542.031 154.187 542.031 152.744C542.031 151.338 543.042 150.503 544.851 150.408L547.034 150.298V149.58C547.034 148.584 546.426 148.035 545.32 148.035C544.404 148.035 543.76 148.423 543.555 149.104H542.332C542.478 147.83 543.708 146.958 545.334 146.958C547.202 146.958 548.271 147.91 548.271 149.565V155.007H547.085V153.813H546.96C546.58 154.663 545.715 155.139 544.558 155.139ZM544.917 154.048C546.118 154.048 547.034 153.25 547.034 152.188V151.25L544.99 151.345C543.877 151.396 543.291 151.873 543.291 152.7C543.291 153.535 543.914 154.048 544.917 154.048ZM558.108 155H551.523V153.967H554.241V144.966H551.545V143.933H555.486V153.967H558.108V155ZM576.653 155H570.068V153.967H572.786V144.966H570.09V143.933H574.031V153.967H576.653V155ZM582.593 145.105C582.007 145.105 581.56 144.666 581.56 144.08C581.56 143.501 582.007 143.062 582.593 143.062C583.179 143.062 583.625 143.501 583.625 144.08C583.625 144.666 583.179 145.105 582.593 145.105ZM585.925 155H579.341V153.967H582.065V148.086H579.363V147.053H583.296V153.967H585.925V155ZM588.474 155V147.053H589.668V148.452H589.771C590.195 147.463 591.104 146.907 592.312 146.907C594.041 146.907 594.978 147.939 594.978 149.844V155H593.733V150.159C593.733 148.723 593.147 148.049 591.909 148.049C590.598 148.049 589.719 148.965 589.719 150.32V155H588.474ZM599.673 150.62L603.137 147.053H604.646L601.562 150.203L604.866 155H603.386L600.676 151.052L599.578 152.107V155H598.333V143.933H599.578V150.62H599.673ZM607.195 147.185C607.283 145.42 608.484 144.329 610.315 144.329C612.087 144.329 613.354 145.435 613.354 146.987C613.354 148.057 612.856 148.899 611.86 149.507C610.967 150.056 610.696 150.459 610.696 151.235V151.711H609.421V151.045C609.407 150.071 609.854 149.419 610.842 148.811C611.685 148.284 611.992 147.822 611.992 147.053C611.992 146.13 611.289 145.5 610.264 145.5C609.202 145.5 608.521 146.138 608.433 147.185H607.195ZM610.11 155.139C609.553 155.139 609.106 154.678 609.106 154.099C609.106 153.521 609.553 153.059 610.11 153.059C610.667 153.059 611.113 153.521 611.113 154.099C611.113 154.678 610.667 155.139 610.11 155.139Z" fill="white"/>
<path d="M300 220L350 170L400 220L350 270L300 220Z" fill="white"/>
<path d="M343.645 249H342.29V238.431H343.71L347.973 246.334H348.083V238.431H349.438V249H348.032L343.754 241.075H343.645V249ZM355.136 249.154C352.983 249.154 351.613 247.777 351.613 245.616V244.408C351.613 242.24 352.983 240.87 355.136 240.87C357.29 240.87 358.659 242.24 358.659 244.408V245.616C358.659 247.777 357.29 249.154 355.136 249.154ZM355.136 242.115C353.862 242.115 353.063 243.031 353.063 244.51V245.514C353.063 246.993 353.862 247.909 355.136 247.909C356.411 247.909 357.209 246.993 357.209 245.514V244.51C357.209 243.031 356.411 242.115 355.136 242.115Z" fill="black"/>
<path d="M362.581 225H361.057V220.759L357.571 214.431H359.255L361.768 219.177H361.87L364.382 214.431H366.067L362.581 220.759V225ZM373.12 222.891H374.526C374.314 224.231 372.996 225.154 371.274 225.154C369.033 225.154 367.751 223.835 367.751 221.565V220.349C367.751 218.247 369.121 216.863 371.194 216.863C373.281 216.863 374.548 218.24 374.548 220.51V221.375H369.194V221.733C369.194 223.081 370.007 223.945 371.267 223.945C372.212 223.945 372.922 223.542 373.12 222.891ZM371.179 218.064C369.941 218.064 369.194 218.914 369.194 220.342H373.105C373.105 218.921 372.388 218.064 371.179 218.064ZM377.361 219.221C377.361 217.793 378.555 216.855 380.386 216.855C382.129 216.855 383.271 217.69 383.403 219.075H381.997C381.865 218.423 381.243 218.02 380.364 218.02C379.426 218.02 378.818 218.459 378.818 219.119C378.818 219.69 379.207 220.005 380.137 220.21L381.294 220.466C382.869 220.818 383.579 221.492 383.579 222.664C383.579 224.18 382.327 225.146 380.378 225.146C378.496 225.146 377.28 224.304 377.148 222.898H378.628C378.789 223.579 379.448 223.967 380.415 223.967C381.418 223.967 382.063 223.521 382.063 222.825C382.063 222.239 381.704 221.938 380.737 221.719L379.543 221.448C378.086 221.118 377.361 220.386 377.361 219.221Z" fill="black"/>
<path d="M292.512 155H286.946V153.85H289.084V145.581H286.946V144.431H292.512V145.581H290.374V153.85H292.512V155ZM296.108 149.199C296.108 147.822 297.28 146.899 299.031 146.899C300.686 146.899 301.807 147.727 301.953 149.053H300.752C300.605 148.357 299.939 147.932 299.009 147.932C297.998 147.932 297.346 148.401 297.346 149.126C297.346 149.734 297.756 150.078 298.752 150.298L299.873 150.554C301.418 150.906 302.122 151.58 302.122 152.729C302.122 154.194 300.898 155.146 299.016 155.146C297.214 155.146 296.021 154.304 295.881 152.942H297.148C297.332 153.674 298.035 154.099 299.06 154.099C300.144 154.099 300.833 153.608 300.833 152.847C300.833 152.217 300.444 151.88 299.434 151.653L298.254 151.382C296.819 151.052 296.108 150.327 296.108 149.199ZM321.018 155H314.434V153.967H317.151V144.966H314.456V143.933H318.396V153.967H321.018V155ZM326.958 145.105C326.372 145.105 325.925 144.666 325.925 144.08C325.925 143.501 326.372 143.062 326.958 143.062C327.544 143.062 327.991 143.501 327.991 144.08C327.991 144.666 327.544 145.105 326.958 145.105ZM330.291 155H323.706V153.967H326.431V148.086H323.728V147.053H327.661V153.967H330.291V155ZM332.839 155V147.053H334.033V148.452H334.136C334.561 147.463 335.469 146.907 336.677 146.907C338.406 146.907 339.343 147.939 339.343 149.844V155H338.098V150.159C338.098 148.723 337.512 148.049 336.274 148.049C334.963 148.049 334.084 148.965 334.084 150.32V155H332.839ZM344.038 150.62L347.502 147.053H349.011L345.928 150.203L349.231 155H347.751L345.042 151.052L343.943 152.107V155H342.698V143.933H343.943V150.62H344.038ZM360.32 147.053H361.653L363.872 153.667H363.967L366.172 147.053H367.498L364.597 155H363.228L360.32 147.053ZM372.375 155.139C370.859 155.139 369.849 154.187 369.849 152.744C369.849 151.338 370.859 150.503 372.668 150.408L374.851 150.298V149.58C374.851 148.584 374.243 148.035 373.137 148.035C372.222 148.035 371.577 148.423 371.372 149.104H370.149C370.295 147.83 371.526 146.958 373.152 146.958C375.02 146.958 376.089 147.91 376.089 149.565V155.007H374.902V153.813H374.778C374.397 154.663 373.533 155.139 372.375 155.139ZM372.734 154.048C373.936 154.048 374.851 153.25 374.851 152.188V151.25L372.808 151.345C371.694 151.396 371.108 151.873 371.108 152.7C371.108 153.535 371.731 154.048 372.734 154.048ZM385.925 155H379.341V153.967H382.058V144.966H379.363V143.933H383.303V153.967H385.925V155ZM391.865 145.105C391.279 145.105 390.833 144.666 390.833 144.08C390.833 143.501 391.279 143.062 391.865 143.062C392.451 143.062 392.898 143.501 392.898 144.08C392.898 144.666 392.451 145.105 391.865 145.105ZM395.198 155H388.613V153.967H391.338V148.086H388.635V147.053H392.568V153.967H395.198V155ZM400.5 155.132C398.662 155.132 397.461 153.806 397.461 151.763V150.283C397.461 148.247 398.662 146.921 400.5 146.921C401.65 146.921 402.5 147.412 402.844 148.284H402.976V143.933H404.243V155H403.02V153.784H402.881C402.471 154.663 401.636 155.132 400.5 155.132ZM400.867 153.997C402.17 153.997 403.013 153.059 403.013 151.587V150.444C403.013 148.979 402.17 148.042 400.867 148.042C399.556 148.042 398.713 148.979 398.713 150.444V151.587C398.713 153.052 399.556 153.997 400.867 153.997ZM407.195 147.185C407.283 145.42 408.484 144.329 410.315 144.329C412.087 144.329 413.354 145.435 413.354 146.987C413.354 148.057 412.856 148.899 411.86 149.507C410.967 150.056 410.696 150.459 410.696 151.235V151.711H409.421V151.045C409.407 150.071 409.854 149.419 410.842 148.811C411.685 148.284 411.992 147.822 411.992 147.053C411.992 146.13 411.289 145.5 410.264 145.5C409.202 145.5 408.521 146.138 408.433 147.185H407.195ZM410.11 155.139C409.553 155.139 409.106 154.678 409.106 154.099C409.106 153.521 409.553 153.059 410.11 153.059C410.667 153.059 411.113 153.521 411.113 154.099C411.113 154.678 410.667 155.139 410.11 155.139Z" fill="white"/>
<path d="M900 220L950 170L1000 220L950 270L900 220Z" fill="white"/>
<path d="M943.645 249H942.29V238.431H943.71L947.973 246.334H948.083V238.431H949.438V249H948.032L943.754 241.075H943.645V249ZM955.136 249.154C952.983 249.154 951.613 247.777 951.613 245.616V244.408C951.613 242.24 952.983 240.87 955.136 240.87C957.29 240.87 958.659 242.24 958.659 244.408V245.616C958.659 247.777 957.29 249.154 955.136 249.154ZM955.136 242.115C953.862 242.115 953.063 243.031 953.063 244.51V245.514C953.063 246.993 953.862 247.909 955.136 247.909C956.411 247.909 957.209 246.993 957.209 245.514V244.51C957.209 243.031 956.411 242.115 955.136 242.115Z" fill="black"/>
<path d="M962.581 225H961.057V220.759L957.571 214.431H959.255L961.768 219.177H961.87L964.382 214.431H966.067L962.581 220.759V225ZM973.12 222.891H974.526C974.314 224.231 972.996 225.154 971.274 225.154C969.033 225.154 967.751 223.835 967.751 221.565V220.349C967.751 218.247 969.121 216.863 971.194 216.863C973.281 216.863 974.548 218.24 974.548 220.51V221.375H969.194V221.733C969.194 223.081 970.007 223.945 971.267 223.945C972.212 223.945 972.922 223.542 973.12 222.891ZM971.179 218.064C969.941 218.064 969.194 218.914 969.194 220.342H973.105C973.105 218.921 972.388 218.064 971.179 218.064ZM977.361 219.221C977.361 217.793 978.555 216.855 980.386 216.855C982.129 216.855 983.271 217.69 983.403 219.075H981.997C981.865 218.423 981.243 218.02 980.364 218.02C979.426 218.02 978.818 218.459 978.818 219.119C978.818 219.69 979.207 220.005 980.137 220.21L981.294 220.466C982.869 220.818 983.579 221.492 983.579 222.664C983.579 224.18 982.327 225.146 980.378 225.146C978.496 225.146 977.28 224.304 977.148 222.898H978.628C978.789 223.579 979.448 223.967 980.415 223.967C981.418 223.967 982.063 223.521 982.063 222.825C982.063 222.239 981.704 221.938 980.737 221.719L979.543 221.448C978.086 221.118 977.361 220.386 977.361 219.221Z" fill="black"/>
<path d="M914.082 104.431H917.041C920.037 104.431 921.545 106.196 921.545 109.697C921.545 113.228 920.037 115 917.041 115H914.082V104.431ZM915.378 105.618V113.813H916.924C919.165 113.813 920.227 112.502 920.227 109.705C920.227 106.936 919.158 105.618 916.924 105.618H915.378ZM926.958 105.105C926.372 105.105 925.925 104.666 925.925 104.08C925.925 103.501 926.372 103.062 926.958 103.062C927.544 103.062 927.991 103.501 927.991 104.08C927.991 104.666 927.544 105.105 926.958 105.105ZM930.291 115H923.706V113.967H926.431V108.086H923.728V107.053H927.661V113.967H930.291V115ZM935.593 115.132C933.755 115.132 932.554 113.806 932.554 111.763V110.283C932.554 108.247 933.755 106.921 935.593 106.921C936.743 106.921 937.593 107.412 937.937 108.284H938.069V103.933H939.336V115H938.113V113.784H937.974C937.563 114.663 936.729 115.132 935.593 115.132ZM935.959 113.997C937.263 113.997 938.105 113.059 938.105 111.587V110.444C938.105 108.979 937.263 108.042 935.959 108.042C934.648 108.042 933.806 108.979 933.806 110.444V111.587C933.806 113.052 934.648 113.997 935.959 113.997ZM957.888 107.053V115H956.694V113.601H956.592C956.167 114.59 955.259 115.146 954.05 115.146C952.322 115.146 951.384 114.114 951.384 112.209V107.053H952.629V111.895C952.629 113.33 953.215 114.004 954.453 114.004C955.764 114.004 956.643 113.088 956.643 111.733V107.053H957.888ZM961.016 109.199C961.016 107.822 962.188 106.899 963.938 106.899C965.593 106.899 966.714 107.727 966.86 109.053H965.659C965.513 108.357 964.846 107.932 963.916 107.932C962.905 107.932 962.253 108.401 962.253 109.126C962.253 109.734 962.664 110.078 963.66 110.298L964.78 110.554C966.326 110.906 967.029 111.58 967.029 112.729C967.029 114.194 965.806 115.146 963.923 115.146C962.122 115.146 960.928 114.304 960.789 112.942H962.056C962.239 113.674 962.942 114.099 963.967 114.099C965.051 114.099 965.74 113.608 965.74 112.847C965.74 112.217 965.352 111.88 964.341 111.653L963.162 111.382C961.726 111.052 961.016 110.327 961.016 109.199ZM975.327 112.949H976.536C976.294 114.26 975.034 115.146 973.364 115.146C971.182 115.146 969.915 113.835 969.915 111.572V110.378C969.915 108.284 971.255 106.907 973.276 106.907C975.342 106.907 976.558 108.276 976.558 110.576V111.353H971.145V111.675C971.145 113.132 972.009 114.07 973.364 114.07C974.368 114.07 975.107 113.645 975.327 112.949ZM973.269 107.976C971.943 107.976 971.145 108.884 971.145 110.408H975.327C975.327 108.892 974.551 107.976 973.269 107.976ZM982.139 111.44V114.004H984.6V115H979.319V114.004H980.923V108.049H979.158V107.053H982.124V109.082H982.285C982.578 107.61 983.567 106.848 985.098 106.848C985.552 106.848 985.984 106.914 986.248 107.024V108.423C985.881 108.291 985.369 108.203 984.937 108.203C983.179 108.203 982.139 109.419 982.139 111.44ZM916.221 129.529H914.99C914.836 128.599 914.06 128.013 913.035 128.013C911.65 128.013 910.881 128.958 910.881 130.664V131.382C910.881 133.088 911.65 134.026 913.035 134.026C914.06 134.026 914.836 133.447 914.99 132.539H916.221C916.023 134.158 914.814 135.146 913.057 135.146C910.896 135.146 909.636 133.821 909.636 131.543V130.503C909.636 128.225 910.896 126.899 913.057 126.899C914.814 126.899 916.016 127.896 916.221 129.529ZM922.183 135.146C920.081 135.146 918.74 133.777 918.74 131.631V130.43C918.74 128.284 920.081 126.914 922.183 126.914C924.285 126.914 925.625 128.284 925.625 130.43V131.631C925.625 133.777 924.285 135.146 922.183 135.146ZM922.183 128.013C920.82 128.013 919.971 128.979 919.971 130.54V131.514C919.971 133.081 920.82 134.041 922.183 134.041C923.545 134.041 924.395 133.081 924.395 131.514V130.54C924.395 128.979 923.545 128.013 922.183 128.013ZM928.203 135V127.053H929.397V128.452H929.5C929.924 127.463 930.833 126.907 932.041 126.907C933.77 126.907 934.707 127.939 934.707 129.844V135H933.462V130.159C933.462 128.723 932.876 128.049 931.638 128.049C930.327 128.049 929.448 128.965 929.448 130.32V135H928.203ZM939.373 124.922H940.603V127.075H943.826V128.137H940.618V132.62C940.618 133.484 941.226 133.953 942.346 133.953C942.793 133.953 943.591 133.931 943.804 133.909V134.963C943.606 135 942.639 135.037 942.258 135.037C940.288 135.037 939.373 134.29 939.373 132.634V128.137H937.256V127.075H939.373V124.922ZM950.139 125.105C949.553 125.105 949.106 124.666 949.106 124.08C949.106 123.501 949.553 123.062 950.139 123.062C950.725 123.062 951.172 123.501 951.172 124.08C951.172 124.666 950.725 125.105 950.139 125.105ZM953.472 135H946.887V133.967H949.612V128.086H946.909V127.053H950.842V133.967H953.472V135ZM956.021 135V127.053H957.214V128.452H957.317C957.742 127.463 958.65 126.907 959.858 126.907C961.587 126.907 962.524 127.939 962.524 129.844V135H961.279V130.159C961.279 128.723 960.693 128.049 959.456 128.049C958.145 128.049 957.266 128.965 957.266 130.32V135H956.021ZM971.797 127.053V135H970.603V133.601H970.5C970.076 134.59 969.167 135.146 967.959 135.146C966.23 135.146 965.293 134.114 965.293 132.209V127.053H966.538V131.895C966.538 133.33 967.124 134.004 968.362 134.004C969.673 134.004 970.552 133.088 970.552 131.733V127.053H971.797ZM979.963 132.949H981.172C980.93 134.26 979.67 135.146 978 135.146C975.818 135.146 974.551 133.835 974.551 131.572V130.378C974.551 128.284 975.891 126.907 977.913 126.907C979.978 126.907 981.194 128.276 981.194 130.576V131.353H975.781V131.675C975.781 133.132 976.646 134.07 978 134.07C979.004 134.07 979.744 133.645 979.963 132.949ZM977.905 127.976C976.58 127.976 975.781 128.884 975.781 130.408H979.963C979.963 128.892 979.187 127.976 977.905 127.976ZM984.014 127.185C984.102 125.42 985.303 124.329 987.134 124.329C988.906 124.329 990.173 125.435 990.173 126.987C990.173 128.057 989.675 128.899 988.679 129.507C987.786 130.056 987.515 130.459 987.515 131.235V131.711H986.24V131.045C986.226 130.071 986.672 129.419 987.661 128.811C988.503 128.284 988.811 127.822 988.811 127.053C988.811 126.13 988.108 125.5 987.083 125.5C986.021 125.5 985.339 126.138 985.251 127.185H984.014ZM986.929 135.139C986.372 135.139 985.925 134.678 985.925 134.099C985.925 133.521 986.372 133.059 986.929 133.059C987.485 133.059 987.932 133.521 987.932 134.099C987.932 134.678 987.485 135.139 986.929 135.139ZM878.86 149.712C878.86 147.229 879.607 145.068 881.064 143.413H882.302C880.786 145.544 880.149 147.412 880.149 149.712C880.149 152.012 880.786 153.879 882.302 156.011H881.064C879.607 154.355 878.86 152.202 878.86 149.712ZM888.923 155.139C887.407 155.139 886.396 154.187 886.396 152.744C886.396 151.338 887.407 150.503 889.216 150.408L891.399 150.298V149.58C891.399 148.584 890.791 148.035 889.685 148.035C888.77 148.035 888.125 148.423 887.92 149.104H886.697C886.843 147.83 888.074 146.958 889.7 146.958C891.567 146.958 892.637 147.91 892.637 149.565V155.007H891.45V153.813H891.326C890.945 154.663 890.081 155.139 888.923 155.139ZM889.282 154.048C890.483 154.048 891.399 153.25 891.399 152.188V151.25L889.355 151.345C888.242 151.396 887.656 151.873 887.656 152.7C887.656 153.535 888.279 154.048 889.282 154.048ZM898.767 157.981C896.929 157.981 895.698 157.175 895.537 155.857H896.768C896.929 156.516 897.727 156.948 898.789 156.948C900.181 156.948 900.95 156.245 900.95 154.971V153.733H900.818C900.466 154.568 899.587 155.073 898.43 155.073C896.592 155.073 895.383 153.748 895.383 151.711V150.283C895.383 148.24 896.599 146.921 898.459 146.921C899.609 146.921 900.481 147.427 900.825 148.284H900.964V147.053H902.195V155C902.195 156.868 900.92 157.981 898.767 157.981ZM896.636 151.536C896.636 152.993 897.485 153.945 898.804 153.945C900.115 153.945 900.957 153 900.957 151.536V150.444C900.957 148.979 900.115 148.042 898.804 148.042C897.485 148.042 896.636 148.987 896.636 150.444V151.536ZM907.959 151.44V154.004H910.42V155H905.139V154.004H906.743V148.049H904.978V147.053H907.944V149.082H908.105C908.398 147.61 909.387 146.848 910.918 146.848C911.372 146.848 911.804 146.914 912.068 147.024V148.423C911.702 148.291 911.189 148.203 910.757 148.203C908.999 148.203 907.959 149.419 907.959 151.44ZM919.692 152.949H920.901C920.659 154.26 919.399 155.146 917.729 155.146C915.547 155.146 914.28 153.835 914.28 151.572V150.378C914.28 148.284 915.62 146.907 917.642 146.907C919.707 146.907 920.923 148.276 920.923 150.576V151.353H915.51V151.675C915.51 153.132 916.375 154.07 917.729 154.07C918.733 154.07 919.473 153.645 919.692 152.949ZM917.634 147.976C916.309 147.976 915.51 148.884 915.51 150.408H919.692C919.692 148.892 918.916 147.976 917.634 147.976ZM928.965 152.949H930.173C929.932 154.26 928.672 155.146 927.002 155.146C924.819 155.146 923.552 153.835 923.552 151.572V150.378C923.552 148.284 924.893 146.907 926.914 146.907C928.979 146.907 930.195 148.276 930.195 150.576V151.353H924.783V151.675C924.783 153.132 925.647 154.07 927.002 154.07C928.005 154.07 928.745 153.645 928.965 152.949ZM926.907 147.976C925.581 147.976 924.783 148.884 924.783 150.408H928.965C928.965 148.892 928.188 147.976 926.907 147.976ZM944.009 144.922H945.239V147.075H948.462V148.137H945.254V152.62C945.254 153.484 945.862 153.953 946.982 153.953C947.429 153.953 948.228 153.931 948.44 153.909V154.963C948.242 155 947.275 155.037 946.895 155.037C944.924 155.037 944.009 154.29 944.009 152.634V148.137H941.892V147.075H944.009V144.922ZM954.636 155.146C952.534 155.146 951.194 153.777 951.194 151.631V150.43C951.194 148.284 952.534 146.914 954.636 146.914C956.738 146.914 958.079 148.284 958.079 150.43V151.631C958.079 153.777 956.738 155.146 954.636 155.146ZM954.636 148.013C953.274 148.013 952.424 148.979 952.424 150.54V151.514C952.424 153.081 953.274 154.041 954.636 154.041C955.999 154.041 956.848 153.081 956.848 151.514V150.54C956.848 148.979 955.999 148.013 954.636 148.013ZM971.826 144.922H973.057V147.075H976.279V148.137H973.071V152.62C973.071 153.484 973.679 153.953 974.8 153.953C975.247 153.953 976.045 153.931 976.257 153.909V154.963C976.06 155 975.093 155.037 974.712 155.037C972.742 155.037 971.826 154.29 971.826 152.634V148.137H969.709V147.075H971.826V144.922ZM984.6 152.949H985.808C985.566 154.26 984.307 155.146 982.637 155.146C980.454 155.146 979.187 153.835 979.187 151.572V150.378C979.187 148.284 980.527 146.907 982.549 146.907C984.614 146.907 985.83 148.276 985.83 150.576V151.353H980.417V151.675C980.417 153.132 981.282 154.07 982.637 154.07C983.64 154.07 984.38 153.645 984.6 152.949ZM982.542 147.976C981.216 147.976 980.417 148.884 980.417 150.408H984.6C984.6 148.892 983.823 147.976 982.542 147.976ZM991.411 151.44V154.004H993.872V155H988.591V154.004H990.195V148.049H988.43V147.053H991.396V149.082H991.558C991.851 147.61 992.839 146.848 994.37 146.848C994.824 146.848 995.256 146.914 995.52 147.024V148.423C995.154 148.291 994.641 148.203 994.209 148.203C992.451 148.203 991.411 149.419 991.411 151.44ZM1004.83 149.148V155H1003.71V149.514C1003.71 148.547 1003.36 148.042 1002.69 148.042C1001.99 148.042 1001.57 148.65 1001.57 149.639V155H1000.46V149.507C1000.46 148.547 1000.1 148.042 999.431 148.042C998.728 148.042 998.289 148.65 998.289 149.639V155H997.168V147.053H998.281V148.174H998.413C998.611 147.375 999.182 146.907 999.929 146.907C1000.68 146.907 1001.2 147.368 1001.37 148.152H1001.5C1001.71 147.39 1002.35 146.907 1003.14 146.907C1004.25 146.907 1004.83 147.676 1004.83 149.148ZM1007.38 149.199C1007.38 147.822 1008.55 146.899 1010.3 146.899C1011.96 146.899 1013.08 147.727 1013.22 149.053H1012.02C1011.88 148.357 1011.21 147.932 1010.28 147.932C1009.27 147.932 1008.62 148.401 1008.62 149.126C1008.62 149.734 1009.03 150.078 1010.02 150.298L1011.14 150.554C1012.69 150.906 1013.39 151.58 1013.39 152.729C1013.39 154.194 1012.17 155.146 1010.29 155.146C1008.48 155.146 1007.29 154.304 1007.15 152.942H1008.42C1008.6 153.674 1009.3 154.099 1010.33 154.099C1011.41 154.099 1012.1 153.608 1012.1 152.847C1012.1 152.217 1011.71 151.88 1010.7 151.653L1009.52 151.382C1008.09 151.052 1007.38 150.327 1007.38 149.199ZM1021.14 149.712C1021.14 152.202 1020.39 154.355 1018.94 156.011H1017.7C1019.21 153.879 1019.85 152.012 1019.85 149.712C1019.85 147.412 1019.21 145.544 1017.7 143.413H1018.94C1020.39 145.068 1021.14 147.229 1021.14 149.712Z" fill="white"/>
<rect x="100" y="170" width="100" height="100" rx="24" fill="white"/>
<path d="M136.091 203.997C137.629 203.997 138.523 202.986 138.523 201.25V194.431H139.812V201.331C139.812 203.762 138.42 205.22 136.091 205.22C133.762 205.22 132.371 203.762 132.371 201.331V194.431H133.66V201.25C133.66 202.986 134.553 203.997 136.091 203.997ZM142.471 199.199C142.471 197.822 143.643 196.899 145.393 196.899C147.048 196.899 148.169 197.727 148.315 199.053H147.114C146.968 198.357 146.301 197.932 145.371 197.932C144.36 197.932 143.708 198.401 143.708 199.126C143.708 199.734 144.119 200.078 145.115 200.298L146.235 200.554C147.781 200.906 148.484 201.58 148.484 202.729C148.484 204.194 147.261 205.146 145.378 205.146C143.577 205.146 142.383 204.304 142.244 202.942H143.511C143.694 203.674 144.397 204.099 145.422 204.099C146.506 204.099 147.195 203.608 147.195 202.847C147.195 202.217 146.807 201.88 145.796 201.653L144.617 201.382C143.181 201.052 142.471 200.327 142.471 199.199ZM156.782 202.949H157.991C157.749 204.26 156.489 205.146 154.819 205.146C152.637 205.146 151.37 203.835 151.37 201.572V200.378C151.37 198.284 152.71 196.907 154.731 196.907C156.797 196.907 158.013 198.276 158.013 200.576V201.353H152.6V201.675C152.6 203.132 153.464 204.07 154.819 204.07C155.823 204.07 156.562 203.645 156.782 202.949ZM154.724 197.976C153.398 197.976 152.6 198.884 152.6 200.408H156.782C156.782 198.892 156.006 197.976 154.724 197.976ZM163.594 201.44V204.004H166.055V205H160.774V204.004H162.378V198.049H160.613V197.053H163.579V199.082H163.74C164.033 197.61 165.022 196.848 166.553 196.848C167.007 196.848 167.439 196.914 167.703 197.024V198.423C167.336 198.291 166.824 198.203 166.392 198.203C164.634 198.203 163.594 199.419 163.594 201.44ZM130.129 219.529H128.899C128.745 218.599 127.969 218.013 126.943 218.013C125.559 218.013 124.79 218.958 124.79 220.664V221.382C124.79 223.088 125.559 224.026 126.943 224.026C127.969 224.026 128.745 223.447 128.899 222.539H130.129C129.932 224.158 128.723 225.146 126.965 225.146C124.805 225.146 123.545 223.821 123.545 221.543V220.503C123.545 218.225 124.805 216.899 126.965 216.899C128.723 216.899 129.924 217.896 130.129 219.529ZM139.563 225H132.979V223.967H135.696V214.966H133V213.933H136.941V223.967H139.563V225ZM145.503 215.105C144.917 215.105 144.47 214.666 144.47 214.08C144.47 213.501 144.917 213.062 145.503 213.062C146.089 213.062 146.536 213.501 146.536 214.08C146.536 214.666 146.089 215.105 145.503 215.105ZM148.835 225H142.251V223.967H144.976V218.086H142.273V217.053H146.206V223.967H148.835V225ZM157.947 219.529H156.716C156.562 218.599 155.786 218.013 154.761 218.013C153.376 218.013 152.607 218.958 152.607 220.664V221.382C152.607 223.088 153.376 224.026 154.761 224.026C155.786 224.026 156.562 223.447 156.716 222.539H157.947C157.749 224.158 156.541 225.146 154.783 225.146C152.622 225.146 151.362 223.821 151.362 221.543V220.503C151.362 218.225 152.622 216.899 154.783 216.899C156.541 216.899 157.742 217.896 157.947 219.529ZM162.583 220.62L166.047 217.053H167.556L164.473 220.203L167.776 225H166.296L163.586 221.052L162.488 222.107V225H161.243V213.933H162.488V220.62H162.583ZM170.288 219.199C170.288 217.822 171.46 216.899 173.21 216.899C174.866 216.899 175.986 217.727 176.133 219.053H174.932C174.785 218.357 174.119 217.932 173.188 217.932C172.178 217.932 171.526 218.401 171.526 219.126C171.526 219.734 171.936 220.078 172.932 220.298L174.053 220.554C175.598 220.906 176.301 221.58 176.301 222.729C176.301 224.194 175.078 225.146 173.196 225.146C171.394 225.146 170.2 224.304 170.061 222.942H171.328C171.511 223.674 172.214 224.099 173.24 224.099C174.324 224.099 175.012 223.608 175.012 222.847C175.012 222.217 174.624 221.88 173.613 221.653L172.434 221.382C170.999 221.052 170.288 220.327 170.288 219.199ZM139.563 245H132.979V243.967H135.696V234.966H133V233.933H136.941V243.967H139.563V245ZM145.503 235.105C144.917 235.105 144.47 234.666 144.47 234.08C144.47 233.501 144.917 233.062 145.503 233.062C146.089 233.062 146.536 233.501 146.536 234.08C146.536 234.666 146.089 235.105 145.503 235.105ZM148.835 245H142.251V243.967H144.976V238.086H142.273V237.053H146.206V243.967H148.835V245ZM151.384 245V237.053H152.578V238.452H152.681C153.105 237.463 154.014 236.907 155.222 236.907C156.951 236.907 157.888 237.939 157.888 239.844V245H156.643V240.159C156.643 238.723 156.057 238.049 154.819 238.049C153.508 238.049 152.629 238.965 152.629 240.32V245H151.384ZM162.583 240.62L166.047 237.053H167.556L164.473 240.203L167.776 245H166.296L163.586 241.052L162.488 242.107V245H161.243V233.933H162.488V240.62H162.583Z" fill="black"/>
<rect x="700" y="170" width="100" height="100" rx="24" fill="white"/>
<path d="M737.542 204.431H741.057C743.108 204.431 744.448 205.771 744.448 207.822C744.448 209.866 743.093 211.206 741.028 211.206H738.838V215H737.542V204.431ZM738.838 205.581V210.056H740.735C742.273 210.056 743.137 209.258 743.137 207.822C743.137 206.379 742.273 205.581 740.735 205.581H738.838ZM750 215.146C747.898 215.146 746.558 213.777 746.558 211.631V210.43C746.558 208.284 747.898 206.914 750 206.914C752.102 206.914 753.442 208.284 753.442 210.43V211.631C753.442 213.777 752.102 215.146 750 215.146ZM750 208.013C748.638 208.013 747.788 208.979 747.788 210.54V211.514C747.788 213.081 748.638 214.041 750 214.041C751.362 214.041 752.212 213.081 752.212 211.514V210.54C752.212 208.979 751.362 208.013 750 208.013ZM759.771 206.921C761.609 206.921 762.81 208.247 762.81 210.291V211.77C762.81 213.806 761.609 215.132 759.771 215.132C758.621 215.132 757.778 214.641 757.434 213.77H757.295V217.681H756.028V207.053H757.258V208.269H757.39C757.808 207.39 758.635 206.921 759.771 206.921ZM759.412 208.064C758.101 208.064 757.266 209.001 757.266 210.466V211.609C757.266 213.081 758.101 214.019 759.412 214.019C760.723 214.019 761.558 213.074 761.558 211.609V210.466C761.558 209.001 760.723 208.064 759.412 208.064ZM726.321 235.132C724.482 235.132 723.281 233.806 723.281 231.763V230.283C723.281 228.247 724.482 226.921 726.321 226.921C727.471 226.921 728.32 227.412 728.665 228.284H728.796V223.933H730.063V235H728.84V233.784H728.701C728.291 234.663 727.456 235.132 726.321 235.132ZM726.687 233.997C727.991 233.997 728.833 233.059 728.833 231.587V230.444C728.833 228.979 727.991 228.042 726.687 228.042C725.376 228.042 724.534 228.979 724.534 230.444V231.587C724.534 233.052 725.376 233.997 726.687 233.997ZM736.23 225.105C735.645 225.105 735.198 224.666 735.198 224.08C735.198 223.501 735.645 223.062 736.23 223.062C736.816 223.062 737.263 223.501 737.263 224.08C737.263 224.666 736.816 225.105 736.23 225.105ZM739.563 235H732.979V233.967H735.703V228.086H733V227.053H736.934V233.967H739.563V235ZM744.558 235.139C743.042 235.139 742.031 234.187 742.031 232.744C742.031 231.338 743.042 230.503 744.851 230.408L747.034 230.298V229.58C747.034 228.584 746.426 228.035 745.32 228.035C744.404 228.035 743.76 228.423 743.555 229.104H742.332C742.478 227.83 743.708 226.958 745.334 226.958C747.202 226.958 748.271 227.91 748.271 229.565V235.007H747.085V233.813H746.96C746.58 234.663 745.715 235.139 744.558 235.139ZM744.917 234.048C746.118 234.048 747.034 233.25 747.034 232.188V231.25L744.99 231.345C743.877 231.396 743.291 231.873 743.291 232.7C743.291 233.535 743.914 234.048 744.917 234.048ZM758.108 235H751.523V233.967H754.241V224.966H751.545V223.933H755.486V233.967H758.108V235ZM763.909 235.146C761.807 235.146 760.466 233.777 760.466 231.631V230.43C760.466 228.284 761.807 226.914 763.909 226.914C766.011 226.914 767.351 228.284 767.351 230.43V231.631C767.351 233.777 766.011 235.146 763.909 235.146ZM763.909 228.013C762.546 228.013 761.697 228.979 761.697 230.54V231.514C761.697 233.081 762.546 234.041 763.909 234.041C765.271 234.041 766.121 233.081 766.121 231.514V230.54C766.121 228.979 765.271 228.013 763.909 228.013ZM772.947 237.981C771.108 237.981 769.878 237.175 769.717 235.857H770.947C771.108 236.516 771.907 236.948 772.969 236.948C774.36 236.948 775.129 236.245 775.129 234.971V233.733H774.998C774.646 234.568 773.767 235.073 772.61 235.073C770.771 235.073 769.563 233.748 769.563 231.711V230.283C769.563 228.24 770.779 226.921 772.639 226.921C773.789 226.921 774.661 227.427 775.005 228.284H775.144V227.053H776.375V235C776.375 236.868 775.1 237.981 772.947 237.981ZM770.815 231.536C770.815 232.993 771.665 233.945 772.983 233.945C774.294 233.945 775.137 233 775.137 231.536V230.444C775.137 228.979 774.294 228.042 772.983 228.042C771.665 228.042 770.815 228.987 770.815 230.444V231.536Z" fill="black"/>
<rect x="500" y="370" width="100" height="100" rx="24" fill="white"/>
<path d="M515.195 405H514.031V394.431H515.269L519.795 402.656H519.897V394.431H521.062V405H519.839L515.298 396.753H515.195V405ZM526.013 405.139C524.497 405.139 523.486 404.187 523.486 402.744C523.486 401.338 524.497 400.503 526.306 400.408L528.489 400.298V399.58C528.489 398.584 527.881 398.035 526.775 398.035C525.859 398.035 525.215 398.423 525.01 399.104H523.787C523.933 397.83 525.164 396.958 526.79 396.958C528.657 396.958 529.727 397.91 529.727 399.565V405.007H528.54V403.813H528.416C528.035 404.663 527.17 405.139 526.013 405.139ZM526.372 404.048C527.573 404.048 528.489 403.25 528.489 402.188V401.25L526.445 401.345C525.332 401.396 524.746 401.873 524.746 402.7C524.746 403.535 525.369 404.048 526.372 404.048ZM532.502 397.053H533.835L536.055 403.667H536.15L538.354 397.053H539.68L536.78 405H535.41L532.502 397.053ZM545.503 395.105C544.917 395.105 544.47 394.666 544.47 394.08C544.47 393.501 544.917 393.062 545.503 393.062C546.089 393.062 546.536 393.501 546.536 394.08C546.536 394.666 546.089 395.105 545.503 395.105ZM548.835 405H542.251V403.967H544.976V398.086H542.273V397.053H546.206V403.967H548.835V405ZM554.402 407.981C552.563 407.981 551.333 407.175 551.172 405.857H552.402C552.563 406.516 553.362 406.948 554.424 406.948C555.815 406.948 556.584 406.245 556.584 404.971V403.733H556.453C556.101 404.568 555.222 405.073 554.065 405.073C552.227 405.073 551.018 403.748 551.018 401.711V400.283C551.018 398.24 552.234 396.921 554.094 396.921C555.244 396.921 556.116 397.427 556.46 398.284H556.599V397.053H557.83V405C557.83 406.868 556.555 407.981 554.402 407.981ZM552.271 401.536C552.271 402.993 553.12 403.945 554.438 403.945C555.75 403.945 556.592 403 556.592 401.536V400.444C556.592 398.979 555.75 398.042 554.438 398.042C553.12 398.042 552.271 398.987 552.271 400.444V401.536ZM563.103 405.139C561.587 405.139 560.576 404.187 560.576 402.744C560.576 401.338 561.587 400.503 563.396 400.408L565.579 400.298V399.58C565.579 398.584 564.971 398.035 563.865 398.035C562.949 398.035 562.305 398.423 562.1 399.104H560.876C561.023 397.83 562.253 396.958 563.879 396.958C565.747 396.958 566.816 397.91 566.816 399.565V405.007H565.63V403.813H565.505C565.125 404.663 564.26 405.139 563.103 405.139ZM563.462 404.048C564.663 404.048 565.579 403.25 565.579 402.188V401.25L563.535 401.345C562.422 401.396 561.836 401.873 561.836 402.7C561.836 403.535 562.458 404.048 563.462 404.048ZM571.826 394.922H573.057V397.075H576.279V398.137H573.071V402.62C573.071 403.484 573.679 403.953 574.8 403.953C575.247 403.953 576.045 403.931 576.257 403.909V404.963C576.06 405 575.093 405.037 574.712 405.037C572.742 405.037 571.826 404.29 571.826 402.634V398.137H569.709V397.075H571.826V394.922ZM584.6 402.949H585.808C585.566 404.26 584.307 405.146 582.637 405.146C580.454 405.146 579.187 403.835 579.187 401.572V400.378C579.187 398.284 580.527 396.907 582.549 396.907C584.614 396.907 585.83 398.276 585.83 400.576V401.353H580.417V401.675C580.417 403.132 581.282 404.07 582.637 404.07C583.64 404.07 584.38 403.645 584.6 402.949ZM582.542 397.976C581.216 397.976 580.417 398.884 580.417 400.408H584.6C584.6 398.892 583.823 397.976 582.542 397.976ZM544.009 414.922H545.239V417.075H548.462V418.137H545.254V422.62C545.254 423.484 545.862 423.953 546.982 423.953C547.429 423.953 548.228 423.931 548.44 423.909V424.963C548.242 425 547.275 425.037 546.895 425.037C544.924 425.037 544.009 424.29 544.009 422.634V418.137H541.892V417.075H544.009V414.922ZM554.636 425.146C552.534 425.146 551.194 423.777 551.194 421.631V420.43C551.194 418.284 552.534 416.914 554.636 416.914C556.738 416.914 558.079 418.284 558.079 420.43V421.631C558.079 423.777 556.738 425.146 554.636 425.146ZM554.636 418.013C553.274 418.013 552.424 418.979 552.424 420.54V421.514C552.424 423.081 553.274 424.041 554.636 424.041C555.999 424.041 556.848 423.081 556.848 421.514V420.54C556.848 418.979 555.999 418.013 554.636 418.013ZM518.191 445H516.902V435.618H513.708V434.431H521.384V435.618H518.191V445ZM523.56 445V433.933H524.761V438.459H524.863C525.281 437.471 526.196 436.914 527.412 436.914C529.141 436.914 530.078 437.954 530.078 439.851V445H528.833V440.166C528.833 438.738 528.247 438.057 527.002 438.057C525.691 438.057 524.805 438.972 524.805 440.327V445H523.56ZM536.23 435.105C535.645 435.105 535.198 434.666 535.198 434.08C535.198 433.501 535.645 433.062 536.23 433.062C536.816 433.062 537.263 433.501 537.263 434.08C537.263 434.666 536.816 435.105 536.23 435.105ZM539.563 445H532.979V443.967H535.703V438.086H533V437.053H536.934V443.967H539.563V445ZM542.112 445V437.053H543.306V438.452H543.408C543.833 437.463 544.741 436.907 545.95 436.907C547.678 436.907 548.616 437.939 548.616 439.844V445H547.371V440.159C547.371 438.723 546.785 438.049 545.547 438.049C544.236 438.049 543.357 438.965 543.357 440.32V445H542.112ZM554.402 447.981C552.563 447.981 551.333 447.175 551.172 445.857H552.402C552.563 446.516 553.362 446.948 554.424 446.948C555.815 446.948 556.584 446.245 556.584 444.971V443.733H556.453C556.101 444.568 555.222 445.073 554.065 445.073C552.227 445.073 551.018 443.748 551.018 441.711V440.283C551.018 438.24 552.234 436.921 554.094 436.921C555.244 436.921 556.116 437.427 556.46 438.284H556.599V437.053H557.83V445C557.83 446.868 556.555 447.981 554.402 447.981ZM552.271 441.536C552.271 442.993 553.12 443.945 554.438 443.945C555.75 443.945 556.592 443 556.592 441.536V440.444C556.592 438.979 555.75 438.042 554.438 438.042C553.12 438.042 552.271 438.987 552.271 440.444V441.536ZM575.964 445H570.398V443.85H572.537V435.581H570.398V434.431H575.964V435.581H573.826V443.85H575.964V445ZM578.989 434.431H581.948C584.944 434.431 586.453 436.196 586.453 439.697C586.453 443.228 584.944 445 581.948 445H578.989V434.431ZM580.286 435.618V443.813H581.831C584.072 443.813 585.134 442.502 585.134 439.705C585.134 436.936 584.065 435.618 581.831 435.618H580.286Z" fill="black"/>
<rect x="900" y="370" width="100" height="100" rx="24" fill="white"/>
<path d="M934.187 425L933.271 421.968H929.595L928.672 425H927.361L930.767 414.431H932.144L935.549 425H934.187ZM931.418 415.984L929.932 420.862H932.935L931.455 415.984H931.418ZM941.226 425.132C940.09 425.132 939.255 424.663 938.845 423.784H938.706V425H937.483V413.933H938.75V418.284H938.882C939.233 417.412 940.076 416.921 941.226 416.921C943.064 416.921 944.265 418.247 944.265 420.283V421.763C944.265 423.806 943.064 425.132 941.226 425.132ZM940.859 423.997C942.178 423.997 943.013 423.052 943.013 421.587V420.444C943.013 418.979 942.178 418.042 940.859 418.042C939.556 418.042 938.721 418.979 938.721 420.444V421.587C938.721 423.059 939.556 423.997 940.859 423.997ZM950 425.146C947.898 425.146 946.558 423.777 946.558 421.631V420.43C946.558 418.284 947.898 416.914 950 416.914C952.102 416.914 953.442 418.284 953.442 420.43V421.631C953.442 423.777 952.102 425.146 950 425.146ZM950 418.013C948.638 418.013 947.788 418.979 947.788 420.54V421.514C947.788 423.081 948.638 424.041 950 424.041C951.362 424.041 952.212 423.081 952.212 421.514V420.54C952.212 418.979 951.362 418.013 950 418.013ZM958.958 421.44V424.004H961.418V425H956.138V424.004H957.742V418.049H955.977V417.053H958.943V419.082H959.104C959.397 417.61 960.386 416.848 961.917 416.848C962.371 416.848 962.803 416.914 963.066 417.024V418.423C962.7 418.291 962.188 418.203 961.755 418.203C959.998 418.203 958.958 419.419 958.958 421.44ZM967.19 414.922H968.42V417.075H971.643V418.137H968.435V422.62C968.435 423.484 969.043 423.953 970.164 423.953C970.61 423.953 971.409 423.931 971.621 423.909V424.963C971.423 425 970.457 425.037 970.076 425.037C968.105 425.037 967.19 424.29 967.19 422.634V418.137H965.073V417.075H967.19V414.922Z" fill="black"/>
<rect x="1100" y="170" width="100" height="100" rx="24" fill="white"/>
<path d="M1115.2 215H1114.03V204.431H1115.27L1119.79 212.656H1119.9V204.431H1121.06V215H1119.84L1115.3 206.753H1115.2V215ZM1126.01 215.139C1124.5 215.139 1123.49 214.187 1123.49 212.744C1123.49 211.338 1124.5 210.503 1126.31 210.408L1128.49 210.298V209.58C1128.49 208.584 1127.88 208.035 1126.77 208.035C1125.86 208.035 1125.21 208.423 1125.01 209.104H1123.79C1123.93 207.83 1125.16 206.958 1126.79 206.958C1128.66 206.958 1129.73 207.91 1129.73 209.565V215.007H1128.54V213.813H1128.42C1128.03 214.663 1127.17 215.139 1126.01 215.139ZM1126.37 214.048C1127.57 214.048 1128.49 213.25 1128.49 212.188V211.25L1126.45 211.345C1125.33 211.396 1124.75 211.873 1124.75 212.7C1124.75 213.535 1125.37 214.048 1126.37 214.048ZM1132.5 207.053H1133.84L1136.05 213.667H1136.15L1138.35 207.053H1139.68L1136.78 215H1135.41L1132.5 207.053ZM1145.5 205.105C1144.92 205.105 1144.47 204.666 1144.47 204.08C1144.47 203.501 1144.92 203.062 1145.5 203.062C1146.09 203.062 1146.54 203.501 1146.54 204.08C1146.54 204.666 1146.09 205.105 1145.5 205.105ZM1148.84 215H1142.25V213.967H1144.98V208.086H1142.27V207.053H1146.21V213.967H1148.84V215ZM1154.4 217.981C1152.56 217.981 1151.33 217.175 1151.17 215.857H1152.4C1152.56 216.516 1153.36 216.948 1154.42 216.948C1155.82 216.948 1156.58 216.245 1156.58 214.971V213.733H1156.45C1156.1 214.568 1155.22 215.073 1154.06 215.073C1152.23 215.073 1151.02 213.748 1151.02 211.711V210.283C1151.02 208.24 1152.23 206.921 1154.09 206.921C1155.24 206.921 1156.12 207.427 1156.46 208.284H1156.6V207.053H1157.83V215C1157.83 216.868 1156.56 217.981 1154.4 217.981ZM1152.27 211.536C1152.27 212.993 1153.12 213.945 1154.44 213.945C1155.75 213.945 1156.59 213 1156.59 211.536V210.444C1156.59 208.979 1155.75 208.042 1154.44 208.042C1153.12 208.042 1152.27 208.987 1152.27 210.444V211.536ZM1163.1 215.139C1161.59 215.139 1160.58 214.187 1160.58 212.744C1160.58 211.338 1161.59 210.503 1163.4 210.408L1165.58 210.298V209.58C1165.58 208.584 1164.97 208.035 1163.86 208.035C1162.95 208.035 1162.3 208.423 1162.1 209.104H1160.88C1161.02 207.83 1162.25 206.958 1163.88 206.958C1165.75 206.958 1166.82 207.91 1166.82 209.565V215.007H1165.63V213.813H1165.51C1165.12 214.663 1164.26 215.139 1163.1 215.139ZM1163.46 214.048C1164.66 214.048 1165.58 213.25 1165.58 212.188V211.25L1163.54 211.345C1162.42 211.396 1161.84 211.873 1161.84 212.7C1161.84 213.535 1162.46 214.048 1163.46 214.048ZM1171.83 204.922H1173.06V207.075H1176.28V208.137H1173.07V212.62C1173.07 213.484 1173.68 213.953 1174.8 213.953C1175.25 213.953 1176.04 213.931 1176.26 213.909V214.963C1176.06 215 1175.09 215.037 1174.71 215.037C1172.74 215.037 1171.83 214.29 1171.83 212.634V208.137H1169.71V207.075H1171.83V204.922ZM1184.6 212.949H1185.81C1185.57 214.26 1184.31 215.146 1182.64 215.146C1180.45 215.146 1179.19 213.835 1179.19 211.572V210.378C1179.19 208.284 1180.53 206.907 1182.55 206.907C1184.61 206.907 1185.83 208.276 1185.83 210.576V211.353H1180.42V211.675C1180.42 213.132 1181.28 214.07 1182.64 214.07C1183.64 214.07 1184.38 213.645 1184.6 212.949ZM1182.54 207.976C1181.22 207.976 1180.42 208.884 1180.42 210.408H1184.6C1184.6 208.892 1183.82 207.976 1182.54 207.976ZM1125.46 224.922H1126.69V227.075H1129.92V228.137H1126.71V232.62C1126.71 233.484 1127.32 233.953 1128.44 233.953C1128.88 233.953 1129.68 233.931 1129.9 233.909V234.963C1129.7 235 1128.73 235.037 1128.35 235.037C1126.38 235.037 1125.46 234.29 1125.46 232.634V228.137H1123.35V227.075H1125.46V224.922ZM1136.09 235.146C1133.99 235.146 1132.65 233.777 1132.65 231.631V230.43C1132.65 228.284 1133.99 226.914 1136.09 226.914C1138.19 226.914 1139.53 228.284 1139.53 230.43V231.631C1139.53 233.777 1138.19 235.146 1136.09 235.146ZM1136.09 228.013C1134.73 228.013 1133.88 228.979 1133.88 230.54V231.514C1133.88 233.081 1134.73 234.041 1136.09 234.041C1137.45 234.041 1138.3 233.081 1138.3 231.514V230.54C1138.3 228.979 1137.45 228.013 1136.09 228.013ZM1154.64 233.997C1156.17 233.997 1157.07 232.986 1157.07 231.25V224.431H1158.36V231.331C1158.36 233.762 1156.97 235.22 1154.64 235.22C1152.31 235.22 1150.92 233.762 1150.92 231.331V224.431H1152.2V231.25C1152.2 232.986 1153.1 233.997 1154.64 233.997ZM1164.31 230.789H1161.88V235H1160.61V224.431H1164.15C1166.25 224.431 1167.56 225.647 1167.56 227.61C1167.56 228.994 1166.79 230.129 1165.59 230.525L1167.74 235H1166.28L1164.31 230.789ZM1161.88 225.581V229.697H1163.97C1165.43 229.697 1166.25 228.958 1166.25 227.639C1166.25 226.328 1165.45 225.581 1164.03 225.581H1161.88ZM1176.76 233.799V235H1170.47V224.431H1171.75V233.799H1176.76Z" fill="black"/>
<rect x="300" y="370" width="100" height="100" rx="24" fill="white"/>
<path d="M332.1 415H330.811V405.618H327.617V404.431H335.293V405.618H332.1V415ZM337.468 415V403.933H338.669V408.459H338.772C339.189 407.471 340.105 406.914 341.321 406.914C343.049 406.914 343.987 407.954 343.987 409.851V415H342.742V410.166C342.742 408.738 342.156 408.057 340.911 408.057C339.6 408.057 338.713 408.972 338.713 410.327V415H337.468ZM349.685 411.44V414.004H352.146V415H346.865V414.004H348.469V408.049H346.704V407.053H349.67V409.082H349.832C350.125 407.61 351.113 406.848 352.644 406.848C353.098 406.848 353.53 406.914 353.794 407.024V408.423C353.428 408.291 352.915 408.203 352.483 408.203C350.725 408.203 349.685 409.419 349.685 411.44ZM359.272 415.146C357.17 415.146 355.83 413.777 355.83 411.631V410.43C355.83 408.284 357.17 406.914 359.272 406.914C361.375 406.914 362.715 408.284 362.715 410.43V411.631C362.715 413.777 361.375 415.146 359.272 415.146ZM359.272 408.013C357.91 408.013 357.061 408.979 357.061 410.54V411.514C357.061 413.081 357.91 414.041 359.272 414.041C360.635 414.041 361.484 413.081 361.484 411.514V410.54C361.484 408.979 360.635 408.013 359.272 408.013ZM372.837 407.053L371.13 415H369.937L368.589 408.804H368.501L367.153 415H365.959L364.253 407.053H365.469L366.545 413.425H366.677L367.959 407.061H369.131L370.413 413.425H370.544L371.621 407.053H372.837ZM333.601 432.949H334.81C334.568 434.26 333.308 435.146 331.638 435.146C329.456 435.146 328.188 433.835 328.188 431.572V430.378C328.188 428.284 329.529 426.907 331.55 426.907C333.616 426.907 334.832 428.276 334.832 430.576V431.353H329.419V431.675C329.419 433.132 330.283 434.07 331.638 434.07C332.642 434.07 333.381 433.645 333.601 432.949ZM331.543 427.976C330.217 427.976 329.419 428.884 329.419 430.408H333.601C333.601 428.892 332.825 427.976 331.543 427.976ZM340.413 431.44V434.004H342.874V435H337.593V434.004H339.197V428.049H337.432V427.053H340.398V429.082H340.559C340.852 427.61 341.841 426.848 343.372 426.848C343.826 426.848 344.258 426.914 344.521 427.024V428.423C344.155 428.291 343.643 428.203 343.21 428.203C341.453 428.203 340.413 429.419 340.413 431.44ZM349.685 431.44V434.004H352.146V435H346.865V434.004H348.469V428.049H346.704V427.053H349.67V429.082H349.832C350.125 427.61 351.113 426.848 352.644 426.848C353.098 426.848 353.53 426.914 353.794 427.024V428.423C353.428 428.291 352.915 428.203 352.483 428.203C350.725 428.203 349.685 429.419 349.685 431.44ZM359.272 435.146C357.17 435.146 355.83 433.777 355.83 431.631V430.43C355.83 428.284 357.17 426.914 359.272 426.914C361.375 426.914 362.715 428.284 362.715 430.43V431.631C362.715 433.777 361.375 435.146 359.272 435.146ZM359.272 428.013C357.91 428.013 357.061 428.979 357.061 430.54V431.514C357.061 433.081 357.91 434.041 359.272 434.041C360.635 434.041 361.484 433.081 361.484 431.514V430.54C361.484 428.979 360.635 428.013 359.272 428.013ZM368.23 431.44V434.004H370.691V435H365.41V434.004H367.014V428.049H365.249V427.053H368.215V429.082H368.376C368.669 427.61 369.658 426.848 371.189 426.848C371.643 426.848 372.075 426.914 372.339 427.024V428.423C371.973 428.291 371.46 428.203 371.028 428.203C369.27 428.203 368.23 429.419 368.23 431.44Z" fill="black"/>
<path d="M210 219C209.448 219 209 219.448 209 220C209 220.552 209.448 221 210 221V219ZM290.707 220.707C291.098 220.317 291.098 219.683 290.707 219.293L284.343 212.929C283.953 212.538 283.319 212.538 282.929 212.929C282.538 213.319 282.538 213.953 282.929 214.343L288.586 220L282.929 225.657C282.538 226.047 282.538 226.681 282.929 227.071C283.319 227.462 283.953 227.462 284.343 227.071L290.707 220.707ZM210 221H290V219H210V221Z" fill="white"/>
<path d="M351 280C351 279.448 350.552 279 350 279C349.448 279 349 279.448 349 280L351 280ZM349.293 360.707C349.683 361.098 350.317 361.098 350.707 360.707L357.071 354.343C357.462 353.953 357.462 353.319 357.071 352.929C356.681 352.538 356.047 352.538 355.657 352.929L350 358.586L344.343 352.929C343.953 352.538 343.319 352.538 342.929 352.929C342.538 353.319 342.538 353.953 342.929 354.343L349.293 360.707ZM349 280L349 360L351 360L351 280L349 280Z" fill="white"/>
<path d="M551 280C551 279.448 550.552 279 550 279C549.448 279 549 279.448 549 280L551 280ZM549.293 360.707C549.683 361.098 550.317 361.098 550.707 360.707L557.071 354.343C557.462 353.953 557.462 353.319 557.071 352.929C556.681 352.538 556.047 352.538 555.657 352.929L550 358.586L544.343 352.929C543.953 352.538 543.319 352.538 542.929 352.929C542.538 353.319 542.538 353.953 542.929 354.343L549.293 360.707ZM549 280L549 360L551 360L551 280L549 280Z" fill="white"/>
<path d="M951 280C951 279.448 950.552 279 950 279C949.448 279 949 279.448 949 280L951 280ZM949.293 360.707C949.683 361.098 950.317 361.098 950.707 360.707L957.071 354.343C957.462 353.953 957.462 353.319 957.071 352.929C956.681 352.538 956.047 352.538 955.657 352.929L950 358.586L944.343 352.929C943.953 352.538 943.319 352.538 942.929 352.929C942.538 353.319 942.538 353.953 942.929 354.343L949.293 360.707ZM949 280L949 360L951 360L951 280L949 280Z" fill="white"/>
<path d="M410 219C409.448 219 409 219.448 409 220C409 220.552 409.448 221 410 221V219ZM490.707 220.707C491.098 220.317 491.098 219.683 490.707 219.293L484.343 212.929C483.953 212.538 483.319 212.538 482.929 212.929C482.538 213.319 482.538 213.953 482.929 214.343L488.586 220L482.929 225.657C482.538 226.047 482.538 226.681 482.929 227.071C483.319 227.462 483.953 227.462 484.343 227.071L490.707 220.707ZM410 221H490V219H410V221Z" fill="white"/>
<path d="M610 219C609.448 219 609 219.448 609 220C609 220.552 609.448 221 610 221V219ZM690.707 220.707C691.098 220.317 691.098 219.683 690.707 219.293L684.343 212.929C683.953 212.538 683.319 212.538 682.929 212.929C682.538 213.319 682.538 213.953 682.929 214.343L688.586 220L682.929 225.657C682.538 226.047 682.538 226.681 682.929 227.071C683.319 227.462 683.953 227.462 684.343 227.071L690.707 220.707ZM610 221H690V219H610V221Z" fill="white"/>
<path d="M810 219C809.448 219 809 219.448 809 220C809 220.552 809.448 221 810 221V219ZM890.707 220.707C891.098 220.317 891.098 219.683 890.707 219.293L884.343 212.929C883.953 212.538 883.319 212.538 882.929 212.929C882.538 213.319 882.538 213.953 882.929 214.343L888.586 220L882.929 225.657C882.538 226.047 882.538 226.681 882.929 227.071C883.319 227.462 883.953 227.462 884.343 227.071L890.707 220.707ZM810 221H890V219H810V221Z" fill="white"/>
<path d="M1010 219C1009.45 219 1009 219.448 1009 220C1009 220.552 1009.45 221 1010 221V219ZM1090.71 220.707C1091.1 220.317 1091.1 219.683 1090.71 219.293L1084.34 212.929C1083.95 212.538 1083.32 212.538 1082.93 212.929C1082.54 213.319 1082.54 213.953 1082.93 214.343L1088.59 220L1082.93 225.657C1082.54 226.047 1082.54 226.681 1082.93 227.071C1083.32 227.462 1083.95 227.462 1084.34 227.071L1090.71 220.707ZM1010 221H1090V219H1010V221Z" fill="white"/>
</svg>
