<svg xmlns="http://www.w3.org/2000/svg" style="display: none;">

	<symbol id="icon-twitter" viewBox="0 0 24 24">
		<path d="M22.46,6C21.69,6.35 20.86,6.58 20,6.69C20.88,6.16 21.56,5.32 21.88,4.31C21.05,4.81 20.13,5.16 19.16,5.36C18.37,4.5 17.26,4 16,4C13.65,4 11.73,5.92 11.73,8.29C11.73,8.63 11.77,8.96 11.84,9.27C8.28,9.09 5.11,7.38 3,4.79C2.63,5.42 2.42,6.16 2.42,6.94C2.42,8.43 3.17,9.75 4.33,10.5C3.62,10.5 2.96,10.3 2.38,10C2.38,10 2.38,10 2.38,10.03C2.38,12.11 3.86,13.85 5.82,14.24C5.46,14.34 5.08,14.39 4.69,14.39C4.42,14.39 4.15,14.36 3.89,14.31C4.43,16 6,17.26 7.89,17.29C6.43,18.45 4.58,19.13 2.56,19.13C2.22,19.13 1.88,19.11 1.54,19.07C3.44,20.29 5.7,21 8.12,21C16,21 20.33,14.46 20.33,8.79C20.33,8.6 20.33,8.42 20.32,8.23C21.16,7.63 21.88,6.87 22.46,6Z"/>
	</symbol>

	<symbol id="icon-codepen" viewBox="0 0 24 24">
		<path d="M15.09,12L12,14.08V14.09L8.91,12L12,9.92V9.92L15.09,12M12,2C11.84,2 11.68,2.06 11.53,2.15L2.5,8.11C2.27,8.22 2.09,8.43 2,8.67V14.92C2,15.33 2,15.33 2.15,15.53L11.53,21.86C11.67,21.96 11.84,22 12,22C12.16,22 12.33,21.95 12.47,21.85L21.85,15.5C22,15.33 22,15.33 22,14.92V8.67C21.91,8.42 21.73,8.22 21.5,8.1L12.47,2.15C12.32,2.05 12.16,2 12,2M16.58,13L19.59,15.04L12.83,19.6V15.53L16.58,13M19.69,8.9L16.58,11L12.83,8.47V4.38L19.69,8.9M20.33,10.47V13.53L18.07,12L20.33,10.47M7.42,13L11.17,15.54V19.6L4.41,15.04L7.42,13M4.31,8.9L11.17,4.39V8.5L7.42,11L4.31,8.9M3.67,10.5L5.93,12L3.67,13.54V10.5Z"/>
	</symbol>

	<symbol id="icon-github" viewBox="0 0 24 24">
		<path d="M12,2A10,10 0 0,0 2,12C2,16.42 4.87,20.17 8.84,21.5C9.34,21.58 9.5,21.27 9.5,21C9.5,20.77 9.5,20.14 9.5,19.31C6.73,19.91 6.14,17.97 6.14,17.97C5.68,16.81 5.03,16.5 5.03,16.5C4.12,15.88 5.1,15.9 5.1,15.9C6.1,15.97 6.63,16.93 6.63,16.93C7.5,18.45 8.97,18 9.54,17.76C9.63,17.11 9.89,16.67 10.17,16.42C7.95,16.17 5.62,15.31 5.62,11.5C5.62,10.39 6,9.5 6.65,8.79C6.55,8.54 6.2,7.5 6.75,6.15C6.75,6.15 7.59,5.88 9.5,7.17C10.29,6.95 11.15,6.84 12,6.84C12.85,6.84 13.71,6.95 14.5,7.17C16.41,5.88 17.25,6.15 17.25,6.15C17.8,7.5 17.45,8.54 17.35,8.79C18,9.5 18.38,10.39 18.38,11.5C18.38,15.32 16.04,16.16 13.81,16.41C14.17,16.72 14.5,17.33 14.5,18.26C14.5,19.6 14.5,20.68 14.5,21C14.5,21.27 14.66,21.59 15.17,21.5C19.14,20.16 22,16.42 22,12A10,10 0 0,0 12,2Z"/>
	</symbol>

	<symbol id="icon-linkedin" viewBox="0 0 24 24">
		<path d="M21,21H17V14.25C17,13.19 15.81,12.31 14.75,12.31C13.69,12.31 13,13.19 13,14.25V21H9V9H13V11C13.66,9.93 15.36,9.24 16.5,9.24C19,9.24 21,11.28 21,13.75V21M7,21H3V9H7V21M5,3A2,2 0 0,1 7,5A2,2 0 0,1 5,7A2,2 0 0,1 3,5A2,2 0 0,1 5,3Z"/>
	</symbol>

	<symbol id="icon-back" viewBox="0 0 24 24">
		<path d="M20 11H7.83l5.59-5.59L12 4l-8 8 8 8 1.41-1.41L7.83 13H20v-2z"/>
	</symbol>

	<symbol id="icon-forward" viewBox="0 0 24 24">
		<path d="M12 4l-1.41 1.41L16.17 11H4v2h12.17l-5.58 5.59L12 20l8-8z"/>
	</symbol>

	<symbol id="icon-lock" viewBox="0 0 24 24">
		<path d="M18 8h-1V6c0-2.76-2.24-5-5-5S7 3.24 7 6v2H6c-1.1 0-2 .9-2 2v10c0 1.1.9 2 2 2h12c1.1 0 2-.9 2-2V10c0-1.1-.9-2-2-2zm-6 9c-1.1 0-2-.9-2-2s.9-2 2-2 2 .9 2 2-.9 2-2 2zm3.1-9H8.9V6c0-1.71 1.39-3.1 3.1-3.1 1.71 0 3.1 1.39 3.1 3.1v2z"/>
	</symbol>

	<symbol id="icon-arrow-previous" viewBox="0 0 24 24">
		<path d="M20 11H7.83l5.59-5.59L12 4l-8 8 8 8 1.41-1.41L7.83 13H20v-2z"/>
	</symbol>

	<symbol id="icon-arrow-next" viewBox="0 0 24 24">
		<path d="M12 4l-1.41 1.41L16.17 11H4v2h12.17l-5.58 5.59L12 20l8-8z"/>
	</symbol>

</svg>